<?xml version="1.0" encoding="utf-8"?>
<!-- Generator: Adobe Illustrator 25.0.1, SVG Export Plug-In . SVG Version: 6.00 Build 0)  -->
<svg version="1.1" id="Camada_1" xmlns="http://www.w3.org/2000/svg" xmlns:xlink="http://www.w3.org/1999/xlink" x="0px" y="0px"
	 viewBox="0 0 319.7 187.8" style="enable-background:new 0 0 319.7 187.8;" xml:space="preserve">
<style type="text/css">
	.st0{fill:#BFBFBF;}
	.st1{fill:#2F2E41;}
	.st2{fill:#F86464;}
	.st3{fill:none;stroke:#3F3D56;stroke-miterlimit:10;}
	.st4{fill:#57B894;}
	.st5{fill:#FFFFFF;}
	.st6{opacity:0.3;fill:#F86464;enable-background:new    ;}
</style>
<g id="Grupo_2209" transform="translate(-27.733 -292.055)">
	<g id="Grupo_1983" transform="translate(28.071 304.342)">
		<ellipse id="Elipse_450" class="st0" cx="160.5" cy="165.1" rx="156.6" ry="10.4"/>
		<path id="Caminho_5286" class="st1" d="M154.5,49.6c-25.5,0-43.8,16.4-43.8,54.6c0,43.3,18.3,54.8,43.8,54.8s44.9-12.6,44.9-54.8
			C199.5,59,180,49.6,154.5,49.6z M154.7,144.5c-17.7,0-26.9-10.4-26.9-40.4c0-26.5,9.6-40.4,27.3-40.4s27.3,9.2,27.3,40.4
			C182.4,133.4,172.4,144.5,154.7,144.5L154.7,144.5z"/>
		<path id="Caminho_5287" class="st2" d="M95.4,128.7H84.9V97.6c0-3.4-2.8-6.2-6.2-6.2h-2.5c-3.4,0-6.2,2.8-6.2,6.2v31.1H40.2
			c-2,0-3.6-1.6-3.6-3.6c0-0.6,0.1-1.1,0.4-1.7l31.5-59.6c1.6-3,0.4-6.8-2.6-8.4c-0.1,0-0.2-0.1-0.3-0.1l-1.9-0.9
			c-3-1.4-6.6-0.2-8.1,2.7L17.3,129c-0.7,1.2-1,2.6-1,4l0,0c0,4.7,3.8,8.4,8.4,8.4c0,0,0,0,0,0h45.2v19.6c0,4.1,3.3,7.5,7.5,7.5l0,0
			l0,0c4.1,0,7.5-3.3,7.5-7.5c0,0,0,0,0,0v-19.7h10.6c3.5,0,6.4-2.9,6.4-6.4l0,0l0,0C101.8,131.6,98.9,128.7,95.4,128.7
			C95.4,128.7,95.4,128.7,95.4,128.7L95.4,128.7z"/>
		<path id="Caminho_5288" class="st2" d="M290.8,128.7h-10.6V97.6c0-3.4-2.8-6.2-6.2-6.2h-2.5c-3.4,0-6.2,2.8-6.2,6.2v31.1h-29.8
			c-2,0-3.6-1.6-3.6-3.6c0-0.6,0.1-1.1,0.4-1.7l31.5-59.6c1.6-3,0.4-6.8-2.6-8.4c-0.1,0-0.2-0.1-0.2-0.1l-1.9-0.9
			c-3-1.4-6.6-0.2-8.1,2.7L212.6,129c-0.7,1.2-1,2.6-1,4l0,0c0,4.7,3.8,8.4,8.4,8.4l0,0h45.2v19.6c0,4.1,3.3,7.5,7.5,7.5l0,0l0,0
			c4.1,0,7.5-3.3,7.5-7.5c0,0,0,0,0,0v-19.7h10.6c3.5,0,6.4-2.9,6.4-6.4l0,0l0,0C297.1,131.6,294.3,128.7,290.8,128.7L290.8,128.7
			L290.8,128.7z"/>
		<path id="Caminho_5289" class="st3" d="M98.3,125.1H87.8V94c0-3.4-2.8-6.2-6.2-6.2h-2.5c-3.4,0-6.2,2.8-6.2,6.2v31.1H43.1
			c-2,0-3.6-1.6-3.6-3.6c0-0.6,0.1-1.1,0.4-1.7l31.5-59.6c1.6-3,0.4-6.8-2.6-8.4c-0.1,0-0.2-0.1-0.3-0.1l-1.9-0.9
			c-3-1.4-6.6-0.2-8.1,2.7l-38.4,71.9c-0.7,1.2-1,2.6-1,4l0,0c0,4.7,3.8,8.4,8.4,8.4l0,0h45.2v19.6c0,4.1,3.3,7.5,7.5,7.5h0l0,0
			c4.1,0,7.5-3.3,7.5-7.5c0,0,0,0,0,0v-19.6h10.6c3.5,0,6.4-2.9,6.4-6.4l0,0l0,0C104.7,127.9,101.8,125.1,98.3,125.1
			C98.3,125.1,98.3,125.1,98.3,125.1L98.3,125.1z"/>
		<path id="Caminho_5290" class="st3" d="M296.2,125.1h-10.6V94c0-3.4-2.8-6.2-6.2-6.2H277c-3.4,0-6.2,2.8-6.2,6.2v31.1H241
			c-2,0-3.6-1.6-3.5-3.6c0-0.6,0.1-1.1,0.4-1.7l31.5-59.6c1.6-3,0.4-6.8-2.6-8.4c-0.1,0-0.2-0.1-0.3-0.1l-1.9-0.9
			c-3-1.4-6.6-0.2-8.1,2.7l-38.4,71.9c-0.7,1.2-1,2.6-1,4l0,0c0,4.7,3.8,8.4,8.4,8.4l0,0h45.2v19.6c0,4.1,3.3,7.5,7.5,7.5l0,0l0,0
			c4.1,0,7.5-3.3,7.5-7.5c0,0,0,0,0,0v-19.6h10.6c3.5,0,6.4-2.9,6.4-6.4l0,0l0,0C302.6,127.9,299.7,125.1,296.2,125.1L296.2,125.1
			L296.2,125.1z"/>
		<path id="Caminho_5291" class="st3" d="M160.3,46.3c-25.5,0-43.8,16.4-43.8,54.6c0,43.3,18.3,54.8,43.8,54.8s44.9-12.6,44.9-54.8
			C205.3,55.8,185.9,46.3,160.3,46.3z M160.5,141.3c-17.7,0-26.9-10.4-26.9-40.4c0-26.5,9.6-40.4,27.3-40.4s27.3,9.2,27.3,40.4
			C188.2,130.1,178.2,141.3,160.5,141.3L160.5,141.3z"/>
		<path id="Caminho_5307" class="st4" d="M299,124.6c3.2,1.2,6.8-0.5,7.9-3.7c1.2-3.2-0.5-6.8-3.7-7.9c-1.1-0.4-2.3-0.5-3.4-0.2
			l0.2,3.2l-1.5-2.7c-1.5,0.7-2.6,1.9-3.2,3.5c-0.2,0.5-0.3,1.1-0.4,1.7C294.7,121.1,296.4,123.6,299,124.6z"/>
		<path id="Caminho_5308" class="st3" d="M306.4,161.5c-0.5-2.7,1.8-5.1,4-6.7s4.9-3.1,5.7-5.7c1.1-3.8-2.2-7.3-4.8-10.3
			c-1.9-2.2-3.6-4.7-4.9-7.3c-0.6-1-1-2.1-1.2-3.3c-0.1-1.7,0.2-3.4,0.9-5c1.8-5.4,3.8-10.7,5.8-15.9"/>
		<path id="Caminho_5309" class="st3" d="M299.2,123.8c3.2,1.2,6.8-0.5,7.9-3.7c1.2-3.2-0.5-6.8-3.7-7.9c-1.1-0.4-2.3-0.5-3.4-0.2
			l0.2,3.2l-1.5-2.7c-1.5,0.7-2.6,1.9-3.2,3.5c-0.2,0.5-0.3,1.1-0.4,1.7C295,120.3,296.6,122.8,299.2,123.8z"/>
		<path id="Caminho_5310" class="st4" d="M305.6,106.2c0.7-2,2.4-3.5,4.4-3.9l0.5,3l0.9-3.2c3.4,0.1,6.1,2.9,6.1,6.3
			c-0.1,3.4-2.9,6.1-6.3,6.1c-3.4-0.1-6.1-2.9-6.1-6.3C305.3,107.5,305.4,106.8,305.6,106.2z"/>
		<path id="Caminho_5311" class="st3" d="M306,105.1c0.7-2,2.4-3.5,4.4-3.9l0.5,3l0.9-3.2c3.4,0.1,6.1,2.9,6.1,6.3
			c-0.1,3.4-2.9,6.1-6.3,6.1c-3.4-0.1-6.1-2.9-6.1-6.3C305.6,106.4,305.7,105.7,306,105.1z"/>
		<path id="Caminho_5312" class="st4" d="M310.3,138.8c3.2,1.2,6.8-0.5,7.9-3.7c1-2.7,0-5.7-2.4-7.3l-0.7,2.4l-0.5-3.1l0,0
			c-3.2-1.2-6.8,0.5-7.9,3.7C305.4,134.1,307.1,137.7,310.3,138.8z"/>
		<path id="Caminho_5313" class="st3" d="M310.6,137.7c3.2,1.2,6.8-0.5,7.9-3.7c1-2.7,0-5.7-2.4-7.3l-0.7,2.4l-0.5-3.1l0,0
			c-3.2-1.2-6.8,0.5-7.9,3.7C305.7,133,307.4,136.6,310.6,137.7L310.6,137.7z"/>
		<path id="Caminho_5314" class="st4" d="M303.8,149.1c0.6,3.4,3.8,5.6,7.2,5c3.4-0.6,5.6-3.8,5-7.2s-3.8-5.6-7.2-5
			c-1.5,0.3-2.9,1.1-3.8,2.3l2.8,4.1l-3.8-2.2C303.7,147.1,303.7,148.1,303.8,149.1z"/>
		<path id="Caminho_5315" class="st3" d="M304.1,148.3c0.6,3.4,3.8,5.6,7.2,5c3.4-0.6,5.6-3.8,5-7.2s-3.8-5.6-7.2-5
			c-1.5,0.3-2.9,1.1-3.8,2.3l2.8,4.1l-3.8-2.2C304,146.3,303.9,147.3,304.1,148.3z"/>
		<path id="Caminho_5316" class="st4" d="M2.7,139.6c2.1,0.8,4.4-0.3,5.2-2.4s-0.3-4.4-2.4-5.2c-0.7-0.3-1.5-0.3-2.2-0.2l0.1,2.1
			l-1-1.8c-1,0.5-1.7,1.3-2.1,2.3c-0.1,0.4-0.2,0.7-0.2,1.1C-0.1,137.3,1,139,2.7,139.6z"/>
		<path id="Caminho_5317" class="st3" d="M7.6,163.9c-0.3-1.8,1.2-3.4,2.7-4.4s3.2-2,3.7-3.8c0.7-2.5-1.4-4.8-3.1-6.8
			c-1.3-1.5-2.3-3.1-3.2-4.8c-0.4-0.7-0.6-1.4-0.8-2.2c-0.1-1.1,0.1-2.2,0.6-3.3c1.2-3.5,2.5-7,3.8-10.5"/>
		<path id="Caminho_5318" class="st3" d="M2.8,139.1c2.1,0.8,4.4-0.3,5.2-2.4s-0.3-4.4-2.4-5.2c-0.7-0.3-1.5-0.3-2.2-0.2l0.1,2.1
			l-1-1.8c-1,0.5-1.7,1.3-2.1,2.3c-0.1,0.4-0.2,0.7-0.2,1.1C0,136.8,1.1,138.5,2.8,139.1z"/>
		<path id="Caminho_5319" class="st4" d="M7.1,127.5c0.5-1.3,1.6-2.3,2.9-2.6l0.3,2l0.6-2.1c2.2,0,4,1.9,4,4.1c0,2.2-1.9,4-4.1,4
			c-2.2,0-4-1.9-4-4.1C6.8,128.4,6.9,128,7.1,127.5L7.1,127.5z"/>
		<path id="Caminho_5320" class="st3" d="M7.3,126.8c0.5-1.3,1.6-2.3,2.9-2.6l0.3,2l0.6-2.1c2.2,0,4,1.9,4,4.1c0,2.2-1.9,4-4.1,4
			c-2.2,0-4-1.9-4-4.1C7.1,127.7,7.1,127.2,7.3,126.8z"/>
		<path id="Caminho_5321" class="st4" d="M10.1,149c2.1,0.8,4.4-0.3,5.2-2.4c0.6-1.8,0-3.8-1.6-4.8l-0.5,1.6l-0.3-2h0
			c-2.1-0.7-4.4,0.4-5.2,2.5C7,145.9,8,148.2,10.1,149L10.1,149z"/>
		<path id="Caminho_5322" class="st3" d="M10.3,148.3c2.1,0.8,4.4-0.3,5.2-2.4c0.6-1.8,0-3.8-1.6-4.8l-0.5,1.6l-0.3-2h0
			c-2.1-0.7-4.4,0.4-5.2,2.5C7.2,145.2,8.2,147.5,10.3,148.3L10.3,148.3z"/>
		<path id="Caminho_5323" class="st4" d="M5.9,155.7c0.4,2.2,2.5,3.7,4.7,3.3c2.2-0.4,3.7-2.5,3.3-4.7s-2.5-3.7-4.7-3.3
			c-1,0.2-1.9,0.7-2.5,1.5l1.8,2.7L6,153.8C5.8,154.5,5.8,155.1,5.9,155.7z"/>
		<path id="Caminho_5324" class="st3" d="M6.1,155.2c0.4,2.2,2.5,3.7,4.7,3.3c2.2-0.4,3.7-2.5,3.3-4.7s-2.5-3.7-4.7-3.3
			c-1,0.2-1.9,0.7-2.5,1.5l1.8,2.7l-2.5-1.4C6,153.9,5.9,154.6,6.1,155.2z"/>
		<ellipse id="Elipse_455" class="st1" cx="142.8" cy="94.8" rx="5" ry="6.5"/>
		<ellipse id="Elipse_456" class="st1" cx="170.3" cy="94.9" rx="5" ry="6.5"/>
		<path id="Caminho_5325" class="st1" d="M166.4,114.2c0,3-4.1,5.3-9.2,5.3s-9.2-2.4-9.2-5.3c0-2.6,3.1-4.7,7.2-5.2
			c0.7-0.1,1.3-0.1,2-0.1c1.1,0,2.2,0.1,3.3,0.4C164,110,166.4,111.9,166.4,114.2z"/>
		<ellipse id="Elipse_457" class="st3" cx="144" cy="93.3" rx="5" ry="6.5"/>
		<ellipse id="Elipse_458" class="st3" cx="171.5" cy="93.4" rx="5" ry="6.5"/>
		<ellipse id="Elipse_459" class="st3" cx="158.4" cy="112.7" rx="9.2" ry="5.3"/>
		<path id="Caminho_5326" class="st5" d="M160.6,109.7c0,0.4-0.1,0.7-0.4,1c-0.2,0.3-0.6,0.4-0.9,0.4h-3c-0.8,0-1.4-0.7-1.3-1.4
			c0-0.3,0.1-0.6,0.2-0.8c0.7-0.1,1.3-0.1,2-0.1c1.1,0,2.2,0.1,3.3,0.4C160.6,109.3,160.6,109.5,160.6,109.7z"/>
		<circle id="Elipse_460" class="st5" cx="144" cy="91.5" r="1.5"/>
		<circle id="Elipse_461" class="st5" cx="171.6" cy="91.5" r="1.5"/>
		<circle id="Elipse_462" class="st6" cx="173.1" cy="105.4" r="1.5"/>
		<circle id="Elipse_463" class="st6" cx="136.9" cy="105.4" r="1.5"/>
	</g>
	<g id="Kin" transform="translate(132.054 313.542) rotate(-19)">
		
			<image style="overflow:visible;enable-background:new    ;" width="370" height="370" id="Kin_sad" xlink:href="E91EFFE5168BE138.png"  transform="matrix(0.1784 0 0 0.1784 0 0)">
		</image>
	</g>
</g>
</svg>
