<?xml version="1.0" encoding="utf-8"?>
<!-- Generator: Adobe Illustrator 25.0.1, SVG Export Plug-In . SVG Version: 6.00 Build 0)  -->
<svg version="1.1" id="Camada_1" xmlns="http://www.w3.org/2000/svg" xmlns:xlink="http://www.w3.org/1999/xlink" x="0px" y="0px"
	 viewBox="0 0 323.3 226.1" style="enable-background:new 0 0 323.3 226.1;" xml:space="preserve">
<style type="text/css">
	.st0{fill:#F2F2F2;}
	.st1{fill:#2F2E41;}
	.st2{fill:#F86464;}
	.st3{fill:#A8A8A8;}
	.st4{opacity:0.2;enable-background:new    ;}
	.st5{fill:#BFBFBF;}
	.st6{opacity:0.1;enable-background:new    ;}
	.st7{fill:none;stroke:#2F2E41;stroke-width:2;stroke-miterlimit:10;}
	.st8{fill:none;stroke:#2F2E41;stroke-width:1.9992;stroke-miterlimit:9.9961;}
	.st9{fill:#3F3D56;}
	.st10{opacity:0.4;fill:#F86464;enable-background:new    ;}
	.st11{opacity:0.8;fill:#F86464;enable-background:new    ;}
</style>
<g id="Grupo_2210" transform="translate(-25.843 -272.649)">
	<g id="Grupo_1984" transform="translate(25.843 272.649)">
		<circle id="Elipse_464" class="st0" cx="84.5" cy="61.5" r="61.5"/>
		<path id="Caminho_5327" class="st1" d="M0,14.8c0,22.4,14,40.5,31.4,40.5"/>
		<path id="Caminho_5328" class="st2" d="M31.4,55.3c0-22.6,15.7-40.9,35-40.9"/>
		<path id="Caminho_5329" class="st2" d="M11.4,16.8c0,21.3,9,38.5,20,38.5"/>
		<path id="Caminho_5330" class="st1" d="M31.4,55.3c0-28.9,18.1-52.3,40.5-52.3"/>
		<path id="Caminho_5331" class="st3" d="M24.8,55.5c0,0,4.5-0.1,5.8-1.1s6.8-2.1,7.2-0.6s6.7,7.6,1.7,7.7s-11.7-0.8-13-1.6
			S24.8,55.5,24.8,55.5z"/>
		<path id="Caminho_5332" class="st4" d="M39.5,61c-5,0-11.7-0.8-13-1.6c-1-0.6-1.4-2.9-1.6-3.9l-0.1,0c0,0,0.3,3.6,1.6,4.4
			s8,1.6,13,1.6c1.5,0,2-0.5,1.9-1.3C41.1,60.7,40.6,61,39.5,61z"/>
		<ellipse id="Elipse_465" class="st5" cx="57.4" cy="122.6" rx="54" ry="7.3"/>
		<ellipse id="Elipse_466" class="st6" cx="57.4" cy="122.6" rx="45.3" ry="6.2"/>
		<ellipse id="Elipse_467" class="st5" cx="241.6" cy="190.7" rx="81.7" ry="11.1"/>
		<ellipse id="Elipse_468" class="st5" cx="53.9" cy="221.9" rx="18" ry="4.2"/>
		<path id="Caminho_5333" class="st7" d="M133.6,180.8c26,6.6,75.9-8.7,81.4-26"/>
		<path id="Caminho_5334" class="st7" d="M89.4,74.8c0,0,37.5-10.4,39.9,23.1s-30.9,43-4.9,49.7"/>
		<path id="Caminho_5335" class="st8" d="M108.9,199.7c0,0,2.7,11.4-7.4,11.7s-12.6-9.7-14.9-2"/>
		<path id="Caminho_5336" class="st1" d="M224.9,162.6l-2.3,14.5c0,0-11.2,6-3.3,6.1s45,0,45,0s7.2,0-4.2-6.3l-2.3-15.2L224.9,162.6
			z"/>
		<path id="Caminho_5337" class="st6" d="M217.7,183.1c1.5-1.2,3.2-2.3,4.9-3.2l2.3-14.5l32.9,0l2.3,14.3c1.9,1,3.6,2.1,5.3,3.5
			c1.5-0.3,3.1-1.6-5.3-6.2l-2.3-15.2l-32.9,0.9l-2.3,14.5C222.6,177.2,213.2,182.2,217.7,183.1z"/>
		<path id="Retângulo_898" class="st1" d="M185.1,61.4h112.1c10,0,18,8.1,18,18v67.1c0,10-8.1,18-18,18H185.1c-10,0-18-8.1-18-18
			V79.5C167,69.5,175.1,61.4,185.1,61.4z"/>
		<rect id="Retângulo_899" x="172" y="66.9" class="st9" width="138.2" height="77.3"/>
		<circle id="Elipse_469" class="st0" cx="241.1" cy="64.5" r="0.9"/>
		<path id="Caminho_5338" class="st1" d="M315.3,150.4v9.1c0,2.9-2.3,5.2-5.2,5.2c0,0,0,0,0,0H172.2c-2.9,0-5.2-2.3-5.2-5.2
			c0,0,0,0,0,0v-9L315.3,150.4z"/>
		<path id="Caminho_5339" class="st1" d="M279.8,192.7v1.8h-94.1v-1.4l0.1-0.3l2.3-6.3h89.8L279.8,192.7z"/>
		<path id="Caminho_5340" class="st1" d="M316,191c-0.2,0.7-0.8,1.5-2.3,2.2c-5.2,2.6-15.9-0.7-15.9-0.7s-8.2-1.4-8.2-5.1
			c0.2-0.2,0.5-0.3,0.7-0.4c2.2-1.2,9.5-4,22.5,0.1c1,0.3,1.8,0.9,2.5,1.6C315.9,189.4,316.2,190.2,316,191z"/>
		<path id="Caminho_5341" class="st6" d="M316,191c-6.4,2.5-12.2,2.6-18-1.4c-2.2-1.6-4.9-2.5-7.7-2.5c2.2-1.2,9.5-4,22.5,0.1
			c1,0.3,1.8,0.9,2.5,1.6C315.9,189.4,316.2,190.2,316,191z"/>
		<ellipse id="Elipse_470" class="st0" cx="308" cy="188.9" rx="2.3" ry="0.7"/>
		<circle id="Elipse_471" class="st0" cx="241.1" cy="157.6" r="3.3"/>
		<path id="Caminho_5342" class="st6" d="M279.8,192.7v1.8h-94.1v-1.4l0.1-0.3H279.8z"/>
		<rect id="Retângulo_900" x="31.4" y="45.9" class="st1" width="60.1" height="69.9"/>
		<rect id="Retângulo_901" x="25.3" y="39" class="st9" width="72.2" height="24.8"/>
		<rect id="Retângulo_902" x="25.3" y="68.4" class="st9" width="72.2" height="24.8"/>
		<rect id="Retângulo_903" x="25.3" y="97.9" class="st9" width="72.2" height="24.8"/>
		<rect id="Retângulo_904" x="78.4" y="43.3" class="st10" width="4.6" height="4.6"/>
		<rect id="Retângulo_905" x="85.1" y="43.3" class="st11" width="4.6" height="4.6"/>
		<rect id="Retângulo_906" x="91.7" y="43.3" class="st2" width="4.6" height="4.6"/>
		<rect id="Retângulo_907" x="78.4" y="72.5" class="st10" width="4.6" height="4.6"/>
		<rect id="Retângulo_908" x="85.1" y="72.5" class="st11" width="4.6" height="4.6"/>
		<rect id="Retângulo_909" x="91.7" y="72.5" class="st2" width="4.6" height="4.6"/>
		<rect id="Retângulo_910" x="78.4" y="101.6" class="st10" width="4.6" height="4.6"/>
		<rect id="Retângulo_911" x="85.1" y="101.6" class="st11" width="4.6" height="4.6"/>
		<rect id="Retângulo_912" x="91.7" y="101.6" class="st2" width="4.6" height="4.6"/>
		<ellipse id="Elipse_472" class="st5" cx="99.4" cy="219.8" rx="12" ry="2.1"/>
	</g>
	<g id="Kin" transform="translate(49 423)">
		
			<image style="overflow:visible;enable-background:new    ;" width="370" height="370" id="Kin_sad" xlink:href="8972E789E1CF61F.png"  transform="matrix(0.1784 0 0 0.1784 0 0)">
		</image>
	</g>
</g>
</svg>
