<?xml version="1.0" encoding="utf-8"?>
<!-- Generator: Adobe Illustrator 25.0.1, SVG Export Plug-In . SVG Version: 6.00 Build 0)  -->
<svg version="1.1" id="Camada_1" xmlns="http://www.w3.org/2000/svg" xmlns:xlink="http://www.w3.org/1999/xlink" x="0px" y="0px"
	 viewBox="0 0 77 79.7" style="enable-background:new 0 0 77 79.7;" xml:space="preserve">
<style type="text/css">
	.st0{fill:#A35D45;}
	.st1{fill:#E2D0C5;}
	.st2{fill:#FFF2E9;}
	.st3{fill:#F86464;}
	.st4{fill:#AB3333;}
	.st5{fill:#BFBFBF;}
	.st6{fill:#767676;}
	.st7{fill:#767676;fill-opacity:0;}
	.st8{enable-background:new    ;}
</style>
<g id="book_1_" transform="translate(-8.613)">
	<path id="Caminho_2362" class="st0" d="M59.3,62.5v12.1c0,2.9-2.3,5.2-5.2,5.2l0,0H14.6c-3.3,0-6-2.7-6-6l0,0
		c0-1.7,0.7-8.8,1.8-9.9s2.7-1.8,4.3-1.8h39.5c0.7,0,1.3-0.1,1.9-0.4C58,60.9,59.3,64.6,59.3,62.5z"/>
	<path id="Caminho_2363" class="st1" d="M56.1,62.5v6.8c-0.6,0.2-1.3,0.3-1.9,0.3H14.6c-2.2,0-4,1.8-4,4c0,0.6,0.1,1.2,0.4,1.7
		c0.2,0.3,0.3,0.6,0.6,0.9H9.2c-0.4-0.8-0.6-1.7-0.6-2.6V62.1L56.1,62.5z"/>
	<path id="Caminho_2364" class="st2" d="M57.8,64.6v11.5c0,1.3-1,2.3-2.3,2.3H11c-0.4-0.8-0.6-1.7-0.6-2.6V64.1L57.8,64.6z"/>
	<path id="Caminho_2365" class="st3" d="M59.3,19.1v43.4c0,2.2-1.4,4.9-3.3,5.7c-0.6,0.2-1.2,0.4-1.9,0.4H14.6
		c-1.6,0-3.1,0.6-4.3,1.8c-1.1,1.1-1.8,1.7-1.8,3.4V20c0-3.3,2.7-6,6-6l0,0H54C57,13.9,59.3,16.2,59.3,19.1L59.3,19.1z"/>
	<g id="Grupo_1232" transform="translate(12.437 71.124)">
		<path id="Caminho_2366" class="st1" d="M44.9,2H1C0.5,2,0,1.6,0,1s0.4-1,1-1l0,0h43.9c0.6,0,1,0.4,1,1C45.9,1.5,45.5,2,44.9,2
			L44.9,2z"/>
		<path id="Caminho_2367" class="st1" d="M44.9,5.2H1c-0.6,0-1-0.5-1-1s0.5-1,1-1h43.9c0.6,0,1,0.5,1,1S45.4,5.2,44.9,5.2L44.9,5.2z
			"/>
	</g>
	<g id="Grupo_1233" transform="translate(8.613 13.923)">
		<path id="Caminho_2368" class="st4" d="M47.5,53.3c-0.6,0.2-1.2,0.4-1.9,0.4H6c-0.6,0-1.1,0.1-1.6,0.2V0.2C1.8,1,0,3.3,0,6v53.7
			c0-0.1,0-0.2,0-0.2c0,0.1,0,0.2,0,0.2c0,3.3,2.7,6,6,6l0,0h39.5c2.9,0,5.2-2.3,5.2-5.2v-12C50.7,50.6,49.4,52.5,47.5,53.3z
			 M48.7,60.6c0,1.7-1.4,3.1-3.1,3.1H6c-1.2,0-2.3-0.5-3-1.4c-0.2-0.3-0.4-0.6-0.6-0.9c-1-2-0.1-4.4,1.9-5.4
			c0.5-0.3,1.1-0.4,1.7-0.4h39.5c0.6,0,1.3-0.1,1.9-0.3c0.3-0.1,0.5-0.2,0.7-0.2c0.2-0.1,0.3-0.1,0.5-0.2L48.7,60.6L48.7,60.6z"/>
		<path id="Caminho_2369" class="st4" d="M50.7,5.2v43.5c0,0.1,0,0.2,0,0.3H31c-3,0-5.5-2.5-5.5-5.5l0,0l0,0V0h20.1
			C48.4,0,50.7,2.3,50.7,5.2z"/>
	</g>
	<path id="Caminho_2370" class="st0" d="M85.6,44.1v11c0,2.6-2.1,4.7-4.7,4.7l0,0H45c-3,0-5.5-2.4-5.5-5.5l0,0c0-1.5,0.6-8,1.6-9
		s2.4-1.6,3.9-1.6h35.9c0.6,0,1.2-0.1,1.7-0.3C84.4,42.7,85.6,46.1,85.6,44.1z"/>
	<path id="Caminho_2371" class="st1" d="M82.6,44.2v6.2c-0.6,0.2-1.1,0.2-1.7,0.2H45c-2,0-3.7,1.6-3.7,3.7c0,0.5,0.1,1.1,0.4,1.6
		c0.1,0.3,0.3,0.6,0.5,0.8H40c-0.4-0.7-0.5-1.6-0.5-2.4V43.8L82.6,44.2z"/>
	<path id="Caminho_2372" class="st2" d="M84.2,46.1v10.4c0,1.1-0.9,2.1-2.1,2.1H41.6c-0.4-0.7-0.5-1.6-0.5-2.4V45.7L84.2,46.1z"/>
	<path id="Caminho_2373" class="st5" d="M85.6,4.7v39.4c0,2-1.2,4.6-3,5.3c-0.6,0.2-1.1,0.3-1.7,0.3H45c-1.5,0-2.9,0.6-3.9,1.6
		s-1.6,1.4-1.6,2.9V5.5C39.5,2.5,42,0,45,0l0,0h35.9C83.5,0,85.6,2.1,85.6,4.7L85.6,4.7z"/>
	<g id="Grupo_1234" transform="translate(42.958 52.022)">
		<path id="Caminho_2374" class="st1" d="M40.8,1.8H0.9C0.4,1.8,0,1.4,0,0.9S0.4,0,0.9,0l0,0h39.9c0.5,0,0.9,0.4,0.9,0.9
			C41.7,1.4,41.3,1.8,40.8,1.8z"/>
		<path id="Caminho_2375" class="st1" d="M40.8,4.7H0.9C0.4,4.7,0,4.3,0,3.8s0.4-0.9,0.9-0.9l0,0h39.9c0.5,0,0.9,0.4,0.9,0.9
			C41.7,4.3,41.3,4.7,40.8,4.7z"/>
	</g>
	<g id="Grupo_1235" transform="translate(39.48 0.208)">
		<path id="Caminho_2376" class="st6" d="M43.2,48.3c-0.6,0.2-1.1,0.3-1.7,0.3h-36c-0.5,0-1,0.1-1.5,0.2V0C1.6,0.7,0,2.8,0,5.3v48.8
			C0,54,0,54,0,53.9C0,54,0,54,0,54.1c0,3,2.4,5.5,5.5,5.5l0,0h36c2.6,0,4.7-2.1,4.7-4.7l0,0v-11C46.1,45.9,45,47.6,43.2,48.3z
			 M44.3,54.9c0,1.6-1.3,2.9-2.9,2.9l0,0H5.5c-1.1,0-2.1-0.5-2.8-1.3c-0.2-0.2-0.4-0.5-0.5-0.8c-0.9-1.8-0.1-4,1.7-4.9
			c0.5-0.2,1-0.4,1.6-0.4h35.9c0.6,0,1.2-0.1,1.7-0.2c0.2-0.1,0.5-0.1,0.7-0.2c0.2-0.1,0.3-0.1,0.5-0.2L44.3,54.9L44.3,54.9z"/>
		<path id="Caminho_2377" class="st7" d="M34.3,16.6H16.2c-0.7,0-1.2-0.6-1.2-1.3c0-0.6,0.5-1.2,1.2-1.2h18.2c0.7,0,1.2,0.6,1.2,1.3
			C35.5,16,35,16.5,34.3,16.6z"/>
		<path id="Caminho_2378" class="st7" d="M34.3,21.5H16.2c-0.7,0-1.2-0.6-1.2-1.3c0-0.6,0.5-1.2,1.2-1.2h18.2c0.7,0,1.2,0.6,1.2,1.3
			C35.5,21,35,21.5,34.3,21.5z"/>
	</g>
	<g>
		<g class="st8">
			<path class="st6" d="M49.4,18.7c-0.2-0.2-0.3-0.4-0.3-0.8v-7.8c0-0.3,0.1-0.6,0.3-0.8c0.2-0.2,0.5-0.3,0.8-0.3
				c0.3,0,0.6,0.1,0.8,0.3c0.2,0.2,0.3,0.5,0.3,0.8v7.1h3.6c0.7,0,1,0.3,1,0.9c0,0.6-0.3,0.9-1,0.9h-4.7
				C49.9,19,49.6,18.9,49.4,18.7z"/>
			<path class="st6" d="M62.8,17.2c0.1,0.1,0.2,0.3,0.2,0.6c0,0.2,0,0.3-0.1,0.4c-0.1,0.1-0.2,0.2-0.4,0.3c-0.3,0.2-0.7,0.3-1.1,0.4
				s-0.8,0.2-1.2,0.2c-0.7,0-1.4-0.1-2-0.4c-0.6-0.3-1-0.7-1.3-1.2c-0.3-0.5-0.4-1.2-0.4-1.9c0-0.7,0.1-1.3,0.4-1.9
				c0.3-0.5,0.7-1,1.2-1.3c0.5-0.3,1.1-0.5,1.8-0.5c0.6,0,1.2,0.1,1.6,0.4c0.5,0.3,0.8,0.7,1.1,1.2c0.3,0.5,0.4,1.1,0.4,1.8
				c0,0.2,0,0.4-0.1,0.5c-0.1,0.1-0.2,0.2-0.4,0.2h-3.9c0.1,0.6,0.2,1,0.5,1.2s0.7,0.4,1.2,0.4c0.3,0,0.5,0,0.7-0.1
				c0.2-0.1,0.5-0.2,0.7-0.3c0.1-0.1,0.3-0.1,0.4-0.1s0.2-0.1,0.3-0.1C62.5,17,62.7,17,62.8,17.2z M59,13.8
				c-0.2,0.3-0.4,0.6-0.4,1.1h2.7c0-0.5-0.2-0.9-0.4-1.1c-0.2-0.3-0.5-0.4-0.9-0.4S59.2,13.5,59,13.8z"/>
			<path class="st6" d="M69.2,12.1c0.2-0.1,0.3-0.1,0.5-0.1c0.3,0,0.5,0.1,0.7,0.3c0.2,0.2,0.3,0.4,0.3,0.6c0,0.1,0,0.3-0.1,0.4
				l-2.5,5.2c-0.1,0.2-0.2,0.4-0.4,0.5s-0.4,0.2-0.6,0.2s-0.4-0.1-0.6-0.2s-0.3-0.3-0.4-0.5l-2.5-5.2c-0.1-0.1-0.1-0.3-0.1-0.4
				c0-0.3,0.1-0.5,0.3-0.6c0.2-0.2,0.5-0.3,0.7-0.3c0.2,0,0.4,0,0.5,0.1c0.2,0.1,0.3,0.2,0.4,0.4l1.7,3.8l1.7-3.8
				C68.9,12.4,69,12.2,69.2,12.1z"/>
			<path class="st6" d="M77.4,17.2c0.1,0.1,0.2,0.3,0.2,0.6c0,0.2,0,0.3-0.1,0.4c-0.1,0.1-0.2,0.2-0.4,0.3c-0.3,0.2-0.7,0.3-1.1,0.4
				c-0.4,0.1-0.8,0.2-1.2,0.2c-0.7,0-1.4-0.1-2-0.4c-0.6-0.3-1-0.7-1.3-1.2c-0.3-0.5-0.4-1.2-0.4-1.9c0-0.7,0.1-1.3,0.4-1.9
				c0.3-0.5,0.7-1,1.2-1.3c0.5-0.3,1.1-0.5,1.8-0.5c0.6,0,1.2,0.1,1.6,0.4c0.5,0.3,0.8,0.7,1.1,1.2c0.3,0.5,0.4,1.1,0.4,1.8
				c0,0.2,0,0.4-0.1,0.5c-0.1,0.1-0.2,0.2-0.4,0.2h-3.9c0.1,0.6,0.2,1,0.5,1.2s0.7,0.4,1.2,0.4c0.3,0,0.5,0,0.7-0.1
				c0.2-0.1,0.5-0.2,0.7-0.3c0.1-0.1,0.3-0.1,0.4-0.1S76.9,17,77,17C77.2,17,77.3,17,77.4,17.2z M73.6,13.8
				c-0.2,0.3-0.4,0.6-0.4,1.1h2.7c0-0.5-0.2-0.9-0.4-1.1c-0.2-0.3-0.5-0.4-0.9-0.4S73.9,13.5,73.6,13.8z"/>
			<path class="st6" d="M79.2,18.8c-0.2-0.2-0.3-0.4-0.3-0.7v-8c0-0.3,0.1-0.6,0.3-0.7c0.2-0.2,0.5-0.3,0.8-0.3
				c0.3,0,0.5,0.1,0.7,0.3c0.2,0.2,0.3,0.4,0.3,0.7v8c0,0.3-0.1,0.6-0.3,0.7c-0.2,0.2-0.5,0.3-0.7,0.3C79.7,19.1,79.4,19,79.2,18.8z
				"/>
		</g>
		<g class="st8">
			<path class="st6" d="M68.5,38.1c0,0.6-0.3,0.9-1,0.9h-4.8c-0.7,0-1-0.3-1-0.9c0-0.6,0.3-0.9,1-0.9H64v-5.7l-1.2,0.7
				c-0.1,0.1-0.3,0.1-0.4,0.1c-0.2,0-0.4-0.1-0.6-0.3c-0.2-0.2-0.2-0.4-0.2-0.7c0-0.3,0.1-0.6,0.4-0.7l2.2-1.3
				c0.3-0.2,0.7-0.3,1-0.3c0.3,0,0.6,0.1,0.8,0.3s0.3,0.5,0.3,0.8v7.1h1.3C68.2,37.2,68.5,37.5,68.5,38.1z"/>
		</g>
	</g>
</g>
</svg>
