<svg id="open-book_1_" data-name="open-book(1)" xmlns="http://www.w3.org/2000/svg" width="35.898" height="27.426" viewBox="0 0 35.898 27.426">
  <g id="Grupo_636" data-name="Grupo 636" transform="translate(0 0)">
    <g id="Grupo_635" data-name="Grupo 635">
      <path id="Caminho_1559" data-name="Caminho 1559" d="M36.114,35.049h0a1.266,1.266,0,0,0-.9.373,1.279,1.279,0,0,0-.378.912V55.6a1.289,1.289,0,0,0,1.286,1.284c2.99.007,8,.63,11.456,4.247V40.968a1.231,1.231,0,0,0-.177-.651C44.562,35.75,39.111,35.056,36.114,35.049Z" transform="translate(-30.623 -35.049)" fill="#f86464"/>
      <path id="Caminho_1560" data-name="Caminho 1560" d="M169.493,55.6V36.333a1.279,1.279,0,0,0-.378-.912,1.266,1.266,0,0,0-.9-.373h0c-3,.007-8.447.7-11.284,5.269a1.231,1.231,0,0,0-.176.651V61.126c3.456-3.617,8.466-4.24,11.456-4.247A1.289,1.289,0,0,0,169.493,55.6Z" transform="translate(-137.804 -35.048)" fill="#fbb1b1"/>
      <path id="Caminho_1561" data-name="Caminho 1561" d="M185.369,71.8h-.931v16.1a3.286,3.286,0,0,1-3.276,3.279c-2.536.006-6.718.5-9.68,3.305a30.924,30.924,0,0,1,13.6.262,1.284,1.284,0,0,0,1.572-1.252V73.085A1.286,1.286,0,0,0,185.369,71.8Z" transform="translate(-150.755 -67.359)" fill="#fbb1b1"/>
      <path id="Caminho_1562" data-name="Caminho 1562" d="M2.216,87.906V71.8H1.284A1.286,1.286,0,0,0,0,73.085V93.5a1.284,1.284,0,0,0,1.572,1.252,30.922,30.922,0,0,1,13.6-.262c-2.962-2.8-7.143-3.3-9.68-3.3A3.286,3.286,0,0,1,2.216,87.906Z" transform="translate(0 -67.359)" fill="#f86464"/>
    </g>
  </g>
</svg>
