<?xml version="1.0" encoding="utf-8"?>
<!-- Generator: Adobe Illustrator 25.0.1, SVG Export Plug-In . SVG Version: 6.00 Build 0)  -->
<svg version="1.1" id="Camada_1" xmlns="http://www.w3.org/2000/svg" xmlns:xlink="http://www.w3.org/1999/xlink" x="0px" y="0px"
	 viewBox="0 0 71.2 71.2" style="enable-background:new 0 0 71.2 71.2;" xml:space="preserve">
<style type="text/css">
	.st0{fill:#FFFFFF;}
	.st1{fill:none;stroke:#BFBEBF;stroke-width:7;}
	.st2{fill:none;stroke:#EC6667;stroke-width:7.5;stroke-linecap:round;}
	.st3{enable-background:new    ;}
	.st4{fill:#EC6667;}
</style>
<g id="Book0-2" transform="translate(20 202.756)">
	<g id="Elipse_283-2" transform="translate(17.278)">
		<circle class="st0" cx="-1.7" cy="-167.2" r="35.6"/>
		<circle class="st1" cx="-1.7" cy="-167.2" r="32.1"/>
	</g>
	<path id="_3_4_Done-3" class="st2" d="M15.6-135.5c-18.1,0-31.9-13.9-31.9-31.7"/>
	<path id="_2_4_Done-2" class="st2" d="M15.6-135.5c18.1,0,31.9-13.9,31.9-31.7"/>
	<path id="_1_4_Done-2" class="st2" d="M15.6-199c18.1,0,31.9,13.9,31.9,31.7"/>
	<path id="_3_4_Done-4" class="st2" d="M-16.3-167.1c0-18.2,14-32,31.8-32"/>
	<g class="st3">
		<path class="st4" d="M9.8-160.1c-1.3-1.9-2-4.5-2-8.1c0-3.5,0.7-6.2,2-8c1.4-1.9,3.3-2.8,5.9-2.8c2.6,0,4.5,0.9,5.9,2.8
			c1.3,1.9,2,4.5,2,8s-0.7,6.2-2,8.1c-1.4,1.9-3.3,2.8-5.9,2.8C13.1-157.3,11.2-158.2,9.8-160.1z M18.2-162.6c0.5-1.2,0.8-3,0.8-5.5
			c0-2.6-0.3-4.4-0.8-5.5c-0.5-1.2-1.3-1.8-2.5-1.8s-2,0.6-2.5,1.7c-0.5,1.2-0.8,3-0.8,5.5s0.3,4.4,0.8,5.5c0.5,1.2,1.4,1.7,2.5,1.7
			C16.9-160.9,17.7-161.4,18.2-162.6z"/>
	</g>
</g>
</svg>
