<?xml version="1.0" encoding="utf-8"?>
<!-- Generator: Adobe Illustrator 25.0.1, SVG Export Plug-In . SVG Version: 6.00 Build 0)  -->
<svg version="1.1" id="Camada_1" xmlns="http://www.w3.org/2000/svg" xmlns:xlink="http://www.w3.org/1999/xlink" x="0px" y="0px"
	 viewBox="0 0 70 70.4" style="enable-background:new 0 0 70 70.4;" xml:space="preserve">
<style type="text/css">
	.st0{fill:#FFFFFF;}
	.st1{fill:none;stroke:#F86464;stroke-width:8;}
	.st2{display:none;}
	.st3{display:inline;}
	.st4{fill:#E4FBFF;}
	.st5{fill:#C1EFF8;}
	.st6{fill:#9AE0EF;}
	.st7{fill:#FDB432;}
	.st8{fill:#AFBB70;}
	.st9{fill:#E8423F;}
</style>
<g id="Elipse_284" transform="translate(343.407 146)">
	<circle class="st0" cx="-308.4" cy="-110.9" r="35"/>
	<circle class="st1" cx="-308.4" cy="-110.9" r="31"/>
</g>
<g id="Grupo_1414" transform="translate(-128.937 -0.786) rotate(-30)" class="st2">
	<g id="Grupo_1406" transform="translate(0 0)" class="st3">
		<path id="Caminho_3375" class="st4" d="M127.3,89.8c-0.7,0-1.3,0.7-1.3,1.4v8.3c0,0.7-0.6,1.3-1.3,1.4c-0.7,0-1.4-0.5-1.4-1.3
			c0,0,0,0,0-0.1v-8.3c0-0.7-0.6-1.3-1.3-1.4c-0.7,0-1.4,0.5-1.4,1.3c0,0,0,0,0,0.1v8.3c0,0.7-0.6,1.3-1.3,1.4
			c-0.7,0-1.4-0.5-1.4-1.3c0,0,0,0,0-0.1v-8.4c0-0.7-0.6-1.4-1.3-1.4c-0.7,0-1.4,0.6-1.4,1.3c0,0,0,0,0,0.1l0,11.5
			c0,1.2,0.5,2.3,1.3,3.2c0.6,0.6,1.3,1.1,2,1.4c1,0.4,1.7,1.4,1.6,2.5l-1.1,21.6c-0.1,1.6,1.1,2.9,2.7,3c1.6,0.1,2.9-1.1,3-2.7
			c0-0.1,0-0.2,0-0.4l-1.1-21.6c-0.1-1.1,0.6-2.1,1.6-2.5c0.8-0.3,1.5-0.8,2-1.4c0.8-0.8,1.3-2,1.3-3.2V91.1
			C128.7,90.4,128.1,89.8,127.3,89.8L127.3,89.8z"/>
	</g>
	<g id="Grupo_1410" transform="translate(5.375 0)" class="st3">
		<path id="Caminho_3378" class="st5" d="M121.9,89.8c-0.7,0-1.3,0.7-1.3,1.4c0,1.6,0,11.5,0,11.5c0,1.2-0.5,2.3-1.3,3.2
			c-0.6,0.6-1.3,1.1-2,1.4c-1,0.4-1.7,1.4-1.6,2.5l1.1,21.6c0.1,1.1-0.5,2.2-1.5,2.7c1.4,0.7,3.1,0.2,3.9-1.2c0.3-0.5,0.4-1,0.3-1.5
			l-1.1-21.6c-0.1-1.1,0.6-2.1,1.6-2.5c0.8-0.3,1.5-0.8,2-1.4c0.8-0.8,1.3-2,1.3-3.2V91.2C123.3,90.4,122.7,89.8,121.9,89.8
			C122,89.8,121.9,89.8,121.9,89.8z"/>
	</g>
</g>
<g id="Grupo_1415" transform="translate(-101.462 -8.045) rotate(30)" class="st2">
	<g id="Grupo_1407" transform="translate(0 0)" class="st3">
		<path id="Caminho_3376" class="st4" d="M150.3-44.5c0-5.8-3.3-10.5-7.4-10.5s-7.4,4.7-7.4,10.5c0,4.4,2,8.2,4.7,9.7
			c0.5,0.3,0.7,0.7,0.7,1.3l0,0l-1.3,19.8c-0.1,1.8,1.3,3.3,3,3.5c1.8,0.1,3.3-1.3,3.5-3c0-0.1,0-0.3,0-0.4l-1.3-19.8l0,0
			c0-0.5,0.3-1,0.7-1.3C148.3-36.3,150.3-40,150.3-44.5L150.3-44.5z"/>
	</g>
	<g id="Grupo_1408" transform="translate(3.008 3.201)" class="st3">
		
			<ellipse id="Elipse_395" transform="matrix(5.458604e-06 1 -1 5.458604e-06 92.1659 -187.5455)" class="st5" cx="139.9" cy="-47.7" rx="7.3" ry="4.4"/>
	</g>
	<g id="Grupo_1411" transform="translate(6.093 0)" class="st3">
		<path id="Caminho_3379" class="st5" d="M139.4-34.7c2.8-1.5,4.7-5.3,4.7-9.7c0-5.8-3.3-10.5-7.4-10.5c-0.5,0-0.9,0.1-1.3,0.2
			c3.5,0.9,6.1,5.2,6.1,10.3c0,4.4-2,8.2-4.7,9.7c-0.5,0.3-0.7,0.7-0.7,1.3l0,0l1.3,19.8c0.1,1.4-0.7,2.6-1.9,3.2
			c1.6,0.7,3.6,0,4.3-1.6c0.2-0.5,0.3-1,0.3-1.5l-1.3-19.8l0,0C138.7-34,139-34.5,139.4-34.7z"/>
	</g>
	<g id="Grupo_1412" transform="translate(6.093 3.201)" class="st3">
		<path id="Caminho_3380" class="st6" d="M136.7-54.9c-0.5,0-0.9,0.1-1.3,0.3c1.8,0.9,3.1,3.7,3.1,6.9c0,3.2-1.3,6-3.1,6.9
			c0.4,0.2,0.9,0.3,1.4,0.3c2.4,0,4.4-3.2,4.4-7.3S139.2-54.9,136.7-54.9z"/>
	</g>
</g>
<g id="_003-cutter_tool" transform="translate(-1.498 -36.785) rotate(30)">
	<path id="Caminho_5588" class="st7" d="M72,51.7c0-3.3-2.7-6-6-6c-3.3,0-6,2.7-6,6l0,0c-3.3,0-6,2.7-6,6s2.7,6,6,6c0,3.3,2.7,6,6,6
		c3.3,0,6-2.7,6-6c3.3,0,6-2.7,6-6S75.3,51.7,72,51.7L72,51.7z M72,60.6h-1.5c-0.8,0-1.5,0.7-1.5,1.5v1.5c0,1.6-1.3,3-2.9,3
		c-1.7,0-3-1.4-3-3c0,0,0,0,0,0v-1.4c0-0.8-0.7-1.5-1.5-1.5h-1.4c-1.7,0-3-1.3-3-3c0,0,0,0,0,0c0-1.6,1.4-2.9,3-2.9h1.5
		c0.7,0.1,1.3-0.4,1.3-1.1c0-0.1,0-0.1,0-0.2l0.2-1.6c0-1.7,1.3-3,3-3c0,0,0,0,0,0c1.6,0,2.9,1.4,2.9,3v1.5c0,0.8,0.7,1.5,1.5,1.5
		h1.4c1.7,0,3,1.3,3,3c0,0,0,0,0,0C75,59.3,73.6,60.6,72,60.6L72,60.6z"/>
	<path id="Caminho_5589" class="st8" d="M54.8,26.3c-5.4,0-9.7,4.3-9.7,9.7c0,5.4,4.3,9.7,9.7,9.7s9.7-4.3,9.7-9.7
		C64.5,30.6,60.2,26.3,54.8,26.3L54.8,26.3z M54.8,42.7c-3.7,0-6.7-3-6.7-6.7c0-3.7,3-6.7,6.7-6.7c3.7,0,6.7,3,6.7,6.7
		S58.6,42.7,54.8,42.7z"/>
	<path id="Caminho_5590" class="st9" d="M69,26.3v16.4h17.9V26.3L69,26.3z M84,39.7H72V29.3l11.9,0V39.7z"/>
</g>
</svg>
