<svg xmlns="http://www.w3.org/2000/svg" width="35.898" height="28.888" viewBox="0 0 35.898 28.888">
  <g id="Grupo_1966" data-name="Grupo 1966" transform="translate(-126.677 -770)">
    <g id="open-book" transform="translate(127.188 770.472)">
      <g id="Grupo_628" data-name="Grupo 628" transform="translate(0 0)">
        <path id="Caminho_1536" data-name="Caminho 1536" d="M33.7,32.2H31.26V29.673a1.17,1.17,0,0,0-1-1.157,17.97,17.97,0,0,0-5.349.161,12.015,12.015,0,0,0-7.476,4.185,12.016,12.016,0,0,0-7.476-4.185,17.974,17.974,0,0,0-5.349-.161,1.17,1.17,0,0,0-1,1.157V32.2H1.17A1.17,1.17,0,0,0,0,33.374V55.427a1.17,1.17,0,0,0,1.555,1.105c.088-.03,8.857-3.023,15.4-.041a1.17,1.17,0,0,0,.971,0c6.521-2.974,15.309.01,15.4.041a1.17,1.17,0,0,0,1.555-1.105V33.374A1.171,1.171,0,0,0,33.7,32.2ZM2.341,53.861V34.545H3.615V50.13a1.172,1.172,0,0,0,1.342,1.158c.065-.009,5.149-.707,8.863,1.841A28.493,28.493,0,0,0,2.341,53.861Zm13.927-1.788a12.61,12.61,0,0,0-6.306-2.94A18.366,18.366,0,0,0,6.7,48.846c-.269,0-.518.006-.744.015V30.748h0c2.249-.1,7.721.139,10.312,4.531Zm2.34-16.794c2.582-4.373,8.062-4.625,10.312-4.528v18.11a18.552,18.552,0,0,0-4.006.272,12.609,12.609,0,0,0-6.306,2.94V35.279Zm2.444,17.85c3.715-2.55,8.8-1.851,8.865-1.842A1.17,1.17,0,0,0,31.26,50.13V34.545h1.274V53.861A28.487,28.487,0,0,0,21.051,53.129Z" transform="translate(0 -28.39)" fill="#767676" stroke="#ededed" stroke-linejoin="round" stroke-width="0.4"/>
      </g>
    </g>
    <g id="open-book_1_" data-name="open-book(1)" transform="translate(126.677 770)" opacity="0">
      <g id="Grupo_636" data-name="Grupo 636" transform="translate(0 0)">
        <g id="Grupo_635" data-name="Grupo 635">
          <path id="Caminho_1559" data-name="Caminho 1559" d="M36.114,35.049h0a1.266,1.266,0,0,0-.9.373,1.279,1.279,0,0,0-.378.912V55.6a1.289,1.289,0,0,0,1.286,1.284c2.99.007,8,.63,11.456,4.247V40.968a1.231,1.231,0,0,0-.177-.651C44.562,35.75,39.111,35.056,36.114,35.049Z" transform="translate(-30.623 -35.049)" fill="#f86464"/>
          <path id="Caminho_1560" data-name="Caminho 1560" d="M169.493,55.6V36.333a1.279,1.279,0,0,0-.378-.912,1.266,1.266,0,0,0-.9-.373h0c-3,.007-8.447.7-11.284,5.269a1.231,1.231,0,0,0-.176.651V61.126c3.456-3.617,8.466-4.24,11.456-4.247A1.289,1.289,0,0,0,169.493,55.6Z" transform="translate(-137.804 -35.048)" fill="#fbb1b1"/>
          <path id="Caminho_1561" data-name="Caminho 1561" d="M185.369,71.8h-.931v16.1a3.286,3.286,0,0,1-3.276,3.279c-2.536.006-6.718.5-9.68,3.305a30.924,30.924,0,0,1,13.6.262,1.284,1.284,0,0,0,1.572-1.252V73.085A1.286,1.286,0,0,0,185.369,71.8Z" transform="translate(-150.755 -67.359)" fill="#fbb1b1"/>
          <path id="Caminho_1562" data-name="Caminho 1562" d="M2.216,87.906V71.8H1.284A1.286,1.286,0,0,0,0,73.085V93.5a1.284,1.284,0,0,0,1.572,1.252,30.922,30.922,0,0,1,13.6-.262c-2.962-2.8-7.143-3.3-9.68-3.3A3.286,3.286,0,0,1,2.216,87.906Z" transform="translate(0 -67.359)" fill="#f86464"/>
        </g>
      </g>
    </g>
  </g>
</svg>
