<?xml version="1.0" encoding="utf-8"?>
<!-- Generator: Adobe Illustrator 25.0.1, SVG Export Plug-In . SVG Version: 6.00 Build 0)  -->
<svg version="1.1" id="Camada_1" xmlns="http://www.w3.org/2000/svg" xmlns:xlink="http://www.w3.org/1999/xlink" x="0px" y="0px"
	 viewBox="0 0 42 42" style="enable-background:new 0 0 42 42;" xml:space="preserve">
<style type="text/css">
	.st0{opacity:0.8;fill:#BFBFBF;}
	.st1{fill:none;stroke:#FFFFFF;stroke-width:2;}
	.st2{fill:#FFFFFF;}
</style>
<g id="Close_button" transform="translate(209 770) rotate(180)">
	<g id="Retângulo_436" transform="translate(167 728)">
		<path class="st0" d="M21,0L21,0c11.6,0,21,9.4,21,21l0,0c0,11.6-9.4,21-21,21l0,0C9.4,42,0,32.6,0,21l0,0C0,9.4,9.4,0,21,0z"/>
		<path class="st1" d="M21,1L21,1c11,0,20,9,20,20l0,0c0,11-9,20-20,20l0,0C10,41,1,32,1,21l0,0C1,10,10,1,21,1z"/>
	</g>
	<path id="ic_close_24px" class="st2" d="M178,757.1l2,2l8-8l8,8l2-2l-8-8l8-8l-2-2l-8,8l-8-8l-2,2l8,8L178,757.1z"/>
</g>
</svg>
