<?xml version="1.0" encoding="utf-8"?>
<!-- Generator: Adobe Illustrator 25.0.1, SVG Export Plug-In . SVG Version: 6.00 Build 0)  -->
<svg version="1.1" id="Camada_1" xmlns="http://www.w3.org/2000/svg" xmlns:xlink="http://www.w3.org/1999/xlink" x="0px" y="0px"
	 viewBox="0 0 42 42" style="enable-background:new 0 0 42 42;" xml:space="preserve">
<style type="text/css">
	.st0{display:none;}
	.st1{display:inline;}
	.st2{fill:#FFFFFF;}
	.st3{display:none;fill:#FCFAFA;}
	.st4{display:none;fill:#6C63FF;}
	.st5{display:none;enable-background:new    ;}
	.st6{display:inline;fill:#FFFFFF;}
	.st7{fill:#6C63FF;}
	.st8{display:none;fill:none;stroke:#FFFFFF;stroke-width:2;}
	.st9{fill:#FCFCFC;}
</style>
<g class="st0">
	<g class="st1">
		<path class="st2" d="M30.8,14.6h-2.6v-1.8c0-0.9-0.7-1.6-1.6-1.6H11.2c-0.9,0-1.6,0.7-1.6,1.6v12.4c0,0.2,0.2,0.4,0.4,0.4h0.4v3.8
			c0,0.2,0.1,0.3,0.2,0.4c0.1,0,0.1,0,0.2,0c0.1,0,0.2,0,0.3-0.1l2.7-2.2c0,0.8,0.7,1.5,1.6,1.5h10.5l4.9,4.1
			c0.1,0.1,0.2,0.1,0.3,0.1c0.1,0,0.1,0,0.2,0c0.2-0.1,0.2-0.2,0.2-0.4V29H32c0.2,0,0.4-0.2,0.4-0.4V16.2
			C32.4,15.3,31.7,14.6,30.8,14.6z M27.8,14.6V15v9c0,0.6-0.5,1.2-1.2,1.2H15.9l-1.7,1.4L13.8,27l-3,2.5v-4.2H10V12.8
			c0-0.6,0.5-1.2,1.2-1.2h15.4c0.6,0,1.2,0.5,1.2,1.2V14.6z"/>
		<path class="st2" d="M25.2,15.1H12.6c-0.2,0-0.4,0.2-0.4,0.4s0.2,0.4,0.4,0.4h12.7c0.2,0,0.4-0.2,0.4-0.4S25.5,15.1,25.2,15.1z"/>
		<path class="st2" d="M25.2,16.8H12.6c-0.2,0-0.4,0.2-0.4,0.4c0,0.2,0.2,0.4,0.4,0.4h12.7c0.2,0,0.4-0.2,0.4-0.4
			C25.6,16.9,25.5,16.8,25.2,16.8z"/>
		<path class="st2" d="M25.2,18.4H12.6c-0.2,0-0.4,0.2-0.4,0.4c0,0.2,0.2,0.4,0.4,0.4h12.7c0.2,0,0.4-0.2,0.4-0.4
			C25.6,18.6,25.5,18.4,25.2,18.4z"/>
		<path class="st2" d="M25.2,20.1H12.6c-0.2,0-0.4,0.2-0.4,0.4s0.2,0.4,0.4,0.4h12.7c0.2,0,0.4-0.2,0.4-0.4S25.5,20.1,25.2,20.1z"/>
	</g>
</g>
<path class="st3" d="M32.1,12.8c-0.3-0.3-0.7-0.5-1.2-0.5h-2l0.4-1.4c0.3-1.1-0.3-2.2-1.4-2.5c-0.2-0.1-0.4-0.1-0.5-0.1h-0.7
	c-0.9,0-1.7,0.6-1.9,1.4L24,12.3h-1.8c0-0.9-0.7-1.6-1.6-1.6H19c-0.9,0-1.6,0.7-1.6,1.6v4h-6.3c-0.9,0-1.6,0.7-1.6,1.6V29
	c0,0.9,0.7,1.6,1.6,1.6h6l2.1,2.8c0.3,0.4,0.8,0.4,1.1,0.2c0.1,0,0.1-0.1,0.2-0.2l2.1-2.8h6c0.9,0,1.6-0.7,1.6-1.6v-8
	c0.8,0,1.6-0.6,1.7-1.4l0.6-5.6C32.5,13.6,32.4,13.1,32.1,12.8z M20.6,12.3V21H19v-8.7H20.6z M28.6,28.9h-6.4
	c-0.3,0-0.5,0.1-0.6,0.3l-1.7,2.3l-1.7-2.3c-0.1-0.2-0.4-0.3-0.6-0.3h-6.4V17.8h6.3V21c0,0.9,0.7,1.6,1.6,1.6h1.6
	c0.9,0,1.6-0.7,1.6-1.6h6.3L28.6,28.9z M30.3,19.4h-8v-5.6h2.4c0.4,0,0.7-0.2,0.8-0.6l0.9-3.1c0-0.2,0.2-0.3,0.4-0.3h0.7
	c0.3,0,0.4,0.2,0.4,0.5L27,12.8c-0.1,0.4,0.1,0.9,0.5,1c0.1,0,0.1,0,0.2,0h3.1L30.3,19.4z"/>
<path class="st4" d="M33,42H9c-4.9,0-8.8-4-8.8-8.8V8.8C0.2,4,4.1,0,9,0h24c4.9,0,8.8,4,8.8,8.8v24.3C41.8,38,37.9,42,33,42z"/>
<g class="st5">
	<path class="st6" d="M33,2.2c3.6,0,6.6,3,6.6,6.6v24.3c0,3.7-3,6.7-6.6,6.7H9c-3.6,0-6.6-3-6.6-6.6V8.8c0-3.6,3-6.6,6.6-6.6L33,2.2
		 M33,0H9C4.1,0,0.2,4,0.2,8.8v24.4C0.2,38,4.1,42,9,42h24c4.9,0,8.8-4,8.8-8.9V8.8C41.8,4,37.9,0,33,0L33,0z"/>
</g>
<g id="Close_button" transform="translate(209 770) rotate(180)">
	<g id="Retângulo_436" transform="translate(167 728)">
		<path class="st7" d="M21,0L21,0c11.6,0,21,9.4,21,21l0,0c0,11.6-9.4,21-21,21l0,0C9.4,42,0,32.6,0,21l0,0C0,9.4,9.4,0,21,0z"/>
		<path class="st8" d="M21,1L21,1c11,0,20,9,20,20l0,0c0,11-9,20-20,20l0,0C10,41,1,32,1,21l0,0C1,10,10,1,21,1z"/>
	</g>
</g>
<path class="st9" d="M29.3,11.4H12.7c-2.2,0-4,1.8-4,4v9.5c0,2.2,1.8,4,4,4H14v5.3l5.3-5.3h9.9c2.2,0,4-1.8,4-4v-9.5
	C33.3,13.2,31.5,11.4,29.3,11.4z M24.1,23.4c-2.2,1.8-3.1,2.3-3.1,2.3s-0.9-0.5-3.1-2.3c-2-1.6-3-2.7-3.1-4.7
	c-0.2-2.5,1.6-4.1,3.3-4.1c2,0,2.9,1.8,2.9,1.8s0.9-1.8,2.9-1.8c1.7,0,3.4,1.6,3.3,4.1C27,20.7,26.1,21.8,24.1,23.4z"/>
</svg>
