<?xml version="1.0" encoding="utf-8"?>
<!-- Generator: Adobe Illustrator 25.0.1, SVG Export Plug-In . SVG Version: 6.00 Build 0)  -->
<svg version="1.1" id="Camada_1" xmlns="http://www.w3.org/2000/svg" xmlns:xlink="http://www.w3.org/1999/xlink" x="0px" y="0px"
	 viewBox="0 0 32 32" style="enable-background:new 0 0 32 32;" xml:space="preserve">
<style type="text/css">
	.st0{fill:#FFFFFF;}
	.st1{fill:#F86464;}
</style>
<g id="Grupo_2053" transform="translate(-323 -219)">
	<circle id="Elipse_323" class="st0" cx="339" cy="235" r="16"/>
	<path id="Camera_icon" class="st1" d="M334.5,236.4c0,2.5,2,4.5,4.5,4.5c2.5,0,4.5-2,4.5-4.5c0-2.5-2-4.5-4.5-4.5
		C336.5,231.9,334.5,233.9,334.5,236.4z M348.7,228.8h-4.8c-0.3-1.4-0.7-2.8-2.1-2.8h-5.5c-1.4,0-1.7,1.4-2.1,2.8h-4.8
		c-0.8,0-1.4,0.6-1.4,1.4v12.5c0,0.8,0.6,1.4,1.4,1.4h19.4c0.8,0,1.4-0.6,1.4-1.4v-12.5C350.1,229.4,349.5,228.8,348.7,228.8z
		 M339,242.5c-3.4,0-6.1-2.8-6.1-6.1c0-3.4,2.8-6.1,6.1-6.1c3.4,0,6.1,2.8,6.1,6.1C345.1,239.8,342.4,242.5,339,242.5L339,242.5z
		 M348.7,232.9h-2.8v-1.4h2.8V232.9z"/>
</g>
</svg>
