<?xml version="1.0" encoding="utf-8"?>
<!-- Generator: Adobe Illustrator 25.0.1, SVG Export Plug-In . SVG Version: 6.00 Build 0)  -->
<svg version="1.1" id="Help" xmlns="http://www.w3.org/2000/svg" xmlns:xlink="http://www.w3.org/1999/xlink" x="0px" y="0px"
	 viewBox="0 0 42 50.6" style="enable-background:new 0 0 42 50.6;" xml:space="preserve">
<style type="text/css">
	.st0{fill:#BFBFBF;}
	.st1{fill:none;stroke:#FFFFFF;stroke-width:2;}
	.st2{fill:#6C63FF;}
	.st3{fill:none;stroke:#FFFFFF;stroke-width:1.5;}
	.st4{enable-background:new    ;}
	.st5{fill:#FFFFFF;}
</style>
<g id="Last_book_opened_icon" transform="translate(-187.947 -310)">
	<g id="Elipse_316" transform="translate(188 310)">
		<circle class="st0" cx="21" cy="21" r="21"/>
		<circle class="st1" cx="21" cy="21" r="20"/>
	</g>
</g>
<g id="Retângulo_983" transform="translate(0 35.592)">
	<path class="st2" d="M7.5,0h27C38.6,0,42,3.4,42,7.5l0,0c0,4.1-3.4,7.5-7.5,7.5h-27C3.4,15,0,11.6,0,7.5l0,0C0,3.4,3.4,0,7.5,0z"/>
	<path class="st3" d="M7.5,0.8h27c3.7,0,6.8,3,6.8,6.8l0,0c0,3.7-3,6.8-6.8,6.8h-27c-3.7,0-6.8-3-6.8-6.8l0,0
		C0.8,3.8,3.8,0.8,7.5,0.8z"/>
</g>
<g class="st4">
	<path class="st5" d="M14.7,39.7c0.1,0.1,0.2,0.3,0.2,0.5V46c0,0.2-0.1,0.3-0.2,0.5s-0.3,0.2-0.5,0.2c-0.2,0-0.3-0.1-0.5-0.2
		s-0.2-0.3-0.2-0.5v-2.5H10V46c0,0.2-0.1,0.3-0.2,0.5s-0.3,0.2-0.5,0.2c-0.2,0-0.3-0.1-0.5-0.2S8.8,46.2,8.8,46v-5.9
		c0-0.2,0.1-0.3,0.2-0.5c0.1-0.1,0.3-0.2,0.5-0.2s0.3,0.1,0.5,0.2c0.1,0.1,0.2,0.3,0.2,0.5v2.4h3.6v-2.4c0-0.2,0.1-0.3,0.2-0.5
		c0.1-0.1,0.3-0.2,0.5-0.2S14.6,39.5,14.7,39.7z"/>
	<path class="st5" d="M16.6,46.4c-0.1-0.1-0.2-0.3-0.2-0.5v-5.8c0-0.2,0.1-0.3,0.2-0.4c0.1-0.1,0.3-0.2,0.5-0.2h3.6
		c0.2,0,0.3,0,0.4,0.1s0.2,0.2,0.2,0.4c0,0.2-0.1,0.3-0.2,0.4s-0.3,0.1-0.4,0.1h-3v1.9h2.8c0.2,0,0.3,0,0.5,0.1
		c0.1,0.1,0.2,0.2,0.2,0.4c0,0.2-0.1,0.3-0.2,0.4c-0.1,0.1-0.3,0.1-0.5,0.1h-2.8v2.1h3c0.2,0,0.3,0,0.4,0.1s0.2,0.2,0.2,0.4
		c0,0.2-0.1,0.3-0.2,0.4s-0.3,0.1-0.4,0.1H17C16.8,46.6,16.7,46.5,16.6,46.4z"/>
	<path class="st5" d="M22.5,46.4c-0.1-0.1-0.2-0.3-0.2-0.4v-5.9c0-0.2,0.1-0.3,0.2-0.5c0.1-0.1,0.3-0.2,0.5-0.2
		c0.2,0,0.4,0.1,0.5,0.2c0.1,0.1,0.2,0.3,0.2,0.5v5.4h2.8c0.4,0,0.6,0.2,0.6,0.5c0,0.4-0.2,0.5-0.6,0.5h-3.5
		C22.7,46.6,22.6,46.5,22.5,46.4z"/>
	<path class="st5" d="M28,46.5c-0.1-0.1-0.2-0.3-0.2-0.5v-5.9c0-0.2,0.1-0.3,0.2-0.4s0.3-0.2,0.5-0.2h2.5c0.8,0,1.3,0.2,1.8,0.6
		c0.4,0.4,0.6,0.9,0.6,1.6c0,0.7-0.2,1.2-0.6,1.6c-0.4,0.4-1,0.6-1.8,0.6h-1.8V46c0,0.2-0.1,0.4-0.2,0.5c-0.1,0.1-0.3,0.2-0.5,0.2
		C28.3,46.7,28.2,46.6,28,46.5z M30.8,42.9c0.9,0,1.3-0.4,1.3-1.2s-0.4-1.2-1.3-1.2h-1.6v2.3H30.8z"/>
</g>
<g class="st4">
	<path class="st5" d="M21.8,17.9c1.3-0.9,2.5-1.8,2.5-3.3c0-1.5-1.1-2.7-3.5-2.7c-2.2,0-3.8,1-4.9,2.5L14,12.3
		c1.6-2.1,4.1-3.3,7.2-3.3c4.1,0,6.6,2.2,6.6,5.1c0,2.7-1.9,4.1-3.6,5.3c-1.3,1-2.5,1.8-2.5,3.2c0,0.5,0.3,1.2,0.8,1.6L19.9,25
		c-0.8-0.8-1.2-1.7-1.2-2.8C18.7,20,20.3,18.9,21.8,17.9z M20.8,27.5c1.1,0,2.1,0.9,2.1,2c0,1.1-1,2.1-2.1,2.1s-2-1-2-2.1
		C18.8,28.5,19.7,27.5,20.8,27.5z"/>
</g>
</svg>
