<?xml version="1.0" encoding="utf-8"?>
<!-- Generator: Adobe Illustrator 25.0.1, SVG Export Plug-In . SVG Version: 6.00 Build 0)  -->
<svg version="1.1" id="Camada_1" xmlns="http://www.w3.org/2000/svg" xmlns:xlink="http://www.w3.org/1999/xlink" x="0px" y="0px"
	 viewBox="0 0 23.2 23.6" style="enable-background:new 0 0 23.2 23.6;" xml:space="preserve">
<style type="text/css">
	.st0{fill:#FFFFFF;}
</style>
<path id="Icon_awesome-flag-checkered" class="st0" d="M10.8,8.8v3.1c1.2,0.3,2.3,0.7,3.4,1V9.8C13,9.5,12,9.1,10.8,8.8z M21.1,3.1
	c-1.7,0.9-3.5,1.4-5.4,1.5C13.3,4.6,11.2,3,8.1,3C7.1,2.9,6,3.1,5,3.5c0.5-1.3-0.2-2.8-1.5-3.3S0.7,0.3,0.2,1.7
	c-0.4,1.1,0,2.4,0.9,3v17.8c0,0.6,0.5,1.1,1.1,1.1l0,0h0.7c0.6,0,1.1-0.5,1.1-1.1l0,0v-4.3c1.7-0.7,3.5-1.1,5.3-1
	c2.5,0,4.5,1.6,7.6,1.6c2,0,4-0.7,5.6-1.9c0.4-0.3,0.6-0.7,0.6-1.2V4.4c0-0.8-0.7-1.5-1.5-1.5C21.5,2.9,21.3,3,21.1,3.1z M7.4,15
	c-1.2,0.1-2.3,0.4-3.4,0.8v-3.3c1.1-0.4,2.2-0.7,3.4-0.8V15z M21,8.8c-1.1,0.5-2.2,0.9-3.4,1.1v3.3C18.8,13,20,12.6,21,12v3.2
	c-1,0.7-2.2,1.1-3.4,1.2v-3.3c-1.1,0.2-2.3,0.1-3.4-0.3V16c-1.1-0.4-2.2-0.7-3.4-1v-3.2c-1.1-0.2-2.3-0.3-3.4-0.2V8.5
	C6.3,8.7,5.1,9,4.1,9.5V6.2c1.1-0.5,2.2-0.8,3.4-1v3.3c1.1-0.2,2.3-0.1,3.4,0.3V5.6c1.1,0.4,2.2,0.7,3.4,1v3.2
	c1.1,0.3,2.3,0.3,3.4,0.1V6.6c1.2-0.2,2.3-0.6,3.4-1L21,8.8L21,8.8z"/>
</svg>
