<?xml version="1.0" encoding="utf-8"?>
<!-- Generator: Adobe Illustrator 25.0.1, SVG Export Plug-In . SVG Version: 6.00 Build 0)  -->
<svg version="1.1" id="Camada_1" xmlns="http://www.w3.org/2000/svg" xmlns:xlink="http://www.w3.org/1999/xlink" x="0px" y="0px"
	 viewBox="0 0 42 42" style="enable-background:new 0 0 42 42;" xml:space="preserve">
<style type="text/css">
	.st0{opacity:0.5;fill:#BFBFBF;}
	.st1{enable-background:new    ;}
	.st2{fill:#FFFFFF;}
</style>
<g id="Question_button" transform="translate(209 771) rotate(180)">
	<path id="Retângulo_436" class="st0" d="M188,729L188,729c11.6,0,21,9.4,21,21l0,0c0,11.6-9.4,21-21,21l0,0c-11.6,0-21-9.4-21-21
		l0,0C167,738.4,176.4,729,188,729z"/>
	<g class="st1">
		<path class="st2" d="M187.1,752.2c-1.7,1.1-3.2,2.2-3.2,4.1c0,1.9,1.5,3.5,4.5,3.5c2.8,0,4.6-1.3,6-3.1l1.9,2.1
			c-1.8,2.4-4.6,3.9-8.2,3.9c-4.6,0-7.4-2.6-7.4-5.9c0-3.2,2.2-4.7,4.3-6.2c1.6-1.1,3.1-2.1,3.1-3.8c0-0.6-0.4-1.4-1-1.9l2.3-1
			c1,0.9,1.5,1.9,1.5,3.1C190.8,749.7,188.9,751,187.1,752.2z M188.5,740.8c-1.1,0-2.1-1-2.1-2.1s1-2.1,2.1-2.1s2.1,1,2.1,2.1
			S189.6,740.8,188.5,740.8z"/>
	</g>
</g>
</svg>
