<?xml version="1.0" encoding="utf-8"?>
<!-- Generator: Adobe Illustrator 25.0.1, SVG Export Plug-In . SVG Version: 6.00 Build 0)  -->
<svg version="1.1" id="Camada_1" xmlns="http://www.w3.org/2000/svg" xmlns:xlink="http://www.w3.org/1999/xlink" x="0px" y="0px"
	 viewBox="0 0 42 42" style="enable-background:new 0 0 42 42;" xml:space="preserve">
<style type="text/css">
	.st0{opacity:0.5;fill:#BFBFBF;}
	.st1{fill:#FFFFFF;}
</style>
<g id="Close_button" transform="translate(209 770) rotate(180)">
	<path id="Retângulo_436" class="st0" d="M188,728L188,728c11.6,0,21,9.4,21,21l0,0c0,11.6-9.4,21-21,21l0,0c-11.6,0-21-9.4-21-21
		l0,0C167,737.4,176.4,728,188,728z"/>
	<path id="ic_close_24px" class="st1" d="M178,757.1l2,2l8-8l8,8l2-2l-8-8l8-8l-2-2l-8,8l-8-8l-2,2l8,8L178,757.1z"/>
</g>
</svg>
