<svg id="group_1_" data-name="group(1)" xmlns="http://www.w3.org/2000/svg" width="33.517" height="28.416" viewBox="0 0 33.517 28.416">
  <path id="Caminho_1547" data-name="Caminho 1547" d="M320.374,273.162h-3.4A4.856,4.856,0,0,0,312.123,278v5.336a2.924,2.924,0,0,0,2.915,2.909h7.27a2.911,2.911,0,0,0,2.9-2.909V278A4.844,4.844,0,0,0,320.374,273.162Z" transform="translate(-291.69 -257.83)" fill="#f86464"/>
  <path id="Caminho_1548" data-name="Caminho 1548" d="M318.673,273.161h-1.7A4.856,4.856,0,0,0,312.123,278v5.336a2.924,2.924,0,0,0,2.915,2.909h3.635V273.161Z" transform="translate(-291.69 -257.829)" fill="#f86464"/>
  <path id="Caminho_1549" data-name="Caminho 1549" d="M350.107,121.737a4.348,4.348,0,1,0,4.348,4.348A4.353,4.353,0,0,0,350.107,121.737Z" transform="translate(-323.124 -116.318)" fill="#f86464"/>
  <path id="Caminho_1550" data-name="Caminho 1550" d="M350.107,121.737a4.348,4.348,0,0,0,0,8.7Z" transform="translate(-323.124 -116.318)" fill="#f86464"/>
  <path id="Caminho_1551" data-name="Caminho 1551" d="M8.251,273.162h-3.4A4.856,4.856,0,0,0,0,278v5.336a2.924,2.924,0,0,0,2.915,2.909h7.27a2.911,2.911,0,0,0,2.9-2.909V278A4.844,4.844,0,0,0,8.251,273.162Z" transform="translate(0 -257.83)" fill="#bfbfbf"/>
  <path id="Caminho_1552" data-name="Caminho 1552" d="M6.55,273.161h-1.7A4.856,4.856,0,0,0,0,278v5.336a2.924,2.924,0,0,0,2.915,2.909H6.55Z" transform="translate(0 -257.829)" fill="#bfbfbf"/>
  <path id="Caminho_1553" data-name="Caminho 1553" d="M147.687,234.766h-5.921a4.84,4.84,0,0,0-4.834,4.834v9.788a.967.967,0,0,0,.967.967h13.656a.967.967,0,0,0,.967-.967V239.6A4.84,4.84,0,0,0,147.687,234.766Z" transform="translate(-127.968 -221.948)" fill="#fbb1b1"/>
  <path id="Caminho_1554" data-name="Caminho 1554" d="M144.759,234.766h-2.993a4.84,4.84,0,0,0-4.834,4.834v9.788a.967.967,0,0,0,.967.967h6.86V234.766Z" transform="translate(-127.968 -221.948)" fill="#fbb1b1"/>
  <path id="Caminho_1555" data-name="Caminho 1555" d="M173,38.96a5.814,5.814,0,1,0,5.814,5.814A5.82,5.82,0,0,0,173,38.96Z" transform="translate(-156.245 -38.96)" fill="#fbb1b1"/>
  <path id="Caminho_1556" data-name="Caminho 1556" d="M173,38.96a5.814,5.814,0,0,0,0,11.628Z" transform="translate(-156.245 -38.96)" fill="#fbb1b1"/>
  <path id="Caminho_1557" data-name="Caminho 1557" d="M37.984,121.737a4.348,4.348,0,1,0,4.348,4.348A4.353,4.353,0,0,0,37.984,121.737Z" transform="translate(-31.434 -116.318)" fill="#bfbfbf"/>
  <path id="Caminho_1558" data-name="Caminho 1558" d="M37.984,121.737a4.348,4.348,0,0,0,0,8.7Z" transform="translate(-31.434 -116.318)" fill="#bfbfbf"/>
</svg>
