<svg xmlns="http://www.w3.org/2000/svg" width="34.27" height="28.416" viewBox="0 0 34.27 28.416">
  <g id="Grupo_1965" data-name="Grupo 1965" transform="translate(-215 -770)">
    <g id="group" transform="translate(215 770)">
      <g id="Grupo_621" data-name="Grupo 621" transform="translate(0 12.446)">
        <g id="Grupo_620" data-name="Grupo 620">
          <path id="Caminho_1532" data-name="Caminho 1532" d="M29.25,232.255H25.9a5.007,5.007,0,0,0-1.319.177A5.024,5.024,0,0,0,20.1,229.68H14.17a5.024,5.024,0,0,0-4.476,2.752,5.007,5.007,0,0,0-1.319-.177H5.02A5.026,5.026,0,0,0,0,237.275v5.363a3.015,3.015,0,0,0,3.012,3.012H31.258a3.015,3.015,0,0,0,3.012-3.012v-5.363A5.026,5.026,0,0,0,29.25,232.255ZM9.15,234.7v8.942H3.012a1,1,0,0,1-1-1v-5.363a3.015,3.015,0,0,1,3.012-3.012H8.375a3,3,0,0,1,.788.105C9.155,234.478,9.15,234.589,9.15,234.7Zm13.962,8.942H11.158V234.7a3.015,3.015,0,0,1,3.012-3.012H20.1a3.015,3.015,0,0,1,3.012,3.012Zm9.15-1a1,1,0,0,1-1,1H25.12V234.7c0-.112,0-.222-.012-.332a3.006,3.006,0,0,1,.788-.105H29.25a3.015,3.015,0,0,1,3.012,3.012Z" transform="translate(0 -229.68)" fill="#767676"/>
        </g>
      </g>
      <g id="Grupo_623" data-name="Grupo 623" transform="translate(2.237 5.54)">
        <g id="Grupo_622" data-name="Grupo 622">
          <path id="Caminho_1533" data-name="Caminho 1533" d="M37.875,126.5a4.461,4.461,0,1,0,4.461,4.461A4.466,4.466,0,0,0,37.875,126.5Zm0,6.914a2.453,2.453,0,1,1,2.453-2.453A2.456,2.456,0,0,1,37.875,133.418Z" transform="translate(-33.414 -126.504)" fill="#767676"/>
        </g>
      </g>
      <g id="Grupo_625" data-name="Grupo 625" transform="translate(11.175 0)">
        <g id="Grupo_624" data-name="Grupo 624">
          <path id="Caminho_1534" data-name="Caminho 1534" d="M172.922,43.729a5.96,5.96,0,1,0,5.96,5.96A5.966,5.966,0,0,0,172.922,43.729Zm0,9.911a3.952,3.952,0,1,1,3.952-3.952A3.956,3.956,0,0,1,172.922,53.64Z" transform="translate(-166.962 -43.729)" fill="#767676"/>
        </g>
      </g>
      <g id="Grupo_627" data-name="Grupo 627" transform="translate(23.112 5.54)">
        <g id="Grupo_626" data-name="Grupo 626">
          <path id="Caminho_1535" data-name="Caminho 1535" d="M349.755,126.5a4.461,4.461,0,1,0,4.461,4.461A4.466,4.466,0,0,0,349.755,126.5Zm0,6.914a2.453,2.453,0,1,1,2.453-2.453A2.456,2.456,0,0,1,349.755,133.418Z" transform="translate(-345.294 -126.504)" fill="#767676"/>
        </g>
      </g>
    </g>
    <g id="group_1_" data-name="group(1)" transform="translate(215.253 770)" opacity="0">
      <path id="Caminho_1547" data-name="Caminho 1547" d="M320.374,273.162h-3.4A4.856,4.856,0,0,0,312.123,278v5.336a2.924,2.924,0,0,0,2.915,2.909h7.27a2.911,2.911,0,0,0,2.9-2.909V278A4.844,4.844,0,0,0,320.374,273.162Z" transform="translate(-291.69 -257.83)" fill="#f86464"/>
      <path id="Caminho_1548" data-name="Caminho 1548" d="M318.673,273.161h-1.7A4.856,4.856,0,0,0,312.123,278v5.336a2.924,2.924,0,0,0,2.915,2.909h3.635V273.161Z" transform="translate(-291.69 -257.829)" fill="#f86464"/>
      <path id="Caminho_1549" data-name="Caminho 1549" d="M350.107,121.737a4.348,4.348,0,1,0,4.348,4.348A4.353,4.353,0,0,0,350.107,121.737Z" transform="translate(-323.124 -116.318)" fill="#f86464"/>
      <path id="Caminho_1550" data-name="Caminho 1550" d="M350.107,121.737a4.348,4.348,0,0,0,0,8.7Z" transform="translate(-323.124 -116.318)" fill="#f86464"/>
      <path id="Caminho_1551" data-name="Caminho 1551" d="M8.251,273.162h-3.4A4.856,4.856,0,0,0,0,278v5.336a2.924,2.924,0,0,0,2.915,2.909h7.27a2.911,2.911,0,0,0,2.9-2.909V278A4.844,4.844,0,0,0,8.251,273.162Z" transform="translate(0 -257.83)" fill="#bfbfbf"/>
      <path id="Caminho_1552" data-name="Caminho 1552" d="M6.55,273.161h-1.7A4.856,4.856,0,0,0,0,278v5.336a2.924,2.924,0,0,0,2.915,2.909H6.55Z" transform="translate(0 -257.829)" fill="#bfbfbf"/>
      <path id="Caminho_1553" data-name="Caminho 1553" d="M147.687,234.766h-5.921a4.84,4.84,0,0,0-4.834,4.834v9.788a.967.967,0,0,0,.967.967h13.656a.967.967,0,0,0,.967-.967V239.6A4.84,4.84,0,0,0,147.687,234.766Z" transform="translate(-127.968 -221.948)" fill="#fbb1b1"/>
      <path id="Caminho_1554" data-name="Caminho 1554" d="M144.759,234.766h-2.993a4.84,4.84,0,0,0-4.834,4.834v9.788a.967.967,0,0,0,.967.967h6.86V234.766Z" transform="translate(-127.968 -221.948)" fill="#fbb1b1"/>
      <path id="Caminho_1555" data-name="Caminho 1555" d="M173,38.96a5.814,5.814,0,1,0,5.814,5.814A5.82,5.82,0,0,0,173,38.96Z" transform="translate(-156.245 -38.96)" fill="#fbb1b1"/>
      <path id="Caminho_1556" data-name="Caminho 1556" d="M173,38.96a5.814,5.814,0,0,0,0,11.628Z" transform="translate(-156.245 -38.96)" fill="#fbb1b1"/>
      <path id="Caminho_1557" data-name="Caminho 1557" d="M37.984,121.737a4.348,4.348,0,1,0,4.348,4.348A4.353,4.353,0,0,0,37.984,121.737Z" transform="translate(-31.434 -116.318)" fill="#bfbfbf"/>
      <path id="Caminho_1558" data-name="Caminho 1558" d="M37.984,121.737a4.348,4.348,0,0,0,0,8.7Z" transform="translate(-31.434 -116.318)" fill="#bfbfbf"/>
    </g>
  </g>
</svg>
