<?xml version="1.0" encoding="utf-8"?>
<!-- Generator: Adobe Illustrator 25.0.1, SVG Export Plug-In . SVG Version: 6.00 Build 0)  -->
<svg version="1.1" id="Camada_1" xmlns="http://www.w3.org/2000/svg" xmlns:xlink="http://www.w3.org/1999/xlink" x="0px" y="0px"
	 viewBox="0 0 343.5 211.3" style="enable-background:new 0 0 343.5 211.3;" xml:space="preserve">
<style type="text/css">
	.st0{opacity:5.000000e-02;fill:#F86464;enable-background:new    ;}
	.st1{opacity:0.1;fill:#F86464;enable-background:new    ;}
	.st2{opacity:0.2;}
	.st3{fill:#3F3D56;}
	.st4{fill:#F86464;}
	.st5{opacity:0.1;enable-background:new    ;}
	.st6{fill:#F1C0C0;}
	.st7{fill:#BE6F72;}
	.st8{opacity:0.2;enable-background:new    ;}
	.st9{fill:#FED253;}
	.st10{fill:#FBBEBE;}
</style>
<g id="Grupo_1982" transform="translate(0.02 0)">
	<path id="Caminho_5221" class="st0" d="M343.5,135.7c0,5.7-0.7,11.4-2.1,17c-0.5,1.9-1,3.7-1.6,5.5c-0.7,2.2-1.6,4.4-2.6,6.5
		c-0.5,1.1-1,2.1-1.6,3.2c0,5.9-1.2,11.7-3.5,17.1c-4.2,9.7-11.8,17.5-21.3,22c-6,2.8-12.5,4.3-19.1,4.4H65.2
		c-10.1,0-20-2.6-28.7-7.7l-0.1-0.1c-1.2-0.7-2.5-1.5-3.6-2.3c-2.7-1.8-5.2-3.9-7.5-6.1c-3.1-3.1-5.9-6.5-8.2-10.2
		c-5.5-8.7-8.3-18.7-8.3-28.9c-5.8-10.3-8.8-22-8.8-33.8c-0.1-14.8,4.6-29.2,13.5-41c1.8-2.3,3.7-4.4,5.7-6.4c2-2,4.2-3.8,6.6-5.4
		c1.9-1.3,3.8-2.5,5.8-3.5c0.8-0.4,1.7-0.8,2.5-1.2c0.8-0.3,1.5-0.6,2.3-0.9c0.9-0.4,1.9-0.7,2.8-1c1-0.3,1.9-0.6,2.8-0.8
		c1.4-0.3,2.7-0.6,4.2-0.8c1.2-0.2,2.3-0.3,3.5-0.4c0.9-0.1,1.9-0.1,2.8-0.1h0.5c1,0,2.1,0,3.1,0.1c0.1-0.2,0.2-0.4,0.3-0.6
		c0.4-0.8,0.8-1.6,1.3-2.3c0,0,0,0,0,0c0.1-0.1,0.1-0.3,0.2-0.4c0.3-0.6,0.7-1.2,1.1-1.8c0.2-0.3,0.3-0.6,0.5-0.8
		c0-0.1,0.1-0.1,0.1-0.2c0.2-0.3,0.4-0.6,0.5-0.9c0.9-1.4,1.8-2.9,2.8-4.2l0.2-0.4c0.2-0.2,0.3-0.4,0.5-0.6c0.4-0.6,0.8-1.1,1.2-1.7
		c0.3-0.4,0.6-0.8,0.9-1.2c0.8-1,1.5-1.9,2.3-2.9c0.8-1,1.6-1.9,2.5-2.9c0.1-0.1,0.2-0.3,0.4-0.4l1.2-1.4l0,0
		c0.1-0.1,0.1-0.1,0.2-0.2l0,0c0.1-0.2,0.3-0.3,0.5-0.5c0.7-0.7,1.4-1.4,2-2.1c3.5-3.5,7.2-6.7,11.2-9.7c0.2-0.1,0.3-0.2,0.5-0.4
		c0.7-0.6,1.5-1.1,2.2-1.7c4.1-3,8.5-5.7,13-8.1c0.3-0.2,0.6-0.3,0.9-0.5c4-2.1,8.2-4,12.4-5.7c2.3-0.9,4.7-1.8,7-2.6
		c1.6-0.5,3.2-1,4.8-1.5c2.5-0.7,5-1.4,7.6-1.9c7.5-1.7,15.1-2.7,22.8-3.1c2.3-0.1,4.7-0.2,7.1-0.2c11.5,0,23,1.4,34.1,4.3
		c0.2,0.4,0.6,0.6,1.1,0.6h1c0.4,0.1,0.8,0.2,1.3,0.4c2.4,0.7,4.7,1.4,7,2.2l0.6,0.2c5.7,2,11.2,4.5,16.6,7.3
		c4.8,2.5,9.5,5.4,13.9,8.6c0.7,0.5,1.4,1,2,1.5c0.8-0.5,1.6-1,2.5-1.5c3.2-1.8,6.6-3.3,10.2-4.3c7.4-2.2,15.3-2.5,22.8-0.9
		c9.8,2.2,18.7,7.2,25.6,14.4c2.9,3,5.5,6.2,7.7,9.7c0.2,0.3,0.3,0.5,0.5,0.8c1.9,3.1,3.5,6.4,4.9,9.7c0,0.1,0.1,0.2,0.1,0.4
		c1.2,3.2,2.2,6.4,3,9.7c0,0.2,0.1,0.3,0.1,0.5c0.7,3.2,1.2,6.5,1.4,9.7c0,0.1,0,0.2,0,0.4c0.1,1.7,0.2,3.4,0.2,5.1
		c0,1.5-0.1,3.1-0.1,4.6c0,0.2,0,0.3,0,0.5c0,0.4-0.1,0.9-0.1,1.3c2.2,1.8,4.3,3.8,6.2,5.9c0.9,0.9,1.7,1.9,2.5,2.9
		c2.4,3,4.6,6.3,6.4,9.7C340.9,113.6,343.6,124.6,343.5,135.7z"/>
	<path id="Caminho_5222" class="st1" d="M310.6,205.8c0,2-6.9,3.9-18.8,5.5H65.2c-10.1,0-20-2.6-28.7-7.7l-0.1-0.1
		c3.4-1.3,9.7-2.4,18.1-3.5l0,0l0.4,0c3.8-0.5,8-0.9,12.7-1.3c0.1,0,0.2,0,0.4,0l0,0c3.7-0.3,7.6-0.6,11.7-0.9c0.1,0,0.3,0,0.4,0
		c1.6-0.1,3.2-0.2,4.9-0.3l0,0l0.6,0c12.1-0.8,25.9-1.4,40.8-1.8h0c2.1-0.1,4.2-0.1,6.3-0.2c2.4-0.1,4.8-0.1,7.2-0.1
		c1.9,0,3.7-0.1,5.6-0.1h0c8.5-0.1,17.3-0.2,26.3-0.2c22.2,0,43.3,0.4,61.9,1.1h0.1c2.9,0.1,5.7,0.2,8.4,0.4l2.3,0.1
		c3.1,0.1,6.1,0.3,9,0.5l0,0C288.1,199.1,310.6,202.2,310.6,205.8z"/>
	<g id="Grupo_1979" transform="translate(181.21 115.202)" class="st2">
		<path id="Caminho_5223" class="st3" d="M17.2,78.5c0,0.3,0,0.6-0.1,0.9c-2-0.3-4.1-0.6-6.1-0.9v-0.3c0-0.9,0.3-1.7,0.7-2.5
			c0.7-1.3,2.3-1.9,3.6-1.2c0.6,0.3,1.1,0.8,1.3,1.4C17,76.7,17.2,77.6,17.2,78.5z"/>
		
			<ellipse id="Elipse_436" transform="matrix(3.158516e-02 -0.9995 0.9995 3.158516e-02 -59.5652 85.3)" class="st3" cx="14.2" cy="73.4" rx="4.1" ry="3.1"/>
		
			<ellipse id="Elipse_437" transform="matrix(3.158516e-02 -0.9995 0.9995 3.158516e-02 -54.4197 80.6227)" class="st3" cx="14.4" cy="68.4" rx="4.1" ry="3.1"/>
		
			<ellipse id="Elipse_438" transform="matrix(3.158516e-02 -0.9995 0.9995 3.158516e-02 -49.2771 75.9443)" class="st3" cx="14.6" cy="63.4" rx="4.1" ry="3.1"/>
		
			<ellipse id="Elipse_439" transform="matrix(3.158516e-02 -0.9995 0.9995 3.158516e-02 -44.1345 71.264)" class="st3" cx="14.7" cy="58.4" rx="4.1" ry="3.1"/>
		<path id="Caminho_5224" class="st4" d="M4.1,23.9c-0.4-0.6-0.8-1.1-1.1-1.8l8.2-1.1l-8.9-0.2C0.8,17,0.8,12.7,2.4,9l11.7,6.5
			L3.4,7.1C7.8,0.1,17-2.1,24,2.2c7,4.3,9.2,13.6,4.8,20.6c-0.4,0.6-0.8,1.2-1.3,1.8c0.6,0.9,1.2,1.8,1.6,2.8l-10.8,5.2l11.5-3.5
			c1.5,4.8,0.4,10.1-2.9,14c4.9,6.7,3.5,16-3.2,20.9c-6.7,4.9-16,3.5-20.9-3.2c-4.1-5.6-3.9-13.2,0.6-18.5
			C-0.6,36.8-0.4,29.1,4.1,23.9L4.1,23.9z"/>
		<path id="Caminho_5225" class="st5" d="M30.5,33.9c-0.1,3.4-1.3,6.6-3.5,9.1c4.9,6.7,3.5,16-3.2,20.9c-6.7,4.9-16,3.5-20.9-3.2
			c-4.1-5.6-3.9-13.2,0.6-18.5C1.6,39.7,30.5,32.3,30.5,33.9z"/>
	</g>
	<g id="Grupo_1980" transform="translate(136.877 115.202)" class="st2">
		<path id="Caminho_5226" class="st3" d="M17.2,78.5c0,0.3,0,0.6-0.1,0.9c-2-0.3-4.1-0.6-6.1-0.9v-0.3c0-0.9,0.3-1.7,0.7-2.5
			c0.7-1.3,2.3-1.9,3.6-1.2c0.6,0.3,1.1,0.8,1.3,1.4C17,76.7,17.2,77.6,17.2,78.5z"/>
		
			<ellipse id="Elipse_440" transform="matrix(3.158516e-02 -0.9995 0.9995 3.158516e-02 -59.5691 85.298)" class="st3" cx="14.2" cy="73.4" rx="4.1" ry="3.1"/>
		
			<ellipse id="Elipse_441" transform="matrix(3.158516e-02 -0.9995 0.9995 3.158516e-02 -54.4236 80.6206)" class="st3" cx="14.4" cy="68.4" rx="4.1" ry="3.1"/>
		
			<ellipse id="Elipse_442" transform="matrix(3.158516e-02 -0.9995 0.9995 3.158516e-02 -49.282 75.9413)" class="st3" cx="14.5" cy="63.4" rx="4.1" ry="3.1"/>
		
			<ellipse id="Elipse_443" transform="matrix(3.158516e-02 -0.9995 0.9995 3.158516e-02 -44.1404 71.2619)" class="st3" cx="14.7" cy="58.4" rx="4.1" ry="3.1"/>
		<path id="Caminho_5227" class="st4" d="M4.1,23.9c-0.4-0.6-0.8-1.1-1.1-1.8l8.2-1.1l-8.9-0.2C0.8,17,0.8,12.7,2.4,9l11.7,6.5
			L3.4,7.1C7.8,0.1,17-2.1,24,2.2c7,4.3,9.2,13.6,4.8,20.6c-0.4,0.6-0.8,1.2-1.3,1.8c0.6,0.9,1.2,1.8,1.6,2.8l-10.8,5.2l11.5-3.5
			c1.5,4.8,0.4,10.1-2.9,14c4.9,6.7,3.5,16-3.2,20.9c-6.7,4.9-16,3.5-20.9-3.2c-4.1-5.6-3.9-13.2,0.6-18.5
			C-0.6,36.8-0.4,29.1,4.1,23.9L4.1,23.9z"/>
		<path id="Caminho_5228" class="st5" d="M30.5,33.9c-0.1,3.4-1.3,6.6-3.5,9.1c4.9,6.7,3.5,16-3.2,20.9c-6.7,4.9-16,3.5-20.9-3.2
			c-4.1-5.6-3.9-13.2,0.6-18.5C1.6,39.7,30.5,32.3,30.5,33.9z"/>
	</g>
	<g id="Grupo_1981" transform="translate(242.093 45.85)" class="st2">
		<path id="Caminho_5229" class="st3" d="M33.1,151c0,0.6-0.1,1.2-0.2,1.8c-3.9-0.6-7.8-1.2-11.8-1.7v-0.5c0-1.7,0.5-3.3,1.4-4.8
			c1.3-2.6,4.4-3.7,7-2.4c1.1,0.6,2,1.5,2.5,2.7C32.8,147.6,33.1,149.3,33.1,151L33.1,151z"/>
		
			<ellipse id="Elipse_444" transform="matrix(3.158516e-02 -0.9995 0.9995 3.158516e-02 -114.6356 164.1262)" class="st3" cx="27.4" cy="141.2" rx="7.9" ry="6"/>
		
			<ellipse id="Elipse_445" transform="matrix(3.158516e-02 -0.9995 0.9995 3.158516e-02 -104.7339 155.1197)" class="st3" cx="27.7" cy="131.6" rx="7.9" ry="6"/>
		
			<ellipse id="Elipse_446" transform="matrix(3.158516e-02 -0.9995 0.9995 3.158516e-02 -94.8284 146.1171)" class="st3" cx="28" cy="122" rx="7.9" ry="6"/>
		
			<ellipse id="Elipse_447" transform="matrix(2.998030e-02 -0.9996 0.9996 2.998030e-02 -84.8 136.5299)" class="st3" cx="27.9" cy="112" rx="7.9" ry="6"/>
		<path id="Caminho_5230" class="st4" d="M7.9,45.9c-0.8-1.1-1.5-2.2-2.1-3.4l15.9-2.1L4.5,40c-3.1-7.3-3-15.6,0.2-22.8l22.5,12.6
			L6.6,13.6C15,0.1,32.7-4.1,46.2,4.3c13.5,8.4,17.7,26.1,9.3,39.6c-0.7,1.2-1.5,2.3-2.4,3.4c1.2,1.7,2.3,3.5,3.1,5.4l-20.8,10
			L57.5,56c2.8,9.3,0.8,19.4-5.5,26.9c9.4,12.8,6.7,30.8-6.1,40.3c-12.8,9.4-30.8,6.7-40.3-6.1c-7.9-10.7-7.4-25.4,1.1-35.6
			C-1.1,70.8-0.7,56.1,7.9,45.9L7.9,45.9z"/>
		<path id="Caminho_5231" class="st5" d="M58.7,65.3C58.5,71.8,56.1,78,52,82.9c9.4,12.8,6.7,30.8-6.1,40.3
			c-12.8,9.4-30.8,6.7-40.3-6.1c-7.9-10.7-7.4-25.4,1.1-35.6C3,76.4,58.8,62.1,58.7,65.3z"/>
	</g>
	<path id="Caminho_5232" class="st6" d="M46,197.4l3.1,0h4.3l5.5-88.6l54-90.1l-2.3-2.5V9.7l-58.4,96.9L46,197.4z"/>
	<path id="Caminho_5233" class="st5" d="M49.4,197.4h4l5.5-88.6l54-90.1l-2.3-2.5l-55.7,91.3L49.4,197.4z"/>
	<path id="Caminho_5234" class="st6" d="M37,198.1l140,10.7l0.1,0l135.4-8.3l0.1,0v-5.7L163.4,192l-124.5-0.1H38l-0.1,0.6L37,198.1z
		"/>
	<path id="Caminho_5235" class="st5" d="M37,198.1l140,10.7l0.1,0l135.4-8.3l0.1-0.1v-5.5h-0.1L177,199.4l-138.1-7.5h0l-0.2,0.2
		l-0.7,0.5L37,198.1z"/>
	<path id="Caminho_5236" class="st5" d="M37,198.1l140,10.7v-9.4l-138.4-7.3l-0.7,0.5L37,198.1z"/>
	<path id="Caminho_5237" class="st6" d="M110.5,16l61.7,66.2l-1.9,116.5l5.2,0.6l0.1,0h5.2l0.6-112.1L297,125.8l1.9,68.7l4.2,0.5
		l1.4,0.2l-3.3-74.1L180.5,78.6L114.3,9.8h-3.8V16z"/>
	<path id="Caminho_5238" class="st5" d="M181,85.1l0.5,2.1L297,125.8l1.9,68.7l4.2,0.5l-3.3-70.6L181,85.1z"/>
	<path id="Caminho_5239" class="st5" d="M110.5,16l61.7,66.2l-1.9,116.5l5.2,0.6L177,78.4L110.5,9.8V16z"/>
	<path id="Caminho_5240" class="st6" d="M181.2,131.8l42.4,8.3h0l74.2,14.6l3.4-1.4l0-0.2l-0.2-4.7l-119.7-24.2L181.2,131.8z"/>
	<path id="Caminho_5241" class="st5" d="M223.6,140.2l74.2,14.6l3.4-1.4l0-0.2L223.6,140.2z"/>
	<path id="Caminho_5242" class="st6" d="M226.5,102.2l1.1,63.1l0.6,32.4l5.2-0.2l3.3-0.1l-1-94.3l-2.3-0.8l-0.5-0.2L226.5,102.2z"/>
	<path id="Caminho_5243" class="st5" d="M226.5,102.2L226.5,102.2l1.1,63.1l0.6,32.4l5.2-0.2v-95.3H226.5z"/>
	<path id="Caminho_5244" class="st3" d="M144.7,118.4c0.3,0.2,0.6,0.4,0.9,0.6c0.3,0.3,0.6,0.6,0.9,1c1.3,1.6,2.4,3.5,2.3,5.5
		c0,0.6-0.2,1.2-0.6,1.6c-0.6,0.4-1.3,0.5-1.9,0.5c-0.7,0.1-1.5-0.1-2.1-0.4c-0.6-0.4-1.2-1.1-1.9-1.1c-0.1,0-0.2,0-0.3,0
		c-0.3-0.1-0.3-0.4-0.5-0.6c-0.3-0.4-0.9-0.3-1.4-0.1c-0.4,0.3-0.9,0.3-1.4,0.2c-0.3-0.1-0.5-0.4-0.6-0.6c-0.9-1.8-1.5-3.8-1.5-5.9
		c-0.1-1.2-1.1-5.5,1.6-4.5c1.2,0.5,2.3,1.2,3.3,1.9L144.7,118.4z"/>
	<path id="Caminho_5245" class="st3" d="M142.1,118.8c0.5,0.3,1.1,0.3,1.6-0.1c0.4-0.4,0.7-0.9,0.8-1.5c0.3-0.1,0.4,0.3,0.6,0.5
		c0.3,0.4,1,0.4,1.3,0.8c0.2,0.3,0.2,0.7,0.3,1c0.2,0.4,0.7,0.6,1,1c0.3,0.4,0.5,0.8,0.6,1.3l0.5,1.4c0.2,0.6,0.4,1.2,0.4,1.9
		c0.1,0.6-0.1,1.3-0.6,1.8c-1.1,0.7-2.3,0.9-3.5,0.6c-0.8-0.3-1.4-1.1-1.6-1.9c-0.2-0.9-0.3-1.7-0.3-2.6c-0.1-0.8-0.4-1.7-0.7-2.4
		c-0.3-0.6-1-1.5-1-2.2C141.8,118.4,141.9,118.6,142.1,118.8z"/>
	<path id="Caminho_5246" class="st7" d="M143.2,115.8c-0.1-0.4-0.2-0.8-0.2-1.3c0.1-0.9,0.3-1.7,0.8-2.5l-3.3,0.5
		c-0.4,0-0.8,0.2-1.1,0.5c-0.2,0.3-0.2,0.7,0,1.1c0.2,0.3,0.3,0.7,0.4,1c0,0.3,0,0.6,0.1,0.9c0.1,0.2,0.2,0.4,0.4,0.6
		c0.9,1.1,1.7,2.3,2.4,3.5c0,0,2-1.6,1.9-2.1c0-0.3-0.6-0.6-0.8-0.9C143.5,116.7,143.3,116.3,143.2,115.8z"/>
	<path id="Caminho_5247" class="st6" d="M171.7,104.4v2.9l-49.2,9.6l-2.6,1.5h-8.8v-1.6l48.3-11.7L171.7,104.4z"/>
	<path id="Caminho_5248" class="st5" d="M171.7,107.3l-49.2,9.6l-2.6,1.5h-8.8l48.7-10.4L171.7,107.3z"/>
	<path id="Caminho_5249" class="st4" d="M132.3,186c-1.1-1.4-3.1-1.8-4.6-1c-0.2,0.1-0.3,0.2-0.4,0.3c-0.3,0.4-0.1,1-0.1,1.5
		c0.1,1.2-0.9,2.2-1.8,3.1c-0.5,0.4-0.9,1-1.2,1.6c-0.3,0.6,0,1.4,0.5,1.8c0.2,0.1,0.5,0.2,0.8,0.2c0.9,0.2,1.9,0.2,2.8,0.1
		c1-0.1,1.8-0.7,2.2-1.6c0.1-0.2,0.2-0.4,0.4-0.6c0.5-0.4,1.3,0.1,1.9-0.2c0.5-0.2,0.5-0.6,0.5-1.1C133.4,188.6,133,187.2,132.3,186
		z"/>
	<path id="Caminho_5250" class="st4" d="M139.3,185.9c0.3,1,0.5,2,0.5,3c0.1,0.6,0,1.2-0.3,1.7c-0.4,0.5-0.9,0.8-1.5,0.9
		c-1.2,0.3-2.5,0-3.4-1c-0.6-0.8-0.8-1.8-0.6-2.7c0.1-0.8,0.3-1.7-0.3-2.3c-0.1-0.1-0.3-0.3-0.5-0.4c-0.3-0.4-0.3-0.9-0.1-1.3
		c0.2-0.4,0.4-0.9,0.5-1.3c1.4-0.1,2.9,0,4.3,0.3c0.5,0.2,0.4,0.6,0.6,1.1C138.6,184.7,139,185.3,139.3,185.9z"/>
	<path id="Caminho_5251" class="st3" d="M140,144c0.7,0.6,1.2,1.5,1.2,2.4c0.3,2.5-0.2,5-0.3,7.5c0,3.5,1,7.1,0.1,10.5
		c-0.5,2-0.1,4.4-0.6,6.4c-0.1,0.6-0.4,1.2-0.6,1.8c-0.2,1.4-0.1,2.7,0.4,4c0.1,0.3,0.2,0.7,0.2,1.1c0,0.6-0.2,1.1-0.4,1.6l-1.8,4.1
		c-0.2,0.5-1,0.5-1.5,0.6c-0.9,0.2-1.9,0.1-2.7-0.4c-0.7-0.6-1-1.5-1-2.4c-0.2-1.7-0.3-3.5-0.3-5.2c0-0.5,0-0.9-0.1-1.3
		c-0.2-0.5-0.4-1-0.6-1.5c0-0.7,0.1-1.4,0.4-2c0.1-0.6,0.1-1.3,0-1.9c-0.1-0.9-0.2-1.9-0.4-2.8c-0.1-1.3,0-2.6,0.3-3.9
		c0.1-1.2,0-2.5-0.3-3.7c0,1-0.1,2-0.4,2.9c-0.2,0.5-0.4,0.9-0.5,1.4c-0.6,2.1,0.7,4.3,0.5,6.5c-0.2,1-0.3,2-0.4,3.1
		c0.1,0.7,0.4,1.4,0.7,2.1c0.3,0.7,0.3,1.5,0,2.2c-0.9,1.8-0.2,4.2,0.6,6.1c0.2,0.3,0.3,0.7,0.4,1c0.1,0.9,0.2,1.7,0.1,2.6
		c-0.5,0.1-1-0.1-1.4-0.4c-0.1-0.1-0.2-0.3-0.4-0.4c-0.4-0.3-0.8-0.6-1.2-0.8c-0.3-0.1-0.6-0.2-0.9-0.2c-0.3,0.1-0.6,0.3-0.8,0.5
		c-0.3,0.3-0.6,0.5-0.9,0.7c-0.1,0.1-0.3,0.2-0.5,0.2c-0.2,0-0.3-0.1-0.4-0.2c0,0,0-0.1,0-0.2c-0.1-0.9-0.2-1.8-0.2-2.7
		c0-1.5-1.8-2.6-2.1-4.1c-0.2-1.2,0.2-2.5,0-3.7c-0.1-0.6-0.2-1.2-0.2-1.9c0-0.4,0.1-0.8,0.1-1.2c0-0.4,0-0.9,0-1.3l-0.1-1.4
		c0-1.4-0.3-2.8-0.7-4.1c-0.7-1.5-1-3.1-1.1-4.7c-0.1-1,0-2-0.1-3.1c-0.2-0.9-0.3-1.8-0.3-2.8c0.1-0.7,0.3-1.4,0.3-2.1
		c0-1.4-0.3-2.8-0.8-4c-0.5-1.3-0.6-2.7-0.2-4.1c0.1-0.2,0.2-0.4,0.4-0.5c0.2-0.1,0.4-0.2,0.7-0.3c5-1.1,10.1-1.4,15.2-1
		C138.5,143.3,139.3,143.6,140,144z"/>
	<circle id="Elipse_448" class="st7" cx="123.4" cy="108.4" r="4.7"/>
	<path id="Caminho_5252" class="st7" d="M122.5,114.2c0.1,0.3,0.1,0.5,0,0.8c-0.1,0.2-0.2,0.4-0.3,0.5c-0.5,0.6-1,1.1-1.5,1.6
		c0.3,0.6,0.8,1.1,1.4,1.4c0.6,0.3,1.3,0.4,1.9,0.6c0.6,0.2,1.4,0.1,1.9-0.3l2.6-1.6c0.4-0.2,0.8-0.5,1.1-0.8
		c0.5-0.5,0.7-1.1,0.8-1.8c0-0.1,0-0.2-0.1-0.3c-0.1-0.1-0.2-0.1-0.4-0.1c-0.9-0.3-1.7-0.9-2-1.8c-0.4-0.9-0.6-1.8-0.7-2.7l-2.8,1.5
		c-0.4,0.2-0.8,0.4-1.2,0.6c-0.3,0.1-0.8,0.2-1,0.5C121.8,112.7,122.4,113.7,122.5,114.2z"/>
	<path id="Caminho_5253" class="st3" d="M120.7,116.3c-0.4,0.3-0.7,0.7-0.9,1.2c-0.1,0.6-0.1,1.2,0.2,1.8c0.8,2.5,1.4,5,1.8,7.5
		c0.2,1.8,0.3,3.5,0.5,5.3c0.2,3.6,0.6,9.4,1.1,13c1.7-0.1,3.5-0.3,5.2-0.6c3.2-0.3,6.6,0.4,9.8-0.3c-0.8-3-1.5-8.2-2.3-11.3
		c-0.3-1.2-0.6-2.4-0.7-3.7c-0.1-0.9,0-1.8,0-2.7c0-1.8-0.1-3.5-0.2-5.2c0-2-0.3-4.1-0.7-6.1c0-0.3-0.2-0.5-0.3-0.7
		c-0.3-0.2-0.7-0.2-1-0.1c-1.1,0.1-2.1-0.1-3-0.7c-0.4-0.3-0.9-0.6-1.3-0.3c-0.2,0.2-0.3,0.4-0.3,0.6c-0.3,0.8-1,1.5-1.8,1.8
		c-0.8,0.3-1.7,0.5-2.6,0.5c-0.3,0.1-0.6,0-0.8-0.1c-0.4-0.3-0.4-1.2-1-1.2C121.8,115,121,116,120.7,116.3z"/>
	<path id="Caminho_5254" class="st4" d="M127.6,123.4c-1.1-1-1.5-2.5-2.3-3.8c-0.5-0.9-1.2-1.6-2-2.2c-0.4-0.3-0.8-0.6-1.1-0.9
		c-0.3-0.3-0.5-0.8-0.9-0.9c-0.4-0.1-0.7,0-1,0.3c-0.3,0.2-0.5,0.5-0.7,0.8c-1.2,1.3-3.4,1.5-4.4,2.9c-0.3,0.3-0.4,0.7-0.5,1.1
		c-0.3,2.2,0.3,4.3,1.6,6.1c0.2,0.4,0.6,0.7,1.1,0.9c-0.1,0.5,0,1.1,0.2,1.6c0.5,1.8,1.2,3.7,2,5.4c-0.2,0.7-0.3,1.4-0.4,2.1
		c-0.2,1.8,0,3.6-0.2,5.4c-0.2,1.5-0.6,2.9-0.6,4.3c0,0.2,0,0.5,0.2,0.6c0.1,0.1,0.2,0.1,0.3,0.1l3.6,0.1c2.1,0.1,4.2,0,6.2-0.3
		c0.3,0,0.5-0.1,0.8-0.2c0.6-0.5,1-1.2,1-2c0.1-1,0.2-2,0.2-3.1c0.4,1.4,1,2.8,2.3,3.4c0.7,0.3,1.5,0.4,2.2,0.3
		c1.6-0.1,3.3-0.2,4.9-0.5c0.4,0,0.7-0.2,0.7-0.6c0-0.1,0-0.1,0-0.2l0-1.6c0-3.2-0.8-6.3-1.1-9.5c0-1-0.2-2-0.3-3
		c-0.1-0.4-0.3-0.8-0.3-1.2c-0.1-0.4-0.1-0.8-0.1-1.2l-0.2-3.2c-0.1-1.5-0.3-2.9-0.4-4.4c-0.1-1.4-0.3-2.9-0.6-4.3
		c-0.3-0.9-0.8-1.9-1.7-2c-0.5,0-1,0.1-1.4,0.3c-1.1,0.4-2.4,0.4-3.5,0c-0.4-0.1-0.7-0.2-1.1-0.3c-0.4-0.1-0.8,0.1-1,0.4
		c-0.1,0.2-0.2,0.5-0.2,0.7C128.8,117.6,128.4,120.6,127.6,123.4z"/>
	<path id="Caminho_5255" class="st3" d="M122.9,123.5c-1.3-1.5-2.8-2.8-4.5-3.8c-0.7-0.4-1.4-0.6-2.2-0.5c-0.8,0.1-1.4,0.8-1.4,1.6
		c0.1,0.5,0.2,0.9,0.4,1.4c0,0.5,0,1.1,0.1,1.6c0.1,0.3,0.3,0.6,0.6,0.9l2.1,2.4c0.8,1.1,1.8,2,2.9,2.8c1.1,0.8,2.5,1,3.8,0.5
		c0.9-0.4,1.6-1.1,2.1-1.9c0.5-0.8,0.9-1.7,1.4-2.6c0.7-1.3,1.7-2.5,2.9-3.5c-0.7-0.1-1.3-0.4-1.8-0.9c-0.1-0.2-0.2-0.3-0.3-0.5
		l-0.5-1c-0.3,0-0.6,0.1-0.9,0.3c-0.2,0.2-0.4,0.5-0.6,0.7c-0.4,0.3-1,0.4-1.3,0.7c-0.1,0.2-0.3,0.3-0.4,0.5
		C124.7,123,123.9,123.5,122.9,123.5L122.9,123.5z"/>
	<path id="Caminho_5256" class="st7" d="M131.2,117.4c1-1.8,1-4.1,1.3-6.1c0-0.6,0.2-1.1,0.6-1.5c0.7-0.6,1.6-0.8,2.5-0.6
		c0.3,0,0.6,0.2,0.6,0.4c0,0.1-0.1,0.2-0.1,0.2c-0.9,1.1-1.4,2.4-1.4,3.8c0.5,0.3,1.2-0.3,1.6,0c0.3,0.2,0.2,0.7,0,1.1
		c-0.4,0.8-0.8,1.6-1.3,2.4c-0.3,0.7-0.8,1.4-1.3,1.9c-0.4,0.4-0.8,0.6-1.2,1c-0.9,0.8-1.4,2-2.3,2.8c-0.1,0.1-0.2,0.1-0.3,0.1
		c-0.1,0-0.2-0.1-0.3-0.1c-0.5-0.4-0.8-0.8-1.1-1.3c-0.3-0.6-0.3-0.8,0.3-1.3C129.6,119.5,130.5,118.5,131.2,117.4z"/>
	<path id="Caminho_5257" class="st4" d="M121.2,122.3c0.2,0.1,0.4,0.2,0.6,0.1c0.1,0,0.1-0.1,0.2-0.2c0.3-0.4,0.6-0.9,0.8-1.4
		c0-0.1,0.1-0.2,0.1-0.2c0-0.2-0.2-0.3-0.3-0.4c-0.8-0.5-1.7-1-2.7-1.3c-0.8-0.3-1.6-0.5-2.4-0.5c-0.6,0-1.2,0.3-1.6,0.8
		c-0.6,0.8,0.4,1,1,1.2C118.4,121,119.9,121.6,121.2,122.3z"/>
	<path id="Caminho_5258" class="st5" d="M120.3,127.2c0,0.1,0,0.3,0.1,0.4c0.1-0.4,0-0.9,0.1-1.3c0.1-0.6,0.7-1.1,0.8-1.7
		C120.2,124.4,120.3,126.6,120.3,127.2z"/>
	<path id="Caminho_5259" class="st8" d="M171.7,104.4v2.9l-11.9,0.7l-0.4-2.9L171.7,104.4z"/>
	<path id="Caminho_5260" class="st3" d="M119.2,109.1c0.7-0.6,0.3-1.9,0.8-2.7c0.3-0.4,0.8-0.7,1.3-0.9c0.6-0.3,1.2-0.4,1.9-0.5
		c0.7-0.1,1.3,0.2,1.8,0.6c0.2,0.2,0.3,0.5,0.5,0.7c0.4,0.5,1.2,0.8,1.8,0.6c0.4-0.1,0.8-0.4,0.8-0.8c0-0.2-0.2-0.5-0.4-0.6
		l-0.8-0.9c-0.8-1.2-2-2-3.4-2.4c-1-0.1-2,0-2.9,0.4c-0.4,0.1-0.8,0.3-0.9,0.7c-0.1,0.3,0,0.5,0,0.8c-0.1,0.5-0.8,0.7-1.1,1.1
		s-0.2,1-0.3,1.5c-0.2,0.5-0.3,1-0.4,1.5c0,0.3,0.1,0.9,0.5,1S119,108.7,119.2,109.1z"/>
	<path id="Caminho_5261" class="st9" d="M127.7,105.8c-0.2-1.3-0.8-2.5-1.6-3.5c-0.7-1-1.6-1.7-2.8-2.2c-1.1-0.4-2.4-0.3-3.4,0.3
		c-0.8,0.5-1.4,1.3-1.7,2.2c-0.9,1.6-0.9,3.5-0.2,5.2c0.4-0.4,1-0.2,1.5-0.4c0.6-0.3,1.3-0.6,1.9-0.9
		C123.3,105.5,125.7,106.2,127.7,105.8z"/>
	<path id="Caminho_5262" class="st5" d="M118.5,105.7c-0.1-0.5,0-1.1,0.3-1.5c0,0,0.1-0.1,0.2-0.1c0.1,0,0.1,0.1,0.1,0.1
		c0.2,0.3,0.4,0.7,0.5,1.1C119.2,105.2,118.7,105.4,118.5,105.7"/>
	<path id="Caminho_5263" class="st5" d="M125.3,104.2l-0.1-1c0-0.1,0-0.2,0-0.3c0.1-0.1,0.3-0.2,0.4-0.1c0.1,0.1,0.3,0.2,0.3,0.3
		c0.2,0.4,0.4,0.8,0.6,1.2c-0.5-0.1-1-0.1-1.4,0"/>
	<path id="Caminho_5264" class="st5" d="M128,146.5v2.4l-2,0.1h-10.6v-2.5H128z"/>
	<path id="Caminho_5265" class="st6" d="M128,146.5v2.5h-12.6L82,107.1v-2h7L128,146.5z"/>
	<path id="Caminho_5266" class="st5" d="M128,146.5v2.5h-12.6L82,107.1v-2h7L128,146.5z"/>
	<path id="Caminho_5267" class="st5" d="M128,146.5v2.5h-12.6L82,107.1v-2l33.6,41.3L128,146.5z"/>
	<path id="Caminho_5268" class="st4" d="M86.3,188.4c0.1,0.5-0.2,0.9-0.7,1c0,0,0,0-0.1,0c-0.8,0.2-1.6,0.6-2.2,1.2
		c-0.6,0.6-0.6,1.6,0,2.3c0,0,0,0,0,0c0.4,0.2,0.8,0.3,1.2,0.3c1.3,0.2,2.7,0,3.9-0.5c0.9-0.4,1.7-1.1,2.6-1c0.5,0,1,0.3,1.4,0
		s0.6-0.8,0.6-1.4c0-1.1-0.2-2.2-0.5-3.2c-0.7-0.2-1.4-0.3-2.1-0.3l-2.2-0.3c-0.4-0.1-1.3-0.4-1.7,0S86.3,188,86.3,188.4z"/>
	<path id="Caminho_5269" class="st4" d="M99.8,181.2c0.1,0.5,0.2,1,0.5,1.5c0.2,0.8,0.8,1.5,1.5,2c0.7,0.3,1.6,0.3,2.3-0.1
		c0.3-0.1,0.6-0.3,0.8-0.6c0.2-0.4,0.3-0.9,0.3-1.3c0.1-1.1-0.1-2.3-0.6-3.3c-0.4-0.9-1.2-1.6-1.2-2.6l-2.7,0.5
		c-0.1,0-0.3,0.1-0.4,0.2c-0.1,0.1-0.1,0.2-0.2,0.3C99.7,178.9,99.6,180,99.8,181.2z"/>
	<path id="Caminho_5270" class="st4" d="M68,153.4c-0.2,0.9,0,1.9,0.4,2.8c0.5,0.9,1.5,1.3,2.4,1c0.1,0,0.2-0.1,0.2-0.2
		c0-0.1,0-0.2,0-0.3c-0.4-1.1-0.4-2.2,0.1-3.2c0.1-0.1,0.2-0.3,0.3-0.2c0.1,0,0.1,0.1,0.1,0.1c0.1,0.2,0.2,0.5,0.2,0.8
		c0,0.3,0,0.5,0,0.8c0.1,0.3,0.3,0.5,0.6,0.4c0.1-0.1,0.2-0.2,0.3-0.4c0.5-1.9,0.5-4,0.1-5.9c0-0.2-0.1-0.3-0.3-0.3c0,0,0,0-0.1,0
		c-1.4-0.1-2.1-0.5-2.9,0.8C68.6,150.7,68.1,152.1,68,153.4z"/>
	<path id="Caminho_5271" class="st3" d="M84.1,148.7c-0.9,2.7-1.1,5.6-0.6,8.4l0.3,2.5c0.1,0.9,0.2,1.7,0.4,2.5
		c0.1,0.4,0.1,0.9,0.2,1.3c0,0.4-0.1,0.9-0.2,1.3c-0.2,0.9-0.3,1.8-0.3,2.7c0,1.5,0.1,2.9,0.3,4.4c0.2,2.9,0.2,5.8-0.1,8.7
		c-0.1,0.8,0.1,1.6,0.5,2.2c0.2,0.2,0.3,0.4,0.4,0.7c0.2,0.7-0.3,1.3-0.4,2c-0.2,1.1,0.6,2.2,1.7,2.3c2.3,0.3,4.7,0.2,6.8,1.2
		c0.2-0.6-0.3-1.4,0-2c0.1-0.4,0.5-0.7,0.8-1c0.4-0.5,0.5-1.1,0.5-1.8c0-0.8-0.1-1.6-0.4-2.4c-0.3-0.6-0.5-1.3-0.6-2
		c0.1-0.3,0.1-0.7,0-1c-0.1-0.2-0.2-0.3-0.4-0.5c-0.9-1-1.4-2.2-1.5-3.5c-0.1-1.3-0.1-2.6,0.1-3.8c0-1.2,0.4-2.4,1.1-3.4
		c-0.4-2.9-0.1-5.8,0.6-8.5c0.1-0.3,0.2-0.6,0.5-0.6c0.2,0,0.4,0.1,0.6,0.2c0.4,0.5,0.7,1,0.9,1.6c0.3,0.6,0.4,1.3,0.3,2
		c-0.1,0.3-0.2,0.5-0.3,0.8c-0.2,0.6-0.1,1.2,0.1,1.7c0.1,0.2,0.2,0.4,0.2,0.6c0,0.2-0.1,0.4-0.2,0.6c-0.2,0.7-0.1,1.5,0.2,2.1
		c0.4,0.6,0.8,1.2,1.4,1.7c-0.3,1.1-0.2,2.3,0.2,3.4c0.1,0.1,0.1,0.2,0,0.3c-0.1,0.1-0.2,0.2-0.3,0.2c-0.3,0.2-0.1,0.7,0.1,1
		c0.5,0.9,1.1,1.7,1.8,2.5c0.6,0.7,0.5,2,1.4,2.3c0.4,0.1,0.7,0.1,1.1,0c0.9,0,1.7-0.4,2.2-1.1c0.1-0.3,0.3-0.6,0.5-0.9
		c0.3-0.2,0.6-0.3,0.8-0.6s0-0.6,0-1s0.3-0.6,0.4-0.9c0.2-0.8-0.7-1.4-0.8-2.2c-0.2-1.2,1.3-2,1.2-3.2c-0.1-2.5-0.2-5.1-0.3-7.6
		c-0.2-2.3-0.2-4.5-0.1-6.8c0.2-1.4,0.2-2.8-0.2-4.2c-0.9-1.8-2.8-3-4.8-3.1c-2-0.1-4,0.1-6,0.6C90.7,149,87.4,149,84.1,148.7z"/>
	<circle id="Elipse_449" class="st10" cx="90" cy="116.1" r="4.7"/>
	<path id="Caminho_5272" class="st10" d="M88.1,121.7c-0.3,0.8-1.1,1.2-1.9,1.2c-0.1,0.7,0.2,1.4,0.7,2c2,2.3,5,3.3,8,2.7
		c0.6-0.1,1.1-0.3,1.6-0.7c0.6-0.5,1.1-1.3,1.2-2.1c0.1-0.8,0.2-1.6,0.1-2.4c0-0.2,0-0.3-0.1-0.4c-0.1-0.1-0.3-0.1-0.4-0.1
		c-1,0-2-0.2-2.9-0.6c-0.9-0.4-1.4-1.5-1.1-2.5c-0.7,0.1-1.3,0.2-2,0.2c-0.7,0.1-1.4,0.2-2.1,0.3c-0.3,0-0.7,0.1-1,0.2
		c-0.4,0.2-0.3,0.1-0.2,0.5C88.3,120.5,88.3,121.1,88.1,121.7z"/>
	<path id="Caminho_5273" class="st3" d="M91.7,124.5c-0.6,0-1.3-0.1-1.9-0.2c-0.6-0.1-1.2-0.5-1.5-1c-0.2-0.3-0.4-0.7-0.7-0.9
		c-0.6-0.3-1.2,0.2-1.7,0.7c-0.4,0.4-0.9,0.8-1.4,1.1c-0.6,0.3-1.4,0.4-1.9,0.8c-0.5,0.3-0.9,0.8-1.2,1.3l-4.1,5.6
		c-1.7,2.3-3.1,4.7-4.6,7.1c-1.1,2.2-2.1,4.4-2.9,6.7c-0.1,0.1-0.1,0.3-0.1,0.4c0,0.2,0.2,0.3,0.3,0.2c-0.4,0.4-0.1,1.2-0.2,1.8
		c-0.1,0.4-0.4,0.8-0.7,1.1c0.6-0.1,1.3-0.1,1.9,0.1c0.7,0.2,1.3,0.5,1.8,0.9c0.4-0.1,0.3-0.7,0.6-0.9c0.2-0.1,0.4-0.1,0.6-0.2
		c0.8-0.2,1.1-1.1,1.7-1.6c0.5-0.4,1.2-0.6,1.7-1c0.9-0.7,1-1.9,1.5-2.9c0.4-0.8,1-1.6,1.3-2.4c0.2-0.6,0.4-1.1,0.6-1.7
		c0.6-0.8,1.4-1.4,2.3-1.7c0.5-0.3,1.2-0.5,1.8-0.5c-0.1,1.3-0.1,2.7,0.1,4c0.1,0.5,0.2,0.9,0.4,1.4c0.5,2.1,0.7,4.3,0.7,6.4
		c1.3-0.3,2.7-0.5,4.1-0.5c1.1,0,2.2,0.1,3.2,0.1c1.3,0,2.6-0.3,3.8-0.4c1.3-0.1,2.6,0.1,3.8,0.6c-0.1-1.8,0-3.7,0.2-5.5l0.3-2.9
		c0.1-0.8,0.2-1.7,0.4-2.5c0.2-0.7,0.4-1.3,0.6-2c0.5-2.4,0.7-4.8,0.4-7.3c-0.1-1.3-0.5-2.5-1.1-3.6c-0.2-0.4-0.4-0.8-0.7-1.2
		c-1.4-1.9-3.7-3-6-2.8c-0.1,0-0.3,0-0.4,0.1c-0.2,0.2-0.4,0.4-0.6,0.7C93.6,122.9,92.8,123.8,91.7,124.5L91.7,124.5z"/>
	<path id="Caminho_5274" class="st3" d="M85.9,117.7c0.1-0.3,0.5-0.4,0.7-0.6c0.4-0.4,0.2-1.2,0.3-1.8c0.2-0.9,0.8-1.6,1.7-1.9
		c0.8-0.3,1.7-0.3,2.6-0.2c0.4,0,0.8,0.2,1.2,0.4c0.2,0.1,0.3,0.3,0.4,0.4c0.5,0.3,1.2,0.2,1.6-0.4c-1-1.2-2.2-2.6-3.7-2.9
		c-0.5-0.1-1.1-0.2-1.6-0.2c-0.7-0.1-1.5,0-2.1,0.3c-0.9,0.4-1.6,1.2-1.9,2.2c-0.3,0.9-0.4,1.9-0.5,2.9c-0.1,0.7-0.1,1.3,0,2
		c0.1,0.9,0.4,1.8,1,2.5c0.1,0.1,0.2,0.2,0.3,0.3C87.1,121.2,85.8,117.9,85.9,117.7z"/>
	<path id="Caminho_5275" class="st9" d="M94.3,112.8c-0.3-1.4-1.1-2.6-2.2-3.4c-0.8-0.8-1.8-1.4-2.9-1.8c-1.1-0.4-2.3-0.2-3.3,0.4
		c-0.7,0.6-1.3,1.3-1.6,2.2c-0.5,1-0.7,2.1-0.7,3.2c0,1.1,0.6,2.2,1.6,2.8c0.4-0.5,0.9-0.8,1.5-1C89.1,114.3,91.7,113.5,94.3,112.8z
		"/>
	<path id="Caminho_5276" class="st5" d="M85.4,112.3c0.1,0,0.2,0.1,0.2,0.2c0.2,0.4,0.4,0.8,0.6,1.2c-0.3,0.1-0.9,0.2-1.1-0.1
		C85,113.3,85.1,112.3,85.4,112.3z"/>
	<path id="Caminho_5277" class="st5" d="M92.1,111.6c-0.1,0.1-0.2-0.1-0.2-0.2v-1.1c0,0,0-0.1,0-0.1c0,0,0.1,0,0.1,0
		c0.2,0,0.4,0.2,0.6,0.4c0.2,0.3,0.4,0.6,0.6,1l-1.2,0"/>
	<path id="Caminho_5278" class="st3" d="M107.5,130.4c0.3-0.3,0.6-0.5,0.9-0.7c0.9-0.5,1.8-0.8,2.7-1.1c0.9-0.3,1.7-0.9,2.2-1.8
		c0.2-0.6,0.2-1.2,0.2-1.8c0-0.2,0-0.5-0.1-0.7c-0.1-0.2-0.3-0.4-0.5-0.5c-1.3-0.8-2.9-1.1-4.4-0.9c-3.4,0.2-6.7,1-9.7,2.4
		c-0.2,0.1-0.3,0.2-0.4,0.3c-0.1,0.1-0.1,0.3-0.1,0.4c-0.1,0.9,0.1,1.7,0.3,2.5c0.4,1,1.2,1.9,1.6,2.9c0.2,0.5,0.2,1,0.3,1.5
		c0.1,0.5,0.4,0.9,0.8,1.2c1.2,0.7,2.2-0.2,3-1L107.5,130.4z"/>
	<path id="Caminho_5279" class="st4" d="M92.4,134.4l-1.5-3.2c-0.2-0.4-0.4-0.9-0.6-1.4c-0.2-0.6-0.3-1.1-0.4-1.7
		c-0.5-1.9-1.8-3.5-2.5-5.3c0-0.2-0.1-0.3-0.2-0.4c-0.2-0.1-0.4-0.2-0.6-0.1c-0.9,0.3-1.7,0.7-2.4,1.2c-0.4,0.2-0.8,0.3-1.2,0.5
		c-0.4,0.2-0.7,0.5-0.8,0.9c0,0.5,0.1,0.9,0.3,1.3c0.7,1.8,1.1,3.8,1,5.8c0.1,1.3-0.1,2.7-0.8,3.8c-1.5,2-0.5,5,0,7.5
		c0.1,0.3,0.1,0.6,0.2,0.9c0,0.4,0.1,0.8,0.1,1.2c0.1,1.3-0.1,2.6-0.6,3.8c0.5,0.3,1.1,0.5,1.8,0.5c1.7,0.2,3.4,0.4,5.1,0.5
		c0.5,0.1,1.1,0,1.6-0.1c1.3-0.3,2.2-1.5,2.2-2.9c0,0.8,0.3,1.6,0.9,2.2c0.6,0.5,1.4,0.7,2.2,0.7c2.2,0.1,4.5,0.1,6.7-0.2
		c0.1,0,0.3,0,0.4-0.1c0.4-0.2,0.5-0.8,0.4-1.3c-0.1-0.9-0.1-1.8-0.2-2.7c-0.1-0.6-0.1-1.1-0.1-1.7c0-0.6,0.1-1.2,0.3-1.8
		c0.4-1.8,0.6-3.7,0.6-5.5c-0.1-0.5-0.1-0.9-0.1-1.4c0.1-1,0.6-2,0.5-3c-0.2-3-0.6-6-1.4-9c-0.1-0.5-0.4-1-0.8-1.4
		c-0.6-0.4-1.4-0.2-2.1-0.4c-0.3-0.1-0.6-0.3-0.9-0.5c-0.6-0.4-1.3-0.6-2-0.6c-0.5-0.1-1.1,0.1-1.5,0.5c-0.2,0.2-0.2,0.5-0.3,0.8
		c-0.4,1.8-0.9,3.5-1.4,5.3l-0.5,1.7l-1.3,4.5C92.4,133.8,92.5,133.9,92.4,134.4z"/>
	<path id="Caminho_5280" class="st6" d="M99.8,116.7l28.2,29.6v2.5h-12.6l-21.2-27.7"/>
	<path id="Caminho_5281" class="st5" d="M99.8,116.7l28.2,29.6v2.5h-12.6l-21.2-27.7"/>
	<path id="Caminho_5282" class="st5" d="M94.7,120.8L94.7,120.8l20.9,25.5H128v2.5h-12.6l-21.2-27.7L94.7,120.8z"/>
	<path id="Caminho_5283" class="st4" d="M98,121.5c-1,0.4-2.2,1-2.5,2.1c-0.2,0.5,0.1,1.1,0.6,1.3c0.1,0,0.3,0.1,0.4,0.1
		c0.5,0,1-0.1,1.4-0.3l6-2c0.2-0.1,0.4-0.1,0.4-0.3c0-0.1,0-0.2-0.1-0.3c-0.2-0.5-0.4-1.4-0.8-1.7c-0.3-0.3-1-0.2-1.3-0.2
		C100.7,120.4,99.3,120.8,98,121.5z"/>
	<path id="Caminho_5284" class="st3" d="M103.3,122.9c1,0,2,0.2,3,0.5c1,0.3,1.8,0.9,2.5,1.7c0.2,0.2,0.3,0.5,0.4,0.8
		c0.1,0.3,1,0.5,0.8,0.7c0.6-0.1,0.5,0.2,1.1,0.2c0.7,0,1.3-0.2,1.7-0.7c0.3-0.4,0.4-0.9,0.3-1.4c0-0.3-0.1-0.7-0.2-1
		c-0.4-0.6-0.9-1-1.6-1.2l-5.2-2.4c-0.3-0.2-0.6-0.3-1-0.3c-0.3,0-0.6,0-0.8,0l-2.4,0.3c1,0.7,1.7,1.9,1.6,3.1"/>
</g>
</svg>
