<?xml version="1.0" encoding="utf-8"?>
<!-- Generator: Adobe Illustrator 25.0.1, SVG Export Plug-In . SVG Version: 6.00 Build 0)  -->
<svg version="1.1" id="Camada_1" xmlns="http://www.w3.org/2000/svg" xmlns:xlink="http://www.w3.org/1999/xlink" x="0px" y="0px"
	 viewBox="0 0 276.6 166.6" style="enable-background:new 0 0 276.6 166.6;" xml:space="preserve">
<style type="text/css">
	.st0{fill:#F2F2F2;}
	.st1{fill:#3F3D56;}
	.st2{opacity:0.1;enable-background:new    ;}
	.st3{fill:none;stroke:#3F3D56;stroke-miterlimit:10;}
	.st4{fill:#F86464;}
	.st5{fill:#46455B;}
	.st6{fill:#A8A8A8;}
	.st7{opacity:0.2;enable-background:new    ;}
	.st8{fill:#A0616A;}
	.st9{fill:#605D82;}
	.st10{fill:#535070;}
	.st11{fill:#FFFFFF;}
	.st12{fill:#57B894;}
</style>
<g id="Illustration" transform="translate(0 -0.018)">
	<path id="Caminho_2568" class="st0" d="M188.2,95.1l2.4-0.4c0.2,0,0.5-0.1,0.7-0.1c-9.1-5.7-11.9-17.7-6.3-26.8
		c4-6.4,11.2-9.9,18.7-9.1l-3.1,7.4l7.4-6.4c0,0,0,0,0,0c10.1,3.6,15.5,14.7,11.9,24.8c0,0,0,0,0,0c-0.1,0.4-0.3,0.7-0.4,1
		c2.1-1,4-2.3,5.7-3.8c3.3-3.2,5.1-7.5,7.1-12.9c4-10.6,7.8-21.4,11.5-32.2c-8.4-4.6-12.3-14.5-9.1-23.6c0.2-0.6,0.4-1.1,0.7-1.6
		c0.1-0.1,0.1-0.3,0.2-0.4c0.2-0.5,0.5-1,0.8-1.5c0-0.1,0.1-0.2,0.1-0.2c0.2-0.4,0.5-0.8,0.8-1.2c0.1-0.1,0.2-0.3,0.3-0.4
		c0.3-0.4,0.6-0.8,1-1.2c0.1-0.1,0.2-0.2,0.4-0.4c0.3-0.3,0.5-0.5,0.8-0.8c0.1-0.1,0.3-0.3,0.4-0.4c0,0,0.1-0.1,0.1-0.1l0,0
		c7.1-6.2,17.6-6.4,24.9-0.6l-4,9.6l7.3-6.4c5.2,6.7,5.5,16,0.7,22.9l0,0c-0.1,0.1-0.2,0.2-0.3,0.3c-0.2,0.2-0.3,0.4-0.5,0.6
		c-0.2,0.3-0.4,0.5-0.6,0.8c-0.2,0.2-0.3,0.4-0.5,0.6c-0.3,0.3-0.5,0.5-0.8,0.8c-0.2,0.1-0.3,0.3-0.5,0.4c-0.4,0.4-0.9,0.7-1.3,1.1
		c-0.2,0.1-0.3,0.2-0.5,0.3c-0.3,0.2-0.6,0.4-1,0.6c-0.2,0.1-0.4,0.2-0.6,0.4c-0.3,0.2-0.6,0.3-0.9,0.5c-0.2,0.1-0.4,0.2-0.7,0.3
		c-0.3,0.1-0.6,0.3-1,0.4c-0.2,0.1-0.4,0.2-0.7,0.2c-0.4,0.1-0.7,0.2-1.1,0.3c-0.2,0.1-0.4,0.1-0.6,0.2c-0.6,0.1-1.1,0.3-1.7,0.4
		c-0.1,0-0.2,0-0.3,0c-0.5,0.1-0.9,0.1-1.4,0.2c-0.2,0-0.4,0-0.6,0c-0.4,0-0.8,0-1.2,0c-0.2,0-0.5,0-0.7,0c-0.4,0-0.8-0.1-1.1-0.1
		c-0.2,0-0.4-0.1-0.7-0.1c-0.4-0.1-0.8-0.1-1.2-0.2l-0.1,0c-1.6,4.6-3.1,9.1-4.8,13.7c8-7.2,20.3-6.5,27.5,1.5
		c0.3,0.3,0.5,0.6,0.7,0.9l-6.7,7.4l9.1-3.6c2.2,4.6,2.5,10,0.8,14.8c-0.6,1.7-1.4,3.3-2.5,4.8c-6.2,8.8-18.4,10.9-27.1,4.7
		c-4.4-3.1-7.3-7.9-8-13.2c-0.2,0.5-0.3,0.9-0.5,1.4c-1.8,4.7-4,10.6-8.4,14.9c-3,2.7-6.5,4.8-10.3,6.3c-2.3,1-4.7,1.9-7,2.8
		c-2.6,1.6-5.6,2.6-8.7,2.8c-3.8,1-7.6,1.9-11.4,2.6l-2.4,0.4c-2.1,0.4-4.4,0.7-6.5,1.2c0.3,0.1,0.6,0.2,0.9,0.3
		c8,2.8,13.3,10.5,13,19l-15,4.6l13.6,2.2c-4.1,10-15.4,14.8-25.4,10.7c-2.7-1.1-5.1-2.8-7.1-4.9c0.1,0.5,0.3,0.9,0.4,1.4
		c0.3,0.9,0.5,1.8,0.8,2.7c3.6,12.3,2,21.9-4.3,27.2l-3.5-4.2c6.2-5.1,4.3-15.6,2.6-21.5c-0.3-0.9-0.5-1.8-0.8-2.7
		c-2.3-7.7-5-16.5-1.5-24.5C161.5,99.7,176.3,97.1,188.2,95.1z"/>
	<path id="Caminho_2569" class="st1" d="M183.8,166.2h-105c-7.2,0-13-5.8-13-13l0,0v-48.1c0-1.4,0.6-2.8,1.6-3.7L123,48.6
		c4.6-4.4,11.9-4.4,16.5,0l53.1,50.3c2.7,2.5,4.2,6.1,4.2,9.8v44.6C196.8,160.4,191,166.2,183.8,166.2L183.8,166.2L183.8,166.2z"/>
	<path id="Caminho_2570" class="st2" d="M65.8,105.9h129.9v52.5c0,4.3-3.5,7.8-7.8,7.8H73.6c-4.3,0-7.8-3.5-7.8-7.8L65.8,105.9
		L65.8,105.9z"/>
	<path id="Caminho_2571" class="st3" d="M65.6,102.8"/>
	<path id="Retângulo_860" class="st4" d="M109,64.6h44.3c14.5,0,26.2,11.7,26.2,26.2V135c0,14.5-11.7,26.2-26.2,26.2H109
		c-14.5,0-26.2-11.7-26.2-26.2V90.7C82.8,76.3,94.5,64.6,109,64.6z"/>
	<path id="Caminho_2572" class="st2" d="M179.5,108.1v53.1H82.8v-53.1l48.3,23.4L179.5,108.1z"/>
	<path id="Caminho_2573" class="st1" d="M131.1,134.4l-61.9-29.9c-1.3-0.6-2.8-0.1-3.4,1.2c-0.2,0.3-0.2,0.7-0.2,1.1v51.5
		c0,4.3,3.5,7.8,7.8,7.8h115.3c4.3,0,7.8-3.5,7.8-7.8l0,0v-50.6c0-1.7-1.4-3.1-3.1-3.1c-0.5,0-0.9,0.1-1.3,0.3L131.1,134.4z"/>
	<rect id="Retângulo_861" x="91.2" y="73.4" class="st0" width="27" height="3.8"/>
	<rect id="Retângulo_862" x="89" y="87.4" class="st0" width="80.2" height="2.2"/>
	<rect id="Retângulo_863" x="89" y="94.7" class="st0" width="80.2" height="2.2"/>
	<rect id="Retângulo_864" x="89" y="102.1" class="st0" width="80.2" height="2.2"/>
	<line id="Linha_12" class="st3" x1="16.6" y1="166.1" x2="241.6" y2="166.1"/>
	<path id="Caminho_2574" class="st5" d="M0,132.5c0,16.1,10.1,29.1,22.6,29.1"/>
	<path id="Caminho_2575" class="st4" d="M22.6,161.6c0-16.3,11.3-29.4,25.2-29.4"/>
	<path id="Caminho_2576" class="st4" d="M8.2,133.9c0,15.3,6.4,27.7,14.4,27.7"/>
	<path id="Caminho_2577" class="st5" d="M22.6,161.6c0-20.8,13-37.6,29.1-37.6"/>
	<path id="Caminho_2578" class="st6" d="M17.8,161.8c0,0,3.2-0.1,4.2-0.8s4.9-1.5,5.2-0.4s4.8,5.5,1.2,5.5S20,165.6,19,165
		S17.8,161.8,17.8,161.8z"/>
	<path id="Caminho_2579" class="st7" d="M28.4,165.7c-3.6,0-8.4-0.6-9.4-1.2c-0.7-0.4-1-2-1.1-2.8h-0.1c0,0,0.2,2.6,1.2,3.2
		s5.7,1.2,9.4,1.2c1,0,1.4-0.4,1.4-0.9C29.6,165.5,29.2,165.7,28.4,165.7z"/>
	<path id="Caminho_2580" class="st8" d="M196.4,44.4c-0.2,1.5-1.3,2.6-1.7,4c-0.6,2.1,0.5,4.4,1.9,6.1c2.4,2.7,5.8,4.3,9.3,4.4
		c0.5,0,1,0,1.5-0.2c0.4-0.2,0.8-0.5,1.2-0.8c1.1-1.2,1.8-2.6,1.9-4.2c0.2-1.6,0.2-3.1,0.1-4.7c0-0.3-0.1-0.6-0.2-0.9
		c-0.2-0.3-0.4-0.5-0.6-0.8c-0.8-0.7-1.7-1.4-2.6-1.9c-0.4-0.2-0.8-0.5-1.1-0.8c-0.2-0.3-0.3-0.6-0.3-1l-0.3-1.5
		c-0.1-0.4-0.2-0.8-0.4-1.2c-0.6-0.6-1.5-0.9-2.3-0.8l-3.1-0.1c-1.1-0.2-2.1-0.2-3.2-0.1c-0.9,0.2-0.6,1-0.4,1.7
		C196.3,42.6,196.4,43.5,196.4,44.4z"/>
	<path id="Caminho_2581" class="st2" d="M196.4,44.4c-0.2,1.5-1.3,2.6-1.7,4c-0.6,2.1,0.5,4.4,1.9,6.1c2.4,2.7,5.8,4.3,9.3,4.4
		c0.5,0,1,0,1.5-0.2c0.4-0.2,0.8-0.5,1.2-0.8c1.1-1.2,1.8-2.6,1.9-4.2c0.2-1.6,0.2-3.1,0.1-4.7c0-0.3-0.1-0.6-0.2-0.9
		c-0.2-0.3-0.4-0.5-0.6-0.8c-0.8-0.7-1.7-1.4-2.6-1.9c-0.4-0.2-0.8-0.5-1.1-0.8c-0.2-0.3-0.3-0.6-0.3-1l-0.3-1.5
		c-0.1-0.4-0.2-0.8-0.4-1.2c-0.6-0.6-1.5-0.9-2.3-0.8l-3.1-0.1c-1.1-0.2-2.1-0.2-3.2-0.1c-0.9,0.2-0.6,1-0.4,1.7
		C196.3,42.6,196.4,43.5,196.4,44.4z"/>
	<path id="Caminho_2582" class="st9" d="M216.4,110.2l-1.3,14.6c-0.3,3.8-0.7,7.7-1.4,11.5c-0.2,1.3-0.5,2.6-0.8,3.9
		c-0.9,3.6-2.2,7.1-2.7,10.7c0,0.1,0,0.2,0,0.3c0,0.8-0.2,1.6-0.5,2.4c-0.2,0.6-0.5,1.1-0.8,1.6c-0.4,1.1-0.6,2.3-0.6,3.5
		c-1.6-0.9-3.4-1.5-5.2-1.8c-0.9,0-1.8-0.3-2.5-0.9c-0.6-0.8-0.7-1.9-0.5-2.8c0.4-3.1,0.7-6.1,1.1-9.2c0.1-1.3,0.3-2.6,0.7-3.9
		c0.1-0.4,0.3-0.8,0.4-1.3c0.2-0.6,0.4-1.2,0.6-1.7c0.2-1,0.4-1.9,0.5-2.9c0.4-3.1,0.8-6.1,1.2-9.2l0-0.2c0.6-4.6,0.9-9.3,0.9-14
		c0-0.7,0-1.4-0.1-2.1c-0.1-1-0.2-1.5,0.7-2.2c1-0.7,2.1-1.2,3.2-1.6c0.6-0.2,6.8-2.5,7-2c0.3,1,0.4,2.1,0.5,3.2
		C216.6,107.6,216.6,108.9,216.4,110.2z"/>
	<path id="Caminho_2583" class="st2" d="M213.7,136.3c-0.2,1.3-0.5,2.6-0.8,3.9c-0.9,3.6-2.2,7.1-2.7,10.7c0,0.1,0,0.2,0,0.3
		c-2.8-4-5.1-8.3-7.9-12.3c0.2-0.6,0.4-1.2,0.6-1.7c0.2-1,0.4-1.9,0.5-2.9c0.4-3.1,0.8-6.1,1.2-9.2l0-0.2c0.2,0.7,0.4,1.3,0.7,1.9
		c1.8,3.7,6.2,5.6,8.3,9.2C213.6,136.1,213.6,136.2,213.7,136.3z"/>
	<path id="Caminho_2584" class="st9" d="M191.1,103.7c0.2,3,0.5,5.9,1,8.9l1,6.1c0.5,3.3,1.1,6.7,2.7,9.7c1.3,2.2,2.8,4.2,4.4,6.1
		c3.8,4.9,6.6,10.5,10.2,15.5c1,1.5,2.5,3.1,4.3,2.8c1.2-0.2,2-1.2,2.9-1.9c1.2-0.8,2.3-1.6,3.2-2.6c0.8-1.1,1-2.9-0.1-3.7
		c-0.4-0.2-0.9-0.4-1.3-0.5c-1.7-0.8-3.1-2.3-3.7-4.2c-0.6-1.8-1.3-3.6-2.2-5.3c-2.1-3.6-6.5-5.4-8.3-9.2c-0.9-2.2-1.3-4.5-1.2-6.8
		l-0.2-5.9c-0.1-0.6,0-1.3,0.2-1.9c0.7-1.6,2.8-1.7,4.5-1.9c1.9-0.2,3.8-0.8,5.5-1.7c1-0.5,1.9-1.2,2.5-2.2c0.4-0.9,0.6-2,0.6-3
		l0.6-10.7c0.1-0.9,0-1.9-0.2-2.7c-0.8-2.2-3.6-2.9-5.9-2.8c-4.3,0.2-8.3,2-12.4,3.3c-1,0.3-2,0.6-3.1,0.8c-1,0.1-1.9,0.2-2.9,0.4
		c-1.5,0.5-1.5,3.9-1.7,5.3C191.2,98.1,191,100.9,191.1,103.7z"/>
	<path id="Caminho_2585" class="st10" d="M214.1,153.2c0.3,0.4,0.6,0.9,0.6,1.5c0.5,2.9,0.8,5.9,0.9,8.9c0,0.3,0,0.6,0.2,0.8
		c0.1,0.1,0.3,0.3,0.4,0.3c1.1,0.5,2.4-0.2,3.3-1c1.8-1.4,3-3.5,3.2-5.7c0-0.6,0-1.2,0.1-1.7c0.2-0.8,0.6-1.6,1.1-2.3
		c0.7-1.3,1.3-2.6,1.8-4c0.2-0.5,0.3-1.2-0.1-1.6c-0.1-0.1-0.3-0.2-0.5-0.3l-5-1.8c-0.4-0.2-1.5,2.6-1.7,2.9
		c-0.3,0.7-0.9,1.2-1.7,1.3c-0.9,0.2-1.9-0.1-2.7,0.3C212.6,151.5,213.3,152.4,214.1,153.2z"/>
	<path id="Caminho_2586" class="st10" d="M206.4,154.9c-0.1-0.2-0.2-0.3-0.4-0.5c-0.2-0.1-0.5-0.2-0.8-0.3c-0.9-0.2-2.1-0.3-2.7,0.4
		c-0.6,0.7-0.5,1.7-1,2.5c-0.2,0.2-0.4,0.4-0.5,0.7c-0.2,0.4-0.3,0.8-0.2,1.2c0,1.1-0.1,2.3,0,3.4c0,1,0.3,1.9,0.8,2.7
		c1,1.2,2.7,1.4,4.2,1.5l1.2,0.1c0.3,0,0.7,0,1-0.1c0.4-0.2,0.7-0.5,0.9-1c0.6-1.6-0.4-3.3-1-5C207.3,158.7,207.4,156.6,206.4,154.9
		z"/>
	<path id="Caminho_2587" class="st1" d="M196.1,36.2c0-0.2,0-0.3,0.1-0.5c0.2-0.3,0.7-0.2,1-0.1c1.4,0.4,3,0,4.5,0.1
		s3.2,0.8,3.5,2.3c1.1-0.8,2-1.7,2.7-2.8c0.5-0.6,0.7-1.3,0.7-2.1c-0.2-1.1-0.9-2-1.8-2.5l-2.5-2c-0.3-0.3-0.7-0.5-1.1-0.7
		c-0.6-0.1-1.2-0.2-1.8-0.1c-1.8,0-3.7-0.8-5.3,0c-0.6,0.4-1.2,0.9-1.7,1.5l-2.2,2.6c-0.2,0.2-0.3,0.4-0.4,0.6c0,0.3,0,0.6,0.2,1
		c0.1,0.6-0.1,1.2,0,1.8c0.3,0.9,1.5,1.1,2.1,1.6c0.3,0.2,0.7,0.9,1,0.9C195.7,37.6,196.1,36.6,196.1,36.2z"/>
	<circle id="Elipse_333" class="st8" cx="199.8" cy="36.8" r="7.1"/>
	<path id="Caminho_2588" class="st1" d="M201.5,52.3c-0.5-1.4-1.8-2.3-3.3-2.3c-0.2,0-0.4,0-0.6-0.1c-0.1-0.1-0.2-0.2-0.3-0.3
		c-0.4-0.8-0.8-1.6-1-2.4c-0.1-0.4-0.3-0.8-0.6-0.9c-0.3,0-0.6,0.1-0.8,0.4c-0.2,0.3-0.4,0.5-0.6,0.7c-0.9,0.8-2.5,0.1-3.4,0.8
		c-0.2,0.1-0.3,0.3-0.4,0.4c-0.2,0.1-0.3,0.2-0.5,0.2c-1.8,0.6-3.6,1.3-5.4,2.1c0.5,3.8,1.4,7.6,2.7,11.2c0.7,1.7,1.5,3.3,2.1,5.1
		c1.2,3.9,1.3,8,1.3,12c0.2,2.8-0.1,5.5-0.9,8.2c-0.2,0.6-0.4,1.2-0.5,1.8c-0.1,0.6,0.1,1.3,0.6,1.7c0.3,0.2,0.6,0.3,1,0.3
		c1.6,0.1,3.1-0.1,4.6-0.5c4.1-0.9,8.3-1.5,12.4-2l7-0.9c0.5,0,1-0.2,1.4-0.4c1.3-0.7,1.4-2.6,0.6-3.8c-0.4-0.5-0.9-1.1-1.2-1.7
		c-0.4-0.6-0.3-1.4,0.2-1.9c1.1-0.9,0.8-2.5,0.8-3.9c0.1-4,0.1-7.9-0.1-11.9c-0.1-0.8-0.1-1.6,0-2.5c0.1-1.4,0.4-2.8,0.8-4.1
		l2.1-8.4c-0.6-0.9-1.6-1.5-2.6-1.7c-1-0.3-2.1-0.3-3-0.6c-2-0.6-3.8-2.2-6-2.1c-0.2,0-0.3,0-0.5,0.1c-0.5,0.3-0.4,1-0.4,1.5
		c-0.2,1.2-0.9,2.3-1.9,2.9c-1,0.6-2,1.3-3,2C201.7,51.5,201.5,51.9,201.5,52.3z"/>
	<path id="Caminho_2589" class="st8" d="M173.4,60.3c-0.5,0.3-1,0.6-1.5,0.8c-0.5,0.2-1,0.4-1.4,0.7c-0.2,0.2-0.4,0.4-0.5,0.6
		c-0.7,1.3-0.3,3,1,3.7c0.4,0.3,1,0.4,1.5,0.3c0.6-0.1,1.3-0.3,1.9-0.6l5-2.2c0.9-0.3,1.7-0.8,2.2-1.6c0-0.1,0.1-0.2,0-0.3
		c0-0.1-0.1-0.2-0.2-0.2c-1.1-0.7-2.1-1.7-2.9-2.7c-0.2-0.3-0.5-0.9-0.7-1.1C176.7,57.1,174.3,59.7,173.4,60.3z"/>
	<path id="Caminho_2590" class="st8" d="M226.8,58.5l1.8,2.1c0.4,0.5,0.8,0.9,1.2,1.4c0.9,1.2,1.6,2.6,2.1,4c0.5,1,0.7,2.2,0.6,3.3
		c-0.1,0.6-0.2,1.1-0.5,1.7c-0.3,1-0.8,2-1.3,3c-0.4,0.7-0.9,1.4-1.4,2.1c-1.4,1.9-3,3.7-4.7,5.3c-0.6,0.7-1,1.6-1.2,2.5
		c-0.6,1.5-1.6,2.9-2.9,3.9c-0.4,0.4-0.8,0.7-1.2,1.1c-0.7,0.4-1.4,0.7-2.2,0.6c-0.3,0-0.7-0.1-1-0.2c-0.8-0.5-1.3-1.3-1.3-2.2
		c-0.1-0.8,0.1-1.6,0.4-2.3c1.1-2.3,3.8-3.4,5.7-5.1c1.1-1,2-2.2,2.8-3.5c0.6-0.8,1.1-1.6,1.4-2.5c0.4-1.1,0.3-2.5,0.6-3.7
		c0.2-0.5,0.4-0.9,0.6-1.4c0.2-0.5,0.2-1-0.1-1.5c-0.2-0.3-0.5-0.5-0.8-0.6c-1.2-0.6-2.6-1.4-2.8-2.8c-0.1-0.8,0.1-1.5,0.5-2.1
		c0.4-0.6,1-1.1,1.5-1.6C225.4,59.5,226.3,59,226.8,58.5z"/>
	<path id="Caminho_2591" class="st8" d="M172.3,63.2c-0.3-0.7-0.8-1.3-1.4-1.7c-0.6-0.3-1.4-0.3-2,0c-0.6,0.3-1.2,0.6-1.8,1.1
		l-1.6,1.2c-0.4,0.2-0.7,0.5-0.9,0.9c-0.3,0.4-0.4,0.9-0.5,1.3c-0.3,1.1-0.4,2.2-0.2,3.3c0.4,1.8,1.2,3.4,2.5,4.7
		c0.7,0.9,1.7,1.6,2.8,1.7c0.5,0.1,1-0.2,1.2-0.6c0.1-0.2,0.1-0.4,0.1-0.6c0-2-0.5-4-1.4-5.8c-0.3-0.5-0.4-1-0.5-1.5
		c0-0.1,0-0.2,0.1-0.3c0.1-0.1,0.2-0.1,0.3-0.1c1.1-0.2,3.1,0.7,3.9-0.6C173.3,65.5,172.6,63.9,172.3,63.2z"/>
	<path id="Caminho_2592" class="st1" d="M195.7,34c0-0.2,0-0.3,0.1-0.5c0.2-0.3,0.7-0.2,1-0.1c1.4,0.4,3,0,4.5,0.1s3.2,0.8,3.5,2.3
		c1.1-0.8,2-1.7,2.7-2.8c0.5-0.6,0.7-1.3,0.7-2.1c-0.2-1.1-0.9-2-1.8-2.5l-2.5-2c-0.3-0.3-0.7-0.5-1.1-0.7c-0.6-0.1-1.2-0.2-1.8-0.1
		c-1.8,0-3.7-0.8-5.3,0c-0.6,0.4-1.2,0.9-1.7,1.5l-2.2,2.6c-0.2,0.2-0.3,0.4-0.4,0.6c0,0.3,0,0.6,0.2,1c0.1,0.6-0.1,1.2,0,1.8
		c0.3,0.9,1.5,1.1,2.1,1.6c0.3,0.2,0.7,0.9,1,0.9C195.3,35.4,195.7,34.4,195.7,34z"/>
	<path id="Caminho_2593" class="st1" d="M180.7,53.4c-0.3,0.2-0.5,0.4-0.7,0.7c-0.3,0.4-0.3,0.9-0.5,1.3c-0.5,0.9-1.6,1.2-2.3,1.9
		c-0.1,0.1-0.2,0.2-0.2,0.4c0,0.2,0.1,0.4,0.2,0.5l3.4,5.3c1.1,0.1,2.2-0.6,3.3-0.5c0.4,0.1,0.8,0.1,1.2,0.1
		c0.3-0.1,0.6-0.3,0.8-0.5c0.7-0.4,1.6-0.5,2.1-1c0.5-0.6,0.7-1.4,0.6-2.1c0-0.7-0.1-1.3-0.2-2c-0.5-2-2-3.6-3-5.4
		c-0.5-0.9-0.7-1.4-1.7-0.8S181.6,52.7,180.7,53.4z"/>
	<path id="Caminho_2594" class="st1" d="M221.4,50.7c0.6,0.4,1.2,0.9,1.7,1.5c0.5,0.7,0.8,1.5,1.3,2.1c0.5,0.6,1.1,1.2,1.7,1.8
		c0.8,1,1.4,2,1.9,3.1c-1.3,1.7-2.8,3.4-4.3,4.9c-0.2,0.2-0.4,0.4-0.7,0.4c-0.4,0-0.7-0.1-0.9-0.4c-0.2-0.3-0.4-0.6-0.6-0.8
		c-0.5-0.6-1.3-0.9-2.1-1c-0.8-0.1-1.6-0.1-2.3,0c-0.2,0-0.3,0-0.5-0.1c-0.1-0.1-0.2-0.2-0.3-0.3c-0.9-1.5-0.6-3.5-0.3-5.3l0.7-4
		c0.1-0.8,0.3-1.5,0.6-2.3c0.3-0.6,0.9-1.6,1.7-1.4S220.8,50.2,221.4,50.7z"/>
	<ellipse id="Elipse_334" class="st11" cx="86.8" cy="66.1" rx="11.2" ry="11.2"/>
	<path id="Caminho_2595" class="st12" d="M86.8,53c-7.4,0-13.4,6-13.4,13.4s6,13.4,13.4,13.4s13.4-6,13.4-13.4l0,0
		C100.2,59,94.2,53,86.8,53z M84,73.5l-6.9-6.9l1.9-1.9l4.9,4.9l10.4-10.4l1.9,1.9L84,73.5L84,73.5z"/>
</g>
</svg>
