<?xml version="1.0" encoding="utf-8"?>
<!-- Generator: Adobe Illustrator 25.0.1, SVG Export Plug-In . SVG Version: 6.00 Build 0)  -->
<svg version="1.1" id="Camada_1" xmlns="http://www.w3.org/2000/svg" xmlns:xlink="http://www.w3.org/1999/xlink" x="0px" y="0px"
	 viewBox="0 0 342 238.2" style="enable-background:new 0 0 342 238.2;" xml:space="preserve">
<style type="text/css">
	.st0{fill:#F86464;}
	.st1{opacity:0.1;fill:#F86464;enable-background:new    ;}
	.st2{fill:url(#Caminho_659_1_);}
	.st3{fill:#444176;}
	.st4{opacity:0.1;enable-background:new    ;}
	.st5{fill:#565387;}
	.st6{opacity:0.1;}
	.st7{fill:#CED2DF;}
	.st8{fill:#88455E;}
	.st9{fill:#EC8C9C;}
	.st10{fill:#EBF1F6;}
	.st11{fill:url(#Caminho_693_1_);}
	.st12{fill:url(#Caminho_694_1_);}
	.st13{fill:#FFBDC6;}
	.st14{fill:#7679B4;}
	.st15{fill:#A66477;}
	.st16{fill:#F2F1F2;}
	.st17{fill:#565388;}
	.st18{fill:url(#Caminho_725_1_);}
	.st19{fill:#493545;}
	.st20{opacity:5.000000e-02;enable-background:new    ;}
	.st21{fill:#3E3D77;}
	.st22{fill:#C77485;}
	.st23{fill:#FFAAC4;}
	.st24{fill:none;stroke:#535461;stroke-width:2;stroke-miterlimit:10;}
	.st25{opacity:0.5;fill:#DEE3F3;enable-background:new    ;}
	.st26{fill:none;stroke:#F86464;stroke-miterlimit:10;}
	.st27{fill:#A8A8A8;}
	.st28{opacity:0.2;enable-background:new    ;}
	.st29{fill:#FFD037;}
</style>
<g id="Grupo_549" transform="translate(0.02 -0.02)">
	<circle id="Elipse_104" class="st0" cx="34.2" cy="23.8" r="16.7"/>
	<path id="Caminho_658" class="st1" d="M32.2,57.9c7,15.9-1.9,34.2-12.5,47.9c-3.5,4.6-7.4,9.5-7.9,15.2c-0.6,7.1,4.2,13.6,9.9,17.8
		c10.6,7.8,24.3,10.1,36.9,6.2c10.7-3.4,19.6-11,30.4-14.1c18-5.2,37.1,3.4,52.5,14c10.9,7.5,22.6,16.7,35.8,15.1
		c9.3-1.1,17.1-7.6,22.4-15.3c2.6-3.7,4.8-7.8,8.6-10.3c2.3-1.4,4.8-2.4,7.5-2.8c23.9-5.1,49.3,7.4,72.9,0.9
		c15.9-4.3,28.6-16.9,36.5-31.4s11.6-30.9,14.7-47.1c2.2-11.5,4-24-1-34.6c-5.3-11.2-17.6-18-29.9-19.3s-24.7,2.2-36.1,7.2
		c-14.2,6.2-28.1,14.9-43.7,14.9c-10.6,0-20.6-4-30.7-7.1c-16.9-5.2-34.4-7.7-51.9-10.1c-16.8-2.3-33.7-4.4-50.5-3
		c-11.9,0.9-22.5,5.5-34,7.6c-7.5,1.4-15.1,0.4-22.5,2.7c-9.1,2.9-18.5,9.5-19,19.9C19.8,42.2,28.5,49.4,32.2,57.9z"/>
	
		<linearGradient id="Caminho_659_1_" gradientUnits="userSpaceOnUse" x1="-779.8168" y1="656.2023" x2="-779.8168" y2="657.2023" gradientTransform="matrix(102.2955 0 0 -149.0587 79937.5391 98008.4375)">
		<stop  offset="0" style="stop-color:#808080;stop-opacity:0.251"/>
		<stop  offset="0.54" style="stop-color:#808080;stop-opacity:0.122"/>
		<stop  offset="1" style="stop-color:#808080;stop-opacity:0.102"/>
	</linearGradient>
	<path id="Caminho_659" class="st2" d="M216.7,72c-1.5-4-5.5-13.4-8.1-11.6c-3.3,2.4,3.3,12.8,3.3,12.8c0.2,1.9-3.5,5.9-5.5,7.9
		v-0.2c0,0.1,0,0.1-0.1,0.2l-0.2-0.1c0,0.2-0.1,0.3-0.2,0.4c0-0.1,0-0.3,0-0.4c-0.4,1.6-7,3.7-7,3.7h-0.5c-1.9,0-6.7-0.4-8.9-4
		c-1.2-1.9-2.6-3.7-4.4-5.1c-0.6-0.5-1.3-0.7-2.1-0.8c-4.3-0.4-8.5-1.8-12.2-4.2l-0.2-0.1l0,0.1c-0.2-0.3-0.5-0.7-0.7-1.1l0,0
		l-0.1-0.2c3-1.5,5-4.6,5-8v-0.2c0.5-0.9,0.8-2,0.8-3.1v-1.1l1.4-1.2c0.7-0.5,1.2-1.2,1.6-2c0.1-0.3,0.2-0.7,0.2-1
		c0.1-0.6-0.2-1.2-0.7-1.6c-1.1-0.7-2.9,0-3.7-1c-0.4-0.5-0.3-1.1-0.5-1.7c-0.5-1.1-1.6-1.8-2.9-1.7c-1.2,0.1-2.4,0.3-3.5,0.7
		c-2.4,0.7-4.9,0.9-7.5,0.7c-0.7-0.1-1.4-0.1-2,0.1c-0.8,0.3-1.4,1.1-1.7,1.9c-0.1,0.3-0.1,0.7-0.2,1c-1,1.1-1.6,2.6-1.6,4.1V58
		c0,1.5,0.5,2.9,1.5,4c0.2,2.6,1.6,5,3.8,6.6v0.2l0,0c-0.1,0.9-0.2,1.7-0.4,2.5v-0.2c-3.3,1.6-6.8,2.6-10.4,2.7h-0.6
		c-1.1,0-2.1,0.4-2.9,1.1c-1.6,1.5-4.4,3.9-6.1,3.9c-0.4,0-9.4,1.8-11,2.1l-2.8-2.8l-0.1,0.2l-0.2-0.2c-0.3,0-0.6,0.1-0.9,0.1
		c-2.7-3.1-4.4-6.9-5-11c0,0,6.2-7.1,3.9-13.7c-2-5.6-7.3,6.4-8.9,10.1c-0.3,0.6-0.3,1.3-0.1,2l5.1,16.3c-0.5,1.3-0.6,2.6-0.4,4
		h-0.1l3.7,4.7c2.3,0.8,4.7,1.2,7.1,1.2c3.2,0,6.3-0.6,9.3-1.8h0.9l-0.2,0.1h4.4l2.8,8.4c-0.1,0.8-1.4,11.5-2.5,13.9
		c-0.3,0.8-0.5,1.7-0.4,2.5c0.1,1.7,0.3,3.3,0.8,4.9l2.4-0.1l-0.1,0.2c-3,6.1-5.5,12.4-7.6,18.8l-3.6,7.2l2.7,32.3h0.1l0.2,0l0,0
		c0.3,0,0.7,0.1,1.3,0.2l-0.2,0.4l-5.9,9.7c0,0-4.2,8.6,5.1,7c0,0,3.4-1,4.8-6.8l6.1-5.7c0,0,0.3-3.8-1.4-5.3
		c-0.1-1.8-0.4-6.9,0-8.1c0.5-1.5-2.2-18.6-2.2-18.6s9.6-20,15.5-20.5c0.4,0,0.9,0,1.3,0.2c4.8,1.6,10.6,13.2,12.3,16.8l0,0l0.1,0.2
		v0l0.1,0.1v0l0.1,0.1v0l0,0.1v0l0,0.1v0l0,0.1v0l0,0v0.1l0,0l0,0l0.8,22.5l0,0l0.1,0h0l-0.1,0.5l-0.3,2.3c0,0,4.2,8.8,3.9,9.9
		s2.8,5.6,7.1,4.4s1.7-8.2,1.7-8.2l-4.2-8.6l-0.2-0.4c0.4-0.3,0.8-0.5,1.2-0.9c0,0-1.3-9.2,0-11.2s1.6-11.1,1.6-11.1
		s-0.9-6.2-2.4-8.9l-6.4-22.8c1.9,1.8,3.4,2.5,4.6,2.4h0.2c0.5,0,1.1-0.1,1.6-0.4c0.3-0.1,0.5-0.3,0.7-0.5c0,0,0.1-0.1,0.1-0.1l0,0
		c1.8-1.5-2-7.3-4.2-10.8c-2.1-3.3,0.8-12.4,1-13.1c0.2-0.1,0.4-0.3,0.6-0.4c0.4-0.2,0.9-0.3,1.4-0.3c2.1,0.1,4.6,1.3,7.8,1.9
		c2.2,0.4,4.4,0.5,6.6,0.5h0.1c0.9,0,1.7,0,2.3,0c0.6,0,1.2-0.2,1.7-0.5l0,0c0.4-0.3,0.9-0.6,1.2-1l5.5-6.2l-0.1,0.1
		c0.3-0.7,0.3-1.5,0-2.2l5.8-10.1C217,74.3,217.1,73.1,216.7,72z"/>
	<path id="Caminho_660" class="st3" d="M151.1,182.2l-5.9,5.6c-1.3,5.8-4.7,6.7-4.7,6.7c-8.9,1.6-4.9-6.8-4.9-6.8l5.7-9.6l0.7-1.2
		c0,0,4-1.2,6.7-0.5c0.3,0.1,0.7,0.3,0.9,0.5C151.4,178.4,151.1,182.2,151.1,182.2z"/>
	<path id="Caminho_661" class="st3" d="M187.4,187.2c-4.2,1.2-7.1-3.2-6.8-4.3s-3.8-9.8-3.8-9.8l0.3-2.3l0.3-2.1l6.8,0.5l0.6,1.4
		l4,8.4C188.9,179,191.6,186,187.4,187.2z"/>
	<path id="Caminho_662" class="st4" d="M149.8,177.9c-0.6,1.1-5.9,0.5-8.4,0.2l0.7-1.2c0,0,4-1.2,6.7-0.5c0.3,0.1,0.7,0.3,0.9,0.5
		C149.8,177.5,149.8,177.9,149.8,177.9z"/>
	<path id="Caminho_663" class="st4" d="M184.8,170.5c-2.4,1.5-5.3,1.6-7.8,0.3l0.3-2.1l6.8,0.5L184.8,170.5z"/>
	<path id="Caminho_664" class="st5" d="M185.8,158.3c-1.2,2,0,11,0,11c-4,3.7-8.8,1-8.8,1l-0.7-22.2c0,0-8-18.3-13.6-17.8
		s-14.9,20.2-14.9,20.2s2.6,16.9,2.1,18.4s0,8.6,0,8.6c-0.9,1.5-9.8,0-9.8,0l-2.6-31.8l3.4-7.1c1.9-6.4,4.4-12.6,7.3-18.6
		c1-2.1,1.7-3.3,1.7-3.3l6.5-1.4l21.2-4.4l7.6,27.7c1.5,2.7,2.3,8.8,2.3,8.8S187,156.3,185.8,158.3z"/>
	<g id="Grupo_543" transform="translate(137.422 110.871)" class="st6">
		<path id="Caminho_665" d="M41.5,59.4l-0.7-22.2c0,0-8-18.3-13.6-17.8c-0.3,0-0.5,0.1-0.7,0.2c5.5,1.8,12.4,17.6,12.4,17.6
			l0.7,22.2c1.5,0.8,3.2,1.1,4.9,0.9C43.4,60.2,42.4,59.9,41.5,59.4z"/>
		<path id="Caminho_666" d="M4.5,66.6L2,34.8l3.4-7.1c1.9-6.4,4.4-12.6,7.3-18.6c1-2.1,1.7-3.3,1.7-3.3l6.5-1.4l19.3-4L40.1,0
			L18.9,4.4l-6.5,1.4c0,0-0.7,1.3-1.7,3.3c-2.9,6-5.4,12.2-7.3,18.6L0,34.8l2.6,31.8c2.6,0.4,5.2,0.6,7.8,0.6
			C8.4,67.2,6.5,66.9,4.5,66.6z"/>
	</g>
	<path id="Caminho_667" class="st7" d="M127.1,78.9c0,0-7,0.4-6,7.7l2,0.2l2.9-3.2l1.5-2.7v-0.6L127.1,78.9z"/>
	<path id="Caminho_668" class="st4" d="M127.1,78.9c0,0-7,0.4-6,7.7l2,0.2l2.9-3.2l1.5-2.7v-0.6L127.1,78.9z"/>
	<path id="Caminho_669" class="st7" d="M204.7,81.6c0,0,5.8,3.1,4.3,6.6l-1.8,0.7l-2.4-1.3l-0.4-3.2l0.2-2.2L204.7,81.6z"/>
	<path id="Caminho_670" class="st4" d="M204.7,81.6c0,0,5.8,3.1,4.3,6.6l-1.8,0.7l-2.4-1.3l-0.4-3.2l0.2-2.2L204.7,81.6z"/>
	<path id="Retângulo_454" class="st8" d="M162.8,49.9h4.9c4.2,0,7.6,3.4,7.6,7.6l0,0c0,4.2-3.4,7.6-7.6,7.6h-4.9
		c-4.2,0-7.6-3.4-7.6-7.6l0,0C155.2,53.3,158.6,49.9,162.8,49.9z"/>
	<path id="Caminho_671" class="st9" d="M127,79.9l-4.3,6.8l-0.4-1.2l-5.8-19c-0.2-0.6-0.2-1.3,0.1-2c1.5-3.6,6.7-15.5,8.5-9.9
		c2.2,6.5-3.8,13.5-3.8,13.5c0.6,4.2,2.4,8.1,5.1,11.2C126.8,79.7,127,79.9,127,79.9z"/>
	<path id="Caminho_672" class="st9" d="M203.8,82.8c0,0,6.7-6.4,6.5-8.9c0,0-6.4-10.3-3.2-12.6c2.5-1.8,6.3,7.4,7.8,11.4
		c0.4,1.1,0.3,2.3-0.3,3.2l-8.1,14.3L203.8,82.8z"/>
	<path id="Caminho_673" class="st9" d="M160.2,65.1c0,0,1.2,7.8-2.3,10.8s10.2,2.9,10.2,2.9l4.9-4.5c0,0-5.6-5.3-3.9-9.2L160.2,65.1
		z"/>
	<path id="Caminho_674" class="st4" d="M160,74c3.2,2.3,7.5,2.1,10.5-0.5l8.6,17.8l-0.5,21.7c0,0-17.8,9.2-25.1,3.6
		s-1.2-8.6-1.2-8.6l-1.7-16.7l1.8-10.8c0,0,3.3-5.1,3.6-5.1S160,74,160,74z"/>
	<path id="Caminho_675" class="st10" d="M160,73.8c3.2,2.3,7.6,2.1,10.5-0.5l8.6,17.8l-0.5,21.7c0,0-17.8,9.2-25.1,3.6
		s-1.2-8.6-1.2-8.6l-1.7-16.7l1.8-10.8c0,0,3.3-5.1,3.6-5.1S160,73.8,160,73.8z"/>
	<path id="Caminho_676" class="st4" d="M160,71.9c-3.2,1.7-6.8,2.6-10.4,2.7c-1,0-2,0.3-2.8,1.1c-1.5,1.5-4.2,3.8-5.9,3.8
		c-0.4,0-10.8,2.1-10.8,2.1l-2.8-2.8c0,0-4.1,8-6.1,7.7l3.6,4.7c0,0,6.7,2.9,15.6-0.6h5.1l2.7,8.3c0,0-1.3,11.3-2.4,13.7
		s0.4,7.2,0.4,7.2l9.7-0.4c0,0,0.5-4.8,1.2-5.4s-2.6-21.7-2.6-21.7s-2.2-11.9,5.9-16.2L160,71.9z"/>
	<path id="Caminho_677" class="st4" d="M156.3,115.3c-0.4,1.5-0.6,2.9-0.8,4.4l-7.4,0.3c1-2.1,1.7-3.3,1.7-3.3L156.3,115.3z"/>
	<path id="Caminho_678" class="st4" d="M127,79.9l-4.3,6.8l-0.4-1.2c1.6-1.9,3-4,4.2-6.2C126.7,79.5,126.8,79.7,127,79.9z"/>
	<path id="Caminho_679" class="st7" d="M160,71.9c-3.3,1.7-6.9,2.6-10.7,2.7c-1,0-2,0.3-2.8,1.1c-1.5,1.5-4.2,3.8-5.9,3.8
		c-0.4,0-10.8,2.1-10.8,2.1l-2.8-2.8c0,0-4.1,8-6.1,7.7l3.6,4.7c0,0,6.7,2.9,15.6-0.6h5.1l2.7,8.3c0,0-1.3,11.3-2.4,13.7
		s0.4,7.2,0.4,7.2l9.7-0.4c0,0,0.5-4.8,1.2-5.4s-2.6-21.7-2.6-21.7s-2.2-11.9,5.9-16.2L160,71.9z"/>
	<path id="Caminho_680" class="st4" d="M170.5,71.2c3.4,2.4,7.5,3.9,11.7,4.2c0.7,0,1.4,0.3,2,0.8c1.7,1.4,3.1,3.1,4.2,5
		c2.7,4.4,9.3,3.9,9.3,3.9s6.4-2,6.8-3.6c0,0,0.2,8.6,4.2,6.6l-5.3,6.1c-0.7,0.8-1.6,1.3-2.7,1.3c-2.8,0.1-5.6,0-8.4-0.5
		c-4.4-0.9-7.6-2.9-9.9-1.1c0,0-3.1,9.6-1,13s5.8,9.2,4,10.7s-3.8,1.3-7.2-2.2s-3.8-9.6-3.8-9.6l0.9-15.4c0,0-3.3-11.6-6.5-14
		L170.5,71.2z"/>
	<path id="Caminho_681" class="st4" d="M209.2,88l-5.3,6.2c-0.4,0.4-0.8,0.7-1.3,1l0,0c-0.4,0.2-0.9,0.3-1.4,0.3
		c-2.8,0.1-5.6,0-8.4-0.5c-4.1-0.8-7.2-2.7-9.5-1.4c-0.2,0.1-0.3,0.2-0.5,0.3c0,0-3.1,9.6-1,13s5.8,9.2,4,10.7
		c-0.3,0.3-0.6,0.5-1,0.6c-1.5,0.7-3.5,0.1-6.3-2.8c-3.4-3.6-3.8-9.6-3.8-9.6l0.9-15.4c0,0-3.3-11.6-6.5-14l1.4-5
		c3.5,2.3,7.5,3.7,11.7,4.1c0.7,0,1.4,0.3,2,0.8c1.7,1.4,3.1,3.1,4.2,5c2.7,4.4,9.3,3.9,9.3,3.9c1.6-0.5,3.1-1.1,4.6-1.8l0,0
		c0.8-0.3,1.5-0.8,2.2-1.4c0.1-0.1,0.2-0.3,0.2-0.4C205,81.5,205.2,90.1,209.2,88z"/>
	<path id="Caminho_682" class="st7" d="M208.9,88.1l-5.3,6.2c-0.3,0.3-0.6,0.6-1,0.8l0,0c-0.5,0.3-1.1,0.4-1.6,0.5
		c-2.8,0.1-5.6,0-8.4-0.5c-4-0.8-7-2.5-9.2-1.5c-0.3,0.1-0.5,0.3-0.7,0.4c0,0-3.1,9.6-1,13s5.8,9.2,4,10.7c-0.2,0.2-0.5,0.4-0.7,0.5
		c-1.6,0.9-3.5,0.4-6.5-2.7c-3.4-3.6-3.8-9.6-3.8-9.6l0.9-15.4c0,0-3.3-11.6-6.5-14l1.5-5.3l0.2,0.1c3.5,2.3,7.5,3.7,11.7,4.1
		c0.7,0,1.4,0.3,2,0.8c1.7,1.4,3.1,3.1,4.2,5c2.7,4.4,9.3,3.9,9.3,3.9c1.6-0.5,3.1-1.1,4.6-1.8l0,0c1.1-0.6,2-1.2,2.2-1.8v0.3
		C204.8,83.4,205.4,89.9,208.9,88.1z"/>
	<path id="Caminho_683" class="st4" d="M169.1,65.3h-9c0.2,1.4,0.3,2.9,0.2,4.3c2.8,2,6.5,2.2,9.5,0.7
		C168.9,68.7,168.4,66.9,169.1,65.3z"/>
	<circle id="Elipse_105" class="st9" cx="165.6" cy="62.1" r="8.9"/>
	<path id="Caminho_684" class="st4" d="M163.7,60.5c1-0.2,2-0.3,3-0.3c0.9,0.2,1.7,0.8,2.5,1c1.7,0.4,3.3-0.9,4.6-2.1l2.8-2.6
		c0.7-0.5,1.2-1.2,1.6-1.9c0.4-0.8,0.2-1.7-0.5-2.3c-1-0.7-2.8,0-3.5-1c-0.2-0.5-0.4-1.1-0.5-1.6c-0.5-1.1-1.6-1.8-2.8-1.7
		c-1.2,0.1-2.3,0.3-3.4,0.7c-2.3,0.7-4.8,0.9-7.2,0.7c-0.7-0.1-1.3-0.1-2,0.1c-0.8,0.3-1.4,1-1.6,1.9c-0.6,2,0.4,5.1,1.3,6.9
		S161.8,60.8,163.7,60.5z"/>
	<path id="Caminho_685" class="st8" d="M163.7,60.3c1-0.2,2-0.3,3-0.3c0.9,0.2,1.7,0.8,2.5,1c1.7,0.4,3.3-0.9,4.6-2.1l2.8-2.6
		c0.7-0.5,1.2-1.2,1.6-1.9c0.4-0.8,0.2-1.7-0.5-2.3c-1-0.7-2.8,0-3.5-1c-0.2-0.5-0.4-1.1-0.5-1.6c-0.5-1.1-1.6-1.8-2.8-1.7
		c-1.2,0.1-2.3,0.3-3.4,0.7c-2.3,0.7-4.8,0.9-7.2,0.7c-0.7-0.1-1.3-0.1-2,0.1c-0.8,0.3-1.4,1-1.6,1.9c-0.6,2,0.4,5.1,1.3,6.9
		S161.8,60.5,163.7,60.3z"/>
	<path id="Caminho_686" class="st4" d="M148.1,98.9c1.1,0.1,2.1,0.7,2.9,1.5c0.7,0.8,1.7,1.3,2.7,1.6"/>
	<path id="Caminho_687" class="st4" d="M130.5,82.8c0,0,1.6,3.6,0.6,3.9s-0.6,2.9-0.6,2.9"/>
	<g id="Grupo_544" transform="translate(130.937 71.998)" class="st6">
		<path id="Caminho_688" d="M0.1,9.6c0,0,10.4-2.1,10.8-2.1c1.7,0,4.4-2.3,5.9-3.8c0.5-0.5,1-0.8,1.7-0.9h-0.1c-1,0-2,0.3-2.8,1.1
			C14,5.2,11.3,7.6,9.7,7.6c-0.3,0-7,1.3-9.7,1.9L0.1,9.6z"/>
		<path id="Caminho_689" d="M29,0.5V0c-2.5,1.3-5.2,2.1-8,2.6C23.8,2.3,26.5,1.6,29,0.5L29,0.5z"/>
		<path id="Caminho_690" d="M16.2,47.8c0,0-1.5-4.8-0.4-7.2s2.4-13.7,2.4-13.7l-2.7-8.3h-5.2l-0.3,0.1h4.2l2.7,8.3
			c0,0-1.3,11.3-2.4,13.7s0.4,7.2,0.4,7.2l9.7-0.4v-0.1L16.2,47.8z"/>
	</g>
	<g id="Grupo_545" transform="translate(174.768 88.111)" class="st6">
		<path id="Caminho_691" d="M11,27.6c-0.2,0.2-0.5,0.4-0.7,0.5c-1.6,0.9-3.5,0.4-6.5-2.7c-2.7-2.8-3.5-7.2-3.7-8.9L0,17.8
			c0,0,0.4,6,3.8,9.6c3,3.1,4.9,3.6,6.5,2.7c0.3-0.1,0.5-0.3,0.7-0.5c0.5-0.4,0.5-1.3,0.3-2.3C11.2,27.3,11.1,27.5,11,27.6z"/>
		<path id="Caminho_692" d="M32.4,0.2l-3.5,4c-0.3,0.3-0.6,0.6-1,0.8l0,0c-0.5,0.3-1.1,0.4-1.6,0.5c-2.8,0.1-5.6,0-8.4-0.5
			c-4-0.8-7-2.5-9.2-1.5C8.4,3.6,8.2,3.7,8,3.9c0,0-2,6.2-1.7,10.4C6.6,11.4,7.1,8.6,8,5.9c0.2-0.2,0.5-0.3,0.7-0.4
			c2.3-1,5.2,0.8,9.2,1.5c2.8,0.5,5.6,0.6,8.4,0.5c0.6,0,1.1-0.2,1.6-0.5l0,0c0.4-0.2,0.7-0.5,1-0.8L34.3,0
			C33.8,0.3,33.1,0.4,32.4,0.2L32.4,0.2z"/>
	</g>
	
		<linearGradient id="Caminho_693_1_" gradientUnits="userSpaceOnUse" x1="1614.8976" y1="-4712.7974" x2="1614.8976" y2="-4711.7832" gradientTransform="matrix(0.328 0 0 -7.818604e-02 -478.9001 -236.0036)">
		<stop  offset="0" style="stop-color:#808080;stop-opacity:0.251"/>
		<stop  offset="0.54" style="stop-color:#808080;stop-opacity:0.122"/>
		<stop  offset="1" style="stop-color:#808080;stop-opacity:0.102"/>
	</linearGradient>
	<path id="Caminho_693" class="st11" d="M50.6,132.4c0.1,0.1,0.2,0.1,0.3,0C50.8,132.4,50.7,132.4,50.6,132.4z"/>
	
		<linearGradient id="Caminho_694_1_" gradientUnits="userSpaceOnUse" x1="-778.9374" y1="655.5274" x2="-778.9374" y2="656.5274" gradientTransform="matrix(91.8138 0 0 -120.2535 71563.1172 79004.3984)">
		<stop  offset="0" style="stop-color:#808080;stop-opacity:0.251"/>
		<stop  offset="0.54" style="stop-color:#808080;stop-opacity:0.122"/>
		<stop  offset="1" style="stop-color:#808080;stop-opacity:0.102"/>
	</linearGradient>
	<path id="Caminho_694" class="st12" d="M87.3,72.7c-0.6-0.2-1.6-0.5-2.7-0.9c1.2-1.5,2-3.2,2.5-5l-0.1,0c0-0.1,0.1-0.2,0.1-0.3
		c-2.1,0.9-4.5-0.6-6-2.5s-2.5-4.2-4.2-6c-0.7-0.7-1.4-1.3-2.2-1.9c-0.4-0.4-1-0.7-1.6-0.8c-1,0-1.7,0.9-2.6,1.2
		c-0.6,0.1-1.2,0.1-1.8-0.1C66.3,56,64,55,61.5,54.7c-1.3-0.2-2.6,0-3.9,0.4c-1.2,0.5-1.8,1.4-2.8,2.1c-1.1,0.8-3.2,0.8-4.4,0.9
		c-1.5,0.2-3.1,0.2-4.6,0.2c-0.9-0.1-1.8,0-2.6,0.1c-1.8,0.4-3.3,1.9-4.7,3.2c-0.4,0.3-0.6,0.7-0.8,1.2c0,0.1,0,0.3,0,0.4
		c0,0.4,0,0.7,0.2,1.1c0.4,1.2,1,2.4,1.8,3.5c0.6,0.8,1.1,1.6,1.5,2.5c0.2,0.5,0.2,1,0.2,1.4c0,0.5-0.1,1-0.2,1.5
		c-0.2,1.4-0.6,2.8-1.2,4.1c-0.3,0.7-0.6,1.4-0.7,2.2c0,0.2,0,0.3,0,0.5c-0.1,2.4,2.3,4.1,2.8,6.4c0,0.2,0.1,0.4,0.1,0.6
		c0,1.5-0.8,2.8-2.1,3.5c0.1,0,0.2,0.1,0.3,0.1c-0.1,0.1-0.2,0.1-0.3,0.2c0.2,0.1,0.5,0.2,0.7,0.2c-1.4,1.2-2.6,2.7-3.5,4.3
		C33.2,103.3,5,118.5,5,118.5l0.4,0.2l-0.3,0.2c-2.4,1.6-8.2,6.4-3,12.3c0,0,4-6.4,6.9-9.1c0.1-0.1,0.3-0.2,0.4-0.3
		c0.1,0.2,0.2,0.4,0.1,0.7L28,112.1c0,0,6.6-4.6,8.4-5.7c1.3-0.8,2.7-1.4,4.2-1.8l-0.2,0.1c0.7-0.2,1.4-0.3,2.1-0.3
		c3.3,0,6.8,2.5,8,12c1.6,12.8,0.8,15.1,0.3,15.4c-0.1,0-0.1,0-0.2,0c0,0,0,0,0.1,0c-0.1,0-0.1,0-0.2,0c0.1,0.1,0.2,0.1,0.3,0.1
		c0.1,0,0.1,0,0.2,0l0,0c0.1,0,0.2,0,0.2,0c0,0.1,0,0.2,0,0.4c0,0-0.1,0.1,0,0.1l0,0c0,0.7,0,1.5,0,2.3c-1.6,0.1-3.3,0.2-4.7,0.3
		l0.1-0.7l0.1-0.3c1.3-0.1,2.4-0.5,2.6-1.5c0.3-2.2-2.8-3.4-5.4-3.6s-18.2,0.9-18.2,0.9s-2.3,3,5.1,4l0.7,0.4c3.1,1.9,6,4,8.8,6.2
		l0.3,0.2l-0.9,0.7c4.6,1,9,18.6,11.5,26.6s7.8,7.7,12.3,6.5c4.2-1.1,4.7-13.2,4.7-14.7v-0.2l7.4,9.2l0.6,0.7
		c0.2,0.1,0.4,0.2,0.6,0.3c5.6,2.7,11.8-2.4,10-8.3c-1.8-5.9-4.5-14.6-6.4-18.3c-1.5-3.1-3.5-8.2-4.7-11.4c0.2-0.1,0.3-0.1,0.5-0.2
		c0,0,0-0.1-0.1-0.4l0.1,0c-1-5.2-1.6-10.5-1.9-15.8v-0.6c1.3-0.3,2.2-0.4,2.2-0.4l0-0.3l-0.2,0l0.7-8.5c0,0,2.7-5.8,0.6-8.2
		c-0.6-0.7-1.1-1.6-1.2-2.5c-0.4-2.2,0-5.9,4.9-9c7.5-4.8,10.4-8.6,10.4-8.6S91.9,74.1,87.3,72.7z M72.4,78.7v-3.9
		c1.4-0.1,2.8,0.1,4.2,0c0.7,0,1.4-0.2,2-0.3l0.3,0.2C76.9,76.2,74.7,77.5,72.4,78.7L72.4,78.7z M51.1,140.5
		c0.6,0.4,1.1,0.8,1.6,1.2c0.3,1.9,0.6,3.3,0.7,3.4C52.8,143.5,52,141.9,51.1,140.5L51.1,140.5z"/>
	<path id="Caminho_695" class="st13" d="M63,137.2l-0.3,1.8l-0.2,1.3l-0.5,2.5l-4.4,3.1c0,0-0.4-0.3-1.1-0.9
		c-2.7-2.2-5.4-4.3-8.4-6.1c-0.7-0.5-1.5-0.8-2.3-1.1L63,137.2z"/>
	<path id="Caminho_696" class="st4" d="M63,137.2l-0.3,1.8c-1,0.1-1.9,0-2.9-0.1L49.5,139c-0.5,0-0.9-0.1-1.4-0.1
		c-0.7-0.5-1.5-0.8-2.3-1.1L63,137.2z"/>
	<path id="Caminho_697" class="st14" d="M59.8,138.6c0,0,5.1,0.9,5.4-1.3s-2.6-3.4-5.1-3.5s-17.5,0.9-17.5,0.9s-2.6,3.5,6.9,4.1
		L59.8,138.6z"/>
	<path id="Caminho_698" class="st4" d="M63,137.2l-0.3,1.8l-0.2,1.3l-0.5,2.5l-4.4,3.1c0,0-0.4-0.3-1.1-0.9
		c-2.7-2.2-5.4-4.3-8.4-6.1c-0.7-0.5-1.5-0.8-2.3-1.1L63,137.2z"/>
	<path id="Caminho_699" class="st4" d="M63,137.2l-0.3,1.8c-1,0.1-1.9,0-2.9-0.1L49.5,139c-0.5,0-0.9-0.1-1.4-0.1
		c-0.7-0.5-1.5-0.8-2.3-1.1L63,137.2z"/>
	<path id="Caminho_700" class="st4" d="M59.8,138.6c0,0,5.1,0.9,5.4-1.3s-2.6-3.4-5.1-3.5s-17.5,0.9-17.5,0.9s-2.6,3.5,6.9,4.1
		L59.8,138.6z"/>
	<rect id="Retângulo_455" x="44.2" y="66.2" class="st15" width="26.8" height="31.8"/>
	<rect id="Retângulo_456" x="44.2" y="66.2" class="st4" width="26.8" height="31.8"/>
	<path id="Caminho_701" class="st13" d="M12.7,120.7c-0.6,0.3-1.2,0.6-1.6,1.2c-2.7,2.7-6.6,9-6.6,9c-5-5.9,0.5-10.6,2.9-12.2
		c0.6-0.4,1-0.6,1-0.6L12.7,120.7z"/>
	<path id="Caminho_702" class="st13" d="M62.7,76.3c0,0,1.3,9.2,5.9,11.4S62.7,94,62.7,94l-14.2-5.3c0,0,8.1-2.6,6.5-10.4L62.7,76.3
		z"/>
	<path id="Caminho_703" class="st13" d="M47.5,131.9l-0.3,1.8l-0.2,1.3l-0.5,2.5l-4.4,3.1c0,0-0.4-0.3-1.1-0.9
		c-2.7-2.2-5.4-4.3-8.4-6.1c-0.7-0.5-1.5-0.8-2.3-1.1L47.5,131.9z"/>
	<path id="Caminho_704" class="st4" d="M47.5,131.9l-0.3,1.8c-1,0.1-1.9,0-2.9-0.1L34,133.6c-0.5,0-0.9-0.1-1.4-0.1
		c-0.7-0.5-1.5-0.8-2.3-1.1L47.5,131.9z"/>
	<path id="Caminho_705" class="st14" d="M44.2,133.2c0,0,5.1,0.9,5.4-1.3s-2.6-3.4-5.1-3.5s-17.5,0.9-17.5,0.9s-2.6,3.5,6.9,4.1
		L44.2,133.2z"/>
	<path id="Caminho_706" class="st4" d="M46.9,135l-0.5,2.5l-4.4,3.1c0,0-0.4-0.3-1.1-0.9l5.8-4.8L46.9,135z"/>
	<path id="Caminho_707" class="st14" d="M75.9,168.6c-0.2-0.1-0.4-0.2-0.6-0.3l-0.5-0.7l-7.1-9v0.2c0,1.5-0.6,13.4-4.5,14.5
		c-4.3,1.2-9.4,1.5-11.7-6.5s-6.6-25.2-11-26.2l6.5-5.4c0,0,4.3,5,6.1,9.9c-0.1-0.3-3.1-14.2-0.6-16.7h21.4c0,0,3.3,9.4,5.6,14.1
		c1.8,3.6,4.4,12.2,6.1,18c1.1,3.6-1,7.5-4.7,8.6C79.2,169.5,77.5,169.3,75.9,168.6z"/>
	<path id="Caminho_708" class="st4" d="M75.3,131c-3.3,2-17.8,1.2-22.6,0.8l-1.3-0.1c-0.1,0,0-0.1,0-0.1l0.1-1.3l3.5-8.9L74,110.5
		c-0.4,1.6-0.6,3.3-0.5,4.9C73.8,120.6,74.4,125.8,75.3,131z"/>
	<path id="Caminho_709" class="st16" d="M75.3,130.6c-3.3,2-17.8,1.2-22.6,0.8l-1.3-0.1h-0.2l0.2-0.1l1.2-0.3l2.5-10L74,110
		c-0.4,1.6-0.6,3.3-0.5,4.9C73.8,120.2,74.4,125.4,75.3,130.6z"/>
	<path id="Caminho_710" class="st4" d="M73.5,115c-3.8,0.9-12.3,3.5-15.5,9.7c-2.2,4.2-4,6-5.2,6.7l-1.3-0.1l0-0.1l1.2-0.3l2.5-10
		L74,110C73.6,111.6,73.4,113.3,73.5,115z"/>
	<path id="Caminho_711" class="st4" d="M8.3,118.1l4.4,2.6c-0.6,0.3-1.2,0.6-1.6,1.2c-0.4-1.1-2.7-2.6-3.7-3.2
		C7.9,118.3,8.3,118.1,8.3,118.1z"/>
	<path id="Caminho_712" class="st4" d="M50.7,131.5c-0.1,0.1-0.2,0-0.3,0C50.5,131.5,50.6,131.5,50.7,131.5z"/>
	<path id="Caminho_713" class="st17" d="M60.7,87.1c-2.5,0.2-5-0.7-6.7-2.5c0,0-11.7,3.4-15.7,11S7.3,118.2,7.3,118.2s4.7,2.6,4.3,4
		l17.7-10.3c0,0,6.3-4.5,8.1-5.6s11.4-7.3,13.5,9.8s0,15.1,0,15.1s2.9,1,7.2-7.2S75.5,114,75.5,114l0.7-8.6c0,0,2.6-5.7,0.6-8.1
		c-0.6-0.7-1-1.6-1.2-2.5c-0.3-2.2,0-5.9,4.7-8.9c7.2-4.7,10-8.5,10-8.5s0.1-2.8-4.3-4.1s-22.3-8.5-22.3-8.5l-0.6,2.5l14.1,10
		c0,0-7,5.7-12.6,5.6C64.6,82.7,65.6,87,60.7,87.1z"/>
	<path id="Caminho_714" class="st4" d="M63.4,80.3c-0.3-1.2-0.6-2.4-0.8-3.6l-7.8,2.1c0.3,1.5,0.3,3-0.2,4.5
		C57.9,84.1,61.3,83,63.4,80.3L63.4,80.3z"/>
	<circle id="Elipse_106" class="st13" cx="56.9" cy="74.8" r="8.4"/>
	<path id="Caminho_715" class="st4" d="M61.4,55.7c2.3,0.3,4.5,1.3,6.8,1.8c0.6,0.2,1.2,0.2,1.8,0.1c0.9-0.3,1.6-1.2,2.5-1.2
		c0.6,0.1,1.1,0.4,1.5,0.8c0.8,0.6,1.5,1.2,2.1,1.9c1.6,1.7,2.6,4,4,5.9s3.7,3.3,5.7,2.5c-1.4,5.4-5.9,9.5-10.9,9.9
		c-2,0.1-4-0.3-5.9,0.3c-0.5,0.2-1,0.3-1.5,0.4c-1.1,0-2-1-2.7-2c-1.6-2.3-2.9-4.9-4.7-7c-0.5-0.7-1.3-1.2-2.1-1.5
		c-0.8,0-1.7,0.2-2.4,0.7c-1.3,0.6-2.5,1.4-3.5,2.4c-1,1.1-1.5,2.7-1.2,4.2c0.3,0.8,0.6,1.5,0.7,2.4c0,1.3-1.2,2.3-1.4,3.6
		c-0.1,0.5-0.1,1.1-0.1,1.6c-0.2,1.7-1.1,3.3-2.5,4.4c-0.5,0.4-0.9,0.9-1.1,1.6c-0.1,0.5,0,0.9-0.1,1.4c-0.3,1.1-1.2,1.8-2.3,1.9
		c-1.2,0.2-2.4,0-3.5-0.4c1.5-0.9,2.3-2.6,2-4.3c-0.5-2.4-2.8-4.1-2.6-6.5c0.1-0.7,0.3-1.5,0.7-2.1c0.5-1.3,0.9-2.7,1.1-4.1
		c0.2-1.1,0.2-2.2-0.1-3.2c-0.4-0.9-0.9-1.7-1.5-2.5c-0.7-1.1-1.3-2.2-1.7-3.5c-0.1-0.4-0.2-0.8-0.2-1.1c0.1-0.5,0.4-0.9,0.7-1.2
		c1.3-1.4,2.7-2.8,4.5-3.2c0.8-0.1,1.7-0.2,2.5-0.1c1.5,0,2.9,0,4.4-0.2C51.9,59,54,59,55,58.2c0.9-0.7,1.5-1.6,2.7-2.1
		C58.8,55.7,60.1,55.6,61.4,55.7z"/>
	<path id="Caminho_716" class="st4" d="M66,142.1c0,0,4.8,9.5,3.4,12.5"/>
	<path id="Caminho_717" class="st4" d="M74.8,167.6l-7.1-9v0.2c0,0-0.4-2.9,0.9-1.9c3,2.1,7.7,5.6,7.8,6.3S75.5,166.1,74.8,167.6z"
		/>
	<g id="Grupo_546" transform="translate(7.426 64.703)" class="st6">
		<path id="Caminho_718" d="M57.3,18c0,0,0.6,2.5-1.3,3.7c1.8-0.1,3.2-1.7,3-3.6c0-0.1,0-0.2,0-0.3C58.5,18,57.9,18.1,57.3,18z"/>
		<path id="Caminho_719" d="M1.6,52.9c0,0,27-15,30.9-22.6c2.8-5.5,9.7-8.8,13.3-10.2c-2.7,0.9-11.6,4.3-14.9,10.8
			C27,38.6,0,53.5,0,53.5L1.6,52.9z"/>
		<path id="Caminho_720" d="M62.6,16.9c3.2-1.2,6.3-2.9,9-5l-14.1-10l0.3-1.4L56.5,0l-0.6,2.5l14.1,10
			C67.7,14.2,65.2,15.7,62.6,16.9z"/>
		<path id="Caminho_721" d="M62.7,50.7c1.8-0.6,3.6-1.1,5.5-1.4l0-0.3C66.3,49.4,64.5,50,62.7,50.7z"/>
		<path id="Caminho_722" d="M45.6,66h-0.1c-0.1,0.1-0.2,0-0.3,0c0.1,0,0.2,0,0.3,0c0.5-0.3,1.2-2.5-0.3-15.1
			c-1.6-13.5-8-12.5-11.5-10.9c3.6-1,8.5-0.1,9.8,11.5c1.5,12.7,0.8,14.9,0.3,15.1C44.5,66.6,45.1,66.4,45.6,66z"/>
		<path id="Caminho_723" d="M43.9,66.6c-0.1,0-0.2,0-0.3,0C43.6,66.7,43.8,66.7,43.9,66.6z"/>
	</g>
	<path id="Caminho_724" class="st15" d="M61.4,55.5c2.3,0.3,4.5,1.3,6.8,1.8c0.6,0.2,1.2,0.2,1.8,0.1c0.9-0.3,1.6-1.2,2.5-1.2
		c0.6,0.1,1.1,0.4,1.5,0.8c0.8,0.6,1.5,1.2,2.1,1.9c1.6,1.7,2.6,4,4,5.9s3.7,3.3,5.7,2.5c-1.4,5.4-5.9,9.5-10.9,9.9
		c-2,0.1-4-0.3-5.9,0.3c-0.5,0.2-1,0.3-1.5,0.4c-1.1,0-2-1-2.7-2c-1.6-2.3-2.9-4.9-4.7-7c-0.5-0.7-1.3-1.2-2.1-1.5
		c-0.8,0-1.7,0.2-2.4,0.7c-1.3,0.6-2.5,1.4-3.5,2.4c-1,1.1-1.5,2.7-1.2,4.2c0.3,0.8,0.6,1.5,0.7,2.4c0,1.3-1.2,2.3-1.4,3.6
		c-0.1,0.5-0.1,1.1-0.1,1.6c-0.2,1.7-1.1,3.3-2.5,4.4c-0.5,0.4-0.9,0.9-1.1,1.6c-0.1,0.5,0,0.9-0.1,1.4c-0.3,1.1-1.2,1.8-2.3,1.9
		c-1.2,0.2-2.4,0-3.5-0.4c1.5-0.9,2.3-2.6,2-4.3c-0.5-2.4-2.8-4.1-2.6-6.5c0.1-0.7,0.3-1.5,0.7-2.1c0.5-1.3,0.9-2.7,1.1-4.1
		c0.2-1.1,0.2-2.2-0.1-3.2c-0.4-0.9-0.9-1.7-1.5-2.5c-0.7-1.1-1.3-2.2-1.7-3.5c-0.1-0.4-0.2-0.8-0.2-1.1c0.1-0.5,0.4-0.9,0.7-1.2
		c1.3-1.4,2.7-2.8,4.5-3.2c0.8-0.1,1.7-0.2,2.5-0.1c1.5,0,2.9,0,4.4-0.2c1.2-0.1,3.2-0.1,4.3-0.9c0.9-0.7,1.5-1.6,2.7-2.1
		C58.8,55.4,60.1,55.3,61.4,55.5z"/>
	
		<linearGradient id="Caminho_725_1_" gradientUnits="userSpaceOnUse" x1="-777.1979" y1="656.1542" x2="-777.1979" y2="657.1542" gradientTransform="matrix(76.3408 0 0 -146.5574 59593.8359 96338.1328)">
		<stop  offset="0" style="stop-color:#808080;stop-opacity:0.251"/>
		<stop  offset="0.54" style="stop-color:#808080;stop-opacity:0.122"/>
		<stop  offset="1" style="stop-color:#808080;stop-opacity:0.102"/>
	</linearGradient>
	<path id="Caminho_725" class="st18" d="M300.1,36.7L300.1,36.7v-0.1c0,0,0-0.1,0-0.1H300v-0.3c-0.1-3.3-4.8-10.4-6.6-8.4
		c-1.6,1.8,0.8,6.4,2.1,8.5l0.1,0.2l-0.1,0c0,0-5.2,15.4-5.8,16s-4.8,12.7-10.4,14c-1.1,0.3-2,0.5-2.8,0.7l0.1-0.2
		c0.4-1.2,0.8-2.4,1-3.6c0.2-1.3,0-2.9-0.7-3.5c-0.3-0.3-0.7-0.4-1-0.9c-0.2-0.4-0.3-0.9-0.3-1.4l-0.5-5.8l0.3-0.1
		c2-0.6,3.9-2.2,4.2-4.2c-0.1,0-0.1,0-0.2,0.1c0-0.1,0-0.2,0.1-0.4c-1.7,0.7-3.2-1.1-4.9-1.9c-2.7-1.3-5.7-0.1-8.5,0.2
		c-3.1,0.3-6.1-1-9.3-0.7c-1.7,0.1-3.7,1.3-3.6,3c0.1,0.9,0.7,1.7,1,2.6c0.7,2.2-0.8,4.4-2.2,6.2c-1,1.2-1.6,2.6-1.9,4.1
		c-3.1-3.2-6.5-7-6.8-8.4l-9-15.4c0,0-0.2,0.2-0.6,0.6c-0.1-0.2-0.1-0.4-0.2-0.6c-1.1-3.2-4.4-11-8.5-9.6s1.7,9.4,4.2,12.6l0.4,0.4
		c-0.2,0.1-0.4,0-0.6,0l10,17.2c0,0,1.8,3.3,3.5,4.2c0,0,12.4,15.7,12.6,18.8s5.6,11.5,5.6,11.5s1.8,13.6-1.4,16h0.5
		c-0.2,0.1-0.3,0.3-0.5,0.5c-2.4,2.6-5.4,8.2-1.3,17.7c6.1,14,7,19.5,7,19.5s-11.5,0.6-13.8,1c-2,0.4-9.8,0.7-11.6,0.7
		c-0.6-0.7-2.5-2.4-5.1,0c-3.2,3-5.5,13-5.5,13s-1.2,8.1,2.9,6c0,0,4.8-6.7,6.2-7c0.7-0.1,1.4-1.1,1.9-2.1l0,0l0,0
		c0,0,0.2-0.1,0.4-0.2l0,0c1-0.4,3.8-1.4,6-0.9c3.9,0.3,7.8,0.4,11.7,0.3c-1.2,2.9-3.4,10.4-3.4,10.4s-0.9,7,2.1,6.7
		c2.2-0.2,5.5-5.7,7.2-8.9c1.3-0.9,4.8-4.2,7.5-4l17.9-6.9c0,0,4.2-2.4,2-10.3c-1.8-6.3-6.9-19.2-8.9-24.2l0,0l-0.1-0.1
		c-0.5-1.2-0.8-1.9-0.8-1.9l0,0c-0.8-2.3-1.4-4.7-1.6-7.1c0-0.2,0-0.4,0-0.6c0.2-0.1,0.5-0.2,0.7-0.4c0,0-1.7-16.9,0-18.7l0,0l0,0
		l0,0v0l0,0l0,0l0,0l0.1-0.1l0,0l0.1-0.1l0,0c0.1-0.1,0.2-0.3,0.3-0.4l0,0c1.7-2.4,2.5-5.4,2.2-8.4l0,0c0-0.2,0-0.3-0.1-0.5l0,0
		c-0.2-1-0.5-2-1-2.9c-0.1-0.4-0.1-0.8-0.1-1.2v-1c0-0.2,0-0.3,0.1-0.5v-0.1c0-0.1,0-0.1,0-0.2v-0.1c0-0.1,0-0.1,0-0.2v-0.1
		c0-0.1,0-0.2,0.1-0.3v0c0-0.1,0-0.1,0.1-0.2l0-0.1l0.1-0.2l0-0.1c0-0.1,0.1-0.1,0.1-0.2l0-0.1c0-0.1,0.1-0.2,0.1-0.2l0-0.1l0.1-0.2
		l0.1-0.1l0.1-0.2l0.1-0.1c0.1-0.1,0.1-0.1,0.2-0.2c2-1.8,10.8-15.1,10.8-15.1s2.1-3,2.1-4.9C296.7,53,300.5,40.5,300.1,36.7z
		 M276.5,148.2c-0.2-2-0.4-4.6-0.6-7.2l3.4,5.3C279.3,146.4,279,148,276.5,148.2L276.5,148.2z"/>
	<path id="Caminho_726" class="st19" d="M240.8,147.1c0,0-2.1-3.2-5.1-0.3s-5.3,12.8-5.3,12.8s-1.2,7.9,2.8,5.9c0,0,4.7-6.6,6-6.9
		s2.8-4,2.8-4L240.8,147.1z"/>
	<path id="Caminho_727" class="st19" d="M262.8,155c0,0-2.8-1.3-3.7-0.3s-3.8,11.3-3.8,11.3s-0.9,6.7,2.1,6.5s8.1-10.9,8.1-10.9
		L262.8,155z"/>
	<path id="Caminho_728" class="st20" d="M262.8,155c0,0-2.8-1.3-3.7-0.3s-3.8,11.3-3.8,11.3s-0.9,6.7,2.1,6.5s8.1-10.9,8.1-10.9
		L262.8,155z"/>
	<path id="Caminho_729" class="st21" d="M272.4,135.1l6.3,9.8c0,0-0.4,2.2-4.3,1.8l-13.1,8.2c0,0-1.1,10,2.5,9.1
		c0.6-0.1,4.7-4.4,7.6-4.1l17.3-6.7c0,0,4.1-2.3,1.9-10.1s-9.5-25.8-9.5-25.8l-11.5,6.4L272.4,135.1z"/>
	<path id="Caminho_730" class="st20" d="M272.4,135.1l6.3,9.8c0,0-0.4,2.2-4.3,1.8l-13.1,8.2c0,0-1.1,10,2.5,9.1
		c0.6-0.1,4.7-4.4,7.6-4.1l17.3-6.7c0,0,4.1-2.3,1.9-10.1s-9.5-25.8-9.5-25.8l-11.5,6.4L272.4,135.1z"/>
	<path id="Caminho_731" class="st21" d="M276.4,149.6c0.9,5.6-4.1,6-4.1,6s-22.4,0.4-25.1-0.1s-6.2,1-6.2,1
		c-4.5-2.8-0.9-9.7-0.9-9.7s9.4-0.3,11.6-0.7s13.3-1,13.3-1s-0.9-5.4-6.7-19.2c-4-9.4-1.1-14.9,1.2-17.4c0.6-0.7,1.3-1.3,2-1.8
		l18,0.9c0,0.9,0,1.8,0.1,2.7c0.3,3.1,1.1,6.1,2.4,9c-1,0-7.6,6.2-7.6,6.2S275.5,144,276.4,149.6z"/>
	<path id="Caminho_732" class="st4" d="M241.5,147.4c0,0,9.4-0.3,11.6-0.7s13.3-1,13.3-1s-0.9-5.4-6.7-19.2
		c-4-9.4-1.1-14.9,1.2-17.4c0.6-0.7,1.3-1.3,2-1.8l16.7,0.8v-0.5l-18-0.9c-0.8,0.5-1.4,1.1-2,1.8c-2.3,2.6-5.2,8.1-1.2,17.4
		c5.9,13.8,6.8,19.2,6.8,19.2s-11.2,0.6-13.3,1s-11.6,0.7-11.6,0.7s-3.7,6.9,0.9,9.7c0,0,0.1-0.1,0.4-0.2
		C238.4,153.2,241.5,147.4,241.5,147.4z"/>
	<rect id="Retângulo_457" x="259.2" y="52.8" class="st19" width="9.1" height="23"/>
	<rect id="Retângulo_458" x="259.2" y="52.8" class="st4" width="9.1" height="23"/>
	<path id="Caminho_733" class="st19" d="M273.5,49.4c0.3,0.1,0.7,0.1,0.9,0.5c0.1,0.3,0.2,0.7,0.2,1.1l0.6,7.1
		c0,0.5,0.1,0.9,0.3,1.4c0.2,0.5,0.6,0.5,1,0.9c0.6,0.6,0.8,2.2,0.6,3.5c-0.2,1.2-0.5,2.4-1,3.5c-0.4,1.7-0.9,3.3-1.5,4.9
		c-0.7,1.4-1.9,2.2-2.7,1s-0.7-3.5-0.8-5.5c-0.3-3.2-1.5-6-1.6-9.3c-0.1-2.6,0.6-5.1,1.1-7.6c0.3-1.7,0.3-3.8,0.8-5.3
		C271.7,47.4,272.4,49.1,273.5,49.4z"/>
	<path id="Caminho_734" class="st4" d="M273.5,49.4c0.3,0.1,0.7,0.1,0.9,0.5c0.1,0.3,0.2,0.7,0.2,1.1l0.6,7.1c0,0.5,0.1,0.9,0.3,1.4
		c0.2,0.5,0.6,0.5,1,0.9c0.6,0.6,0.8,2.2,0.6,3.5c-0.2,1.2-0.5,2.4-1,3.5c-0.4,1.7-0.9,3.3-1.5,4.9c-0.7,1.4-1.9,2.2-2.7,1
		s-0.7-3.5-0.8-5.5c-0.3-3.2-1.5-6-1.6-9.3c-0.1-2.6,0.6-5.1,1.1-7.6c0.3-1.7,0.3-3.8,0.8-5.3C271.7,47.4,272.4,49.1,273.5,49.4z"/>
	<path id="Caminho_735" class="st22" d="M235,39.3l-3.5,2.9c0,0-0.4-0.5-1-1.3c-2.4-3.1-8.1-11-4.1-12.4s7.1,6.2,8.2,9.4
		C234.9,38.8,235,39.3,235,39.3z"/>
	<path id="Caminho_736" class="st22" d="M298.5,38.3c-1.5,2.2-3.5,0-3.5,0s-0.3-0.4-0.6-1c-1.2-2-3.6-6.6-2-8.4
		c1.8-2,6.3,4.9,6.4,8.2C298.8,37.5,298.7,37.9,298.5,38.3z"/>
	<path id="Caminho_737" class="st22" d="M262.5,62c0,0,2.9,9.4,2.1,12.2s6.3,6,6.3,6h8.2c0,0,2.9-6,2.2-7.8s-7-3.1-7-3.1
		s-3.7,0-3.5-9.8L262.5,62z"/>
	<path id="Caminho_738" class="st4" d="M235,39.3l-3.5,2.9c0,0-0.4-0.5-1-1.3c1.3-0.2,3.3-2.1,4.1-3C234.9,38.8,235,39.3,235,39.3z"
		/>
	<path id="Caminho_739" class="st4" d="M298.5,38.3c-1.5,2.2-3.5,0-3.5,0s-0.3-0.4-0.6-1l0-0.1c1,0.7,3.9,0.1,4.3,0
		C298.8,37.5,298.7,37.9,298.5,38.3z"/>
	<path id="Caminho_740" class="st4" d="M279.7,110.2c-4.5,2.1-19.3-1.6-20.2-1.8c0.6-0.7,1.3-1.3,2-1.8l18,0.9
		C279.6,108.4,279.6,109.3,279.7,110.2z"/>
	<path id="Caminho_741" class="st23" d="M264.4,70.1c0,0-3.5,1.2-8.5-3.4c0,0-11.2-11-11.9-13.6L235.4,38c0,0-3.7,4-5.1,3.4
		l9.7,16.9c0,0,1.8,3.2,3.4,4.1c0,0,12,15.4,12.2,18.5s5.4,11.3,5.4,11.3s1.8,13.3-1.3,15.7c0,0,17.2,4.4,20.8,1.5
		c0,0-1.6-16.6,0-18.3c0,0,5-5.9,1.6-12.3c0,0-0.7-3.5,1.2-5.3s10.4-14.8,10.4-14.8s2.1-2.9,2.1-4.8c0,0,3.8-12.9,3.2-16.3
		c0,0-3.4,0.7-4.4,0c0,0-5,15.1-5.6,15.7s-4.7,12.5-10.1,13.8s-6.3,1.9-6.3,1.9s10.6,6.6,5.4,9.5S264.4,70.1,264.4,70.1z"/>
	<path id="Caminho_742" class="st4" d="M271,64.3c-0.2-1.4-0.2-2.8-0.2-4.2l-8.2,2.5c0.2,0.5,0.4,1.1,0.5,1.7
		c0.9,0.4,2.2,1.4,3.3,1.4C268.1,65.7,269.7,65.3,271,64.3L271,64.3z"/>
	<circle id="Elipse_107" class="st22" cx="266.3" cy="57.6" r="7.6"/>
	<path id="Caminho_743" class="st4" d="M257.2,45.9c-1.7,0.1-3.5,1.3-3.5,3c0.2,0.9,0.5,1.8,1,2.6c0.7,2.1-0.8,4.3-2.1,6.1
		s-2.5,4.3-1.4,6.2c0.3,0.5,0.7,0.9,1,1.3c1.4,1.9,1.4,4.4,2,6.6c1.6,5.9,7.6,9.6,13.6,8.3c-1.1-1.4-1.6-3.1-1.5-4.9
		c0.1-1.3,0.5-2.6,0-3.8c-0.6-1.5-2.5-2.1-3.5-3.5c-0.9-1.4-1-3.2-0.4-4.8c0.5-1.6,1.3-3.1,1.7-4.7c0.1-0.5,0.2-0.9,0.4-1.4
		c0.7-1.9,2.7-3,4.7-3.5s4.1-0.5,6-1.1s3.8-2.1,4-4.1c-1.6,0.7-3.1-1-4.7-1.8c-2.6-1.3-5.5-0.1-8.2,0.2
		C263.2,46.9,260.3,45.7,257.2,45.9z"/>
	<path id="Caminho_744" class="st19" d="M257.1,45.6c-1.7,0.1-3.5,1.3-3.5,3c0.2,0.9,0.5,1.8,1,2.6c0.7,2.1-0.8,4.3-2.1,6.1
		s-2.5,4.3-1.4,6.2c0.3,0.5,0.7,0.9,1,1.3c1.4,1.9,1.4,4.4,2,6.6c1.6,5.9,7.6,9.6,13.6,8.3c-1.1-1.4-1.6-3.1-1.5-4.9
		c0.1-1.3,0.5-2.6,0-3.8c-0.6-1.5-2.5-2.1-3.5-3.5c-0.9-1.4-1-3.2-0.4-4.8c0.5-1.6,1.3-3.1,1.7-4.7c0.1-0.5,0.2-0.9,0.4-1.4
		c0.7-1.9,2.7-3,4.7-3.5s4.1-0.5,6-1.1s3.8-2.1,4-4.1c-1.6,0.7-3.1-1-4.7-1.8c-2.6-1.3-5.5-0.1-8.2,0.2
		C263,46.6,260.2,45.3,257.1,45.6z"/>
	<path id="Caminho_745" class="st4" d="M273.8,74.6c0,0,3.1,2.7,3.7,3.9"/>
	<path id="Caminho_746" class="st4" d="M280.4,90.8c-1.9,0-3.7,0.1-5.6,0.4c-1.8,0.4-6,0-6,0"/>
	<g id="Grupo_547" transform="translate(230.211 37.392)" class="st6">
		<path id="Caminho_747" d="M47.7,40.9c-0.3,0.2-0.7,0.3-1.1,0.4c1,0.2,2,0.1,2.8-0.4c5.1-2.9-5.4-9.5-5.4-9.5h-1.8
			C42.2,31.4,52.8,38,47.7,40.9z"/>
		<path id="Caminho_748" d="M68.7,0.3c0-0.1,0-0.2,0-0.3c-0.6,0.1-1.2,0.2-1.8,0.3C67.4,0.3,68,0.3,68.7,0.3z"/>
		<path id="Caminho_749" d="M31.1,70.4c3.1-2.3,1.3-15.7,1.3-15.7s-5.3-8.2-5.4-11.3S14.8,24.9,14.8,24.9c-1.6-0.9-3.4-4.1-3.4-4.1
			S1.5,4.6,0,4l9.7,16.9c0,0,1.8,3.2,3.4,4.1c0,0,12,15.4,12.2,18.5s5.4,11.3,5.4,11.3s1.8,13.3-1.3,15.7c0,0,10.5,2.7,16.9,2.5
			C39.9,72.6,31.1,70.4,31.1,70.4z"/>
		<path id="Caminho_750" d="M34.3,32.8l-0.1-0.1c-0.1,0-0.2,0.1-0.3,0.1C34,32.8,34.1,32.8,34.3,32.8z"/>
	</g>
	<g id="Grupo_548" transform="translate(280.218 37.374)" class="st6">
		<path id="Caminho_751" d="M18.6,0L18.6,0c-0.2,4.5-3.4,15.1-3.4,15.1c0,1.9-2.1,4.8-2.1,4.8S4.7,33,2.8,34.8
			C0.9,36.5,1.6,40,1.6,40l0,0c-0.2-1.5,0.3-3,1.3-4.1c1.9-1.8,10.4-14.8,10.4-14.8s2.1-2.9,2.1-4.8C15.4,16.3,19.2,3.4,18.6,0z"/>
		<path id="Caminho_752" d="M0,52.4c0.2,1.2,0.1-0.1,0.1,1.2c0,0,3.6-4.2,2.6-9.4C2.8,47.1,1.9,50,0,52.4z"/>
	</g>
	<ellipse id="Elipse_108" class="st1" cx="169.1" cy="223.4" rx="154" ry="14.8"/>
	<path id="Caminho_753" class="st24" d="M109.5,208.4c0,0-5.2-17.8,1-30.9c2.6-5.5,3.4-11.7,2.3-17.6c-0.6-2.8-1.4-5.6-2.5-8.3"/>
	<path id="Caminho_754" class="st0" d="M114.1,143.3c0,2.2-4,8.5-4,8.5s-4-6.3-4-8.5c-0.2-2.2,1.5-4.1,3.7-4.2s4.1,1.5,4.2,3.7
		C114.1,142.9,114.1,143.1,114.1,143.3L114.1,143.3z"/>
	<path id="Caminho_755" class="st0" d="M120.6,155.4c-1.2,1.8-7.9,5-7.9,5s0.1-7.5,1.3-9.3c1.1-1.9,3.5-2.6,5.4-1.5
		c1.9,1.1,2.6,3.5,1.5,5.4C120.8,155.1,120.7,155.2,120.6,155.4L120.6,155.4z"/>
	<path id="Caminho_756" class="st0" d="M120.3,176c-1.9,1-9.4,0.3-9.4,0.3s3.9-6.4,5.8-7.4c1.9-1.1,4.3-0.5,5.4,1.4
		c1.1,1.9,0.5,4.3-1.4,5.4C120.7,175.9,120.5,176,120.3,176L120.3,176z"/>
	<path id="Caminho_757" class="st0" d="M116.6,191.6c-1.8,1.3-9.2,1.9-9.2,1.9s2.7-6.9,4.5-8.2c1.9-1.1,4.3-0.5,5.4,1.3
		C118.3,188.2,118,190.3,116.6,191.6L116.6,191.6z"/>
	<path id="Caminho_758" class="st0" d="M104.4,160.8c1.6,1.5,8.9,3.1,8.9,3.1s-1.8-7.2-3.4-8.8c-1.5-1.6-4-1.8-5.6-0.3
		c-1.6,1.5-1.8,4-0.3,5.6C104.1,160.5,104.2,160.7,104.4,160.8L104.4,160.8z"/>
	<path id="Caminho_759" class="st0" d="M100.2,179.1c1.9,1,9.4,0.3,9.4,0.3s-3.9-6.4-5.8-7.3c-2-0.8-4.3,0.1-5.2,2.1
		C97.9,176,98.6,178.1,100.2,179.1L100.2,179.1z"/>
	<path id="Caminho_760" class="st0" d="M98.7,197.4c1.8,1.3,9.2,1.9,9.2,1.9s-2.7-6.9-4.5-8.2c-1.6-1.4-4.1-1.3-5.6,0.3
		s-1.3,4.1,0.3,5.6C98.3,197.1,98.5,197.3,98.7,197.4L98.7,197.4z"/>
	<path id="Caminho_761" class="st1" d="M114.1,143.3c0,2.2-4,8.5-4,8.5s-4-6.3-4-8.5c-0.2-2.2,1.5-4.1,3.7-4.2s4.1,1.5,4.2,3.7
		C114.1,142.9,114.1,143.1,114.1,143.3L114.1,143.3z"/>
	<path id="Caminho_762" class="st1" d="M120.6,155.4c-1.2,1.8-7.9,5-7.9,5s0.1-7.5,1.3-9.3c1.1-1.9,3.5-2.6,5.4-1.5
		c1.9,1.1,2.6,3.5,1.5,5.4C120.8,155.1,120.7,155.2,120.6,155.4L120.6,155.4z"/>
	<path id="Caminho_763" class="st1" d="M120.3,176c-1.9,1-9.4,0.3-9.4,0.3s3.9-6.4,5.8-7.4c1.9-1.1,4.3-0.5,5.4,1.4
		c1.1,1.9,0.5,4.3-1.4,5.4C120.7,175.9,120.5,176,120.3,176L120.3,176z"/>
	<path id="Caminho_764" class="st1" d="M116.6,191.6c-1.8,1.3-9.2,1.9-9.2,1.9s2.7-6.9,4.5-8.2c1.9-1.1,4.3-0.5,5.4,1.3
		C118.3,188.2,118,190.3,116.6,191.6L116.6,191.6z"/>
	<path id="Caminho_765" class="st1" d="M104.4,160.8c1.6,1.5,8.9,3.1,8.9,3.1s-1.8-7.2-3.4-8.8c-1.5-1.6-4-1.8-5.6-0.3
		c-1.6,1.5-1.8,4-0.3,5.6C104.1,160.5,104.2,160.7,104.4,160.8L104.4,160.8z"/>
	<path id="Caminho_766" class="st1" d="M100.2,179.1c1.9,1,9.4,0.3,9.4,0.3s-3.9-6.4-5.8-7.3c-2-0.8-4.3,0.1-5.2,2.1
		C97.9,176,98.6,178.1,100.2,179.1L100.2,179.1z"/>
	<path id="Caminho_767" class="st1" d="M98.7,197.4c1.8,1.3,9.2,1.9,9.2,1.9s-2.7-6.9-4.5-8.2c-1.6-1.4-4.1-1.3-5.6,0.3
		s-1.3,4.1,0.3,5.6C98.3,197.1,98.5,197.3,98.7,197.4L98.7,197.4z"/>
	<path id="Caminho_768" class="st24" d="M215.5,208.7c0,0-5.2-17.8,1-30.9c2.6-5.5,3.4-11.7,2.3-17.6c-0.6-2.8-1.4-5.6-2.5-8.3"/>
	<path id="Caminho_769" class="st0" d="M220.2,143.6c0,2.2-4,8.5-4,8.5s-4-6.3-4-8.5c0.2-2.2,2.1-3.8,4.2-3.7
		C218.5,140,220,141.6,220.2,143.6L220.2,143.6z"/>
	<path id="Caminho_770" class="st0" d="M226.7,155.6c-1.2,1.8-7.9,5-7.9,5s0.1-7.5,1.3-9.3c1.1-1.9,3.5-2.6,5.4-1.5s2.6,3.5,1.5,5.4
		C226.9,155.4,226.8,155.5,226.7,155.6L226.7,155.6z"/>
	<path id="Caminho_771" class="st0" d="M226.4,176.3c-1.9,1-9.4,0.3-9.4,0.3s3.9-6.4,5.8-7.4c1.9-1.1,4.3-0.5,5.4,1.3
		c1.1,1.9,0.5,4.3-1.3,5.4C226.8,176.1,226.6,176.2,226.4,176.3L226.4,176.3z"/>
	<path id="Caminho_772" class="st0" d="M222.7,191.9c-1.8,1.3-9.2,1.9-9.2,1.9s2.7-6.9,4.5-8.2c1.9-1.1,4.3-0.5,5.4,1.3
		C224.4,188.5,224.1,190.6,222.7,191.9L222.7,191.9z"/>
	<path id="Caminho_773" class="st0" d="M210.5,161.1c1.6,1.5,8.9,3.1,8.9,3.1s-1.8-7.2-3.4-8.8c-1.5-1.6-4-1.8-5.6-0.3
		c-1.6,1.5-1.8,4-0.3,5.6C210.2,160.8,210.3,160.9,210.5,161.1L210.5,161.1z"/>
	<path id="Caminho_774" class="st0" d="M206.3,179.3c1.9,1,9.4,0.3,9.4,0.3s-3.9-6.4-5.8-7.4c-2-0.8-4.3,0.1-5.2,2.1
		C203.9,176.2,204.6,178.3,206.3,179.3L206.3,179.3z"/>
	<path id="Caminho_775" class="st0" d="M204.8,197.6c1.8,1.3,9.2,1.9,9.2,1.9s-2.7-6.9-4.5-8.2c-1.9-1.1-4.3-0.5-5.4,1.3
		C203,194.3,203.3,196.4,204.8,197.6L204.8,197.6z"/>
	<path id="Caminho_776" class="st1" d="M220.2,143.6c0,2.2-4,8.5-4,8.5s-4-6.3-4-8.5c0.2-2.2,2.1-3.8,4.2-3.7
		C218.5,140,220,141.6,220.2,143.6L220.2,143.6z"/>
	<path id="Caminho_777" class="st1" d="M226.7,155.6c-1.2,1.8-7.9,5-7.9,5s0.1-7.5,1.3-9.3c1.1-1.9,3.5-2.6,5.4-1.5s2.6,3.5,1.5,5.4
		C226.9,155.4,226.8,155.5,226.7,155.6L226.7,155.6z"/>
	<path id="Caminho_778" class="st1" d="M226.4,176.3c-1.9,1-9.4,0.3-9.4,0.3s3.9-6.4,5.8-7.4c1.9-1.1,4.3-0.5,5.4,1.3
		c1.1,1.9,0.5,4.3-1.3,5.4C226.8,176.1,226.6,176.2,226.4,176.3L226.4,176.3z"/>
	<path id="Caminho_779" class="st1" d="M222.7,191.9c-1.8,1.3-9.2,1.9-9.2,1.9s2.7-6.9,4.5-8.2c1.9-1.1,4.3-0.5,5.4,1.3
		C224.4,188.5,224.1,190.6,222.7,191.9L222.7,191.9z"/>
	<path id="Caminho_780" class="st1" d="M210.5,161.1c1.6,1.5,8.9,3.1,8.9,3.1s-1.8-7.2-3.4-8.8c-1.5-1.6-4-1.8-5.6-0.3
		c-1.6,1.5-1.8,4-0.3,5.6C210.2,160.8,210.3,160.9,210.5,161.1L210.5,161.1z"/>
	<path id="Caminho_781" class="st1" d="M206.3,179.3c1.9,1,9.4,0.3,9.4,0.3s-3.9-6.4-5.8-7.4c-2-0.8-4.3,0.1-5.2,2.1
		C203.9,176.2,204.6,178.3,206.3,179.3L206.3,179.3z"/>
	<path id="Caminho_782" class="st1" d="M204.8,197.6c1.8,1.3,9.2,1.9,9.2,1.9s-2.7-6.9-4.5-8.2c-1.9-1.1-4.3-0.5-5.4,1.3
		C203,194.3,203.3,196.4,204.8,197.6L204.8,197.6z"/>
	<path id="Caminho_783" class="st25" d="M241.2,5.5h-2.3c0.9,0,1.6-0.6,1.7-1.5c0-0.9-0.6-1.6-1.5-1.7c0,0-0.1,0-0.1,0h-18.3
		c-0.9,0-1.6,0.8-1.5,1.7c0,0.8,0.7,1.5,1.5,1.5h2.3c-0.9,0-1.6,0.8-1.5,1.7c0,0.8,0.7,1.5,1.5,1.5h-3.2c-0.9,0-1.6,0.6-1.7,1.5
		c0,0.9,0.6,1.6,1.5,1.7c0,0,0.1,0,0.1,0H238c0.9,0,1.6-0.6,1.7-1.5c0-0.9-0.6-1.6-1.5-1.7c0,0-0.1,0-0.1,0h3.2
		c0.9,0,1.6-0.8,1.5-1.7C242.7,6.2,242,5.6,241.2,5.5L241.2,5.5z"/>
	<path id="Caminho_784" class="st25" d="M135.3,14.8h-1.7c0.7,0,1.2-0.5,1.3-1.1c0-0.7-0.5-1.2-1.1-1.3c0,0-0.1,0-0.1,0h-13.9
		c-0.7,0-1.2,0.6-1.1,1.3c0,0.6,0.5,1.1,1.1,1.1h1.7c-0.7,0-1.2,0.5-1.3,1.1c0,0.7,0.5,1.2,1.1,1.3c0,0,0.1,0,0.1,0h-2.4
		c-0.7,0-1.2,0.5-1.3,1.1c0,0.7,0.5,1.2,1.1,1.3c0,0,0.1,0,0.1,0h13.9c0.7,0,1.2-0.5,1.3-1.1c0-0.7-0.5-1.2-1.1-1.3c0,0-0.1,0-0.1,0
		h2.4c0.7,0,1.2-0.6,1.1-1.3C136.4,15.3,135.9,14.8,135.3,14.8L135.3,14.8z"/>
	<path id="Caminho_785" class="st26" d="M18.2,185.4c0,0,6.3,12.4,1.2,19.1s0.5,25.2,0.5,25.2"/>
	<path id="Caminho_786" class="st0" d="M20.1,181.5c-0.1,1.6-0.7,3.1-1.8,4.3c-2.3-2.4-2.3-6.2,0-8.6
		C19.4,178.4,20,179.9,20.1,181.5z"/>
	<path id="Caminho_787" class="st26" d="M21.5,185.4c0,0-6.3,12.4-1.2,19.1s-0.5,25.2-0.5,25.2"/>
	<path id="Caminho_788" class="st0" d="M19.6,181.5c0.1,1.6,0.7,3.1,1.8,4.3c2.3-2.4,2.3-6.2,0-8.6
		C20.3,178.4,19.7,179.9,19.6,181.5z"/>
	<path id="Caminho_789" class="st4" d="M19.6,181.5c0.1,1.6,0.7,3.1,1.8,4.3c2.3-2.4,2.3-6.2,0-8.6
		C20.3,178.4,19.7,179.9,19.6,181.5z"/>
	<path id="Caminho_790" class="st26" d="M24.1,185.4c0,0,6.3,12.4,1.2,19.1s0.5,25.2,0.5,25.2"/>
	<path id="Caminho_791" class="st0" d="M25.9,181.5c-0.1,1.6-0.7,3.1-1.8,4.3c-2.3-2.4-2.3-6.2,0-8.6
		C25.2,178.4,25.8,179.9,25.9,181.5z"/>
	<path id="Caminho_792" class="st0" d="M25,191.4c-1.2,1.1-2.7,1.8-4.3,1.9c0-3.4,2.6-6.1,6-6.2C26.6,188.7,26,190.2,25,191.4z"/>
	<path id="Caminho_793" class="st0" d="M25.1,199.9c-1.2,1.1-2.7,1.8-4.3,1.9c0-3.4,2.6-6.1,6-6.2C26.8,197.2,26.2,198.7,25.1,199.9
		z"/>
	<path id="Caminho_794" class="st0" d="M16.2,204.6c1,1.3,1.5,2.8,1.5,4.4c-3.3-0.3-5.8-3.2-5.7-6.5C13.6,202.7,15,203.5,16.2,204.6
		z"/>
	<path id="Caminho_795" class="st0" d="M17.6,186.4c1.3,1,2.2,2.3,2.6,3.8c-3.3,0.6-6.5-1.5-7.2-4.8
		C14.6,185.3,16.2,185.6,17.6,186.4z"/>
	<path id="Caminho_796" class="st4" d="M17.6,186.4c1.3,1,2.2,2.3,2.6,3.8c-3.3,0.6-6.5-1.5-7.2-4.8
		C14.6,185.3,16.2,185.6,17.6,186.4z"/>
	<path id="Caminho_797" class="st26" d="M27.3,185.4c0,0-6.3,12.4-1.2,19.1s-0.5,25.2-0.5,25.2"/>
	<path id="Caminho_798" class="st0" d="M25.5,181.5c0.1,1.6,0.7,3.1,1.8,4.3c2.3-2.4,2.3-6.2,0-8.6
		C26.2,178.4,25.6,179.9,25.5,181.5z"/>
	<path id="Caminho_799" class="st4" d="M25.5,181.5c0.1,1.6,0.7,3.1,1.8,4.3c2.3-2.4,2.3-6.2,0-8.6
		C26.2,178.4,25.6,179.9,25.5,181.5z"/>
	<path id="Caminho_800" class="st0" d="M26,191.6c-1.1,1.2-1.7,2.7-1.8,4.3c1.6-0.1,3.1-0.8,4.3-1.8c1.1-1.2,1.7-2.7,1.8-4.3
		C28.7,189.9,27.2,190.5,26,191.6z"/>
	<path id="Caminho_801" class="st4" d="M26,191.6c-1.1,1.2-1.7,2.7-1.8,4.3c1.6-0.1,3.1-0.8,4.3-1.8c1.1-1.2,1.7-2.7,1.8-4.3
		C28.7,189.9,27.2,190.5,26,191.6z"/>
	<path id="Caminho_802" class="st0" d="M29.3,203.4c-1.1,1.2-1.7,2.7-1.8,4.3c1.6-0.1,3.1-0.8,4.3-1.8c1.1-1.2,1.7-2.7,1.8-4.3
		C31.9,201.7,30.4,202.3,29.3,203.4z"/>
	<path id="Caminho_803" class="st26" d="M24.4,200.8c0,0,3.8-6,9.1-6.1"/>
	<path id="Caminho_804" class="st26" d="M21.5,197.2c0,0-3.8-6-9.1-6.1"/>
	<path id="Caminho_805" class="st26" d="M21,205.7c0,0,3.8-6,9.1-6.1"/>
	<circle id="Elipse_109" class="st0" cx="33.4" cy="194.7" r="1"/>
	<circle id="Elipse_110" class="st0" cx="12.4" cy="191.1" r="1"/>
	<path id="Caminho_806" class="st26" d="M23.8,207.7c0,0-3.8-6-9.1-6.1"/>
	<circle id="Elipse_111" class="st0" cx="14.7" cy="201.6" r="1"/>
	<circle id="Elipse_112" class="st0" cx="30.2" cy="199.7" r="1"/>
	<path id="Caminho_807" class="st27" d="M44.7,222.5c0,0-9.1-1.8-11.6-4.3s-13.4-6.7-14.6-3.7S2.1,228,12.4,229.8s24.4,2.4,27.4,1.2
		S44.7,222.5,44.7,222.5z"/>
	<path id="Caminho_808" class="st28" d="M12.4,228.7c10.4,1.8,24.4,2.4,27.4,1.2c2.3-0.9,3.9-5.4,4.6-7.5l0.3,0.1
		c0,0-1.8,7.3-4.9,8.5s-17.1,0.6-27.4-1.2c-3-0.5-3.8-1.8-3.5-3.3C9.2,227.5,10.2,228.3,12.4,228.7z"/>
	<path id="Caminho_809" class="st0" d="M322.2,188.2c0,0,3,4-1.4,9.9s-8,11-6.6,14.7c0,0,6.7-11.1,12.1-11.2
		S328.1,194.8,322.2,188.2z"/>
	<path id="Caminho_810" class="st4" d="M322.2,188.2c0.3,0.4,0.5,0.8,0.6,1.2c5.3,6.2,8.1,12,3,12.1c-4.7,0.1-10.4,8.6-11.8,10.7
		c0,0.2,0.1,0.3,0.2,0.5c0,0,6.7-11.1,12.1-11.2S328.1,194.8,322.2,188.2z"/>
	<path id="Caminho_811" class="st29" d="M327.8,193.2c0,1.4-0.2,2.5-0.4,2.5s-0.4-1.1-0.4-2.5s0.2-0.7,0.4-0.7
		S327.8,191.8,327.8,193.2z"/>
	<path id="Caminho_812" class="st29" d="M329.7,194.8c-1.2,0.7-2.3,1.1-2.4,0.9s0.8-0.8,2-1.5s0.7-0.2,0.8,0
		S330.9,194.2,329.7,194.8z"/>
	<path id="Caminho_813" class="st0" d="M306.2,188.2c0,0-3,4,1.4,9.9s8,11,6.6,14.7c0,0-6.7-11.1-12.1-11.2S300.3,194.8,306.2,188.2
		z"/>
	<path id="Caminho_814" class="st4" d="M306.2,188.2c-0.3,0.4-0.5,0.8-0.6,1.2c-5.3,6.2-8.1,12-3,12.1c4.7,0.1,10.4,8.6,11.8,10.7
		c0,0.2-0.1,0.3-0.2,0.5c0,0-6.7-11.1-12.1-11.2S300.3,194.8,306.2,188.2z"/>
	<path id="Caminho_815" class="st29" d="M300.6,193.2c0,1.4,0.2,2.5,0.4,2.5s0.4-1.1,0.4-2.5s-0.2-0.7-0.4-0.7
		S300.6,191.8,300.6,193.2z"/>
	<path id="Caminho_816" class="st29" d="M298.7,194.8c1.2,0.7,2.3,1.1,2.4,0.9s-0.8-0.8-2-1.5s-0.7-0.2-0.8,0
		S297.5,194.2,298.7,194.8z"/>
	<path id="Caminho_817" class="st27" d="M301.6,212.2c0,0,8.4-0.3,11-2.1s13-4,13.6-1.1s12.7,14.4,3.2,14.5s-22.1-1.5-24.7-3
		S301.6,212.2,301.6,212.2z"/>
	<path id="Caminho_818" class="st28" d="M329.5,222.6c-9.5,0.1-22.1-1.5-24.7-3c-1.9-1.2-2.7-5.4-3-7.3h-0.3c0,0,0.5,6.8,3.1,8.3
		s15.1,3.1,24.7,3c2.8,0,3.7-1,3.6-2.4C332.6,222.1,331.6,222.6,329.5,222.6z"/>
	<path id="Caminho_819" class="st25" d="M64,26.9h-2.3c0.9,0,1.6-0.6,1.7-1.5c0-0.9-0.6-1.6-1.5-1.7c0,0-0.1,0-0.1,0H43.4
		c-0.9,0-1.6,0.8-1.5,1.7c0,0.8,0.7,1.5,1.5,1.5h2.3c-0.9,0-1.6,0.8-1.5,1.7c0,0.8,0.7,1.5,1.5,1.5h-3.2c-0.9,0-1.6,0.8-1.5,1.7
		c0,0.8,0.7,1.5,1.5,1.5h18.3c0.9,0,1.6-0.6,1.7-1.5c0-0.9-0.6-1.6-1.5-1.7c0,0-0.1,0-0.1,0H64c0.9,0,1.6-0.8,1.5-1.7
		C65.5,27.6,64.8,26.9,64,26.9L64,26.9z"/>
</g>
</svg>
