<?xml version="1.0" encoding="utf-8"?>
<!-- Generator: Adobe Illustrator 25.0.1, SVG Export Plug-In . SVG Version: 6.00 Build 0)  -->
<svg version="1.1" id="Camada_1" xmlns="http://www.w3.org/2000/svg" xmlns:xlink="http://www.w3.org/1999/xlink" x="0px" y="0px"
	 viewBox="0 0 341.1 235.5" style="enable-background:new 0 0 341.1 235.5;" xml:space="preserve">
<style type="text/css">
	.st0{opacity:0.1;fill:#F86464;enable-background:new    ;}
	.st1{fill:#F86464;}
	.st2{fill:#444053;}
	.st3{fill:#3F3D56;}
	.st4{fill:#FFFFFF;}
	.st5{opacity:0.8;fill:#FA5959;enable-background:new    ;}
	.st6{opacity:0.8;fill:#FED253;enable-background:new    ;}
	.st7{opacity:0.8;fill:#8CCF4D;enable-background:new    ;}
	.st8{opacity:5.000000e-02;enable-background:new    ;}
	.st9{fill:url(#Caminho_2649_1_);}
	.st10{fill:#FBBEBE;}
	.st11{opacity:0.1;enable-background:new    ;}
	.st12{fill:#33313F;}
	.st13{opacity:0.1;}
</style>
<g id="Grupo_1337" transform="translate(0 0.006)">
	<path id="Caminho_2596" class="st0" d="M192.9,32.1c-21.9,0-42.9-6.2-63-13.1S89.8,4.4,68.3,1.1C54.5-1,38.8-0.8,28.1,6.9
		c-10.4,7.3-13.4,19.5-14.8,30.7c-1.1,8.4-1.6,17.3,2.5,25c2.8,5.4,7.7,9.8,11.1,14.9c11.9,17.8,4.8,40.5-6.8,58.6
		c-5.4,8.5-11.8,16.7-15.9,25.7s-5.8,19.2-1.6,28.1c4.2,8.8,13.6,15.2,23.6,19.6c20.5,8.9,44.3,10.8,67.5,11.5
		c51.3,1.6,102.8-1.7,154.1-5c19-1.2,38.1-2.5,56.7-6c10.3-2,21-4.9,28.3-11.3c9.3-8.2,11.2-21.5,4.4-31
		c-11.3-16.1-41.2-19.1-49.4-36.4c-4.5-9.6-0.6-20.5,5.1-29.7C305,81.7,326,64,326.3,41.9c0.2-15.2-10.7-30-27-36.6
		c-17.1-6.9-40.5-5.1-52.4,7.8C234.6,26.3,212.2,32,192.9,32.1z"/>
	<path id="Caminho_2597" class="st1" d="M290.3,188.8c0,0-3.6-2.4-7.2-0.7c0,0,1.1,2.1,5.6,1.9L290.3,188.8z"/>
	<path id="Caminho_2598" class="st1" d="M290.8,188.9c0,0,1.1,4.2-1.7,7c0,0-1.7-1.7,0-5.9L290.8,188.9z"/>
	<path id="Caminho_2599" class="st1" d="M295.2,184.9c0,0-0.3-3.5-8.3-2.4c0.1,1.6,1.2,2.9,2.8,3.4
		C292.5,187,293.8,186.1,295.2,184.9z"/>
	<path id="Caminho_2600" class="st1" d="M295.7,184.9c0,0,3.4,1.1,0.4,8.6c-1.5-0.5-2.6-1.9-2.6-3.5
		C293.1,187,294.2,185.9,295.7,184.9z"/>
	<path id="Caminho_2601" class="st1" d="M300.2,179.8c0,0,0.5-5.8-7.7-5.2c0,0-0.6,5.3,6.3,6.6L300.2,179.8z"/>
	<path id="Caminho_2602" class="st1" d="M305.6,173.3c0,0-1.1-6.6-9.3-4.6c0,0,0,5.7,8,6.2L305.6,173.3z"/>
	<path id="Caminho_2603" class="st1" d="M309.6,166.4c0,0-1.9-6.4-10-4.5c0,0,1.9,5.8,9.4,5.7L309.6,166.4z"/>
	<path id="Caminho_2604" class="st1" d="M313.3,159.8c0,0-1.8-6.7-9.7-4.7c0,0,2.6,6.3,9.1,5.8L313.3,159.8z"/>
	<path id="Caminho_2605" class="st1" d="M315.8,153.5c0,0-1.4-8.2-8.7-6.4c0,0,2.1,7.4,8.2,7.5L315.8,153.5z"/>
	<path id="Caminho_2606" class="st1" d="M318,145.9c0,0-1.7-8.2-9.1-5.8c0,0,2.9,7.8,8.5,7L318,145.9z"/>
	<path id="Caminho_2607" class="st1" d="M319.4,138.8c0,0-2.7-8.2-8.4-8c0,0,2.7,8.7,7.9,9.7L319.4,138.8z"/>
	<path id="Caminho_2608" class="st1" d="M320.3,131.8c0,0-2.9-9.9-7.6-9.1c0,0,2,7.6,7.4,10.7L320.3,131.8z"/>
	<path id="Caminho_2609" class="st1" d="M320.8,123.6c0,0-2.7-8.3-7.3-8.6c0,0,1.9,8.1,7.2,10.7L320.8,123.6z"/>
	<path id="Caminho_2610" class="st1" d="M321.4,115.9c0,0-3.4-8.3-6.4-8.5c0,0,1.5,8.1,6.1,9.8L321.4,115.9z"/>
	<path id="Caminho_2611" class="st1" d="M321.8,108.7c0,0-2.1-9-5.1-9.7c0,0,0.4,7.3,4.8,10.4L321.8,108.7z"/>
	<path id="Caminho_2612" class="st1" d="M322.9,99.3c0,0-2.2-7.2-4.7-8.2c0,0,0.5,8.4,4.1,10L322.9,99.3z"/>
	<path id="Caminho_2613" class="st1" d="M323.8,93.2l0.4-12.6c0,0-4.6,9.5-0.8,14.8L323.8,93.2z"/>
	<path id="Caminho_2614" class="st1" d="M327.4,80.6c0,0,3.3-9.2,4.1-9.7c0,0-6.5,6-5.8,13.7L327.4,80.6z"/>
	<path id="Caminho_2615" class="st1" d="M300.5,179.8c0,0,5.8-0.8,5.6,7.4c0,0-5.2,0.9-6.9-5.9L300.5,179.8z"/>
	<path id="Caminho_2616" class="st1" d="M305.9,173c0,0,6.7,0,6.1,8.4c0,0-5.6,1-7.5-6.8L305.9,173z"/>
	<path id="Caminho_2617" class="st1" d="M309.7,167c0,0,6.1-2.9,10,4.5c0,0-5.6,2.4-10.5-3.3L309.7,167z"/>
	<path id="Caminho_2618" class="st1" d="M313.5,159.9c0,0,6.2-3,9.9,4.2c0,0-6.5,2.2-10.4-3L313.5,159.9z"/>
	<path id="Caminho_2619" class="st1" d="M315.7,153.7c0,0,6-5.7,10.8,0.1c0,0-6.1,4.7-11.1,1.2L315.7,153.7z"/>
	<path id="Caminho_2620" class="st1" d="M317.7,145.7c0,0,6-5.8,10.8,0.3c0,0-6.8,4.8-11,1L317.7,145.7z"/>
	<path id="Caminho_2621" class="st1" d="M318.8,138.5c0,0,4.6-7.3,10.1-5.7c0,0-4.8,7.7-10.1,7.4L318.8,138.5z"/>
	<path id="Caminho_2622" class="st1" d="M320.2,131.8c0,0,4.7-9.2,9.1-7.6c0,0-3.4,7.1-9.2,9.2L320.2,131.8z"/>
	<path id="Caminho_2623" class="st1" d="M320.5,123.1c0,0,4.8-7.2,9.3-6.4c0,0-3.9,7.4-9.8,8.5L320.5,123.1z"/>
	<path id="Caminho_2624" class="st1" d="M320.9,115.7c0,0,3.7-8.1,6.8-8.2c0,0-1.8,8.1-6.5,9.6L320.9,115.7z"/>
	<path id="Caminho_2625" class="st1" d="M321.6,108.5c0,0,4.1-8.2,7.3-8.3c0,0-2.1,7-7.1,9L321.6,108.5z"/>
	<path id="Caminho_2626" class="st1" d="M322.2,99.8c0,0,3.1-6.8,5.7-7.6c0,0-1.6,8.3-5.3,9.4L322.2,99.8z"/>
	<path id="Caminho_2627" class="st1" d="M324.2,92.9l6.9-10.6c0,0-1.8,10.4-7.9,12.6L324.2,92.9z"/>
	<path id="Caminho_2628" class="st1" d="M329,81.5c0,0,8.1-5.6,8.3-6.5c0,0-4.1,7.8-11.7,9.2L329,81.5z"/>
	<path id="Caminho_2629" class="st1" d="M329.5,79c0,0,9.2-8.9,11.6-8.9c-5.1,0.6-9.6,3.8-11.8,8.4L329.5,79z"/>
	<path id="Caminho_2630" class="st2" d="M322.3,101.1l0.3,0c1.7-13.6,4.3-21.6,7.1-22.6l-0.1-0.3C326.6,79.3,324.1,87.2,322.3,101.1
		z"/>
	<path id="Caminho_2631" class="st2" d="M319.8,133.7l0.5,0c0.1-1.3,0.2-2.6,0.2-3.9c0.5-11.3,1.2-21.6,2.2-29.3l-0.3-0.4
		c-1,7.8-2,18.4-2.4,29.7C320,131.1,319.9,132.4,319.8,133.7z"/>
	<path id="Caminho_2632" class="st2" d="M280.8,195.2c6.9-3.4,13.1-8,18.3-13.6c5.4-5.6,10-12,13.4-19c4.3-8.8,6.9-19.5,7.8-30
		l-0.5,0.2c-2,23.5-12.7,39.5-21.1,48.2c-5.2,5.5-11.4,10.1-18.2,13.5L280.8,195.2z"/>
	<path id="Caminho_2633" class="st3" d="M304,24.9H23c-1.4,0-2.5,1.1-2.5,2.5v7.3h286v-7.3C306.5,26,305.4,24.9,304,24.9
		C304,24.9,304,24.9,304,24.9z"/>
	<path id="Caminho_2634" class="st4" d="M20.5,34.7v164.2c0,2.8,2.3,5,5,5l0,0h276c2.8,0,5-2.3,5-5l0,0V34.7H20.5z"/>
	<circle id="Elipse_335" class="st5" cx="25" cy="29.8" r="1.2"/>
	<circle id="Elipse_336" class="st6" cx="28.2" cy="29.8" r="1.2"/>
	<circle id="Elipse_337" class="st7" cx="31.4" cy="29.8" r="1.2"/>
	<rect id="Ret창ngulo_865" x="47.1" y="62.1" class="st8" width="229.9" height="101.1"/>
	<rect id="Ret창ngulo_866" x="48.8" y="62.9" class="st3" width="226.4" height="98.9"/>
	<path id="Caminho_2635" class="st1" d="M110.5,88.3C98.1,88.3,88,98.4,88,110.8c0,12.4,10.1,22.5,22.5,22.5
		c12.4,0,22.5-10.1,22.5-22.5C133,98.4,123,88.3,110.5,88.3C110.5,88.3,110.5,88.3,110.5,88.3z M114.6,111.4V122h-8v-10.7
		c-2.9-2.2-3.5-6.3-1.3-9.2s6.3-3.5,9.2-1.3c2.9,2.2,3.5,6.3,1.3,9.2C115.5,110.6,115,111,114.6,111.4L114.6,111.4z"/>
	<path id="Caminho_2636" class="st8" d="M110.5,88.3C98.1,88.3,88,98.4,88,110.8c0,12.4,10.1,22.5,22.5,22.5
		c12.4,0,22.5-10.1,22.5-22.5C133,98.4,123,88.3,110.5,88.3C110.5,88.3,110.5,88.3,110.5,88.3z M114.6,111.4V122h-8v-10.7
		c-2.9-2.2-3.5-6.3-1.3-9.2s6.3-3.5,9.2-1.3c2.9,2.2,3.5,6.3,1.3,9.2C115.5,110.6,115,111,114.6,111.4L114.6,111.4z"/>
	<path id="Caminho_2637" class="st1" d="M110.5,81.9c-16,0-29,13-29,29c0,16,13,29,29,29c16,0,29-13,29-29l0,0
		C139.5,94.8,126.5,81.9,110.5,81.9z M115.7,111.5v13.7h-10.2v-13.7c-3.7-2.8-4.5-8.1-1.6-11.9c2.8-3.7,8.1-4.5,11.9-1.6
		c3.7,2.8,4.5,8.1,1.6,11.9C116.9,110.5,116.3,111,115.7,111.5L115.7,111.5z"/>
	<rect id="Ret창ngulo_867" x="151.5" y="107" class="st4" width="93.6" height="9.9"/>
	<rect id="Ret창ngulo_868" x="224.9" y="125.2" class="st1" width="20.2" height="9.9"/>
	<path id="Caminho_2638" class="st1" d="M160.7,111.8H159l1.5-1.5c0.1-0.1,0.1-0.2,0-0.2c-0.1-0.1-0.1-0.1-0.2,0c0,0,0,0,0,0
		l-1.5,1.5v-1.7c0-0.1-0.1-0.1-0.1-0.1c-0.1,0-0.1,0.1-0.1,0.1v1.7l-1.5-1.5c-0.1-0.1-0.1-0.1-0.2,0c0,0,0,0,0,0
		c-0.1,0.1-0.1,0.2,0,0.2l1.5,1.5h-1.7c-0.1,0-0.1,0.1-0.1,0.1c0,0.1,0.1,0.1,0.1,0.1h1.7l-1.5,1.5c-0.1,0.1-0.1,0.2,0,0.2
		c0.1,0.1,0.1,0.1,0.2,0l1.5-1.5v1.7c0,0.1,0.1,0.1,0.1,0.1c0.1,0,0.1-0.1,0.1-0.1v-1.7l1.5,1.5c0.1,0.1,0.1,0.1,0.2,0
		c0.1-0.1,0.1-0.2,0-0.2l-1.5-1.5h1.7c0.1,0,0.1-0.1,0.1-0.1S160.8,111.8,160.7,111.8C160.7,111.8,160.7,111.8,160.7,111.8
		L160.7,111.8z"/>
	<path id="Caminho_2639" class="st1" d="M166.8,111.8h-1.7l1.5-1.5c0.1-0.1,0.1-0.2,0-0.2c-0.1-0.1-0.1-0.1-0.2,0c0,0,0,0,0,0
		l-1.5,1.5v-1.7c0-0.1-0.1-0.1-0.1-0.1c-0.1,0-0.1,0.1-0.1,0.1v1.7l-1.5-1.5c-0.1-0.1-0.1-0.1-0.2,0c0,0,0,0,0,0
		c-0.1,0.1-0.1,0.2,0,0.2l1.5,1.5h-1.7c-0.1,0-0.1,0.1-0.1,0.1c0,0.1,0.1,0.1,0.1,0.1h1.7l-1.5,1.5c-0.1,0.1-0.1,0.2,0,0.2
		c0.1,0.1,0.1,0.1,0.2,0l1.5-1.5v1.7c0,0.1,0.1,0.1,0.1,0.1c0.1,0,0.1-0.1,0.1-0.1v-1.7l1.5,1.5c0.1,0.1,0.1,0.1,0.2,0
		c0.1-0.1,0.1-0.2,0-0.2l-1.5-1.5h1.7c0.1,0,0.1-0.1,0.1-0.1S166.9,111.8,166.8,111.8C166.8,111.8,166.8,111.8,166.8,111.8
		L166.8,111.8z"/>
	<path id="Caminho_2640" class="st1" d="M173,111.8h-1.7l1.5-1.5c0.1-0.1,0.1-0.2,0-0.2c-0.1-0.1-0.1-0.1-0.2,0c0,0,0,0,0,0
		l-1.5,1.5v-1.7c0-0.1-0.1-0.1-0.1-0.1c-0.1,0-0.1,0.1-0.1,0.1v1.7l-1.5-1.5c-0.1-0.1-0.1-0.1-0.2,0c0,0,0,0,0,0
		c-0.1,0.1-0.1,0.2,0,0.2l1.5,1.5h-1.7c-0.1,0-0.1,0.1-0.1,0.1c0,0.1,0.1,0.1,0.1,0.1h1.7l-1.5,1.5c-0.1,0.1-0.1,0.2,0,0.2
		c0.1,0.1,0.1,0.1,0.2,0l1.5-1.5v1.7c0,0.1,0.1,0.1,0.1,0.1c0.1,0,0.1-0.1,0.1-0.1v-1.7l1.5,1.5c0.1,0.1,0.1,0.1,0.2,0
		c0.1-0.1,0.1-0.2,0-0.2l-1.5-1.5h1.7c0.1,0,0.1-0.1,0.1-0.1S173,111.8,173,111.8C173,111.8,173,111.8,173,111.8L173,111.8z"/>
	<path id="Caminho_2641" class="st1" d="M179.1,111.8h-1.7l1.5-1.5c0.1-0.1,0.1-0.2,0-0.2c-0.1-0.1-0.1-0.1-0.2,0c0,0,0,0,0,0
		l-1.5,1.5v-1.7c0-0.1-0.1-0.1-0.1-0.1c-0.1,0-0.1,0.1-0.1,0.1v1.7l-1.5-1.5c-0.1-0.1-0.1-0.1-0.2,0c0,0,0,0,0,0
		c-0.1,0.1-0.1,0.2,0,0.2l1.5,1.5H175c-0.1,0-0.1,0.1-0.1,0.1c0,0.1,0.1,0.1,0.1,0.1h1.7l-1.5,1.5c-0.1,0.1-0.1,0.2,0,0.2
		c0.1,0.1,0.1,0.1,0.2,0l1.5-1.5v1.7c0,0.1,0.1,0.1,0.1,0.1c0.1,0,0.1-0.1,0.1-0.1v-1.7l1.5,1.5c0.1,0.1,0.1,0.1,0.2,0
		c0.1-0.1,0.1-0.2,0-0.2l-1.5-1.5h1.7c0.1,0,0.1-0.1,0.1-0.1S179.2,111.8,179.1,111.8C179.1,111.8,179.1,111.8,179.1,111.8
		L179.1,111.8z"/>
	<path id="Caminho_2642" class="st1" d="M185.3,111.8h-1.7l1.5-1.5c0.1-0.1,0.1-0.2,0-0.2c-0.1-0.1-0.1-0.1-0.2,0c0,0,0,0,0,0
		l-1.5,1.5v-1.7c0-0.1-0.1-0.1-0.1-0.1c-0.1,0-0.1,0.1-0.1,0.1v1.7l-1.5-1.5c-0.1-0.1-0.1-0.1-0.2,0c0,0,0,0,0,0
		c-0.1,0.1-0.1,0.2,0,0.2l1.5,1.5h-1.7c-0.1,0-0.1,0.1-0.1,0.1c0,0.1,0.1,0.1,0.1,0.1h1.7l-1.5,1.5c-0.1,0.1-0.1,0.2,0,0.2
		c0.1,0.1,0.1,0.1,0.2,0l1.5-1.5v1.7c0,0.1,0.1,0.1,0.1,0.1c0.1,0,0.1-0.1,0.1-0.1v-1.7l1.5,1.5c0.1,0.1,0.1,0.1,0.2,0
		c0.1-0.1,0.1-0.2,0-0.2l-1.5-1.5h1.7c0.1,0,0.1-0.1,0.1-0.1S185.3,111.8,185.3,111.8C185.3,111.8,185.3,111.8,185.3,111.8
		L185.3,111.8z"/>
	<path id="Caminho_2643" class="st1" d="M191.4,111.8h-1.7l1.5-1.5c0.1-0.1,0.1-0.2,0-0.2c-0.1-0.1-0.1-0.1-0.2,0c0,0,0,0,0,0
		l-1.5,1.5v-1.7c0-0.1-0.1-0.1-0.1-0.1c-0.1,0-0.1,0.1-0.1,0.1v1.7l-1.5-1.5c-0.1-0.1-0.1-0.1-0.2,0c0,0,0,0,0,0
		c-0.1,0.1-0.1,0.2,0,0.2l1.5,1.5h-1.7c-0.1,0-0.1,0.1-0.1,0.1c0,0.1,0.1,0.1,0.1,0.1h1.7l-1.5,1.5c-0.1,0.1-0.1,0.2,0,0.2
		c0.1,0.1,0.1,0.1,0.2,0l1.5-1.5v1.7c0,0.1,0.1,0.1,0.1,0.1c0.1,0,0.1-0.1,0.1-0.1v-1.7l1.5,1.5c0.1,0.1,0.1,0.1,0.2,0
		c0.1-0.1,0.1-0.2,0-0.2l-1.5-1.5h1.7c0.1,0,0.1-0.1,0.1-0.1S191.5,111.8,191.4,111.8C191.4,111.8,191.4,111.8,191.4,111.8
		L191.4,111.8z"/>
	<path id="Caminho_2644" class="st1" d="M197.5,111.8h-1.7l1.5-1.5c0.1-0.1,0.1-0.2,0-0.2c-0.1-0.1-0.1-0.1-0.2,0c0,0,0,0,0,0
		l-1.5,1.5v-1.7c0-0.1-0.1-0.1-0.1-0.1c-0.1,0-0.1,0.1-0.1,0.1v1.7l-1.5-1.5c-0.1-0.1-0.1-0.1-0.2,0c0,0,0,0,0,0
		c-0.1,0.1-0.1,0.2,0,0.2l1.5,1.5h-1.7c-0.1,0-0.1,0.1-0.1,0.1c0,0.1,0.1,0.1,0.1,0.1h1.7l-1.5,1.5c-0.1,0.1-0.1,0.2,0,0.2
		c0.1,0.1,0.1,0.1,0.2,0l1.5-1.5v1.7c0,0.1,0.1,0.1,0.1,0.1c0.1,0,0.1-0.1,0.1-0.1v-1.7l1.5,1.5c0.1,0.1,0.1,0.1,0.2,0
		c0.1-0.1,0.1-0.2,0-0.2l-1.5-1.5h1.7c0.1,0,0.1-0.1,0.1-0.1S197.6,111.8,197.5,111.8C197.5,111.8,197.5,111.8,197.5,111.8
		L197.5,111.8z"/>
	<path id="Caminho_2645" class="st1" d="M203.7,111.8H202l1.5-1.5c0.1-0.1,0.1-0.2,0-0.2c-0.1-0.1-0.1-0.1-0.2,0c0,0,0,0,0,0
		l-1.5,1.5v-1.7c0-0.1-0.1-0.1-0.1-0.1c-0.1,0-0.1,0.1-0.1,0.1v1.7l-1.5-1.5c-0.1-0.1-0.1-0.1-0.2,0c0,0,0,0,0,0
		c-0.1,0.1-0.1,0.2,0,0.2l1.5,1.5h-1.7c-0.1,0-0.1,0.1-0.1,0.1c0,0.1,0.1,0.1,0.1,0.1h1.7l-1.5,1.5c-0.1,0.1-0.1,0.2,0,0.2
		c0.1,0.1,0.1,0.1,0.2,0l1.5-1.5v1.7c0,0.1,0.1,0.1,0.1,0.1c0.1,0,0.1-0.1,0.1-0.1c0,0,0,0,0,0v-1.7l1.5,1.5c0.1,0.1,0.1,0.1,0.2,0
		c0.1-0.1,0.1-0.2,0-0.2l-1.5-1.5h1.7c0.1,0,0.1-0.1,0.1-0.1S203.8,111.8,203.7,111.8C203.7,111.8,203.7,111.8,203.7,111.8
		L203.7,111.8z"/>
	<path id="Caminho_2646" class="st1" d="M209.8,111.8h-1.7l1.5-1.5c0.1-0.1,0.1-0.2,0-0.2c-0.1-0.1-0.1-0.1-0.2,0c0,0,0,0,0,0
		l-1.5,1.5v-1.7c0-0.1-0.1-0.1-0.1-0.1c-0.1,0-0.1,0.1-0.1,0.1v1.7l-1.5-1.5c-0.1-0.1-0.1-0.1-0.2,0c0,0,0,0,0,0
		c-0.1,0.1-0.1,0.2,0,0.2l1.5,1.5h-1.7c-0.1,0-0.1,0.1-0.1,0.1c0,0.1,0.1,0.1,0.1,0.1h1.7l-1.5,1.5c-0.1,0.1-0.1,0.2,0,0.2
		c0.1,0.1,0.1,0.1,0.2,0l1.5-1.5v1.7c0,0.1,0.1,0.1,0.1,0.1c0.1,0,0.1-0.1,0.1-0.1v-1.7l1.5,1.5c0.1,0.1,0.1,0.1,0.2,0
		c0.1-0.1,0.1-0.2,0-0.2l-1.5-1.5h1.7c0.1,0,0.1-0.1,0.1-0.1S209.9,111.8,209.8,111.8C209.8,111.8,209.8,111.8,209.8,111.8
		L209.8,111.8z"/>
	<path id="Caminho_2647" class="st1" d="M216,111.8h-1.7l1.5-1.5c0.1-0.1,0.1-0.2,0-0.2c-0.1-0.1-0.1-0.1-0.2,0c0,0,0,0,0,0
		l-1.5,1.5v-1.7c0-0.1-0.1-0.1-0.1-0.1c-0.1,0-0.1,0.1-0.1,0.1v1.7l-1.5-1.5c-0.1-0.1-0.1-0.1-0.2,0c0,0,0,0,0,0
		c-0.1,0.1-0.1,0.2,0,0.2l1.5,1.5h-1.7c-0.1,0-0.1,0.1-0.1,0.1c0,0.1,0.1,0.1,0.1,0.1h1.7l-1.5,1.5c-0.1,0.1-0.1,0.2,0,0.2
		c0.1,0.1,0.1,0.1,0.2,0l1.5-1.5v1.7c0,0.1,0.1,0.1,0.1,0.1c0.1,0,0.1-0.1,0.1-0.1v-1.7l1.5,1.5c0.1,0.1,0.1,0.1,0.2,0
		c0.1-0.1,0.1-0.2,0-0.2l-1.5-1.5h1.7c0.1,0,0.1-0.1,0.1-0.1S216,111.8,216,111.8C216,111.8,216,111.8,216,111.8L216,111.8z"/>
	<path id="Caminho_2648" class="st1" d="M222.1,111.8h-1.7l1.5-1.5c0.1-0.1,0.1-0.2,0-0.2c-0.1-0.1-0.1-0.1-0.2,0c0,0,0,0,0,0
		l-1.5,1.5v-1.7c0-0.1-0.1-0.1-0.1-0.1c-0.1,0-0.1,0.1-0.1,0.1v1.7l-1.5-1.5c-0.1-0.1-0.1-0.1-0.2,0c0,0,0,0,0,0
		c-0.1,0.1-0.1,0.2,0,0.2l1.5,1.5H218c-0.1,0-0.1,0.1-0.1,0.1c0,0.1,0.1,0.1,0.1,0.1h1.7l-1.5,1.5c-0.1,0.1-0.1,0.2,0,0.2
		c0.1,0.1,0.1,0.1,0.2,0l1.5-1.5v1.7c0,0.1,0.1,0.1,0.1,0.1c0.1,0,0.1-0.1,0.1-0.1v-1.7l1.5,1.5c0.1,0.1,0.1,0.1,0.2,0
		c0.1-0.1,0.1-0.2,0-0.2l-1.5-1.5h1.7c0.1,0,0.1-0.1,0.1-0.1S222.2,111.8,222.1,111.8C222.1,111.8,222.1,111.8,222.1,111.8
		L222.1,111.8z"/>
	
		<linearGradient id="Caminho_2649_1_" gradientUnits="userSpaceOnUse" x1="-770.4023" y1="654.7561" x2="-769.4023" y2="654.7561" gradientTransform="matrix(44.7787 0 0 -112.6293 34722.4336 73923.8438)">
		<stop  offset="0" style="stop-color:#808080;stop-opacity:0.251"/>
		<stop  offset="0.54" style="stop-color:#808080;stop-opacity:0.122"/>
		<stop  offset="1" style="stop-color:#808080;stop-opacity:0.102"/>
	</linearGradient>
	<path id="Caminho_2649" class="st9" d="M269.2,147.4c0-0.4-0.1-0.7-0.1-1c-0.2-1.1-0.9-2-1.8-2.5c-1-0.3-2-0.7-2.9-1.2
		c-0.2-3.1,0.5-6.3-0.2-9.4c-0.4-1.1-0.7-2.2-0.9-3.3c-0.2-1.4,0.2-2.9-0.3-4.2c-0.5-1-1.4-1.8-2.5-2.1c-1.1-0.3-2.2-0.5-3.3-0.6
		c-1.4-0.1-5.9-0.7-7.5,0.6l0,0c-0.1,0.1-0.2,0.2-0.3,0.3l0,0c0,0-0.1,0.1-0.1,0.2l0,0c0,0.1-0.1,0.1-0.1,0.2l0,0c0,0.1,0,0.1,0,0.2
		v0.5c0,0.3,0.1,0.5,0.1,0.8c0,0.1,0,0.3,0,0.4c-0.1,0.3-0.3,0.7-0.5,0.9l0,0l-0.1,0.1c0,0-0.1,0.1-0.1,0.1s-0.1,0.1-0.1,0.1
		s0,0.1-0.1,0.1c0,0-0.1,0.1-0.1,0.1c0,0,0,0.1,0,0.1c0,0.1-0.1,0.2-0.1,0.2c-0.1,0.3-0.1,0.5,0,0.8c0.1,0.3,0.2,0.6,0.4,0.9
		c0.1,0.1,0.2,0.2,0.2,0.4l0.2,0.3c0,0.3-0.1,0.5-0.1,0.8c0,1.9,0.9,3.6,2.3,4.8c0.1,1.2,0.1,2.5,0,3.7c0,0.3-0.1,0.5-0.1,0.8
		s-0.1,0.4-0.1,0.6c-0.4,0.1-0.9,0-1.3-0.1c-0.2-0.1-0.4-0.2-0.6-0.2c-0.9-0.2-1.7,0.6-2.6,0.4c0,0,0,0.1,0,0.1
		c-0.2-0.1-0.4-0.2-0.6-0.2c-0.5-0.1-0.9-0.3-1.3-0.7l-1.1-1c-0.1-0.1-0.1-0.1-0.2-0.2c-0.1-0.1-0.1-0.2-0.1-0.4
		c-0.2-0.6-0.6-1.1-1.1-1.5c-0.1-0.1-0.2-0.2-0.3-0.2c0,0-0.1,0-0.1,0c0,0-0.1-0.1-0.1-0.1c-0.1-0.1-0.2-0.2-0.2-0.2
		c-0.5-0.5-0.6-0.9-1-1.5c-0.4-0.5-0.8-1.1-1.1-1.7c0-0.3-0.1-0.6-0.2-0.9c-0.1-0.7-0.4-1.4-0.6-2.1l-0.6-1.3l-0.1,0.1
		c-0.4-0.6-0.9-1-1.3-0.9c-0.7,0.1-1,1.5-0.9,3.2l0.2,1.8c0,0,0,0.1,0,0.1c0,0.2-0.1,0.4-0.1,0.6c0,0.2,0.2,0.4,0.3,0.6
		c0.2,0.3,0.3,0.6,0.3,1c0,0.1-0.1,0.2-0.1,0.4c0,0.3,0.1,0.5,0.3,0.8l1.5,2.5l0.3,0.5l0,0c0.1,0.2,0.2,0.3,0.4,0.5
		c0.1,0.6,0.2,1.2,0.5,1.8c0,0.1,0.1,0.2,0.2,0.3c0.4,0.6,0.9,1.2,1.4,1.8l0.7,0.8c0.7,0.8,1.4,1.5,2.1,2.2c0.3,0.3,0.6,0.5,0.9,0.7
		c0.4,0.1,0.8,0.1,1.1-0.2v1.1c0.3,0,0.6,0.3,0.6,0.6c0,0.1,0,0.2-0.1,0.3c-0.6,1.6-1.3,3.1-2.2,4.6c0.7,0.4,1.3,0.9,1.8,1.4
		c0.4,0.4,0.7,0.8,0.9,1.3c0,0.2,0,0.4,0.1,0.6c0.2,3.5-1.1,6.9-2.3,10.3c-0.4,0.9-0.7,1.9-0.7,2.9c-0.2,0.1-0.4,0.3-0.7,0.5
		c0.2,0.6,0.2,1.2,0.1,1.9c0,0.4-0.1,0.8-0.2,1.2c-0.1,0.3-0.3,0.5-0.4,0.8c-0.7,1.4-1,2.9-1.1,4.5c-0.1,0.9,0.3,2-0.2,2.9
		c-0.8,1.4-1.3,2.9-1.5,4.5c0,0.4,0,0.7-0.1,1c-0.1,0.3-0.3,0.5-0.3,0.8c-0.1,0.4-0.1,0.8-0.1,1.2c0.1,1.4-0.2,2.8-0.6,4.1
		c-0.5,1-0.6,2.1-0.5,3.2c-0.7,0.7-1.1,1.7-1.2,2.7c0,0.3,0,0.5-0.1,0.8c-0.1,0.3-0.2,0.5-0.4,0.7c-0.6,1.1-0.9,2.3-0.8,3.5
		c-0.8,1.2-1.4,2.6-1.6,4.1c-0.3,1.5-0.4,2.9-0.7,4.4c-0.6,1.9-1.1,3.8-1.4,5.8c-0.9,0.7-1.5,1.8-1.5,2.9c-0.1,1.1-0.3,2.2-0.7,3.3
		c-0.2,0.5-0.6,1-0.8,1.6c-0.2,0.4-0.3,0.9-0.4,1.3c-0.2,0.7-0.2,1.5-0.1,2.2c-0.2,0.3-0.5,0.5-0.9,0.7c0-0.2,0.1-0.4,0.1-0.5
		c-0.8,0.7-2.1,0.4-2.7,1.3c-0.4,0.6-0.2,1.3,0.3,1.7c0.2,0.1,0.4,0.2,0.6,0.3c1.4,0.6,2.9,0.8,4.5,0.7c0.2,0,0.3-0.1,0.5-0.2
		c0.2-0.1,0.4-0.3,0.5-0.5c0.2-0.4,0.5-0.7,0.7-1.1c0.5,0.2,1.1,0.3,1.6,0.4c0.1,0.5,0.1,0.9,0.1,1.4c0.3,0.1,0.7,0.1,0.8-0.2
		c0-0.1,0.1-0.2,0-0.3c0-0.2,0-0.5,0-0.8h0.1c0.9,0,1.8-0.1,2.6-0.5c-0.3-2.6,0.7-5.1,1.6-7.6c0.9-2.6,1.8-5.2,2.6-7.8
		c0.6-1.8,1.2-3.6,1.8-5.5c0.7-2.3,1.4-4.7,2.2-7c0.3-1,0.6-2,1-3.1c0.8-2.1,1.7-4.1,2.7-6c0.3-0.6,0.6-1.1,0.8-1.7
		c0.3-0.7,0.5-1.4,0.7-2.2c0.5-1.5,1.1-2.9,1.8-4.3c0,0,0-0.1,0.1-0.1c0.2,1,0.5,2,0.6,2.9c0.2,1.2,0.2,2.4,0,3.6
		c-0.2,0.8-0.3,1.6-0.4,2.5c0.2,1.1,0.5,2.2,1,3.3c0.2,0.8,0.3,1.7,0.3,2.5c0.1,1.3,0.8,2.8,0.3,4c-1.6,3.9-0.8,8.2-1.7,12.3
		c-0.5,2.1-1.9,4-1.8,6.2c0.1,1.5,0.2,3,0.4,4.5c0,0.5,0.2,0.9,0.4,1.4c0.1,0.2,0.3,0.4,0.4,0.7c-0.1,0-0.2,0.2-0.3,0.5
		c-0.3,0.8,0,1.6,0.6,2c0.3,0.1,0.5,0.2,0.8,0.3c0.4,0.1,0.8,0.2,1.2,0.2c0.1,0,0.3,0,0.4,0c0.5,0.2,0.9,0.4,1.4,0.5
		c0,0.1,0,0.2,0,0.4c0,0.1,0.1,0.2,0.2,0.3c0.1,0,0.2,0,0.2,0h1.6V235c0.4,0,0.7-0.1,1-0.3c0.1-0.2,0.2-0.4,0.3-0.6
		c0.4-1.5,0.9-2.9,1.3-4.4c0.5-1.6,0.7-3.3,0.6-5c-0.6-5.4,0.7-10.8,0.3-16.2c-0.2-3.2-0.1-6.5,0.5-9.7c0.1-0.7,0.3-1.5,0.4-2.2
		c0.1-1.4,0-2.7,0.1-4.1c0-0.5,0.1-0.9,0.2-1.4c0.4-2.9,0.6-5.9,0.6-8.8c0-1-0.1-2-0.2-2.9c0.3-0.1,0.6-0.2,0.8-0.5
		c0.2-0.4,0.3-0.8,0.2-1.2c0.1-1,0.4-2,0.8-3c0.5-1.3,0.8-2.7,1.1-4.1c0.3-1.1,0.5-2.3,0.5-3.4c0-0.1,0-0.2,0-0.4
		c0.1-0.1,0.2-0.2,0.3-0.3c0.1-0.2,0.1-0.4,0.1-0.5c0.1-0.7,0.2-1.5,0.3-2.2c0.1-0.5,0.2-1.1,0.2-1.6l0.9-6.5
		c0.1-0.6,0.2-1.1,0.2-1.7l0.2-1.7c0-0.2,0.1-0.4,0.1-0.6C269.9,150.4,269.3,148.8,269.2,147.4z M261.4,171.7
		c-0.4-0.8-0.6-1.7-0.6-2.5h0c0.1-0.3,0.1-0.6,0-0.8c-0.1-0.2-0.2-0.4-0.3-0.6c-0.1-0.3-0.2-0.5-0.2-0.8c-0.1-1.8,0.1-3.6,0.4-5.3
		c0-0.2,0.1-0.4,0.1-0.6c0.1-0.1,0.2-0.2,0.3-0.3c0.2-0.2,0.3-0.4,0.4-0.6c0.3-0.7,0.6-1.3,0.9-2c0.1-0.2,0.2-0.5,0.4-0.5
		c0,1.7,0.1,3.5-0.6,5c-0.1,0.2-0.2,0.5-0.3,0.8c-0.1,0.4,0.1,0.9,0.1,1.3c0,0.2-0.1,0.4-0.2,0.7c-0.1,0.2,0,0.5,0.2,0.6
		c0,0,0.1,0,0.1,0.1c0,0.1,0,0.2,0,0.4c0,0.2,0,0.5,0,0.6c-0.1,0.7-0.1,1.4-0.1,2.2c0,0.8,0,1.5,0,2.3c0,0.2,0,0.5-0.1,0.7
		c-0.1,0.1-0.1,0.2-0.2,0.3C261.6,172.2,261.5,172,261.4,171.7L261.4,171.7z"/>
	
		<ellipse id="Elipse_338" transform="matrix(0.9796 -0.2009 0.2009 0.9796 -21.9244 50.4169)" class="st10" cx="237.4" cy="133.2" rx="1.7" ry="4.7"/>
	<path id="Caminho_2650" class="st3" d="M252,231.8c-0.3,0.7,0,1.6,0.6,2c0.3,0.1,0.5,0.2,0.8,0.3c0.4,0.1,0.8,0.2,1.2,0.2
		c0.5,0,1-0.2,1.5-0.3c0.1,0,0.1,0,0.2,0c0,0.1,0.1,0.1,0.1,0.2c0,0.3,0,0.6,0.1,0.9c0,0.1,0.1,0.2,0.2,0.3c0.1,0,0.2,0,0.2,0h1.6
		c0-1.4-0.1-2.8-0.5-4.1c0-0.1-0.1-0.2-0.1-0.3c-0.1-0.1-0.3-0.2-0.5-0.3c-0.4-0.2-0.8-0.2-1.2-0.2c-0.5,0.1-1,0.4-1.4,0.7
		c-0.4,0.3-1,0.5-1.6,0.4C252.7,231.4,252.2,231,252,231.8z"/>
	<path id="Caminho_2651" class="st10" d="M228.7,230.5c-0.4,0.5-1,0.8-1.6,1.1l-0.3,0.1c0,0-0.1,0-0.1,0.1c0,0,0,0.1,0,0.1
		c0.5,0.7,1.3,1,2.1,0.8c0.2,0,0.3-0.1,0.5-0.2c0.2-0.3,0.4-0.6,0.4-0.9c0.1-0.4,0.1-0.7,0-1.1C229.3,229.5,229.1,230,228.7,230.5z"
		/>
	<path id="Caminho_2652" class="st3" d="M234.8,234.1c0,0.1,0,0.2,0,0.3c-0.1,0.3-0.5,0.3-0.8,0.2c0-1-0.2-2-0.4-3
		c-0.6,0-1,0.5-1.3,1l-0.8,1.2c-0.1,0.2-0.3,0.4-0.5,0.5c-0.2,0.1-0.3,0.1-0.5,0.2c-1.5,0.1-3-0.1-4.5-0.7c-0.2-0.1-0.4-0.1-0.6-0.3
		c-0.5-0.4-0.7-1.1-0.3-1.7c0.6-0.8,2-0.6,2.7-1.3c-0.1,0.5-0.2,0.9-0.4,1.4c1-0.2,1.7-1.1,2.5-1.7c0.2-0.2,0.5-0.3,0.7-0.3
		c0.2,0,0.4,0,0.6,0.1c0.9,0.2,1.8,0.7,2.6,1.3c0.4,0.2,0.7,0.6,0.9,1C234.9,233,234.8,233.5,234.8,234.1z"/>
	<circle id="Elipse_339" class="st10" cx="254.9" cy="131.6" r="6"/>
	<path id="Caminho_2653" class="st3" d="M266.8,167.2c0,1.2-0.2,2.3-0.5,3.4c-0.3,1.4-0.7,2.8-1.1,4.1c-0.4,0.9-0.7,2-0.8,3
		c0.1,0.4,0,0.9-0.2,1.2c-0.2,0.2-0.5,0.4-0.9,0.5c-0.3,0.1-0.6,0.3-0.7,0.6c-0.3-0.4-0.5-0.9-0.6-1.3c-0.5-1.6-1-3.2-1.5-4.8
		c-0.1-0.2-0.1-0.4,0-0.6c0.1-0.1,0.2-0.1,0.3-0.1c0.3-0.1,0.6-0.3,0.8-0.5c0.1-0.1,0.2-0.2,0.3-0.3c0.1-0.2,0.1-0.4,0.1-0.7
		c0-0.8,0-1.5,0-2.3c0-0.7,0-1.4,0.1-2.1c0-0.1,0-0.4,0-0.6c0-0.5,0.1-1,0.4-1.2c0.4-0.2,1.5,0.1,1.9,0.1c0.7,0.1,1.5,0.2,2.2,0.4
		C266.7,166.4,266.8,166.8,266.8,167.2z"/>
	<path id="Caminho_2654" class="st3" d="M242.4,138.3c-0.2,0.5-0.8,0.7-1.2,1l-1.5,1c-0.2,0.2-0.5,0.3-0.7,0.3
		c-0.2-0.1-0.4-0.3-0.5-0.5c0,0,0,0,0,0l-0.3-0.5l-1.5-2.5c-0.2-0.2-0.3-0.5-0.3-0.8c0-0.1,0-0.2,0.1-0.4c0-0.4-0.1-0.7-0.3-1
		c-0.1-0.2-0.4-0.4-0.3-0.6c0-0.3,0-0.6,0.2-0.9c0.2-0.3,0.4-0.5,0.6-0.7c0.1-0.1,0.3-0.2,0.4-0.3c0.1-0.1,0.2-0.1,0.3-0.1
		c0.2,0,0.5,0.2,0.7,0.2c1.1,0.7,1.5,2,2.3,3c0.5,0.5,0.5,1,1,1.5c0.1,0.1,0.2,0.2,0.2,0.2c0.1,0.1,0.2,0.2,0.3,0.4
		C241.9,137.8,242.5,138.1,242.4,138.3z"/>
	<path id="Caminho_2655" class="st10" d="M252.8,137.6c0.5,0.9,0.7,1.9,0.6,2.9c0,0.3-0.1,0.5-0.3,0.8c-0.5,0.6-1.3,0.9-2.1,0.8
		c-0.3,0-0.7,0.1-0.9,0.3c-0.2,0.3-0.2,0.7,0.1,1c0.2,0.3,0.6,0.5,0.9,0.6c1.2,0.6,2.5,0.9,3.9,0.9c0.6-0.1,1.2-0.2,1.8-0.3
		c0.7-0.1,1.3-0.1,2-0.1c0.8,0,1.6-0.1,2.4-0.2l2.1-0.2c0.1,0,0.2,0,0.3-0.1c0.2-0.2,0-0.4-0.2-0.6c-1.1-0.8-2.5-1.4-3.2-2.6
		c-0.2-0.6-0.4-1.3-0.6-1.9c-0.3-0.6-0.5-1.2-0.7-1.8c-0.1-0.6-0.1-1.1-0.1-1.7c0-0.6-0.2-1.1-0.6-1.6c-0.5-0.4-1-0.5-1.6-0.5
		c-1.4-0.1-2.8,0.3-3.9,1.3c-0.3,0.3-0.5,0.6-0.8,0.8s-0.6,0.3-0.5,0.6s0.5,0.5,0.7,0.8C252.5,137,252.6,137.3,252.8,137.6z"/>
	<path id="Caminho_2656" class="st3" d="M264.7,146.1c-0.4,2.3-1,4.5-1.8,6.6c-0.4,1-0.8,1.9-1.1,3c-0.2,0.9-0.2,1.9-0.4,2.8
		c-0.3,1.1-0.5,2.3-0.7,3.4c-0.3,1.7-0.5,3.5-0.4,5.3c0,0.3,0.1,0.6,0.2,0.8c0.1,0.2,0.3,0.4,0.3,0.6c0.1,0.4,0.1,0.8-0.1,1.2
		c-0.1,0.3-0.4,0.6-0.6,0.9c-2.7,0.8-5.6,0.5-8.5,0.7c-2.6,0.2-5.3,0.7-7.8,0.2c-0.1-1.2,0.1-2.4,0.6-3.5c1.2-3.3,2.6-6.8,2.3-10.2
		c0-0.4-0.1-0.8-0.1-1.2c-0.3-2.5-0.1-5,0.8-7.4c0.4-1.5,0.5-3.1,0.3-4.6c-0.1-0.5-0.1-1,0-1.5c0-0.5,0.2-1,0.5-1.4c0,0,0,0,0-0.1
		c0.1,0,0.1,0,0.2,0l0,0c0,0,0.1,0,0.1,0l0,0c0,0,0.1,0,0.1,0c0.1,0,0.1,0.2,0.3,0.2c0.2,0,0.4,0.1,0.7,0.1c0.3,0,0.5,0,0.8,0.1h0
		c0.4,0.1,0.8,0,1.1-0.1c0.2-0.1,0.5-0.2,0.7-0.3c0.1-0.1,0.5-0.1,0.5-0.2c0.3-0.2,0.2-0.9,0.3-1.2c0-0.3,0.1-0.6,0.2-0.9
		c0.3-0.4,0.7-0.7,1.3-0.7c0.5,0,1,0,1.5,0.1c1.1,0.2,2.2,0.1,3.3,0.4c0.5,0.2,1.1,0.2,1.6,0.1c0.1,0,0.2,0.1,0.2,0.3
		c0,0.1,0,0.3-0.1,0.4c-0.2,0.8,0.4,1.5,1,2.1c0.2,0.3,0.5,0.5,0.9,0.7c0.3,0.1,0.6,0.2,0.9,0.3c0.2,0.1,0.4,0.3,0.6,0.5
		c0.2,0.3,0.3,0.5,0.3,0.9C264.8,145,264.8,145.6,264.7,146.1L264.7,146.1z"/>
	<path id="Caminho_2657" class="st11" d="M264.7,146.1c-0.4,2.3-1,4.5-1.8,6.6c-0.4,1-0.8,1.9-1.1,3c-0.2,0.9-0.2,1.9-0.4,2.8
		c-0.3,1.1-0.5,2.3-0.7,3.4c-0.1,0-0.1,0.1-0.2,0.1c-0.4,0.2-0.7,0.3-1.1,0.4c-0.7,0.1-1.4,0.1-2.1-0.1l-4.2-0.6
		c-1.7-0.2-3.4-0.5-4.7-1.6c-0.6-0.7-1.2-1.4-1.6-2.2c0-0.4-0.1-0.8-0.1-1.2c-0.3-2.5-0.1-5,0.8-7.4c0.4-1.5,0.5-3.1,0.3-4.6
		c-0.1-0.5-0.1-1,0-1.5c0-0.5,0.2-1,0.5-1.4c0.1,0,0.2,0,0.3-0.1l0,0c0.1,0,0.1,0,0.2,0h0.1c0.1,0,0.2,0,0.3,0
		c0.2,0.1,0.4,0.1,0.6,0.2h0c0.3,0.1,0.5,0.1,0.8,0.1c0.4,0,0.8-0.1,1.2-0.1c0.5-0.1,1,0,1.4,0.2c0.3,0.2,0.5,0.5,0.8,0.7
		c0.3,0.2,0.6,0.4,1,0.5c2.5,1,5.3,0.9,7.8-0.2c0.2-0.1,0.5-0.2,0.8-0.2c0.2,0,0.4,0.1,0.6,0.2c0.2,0.1,0.3,0.2,0.5,0.3
		c0.2,0.3,0.3,0.5,0.3,0.9C264.8,145,264.8,145.6,264.7,146.1z"/>
	<path id="Caminho_2658" class="st1" d="M267.2,144.2c-1.2-0.4-2.3-0.8-3.3-1.5c-0.2-0.1-0.4-0.2-0.6-0.2c-0.3,0-0.5,0.1-0.8,0.2
		c-2.5,1.1-5.3,1.1-7.8,0.2c-0.4-0.1-0.7-0.3-1-0.5c-0.2-0.2-0.5-0.5-0.8-0.7c-1-0.6-2.3,0.1-3.4-0.3c-0.2-0.1-0.4-0.2-0.6-0.2
		c-0.9-0.2-1.7,0.6-2.6,0.4c-0.3,0.8-0.5,1.7-0.7,2.6c-0.1,1-0.2,2-0.2,3.1c0,0.6,0,1.2,0,1.9c0.3,0,0.6,0.3,0.6,0.6
		c0,0.1,0,0.2-0.1,0.3c-0.6,1.6-1.3,3.1-2.2,4.6c0.7,0.4,1.3,0.9,1.8,1.4c1,1.1,1.5,2.6,2.6,3.6c1.2,1.1,3,1.4,4.7,1.6l4.2,0.6
		c0.7,0.1,1.4,0.2,2.1,0.1c0.4-0.1,0.8-0.2,1.1-0.4c0.2-0.1,0.5-0.2,0.6-0.4c0.2-0.2,0.3-0.4,0.4-0.6c0.3-0.7,0.6-1.3,0.9-2
		c0.1-0.2,0.2-0.5,0.5-0.5c1.5-1.4,3-2.8,4.6-4.2c0.6-0.5,1.2-1.1,1.7-1.8c0.8-1.1,0.1-2.7,0-4.1c0-0.4-0.1-0.7-0.1-1
		C268.9,145.6,268.2,144.7,267.2,144.2z"/>
	<path id="Caminho_2659" class="st11" d="M242.4,138.3c-0.2,0.5-0.8,0.7-1.2,1l-1.5,1c-0.2,0.2-0.5,0.3-0.7,0.3
		c-0.2-0.1-0.4-0.3-0.5-0.5v-0.2c0-0.2,0-0.5,0.1-0.7c0.1-0.3,0.4-0.6,0.7-0.8c0.6-0.5,1.2-0.9,1.9-1.2c0.1,0,0.2-0.1,0.4,0
		c0,0,0.1,0,0.1,0.1c0.1,0.1,0.2,0.2,0.3,0.4C241.9,137.8,242.5,138.1,242.4,138.3z"/>
	<path id="Caminho_2660" class="st1" d="M245.9,141.4c-0.5-0.1-0.9-0.3-1.3-0.7l-1.1-1c-0.1-0.1-0.1-0.1-0.2-0.2
		c-0.1-0.1-0.1-0.2-0.1-0.4c-0.2-0.6-0.6-1.1-1.1-1.5c-0.1-0.1-0.2-0.2-0.3-0.2c-0.1,0-0.2,0-0.4,0c-0.7,0.2-1.4,0.6-1.9,1.2
		c-0.3,0.2-0.5,0.5-0.7,0.8c-0.1,0.2-0.1,0.5-0.1,0.7c0,0.8,0.2,1.5,0.5,2.2c0,0.1,0.1,0.2,0.2,0.3c0.4,0.6,0.9,1.2,1.4,1.8l0.7,0.8
		c0.7,0.8,1.4,1.5,2.1,2.2c0.3,0.3,0.6,0.5,0.9,0.7c0.4,0.1,0.8,0.1,1.1-0.2c0.1-0.2,0.2-0.4,0.3-0.6c0.5-1.2,0.8-2.4,0.9-3.6
		c0-0.5,0-1-0.1-1.5C246.8,141.7,246.4,141.5,245.9,141.4z"/>
	<path id="Caminho_2661" class="st12" d="M263.6,182.4c0,2.9-0.2,5.9-0.6,8.8c-0.1,0.5-0.1,0.9-0.2,1.4c-0.1,1.4,0.1,2.7-0.1,4.1
		c-0.1,0.7-0.2,1.5-0.3,2.2c-0.6,3.2-0.7,6.5-0.5,9.7c0.4,5.4-0.8,10.8-0.3,16.2c0.1,1,0,2.1-0.2,3.1c-0.1,0.6-0.3,1.3-0.5,1.9
		c-0.4,1.5-0.9,2.9-1.3,4.4c-0.1,0.2-0.2,0.4-0.3,0.6c-0.3,0.3-0.7,0.4-1.1,0.3c-1.7-0.2-3.3-0.7-4.8-1.5c-0.2-0.1-0.3-0.2-0.5-0.3
		c-0.3-0.3-0.3-0.9-0.4-1.3c-0.2-0.4-0.5-0.9-0.7-1.3c-0.2-0.4-0.3-0.9-0.3-1.3c-0.2-1.5-0.3-3-0.4-4.5c-0.1-2.1,1.3-4.1,1.8-6.1
		c0.9-4.1,0.1-8.4,1.7-12.3c0.5-1.2-0.2-2.7-0.3-4c0-0.8-0.1-1.7-0.3-2.5c-0.4-1.1-0.8-2.2-1-3.3c0-0.8,0.2-1.6,0.4-2.4
		c0.2-1.2,0.2-2.4,0-3.6c-0.2-1-0.4-2-0.6-2.9l-0.1,0.1c-0.7,1.4-1.3,2.8-1.8,4.3c-0.2,0.7-0.4,1.4-0.7,2.1
		c-0.2,0.6-0.5,1.1-0.8,1.7c-1,1.9-1.9,3.9-2.7,6c-0.4,1-0.7,2-1,3.1l-2.2,7c-0.6,1.8-1.2,3.6-1.8,5.5c-0.8,2.6-1.6,5.2-2.6,7.8
		c-0.9,2.4-1.9,5-1.6,7.6c-0.8,0.4-1.7,0.6-2.6,0.5c-1.5-0.1-3-0.5-4.4-1.1c-0.6-0.2-1.1-0.5-1.5-0.9c-0.5-0.9-0.6-2-0.3-3
		c0.1-0.5,0.2-0.9,0.4-1.3c0.2-0.5,0.6-1,0.8-1.5c0.4-1.1,0.6-2.2,0.7-3.3c0.1-1.1,0.6-2.2,1.5-2.9c0.3-2,0.8-3.9,1.4-5.8
		c0.3-1.4,0.4-2.9,0.7-4.4c0.2-1.5,0.7-2.9,1.6-4.1c-0.1-1.2,0.2-2.4,0.8-3.5c0.1-0.2,0.3-0.5,0.3-0.7c0.1-0.3,0.1-0.5,0.1-0.8
		c0.1-1,0.5-2,1.2-2.7c-0.2-1.1,0-2.2,0.5-3.2c0.5-1.3,0.7-2.7,0.6-4.1c0-0.4,0-0.8,0.1-1.2c0.1-0.3,0.2-0.5,0.3-0.8
		c0.1-0.3,0.1-0.7,0.1-1c0.2-1.6,0.7-3.1,1.5-4.5c0.4-0.8,0.1-1.9,0.2-2.9c0-1.5,0.4-3,1.1-4.4c0.1-0.3,0.3-0.5,0.4-0.8
		c0.2-0.4,0.2-0.8,0.2-1.2c0.1-0.6,0.1-1.2-0.1-1.8c1.7-1.2,3.7-1.8,5.7-1.8c2,0.1,4.1-0.1,6.1-0.3c0.6-0.1,1.2-0.3,1.8-0.4
		c1.4-0.1,2.8,0,4.2,0.4c0,0.9,0.2,1.8,0.6,2.5C262.8,175.2,263.6,178.8,263.6,182.4z"/>
	<path id="Caminho_2662" class="st11" d="M256.7,183l-3.4,7.6c-0.2-1-0.4-2-0.6-2.9l-0.1,0.1v-0.2l1.8-4L256.7,183z"/>
	<path id="Caminho_2663" class="st11" d="M266.8,167.2c-0.2,0.1-0.4,0.2-0.7,0.2c-0.4,0-0.7,0-1.1-0.1l-2.6-0.7
		c-0.1,0-0.2,0-0.2-0.1c0-0.5,0.1-1,0.4-1.2c0.4-0.2,1.5,0.1,1.9,0.1c0.7,0.1,1.5,0.2,2.2,0.4C266.7,166.4,266.8,166.8,266.8,167.2
		L266.8,167.2z"/>
	<path id="Caminho_2664" class="st1" d="M269,149.9c0.1,0.2,0.1,0.5,0.2,0.7c0.1,0.6,0.1,1.2-0.1,1.8l-0.2,1.7l-0.2,1.7l-0.9,6.5
		l-0.2,1.6l-0.3,2.2c0,0.2-0.1,0.4-0.1,0.5c-0.2,0.3-0.5,0.5-0.9,0.5c-0.4,0-0.7,0-1.1-0.1l-2.6-0.7c-0.1,0-0.2-0.1-0.3-0.1
		c-0.2-0.2-0.2-0.4-0.2-0.6c0-0.2,0.1-0.4,0.2-0.7c0.1-0.4-0.1-0.9-0.1-1.3c0.1-0.3,0.2-0.5,0.3-0.8c0.9-1.9,0.4-4.2,0.7-6.3
		c0.3-1.7,1-3.2,2-4.5c0.7-0.8,1.4-1.6,2.2-2.2c0.4-0.4,0.8-0.7,1.3-0.9C269,148.8,268.9,149.5,269,149.9z"/>
	<path id="Caminho_2665" class="st12" d="M249.1,124.7c-0.2,0.6,0.1,1.3,0,1.9c-0.1,0.7-0.8,1.2-1,1.9c-0.3,1.1,0.6,2,1.3,2.9
		c2.4,3.3,2.1,7.8,1.3,11.7c-0.7,3.2-1.6,6.3-2.8,9.4c-0.3,1-0.8,1.9-1.5,2.6c1.3-0.5,2.7-0.6,4.1-0.4c1.7,0.5,3.2,2.1,4.9,1.8
		c1-0.2,1.8-1.2,2.7-1.7c1.8-0.9,3.9-0.4,5.8,0c0.4,0.1,0.9,0.1,1.3-0.1c0.3-0.2,0.6-0.4,0.8-0.7c0.9-1.1,1.4-2.5,1.5-3.9
		c0.1-1.4-0.4-2.8-1.4-3.8c-0.4-0.3-0.9-0.7-1.2-1.2c-0.3-0.5-0.5-1.1-0.5-1.8c-0.2-3.2,0.6-6.5-0.3-9.6c-0.4-1.1-0.7-2.2-0.9-3.3
		c-0.2-1.4,0.2-2.9-0.3-4.2c-0.5-1-1.4-1.8-2.5-2.1c-1.1-0.3-2.2-0.5-3.3-0.6C255.5,123.3,249.8,122.6,249.1,124.7z"/>
	<g id="Grupo_1335" transform="translate(246.375 123.986)" class="st13">
		<path id="Caminho_2666" d="M4.3,19.1c-0.7,3.2-1.6,6.3-2.7,9.3C1.7,28,1.9,27.6,2,27.2c1.2-3,2.1-6.2,2.8-9.4
			c0.8-4,1.2-8.5-1.3-11.7C2.8,5.4,2.4,4.5,2.2,3.5C2,3.8,1.8,4.1,1.7,4.5C1.4,5.5,2.3,6.5,3,7.4C5.4,10.6,5.1,15.1,4.3,19.1z"/>
		<path id="Caminho_2667" d="M2.7,2.3C3,2,3.1,1.7,3.2,1.3c0-0.4,0-0.9,0-1.3C3,0.2,2.8,0.4,2.7,0.7C2.7,1.2,2.7,1.8,2.7,2.3z"/>
		<path id="Caminho_2668" d="M20.2,28.6c-0.2,0.3-0.5,0.5-0.8,0.7c-0.4,0.1-0.9,0.2-1.3,0.1c-2-0.3-4.1-0.9-5.8,0
			c-0.9,0.5-1.7,1.4-2.7,1.7c-1.7,0.4-3.2-1.3-4.9-1.8c-1.2-0.2-2.5-0.1-3.7,0.3c-0.2,0.5-0.6,1-1,1.4c1.3-0.5,2.7-0.6,4.1-0.4
			c1.7,0.5,3.2,2.1,4.9,1.8c1-0.2,1.8-1.2,2.7-1.7c1.8-0.9,3.9-0.4,5.8,0c0.4,0.1,0.9,0.1,1.3-0.1c0.3-0.2,0.6-0.4,0.8-0.7
			c0.5-0.7,0.9-1.5,1.2-2.3C20.6,28,20.4,28.3,20.2,28.6L20.2,28.6z"/>
	</g>
</g>
</svg>
