<?xml version="1.0" encoding="utf-8"?>
<!-- Generator: Adobe Illustrator 25.0.1, SVG Export Plug-In . SVG Version: 6.00 Build 0)  -->
<svg version="1.1" id="Camada_1" xmlns="http://www.w3.org/2000/svg" xmlns:xlink="http://www.w3.org/1999/xlink" x="0px" y="0px"
	 viewBox="0 0 342 262.8" style="enable-background:new 0 0 342 262.8;" xml:space="preserve">
<style type="text/css">
	.st0{fill:#F0F0F0;}
	.st1{fill:#3F3D56;}
	.st2{fill:#F86464;}
	.st3{opacity:0.1;enable-background:new    ;}
	.st4{fill:#2F2E41;}
	.st5{fill:#FFB8B8;}
	.st6{fill:#FF6584;}
	.st7{fill:#FFFFFF;}
</style>
<g id="Grupo_2059" transform="translate(-16 -183.218)">
	<g id="Illustration" transform="translate(16 183.218)">
		<path id="Caminho_609" class="st0" d="M78.7,181.9l26.5-41.6l-59.3-37.7l-30.6,48.2l49,31.2H78.7z"/>
		<path id="Caminho_610" class="st1" d="M116.3,194.8H50.7v-13.2h65.6V194.8z M51.5,194h63.9v-11.5H51.5V194z"/>
		<circle id="Elipse_83" class="st2" cx="108" cy="187.7" r="4"/>
		<ellipse id="Elipse_84" class="st2" cx="96.5" cy="187.7" rx="4.5" ry="4"/>
		<circle id="Elipse_85" class="st2" cx="84" cy="187.7" r="4"/>
		<ellipse id="Elipse_86" class="st2" cx="72.5" cy="187.7" rx="4.5" ry="4"/>
		<ellipse id="Elipse_87" class="st2" cx="60.5" cy="187.7" rx="4.5" ry="4"/>
		<path id="Caminho_611" class="st0" d="M194.2,48.1V15.8h16.2V0h-79.2v79.2h67.7v-7.7c0-6.1,4.9-11,11-11l0,0h0.5V48.1H194.2z"/>
		<rect id="Retângulo_437" x="230" y="204.7" class="st2" width="52" height="11"/>
		<rect id="Retângulo_438" x="216" y="150.7" class="st0" width="77" height="9"/>
		<rect id="Retângulo_439" y="261.7" class="st1" width="332" height="1"/>
		<path id="Caminho_612" class="st1" d="M306.7,262.8h-96.8c-6.3,0-11.4-5.1-11.4-11.4V71.5c0-6.3,5.1-11.4,11.4-11.4h96.8
			c6.3,0,11.4,5.1,11.4,11.4v179.9C318.1,257.7,313,262.8,306.7,262.8L306.7,262.8z M209.9,60.9c-5.8,0-10.6,4.7-10.6,10.6v179.9
			c0,5.8,4.7,10.6,10.6,10.6h96.8c5.8,0,10.6-4.7,10.6-10.6V71.5c0-5.8-4.7-10.6-10.6-10.6L209.9,60.9z"/>
		<path id="Caminho_613" class="st1" d="M246.8,68.6c-1.4,0-2.6-1.1-2.6-2.6s1.1-2.6,2.6-2.6c1.4,0,2.6,1.1,2.6,2.6l0,0
			C249.4,67.4,248.2,68.6,246.8,68.6z M246.8,64.3c-0.9,0-1.7,0.8-1.7,1.7c0,0.9,0.8,1.7,1.7,1.7c0.9,0,1.7-0.8,1.7-1.7
			S247.7,64.3,246.8,64.3L246.8,64.3z"/>
		<rect id="Retângulo_440" x="253.2" y="65.6" class="st1" width="18.7" height="0.9"/>
		<path id="Caminho_614" class="st2" d="M310.5,72.4v34.1c-18.8,0-34.1-15.3-34.1-34.1H310.5z"/>
		<path id="Caminho_615" class="st1" d="M310.9,251.3H205.7V72h105.2V251.3z M206.6,250.4h103.5V72.8H206.6L206.6,250.4z"/>
		<ellipse id="Elipse_88" class="st3" cx="286" cy="92.2" rx="11" ry="11.5"/>
		<ellipse id="Elipse_89" class="st2" cx="284" cy="93.7" rx="12" ry="11"/>
		<rect id="Retângulo_441" x="210" y="79.7" class="st1" width="16" height="6"/>
		<rect id="Retângulo_442" x="219" y="136.7" class="st1" width="16" height="6"/>
		<path id="Caminho_616" class="st1" d="M297.7,158h-78.4v-11.1h78.4L297.7,158z M220.2,157.2h76.7v-9.4h-76.7L220.2,157.2z"/>
		<rect id="Retângulo_443" x="216" y="182.7" class="st0" width="77" height="9"/>
		<rect id="Retângulo_444" x="219" y="167.7" class="st1" width="16" height="7"/>
		<path id="Caminho_617" class="st1" d="M297.7,190.4h-78.4v-11.1h78.4L297.7,190.4z M220.2,189.5h76.7v-9.4h-76.7L220.2,189.5z"/>
		<path id="Caminho_618" class="st1" d="M285.4,213h-53.7V201h53.7V213z M232.5,212.1h52v-10.2h-52V212.1z"/>
		<path id="Caminho_619" class="st2" d="M295.6,153.8c0,2.4-1.9,4.3-4.3,4.3c-1.3,0-2.5-0.6-3.3-1.5l0,0c-1.5-1.8-1.2-4.5,0.6-6
			c1.8-1.5,4.5-1.2,6,0.6c0.4,0.5,0.7,1.1,0.9,1.7l0,0l0,0C295.5,153.1,295.6,153.4,295.6,153.8z"/>
		<path id="Caminho_620" class="st3" d="M295.6,153.8c0,2.4-1.9,4.3-4.3,4.3c-1.3,0-2.5-0.6-3.3-1.5l0,0c-0.1-0.3-0.1-0.7-0.1-1
			c0-2.4,1.9-4.3,4.3-4.3c1.3,0,2.5,0.6,3.3,1.5l0,0l0,0C295.5,153.1,295.6,153.4,295.6,153.8z"/>
		<ellipse id="Elipse_90" class="st2" cx="293" cy="156.2" rx="4" ry="4.5"/>
		<path id="Caminho_621" class="st2" d="M295.6,186.1c0,2.4-1.9,4.3-4.3,4.3c-1.3,0-2.5-0.6-3.3-1.5l0,0c-1.5-1.8-1.2-4.5,0.6-6
			c1.8-1.5,4.5-1.2,6,0.6c0.4,0.5,0.7,1.1,0.9,1.7l0,0l0,0C295.5,185.4,295.6,185.8,295.6,186.1L295.6,186.1z"/>
		<path id="Caminho_622" class="st3" d="M295.6,186.1c0,2.4-1.9,4.3-4.3,4.3c-1.3,0-2.5-0.6-3.3-1.5l0,0c-0.1-0.3-0.1-0.7-0.1-1
			c0-2.4,1.9-4.3,4.3-4.3c1.3,0,2.5,0.6,3.3,1.5l0,0l0,0C295.5,185.4,295.6,185.8,295.6,186.1z"/>
		<ellipse id="Elipse_91" class="st2" cx="293" cy="188.7" rx="4" ry="5"/>
		<rect id="Retângulo_445" x="199" y="20.7" class="st0" width="22" height="22"/>
		<path id="Caminho_623" class="st1" d="M285.8,36.6c-2.8,0-5.1-2.3-5.1-5.1s2.3-5.1,5.1-5.1c2.8,0,5.1,2.3,5.1,5.1
			C290.9,34.3,288.6,36.6,285.8,36.6L285.8,36.6z M285.8,27.3c-2.4,0-4.3,1.9-4.3,4.3s1.9,4.3,4.3,4.3s4.3-1.9,4.3-4.3c0,0,0,0,0,0
			C290,29.2,288.1,27.3,285.8,27.3z"/>
		<path id="Caminho_624" class="st1" d="M173.3,107.8h-11.1V96.7h11.1V107.8z M163.1,106.9h9.4v-9.4h-9.4V106.9z"/>
		<path id="Caminho_625" class="st1" d="M342,190.4h-11.1v-11.1H342V190.4z M331.8,189.5h9.4v-9.4h-9.4V189.5z"/>
		<path id="Caminho_626" class="st4" d="M123.5,116.1l1.9,1l6.5,3.5l10.4,5.6l6.1-11.3c2.4-4.5,0.7-10-3.7-12.4c0,0,0,0,0,0
			c-4.7-2.5-10.4-1.7-14.2,1.9l0,0c-0.9,0.9-1.7,1.9-2.3,3L123.5,116.1z"/>
		<path id="Caminho_627" class="st5" d="M152,231.2l-1.3,14l-4.8,0.6l-3.2-15.9L152,231.2z"/>
		<path id="Caminho_628" class="st4" d="M144.7,245.9c0,0,6.1-3.2,7.3-0.6c0,0-1,7.7,2.9,8.6s5.4,7.7,0,8.3s-8.9-1.3-10.8-1.3
			s0-6.7,0-6.7L144.7,245.9z"/>
		<path id="Caminho_629" class="st5" d="M113.4,231.2l1.3,14l4.8,0.6l3.2-15.9L113.4,231.2z"/>
		<path id="Caminho_630" class="st4" d="M120.8,245.9c0,0-6.1-3.2-7.3-0.6c0,0,1,7.7-2.9,8.6s-5.4,7.7,0,8.3s8.9-1.3,10.8-1.3
			s0-6.7,0-6.7L120.8,245.9z"/>
		<circle id="Elipse_92" class="st5" cx="139.6" cy="110.4" r="8.3"/>
		<path id="Caminho_631" class="st5" d="M113.1,126.7l6.7,10.5l8-0.6l13.1,1c0,0,1.2-2.5,2.2-4.9c0.6-1.2,1-2.5,1.3-3.7
			c0.3-2.2-4.1-4.5-4.1-4.5s-0.2,0-0.5-0.1c-0.4-0.1-1-0.2-1.6-0.5c-1.5-0.5-3.3-1.4-3.6-2.6c-0.6-2.2,4.1-5.4,4.1-5.4l-5.7-5.4
			c0,0-5.1,7.1-11.3,8.7c-0.4,0.1-0.7,0.2-1.1,0.2l-0.1,0C116.6,119.8,113.6,122.8,113.1,126.7z"/>
		<path id="Caminho_632" class="st5" d="M116.6,123.8l-3.5,2.9c0,0-2.9,13.7-1.9,17.5s-0.3,7.3-0.3,8s-2.9,24.6-2.9,24.6
			s-5.7,12.8,0.3,11.5s3.8-14,3.8-14l7.3-22.3V133L116.6,123.8z"/>
		<path id="Caminho_633" class="st5" d="M141.8,126.3l2.6,1.9l1.3,26.8l9.6,23c0,0,7,11.2,2.6,11.5s-7.3-11.5-7.3-11.5l-8.6-22
			l-1.3-21.4L141.8,126.3z"/>
		<path id="Caminho_634" class="st4" d="M125.9,128.3c0,0,6.4,4.5,16.6,2.9c0,0,2.9,5.7,1.3,8.9s1.9,10.8,2.6,11.8s8,20.7,10.5,42.1
			c2.6,21.4,9.6,36,3.5,37.9s-18.5,4.1-19.8,2.2s-3.2-49.4-3.2-49.4l-3.5,18.2c0,0,4.8,30.9,1.3,31.6s-25.5-1.3-24.9-5.1
			s7-23.9,7-23.9s-0.3-40.2,6.1-47.8c0,0,2.6-4.1-1-9.6s-3.2-14-3.2-14S121.7,134,125.9,128.3z"/>
		<path id="Caminho_635" class="st4" d="M120.5,119.3l5.4,11.8l1.3-0.6l-5.6-11.4L120.5,119.3z"/>
		<path id="Caminho_636" class="st4" d="M138.1,123.9l4,8.9l1-0.1l-0.3-1.5l-3-6.8C139.3,124.2,138.7,124.1,138.1,123.9z"/>
		<path id="Caminho_637" class="st4" d="M125.4,117.2c0.9,2.8,3.8,4.3,6.6,3.5c1.3-0.4,2.4-1.3,3.1-2.5c-4-5.3-0.6-8.6,6-11.1
			c1-1.9,0.8-4.2-0.6-5.8c-3.7-0.5-7.3,0.7-10,3.3l0,0l-4.7,8.6C125.1,114.3,125,115.8,125.4,117.2L125.4,117.2z"/>
		<ellipse id="Elipse_93" class="st5" cx="134.6" cy="111.4" rx="1.1" ry="1.9"/>
		<path id="Caminho_638" class="st4" d="M138,108.2l9.6,4.3l1.8-3.9c-0.3-1.4-0.9-2.7-1.8-3.9l-6.6-3L138,108.2z"/>
		<circle id="Elipse_94" class="st2" cx="161.5" cy="189.2" r="4.5"/>
		<circle id="Elipse_95" class="st6" cx="24.3" cy="216.3" r="2.8"/>
		<rect id="Retângulo_446" x="37.5" y="230.8" class="st1" width="0.9" height="31.7"/>
		<circle id="Elipse_96" class="st1" cx="37.9" cy="230.8" r="4.5"/>
		<path id="Caminho_639" class="st1" d="M37.9,250.4c0,0-0.6-13.8-13.8-12.2"/>
		<g id="Man_illustration" transform="translate(-416.309 -96.56)">
			<path id="Caminho_1599" class="st5" d="M614.4,354.5h-5l-2.4-19.3h7.4L614.4,354.5z"/>
			<path id="Caminho_1600" class="st4" d="M615.7,359.3h-16.2v-0.2c0-3.5,2.8-6.3,6.3-6.3h9.9V359.3z"/>
			<path id="Caminho_1601" class="st5" d="M607.3,339.9l-4.7,1.8l-9.3-17.1l6.9-2.7L607.3,339.9z"/>
			<path id="Caminho_1602" class="st4" d="M610.3,344l-15,5.9l-0.1-0.2c-1.3-3.2,0.3-6.9,3.6-8.2c0,0,0,0,0,0l0,0l9.2-3.6L610.3,344
				z"/>
			<path id="Caminho_1603" class="st4" d="M605.8,348.2l1.6-58.7l-7.1,25.1l5.1,17.5l-8.5,7.2l-8.7-27.7l0,0l8.6-45.6l25.5-1.2
				l0.2,0l0,0.2c0,0.2,2.4,15.3,0.4,26.2c-2,10.9-6.9,57.2-6.9,57.6l0,0.2L605.8,348.2z"/>
			<path id="Caminho_1604" class="st2" d="M598.2,269.7l-0.1-0.1l4.7-43.4l0.1,0c4.8-1.2,11.3-1.1,14.7-0.9c1.1,0.1,2,0.9,2.1,1.9
				l5.7,37.5l0,0.1c-3.9,5.6-9.9,7.1-15.3,7.1C606,271.8,602,271.1,598.2,269.7z"/>
			<path id="Caminho_1605" class="st1" d="M620.7,282.4l-0.2,0l-3-57.2l9.2,2.1c2.1,0.5,3.5,2.5,3.2,4.6l-1.2,9.5l0.4,16.7
				c0.3,1,4.9,18.1,2.4,22.5c-0.3,0.5-0.7,0.9-1.3,1c-2.5,0.6-5,0.9-7.6,0.9C621.5,282.4,620.7,282.4,620.7,282.4z"/>
			<path id="Caminho_1606" class="st1" d="M593.7,282.8c-0.9-0.4-1.6-1.2-1.8-2.2c-0.6-2.4,1.4-5.4,1.7-5.9l2.4-23.2l-3.6-21.5
				c-0.3-1.5,0.8-2.9,2.2-3.2c0.1,0,0.1,0,0.2,0l10.4-1.2l-0.5,22.1c4.4,15-5.2,36.7-5.3,36.9l-0.1,0.1h-0.1
				C599,284.8,597.7,284.8,593.7,282.8z"/>
			<circle id="Elipse_193" class="st5" cx="610.1" cy="211.3" r="10"/>
			<path id="Caminho_1607" class="st5" d="M621.6,272c-0.3-2.1,1.1-4.1,3.2-4.4c0.2,0,0.4-0.1,0.7,0l3.5-8l5.4,0.9l-5.1,11.3
				c-0.2,2.1-2,3.7-4.2,3.5C623.3,275.1,621.9,273.8,621.6,272L621.6,272z"/>
			<path id="Caminho_1608" class="st1" d="M626.5,264.6l2.9-17.2l-4.9-8.2l1.2-11.7l0.3-0.1c1.9-0.5,3.9,0.5,4.8,2.2l8,16.7l0,0.1
				l-5.8,22.9L626.5,264.6z"/>
			<path id="Caminho_1609" class="st4" d="M616.7,219.4c0.2,0.1,1.2-1,2.2-2.3c2.2-2.8,3.2-6.4,2.5-9.8c0-0.1,0-0.2,0-0.2
				c-0.3-1.7-1.9-3.2-3.6-2.8c0-1.5-0.8-2.9-2.1-3.6c-1.3-0.7-2.7-1.2-4.2-1.3c-1.6-0.4-3.3-0.6-5-0.5c-1.6,0.1-3.2,0.6-4.6,1.5
				c-3.4,2.3-5.1,6.5-4.1,10.4c2.1-2.4,4.6-5,8.2-4c0.8,0.2,1.6,0.6,2.3,1.2c2.2,1.7,3.3,4.3,4.4,6.8c0.6-1.2,2-1.8,3.2-1.2
				c0.1,0.1,0.3,0.1,0.4,0.2c0.7,0.7,1.1,1.6,1,2.5c-0.1,0.9-0.3,1.9-0.6,2.7"/>
			<path id="Caminho_1610" class="st4" d="M615.4,256.9h-0.5V255c0-1.1-0.9-2.1-2.1-2.1h-5.9c-1.1,0-2.1,0.9-2.1,2.1v12.9
				c0,1.1,0.9,2.1,2.1,2.1h5.9c1.1,0,2.1-0.9,2.1-2.1v-8.8h0.5V256.9z"/>
			<circle id="Elipse_194" class="st7" cx="610.1" cy="259.1" r="1.3"/>
			<path id="Caminho_1611" class="st5" d="M611.1,264.1c-0.9-1.9-3.2-2.7-5.1-1.8c-0.2,0.1-0.4,0.2-0.6,0.3L598,258l-3.9,3.8
				l10.6,6.4c1.3,1.7,3.8,1.9,5.4,0.6C611.4,267.7,611.9,265.7,611.1,264.1L611.1,264.1z"/>
			<path id="Caminho_1612" class="st1" d="M584.5,255.3l6.8-25.7c0.4-1.4,1.7-2.2,3.1-2l2.3,0.4l2.5,13.7l-5.1,11.5l9.2,5.5
				l-1.3,10.3L584.5,255.3z"/>
		</g>
	</g>
</g>
</svg>
