<?xml version="1.0" encoding="utf-8"?>
<!-- Generator: Adobe Illustrator 25.0.1, SVG Export Plug-In . SVG Version: 6.00 Build 0)  -->
<svg version="1.1" id="Camada_1" xmlns="http://www.w3.org/2000/svg" xmlns:xlink="http://www.w3.org/1999/xlink" x="0px" y="0px"
	 viewBox="0 0 281 287.9" style="enable-background:new 0 0 281 287.9;" xml:space="preserve">
<style type="text/css">
	.st0{opacity:0.1;fill:#F86464;}
	.st1{fill:#3F3D56;}
	.st2{fill:#F86464;}
	.st3{fill:#FF6584;}
	.st4{opacity:0.2;enable-background:new    ;}
	.st5{fill:#B5CC18;}
	.st6{fill:#767676;}
	.st7{fill:#FFB9B9;}
	.st8{fill:#2F2E41;}
	.st9{fill:#FFFFFF;}
</style>
<g id="Illustration" transform="translate(-18.859 -0.019)">
	<ellipse id="Elipse_765" class="st0" cx="159.4" cy="270.9" rx="140.5" ry="17"/>
	<rect id="Retângulo_354" x="144.6" y="157.8" class="st1" width="4.9" height="2.9"/>
	<rect id="Retângulo_355" x="154.5" y="157.8" class="st1" width="4.9" height="2.9"/>
	<rect id="Retângulo_356" x="164.4" y="157.8" class="st1" width="4.9" height="2.9"/>
	<rect id="Retângulo_357" x="174.2" y="157.8" class="st1" width="4.9" height="2.9"/>
	<rect id="Retângulo_358" x="184.1" y="157.8" class="st1" width="4.9" height="2.9"/>
	<rect id="Retângulo_359" x="194" y="157.8" class="st1" width="4.9" height="2.9"/>
	<rect id="Retângulo_360" x="203.8" y="157.8" class="st1" width="4.9" height="2.9"/>
	<rect id="Retângulo_361" x="213.7" y="157.8" class="st1" width="4.9" height="2.9"/>
	<rect id="Retângulo_362" x="223.5" y="157.8" class="st1" width="4.9" height="2.9"/>
	<rect id="Retângulo_363" x="233.4" y="157.8" class="st1" width="4.9" height="2.9"/>
	<rect id="Retângulo_364" x="243.3" y="157.8" class="st1" width="4.9" height="2.9"/>
	<path id="Caminho_326" class="st1" d="M259.5,159.7c0,32.7-26.5,59.2-59.2,59.2c-32.7,0-59.2-26.5-59.2-59.2c0,0,0,0,0,0H259.5z"/>
	<path id="Caminho_327" class="st1" d="M256.6,160L219,47.8c31-10.4,64.5,6.2,74.9,37.2c0,0,0,0.1,0,0.1c0.4,1.2,0.8,2.4,1.1,3.6
		C303,118.9,286.2,150.1,256.6,160z"/>
	<circle id="Elipse_49" class="st1" cx="258.1" cy="161.5" r="7.4"/>
	<path id="Caminho_328" class="st2" d="M182.9,175.1c-1.1,0-2,1-2,2.1c0,1.1,0.9,2,2,2h35.3c1.1,0,2.1-0.9,2.1-2
		c0-1.1-0.9-2.1-2-2.1c0,0-0.1,0-0.1,0H182.9z"/>
	<path id="Caminho_329" class="st1" d="M249.4,263.7l-7.4,0.3l-26.5-57l6.7-3.1L249.4,263.7z"/>
	<path id="Caminho_330" class="st1" d="M151.2,263.7l7.4,0.3l26.5-57l-6.7-3.1L151.2,263.7z"/>
	<rect id="Retângulo_365" x="170.1" y="230.8" class="st1" width="60.8" height="4.1"/>
	<path id="Caminho_331" class="st2" d="M220.5,45.7c-1,0-1.8,0.8-1.8,1.8c0,0.2,0,0.4,0.1,0.5l1.6,5.1c0.3,1,1.3,1.5,2.3,1.2
		c1-0.3,1.5-1.3,1.2-2.3l0,0l-1.6-5.1C222,46.3,221.3,45.7,220.5,45.7z"/>
	<path id="Caminho_332" class="st2" d="M138.7,160.7c-1,0-1.8,0.8-1.8,1.9s0.8,1.9,1.8,1.9h5.3c1,0,1.9-0.8,1.9-1.9
		s-0.8-1.9-1.9-1.9H138.7z"/>
	<path id="Caminho_333" class="st3" d="M182.9,147.1h-22.2c-0.1,0-0.3,0-0.4,0c-3.2,0.2-5.6,3-5.3,6.1c0.2,2.9,2.5,5.1,5.3,5.3
		c0.1,0,0.3,0,0.4,0h22.2c3.2,0,5.8-2.6,5.8-5.8C188.6,149.7,186,147.1,182.9,147.1L182.9,147.1z"/>
	<path id="Caminho_334" class="st4" d="M158.4,158.2c3.8-0.5,6.8-5.3,6.8-11h-0.8c0,5.7-3,10.3-6.6,10.3v0.5L158.4,158.2z"/>
	<path id="Caminho_335" class="st4" d="M166.4,158.2v-0.8c3.6,0,6.6-4.6,6.6-10.3h0.8C173.8,153.2,170.5,158.2,166.4,158.2z"/>
	<path id="Caminho_336" class="st4" d="M175.1,158.2v-0.8c3.6,0,6.6-4.6,6.6-10.3h0.8C182.4,153.2,179.1,158.2,175.1,158.2z"/>
	<path id="Caminho_337" class="st5" d="M223.1,147.1h-22.2c-0.1,0-0.3,0-0.4,0c-3.2,0.2-5.6,3-5.3,6.1c0.2,2.9,2.5,5.1,5.3,5.3
		c0.1,0,0.3,0,0.4,0h22.2c3.2,0,5.8-2.6,5.8-5.8C228.9,149.7,226.3,147.1,223.1,147.1L223.1,147.1z"/>
	<path id="Caminho_338" class="st4" d="M198.7,158.2c3.8-0.5,6.8-5.3,6.8-11h-0.8c0,5.7-3,10.3-6.6,10.3v0.5L198.7,158.2z"/>
	<path id="Caminho_339" class="st4" d="M206.7,158.2v-0.8c3.6,0,6.6-4.6,6.6-10.3h0.8C214.1,153.2,210.8,158.2,206.7,158.2z"/>
	<path id="Caminho_340" class="st4" d="M215.3,158.2v-0.8c3.6,0,6.6-4.6,6.6-10.3h0.8C222.7,153.2,219.4,158.2,215.3,158.2z"/>
	<path id="Caminho_341" class="st6" d="M181.2,91.9c-2.9-1.6-6.5,0.1-8,2.9c-1.8,3.4-0.3,7.4,1.8,10.3c2.1,3,5,5.5,6.5,9
		c2.8,6.7,0.3,14.5-5.8,18.4c-1.3,0.8-0.1,3,1.2,2.1c7.7-4.8,10.4-14.8,6.2-22.8c-0.9-1.6-2-3.1-3.2-4.5c-2.1-2.5-4.8-5.3-5-8.8
		c0-0.5,0-0.9,0.1-1.4c0.1-0.3,0.2-0.6,0.3-0.9c0.3-0.6,0.7-1.2,1.3-1.6c0.5-0.4,1.1-0.7,1.8-0.8c0.5-0.1,1.1,0,1.6,0.3
		C181.4,94.8,182.6,92.6,181.2,91.9z"/>
	<path id="Caminho_342" class="st6" d="M218.3,106.8c-2.5-0.8-5.3-0.2-7.2,1.7c-1,1-1.4,2.4-1.2,3.8c0.3,1.5,1.1,2.8,2.2,3.9
		c2,2.1,4.8,3.4,6.5,5.8c0.7,1,1.2,2.2,1.4,3.5c0.1,1.1-0.1,2.3-0.6,3.3c-1.4,2.5-3.7,4.4-6.4,5.4c-0.6,0.3-0.8,1.1-0.4,1.7
		c0.4,0.6,1.1,0.8,1.7,0.4c4.8-2.1,9.3-6.6,8-12.3c-0.7-3-2.8-5.1-5.2-6.9c-1.1-0.8-2.2-1.8-3.2-2.8c-0.9-0.8-1.5-1.9-1.5-3.2
		c0.1-0.4,0.3-0.8,0.6-1c0.4-0.3,0.8-0.6,1.2-0.8c1.1-0.5,2.4-0.6,3.5-0.2c0.7,0.2,1.3-0.2,1.5-0.9C219.4,107.7,219,107,218.3,106.8
		L218.3,106.8z"/>
	<path id="Caminho_343" class="st6" d="M199.6,71.7c-0.7-0.6-1.7-1-2.6-1c-0.9,0-1.8,0.3-2.6,0.8c-1.7,1.2-2.9,3-3.4,5.1
		c-1.2,4.8,0.4,9.9,2.6,14.1c1.1,2.1,2.5,4.1,3.6,6.3c1.1,2,2,4.2,2.5,6.4c1.2,4.6,1.3,9.4,0.3,14c-1,4.6-3.1,9.2-6.6,12.4
		c-0.5,0.5-0.4,1.3,0.1,1.7c0.5,0.4,1.2,0.4,1.7,0c3.1-2.9,5.3-6.6,6.5-10.7c1.4-4.5,1.8-9.3,1.2-13.9c-0.3-2.3-0.8-4.6-1.6-6.8
		c-0.8-2.2-1.9-4.4-3.1-6.4c-2.3-3.9-4.8-7.9-5.1-12.5c-0.3-2.3,0.2-4.6,1.5-6.5c-0.1,0.1,0.1-0.1,0.1-0.1c0.1-0.1,0.2-0.2,0.3-0.3
		c0.2-0.2,0.4-0.4,0.6-0.5c0,0-0.2,0.1,0,0c0.1-0.1,0.2-0.1,0.3-0.2c0.1,0,0.2-0.1,0.3-0.1c0.1,0,0.1-0.1,0.2-0.1
		c-0.1,0.1-0.1,0.1,0,0c0.1,0,0.6-0.1,0.3-0.1c0.1,0,0.2,0,0.3,0c0,0,0.4,0,0.2,0c-0.2,0,0.2,0,0.2,0c0.1,0,0.2,0.1,0.3,0.1
		c-0.3-0.1,0.4,0.3,0.3,0.2c0.5,0.5,1.3,0.5,1.7,0C200,73,200,72.2,199.6,71.7L199.6,71.7z"/>
	<path id="Caminho_344" class="st7" d="M104.9,257l-9.3,2.5l-17.1-78.9l19.2-1.7L104.9,257z"/>
	<path id="Caminho_345" class="st7" d="M62.4,258.2l-9.5,1.4l-8.4-80.3l19.2,0.4L62.4,258.2z"/>
	<path id="Caminho_346" class="st7" d="M57.5,144l0.9,16.4c0.1,2.3-1.7,4.3-4,4.4c-0.2,0-0.4,0-0.6,0l0,0c-2-0.2-3.6-1.8-3.8-3.8
		l-1.6-18.1l-12.5-42.5L36.2,73L51,73.8L57.5,144z"/>
	<path id="Caminho_347" class="st8" d="M65.5,184.2c-7.4-2.6-16-3.1-25.8-1.5c1.4-16.4,2.2-31.7,1.5-44h50.5L65.5,184.2z"/>
	<path id="Caminho_348" class="st8" d="M100.7,183.8c-7.6,4-18.7,6-31.5,6.8l-15.9-50.8l39.1-0.8L100.7,183.8z"/>
	<path id="Caminho_349" class="st8" d="M120.4,265.2l-27.5,1c-3.5,0.1-3.7-2.9-3-6.4l3.3-9.3c7.3,7.2,8,7.6,11.2-2.6l9.6,7.6
		l7.1,1.2c2.1,0.4,3.6,2.1,3.5,4.2l0,0C124.5,263.3,122.7,265.2,120.4,265.2L120.4,265.2z"/>
	<path id="Caminho_350" class="st8" d="M78.8,265.2l-27.5,1c-3.5,0.1-3.7-2.9-3-6.4l3.3-9.3c7.3,7.2,8,7.6,11.2-2.6l9.6,7.6l7.1,1.2
		c2.1,0.4,3.6,2.1,3.5,4.2l0,0C82.9,263.3,81.1,265.2,78.8,265.2L78.8,265.2z"/>
	<circle id="Elipse_50" class="st7" cx="85.2" cy="18" r="14.8"/>
	<path id="Caminho_351" class="st7" d="M77.6,44.2l-17.4-5.3l11.8-17.5l13.3,5.7L77.6,44.2z"/>
	<path id="Caminho_352" class="st2" d="M93.9,143.2c-17.9,4-37.9,2.4-55-2.3C43,118,41,93.4,37,73.4c-3.1-15.7,5.2-28.8,19-35.3
		c3-1.1,6.1-1.8,9.2-2.1c9.7-0.8,18.3,6.4,19.2,16.1L93.9,143.2z"/>
	<path id="Caminho_353" class="st2" d="M47.2,81l-12.5-1.5l3.8-19.7h8.7V81z"/>
	<path id="Caminho_354" class="st8" d="M85,20.4l-2.3-1c-2-0.9-4.2,0-5.1,2c-0.1,0.2-0.2,0.4-0.2,0.6l0,0l-3.2,5.7l-7.9-1.2
		l0.3-12.1C68.1,5.1,76.7-1.2,85.9,0.2c0.4,0.1,0.7,0.1,1.1,0.2l0.2,0c4.3,1.1,8.3,3.4,11.4,6.6l4.8,5.5c0.7,0.8,0.6,2-0.2,2.7
		c-0.3,0.3-0.7,0.4-1,0.5l-6.6,0.7L85,20.4z"/>
	<path id="Caminho_355" class="st9" d="M134,121.2l-8.5,7.5c-0.3,0.2-0.6,0.2-0.9-0.1s-0.2-0.6,0.1-0.9l8.5-7.5l-1.6-1.9l-8.5,7.5
		c-0.3,0.2-0.6,0.2-0.9-0.1s-0.2-0.6,0.1-0.9l0,0l8.5-7.5l-1.6-1.9l-8.5,7.5c-0.3,0.2-0.6,0.2-0.9-0.1s-0.2-0.6,0.1-0.9l8.5-7.5
		l-2-2.3l-12,10.5c-2.2,1.9-2.8,5.2-1.3,7.7l-36.2,31.8l3.3,3.7l36.2-31.8c2.3,1.8,5.5,1.7,7.7-0.2l12.2-10.7L134,121.2z"/>
	<path id="Caminho_356" class="st7" d="M92.8,144l0.9,16.4c0.1,2.3-1.7,4.3-4,4.4c-0.2,0-0.4,0-0.6,0l0,0c-2-0.2-3.6-1.8-3.8-3.8
		l-1.6-18.1l-12.5-42.5L71.5,73l14.8,0.8L92.8,144z"/>
	<path id="Caminho_357" class="st2" d="M87.5,77.9C83,73.6,77,73.5,70.4,75.3V54.9c0-5.1,4.1-9.2,9.2-9.2l0,0l0,0
		c4.7,0,8.4,3.8,8.4,8.4c0,0.1,0,0.1,0,0.2L87.5,77.9z"/>
</g>
</svg>
