<?xml version="1.0" encoding="utf-8"?>
<!-- Generator: Adobe Illustrator 25.0.1, SVG Export Plug-In . SVG Version: 6.00 Build 0)  -->
<svg version="1.1" id="Camada_1" xmlns="http://www.w3.org/2000/svg" xmlns:xlink="http://www.w3.org/1999/xlink" x="0px" y="0px"
	 viewBox="0 0 11 11" style="enable-background:new 0 0 11 11;" xml:space="preserve">
<style type="text/css">
	.st0{fill:#767676;}
</style>
<path id="copyright" class="st0" d="M8.2,6.8v0.8C8.2,7.8,8.1,8,8,8.2C7.8,8.4,7.6,8.5,7.3,8.6C7,8.7,6.7,8.8,6.5,8.9
	C6.2,8.9,5.9,8.9,5.6,8.9c-0.9,0-1.8-0.3-2.5-1c-0.7-0.7-1-1.6-1-2.5c0-1.8,1.4-3.4,3.3-3.4c0,0,0.1,0,0.1,0c0.2,0,0.4,0,0.5,0
	c0.2,0,0.4,0.1,0.7,0.1C7,2.3,7.2,2.4,7.4,2.5c0.2,0.1,0.4,0.2,0.5,0.4C8.1,3,8.1,3.2,8.1,3.4v0.8c0,0.1,0,0.1-0.1,0.1c0,0,0,0,0,0
	H7.2c-0.1,0-0.1,0-0.1-0.1c0,0,0,0,0,0V3.7c0-0.2-0.2-0.4-0.5-0.5c-0.3-0.1-0.6-0.2-1-0.2C5,3,4.4,3.3,4,3.7
	C3.5,4.2,3.3,4.8,3.3,5.4c0,0.7,0.2,1.3,0.7,1.8c0.4,0.5,1,0.7,1.7,0.7c0.3,0,0.7-0.1,1-0.2C7,7.6,7.2,7.5,7.2,7.3V6.8
	c0,0,0-0.1,0-0.1c0,0,0,0,0.1,0h0.9C8.1,6.7,8.2,6.7,8.2,6.8C8.2,6.7,8.2,6.7,8.2,6.8L8.2,6.8z M5.5,0.9C4.9,0.9,4.3,1,3.7,1.3
	c-1.1,0.5-2,1.3-2.4,2.4c-0.5,1.1-0.5,2.4,0,3.6c0.5,1.1,1.3,2,2.4,2.4c1.1,0.5,2.4,0.5,3.6,0c1.1-0.5,2-1.3,2.4-2.4
	c0.5-1.1,0.5-2.4,0-3.6c-0.5-1.1-1.3-2-2.4-2.4C6.7,1,6.1,0.9,5.5,0.9z M11,5.5c0,1-0.2,1.9-0.7,2.8c-0.5,0.8-1.2,1.5-2,2
	c-1.7,1-3.8,1-5.5,0c-0.8-0.5-1.5-1.2-2-2c-1-1.7-1-3.8,0-5.5c0.5-0.8,1.2-1.5,2-2c1.7-1,3.8-1,5.5,0c0.8,0.5,1.5,1.2,2,2
	C10.8,3.6,11,4.5,11,5.5z"/>
</svg>
