<?xml version="1.0" encoding="utf-8"?>
<!-- Generator: Adobe Illustrator 25.0.1, SVG Export Plug-In . SVG Version: 6.00 Build 0)  -->
<svg version="1.1" id="Camada_1" xmlns="http://www.w3.org/2000/svg" xmlns:xlink="http://www.w3.org/1999/xlink" x="0px" y="0px"
	 viewBox="0 0 289 302.6" style="enable-background:new 0 0 289 302.6;" xml:space="preserve">
<style type="text/css">
	.st0{fill:#E6E6E6;}
	.st1{fill:#CCCCCC;}
	.st2{fill:#F86464;}
	.st3{fill:#3F3D56;}
	.st4{fill:#2F2E41;}
	.st5{fill:#FFB9B9;}
	.st6{fill:none;stroke:#BFBFBF;stroke-width:2;stroke-linecap:round;}
	.st7{fill:none;stroke:#BFBFBF;stroke-width:1.9997;stroke-linecap:round;stroke-miterlimit:3.9993;}
	.st8{fill:#BFBFBF;}
	.st9{font-family:'Nunito-Bold';}
	.st10{font-size:30px;}
	.st11{font-size:20px;}
</style>
<g id="Illustration" transform="translate(30.318 19.173)">
	
		<rect id="Retângulo_336" x="94.4" y="78" transform="matrix(0.8363 -0.5482 0.5482 0.8363 -75.048 82.1083)" class="st0" width="11.2" height="177.5"/>
	<path id="Caminho_230" class="st0" d="M33.7,33.6l21.6,33c0.9,1.3,0.5,3.1-0.8,4s-3.1,0.5-4-0.8c0,0,0,0,0,0L25.7,31.8
		c-3.4-0.3-6.8,0.3-9.9,1.6l27.1,41.3c0.9,1.3,0.5,3.1-0.9,4c-1.3,0.9-3.1,0.5-4-0.8L11,36.6c-2.5,2.3-4.3,5.2-5.4,8.4l24.9,37.9
		c0.9,1.3,0.5,3.1-0.8,4s-3.1,0.5-4-0.8c0,0,0,0,0,0L4,53.1c-0.6,9.2,2.4,20.1,9,30.1c12.2,18.6,32.1,27.1,44.5,19
		S70,72.5,57.8,53.8C51.2,43.8,42.4,36.7,33.7,33.6z"/>
	<path id="Caminho_325" class="st0" d="M86.8,69.1h11.2v169.4H86.8V69.1z"/>
	<ellipse id="Elipse_9" class="st0" cx="92.2" cy="40.3" rx="26.8" ry="40.3"/>
	<ellipse id="Elipse_10" class="st1" cx="92.2" cy="40.3" rx="22" ry="33.2"/>
	<ellipse id="Elipse_11" class="st0" cx="123.4" cy="268.8" rx="74.4" ry="7.1"/>
	<path id="Caminho_231" class="st2" d="M196.3,248.6c-46.2-8.3-93.6-8.3-139.8,0c-2.8,0.5-5.4-1.3-5.9-4.1c-0.1-0.3-0.1-0.6-0.1-0.9
		v-63.3h151.8v63.3c0,2.8-2.3,5.1-5.1,5.1C196.9,248.7,196.6,248.7,196.3,248.6L196.3,248.6z"/>
	<path id="Caminho_232" class="st2" d="M188.4,133.5c-3.5,0-7,0.6-10.3,1.7c-14-30.4-50.1-43.7-80.5-29.7
		c-12.9,6-23.3,16.3-29.4,29.1c-16.8-4.7-34.2,5.1-38.9,21.8c-4.7,16.8,5.1,34.2,21.8,38.9c7,2,14.5,1.4,21.2-1.5
		c18.4,28,56,35.8,84,17.4c7.2-4.7,13.3-10.9,17.9-18.2c15.5,7.8,34.5,1.6,42.3-13.9c7.8-15.5,1.6-34.5-13.9-42.3
		C198.2,134.7,193.4,133.5,188.4,133.5L188.4,133.5z"/>
	<path id="Caminho_233" class="st3" d="M62.7,160.6H62c0-9,2-17.9,5.8-26.1l0.6,0.3C64.6,142.9,62.7,151.7,62.7,160.6z"/>
	<path id="Caminho_234" class="st3" d="M184,160.6h-0.7c0-8.7-1.9-17.3-5.5-25.2l0.6-0.3C182.1,143.1,184,151.8,184,160.6L184,160.6
		z"/>
	<path id="Caminho_235" class="st3" d="M50.6,209.8l-0.2-0.7c0.2,0,19.5-4.8,47.7-7.1c26.1-2.2,65.3-2.7,104.3,7.1l-0.2,0.7
		c-38.9-9.8-78.1-9.3-104.1-7.1C70,205,50.8,209.7,50.6,209.8z"/>
	<path id="Caminho_236" class="st3" d="M50.6,218.9l-0.2-0.7c0.2,0,19.5-4.8,47.7-7.1c26.1-2.2,65.3-2.7,104.3,7.1l-0.2,0.7
		c-38.9-9.8-78.1-9.3-104.1-7.1C70,214.1,50.8,218.9,50.6,218.9z"/>
	<path id="Caminho_237" class="st3" d="M50.6,228.1l-0.2-0.7c0.2,0,19.5-4.8,47.7-7.1c26.1-2.2,65.3-2.7,104.3,7.1l-0.2,0.7
		c-38.9-9.8-78.1-9.3-104.1-7.1C70,223.3,50.8,228,50.6,228.1z"/>
	<path id="Caminho_238" class="st4" d="M175.3,178.3l-8.2-2.8l7.9-40.2l-5.4-0.5c-5.3,4.1-12.3,5.6-21.3,4.4l14.5,21.8l-7.4,5.2
		l-23.5-28.2c-1.1-1.3-1.6-2.9-1.6-4.5l0,0c0-3.2,2.1-5.9,5.1-6.8l25.1-7.2l29.4,3.3c4.4,6.8,4.6,11.5-2.1,12.8L175.3,178.3z"/>
	<path id="Caminho_239" class="st4" d="M166.9,194L166.9,194c-3-0.2-5.2-2.8-5.1-5.7c0-0.6,0.2-1.1,0.4-1.6l4.1-10.5
		c2.1-3.9,4.9-3.4,8.3,0l1.6,4.8c0.3,0.8,0.2,1.7-0.2,2.4l-4,7.7C171.1,193,169,194.1,166.9,194z"/>
	<path id="Caminho_240" class="st4" d="M156.3,180.2L156.3,180.2c-3-0.2-5.2-2.8-5.1-5.7c0-0.6,0.2-1.1,0.4-1.6l4.1-10.5
		c2.1-3.9,4.9-3.4,8.3,0l1.6,4.8c0.3,0.8,0.2,1.7-0.2,2.4l-4,7.7C160.4,179.2,158.4,180.4,156.3,180.2L156.3,180.2z"/>
	<circle id="Elipse_12" class="st5" cx="161.5" cy="71.9" r="9.2"/>
	<path id="Caminho_241" class="st5" d="M175.8,84.9l-12.6,6.6l-2.6-11.8l8.7-5.4L175.8,84.9z"/>
	<path id="Caminho_242" class="st3" d="M191.1,124.4c-12.6-3.8-24.1-5.8-32.4-2.8c2.9-8-2.4-20.3-8.2-32.8c2.5-3.3,6.5-4.5,11-5.1
		c4.9,3.6,8.4,1.3,11-4.3c5.7-0.2,11.2,1.8,16.6,5.3C184.9,97.8,185.6,111.9,191.1,124.4z"/>
	<path id="Caminho_243" class="st3" d="M158.5,123.6c-2.2,1.5-4.1,3.4-5.6,5.6c-2.9-1.7-5.4-3.8-7.6-6.3c-2.9-3.5-3.9-8.3-2.5-12.7
		l5.6-18.2c0.5-1.5,1.4-2.9,2.6-3.9l0.7-0.6l7.4,14l-7.4,13.8C152.8,117.8,155.5,120.7,158.5,123.6z"/>
	<path id="Caminho_244" class="st5" d="M161.1,137.5L161.1,137.5c-2.4,1.1-5.2,0-6.3-2.3c-0.2-0.4-0.3-0.8-0.4-1.3l-1.2-8.4l4.3-2.3
		l5.4,7.1c1.6,2.1,1.2,5.1-0.9,6.7C161.7,137.2,161.4,137.4,161.1,137.5L161.1,137.5z"/>
	<path id="Caminho_245" class="st4" d="M170.8,71.5l-1.6,0l-4.4-6.2c-5.3,0.6-10.3,2.9-14,6.7l-0.4-2.6c-0.8-5.2,2.6-10.1,7.8-11.1
		l0,0c5.3-1.1,10.6,2.3,11.7,7.7c0,0.1,0,0.2,0.1,0.3L170.8,71.5z"/>
	<path id="Caminho_246" class="st5" d="M153.1,129.2L153.1,129.2c-1.1-2.4,0-5.2,2.3-6.3c0.4-0.2,0.8-0.3,1.3-0.4l8.4-1.2l2.3,4.3
		l-7.1,5.4c-2.1,1.6-5.1,1.2-6.7-0.9C153.5,129.8,153.3,129.5,153.1,129.2L153.1,129.2z"/>
	<path id="Caminho_247" class="st3" d="M192.7,121.6c-8,0.6-16.6,3.1-25.7,6.6c-0.1-2.7-1.1-5.3-2.8-7.4c8.3-2.2,15.8-4.7,20.4-8.7
		l-2.8-21l6.1-6.9l1,0.5c1.8,0.9,3,2.5,3.5,4.5c2.6,10,3.7,19.5,2.9,28.5C195.5,119.5,194.4,121.2,192.7,121.6z"/>
	<path id="Caminho_248" class="st3" d="M2.6,200.7c-8.7,0.9-15.3-2.3-20-9.7c-0.3-0.5-0.3-1.1,0-1.6l15.2-26l16.8,8.2L3.9,199.7
		C3.7,200.3,3.2,200.6,2.6,200.7L2.6,200.7z"/>
	
		<ellipse id="Elipse_13" transform="matrix(0.438 -0.899 0.899 0.438 -147.5913 99.4047)" class="st3" cx="5.7" cy="167.7" rx="3.4" ry="9.4"/>
	<path id="Caminho_249" class="st2" d="M13.2,170c-5.9,1-10.2-1.1-12.8-6.2l2.4-4.9l12.8,6.2L13.2,170z"/>
	
		<ellipse id="Elipse_14" transform="matrix(0.438 -0.899 0.899 0.438 -140.6288 98.9443)" class="st2" cx="8.8" cy="161.9" rx="2.7" ry="7.1"/>
	
		<ellipse id="Elipse_15" transform="matrix(0.438 -0.899 0.899 0.438 -140.2362 99.2631)" class="st0" cx="9.3" cy="161.8" rx="0.3" ry="0.7"/>
	
		<ellipse id="Elipse_16" transform="matrix(0.438 -0.899 0.899 0.438 -139.8805 102.6441)" class="st0" cx="12.2" cy="163.2" rx="0.3" ry="0.7"/>
	
		<ellipse id="Elipse_17" transform="matrix(0.438 -0.899 0.899 0.438 -140.9029 101.0427)" class="st0" cx="10.4" cy="163.2" rx="0.3" ry="0.7"/>
	
		<ellipse id="Elipse_18" transform="matrix(0.438 -0.899 0.899 0.438 -141.6153 94.2812)" class="st0" cx="4.6" cy="160.4" rx="0.3" ry="0.7"/>
	
		<ellipse id="Elipse_19" transform="matrix(0.438 -0.899 0.899 0.438 -140.5929 95.8826)" class="st0" cx="6.4" cy="160.4" rx="0.3" ry="0.7"/>
	
		<ellipse id="Elipse_20" transform="matrix(0.438 -0.899 0.899 0.438 -141.6821 97.7063)" class="st0" cx="7.3" cy="162.2" rx="0.3" ry="0.7"/>
	<path id="Caminho_250" class="st3" d="M248,242.2c-5.6,6.7-12.6,9-21.1,6.9c-0.5-0.1-1-0.6-1.1-1.1l-7.1-29.3l17.8-5.8l11.8,27.7
		C248.4,241.1,248.3,241.7,248,242.2z"/>
	
		<ellipse id="Elipse_21" transform="matrix(0.9511 -0.309 0.309 0.9511 -55.6509 80.9173)" class="st3" cx="227.6" cy="216.1" rx="9.4" ry="3.4"/>
	<path id="Caminho_251" class="st2" d="M234.2,212.7c-3.6,4.8-8.1,6.3-13.6,4.4L219,212l13.6-4.4L234.2,212.7z"/>
	
		<ellipse id="Elipse_22" transform="matrix(0.9511 -0.309 0.309 0.9511 -53.7808 80.0543)" class="st2" cx="225.8" cy="209.8" rx="7.1" ry="2.7"/>
	
		<ellipse id="Elipse_23" transform="matrix(0.9511 -0.309 0.309 0.9511 -53.6381 80.101)" class="st0" cx="226" cy="209.4" rx="0.7" ry="0.3"/>
	
		<ellipse id="Elipse_24" transform="matrix(0.9511 -0.309 0.309 0.9511 -53.1826 80.9947)" class="st0" cx="229.1" cy="208.4" rx="0.7" ry="0.3"/>
	
		<ellipse id="Elipse_25" transform="matrix(0.9511 -0.309 0.309 0.9511 -53.6339 80.6616)" class="st0" cx="227.8" cy="209.6" rx="0.7" ry="0.3"/>
	
		<ellipse id="Elipse_26" transform="matrix(0.9511 -0.309 0.309 0.9511 -54.5448 78.8739)" class="st0" cx="221.7" cy="211.6" rx="0.7" ry="0.3"/>
	
		<ellipse id="Elipse_27" transform="matrix(0.9511 -0.309 0.309 0.9511 -54.0935 79.2073)" class="st0" cx="223" cy="210.4" rx="0.7" ry="0.3"/>
	
		<ellipse id="Elipse_28" transform="matrix(0.9511 -0.309 0.309 0.9511 -54.201 79.8249)" class="st0" cx="224.9" cy="211" rx="0.7" ry="0.3"/>
	
		<ellipse id="Elipse_46" transform="matrix(0.1908 -0.9816 0.9816 0.1908 -265.352 197.3811)" class="st0" cx="-13" cy="259.6" rx="5.1" ry="16.7"/>
	
		<ellipse id="Elipse_47" transform="matrix(0.9877 -0.1564 0.1564 0.9877 -40.1765 41.1646)" class="st0" cx="241.4" cy="275.8" rx="16.7" ry="5.1"/>
	<path id="Caminho_323" class="st6" d="M169.4,42.1c2.6-7.1,3.7-6.6,8.6-6.2c4.9,0.5,5.7-5.1,5.7-7.8"/>
	<path id="Caminho_324" class="st7" d="M166.7,28.3c-1-7.5,0.1-7.6,4.7-9.5c4.6-1.9,2.6-7.2,1.4-9.6"/>
	<text transform="matrix(0.829 0.5592 -0.5592 0.829 181.2271 19.0666)" class="st8 st9 st10">?!</text>
	<text transform="matrix(0.9998 -1.745241e-02 1.745241e-02 0.9998 125.3146 45.0277)" class="st8 st9 st10">*</text>
	<text transform="matrix(0.9205 -0.3907 0.3907 0.9205 182.3425 14.4754)" class="st8 st9 st11">#</text>
</g>
</svg>
