<svg xmlns="http://www.w3.org/2000/svg" width="275.283" height="279.353" viewBox="0 0 275.283 279.353">
  <g id="Illustration" transform="translate(-21.717 -0.019)">
    <ellipse id="Ellipse_48" data-name="Ellipse 48" cx="64.75" cy="9.862" rx="64.75" ry="9.862" transform="translate(21.717 259.648)" fill="#ededed"/>
    <rect id="Rectangle_354" data-name="Rectangle 354" width="4.931" height="2.876" transform="translate(144.643 157.813)" fill="#3f3d56"/>
    <rect id="Rectangle_355" data-name="Rectangle 355" width="4.931" height="2.876" transform="translate(154.505 157.813)" fill="#3f3d56"/>
    <rect id="Rectangle_356" data-name="Rectangle 356" width="4.931" height="2.876" transform="translate(164.367 157.813)" fill="#3f3d56"/>
    <rect id="Rectangle_357" data-name="Rectangle 357" width="4.931" height="2.876" transform="translate(174.229 157.813)" fill="#3f3d56"/>
    <rect id="Rectangle_358" data-name="Rectangle 358" width="4.931" height="2.876" transform="translate(184.091 157.813)" fill="#3f3d56"/>
    <rect id="Rectangle_359" data-name="Rectangle 359" width="4.931" height="2.876" transform="translate(193.953 157.813)" fill="#3f3d56"/>
    <rect id="Rectangle_360" data-name="Rectangle 360" width="4.931" height="2.876" transform="translate(203.815 157.813)" fill="#3f3d56"/>
    <rect id="Rectangle_361" data-name="Rectangle 361" width="4.931" height="2.876" transform="translate(213.677 157.813)" fill="#3f3d56"/>
    <rect id="Rectangle_362" data-name="Rectangle 362" width="4.931" height="2.876" transform="translate(223.539 157.813)" fill="#3f3d56"/>
    <rect id="Rectangle_363" data-name="Rectangle 363" width="4.931" height="2.876" transform="translate(233.401 157.813)" fill="#3f3d56"/>
    <rect id="Rectangle_364" data-name="Rectangle 364" width="4.931" height="2.876" transform="translate(243.263 157.813)" fill="#3f3d56"/>
    <path id="Path_326" data-name="Path 326" d="M700.453,503.512a59.172,59.172,0,1,1-118.344,0Z" transform="translate(-440.959 -343.85)" fill="#3f3d56"/>
    <path id="Path_327" data-name="Path 327" d="M809.189,339.168l-37.64-112.2a59.131,59.131,0,0,1,74.918,37.278c.4,1.188.76,2.383,1.081,3.579A59.175,59.175,0,0,1,809.189,339.168Z" transform="translate(-552.555 -179.128)" fill="#3f3d56"/>
    <circle id="Ellipse_49" data-name="Ellipse 49" cx="7.396" cy="7.396" r="7.396" transform="translate(250.659 154.114)" fill="#3f3d56"/>
    <path id="Path_328" data-name="Path 328" d="M680.664,541.012a2.055,2.055,0,0,0,0,4.109H716a2.055,2.055,0,1,0,0-4.109Z" transform="translate(-497.806 -365.941)" fill="#f86464"/>
    <path id="Path_329" data-name="Path 329" d="M558.45,563.216l-7.358.272-26.508-57.008,6.707-3.118Z" transform="translate(-309.024 -299.51)" fill="#3f3d56"/>
    <path id="Path_330" data-name="Path 330" d="M368,563.216l7.358.272,26.508-57.008-6.707-3.118Z" transform="translate(-216.783 -299.51)" fill="#3f3d56"/>
    <rect id="Rectangle_365" data-name="Rectangle 365" width="60.816" height="4.109" transform="translate(170.119 230.832)" fill="#3f3d56"/>
    <path id="Path_331" data-name="Path 331" d="M772.56,226.294a1.849,1.849,0,0,0-1.768,2.389l1.559,5.109a1.849,1.849,0,1,0,3.538-1.079L774.33,227.6A1.853,1.853,0,0,0,772.56,226.294Z" transform="translate(-552.062 -180.545)" fill="#f86464"/>
    <path id="Path_332" data-name="Path 332" d="M573.458,506.012a1.849,1.849,0,0,0,0,3.7H578.8a1.849,1.849,0,0,0,0-3.7Z" transform="translate(-434.774 -345.323)" fill="#f86464"/>
    <path id="Path_333" data-name="Path 333" d="M643.551,473.012h-22.19c-.14,0-.275,0-.411.016a5.751,5.751,0,0,0-.012,11.473c.14.012.279.016.423.016h22.19a5.753,5.753,0,0,0,0-11.506Z" transform="translate(-460.693 -325.883)" fill="#ff6584"/>
    <path id="Path_334" data-name="Path 334" d="M623.25,484.062c3.78-.485,6.755-5.256,6.755-11.05h-.822c0,5.667-2.95,10.273-6.575,10.273v.46Z" transform="translate(-464.817 -325.883)" opacity="0.2"/>
    <path id="Path_335" data-name="Path 335" d="M643.609,484.107v-.822c3.625,0,6.575-4.608,6.575-10.273h.822C651.005,479.129,647.687,484.107,643.609,484.107Z" transform="translate(-477.188 -325.883)" opacity="0.2"/>
    <path id="Path_336" data-name="Path 336" d="M664.609,484.107v-.822c3.625,0,6.575-4.608,6.575-10.273h.822C672.005,479.129,668.687,484.107,664.609,484.107Z" transform="translate(-489.559 -325.883)" opacity="0.2"/>
    <path id="Path_337" data-name="Path 337" d="M741.551,473.012h-22.19c-.14,0-.275,0-.411.016a5.751,5.751,0,0,0-.012,11.473c.14.012.279.016.423.016h22.19a5.753,5.753,0,0,0,0-11.506Z" transform="translate(-518.423 -325.883)" fill="#b5cc18"/>
    <path id="Path_338" data-name="Path 338" d="M721.25,484.062c3.78-.485,6.755-5.256,6.755-11.05h-.822c0,5.667-2.95,10.273-6.575,10.273v.46Z" transform="translate(-522.547 -325.883)" opacity="0.2"/>
    <path id="Path_339" data-name="Path 339" d="M741.609,484.107v-.822c3.625,0,6.575-4.608,6.575-10.273h.822C749.005,479.129,745.687,484.107,741.609,484.107Z" transform="translate(-534.918 -325.883)" opacity="0.2"/>
    <path id="Path_340" data-name="Path 340" d="M762.609,484.107v-.822c3.625,0,6.575-4.608,6.575-10.273h.822C770.005,479.129,766.687,484.107,762.609,484.107Z" transform="translate(-547.289 -325.883)" opacity="0.2"/>
    <path id="Path_341" data-name="Path 341" d="M667.126,337.71c-2.908-1.571-6.5.142-7.952,2.923-1.763,3.383-.3,7.449,1.754,10.34,2.136,3,5.035,5.484,6.461,8.956a14.971,14.971,0,0,1-5.84,18.437c-1.337.846-.1,2.98,1.244,2.129a17.505,17.505,0,0,0,6.245-22.84,24.427,24.427,0,0,0-3.208-4.534c-2.139-2.531-4.832-5.322-4.966-8.844a5.57,5.57,0,0,1,.095-1.364,4.8,4.8,0,0,1,.285-.915,4.462,4.462,0,0,1,1.3-1.616,3.942,3.942,0,0,1,1.763-.8,2.645,2.645,0,0,1,1.581.256C667.278,340.593,668.524,338.465,667.126,337.71Z" transform="translate(-485.892 -245.826)" fill="#767676"/>
    <path id="Path_342" data-name="Path 342" d="M757.853,374.367a7.191,7.191,0,0,0-7.194,1.672,4.369,4.369,0,0,0-1.169,3.815,7.608,7.608,0,0,0,2.2,3.89c2,2.092,4.8,3.445,6.484,5.848a7.34,7.34,0,0,1,1.356,3.48,6.573,6.573,0,0,1-.6,3.289,12.092,12.092,0,0,1-6.361,5.392,1.24,1.24,0,0,0-.442,1.687,1.266,1.266,0,0,0,1.687.442c4.826-2.051,9.29-6.646,7.959-12.291-.7-2.97-2.846-5.065-5.157-6.887a28.9,28.9,0,0,1-3.243-2.768,4.3,4.3,0,0,1-1.482-3.158,1.747,1.747,0,0,1,.554-1.039,4.778,4.778,0,0,1,1.221-.812,4.594,4.594,0,0,1,3.532-.183,1.244,1.244,0,0,0,1.516-.861,1.258,1.258,0,0,0-.861-1.516Z" transform="translate(-539.521 -267.57)" fill="#767676"/>
    <path id="Path_343" data-name="Path 343" d="M711.347,288.062a4.229,4.229,0,0,0-2.628-1.012,4.642,4.642,0,0,0-2.559.827,8.81,8.81,0,0,0-3.391,5.081c-1.246,4.772.379,9.916,2.637,14.119,1.141,2.125,2.471,4.141,3.62,6.262a27.788,27.788,0,0,1,2.532,6.425,31.061,31.061,0,0,1,.305,14.024c-.987,4.615-3.062,9.185-6.593,12.369a1.233,1.233,0,0,0,1.743,1.743,24.123,24.123,0,0,0,6.5-10.69,32.777,32.777,0,0,0,1.2-13.928,31.927,31.927,0,0,0-1.581-6.83,37.7,37.7,0,0,0-3.136-6.4c-2.317-3.918-4.784-7.881-5.12-12.546a9.431,9.431,0,0,1,1.541-6.53c-.078.1.062-.073.063-.074q.129-.154.268-.3a5.455,5.455,0,0,1,.566-.527c-.043.034-.152.107.047-.031.1-.069.2-.134.3-.2.084-.05.171-.094.257-.139q.077-.039.156-.074-.18.078.02,0c.1-.03.574-.133.309-.1a2.48,2.48,0,0,1,.266-.017c.038,0,.37.016.208,0-.19-.021.15.034.153.034a2.444,2.444,0,0,1,.313.1c-.256-.1.421.278.264.157a1.274,1.274,0,0,0,1.743,0,1.241,1.241,0,0,0,0-1.743Z" transform="translate(-511.784 -216.336)" fill="#767676"/>
    <path id="Path_344" data-name="Path 344" d="M217.492,513.371l-9.294,2.466-17.071-78.9,19.157-1.707Z" transform="translate(-112.59 -256.372)" fill="#ffb9b9"/>
    <path id="Path_345" data-name="Path 345" d="M126.195,515.3l-9.508,1.437-8.356-80.3,19.229.394Z" transform="translate(-63.816 -257.088)" fill="#ffb9b9"/>
    <path id="Path_346" data-name="Path 346" d="M347.5,363.585l.878,16.388a4.208,4.208,0,0,1-4.582,4.415h0a4.208,4.208,0,0,1-3.811-3.823L338.4,362.447,325.879,319.96l.379-27.313,14.795.759Z" transform="translate(-290.018 -219.633)" fill="#ffb9b9"/>
    <path id="Path_347" data-name="Path 347" d="M360.907,497.878q-11.116-3.859-25.8-1.517c1.388-16.441,2.192-31.708,1.517-44h50.453Z" transform="translate(-295.457 -313.715)" fill="#2f2e41"/>
    <path id="Path_348" data-name="Path 348" d="M415.763,498.043c-7.638,4.041-18.687,5.975-31.486,6.828l-15.933-50.833,39.073-.759Z" transform="translate(-315.034 -314.259)" fill="#2f2e41"/>
    <path id="Path_349" data-name="Path 349" d="M487.407,735.721l-27.486,1.018c-3.521.13-3.707-2.893-3.042-6.353l3.254-9.292c7.326,7.178,8.016,7.579,11.157-2.632l9.585,7.571,7.1,1.216a4.268,4.268,0,0,1,3.547,4.213h0a4.268,4.268,0,0,1-4.11,4.258Z" transform="translate(-367.009 -470.473)" fill="#2f2e41"/>
    <path id="Path_350" data-name="Path 350" d="M386.1,735.721l-27.486,1.018c-3.521.13-3.707-2.893-3.042-6.353l3.254-9.292c7.326,7.178,8.016,7.579,11.157-2.632l9.585,7.571,7.1,1.216a4.268,4.268,0,0,1,3.547,4.213h0a4.268,4.268,0,0,1-4.11,4.258Z" transform="translate(-307.329 -470.473)" fill="#2f2e41"/>
    <circle id="Ellipse_50" data-name="Ellipse 50" cx="14.795" cy="14.795" r="14.795" transform="translate(70.381 3.213)" fill="#ffb9b9"/>
    <path id="Path_351" data-name="Path 351" d="M163.8,74.866l-17.45-5.311,11.76-17.45L171.39,57.8Z" transform="translate(-86.214 -30.683)" fill="#ffb9b9"/>
    <path id="Path_352" data-name="Path 352" d="M384.6,309.727c-17.939,4.033-37.852,2.433-55.006-2.276,4.108-22.907,2.125-47.511-1.9-67.524-3.148-15.665,5.156-28.809,18.967-35.28a38.465,38.465,0,0,1,9.2-2.071,17.9,17.9,0,0,1,19.224,16.08Z" transform="translate(-290.696 -166.533)" fill="#f86464"/>
    <path id="Path_353" data-name="Path 353" d="M97.019,166.591,84.5,165.073l3.794-19.726h8.725Z" transform="translate(-49.778 -85.61)" fill="#f86464"/>
    <path id="Path_354" data-name="Path 354" d="M418.709,135.339l-2.267-1.007a3.874,3.874,0,0,0-5.318,2.565h0l-3.159,5.707-7.867-1.245.275-12.081a16.888,16.888,0,0,1,20.389-13.859l.215.049a24.437,24.437,0,0,1,11.429,6.649l4.849,5.515a1.906,1.906,0,0,1-1.219,3.152l-6.632.732Z" transform="translate(-333.74 -114.988)" fill="#2f2e41"/>
    <path id="Path_355" data-name="Path 355" d="M482.671,397.4l-8.5,7.452a.616.616,0,0,1-.813-.927l8.5-7.452-1.626-1.853-8.5,7.452a.616.616,0,1,1-.813-.927l8.5-7.452-1.626-1.854-8.5,7.452a.616.616,0,1,1-.813-.927l8.5-7.452-2.032-2.317-12.005,10.53a6.221,6.221,0,0,0-1.323,7.719l-36.245,31.792,3.252,3.707,36.222-31.771a6.025,6.025,0,0,0,7.7-.2L484.7,399.72Z" transform="translate(-348.63 -276.157)" fill="#e6e6e6"/>
    <path id="Path_356" data-name="Path 356" d="M433.358,363.585l.878,16.388a4.208,4.208,0,0,1-4.582,4.415h0a4.208,4.208,0,0,1-3.811-3.823l-1.589-18.119L411.735,319.96l.379-27.313,14.795.759Z" transform="translate(-340.594 -219.633)" fill="#ffb9b9"/>
    <path id="Path_357" data-name="Path 357" d="M426.959,258.422c-4.5-4.318-10.443-4.477-17.071-2.655V235.38a9.2,9.2,0,0,1,9.2-9.2h0a8.427,8.427,0,0,1,8.424,8.625Z" transform="translate(-339.507 -180.477)" fill="#f86464"/>
  </g>
</svg>
