<svg xmlns="http://www.w3.org/2000/svg" width="326.219" height="234.697" viewBox="0 0 326.219 234.697">
  <g id="Illustration" transform="translate(0 0)">
    <path id="Path_560" data-name="Path 560" d="M420.773,596.466q-25.214-3.693-48.5-6.367l6.138-9.932c-2.069-.611-11.161,5.051-11.161,5.051l8.057-28.876c-10.407,1-15.7,30.5-15.7,30.5l-11.627-10.035,5.627,11.247c-47.506-4.9-88.534-6.83-123.043-7.052l5.253-8.5c-2.069-.611-11.161,5.051-11.161,5.051l8.057-28.876c-10.407,1-15.7,30.5-15.7,30.5l-11.625-10.035,5.96,11.913c-28.931.351-52.523,1.895-70.734,3.7,5.314-13.256,23.362-25.8,23.362-25.8-13.782,3.368-21.012,9.085-24.79,14.428a198.1,198.1,0,0,1,16.089-80.384s-28.493,51.764-24.864,86.616l.434,6.188c-24.15,2.783-36.292,5.739-36.292,5.739Z" transform="translate(-94.554 -361.769)" fill="#3f3d56"/>
    <path id="Path_561" data-name="Path 561" d="M414.391,95.758V304.934a9.4,9.4,0,0,1-9.4,9.394H320.071a9.384,9.384,0,0,1-9.4-9.394V95.758a9.4,9.4,0,0,1,9.4-9.4h12.707v1.63a7.741,7.741,0,0,0,7.739,7.742h43.19a7.677,7.677,0,0,0,4.589-1.51,7.191,7.191,0,0,0,.762-.639,7.718,7.718,0,0,0,2.388-5.592v-1.63h13.544a9.4,9.4,0,0,1,9.4,9.4Z" transform="translate(-240.93 -86.358)" fill="#3f3d56"/>
    <circle id="Ellipse_67" data-name="Ellipse 67" cx="2.259" cy="2.259" r="2.259" transform="translate(91.14 32.593)" fill="#f2f2f2"/>
    <path id="Path_562" data-name="Path 562" d="M551.983,108.738a7.2,7.2,0,0,1-.762.639A40.418,40.418,0,0,0,577.315,128.8v-1.007A39.466,39.466,0,0,1,551.983,108.738Z" transform="translate(-403.853 -101.516)" fill="#f86464"/>
    <path id="Path_563" data-name="Path 563" d="M491.549,115.4h-1.058a58.625,58.625,0,0,0,45.692,36.482v-1A57.619,57.619,0,0,1,491.549,115.4Z" transform="translate(-362.721 -106.027)" fill="#f86464"/>
    <path id="Path_564" data-name="Path 564" d="M431.211,115.4h-1.02a77.3,77.3,0,0,0,65.151,55.221v-.984A76.315,76.315,0,0,1,431.211,115.4Z" transform="translate(-321.88 -106.027)" fill="#f86464"/>
    <path id="Path_565" data-name="Path 565" d="M263.717,158.588h-.588V158h-.115v.588h-.588v.115h.588v.588h.115V158.7h.588Z" transform="translate(-177.74 -107.013)" fill="#f2f2f2"/>
    <path id="Path_566" data-name="Path 566" d="M386.717,67.588h-.588V67h-.115v.588h-.588V67.7h.588v.588h.115V67.7h.588Z" transform="translate(-261.048 -45.379)" fill="#f2f2f2"/>
    <path id="Path_567" data-name="Path 567" d="M281.717,230.588h-.588V230h-.115v.588h-.588v.115h.588v.588h.115V230.7h.588Z" transform="translate(-189.932 -155.778)" fill="#f2f2f2"/>
    <path id="Path_568" data-name="Path 568" d="M365.717,177.588h-.588V177h-.115v.588h-.588v.115h.588v.588h.115V177.7h.588Z" transform="translate(-246.825 -119.882)" fill="#f2f2f2"/>
    <path id="Path_569" data-name="Path 569" d="M485.717,210.588h-.588V210h-.115v.588h-.588v.115h.588v.588h.115V210.7h.588Z" transform="translate(-328.1 -142.232)" fill="#f2f2f2"/>
    <circle id="Ellipse_68" data-name="Ellipse 68" cx="1.291" cy="1.291" r="1.291" transform="translate(149.549 39.047)" fill="#ff6584"/>
    <path id="Path_570" data-name="Path 570" d="M417.144,305.158l-.733.113c.229,1.465.41,2.962.542,4.444l.739-.065C417.56,308.149,417.376,306.639,417.144,305.158Z" transform="translate(-312.547 -234.551)" fill="#e6e6e6"/>
    <path id="Path_571" data-name="Path 571" d="M410.981,277.818l-.71.216c.429,1.42.813,2.875,1.139,4.324l.726-.165C411.8,280.729,411.413,279.257,410.981,277.818Z" transform="translate(-308.388 -216.033)" fill="#e6e6e6"/>
    <path id="Path_572" data-name="Path 572" d="M401.145,251.6l-.674.31c.62,1.352,1.2,2.74,1.726,4.127l.694-.261C402.359,254.37,401.775,252.963,401.145,251.6Z" transform="translate(-301.751 -198.275)" fill="#e6e6e6"/>
    <path id="Path_573" data-name="Path 573" d="M387.847,227.018l-.626.4c.8,1.252,1.562,2.549,2.272,3.85l.652-.355C389.428,229.593,388.654,228.283,387.847,227.018Z" transform="translate(-292.777 -181.627)" fill="#e6e6e6"/>
    <path id="Path_574" data-name="Path 574" d="M371.316,204.488l-.565.481c.962,1.129,1.9,2.311,2.782,3.5l.594-.442C373.236,206.824,372.29,205.63,371.316,204.488Z" transform="translate(-281.622 -166.367)" fill="#e6e6e6"/>
    <path id="Path_575" data-name="Path 575" d="M351.885,184.428l-.494.552c1.11.991,2.2,2.033,3.233,3.095l.532-.52C354.108,186.48,353.008,185.428,351.885,184.428Z" transform="translate(-268.509 -152.78)" fill="#e6e6e6"/>
    <path id="Path_576" data-name="Path 576" d="M329.927,167.208l-.416.613c1.233.829,2.453,1.714,3.624,2.627l.458-.584C332.406,168.941,331.173,168.047,329.927,167.208Z" transform="translate(-253.69 -141.117)" fill="#e6e6e6"/>
    <path id="Path_577" data-name="Path 577" d="M310.671,155.248v.839c.771.4,1.536.826,2.285,1.259l.371-.642Q312.02,155.948,310.671,155.248Z" transform="translate(-240.93 -133.017)" fill="#e6e6e6"/>
    <path id="Path_578" data-name="Path 578" d="M418.161,516.565c.12-.722.23-1.458.327-2.19l.736.1c-.1.74-.209,1.484-.331,2.214Z" transform="translate(-313.732 -376.253)" fill="#e6e6e6"/>
    <path id="Path_579" data-name="Path 579" d="M411.752,539.08l.709.221c.445-1.434.848-2.9,1.2-4.367l-.723-.171C412.589,536.211,412.194,537.662,411.752,539.08Z" transform="translate(-309.391 -390.061)" fill="#e6e6e6"/>
    <path id="Path_580" data-name="Path 580" d="M401.71,565.341l.673.316c.64-1.358,1.239-2.757,1.783-4.158l-.692-.27C402.937,562.614,402.344,564,401.71,565.341Z" transform="translate(-302.59 -407.987)" fill="#e6e6e6"/>
    <path id="Path_581" data-name="Path 581" d="M388.2,590.157l.622.4c.821-1.258,1.608-2.563,2.341-3.876l-.647-.363C389.792,587.621,389.011,588.91,388.2,590.157Z" transform="translate(-293.439 -424.982)" fill="#e6e6e6"/>
    <path id="Path_582" data-name="Path 582" d="M371.482,613.045l.562.487c.987-1.139,1.944-2.323,2.851-3.521l-.594-.444C373.407,610.751,372.46,611.921,371.482,613.045Z" transform="translate(-282.117 -440.726)" fill="#e6e6e6"/>
    <path id="Path_583" data-name="Path 583" d="M351.907,633.56l.489.558c1.135-.99,2.244-2.034,3.3-3.1l-.525-.526C354.127,631.547,353.027,632.577,351.907,633.56Z" transform="translate(-268.859 -454.901)" fill="#e6e6e6"/>
    <path id="Path_584" data-name="Path 584" d="M329.855,651.345l.41.621c1.253-.827,2.5-1.709,3.691-2.618l-.449-.592C332.325,649.657,331.1,650.528,329.855,651.345Z" transform="translate(-253.923 -467.268)" fill="#e6e6e6"/>
    <path id="Path_585" data-name="Path 585" d="M313.411,664.66c-.9.507-1.814,1-2.74,1.462v-.833c.8-.407,1.594-.836,2.372-1.271Z" transform="translate(-240.93 -477.605)" fill="#e6e6e6"/>
    <path id="Path_586" data-name="Path 586" d="M418.836,333.436l.742-.013c.014.749.015,1.5,0,2.238l-.742-.012C418.85,334.921,418.849,334.176,418.836,333.436Z" transform="translate(-314.189 -253.694)" fill="#e6e6e6"/>
    <path id="Path_587" data-name="Path 587" d="M226.216,301.632h75.9a21.3,21.3,0,0,1,21.3,21.3v2.819h-75.9a21.3,21.3,0,0,1-21.3-21.3v-2.819Z" transform="translate(-153.216 -204.294)" fill="#fff"/>
    <path id="Path_588" data-name="Path 588" d="M471.368,619.153c-.074-.121-1.82-3.037-2.426-9.091-.555-5.555-.2-14.917,4.657-27.978a56.42,56.42,0,0,0-2.236-44.9l.558-.324A49.556,49.556,0,0,1,476.6,550.1a57.783,57.783,0,0,1-2.393,32.208c-9.183,24.7-2.356,36.392-2.286,36.508Z" transform="translate(-347.993 -391.479)" fill="#f2f2f2"/>
    <circle id="Ellipse_69" data-name="Ellipse 69" cx="4.195" cy="4.195" r="4.195" transform="translate(115.582 135.858)" fill="#f86464"/>
    <circle id="Ellipse_70" data-name="Ellipse 70" cx="4.195" cy="4.195" r="4.195" transform="translate(128.813 151.348)" fill="#f2f2f2"/>
    <circle id="Ellipse_71" data-name="Ellipse 71" cx="4.195" cy="4.195" r="4.195" transform="translate(119.778 161.674)" fill="#f86464"/>
    <circle id="Ellipse_72" data-name="Ellipse 72" cx="4.195" cy="4.195" r="4.195" transform="translate(130.749 170.387)" fill="#f86464"/>
    <circle id="Ellipse_73" data-name="Ellipse 73" cx="4.195" cy="4.195" r="4.195" transform="translate(116.551 183.941)" fill="#f2f2f2"/>
    <path id="Path_589" data-name="Path 589" d="M483.315,754.429s-4.2-10.326,8.39-18.071Z" transform="translate(-357.406 -526.601)" fill="#f2f2f2"/>
    <path id="Path_590" data-name="Path 590" d="M433.714,768.925s-1.909-10.981-16.686-10.887Z" transform="translate(-312.965 -541.284)" fill="#f2f2f2"/>
    <circle id="Ellipse_74" data-name="Ellipse 74" cx="25.816" cy="25.816" r="25.816" transform="translate(78.231 83.58)" fill="#f86464" opacity="0.2"/>
    <circle id="Ellipse_75" data-name="Ellipse 75" cx="18.18" cy="18.18" r="18.18" transform="translate(85.867 91.216)" fill="#f86464" opacity="0.2"/>
    <circle id="Ellipse_76" data-name="Ellipse 76" cx="11.999" cy="11.999" r="11.999" transform="translate(92.049 97.397)" fill="#f86464"/>
    <path id="Path_591" data-name="Path 591" d="M414.583,412.757a2.182,2.182,0,1,0-3.56,1.691l-.8,5.624h4.363l-.8-5.624A2.177,2.177,0,0,0,414.583,412.757Z" transform="translate(-308.353 -305.949)" fill="#fff"/>
    <path id="Path_592" data-name="Path 592" d="M695.864,136.068s-7.2-6.452-16.876,5.708-24.817,18.116-28.291,22.832c0,0,14.394-5.956,19.357-8.438s4.715-1.985,4.715-1.985-6.7,4.715-7.941,9.43-.248,8.686-2.482,13.4,42.685,3.226,42.685,3.226,4.467-7.693,3.226-15.635S709.761,137.061,695.864,136.068Z" transform="translate(-471.228 -118.868)" fill="#2f2e41"/>
    <path id="Path_593" data-name="Path 593" d="M727.848,202.56s1.565,10.955-5.142,13.414-4.248,5.813-4.248,5.813l10.06,4.918,10.731-3.354,3.577-5.366s-5.813-1.341-4.248-5.366,2.012-5.366,2.012-5.366Z" transform="translate(-516.824 -165.061)" fill="#ffb9b9"/>
    <path id="Path_594" data-name="Path 594" d="M727.848,202.56s1.565,10.955-5.142,13.414-4.248,5.813-4.248,5.813l10.06,4.918,10.731-3.354,3.577-5.366s-5.813-1.341-4.248-5.366,2.012-5.366,2.012-5.366Z" transform="translate(-516.824 -165.061)" opacity="0.1"/>
    <path id="Path_595" data-name="Path 595" d="M816.532,299.551s-1.565,20.568-1.118,21.462,0,31.97,0,31.97,3.13,16.767-.894,17.662-3.13-18.78-3.13-18.78l-4.024-25.934.447-25.71Z" transform="translate(-577.34 -230.753)" fill="#ffb9b9"/>
    <path id="Path_596" data-name="Path 596" d="M816.532,299.551s-1.565,20.568-1.118,21.462,0,31.97,0,31.97,3.13,16.767-.894,17.662-3.13-18.78-3.13-18.78l-4.024-25.934.447-25.71Z" transform="translate(-577.34 -230.753)" opacity="0.1"/>
    <path id="Path_597" data-name="Path 597" d="M685.651,491.454s-7.378,27.946-7.154,41.583,3.13,32.641,3.13,32.641.447,8.272-.224,9.166,3.353,4.695,3.353,4.695L689,577.08l1.565-1.789v-1.565s-2.459-7.6-.447-13.638,3.13-21.239,1.118-25.934L705.1,493.019Z" transform="translate(-490.053 -360.728)" fill="#ffb9b9"/>
    <path id="Path_598" data-name="Path 598" d="M668.562,748.146s-2.683-3.354-4.471-2.236-4.695,8.719-4.695,8.719-10.06,9.613-2.906,10.06,10.284-2.012,11.178-3.8,9.166-6.484,9.166-6.484-.894-8.5-2.236-8.719-3.354,3.353-3.354,3.353Z" transform="translate(-473.411 -532.913)" fill="#2f2e41"/>
    <path id="Path_599" data-name="Path 599" d="M769.621,482.919v27.722a85.724,85.724,0,0,0,.671,10.06c.671,4.918-3.8,41.583-3.8,41.583l.447,6.483,5.589-.447.671-5.589,8.048-24.592s2.683-14.979,1.341-20.568,6.931-41.36,6.931-41.36Z" transform="translate(-549.655 -350.405)" fill="#ffb9b9"/>
    <path id="Path_600" data-name="Path 600" d="M761.336,752.8l1.656-.36s1.251-2.77,2.815-2.1a16.873,16.873,0,0,1,3.112,1.865l.689,1.265a26.721,26.721,0,0,0,3.577,5.589c2.012,2.236,4.248,7.154.894,7.6s-7.825.671-9.166-.447-.447-2.906-1.789-3.354-2.459-1.789-2.236-2.236S761.336,752.8,761.336,752.8Z" transform="translate(-545.842 -535.998)" fill="#2f2e41"/>
    <circle id="Ellipse_77" data-name="Ellipse 77" cx="9.936" cy="9.936" r="9.936" transform="translate(210.03 25.327)" fill="#ffb9b9"/>
    <path id="Path_601" data-name="Path 601" d="M718,247.506l2.953-1.031s-1.165,1.925,5.1,3.043,12.743,1.514,15.649-2.15c0,0,1.118-.533,2.683,1.032s2.459,1.118,2.459,1.118l-1.118,5.813-2.236,10.731-2.906,8.048-8.272-1.789-8.943-6.483-3.354-8.719v-8.049Z" transform="translate(-516.81 -194.805)" fill="#f86464"/>
    <path id="Path_602" data-name="Path 602" d="M721.809,252.383l2.236-1.565s7.6,1.341,8.048,4.918l-5.813,11.178a12.726,12.726,0,0,1-.224,9.613c-2.236,5.142-2.012,6.26-2.012,6.26l-1.565,6.707-28.393,2.236a20.119,20.119,0,0,0-1.565-3.13c-.447-.447-.447-2.012,0-2.012s0-.671-.447-1.341-.671-.894,0-1.789-1.118-8.943-1.118-8.943V265.8l-7.6-10.06s2.683-4.024,4.024-4.471,7.722-2.21,7.722-2.21l1.444,2.126,2.012,16.181,2.906,9.837L713.7,275.12l4.754-7.981,3.13-9.39Z" transform="translate(-493.348 -196.552)" fill="#f86464"/>
    <path id="Path_603" data-name="Path 603" d="M817.1,265.6l1.789,1.341s1.565,12.52,1.118,13.414-8.272,1.789-8.5,1.341S817.1,265.6,817.1,265.6Z" transform="translate(-580.142 -207.761)" fill="#f86464"/>
    <path id="Path_604" data-name="Path 604" d="M701.857,244.329l2.236,14.755s-2.012,21.909-1.565,26.381l.447,1.341s-.894-.447-1.118.447a20.91,20.91,0,0,0,0,3.8s-1.341,1.341-1.789,8.719-5.813,25.039-3.8,25.71,14.085,4.024,20.568,3.353,29.734-8.5,29.511-10.508-11.4-30.4-11.4-30.4a29.377,29.377,0,0,1-2.012-3.8c0-.447,2.683-2.236,2.012-4.024s-4.248-20.568-4.248-20.568l2.459-13.414-3.353-.894-2.459,12.967s-9.613,4.695-19.674.447l-2.236-15.2Z" transform="translate(-501.789 -192.746)" fill="#2f2e41"/>
    <path id="Path_605" data-name="Path 605" d="M747.864,164.15s16.544,11.4,21.015,6.26-7.825-9.613-7.825-9.613l-10.284-1.118Z" transform="translate(-537.039 -136.018)" fill="#2f2e41"/>
    <path id="Path_606" data-name="Path 606" d="M586.735,516.41a8.722,8.722,0,1,0-2.736-3.4l-22.817,19-3.038-3.606-1.365.913-1.519-1.8,1.248-1.052-1.519-1.8-1.942,1.636.935,1.109-2.08,1.753-.935-1.109-3.051,2.571,1.4,1.664,1.109-.935,1.519,1.8-1.387,1.169,2.8,3.328-3.328,2.8,3.389,4.022Zm5.7-12.744a5.77,5.77,0,1,1-6.241,5.258,5.77,5.77,0,0,1,6.241-5.258Z" transform="translate(-401.615 -366.985)" fill="#f86464"/>
    <path id="Path_607" data-name="Path 607" d="M678.419,307.864s1.565,20.568,1.118,21.462,0,31.97,0,31.97-3.13,16.767.894,17.662,3.13-18.78,3.13-18.78l4.024-25.934-.447-25.71Z" transform="translate(-489.976 -236.383)" fill="#ffb9b9"/>
    <path id="Path_608" data-name="Path 608" d="M679.665,267.682l-1.789.671s-3.354,14.085-2.459,14.085,11.625,1.341,11.625.894-2.012-11.4-2.012-11.4Z" transform="translate(-487.869 -209.168)" fill="#f86464"/>
  </g>
</svg>
