<?xml version="1.0" encoding="utf-8"?>
<!-- Generator: Adobe Illustrator 25.0.1, SVG Export Plug-In . SVG Version: 6.00 Build 0)  -->
<svg version="1.1" id="Camada_1" xmlns="http://www.w3.org/2000/svg" xmlns:xlink="http://www.w3.org/1999/xlink" x="0px" y="0px"
	 viewBox="0 0 319.6 234.9" style="enable-background:new 0 0 319.6 234.9;" xml:space="preserve">
<style type="text/css">
	.st0{opacity:0.1;fill:#F86464;enable-background:new    ;}
	.st1{fill:#3F3D56;}
	.st2{fill:#F86464;}
	.st3{fill:#FFFFFF;}
	.st4{fill:none;}
	.st5{fill:url(#Caminho_1095_1_);}
	.st6{fill:#4C495A;}
	.st7{opacity:0.1;enable-background:new    ;}
	.st8{fill:#5F5D7E;}
	.st9{fill:#FDC2CC;}
	.st10{fill:#DFE6F5;}
	.st11{fill:#53526B;}
	.st12{fill:#865A61;}
	.st13{opacity:0.1;}
	.st14{fill:#A0616A;}
	.st15{fill:#2F2E41;}
	.st16{display:none;fill:#FEFEFE;}
	.st17{fill:#F76464;}
	.st18{fill:#FCFCFC;}
	.st19{fill:#C2B0B0;}
	.st20{fill:#F99A9A;}
	.st21{fill:#FEFEFE;}
	.st22{fill:#F66464;}
	.st23{fill:#D9CCCC;}
	.st24{fill:#F9F9F9;}
</style>
<g id="Illustrations" transform="translate(-27.694 -187.836)">
	<path id="Caminho_1222" class="st0" d="M126.4,248.7c10.8-4.1,27.9-4.9,43.4-4.6c48.7,1,92.6,11,130.6,22.3
		c13.8,4.1,27.3,8.5,36.2,14.1c18.2,11.5,12.8,27.4-12.5,36.8c-8.6,3.2-19,5.7-29.7,7.9c-20.1,4.3-40.6,6.9-61.2,7.9
		c-15.4,0.6-31,0.1-46.3-0.8c-42.8-2.5-84.8-7.9-120-17.3c-15.4-4.1-30-9.2-36.3-15.8c-6.4-6.6-2.3-15,13.5-18.9
		c6.5-1.6,14.3-2.4,21.9-3c11.2-1,22.6-2,32.8-4.1c10.5-2.1,22.9-6.2,20.8-10.9C117.3,257.2,115.6,252.8,126.4,248.7z"/>
	<g id="Phone" transform="translate(66 187.836)">
		<path id="Caminho_1160" class="st1" d="M77.8,149.1c-0.8,0-1.6,0-2.4,0l0-0.6c1.1,0,2.3,0,3.4,0l0,0.6
			C78.5,149,78.1,149.1,77.8,149.1z M82.2,148.9l0-0.6c1.1-0.1,2.3-0.2,3.4-0.3l0.1,0.6C84.5,148.8,83.4,148.9,82.2,148.9
			L82.2,148.9z M72,148.8c-1.1-0.1-2.3-0.2-3.4-0.3l0.1-0.6c1.1,0.1,2.2,0.2,3.4,0.3L72,148.8z M89,148.2l-0.1-0.6
			c1.1-0.2,2.2-0.4,3.3-0.6l0.1,0.6C91.3,147.8,90.1,148,89,148.2z M65.2,148c-1.1-0.2-2.2-0.4-3.4-0.6l0.1-0.6
			c1.1,0.2,2.2,0.5,3.3,0.6L65.2,148z M95.7,146.9l-0.1-0.6c1.1-0.3,2.2-0.6,3.3-0.9L99,146C97.9,146.3,96.8,146.6,95.7,146.9
			L95.7,146.9z M58.6,146.6c-1.1-0.3-2.2-0.6-3.3-1l0.2-0.5c1.1,0.3,2.2,0.7,3.3,0.9L58.6,146.6z M102.3,144.9l-0.2-0.5
			c1.1-0.4,2.1-0.8,3.2-1.2l0.2,0.5C104.4,144.2,103.3,144.6,102.3,144.9L102.3,144.9z M52.1,144.5c-1.1-0.4-2.1-0.8-3.2-1.3
			l0.2-0.5c1,0.4,2.1,0.9,3.2,1.2L52.1,144.5z M108.6,142.4l-0.2-0.5c1-0.5,2-1,3-1.5l0.3,0.5C110.6,141.4,109.6,141.9,108.6,142.4
			L108.6,142.4z M114.6,139.3l-0.3-0.5c1-0.6,2-1.1,2.9-1.7l0.3,0.5C116.6,138.1,115.6,138.7,114.6,139.3L114.6,139.3z M120.4,135.7
			l-0.3-0.5c0.9-0.6,1.8-1.3,2.7-2l0.3,0.4C122.3,134.3,121.3,135,120.4,135.7L120.4,135.7z M34,134.9c-0.9-0.7-1.8-1.4-2.7-2.1
			l0.4-0.4c0.9,0.7,1.8,1.4,2.7,2.1L34,134.9z M125.8,131.5l-0.4-0.4c0.9-0.7,1.7-1.5,2.5-2.2l0.4,0.4
			C127.5,130,126.7,130.8,125.8,131.5L125.8,131.5z M28.7,130.6c-0.9-0.7-1.7-1.5-2.5-2.3l0.4-0.4c0.8,0.8,1.7,1.5,2.5,2.3
			L28.7,130.6z M130.8,126.9l-0.4-0.4c0.8-0.8,1.6-1.6,2.3-2.5l0.4,0.4C132.4,125.2,131.6,126.1,130.8,126.9L130.8,126.9z
			 M23.8,125.9c-0.8-0.8-1.6-1.7-2.3-2.5l0.4-0.4c0.7,0.8,1.5,1.7,2.3,2.5L23.8,125.9z M135.4,121.8l-0.4-0.4
			c0.7-0.9,1.4-1.8,2.1-2.7l0.5,0.3C136.8,120,136.1,120.9,135.4,121.8z M19.3,120.7c-0.7-0.9-1.4-1.8-2.1-2.7l0.5-0.3
			c0.7,0.9,1.3,1.8,2,2.7L19.3,120.7z M139.5,116.3L139,116c0.6-0.9,1.3-1.9,1.8-2.8l0.5,0.3C140.7,114.4,140.1,115.4,139.5,116.3
			L139.5,116.3z M15.3,115.2c-0.6-0.9-1.2-1.9-1.8-2.9L14,112c0.6,1,1.2,1.9,1.8,2.9L15.3,115.2z M143,110.5l-0.5-0.3
			c0.5-1,1.1-2,1.6-3l0.5,0.3C144.1,108.5,143.6,109.5,143,110.5L143,110.5z M146.1,104.4l-0.5-0.2c0.5-1,0.9-2.1,1.3-3.1l0.5,0.2
			C147,102.3,146.5,103.3,146.1,104.4L146.1,104.4z M9,103.2c-0.4-1-0.9-2.1-1.2-3.2l0.5-0.2c0.4,1.1,0.8,2.1,1.2,3.1L9,103.2z
			 M148.5,98l-0.5-0.2c0.4-1.1,0.7-2.2,1-3.2l0.5,0.2C149.2,95.8,148.9,96.9,148.5,98z M6.6,96.8c-0.3-1.1-0.7-2.2-0.9-3.3l0.5-0.1
			c0.3,1.1,0.6,2.2,0.9,3.3L6.6,96.8z M150.4,91.4l-0.6-0.1c0.3-1.1,0.5-2.2,0.7-3.3l0.6,0.1C150.9,89.2,150.6,90.3,150.4,91.4
			L150.4,91.4z M4.9,90.2c-0.2-1.1-0.4-2.2-0.6-3.4l0.6-0.1C5,87.8,5.2,88.9,5.4,90L4.9,90.2z M151.6,84.7l-0.6-0.1
			c0.2-1.1,0.3-2.2,0.4-3.4l0.6,0.1C151.9,82.5,151.8,83.6,151.6,84.7L151.6,84.7z M3.8,83.4c-0.1-1.1-0.2-2.3-0.3-3.4L4,80
			c0.1,1.1,0.2,2.3,0.3,3.4L3.8,83.4z M152.2,77.9l-0.6,0c0.1-1.1,0.1-2.3,0.1-3.4h0.6C152.3,75.7,152.3,76.8,152.2,77.9L152.2,77.9
			z M3.3,76.6c0-0.7,0-1.4,0-2.1c0-0.4,0-0.9,0-1.3l0.6,0c0,0.4,0,0.9,0,1.3c0,0.7,0,1.4,0,2.1L3.3,76.6z M4,69.8l-0.6,0
			c0.1-1.1,0.2-2.3,0.3-3.4l0.6,0.1C4.1,67.6,4,68.7,4,69.8L4,69.8z M151.4,66.4c-0.1-1.1-0.3-1.7-0.4-2.8l0.6-0.1
			c0.2,1.1,0.3,2,0.4,3.1L151.4,66.4z M4.7,63.1L4.1,63c0.2-1.1,0.4-2.3,0.6-3.4l0.6,0.1C5.1,60.9,4.9,62,4.7,63.1z M150.4,60.3
			c-0.2-1.1-0.5-2.2-0.7-3.3l0.6-0.1c0.3,1.1,0.5,2.2,0.7,3.3L150.4,60.3z M6,56.5l-0.6-0.1c0.3-1.1,0.6-2.2,0.9-3.3l0.5,0.2
			C6.6,54.3,6.3,55.4,6,56.5L6,56.5z M148.8,53.7c-0.3-1.1-0.7-2.2-1-3.2l0.5-0.2c0.4,1.1,0.7,2.2,1,3.3L148.8,53.7z M8,50l-0.5-0.2
			c0.4-1.1,0.8-2.1,1.2-3.2l0.5,0.2C8.8,47.9,8.4,48.9,8,50z M146.6,47.3c-0.4-1-0.9-2.1-1.3-3.1l0.5-0.2c0.5,1,0.9,2.1,1.3,3.1
			L146.6,47.3z M10.5,43.7L10,43.5c0.5-1,1-2.1,1.5-3.1l0.5,0.3C11.5,41.6,11,42.7,10.5,43.7z M143.8,41.1c-0.5-1-1-2-1.6-3l0.5-0.3
			c0.6,1,1.1,2,1.6,3L143.8,41.1z M13.6,37.7l-0.5-0.3c0.6-1,1.2-2,1.8-2.9l0.5,0.3C14.8,35.7,14.2,36.7,13.6,37.7L13.6,37.7z
			 M140.5,35.3c-0.6-1-1.2-1.9-1.9-2.8l0.5-0.3c0.6,0.9,1.3,1.9,1.9,2.8L140.5,35.3z M17.3,32l-0.5-0.3c0.7-0.9,1.3-1.8,2-2.7
			l0.4,0.3C18.6,30.1,17.9,31,17.3,32z M136.6,29.7c-0.7-0.9-1.4-1.8-2.1-2.6l0.4-0.4c0.7,0.9,1.4,1.8,2.1,2.7L136.6,29.7z
			 M21.4,26.6L21,26.2c0.7-0.9,1.5-1.7,2.3-2.5l0.4,0.4C22.9,24.9,22.2,25.8,21.4,26.6z M132.3,24.5c-0.8-0.8-1.6-1.7-2.3-2.4
			l0.4-0.4c0.8,0.8,1.6,1.6,2.4,2.5L132.3,24.5z M26.1,21.7l-0.4-0.4c0.8-0.8,1.6-1.6,2.5-2.3l0.4,0.4
			C27.7,20.1,26.9,20.9,26.1,21.7L26.1,21.7z M127.4,19.7c-0.8-0.8-1.7-1.5-2.6-2.2l0.4-0.4c0.9,0.7,1.7,1.5,2.6,2.2L127.4,19.7z
			 M31.1,17.1l-0.4-0.4c0.9-0.7,1.8-1.4,2.7-2.1l0.3,0.5C32.9,15.7,32,16.4,31.1,17.1L31.1,17.1z M36.5,13.1l-0.3-0.5
			c0.9-0.6,1.9-1.2,2.9-1.8l0.3,0.5C38.4,11.9,37.5,12.5,36.5,13.1L36.5,13.1z M42.3,9.6L42,9.1c1-0.5,2-1.1,3-1.6L45.3,8
			C44.3,8.5,43.3,9.1,42.3,9.6L42.3,9.6z M110.7,8.3c-1-0.5-2-1-3.1-1.4l0.2-0.5c1,0.5,2.1,0.9,3.1,1.5L110.7,8.3z M48.4,6.6
			l-0.2-0.5c1-0.5,2.1-0.9,3.2-1.3l0.2,0.5C50.5,5.8,49.4,6.2,48.4,6.6z M104.5,5.5c-1-0.4-2.1-0.8-3.2-1.2l0.2-0.5
			c1.1,0.4,2.2,0.8,3.2,1.2L104.5,5.5z M54.7,4.2l-0.2-0.5c1.1-0.4,2.2-0.7,3.3-1L58,3.3C56.9,3.6,55.8,3.9,54.7,4.2z M98.1,3.4
			c-1.1-0.3-2.2-0.6-3.3-0.9L94.9,2c1.1,0.3,2.2,0.5,3.3,0.9L98.1,3.4z M61.2,2.4l-0.1-0.6c1.1-0.3,2.2-0.5,3.3-0.7l0.1,0.6
			C63.4,1.9,62.3,2.2,61.2,2.4L61.2,2.4z M91.5,1.8c-1.1-0.2-2.2-0.4-3.3-0.5l0.1-0.6c1.1,0.2,2.3,0.3,3.4,0.6L91.5,1.8z M67.9,1.2
			l-0.1-0.6c1.1-0.1,2.3-0.3,3.4-0.4l0,0.6C70.1,0.9,69,1.1,67.9,1.2L67.9,1.2z M84.8,0.9c-1.1-0.1-2.3-0.2-3.4-0.2l0-0.6
			c1.1,0.1,2.3,0.1,3.4,0.2L84.8,0.9z M74.6,0.6l0-0.6c1,0,2.1-0.1,3.2-0.1H78v0.6h-0.3C76.7,0.6,75.7,0.6,74.6,0.6L74.6,0.6z"/>
		<path id="Caminho_1161" class="st1" d="M169,26.7v183.7c0,4.6-3.7,8.2-8.3,8.2H86.1c-4.6,0-8.2-3.7-8.3-8.2c0,0,0,0,0,0V26.7
			c0-4.6,3.7-8.3,8.3-8.3c0,0,0,0,0,0h11.2v1.4c0,3.8,3,6.8,6.8,6.8H142c1.5,0,2.9-0.5,4-1.3c0.2-0.2,0.5-0.4,0.7-0.6
			c1.3-1.3,2.1-3.1,2.1-4.9v-1.4h11.9C165.3,18.4,169,22.1,169,26.7C169,26.7,169,26.7,169,26.7L169,26.7z"/>
		<rect id="Retângulo_467" x="88.8" y="84.7" class="st2" width="69.3" height="52.7"/>
		<path id="Caminho_1162" class="st2" d="M52.3,75.8c6.2,0.1,11.1,4.6,11.1,4.6s-5.1,4.3-11.3,4.1S41,79.9,41,79.9
			S46.1,75.6,52.3,75.8z"/>
		<path id="Caminho_1163" class="st2" d="M21.3,54.7c5.6,2.6,12,0.9,12,0.9s-2.6-6.1-8.2-8.7s-12-0.9-12-0.9S15.7,52.1,21.3,54.7z"
			/>
		<path id="Caminho_1164" class="st1" d="M21.9,52.1c6.1-0.6,11.5,3.3,11.5,3.3s-4.6,4.8-10.7,5.4s-11.5-3.3-11.5-3.3
			S15.7,52.7,21.9,52.1z"/>
		<path id="Caminho_1165" class="st1" d="M44.4,53.2c-0.6,6.1,3.3,11.5,3.3,11.5s4.8-4.6,5.4-10.7s-3.3-11.5-3.3-11.5
			S45,47,44.4,53.2z"/>
		<path id="Caminho_1166" class="st1" d="M73.3,90.8c-3.2,5.3-2.1,11.8-2.1,11.8s6.3-2,9.6-7.2s2.1-11.8,2.1-11.8
			S76.5,85.6,73.3,90.8z"/>
		<path id="Caminho_1167" class="st1" d="M64,148l0.5-0.3c-1.7-2.4-2.6-5.2-2.6-8.2c0-4.3,2.1-8.2,4.1-12c0.4-0.7,0.8-1.4,1.1-2.1
			c1.5-2.9,2.7-5.9,3.6-9c3.1-11.7,0-25.5-8.3-36.9c-6.6-9-16.5-17-30.1-24.2L32,55.8c13.6,7.2,23.4,15,29.9,24
			c8.2,11.3,11.3,24.9,8.2,36.4c-0.9,3.1-2.1,6.1-3.6,8.9c-0.4,0.7-0.7,1.4-1.1,2.1c-2.1,3.9-4.2,7.9-4.2,12.3
			C61.3,142.6,62.2,145.5,64,148z"/>
		<circle id="Elipse_149" class="st1" cx="5.4" cy="50.7" r="5.4"/>
		<path id="Caminho_1168" class="st2" d="M81.2,138l-33.8-2.8V85.7L81.2,84V138z"/>
		<path id="Caminho_1169" class="st2" d="M165.7,138l33.8-2.8V85.7L165.7,84V138z"/>
		<circle id="Elipse_150" class="st2" cx="123.4" cy="153.2" r="8.2"/>
		<path id="Caminho_1173" class="st3" d="M128.6,152.4h-4.4v-4.4h-1.6v4.4h-4.4v1.6h4.4v4.4h1.6V154h4.4V152.4z"/>
		<path id="Caminho_1174" class="st3" d="M149.3,153.5l-4.2-2v1.1h-9.9v1.7h9.9v1.1L149.3,153.5z"/>
		<path id="Caminho_1175" class="st3" d="M97.5,153.5l4.2-2v1.1h9.9v1.7h-9.9v1.1L97.5,153.5z"/>
		<rect id="Retângulo_468" x="19.6" y="218.7" class="st1" width="207.7" height="0.6"/>
		<rect id="Retângulo_469" x="96.2" y="45.3" class="st3" width="54.4" height="0.6"/>
		<rect id="Retângulo_470" x="96.3" y="200" class="st3" width="54.4" height="0.6"/>
		<g id="Grupo_583" transform="translate(50.499 96.274)">
			<g id="Caminho_1221">
				<path class="st4" d="M22.2,23.3L22.2,23.3c0.4,0,0.9-0.1,1.2-0.2c0.4-0.1,0.8-0.3,1.1-0.6c0.3-0.2,0.6-0.5,0.9-0.9
					c0.3-0.4,0.5-0.7,0.6-1.2c1.3-3.6,1.3-7.5-0.1-11.1c-0.7-1.7-1.6-3.2-2.9-4.6c-1.2-1.3-2.7-2.4-4.4-3.1
					c-3.2-1.4-6.9-1.4-10.1,0.1c-1.6,0.7-3,1.8-4.2,3c-1.3,1.4-2.2,3-2.9,4.7C0.2,13,0.1,16.9,1.4,20.5c0.6,1.7,1.5,3.3,2.7,4.6
					c1.2,1.4,2.6,2.5,4.2,3.3c0.4,0.2,0.8,0.3,1.2,0.4c0.4,0.1,0.8,0,1.2,0c0.4-0.1,0.8-0.2,1.1-0.4c0.4-0.2,0.7-0.5,1-0.8
					c0.6-0.7,1.3-1.3,2-1.8c0.7-0.5,1.5-1,2.3-1.3c0.8-0.4,1.6-0.6,2.5-0.8C20.4,23.4,21.3,23.3,22.2,23.3z"/>
				<path class="st3" d="M9.9,29.3C9.9,29.3,9.9,29.3,9.9,29.3L9.9,29.3C9.9,29.3,9.9,29.3,9.9,29.3C9.9,29.3,9.9,29.3,9.9,29.3
					c-0.2,0-0.3,0-0.5,0c-0.2,0-0.3,0-0.5-0.1c-0.2,0-0.3-0.1-0.4-0.1c-0.1-0.1-0.3-0.1-0.4-0.2c-0.8-0.4-1.6-0.9-2.3-1.4
					c-0.7-0.6-1.4-1.2-2-1.9c-0.6-0.7-1.1-1.5-1.6-2.3c-0.5-0.8-0.9-1.7-1.2-2.6c-0.3-0.9-0.6-1.9-0.7-2.8C0.1,16.9,0,15.9,0,15
					c0-1,0.1-1.9,0.3-2.9c0.2-0.9,0.4-1.9,0.8-2.8C1.4,8.6,1.7,8,2,7.4c0.3-0.6,0.7-1.2,1.2-1.8C3.6,5,4.1,4.5,4.6,4
					c0.5-0.5,1-0.9,1.6-1.4c0.6-0.4,1.1-0.8,1.7-1.1C8.5,1.3,9.1,1,9.8,0.8c0.6-0.2,1.3-0.4,1.9-0.5c0.7-0.1,1.3-0.2,2-0.2
					c0.4,0,0.9,0,1.3,0.1c0.4,0,0.9,0.1,1.3,0.2c0.4,0.1,0.9,0.2,1.3,0.3c0.4,0.1,0.9,0.3,1.3,0.5c0.8,0.4,1.6,0.8,2.4,1.4
					c0.7,0.5,1.4,1.1,2.1,1.8C24,5.1,24.5,5.8,25,6.7c0.5,0.8,0.9,1.7,1.3,2.6c0.4,0.9,0.6,1.9,0.8,2.8c0.2,1,0.3,1.9,0.3,2.9
					c0,1-0.1,1.9-0.2,2.9c-0.2,1-0.4,1.9-0.8,2.8c-0.2,0.5-0.4,0.9-0.7,1.3c-0.3,0.4-0.6,0.7-1,1c-0.4,0.3-0.8,0.5-1.2,0.6
					c-0.4,0.1-0.9,0.2-1.4,0.2l0,0l0,0l0,0c-0.4,0-0.8,0-1.3,0.1c-0.4,0-0.8,0.1-1.2,0.2c-0.4,0.1-0.8,0.2-1.2,0.3
					c-0.4,0.1-0.8,0.3-1.2,0.5c-0.4,0.2-0.8,0.4-1.1,0.6c-0.4,0.2-0.7,0.4-1.1,0.7c-0.3,0.3-0.7,0.5-1,0.8c-0.3,0.3-0.6,0.6-0.9,0.9
					c-0.2,0.2-0.4,0.4-0.7,0.6c-0.2,0.2-0.5,0.3-0.8,0.4c-0.3,0.1-0.5,0.2-0.8,0.3C10.5,29.3,10.2,29.3,9.9,29.3z M13.6,1.2
					c-0.6,0-1.2,0.1-1.8,0.2c-0.6,0.1-1.2,0.2-1.8,0.4C9.4,2,8.9,2.2,8.3,2.5c-0.6,0.3-1.1,0.6-1.6,1c-0.5,0.4-1,0.8-1.5,1.3
					c-0.5,0.5-0.9,1-1.3,1.5C3.5,6.7,3.1,7.3,2.8,7.9C2.5,8.5,2.2,9.1,1.9,9.7c-0.3,0.8-0.6,1.7-0.7,2.6C1,13.2,0.9,14.1,0.9,15
					c0,0.9,0.1,1.8,0.2,2.7c0.1,0.9,0.4,1.8,0.7,2.6C2.1,21.1,2.5,22,3,22.7c0.4,0.8,1,1.5,1.5,2.1c0.6,0.6,1.2,1.2,1.9,1.8
					c0.7,0.5,1.4,1,2.2,1.4C8.6,28,8.7,28,8.9,28.1c0.1,0,0.2,0.1,0.4,0.1c0.1,0,0.2,0.1,0.4,0.1c0.1,0,0.2,0,0.4,0
					c0.2,0,0.5,0,0.7-0.1c0.2,0,0.4-0.1,0.7-0.2c0.2-0.1,0.4-0.2,0.6-0.4c0.2-0.1,0.4-0.3,0.5-0.5c0.3-0.3,0.7-0.7,1-1
					c0.3-0.3,0.7-0.6,1.1-0.9c0.4-0.3,0.8-0.5,1.2-0.8c0.4-0.2,0.8-0.4,1.2-0.6c0.4-0.2,0.8-0.4,1.3-0.5c0.4-0.1,0.9-0.3,1.3-0.4
					c0.4-0.1,0.9-0.2,1.3-0.2c0.4,0,0.9-0.1,1.4-0.1l0,0l0,0l0,0c0.4,0,0.7-0.1,1.1-0.2c0.3-0.1,0.7-0.3,1-0.5
					c0.3-0.2,0.6-0.5,0.8-0.8c0.2-0.3,0.4-0.6,0.6-1c0.3-0.9,0.5-1.8,0.7-2.7c0.2-0.9,0.2-1.8,0.2-2.7c0-0.9-0.1-1.8-0.3-2.7
					c-0.2-0.9-0.4-1.8-0.8-2.6c-0.3-0.9-0.7-1.7-1.2-2.4c-0.5-0.8-1-1.4-1.6-2.1c-0.6-0.6-1.2-1.2-1.9-1.7c-0.7-0.5-1.4-0.9-2.2-1.3
					c-0.4-0.2-0.8-0.3-1.2-0.5c-0.4-0.1-0.8-0.2-1.2-0.3c-0.4-0.1-0.8-0.1-1.2-0.2C14.5,1.2,14.1,1.2,13.6,1.2z"/>
			</g>
			<g id="Elipse_160" transform="translate(10.516 8.782)">
				<path class="st4" d="M4.8,0.5c0.6,0,1.2,0.1,1.7,0.4c0.5,0.2,1,0.6,1.4,1c0.4,0.4,0.7,1,0.9,1.5c0.5,1.2,0.5,2.5,0,3.7
					C8.7,7.7,8.3,8.3,7.9,8.7c-0.4,0.4-0.9,0.8-1.4,1c-1.1,0.5-2.3,0.5-3.4,0c-0.5-0.2-1-0.6-1.4-1C1.3,8.3,1,7.7,0.8,7.2
					C0.3,6,0.3,4.6,0.8,3.4C1,2.9,1.3,2.4,1.7,1.9c0.4-0.4,0.9-0.8,1.4-1C3.7,0.6,4.2,0.5,4.8,0.5z"/>
				<path class="st3" d="M4.8,10.6c-0.7,0-1.3-0.2-1.9-0.4C2.4,9.9,1.8,9.5,1.4,9C1,8.6,0.6,8,0.4,7.4C0.1,6.7,0,6,0,5.3
					s0.1-1.4,0.4-2.1c0.2-0.6,0.6-1.2,1-1.7c0.4-0.5,1-0.9,1.5-1.1C3.5,0.2,4.2,0,4.8,0c0.7,0,1.3,0.1,1.9,0.4
					c0.6,0.3,1.1,0.7,1.5,1.1c0.4,0.5,0.8,1.1,1,1.7c0.2,0.6,0.4,1.3,0.4,2.1S9.5,6.7,9.3,7.4C9.1,8,8.7,8.6,8.3,9.1
					c-0.4,0.5-1,0.9-1.5,1.1C6.1,10.5,5.5,10.6,4.8,10.6z M4.8,1C4.3,1,3.8,1.1,3.3,1.4C2.8,1.6,2.4,1.9,2.1,2.3
					C1.7,2.7,1.4,3.1,1.2,3.6C1,4.2,0.9,4.7,0.9,5.3S1,6.5,1.2,7c0.2,0.5,0.5,1,0.8,1.4C2.4,8.7,2.8,9,3.3,9.3
					c0.5,0.2,1,0.3,1.5,0.3c0.5,0,1.1-0.1,1.5-0.3c0.5-0.2,0.9-0.5,1.3-0.9C8,8,8.3,7.5,8.5,7c0.2-0.5,0.3-1.1,0.3-1.7
					S8.7,4.2,8.5,3.6C8.3,3.1,8,2.7,7.6,2.3C7.3,1.9,6.8,1.6,6.4,1.4C5.9,1.1,5.4,1,4.8,1z"/>
			</g>
		</g>
		<g id="Caminho_1328" transform="translate(169.049 93.169)">
			<path class="st4" d="M26.9,18.1c0.1-0.3,0.1-0.6,0.1-0.9c0-0.3,0-0.6-0.1-0.9c-0.1-0.3-0.3-0.6-0.5-0.9c-0.3-0.3-0.6-0.5-1-0.7
				c0.2-0.3,0.3-0.7,0.4-1c0.1-0.3,0.1-0.6,0-0.9c0-0.2-0.1-0.5-0.3-0.6c-0.1-0.2-0.3-0.3-0.5-0.4c0-0.1,0-0.2,0-0.4
				c0-0.1-0.1-0.3-0.1-0.4c-0.1-0.2-0.1-0.3-0.2-0.4c-0.1-0.1-0.2-0.3-0.4-0.4c0-0.3,0-0.6,0-0.9c0-0.4-0.1-0.9-0.3-1.3
				c-0.2-0.5-0.5-0.9-0.9-1.2c-0.5-0.4-1.1-0.6-1.8-0.7c-0.1-0.2-0.3-0.5-0.4-0.7c-0.2-0.3-0.5-0.6-0.7-0.9c-0.3-0.3-0.6-0.6-1-0.9
				C18.9,3.3,18.5,3.1,18,3V0.3c-0.2,0.3-0.4,0.5-0.7,0.7c-0.4,0.2-0.7,0.4-1.1,0.5c-0.4,0.1-0.8,0.2-1,0.3s-0.5,0.1-0.5,0.1
				c-0.7,0.1-1.4,0.3-2,0.6c-0.5,0.2-0.9,0.5-1.3,0.9c-0.3,0.3-0.5,0.6-0.7,1c-0.1,0.3-0.2,0.5-0.3,0.8c-0.1,0-0.2,0-0.3,0
				s-0.2,0-0.3,0c-0.1,0-0.2,0-0.2,0.1c-0.1,0-0.1,0.1-0.2,0.1C9.3,5.5,8.9,5.7,8.3,5.9C7.6,6.2,7,6.6,6.4,6.9
				c-0.7,0.4-1.2,1-1.7,1.6C4.3,9.2,4.1,10,4.2,10.8l-0.1,0l-0.1,0l0,0l0,0c0,0-0.2,0.1-0.4,0.4c-0.3,0.3-0.6,0.6-0.9,1
				c-0.3,0.4-0.6,0.8-0.7,1.3c-0.2,0.5-0.2,1,0,1.4l-0.3,0c-0.1,0.1-0.2,0.1-0.2,0.2c-0.2,0.2-0.4,0.4-0.5,0.6
				c-0.2,0.3-0.3,0.6-0.4,1c-0.1,0.4-0.1,0.9,0,1.3c0,0-0.1,0.1-0.1,0.1c0,0,0,0.1-0.1,0.1c0,0.1,0,0.2,0,0.3l3.8,13.2
				c0,0,0,0,0,0.1c0,0,0,0,0,0.1c0,0,0,0,0,0.1c0,0,0,0,0.1,0l0.2,0.1c0.1,0,0.1,0.1,0.2,0.2s0.2,0.1,0.3,0.2s0.2,0.1,0.4,0.2v0l0,0
				c0.1,0.1,0.3,0.2,0.4,0.2s0.3,0.2,0.4,0.2c0.2,0.1,0.3,0.1,0.5,0.2c0.2,0.1,0.3,0.1,0.5,0.2v0h0c0.1,0,0.2,0.1,0.3,0.1
				c0.1,0,0.2,0.1,0.3,0.1c0.1,0,0.2,0.1,0.4,0.1c0.1,0,0.2,0.1,0.4,0.1v0h0c0.1,0,0.2,0.1,0.4,0.1c0.1,0,0.2,0.1,0.4,0.1
				c0.1,0,0.3,0.1,0.4,0.1c0.1,0,0.3,0.1,0.4,0.1v0h0c0.1,0,0.3,0.1,0.4,0.1s0.3,0,0.4,0.1c0.1,0,0.3,0,0.4,0.1c0.1,0,0.3,0,0.4,0.1
				h0c0.2,0,0.3,0,0.5,0c0.2,0,0.3,0,0.5,0s0.3,0,0.5,0s0.3,0,0.5,0h0c0.2,0,0.3,0,0.5,0c0.2,0,0.3,0,0.5,0c0.2,0,0.3,0,0.5,0
				c0.2,0,0.3,0,0.5-0.1h0l0,0c0.1,0,0.3,0,0.4-0.1c0.1,0,0.3,0,0.4-0.1c0.1,0,0.3-0.1,0.4-0.1c0.1,0,0.3-0.1,0.4-0.1l0,0.1h0l0-0.1
				c0.1,0,0.3-0.1,0.4-0.1c0.1,0,0.3-0.1,0.4-0.1s0.3-0.1,0.4-0.1c0.1,0,0.3-0.1,0.4-0.1h0v0c0.1,0,0.2-0.1,0.3-0.1s0.2-0.1,0.3-0.1
				c0.1,0,0.2-0.1,0.3-0.1c0.1,0,0.2-0.1,0.4-0.2h0v0c0.1-0.1,0.3-0.1,0.4-0.2s0.3-0.1,0.4-0.2c0.1-0.1,0.3-0.1,0.4-0.2
				c0.1-0.1,0.3-0.2,0.4-0.2h0v0l0.2-0.1l0.2-0.1l0.2-0.1l0.2-0.2c0,0,0,0,0.1,0c0,0,0,0,0-0.1c0,0,0,0,0-0.1c0,0,0,0,0-0.1L27,18.6
				c0-0.1,0-0.2,0-0.3c0,0,0-0.1,0-0.1C27,18.1,27,18.1,26.9,18.1L26.9,18.1z"/>
			<path class="st3" d="M13.7,35.4c-0.2,0-0.3,0-0.5,0c-0.2,0-0.3,0-0.5,0c-0.2,0-0.3,0-0.5,0c-0.2,0-0.3,0-0.5,0l0,0l0,0
				c-0.1,0-0.3,0-0.4,0c-0.1,0-0.3,0-0.4-0.1c-0.1,0-0.3,0-0.4-0.1c-0.1,0-0.3-0.1-0.4-0.1l-0.4,0V35c-0.1,0-0.2,0-0.3-0.1
				c-0.1,0-0.2,0-0.3-0.1c-0.1,0-0.2-0.1-0.3-0.1c-0.1,0-0.2-0.1-0.3-0.1l-0.4,0v-0.1c-0.1,0-0.2-0.1-0.3-0.1
				c-0.1,0-0.2-0.1-0.3-0.1c-0.1,0-0.2-0.1-0.2-0.1c-0.1,0-0.2-0.1-0.2-0.1l-0.4,0.1V34c-0.1-0.1-0.2-0.1-0.4-0.2
				c-0.1-0.1-0.2-0.1-0.4-0.2c-0.1-0.1-0.2-0.1-0.3-0.2c-0.1-0.1-0.2-0.1-0.3-0.2l-0.3,0.1L5,33c-0.1-0.1-0.2-0.1-0.3-0.2
				c-0.1-0.1-0.2-0.1-0.2-0.2c-0.1,0-0.1-0.1-0.2-0.1c-0.1,0-0.1-0.1-0.2-0.1l0,0l0,0c0,0-0.1-0.1-0.1-0.1c0,0-0.1-0.1-0.1-0.1
				c0,0-0.1-0.1-0.1-0.1c0,0,0-0.1-0.1-0.1L0,18.8l0,0l0,0c0-0.1,0-0.1,0-0.2c0-0.1,0-0.1,0-0.2c0-0.1,0-0.1,0-0.2
				c0-0.1,0-0.1,0.1-0.2c-0.1-0.4-0.1-0.8,0-1.2c0.1-0.4,0.2-0.7,0.3-1c0.1-0.3,0.3-0.5,0.5-0.7c0.2-0.2,0.4-0.4,0.5-0.5
				c0-0.2,0-0.4,0-0.6c0-0.2,0.1-0.4,0.2-0.7c0.1-0.2,0.2-0.5,0.3-0.7C2,12.5,2.2,12.2,2.4,12c0.2-0.2,0.3-0.4,0.5-0.6
				C3,11.2,3.1,11.1,3.2,11c0.1-0.1,0.2-0.2,0.3-0.3c0.1-0.1,0.1-0.1,0.1-0.1c0-0.8,0.2-1.5,0.5-2.1C4.6,7.9,5,7.4,5.6,7
				c0.5-0.4,1.1-0.8,1.6-1c0.5-0.3,1-0.5,1.4-0.7c0.1,0,0.1-0.1,0.2-0.1c0.1,0,0.1-0.1,0.2-0.1c0.1,0,0.1,0,0.1-0.1
				c0,0,0.1,0,0.1-0.1c0.1,0,0.1-0.1,0.2-0.1c0.1,0,0.1-0.1,0.2-0.1c0.1,0,0.2,0,0.2-0.1c0.1,0,0.2,0,0.3,0c0.1-0.3,0.2-0.6,0.4-0.9
				c0.2-0.3,0.4-0.7,0.8-1c0.3-0.3,0.8-0.6,1.3-0.9c0.5-0.2,1.2-0.4,2-0.6c0.3-0.1,0.6-0.1,1-0.2c0.3-0.1,0.6-0.2,0.9-0.3
				c0.3-0.1,0.5-0.2,0.7-0.4c0.2-0.1,0.3-0.2,0.4-0.4l0.9,0.2v2.3c0.4,0.2,0.8,0.4,1.1,0.6C20,3.5,20.3,3.8,20.5,4
				c0.3,0.3,0.5,0.6,0.7,0.8c0.2,0.3,0.4,0.5,0.5,0.7c0.3,0,0.5,0.1,0.7,0.2c0.2,0.1,0.4,0.2,0.6,0.3c0.2,0.1,0.4,0.2,0.5,0.4
				c0.2,0.1,0.3,0.3,0.5,0.5c0.2,0.2,0.3,0.5,0.4,0.8c0.1,0.3,0.2,0.5,0.2,0.8c0.1,0.3,0.1,0.5,0.1,0.7c0,0.2,0,0.4,0,0.6
				c0.1,0.1,0.2,0.2,0.3,0.3c0.1,0.1,0.2,0.2,0.2,0.4c0.1,0.1,0.1,0.3,0.1,0.4c0,0.1,0.1,0.3,0.1,0.5c0.1,0.1,0.2,0.1,0.3,0.2
				c0.1,0.1,0.1,0.2,0.2,0.2c0.1,0.1,0.1,0.2,0.2,0.3c0,0.1,0.1,0.2,0.1,0.3c0,0.1,0.1,0.2,0.1,0.4c0,0.1,0,0.3,0,0.5
				c0,0.2,0,0.3-0.1,0.5c-0.1,0.2-0.1,0.4-0.2,0.6c0.3,0.2,0.5,0.4,0.7,0.6c0.2,0.2,0.4,0.5,0.5,0.8c0.1,0.3,0.2,0.6,0.2,1
				c0,0.3,0,0.7,0,1.1c0,0.1,0.1,0.1,0.1,0.2c0,0.1,0,0.1,0,0.2c0,0.1,0,0.1,0,0.2c0,0.1,0,0.1,0,0.2l0,0l0,0l-3.7,13.1
				c0,0.1,0,0.1-0.1,0.2c0,0.1-0.1,0.1-0.1,0.1c0,0-0.1,0.1-0.1,0.1c0,0-0.1,0.1-0.1,0.1c-0.1,0-0.1,0.1-0.2,0.1
				c-0.1,0-0.1,0.1-0.2,0.1c-0.1,0-0.1,0.1-0.2,0.1c-0.1,0-0.1,0.1-0.2,0.1l-0.1,0.3L22.3,33c-0.1,0.1-0.2,0.1-0.3,0.2
				c-0.1,0.1-0.2,0.1-0.3,0.2c-0.1,0.1-0.2,0.1-0.3,0.2c-0.1,0.1-0.2,0.1-0.3,0.2V34l-0.4-0.1c-0.1,0-0.2,0.1-0.2,0.1
				c-0.1,0-0.2,0.1-0.2,0.1c-0.1,0-0.2,0.1-0.2,0.1c-0.1,0-0.2,0.1-0.2,0.1v0.2l-0.4,0c-0.1,0-0.2,0.1-0.3,0.1
				c-0.1,0-0.2,0.1-0.3,0.1c-0.1,0-0.2,0.1-0.3,0.1c-0.1,0-0.2,0.1-0.3,0.1l0,0.2l-0.5,0l0,0l-0.1,0c-0.1,0-0.2,0-0.2,0.1
				c-0.1,0-0.2,0-0.2,0c-0.1,0-0.2,0-0.2,0c-0.1,0-0.2,0-0.2,0v0.1l-0.5,0c-0.2,0-0.3,0-0.5,0.1c-0.2,0-0.3,0-0.5,0
				c-0.2,0-0.3,0-0.5,0c-0.2,0-0.3,0-0.5,0l0,0l0,0l0,0c0,0,0,0,0,0C13.9,35.4,13.8,35.4,13.7,35.4C13.8,35.4,13.8,35.4,13.7,35.4
				C13.8,35.4,13.8,35.4,13.7,35.4z M11.9,34.3L11.9,34.3L11.9,34.3c0.2,0,0.3,0,0.5,0c0.2,0,0.3,0,0.5,0c0.2,0,0.3,0,0.5,0
				c0.2,0,0.3,0,0.5,0c0,0,0,0,0,0c0,0,0,0,0,0c0,0,0,0,0,0c0,0,0,0,0,0l0,0l0,0l0,0c0.1,0,0.3,0,0.4,0c0.1,0,0.3,0,0.4,0
				c0.1,0,0.3,0,0.4,0c0.1,0,0.3,0,0.4-0.1l0.1,0c0.1,0,0.2,0,0.4-0.1c0.1,0,0.3,0,0.4-0.1c0.1,0,0.3-0.1,0.4-0.1
				c0.1,0,0.3-0.1,0.4-0.1l0.1,0c0.1,0,0.2-0.1,0.3-0.1c0.1,0,0.2-0.1,0.3-0.1c0.1,0,0.2-0.1,0.3-0.1c0.1,0,0.2-0.1,0.3-0.1l0.3-0.1
				c0.1,0,0.2-0.1,0.3-0.1c0.1,0,0.2-0.1,0.3-0.1c0.1,0,0.2-0.1,0.3-0.1c0.1,0,0.2-0.1,0.3-0.1l0.2-0.1c0.1-0.1,0.3-0.1,0.4-0.2
				c0.1-0.1,0.3-0.1,0.4-0.2c0.1-0.1,0.3-0.1,0.4-0.2c0.1-0.1,0.3-0.1,0.4-0.2l0,0c0.1,0,0.1-0.1,0.2-0.1c0.1,0,0.2-0.1,0.2-0.1
				c0.1,0,0.2-0.1,0.2-0.1c0.1,0,0.2-0.1,0.2-0.1l3.7-13c0,0,0,0,0,0c0,0,0,0,0,0c0,0,0,0,0,0c0,0,0,0,0,0l0.2-0.4L26.5,18
				c0.1-0.3,0.1-0.7,0.1-1c0-0.3-0.1-0.6-0.2-0.8c-0.1-0.2-0.2-0.4-0.4-0.6c-0.2-0.2-0.4-0.3-0.7-0.5l-0.5-0.2l0.3-0.5
				c0.1-0.2,0.2-0.3,0.2-0.5c0.1-0.2,0.1-0.3,0.1-0.4c0-0.1,0-0.3,0-0.4c0-0.1,0-0.2,0-0.4c0-0.1-0.1-0.2-0.1-0.2
				c0-0.1-0.1-0.1-0.1-0.2c0,0-0.1-0.1-0.1-0.1c0,0-0.1-0.1-0.1-0.1L24.6,12l0-0.3c0-0.1,0-0.2,0-0.3c0-0.1,0-0.2-0.1-0.3
				c0-0.1-0.1-0.2-0.2-0.3c-0.1-0.1-0.2-0.2-0.3-0.3l-0.3-0.2l0-0.3c0-0.1,0-0.2,0-0.4c0-0.2,0-0.4,0-0.6c0-0.2-0.1-0.5-0.2-0.7
				c-0.1-0.2-0.2-0.5-0.4-0.7c-0.1-0.1-0.2-0.3-0.4-0.4c-0.1-0.1-0.3-0.2-0.4-0.3c-0.2-0.1-0.3-0.2-0.5-0.2
				c-0.2-0.1-0.4-0.1-0.6-0.1l-0.2,0L21,6.3c-0.1-0.1-0.2-0.3-0.4-0.6c-0.2-0.3-0.4-0.5-0.7-0.8c-0.3-0.3-0.6-0.6-0.9-0.8
				c-0.4-0.2-0.7-0.4-1.2-0.6l-0.4-0.1V3V1.5c-0.1,0-0.2,0.1-0.3,0.1c-0.1,0-0.2,0.1-0.3,0.1c-0.1,0-0.2,0.1-0.3,0.1
				c-0.1,0-0.2,0.1-0.3,0.1c-0.2,0.1-0.4,0.1-0.6,0.2c-0.2,0.1-0.3,0.1-0.5,0.1c-0.1,0-0.3,0.1-0.3,0.1c-0.1,0-0.1,0-0.1,0l0,0l0,0
				c-0.3,0-0.6,0.1-1,0.2c-0.4,0.1-0.8,0.3-1.2,0.5c-0.4,0.2-0.8,0.5-1.1,0.9c-0.3,0.4-0.5,0.8-0.6,1.4l-0.1,0.4l-0.4,0
				c-0.1,0-0.3,0-0.3,0c-0.1,0-0.2,0-0.2,0c-0.1,0-0.1,0-0.1,0c0,0,0,0-0.1,0c0,0-0.1,0.1-0.1,0.1c0,0-0.1,0.1-0.2,0.1
				C9.4,6,9.3,6.1,9.2,6.1C9.1,6.1,9.1,6.2,9,6.2C8.6,6.4,8.1,6.6,7.6,6.8c-0.5,0.3-1,0.6-1.5,0.9C5.7,8.1,5.3,8.5,5,9.1
				c-0.3,0.5-0.4,1.1-0.3,1.7l0,0.4l-0.4,0.1c0,0,0,0,0,0c0,0,0,0,0,0c0,0,0,0,0,0c0,0,0,0,0,0c0,0,0,0,0,0c0,0,0,0,0,0c0,0,0,0,0,0
				c0,0,0,0,0,0c-0.2,0.2-0.4,0.4-0.6,0.6c-0.2,0.3-0.5,0.6-0.7,0.9c-0.2,0.3-0.4,0.7-0.5,1c-0.1,0.3-0.1,0.7,0,0.9l0.3,0.6L2,15.5
				l-0.1,0c-0.1,0.1-0.2,0.1-0.3,0.3c-0.1,0.1-0.2,0.3-0.3,0.5C1.2,16.5,1.1,16.8,1,17c0,0.3,0,0.6,0.1,0.9l0.1,0.3L1,18.4
				c0,0,0,0,0,0c0,0,0,0,0,0c0,0,0,0,0,0c0,0,0,0,0,0l3.7,13.1c0.1,0,0.1,0.1,0.2,0.1c0.1,0,0.1,0.1,0.2,0.1C5.2,32,5.3,32,5.4,32.1
				c0.1,0.1,0.2,0.1,0.3,0.2l0.1,0c0.1,0.1,0.3,0.2,0.4,0.2c0.1,0.1,0.3,0.1,0.4,0.2C6.7,32.8,6.9,32.9,7,33
				c0.1,0.1,0.3,0.1,0.4,0.2l0.2,0.1c0.1,0,0.2,0.1,0.3,0.1c0.1,0,0.2,0.1,0.3,0.1c0.1,0,0.2,0.1,0.3,0.1c0.1,0,0.2,0.1,0.3,0.1
				l0.3,0.1c0.1,0,0.2,0.1,0.3,0.1c0.1,0,0.2,0.1,0.3,0.1c0.1,0,0.2,0,0.3,0.1c0.1,0,0.2,0,0.3,0.1l0.3,0.1c0.1,0,0.2,0,0.3,0.1
				c0.1,0,0.2,0,0.3,0.1c0.1,0,0.2,0,0.3,0C11.7,34.3,11.8,34.3,11.9,34.3z"/>
		</g>
		<g id="Caminho_1329" transform="translate(169.531 110.675)">
			<path class="st4" d="M0.5,1.1l3.6,12.7c0,0,0,0,0,0.1c0,0,0,0,0,0.1c0,0,0,0,0,0.1c0,0,0,0,0.1,0c0.6,0.4,1.3,0.8,1.9,1.2
				c1.3,0.6,2.6,1.1,4,1.4c1.8,0.4,3.7,0.4,5.6,0.1c2.4-0.4,4.6-1.3,6.6-2.6c0,0,0,0,0.1,0c0,0,0,0,0-0.1c0,0,0.1-0.1,0.1-0.1
				l3.5-12.6c0-0.1,0-0.1,0-0.2c0,0,0-0.1,0-0.1c0,0,0-0.1-0.1-0.1c0,0,0,0-0.1-0.1c0,0-0.1,0-0.1,0c-0.1,0-0.1,0-0.2,0L24.1,1l0,0
				h0h0l0,0l-1.4-0.3c0,0,0,0-0.1,0c0,0,0,0-0.1,0c0,0,0,0-0.1,0c0,0,0,0-0.1,0l-1.7,1c0,0,0,0-0.1,0c-0.1,0-0.1,0-0.2,0l-1.9-0.5
				c0,0,0,0-0.1,0c0,0-0.1,0-0.1,0c0,0,0,0-0.1,0L16,2c0,0-0.1,0-0.1,0c0,0,0,0-0.1,0c0,0-0.1,0-0.1,0l-1.4-0.8c0,0,0,0-0.1,0
				c0,0-0.1,0-0.1,0c0,0,0,0-0.1,0l-1.8,0.6l0,0l0,0h0h0l-1.8-0.1h0h0h0l0,0L8.7,1.2c0,0,0,0,0,0h0h0l0,0l-2,0.4c0,0,0,0-0.1,0
				c0,0-0.1,0-0.1,0c0,0,0,0-0.1,0L4.5,0.8c0,0-0.1,0-0.1,0c0,0,0,0-0.1,0c0,0,0,0-0.1,0L2.7,1.1l0,0h0c0,0-0.1,0-0.1,0L1,0.6
				c-0.1,0-0.1,0-0.2,0c0,0-0.1,0-0.1,0c0,0-0.1,0-0.1,0.1c0,0,0,0.1-0.1,0.1c0,0,0,0.1,0,0.1C0.5,0.9,0.5,1,0.5,1.1z"/>
			<path class="st3" d="M13.3,17.3C13.3,17.3,13.3,17.3,13.3,17.3C13.3,17.3,13.3,17.3,13.3,17.3C13.3,17.3,13.3,17.3,13.3,17.3
				C13.3,17.3,13.3,17.3,13.3,17.3c-1.3,0-2.4-0.1-3.5-0.4c-1.1-0.2-2-0.6-2.8-0.9c-0.8-0.3-1.5-0.7-2-1c-0.5-0.3-0.9-0.5-1-0.7
				c0,0-0.1-0.1-0.1-0.1c0,0-0.1-0.1-0.1-0.1c0,0-0.1-0.1-0.1-0.1c0,0,0-0.1-0.1-0.1L0,1.2C0,1.1,0,1,0,1c0-0.1,0-0.2,0-0.2
				c0-0.1,0-0.2,0.1-0.2c0-0.1,0.1-0.1,0.1-0.2c0,0,0.1-0.1,0.1-0.1c0,0,0.1-0.1,0.1-0.1c0.1,0,0.1,0,0.2-0.1c0.1,0,0.1,0,0.2,0
				c0,0,0,0,0.1,0C1,0,1,0,1,0c0,0,0,0,0.1,0c0,0,0,0,0.1,0l1.5,0.5l1.5-0.3c0,0,0,0,0,0c0,0,0,0,0,0c0,0,0,0,0,0c0,0,0,0,0,0
				c0,0,0.1,0,0.1,0c0,0,0.1,0,0.1,0c0,0,0.1,0,0.1,0c0,0,0.1,0,0.1,0l1.9,0.8l1.9-0.4c0,0,0,0,0,0c0,0,0,0,0,0c0,0,0,0,0,0
				c0,0,0,0,0,0c0,0,0,0,0.1,0c0,0,0,0,0.1,0c0,0,0,0,0.1,0c0,0,0,0,0.1,0l1.4,0.4L12,1.3l1.8-0.6c0,0,0,0,0.1,0c0,0,0,0,0.1,0
				c0,0,0,0,0.1,0c0,0,0,0,0.1,0c0,0,0.1,0,0.1,0c0,0,0.1,0,0.1,0c0,0,0.1,0,0.1,0c0,0,0.1,0,0.1,0l1.4,0.8L18,0.8c0,0,0,0,0.1,0
				c0,0,0,0,0.1,0c0,0,0,0,0.1,0c0,0,0,0,0.1,0c0,0,0,0,0.1,0s0,0,0.1,0c0,0,0,0,0.1,0c0,0,0,0,0.1,0l1.8,0.5l1.7-1c0,0,0.1,0,0.1,0
				c0,0,0.1,0,0.1,0c0,0,0.1,0,0.1,0c0,0,0.1,0,0.1,0c0,0,0,0,0,0c0,0,0,0,0,0c0,0,0,0,0,0c0,0,0,0,0,0L24,0.5l1.5-0.4
				c0,0,0,0,0.1,0c0,0,0,0,0.1,0c0,0,0,0,0.1,0c0,0,0,0,0.1,0c0.1,0,0.1,0,0.2,0c0.1,0,0.1,0,0.2,0.1c0.1,0,0.1,0.1,0.1,0.1
				c0,0,0.1,0.1,0.1,0.1c0.1,0.1,0.1,0.1,0.1,0.2c0,0.1,0.1,0.1,0.1,0.2c0,0.1,0,0.2,0,0.2c0,0.1,0,0.2,0,0.2L23,13.8
				c0,0.1,0,0.1-0.1,0.2c0,0-0.1,0.1-0.1,0.1c0,0-0.1,0.1-0.1,0.1c0,0-0.1,0.1-0.1,0.1c-0.8,0.5-1.5,0.9-2.3,1.3
				c-0.8,0.4-1.5,0.7-2.3,0.9c-0.8,0.2-1.6,0.4-2.4,0.6C14.9,17.2,14.1,17.3,13.3,17.3z M4.6,13.6c0.2,0.1,0.5,0.4,1,0.6
				c0.5,0.3,1.1,0.6,1.9,0.9c0.8,0.3,1.6,0.6,2.6,0.8c1,0.2,2.1,0.3,3.2,0.3c0,0,0,0,0,0c0,0,0,0,0,0c0,0,0,0,0,0c0,0,0,0,0,0
				c0.8,0,1.5-0.1,2.3-0.2c0.7-0.1,1.5-0.3,2.2-0.5c0.7-0.2,1.5-0.5,2.2-0.9c0.7-0.3,1.4-0.7,2.2-1.2l3.5-12.4l-1.4,0.4
				c0,0,0,0-0.1,0c0,0,0,0-0.1,0c0,0,0,0-0.1,0c0,0,0,0-0.1,0c0,0,0,0,0,0c0,0,0,0,0,0c0,0,0,0,0,0c0,0,0,0,0,0l-1.4-0.3l-1.7,1
				c0,0-0.1,0-0.1,0c0,0-0.1,0-0.1,0c0,0-0.1,0-0.1,0c0,0-0.1,0-0.1,0c0,0,0,0-0.1,0c0,0,0,0-0.1,0c0,0,0,0-0.1,0c0,0,0,0,0,0
				l-1.8-0.5l-2.1,0.7c0,0,0,0-0.1,0c0,0,0,0-0.1,0c0,0,0,0-0.1,0c0,0,0,0-0.1,0c0,0-0.1,0-0.1,0c0,0-0.1,0-0.1,0c0,0-0.1,0-0.1,0
				c0,0-0.1,0-0.1,0l-1.4-0.8l-1.8,0.6c0,0,0,0-0.1,0c0,0,0,0-0.1,0c0,0,0,0-0.1,0c0,0,0,0-0.1,0c0,0,0,0,0,0c0,0,0,0,0,0
				c0,0,0,0,0,0c0,0,0,0,0,0l-1.8-0.1c0,0,0,0,0,0c0,0,0,0,0,0c0,0,0,0,0,0c0,0,0,0,0,0L8.6,1.7L6.7,2.1c0,0,0,0,0,0c0,0,0,0,0,0
				c0,0,0,0,0,0c0,0,0,0,0,0c0,0-0.1,0-0.1,0c0,0-0.1,0-0.1,0c0,0-0.1,0-0.1,0c0,0-0.1,0-0.1,0L4.3,1.3L2.8,1.6c0,0,0,0,0,0
				c0,0,0,0,0,0c0,0,0,0,0,0c0,0,0,0,0,0c0,0,0,0-0.1,0c0,0,0,0-0.1,0c0,0,0,0-0.1,0c0,0,0,0-0.1,0L1,1.1L4.6,13.6z"/>
		</g>
	</g>
	<g id="Chef" transform="translate(0 264)">
		<ellipse id="Elipse_128" class="st0" cx="75.6" cy="147" rx="23.9" ry="5.3"/>
		
			<linearGradient id="Caminho_1095_1_" gradientUnits="userSpaceOnUse" x1="-752.0462" y1="577.7241" x2="-752.0462" y2="578.7241" gradientTransform="matrix(42.5911 0 0 -135.607 32105.8164 78490)">
			<stop  offset="0" style="stop-color:#808080;stop-opacity:0.251"/>
			<stop  offset="0.535" style="stop-color:#808080;stop-opacity:0.122"/>
			<stop  offset="1" style="stop-color:#808080;stop-opacity:0.102"/>
		</linearGradient>
		<path id="Caminho_1095" class="st5" d="M96.5,55.7c-0.3-0.6-1.9-4.2-1.9-4.2l-2.7-6.9c-0.7-1.1-1.4-2.2-1.9-3.5
			c0-0.5-3.4-2.7-3.4-2.7s-2.8-0.8-3-0.9S80,36.3,80,36.3s-1.3-1.7-1.5-1.3l0,0l0,0c-0.3-0.5-0.4-1-0.5-1.6c0-0.1,0-0.1,0-0.2
			c1.7-1.2,2.8-3.1,2.8-5.3c0-0.3,0-0.5-0.1-0.8c0,0,0,0,0.1,0c0.1,0,0,0,0-0.1c0,0,0,0,0,0c0.1,0,0-0.1,0-0.1l0,0
			c0.1,0,0-0.1-0.1-0.1c0,0,0-0.1,0-0.1c0-0.1,0-0.1,0-0.2l0,0c0-0.1,0-0.2,0-0.3c0,0,0,0,0,0.1c0-0.2-0.1-0.4-0.2-0.5l0,0l0.2-1.9
			c2.7-0.1,3.2-4.7,2.5-5s0-0.8,0-1.9s-2-2.3-2-2.3s-0.8,0.4-2.2-1.7s-6.2-2.5-6.5-1.9s-2.5,1.3-5.3,2.1s-2.3,4.2-1.8,4.9
			c0.4,0.6,0.6,1.3,0.7,2c0.2,0.8,0.5,1.5,0.9,2.2c-0.3,0.6,0.4,4,0.6,5c0,0,0,0.1,0,0.1l0,0c0,0,0,0,0,0c0,0.1-0.1,0.2,0,0.3
			c0,0.1,0,0.2,0,0.3c0,1.8,0.9,3.6,2.3,4.7c0,0.1,0,0.1,0,0.2c0,0.8,0.1,1.7,0,2.6c0,0,0,0.1,0,0.1c-0.3,0.1-0.6,0.3-0.7,0.6
			c-0.3,0.5-1.8,1.3-1.8,1.3s-2.7,0.1-3,0.6s-4.2,2.2-4.2,2.2S58,41.6,58.3,43c0,1-0.2,1.9-0.7,2.7c-1-0.4-2-0.6-3-0.7l2.2,2.1
			c0,0.1-0.1,0.1-0.1,0.1l-1.2,4.4c-0.2,0.7-0.5,1.3-0.9,1.9c-0.4,0.4,0.4,3.8,0.4,3.8c-0.2,1-0.5,2.1-0.9,3
			c-0.4,0.6,0.6,2.2,0.6,2.2l2,4.5l5.2,1.3l0.9,0.2c0,0.1,0,0.2-0.1,0.3c-0.1,1.1-0.4,2.2-1,3.1c-1,0.9-0.9,4.8-0.9,4.8l0,5.5
			c0,0,0.3,6.8,0.2,7.1c-0.1,0.2,0.1,0.4,0.7,0.6c0,0.1,0,0.2,0,0.3c-0.2,1-0.2,2,0.1,3c0.2,0.3,0.2,0.7,0.3,1
			c0.2,0.6,0.4,1.2,0.8,1.7c0,0-0.6,4.6,0.4,6.2s2,4.5,1.5,5.1c0,0-0.9,2-0.5,2.8c0.3,0.5,0.2,1.1-0.2,1.4c-0.1,0.1-0.2,0.1-0.3,0.2
			c-0.6,0.2-0.5,1.9-0.5,1.9l1,8.1c0,0,0.6,1.7,0.1,2.2s-0.5,3.5,0.3,4.5s-1,2.8-1,2.8s-1.1,1.5,0.6,2c0,0,0.3,0.1-0.3,0.7
			s-0.8,1.5-0.3,1.8c0.1,0.1,0.2,0.1,0.3,0.1c0,0.1,0,0.2-0.1,0.3c-0.1,0.9-0.5,1.8-1,2.5c-1.1,1.1-2,2.4-2.8,3.8
			c-0.6,1.1-0.8,2.2-0.2,2.7c1.3,1.1,3,1.5,4.7,1.1c1-0.5,2-1.1,2.8-1.9l0.4-1.6c0,0-0.3-1,1-1.4c1-0.4,1.8-1,2.5-1.7v-2.2
			c0.3-0.2,0.6-0.4,0.9-0.6c0,0,0.6-2.1,0-2.8s-0.8-1,0-1.4c0.7-0.5,0.9-1.5,0.4-2.2c0,0-0.1-0.1-0.1-0.1c-1-1.1-1.2-2.6-0.7-4
			c0.8-1.8,1.1-7.5,1.1-7.5s-0.4-3.8,0-4.7s-0.4-2.6-0.4-2.6c0.1-1.1,0.4-2.1,0.7-3.2c0.5-1,0.9-6.3,0.9-6.3
			c0.5-1.2,0.7-2.4,0.9-3.7c0-1.5-1.3-5,0.6-5.9c0,0,0.9,0.7,0.5,3.7c0.4,1.5,0.8,3,1,4.6c0,1.1,0.7,5,0.7,5c0,0.6,0.2,1.2,0.4,1.7
			c0.3,0.5,0,1.7,0,1.7s1.1,1,0.8,1.7c-0.1,0.7-0.1,1.5,0.1,2.2l-0.3,9.3c0,0-0.8,4,1,6.4c0,0-0.6,3.5-1,3.8s1.4,2.4,1.4,2.4
			s-0.5,1.4,0.5,1.5v2.3c0.4,0.6,0.8,1.2,1.4,1.6c0.9,0.7,0.6,3,0.6,3c0.7,1.7,2.6,2.7,4.4,2.3c3.2-0.6,3.6-0.9,3.4-2
			c-0.1-0.4-0.2-1.1-0.4-1.8c-0.3-1.3-0.8-2.6-1.5-3.7c-0.8-1.2-1.4-2.5-1.8-3.9c0,0-0.4-0.9,0-1.2c0.2-0.2,0.3-0.5,0.2-0.8
			c0.2-0.6,0.2-1.2,0-1.7c-0.3-0.7,0.6-2,0.6-2l-0.3-6.4l0.3-9.3c0,0-1.3-1.5-0.8-2.5s-0.6-2.2-0.6-2.2s-0.1,0,0.2-1.1
			c0.2-0.6,0.2-1.3-0.1-1.9c-0.4-1.5-0.2-3.2,0.6-4.5c0,0,0.6-2.6,0.7-3.9c0.1-0.9,0.9-4.4,1.3-6.4l0.1-0.3c0.6,0,1.1,0.1,1.1,0.1
			s-1-6.9,0-8.3s-0.8-12.2-0.8-12.2s-0.4-1.9-0.7-3.8c0-0.1,0-0.2,0-0.3c0.8-0.1,1.6-0.1,2.4-0.1c2.1,0.1,4.1-0.7,4.1-1.5
			s1.2-3.9,1.3-4.6C96.7,58.2,96.7,56.9,96.5,55.7z"/>
		<path id="Caminho_1096" class="st6" d="M71.3,136v3.9c-0.7,0.7-1.5,1.3-2.4,1.7c-1.2,0.4-1,1.4-1,1.4l-0.4,1.6
			c-0.8,0.7-1.7,1.4-2.7,1.9c-1.6,0.4-3.3,0-4.5-1.1c-0.6-0.5-0.4-1.5,0.2-2.6c0.7-1.4,1.7-2.6,2.7-3.7c0.5-0.7,0.9-1.6,1-2.5
			c0.1-0.6,0.2-1.2,0.2-1.2L71.3,136z"/>
		<path id="Caminho_1097" class="st7" d="M71.3,138.9v1c-0.7,0.7-1.5,1.3-2.4,1.7c-1.2,0.4-1,1.4-1,1.4l-0.4,1.6
			c-0.8,0.7-1.7,1.4-2.7,1.9c-1.6,0.4-3.3,0-4.5-1.1c-0.6-0.5-0.4-1.5,0.2-2.6c0,1.2,0.3,2.5,2,2.4c1.8-0.1,3.6-0.7,5-1.8
			c0,0,0-2.7,1.9-3.4C70.1,139.7,70.8,139.3,71.3,138.9z"/>
		<path id="Caminho_1098" class="st6" d="M86.5,145.9c-1.8,0.3-3.5-0.6-4.2-2.3c0,0,0.4-2.3-0.5-2.9c-0.6-0.4-1-1-1.4-1.6v-3.8
			l3.7-2.7l2,1.8l0.1,0.1c0.4,1.4,1,2.7,1.7,3.9c0.7,1.2,1.2,2.4,1.4,3.7c0.2,0.8,0.3,1.4,0.4,1.8C90,144.9,89.6,145.2,86.5,145.9z"
			/>
		<path id="Caminho_1099" class="st7" d="M86.5,145.9c-1.8,0.3-3.5-0.6-4.2-2.3c0,0,0.4-2.3-0.5-2.9c-0.6-0.4-1-1-1.4-1.6v-1.5
			c0.7,0.7,1.4,1.5,1.9,2.3c0.3,0.7,0.4,3.3,1.9,3.7s4.5,0.9,4.8-0.3c0.1-0.4,0.3-0.9,0.4-1.3c0.2,0.8,0.3,1.4,0.4,1.8
			C90,144.9,89.6,145.2,86.5,145.9z"/>
		<path id="Caminho_1100" class="st7" d="M64.4,135.2l6.9,0.7v2c-0.8,0.5-1.9,1-2.5,0.4c-1.5-0.8-3-1.5-4.5-2.1
			C64.4,135.7,64.4,135.2,64.4,135.2z"/>
		<path id="Caminho_1101" class="st7" d="M86.3,134.8c-1-0.3-2.7,1.1-4.9,2c-0.3,0.1-0.7,0.2-1,0.2v-1.8l3.7-2.7l2,1.8
			C86.2,134.5,86.2,134.7,86.3,134.8z"/>
		<path id="Caminho_1102" class="st8" d="M88.7,89.2c0,0-0.1,0.6-0.3,1.5c-0.4,2-1.1,5.5-1.3,6.4c-0.2,1.3-0.7,3.9-0.7,3.9
			c-0.7,1.4-0.9,3-0.5,4.5c0.3,0.6,0.3,1.3,0.1,1.9c-0.3,1-0.2,1.1-0.2,1.1s1.2,1.3,0.6,2.2s0.7,2.4,0.7,2.4l-0.3,9.3l0.3,6.4
			c0,0-1,1.4-0.6,2c0.2,0.6,0.2,1.2,0,1.7c0.1,0.3,0,0.6-0.2,0.8c-0.4,0.3,0,1.2,0,1.2c-1-0.3-2.7,1.1-4.9,2s-1.5-1.2-1.5-1.2
			s-1.7-2.2-1.4-2.4s1-3.8,1-3.8c-1.7-2.4-1-6.4-1-6.4l0.3-9.3c-0.2-0.7-0.2-1.4,0-2.2c0.3-0.7-0.8-1.7-0.8-1.7s0.3-1.2,0-1.7
			c-0.2-0.5-0.3-1.1-0.4-1.7c0,0-0.7-3.9-0.7-5c-0.2-1.5-0.5-3.1-1-4.6c0.3-3-0.5-3.7-0.5-3.7c-1.9,0.9-0.6,4.4-0.6,5.8
			c-0.1,1.3-0.4,2.5-0.8,3.7c0,0-0.4,5.3-0.8,6.3c-0.4,1-0.6,2.1-0.7,3.2c0,0,0.7,1.7,0.4,2.6s0,4.7,0,4.7s-0.3,5.6-1,7.4
			c-0.5,1.4-0.3,2.9,0.7,4c0.6,0.7,0.5,1.7-0.2,2.3c0,0,0,0-0.1,0.1c-0.7,0.5-0.5,0.7,0,1.4s0,2.8,0,2.8s-2.4,1.9-3.4,1
			s-4.4-1.9-4.8-2.2s-0.3-1.1,0.3-1.8s0.3-0.7,0.3-0.7c-1.7-0.5-0.6-2-0.6-2s1.7-1.8,1-2.8s-0.7-3.9-0.2-4.5s-0.1-2.2-0.1-2.2
			l-1-8.1c0,0,0-1.7,0.5-1.9c0.5-0.2,0.8-0.7,0.7-1.3c0-0.1-0.1-0.2-0.1-0.3c-0.4-0.9,0.5-2.8,0.5-2.8c0.5-0.7-0.4-3.5-1.4-5.1
			s-0.4-6.2-0.4-6.2c-0.4-0.5-0.6-1.1-0.8-1.7c0-0.3-0.1-0.7-0.2-1c-0.3-1-0.4-2-0.1-3c0.2-1.1,0.4-2,0.4-2L88.7,89.2z"/>
		<path id="Caminho_1103" class="st9" d="M80.6,42.2l-8.2,1.9c0,0-4-3.4-3-5.2c0.4-0.9,0.6-1.9,0.5-2.8c0-0.9,0-1.8,0-2.6
			c-0.1-1.1-0.2-2-0.2-2s8.4-4.7,8.1,0c-0.1,0.8,0,1.6,0.1,2.4c0.1,0.6,0.2,1.1,0.5,1.6c0.4,0.8,1,0.8,1,0.8L80.6,42.2z"/>
		<path id="Caminho_1104" class="st7" d="M77.9,33.9c-2.4,1.7-5.7,1.6-8-0.4c-0.1-1.1-0.2-2-0.2-2s8.4-4.7,8.1,0
			C77.8,32.3,77.8,33.1,77.9,33.9z"/>
		<circle id="Elipse_130" class="st9" cx="74.2" cy="28.5" r="6.4"/>
		<path id="Caminho_1105" class="st7" d="M80.6,42.2l-8.2,1.9c0,0-4-3.4-3-5.2c0.4-0.9,0.6-1.9,0.5-2.8c0.2,1,0.7,1.9,1.5,2.5
			c1,0.5,1.6,1.6,1.6,2.8l3.4-0.1c-0.1-1,0.5-1.9,1.5-2.3c0.4-0.2,0.2-0.9,0.2-0.9l0.4-2.5c0.4,0.8,1,0.8,1,0.8L80.6,42.2z"/>
		<path id="Caminho_1106" class="st7" d="M88.7,89.2c0,0-0.1,0.6-0.3,1.5c-0.9-0.1-1.8-0.1-2.6,0c-0.9,0.2-4.6,0.3-4.6,0.3l-9,0.3
			v-0.3c-1,0-2.1,0.1-3.1,0.2c-1.8,0.1-3.7,0-5.5-0.3c-0.5-0.1-0.9-0.2-1.4-0.4c0.2-1.1,0.4-2,0.4-2L88.7,89.2z"/>
		<path id="Caminho_1107" class="st2" d="M88,62.9c-0.1,1.1-0.1,2.2,0.1,3.3c0.2,1.9,0.7,3.8,0.7,3.8s1.7,10.8,0.7,12.2s0,8.2,0,8.2
			c-1.3-0.1-2.5-0.1-3.8,0c-1.5,0.2-3,0.3-4.6,0.3l-9,0.3v-0.3c-1,0-2.1,0.1-3.1,0.2c-1.8,0.1-3.7,0-5.5-0.3c-1.5-0.2-2.2-0.7-2-1
			s-0.2-7-0.2-7l0-5.5c0,0,0-3.9,0.9-4.8c0.5-0.9,0.9-2,1-3.1c0.4-2.1,0.5-4.4,0.5-4.4L57.5,48l-0.1-0.3c0,0,1.8-2.8,1.5-4.2
			s1.7-2.6,1.7-2.6s3.8-1.7,4-2.2s2.9-0.6,2.9-0.6s1.5-0.8,1.7-1.3c0.1-0.3,0.4-0.5,0.7-0.6c0.2,1,0.7,1.9,1.5,2.5
			c1,0.5,1.6,1.6,1.6,2.8l3.4-0.1c-0.1-1,0.5-1.9,1.5-2.3c0.4-0.2,0.2-0.9,0.2-0.9l0.4-2.7c0.2-0.4,1.4,1.3,1.4,1.3s3.2,1.1,3.4,1.2
			s2.9,0.9,2.9,0.9s3.3,2.2,3.3,2.7c0.5,1.2,1.1,2.4,1.8,3.4l-0.1,0.3C90.8,47.6,88.3,61.1,88,62.9z"/>
		<path id="Caminho_1108" class="st9" d="M74.7,56.2c0,0-7.2-1.9-7.9-2.4S62,56,67.1,59.6c0,0,6.2,1.3,7.8,0S74.7,56.2,74.7,56.2z"
			/>
		<path id="Caminho_1109" class="st7" d="M90.3,44.8l0.9,0l2.6,6.9c0,0,1.5,3.6,1.8,4.2c0.2,1.2,0.2,2.5,0,3.7
			c-0.2,0.7-1.2,3.8-1.3,4.6s-2,1.6-4,1.5c-2.2,0-4.4,0.2-6.6,0.5c0,0-5-0.5-8,1c0,0-1.9-4-1.7-11.5c1.4-0.1,2.9-0.1,4.3,0.1
			c0.9,0.3,5.1,1.3,5.6,0.8s3,0.9,3,0.9c0.3-0.6,0.3-1.2,0-1.7c-0.4-1-1.1-4.1-0.2-5.1C87.9,48.8,89.1,46.8,90.3,44.8z"/>
		<path id="Caminho_1110" class="st7" d="M88.1,66.2c-2.1,0.1-4.4,0.4-4.4,0.4s-5-0.5-8,1c0,0-1.9-4-1.7-11.5
			c1.4-0.1,2.9-0.1,4.3,0.1c0.9,0.3,5.1,1.3,5.6,0.8c0.5-0.5,3,0.9,3,0.9c0.3-0.6,0.3-1.2,0-1.7c-0.4-1-1.1-4.1-0.2-5.1
			c1.3-1.9,2.5-3.8,3.6-5.8l0.8,0c-0.4,2.3-2.9,15.8-3.2,17.5C87.9,64,88,65.1,88.1,66.2z"/>
		<path id="Caminho_1111" class="st2" d="M90.4,45l0.9,0l2.6,6.9c0,0,1.5,3.6,1.8,4.2c0.2,1.2,0.2,2.5,0,3.7
			c-0.2,0.7-1.2,3.8-1.3,4.6s-2,1.6-4,1.5c-2.2,0-4.4,0.2-6.6,0.5c0,0-5-0.5-8,1c0,0-1.9-4-1.7-11.5c1.4-0.1,2.9-0.1,4.3,0.1
			c0.9,0.3,5.1,1.3,5.6,0.8s3,0.9,3,0.9c0.3-0.6,0.3-1.2,0-1.7c-0.4-1-1.1-4.1-0.2-5.1C88.1,48.9,89.3,47,90.4,45z"/>
		
			<rect id="Retângulo_464" x="79.6" y="55.2" transform="matrix(0.5264 -0.8502 0.8502 0.5264 -7.2104 98.7704)" class="st10" width="10.9" height="1.2"/>
		
			<ellipse id="Elipse_131" transform="matrix(0.5264 -0.8502 0.8502 0.5264 0.665 99.1343)" class="st10" cx="89.3" cy="49" rx="3.5" ry="2.5"/>
		
			<ellipse id="Elipse_132" transform="matrix(0.5264 -0.8502 0.8502 0.5264 0.666 99.1345)" class="st7" cx="89.3" cy="49" rx="2.5" ry="1.8"/>
		
			<rect id="Retângulo_465" x="77.6" y="61.8" transform="matrix(0.5264 -0.8502 0.8502 0.5264 -14.6608 98.4268)" class="st11" width="6.8" height="1.2"/>
		<path id="Caminho_1112" class="st9" d="M72.6,65.4l2.5-0.7c0,0,12.5,0.3,8.3-4.8c0,0-2.2-2.1-6.8-0.4c-1.9,0.8-3.9,1.4-5.9,1.9
			L72.6,65.4z"/>
		<circle id="Elipse_133" class="st7" cx="70.8" cy="43.2" r="0.5"/>
		<circle id="Elipse_134" class="st7" cx="79.3" cy="42.9" r="0.5"/>
		<circle id="Elipse_135" class="st3" cx="70.8" cy="43" r="0.5"/>
		<circle id="Elipse_136" class="st7" cx="71.5" cy="50.1" r="0.5"/>
		<circle id="Elipse_137" class="st7" cx="79.6" cy="49.6" r="0.5"/>
		<circle id="Elipse_138" class="st3" cx="71.5" cy="49.9" r="0.5"/>
		<circle id="Elipse_139" class="st7" cx="79.3" cy="73.6" r="0.5"/>
		<circle id="Elipse_140" class="st7" cx="72.8" cy="73.6" r="0.5"/>
		<circle id="Elipse_141" class="st3" cx="79.3" cy="73.4" r="0.5"/>
		<circle id="Elipse_142" class="st7" cx="73.3" cy="81.9" r="0.5"/>
		<circle id="Elipse_143" class="st7" cx="79.6" cy="81.4" r="0.5"/>
		<circle id="Elipse_144" class="st3" cx="73.3" cy="81.7" r="0.5"/>
		<circle id="Elipse_145" class="st3" cx="72.8" cy="73.4" r="0.5"/>
		<circle id="Elipse_146" class="st3" cx="79.6" cy="81.2" r="0.5"/>
		<circle id="Elipse_147" class="st3" cx="79.3" cy="42.7" r="0.5"/>
		<circle id="Elipse_148" class="st3" cx="79.6" cy="49.4" r="0.5"/>
		<path id="Caminho_1113" class="st7" d="M80.3,66.9c0,0,0.1,11.4,0.3,13.4C80.6,80.2,80.7,67.4,80.3,66.9z"/>
		<path id="Caminho_1114" class="st7" d="M82.4,72.1c-0.2,0,3.4,13.3,3.6,14.3S83.4,72.1,82.4,72.1z"/>
		<path id="Caminho_1115" class="st7" d="M85.2,70c0,0.1,2,7.2,3,7.6S85.2,70,85.2,70z"/>
		<path id="Caminho_1116" class="st7" d="M93.1,56.2c0,0-4.2,0.2-4.4,0.8S93.1,56.2,93.1,56.2z"/>
		<path id="Caminho_1117" class="st7" d="M85.6,110.2c0,0-3,1.3-2.6,1.4S85.6,110.2,85.6,110.2z"/>
		<path id="Caminho_1118" class="st7" d="M79.3,108.3c-0.1-0.3,2,1.1,2,1.2C80.6,109.3,79.9,108.9,79.3,108.3z"/>
		<path id="Caminho_1119" class="st7" d="M82.2,112.7c0,0,2.4-0.1,2.5,0.8S82.2,112.7,82.2,112.7z"/>
		<path id="Caminho_1120" class="st7" d="M65.2,112.6c0,0,2.6-0.5,2.8,0S65.2,112.6,65.2,112.6z"/>
		<path id="Caminho_1121" class="st7" d="M66.1,128.3c0,0,0.2,2.1-0.5,2.6S66.1,128.3,66.1,128.3z"/>
		<path id="Caminho_1122" class="st7" d="M65.8,132.8c0.8,0.1,5.1-0.7,5,0S65.8,132.8,65.8,132.8z"/>
		<path id="Caminho_1123" class="st7" d="M85.4,130.2c0,0-1.5-0.2-1.1,0.8L85.4,130.2z"/>
		<path id="Caminho_1124" class="st7" d="M58.3,47.5h-0.8l-1.2,4.4c-0.2,0.7-0.4,1.3-0.8,1.9c-0.4,0.4,0.4,3.8,0.4,3.8
			c-0.2,1-0.5,2-0.8,3c-0.4,0.6,0.6,2.2,0.6,2.2l1.9,4.5l5.1,1.3c0,0,8.9,1.9,9.3,2.2s0.8-0.1,1.1-2.8s1.1-7.9,1.7-8.2
			c0,0-5,0.5-5.4,0.5c-0.8,0-1.6,0-2.4,0c-1-0.1-2-0.1-3,0.1c-0.4,0.2,0.5-1.2,0.5-1.2c0.2-0.7,0.2-1.4,0-2
			C64.1,56,64,43.3,58.3,47.5z"/>
		<path id="Caminho_1125" class="st7" d="M74.5,60.3c-0.6,0.2-1.4,5.5-1.7,8.2s-0.7,3.1-1.1,2.8c-0.3-0.2-6.3-1.6-8.5-2.1
			c0.4-2.1,0.5-4.4,0.5-4.4L57.5,48h0.7c5.6-4.1,5.8,8.5,6.1,9.7c0.2,0.7,0.2,1.4,0,2c0,0-1,1.5-0.5,1.2c1-0.1,2-0.2,3-0.1
			c0.8-0.1,1.6-0.1,2.4,0C69.6,60.8,74.5,60.3,74.5,60.3z"/>
		<path id="Caminho_1126" class="st2" d="M58.2,47.6h-0.8L56.2,52c-0.2,0.7-0.4,1.3-0.8,1.9c-0.4,0.4,0.4,3.8,0.4,3.8
			c-0.2,1-0.5,2-0.8,3c-0.4,0.6,0.6,2.2,0.6,2.2l1.9,4.5l5.1,1.3c0,0,8.9,1.9,9.3,2.2s0.8-0.1,1.1-2.8s1.1-7.9,1.7-8.2
			c0,0-5,0.5-5.4,0.5c-0.8,0-1.6,0-2.4,0c-1-0.1-2-0.1-3,0.1c-0.4,0.2,0.5-1.2,0.5-1.2c0.2-0.7,0.2-1.4,0-2
			C64,56.2,63.8,43.5,58.2,47.6z"/>
		<path id="Caminho_1127" class="st7" d="M60.9,62.6c0,0-2.3,4.3-2.7,3.8S60.9,62.6,60.9,62.6z"/>
		<path id="Caminho_1128" class="st7" d="M58.5,60.2c0,0-2.1,1.8-1.1,2.2S58.5,60.2,58.5,60.2z"/>
		<path id="Caminho_1129" class="st7" d="M60.5,58c0.2,0,3.1,0.6,3.1,0.9S60.5,58,60.5,58z"/>
		<path id="Caminho_1130" class="st7" d="M80.6,27.7c-0.2,0.1-0.3,0.2-0.3,0.4c-0.2,0.1-0.4,0-0.5-0.2s-0.3-0.4-0.5-0.4
			c-0.1,0-0.2,0.1-0.3,0.1c-0.3,0.1-0.6-0.3-0.8-0.6l-1-1.8c-0.6,0.4-1.4,0-2.1-0.4s-1.4-0.8-2.1-0.4c-1,0.6-1,2.4-2,2.8
			c-0.3,0.1-0.7,0.1-1,0.3c-0.3,0.3-0.5,0.6-0.6,0.9c0,0.2-0.2,0.4-0.3,0.5c-0.1,0.1-0.2,0.1-0.3,0.1c-0.3,0-0.6,0-0.9-0.1
			c-0.3-0.2-0.4-0.5-0.3-0.9c0,0,0,0,0,0c0.1-0.1,0.2-0.3,0.3-0.4c0.1-0.3,0-0.6,0-0.9c0.1-0.5,0.6-0.7,0.7-1.2c0-0.2,0-0.4,0-0.6
			c0,0,0,0,0-0.1l-0.3,0.2c0.3-0.4,0.6-0.9,0.8-1.4c0.6-1.1,1.5-1.9,2.7-2.2c1.1-0.3,2.2-0.3,3.3,0c1,0.3,2,0.7,3,1.2
			c0.3,0.2,0.6,0.4,0.9,0.7c0.2,0.3,0.4,0.6,0.5,0.9c0.3,0.7,1.2,1.3,0.5,1.4c-0.6,0.1-0.1,0.5,0.3,0.8c0.1,0.1,0.1,0.1,0.2,0.2
			c0.1,0.2,0.1,0.5,0,0.7C80.3,27.6,80.8,27.6,80.6,27.7z"/>
		<path id="Caminho_1131" class="st12" d="M80.6,27.5c-0.2,0.1-0.3,0.2-0.3,0.4c-0.2,0.1-0.4,0-0.5-0.2s-0.3-0.4-0.5-0.4
			c-0.1,0-0.2,0.1-0.3,0.1c-0.3,0.1-0.6-0.3-0.8-0.6l-1-1.8c-0.6,0.4-1.4,0-2.1-0.4s-1.4-0.8-2.1-0.4c-1,0.6-1,2.4-2,2.8
			c-0.3,0.1-0.7,0.1-1,0.3c-0.3,0.3-0.5,0.6-0.6,0.9c0,0.2-0.2,0.4-0.3,0.5c-0.1,0.1-0.2,0.1-0.3,0.1c-0.3,0-0.6,0-0.9-0.1
			c-0.3-0.2-0.4-0.5-0.3-0.9c0,0,0,0,0,0c0.1-0.1,0.2-0.3,0.3-0.4c0.1-0.3,0-0.6,0-0.9c0.1-0.5,0.6-0.7,0.7-1.2c0-0.2,0-0.4,0-0.6
			c0,0,0,0,0-0.1L68.4,25c0.3-0.4,0.6-0.9,0.8-1.4c0.6-1.1,1.5-1.9,2.7-2.2c1.1-0.3,2.2-0.3,3.3,0c1,0.3,2,0.7,3,1.2
			c0.3,0.2,0.6,0.4,0.9,0.7c0.2,0.3,0.4,0.6,0.5,0.9c0.3,0.7,1.2,1.3,0.5,1.4c-0.6,0.1-0.1,0.5,0.3,0.8c0.1,0.1,0.1,0.1,0.2,0.2
			c0.1,0.2,0.1,0.5,0,0.7C80.3,27.4,80.8,27.4,80.6,27.5z"/>
		<path id="Caminho_1132" class="st7" d="M80.3,26.4l-0.1,0.7c0,0-7-8.8-12.4,1.1l-0.1-0.3c0.1-0.1,0.2-0.3,0.3-0.4
			c0.1-0.3,0-0.6,0-0.9c0.1-0.5,0.6-0.7,0.7-1.2c0-0.2,0-0.4,0-0.6c0,0,0,0,0-0.1L68.4,25c0.3-0.4,0.6-0.9,0.8-1.4
			c0.6-1.1,1.5-1.9,2.7-2.2c1.1-0.3,2.2-0.3,3.3,0c1,0.3,2,0.7,3,1.2c0.3,0.2,0.6,0.4,0.9,0.7c0.2,0.3,0.4,0.6,0.5,0.9
			c0.3,0.7,1.2,1.3,0.5,1.4C79.4,25.7,80,26.1,80.3,26.4z"/>
		<g id="Grupo_578" transform="translate(67.74 23.809)" class="st13">
			<path id="Caminho_1133" d="M12.7,3.6c-0.1,0.1-0.1,0.2-0.1,0.3c-0.2,0.1-0.4,0-0.5-0.2s-0.3-0.4-0.5-0.4c-0.1,0-0.2,0.1-0.3,0.1
				c-0.3,0.1-0.6-0.3-0.8-0.6L9.5,1c-0.6,0.4-1.4,0-2.1-0.4S6.1-0.2,5.4,0.1c-1,0.6-1,2.4-2,2.8c-0.3,0.1-0.7,0.1-1,0.3
				C2.2,3.6,2,3.9,1.9,4.2c0,0.2-0.2,0.4-0.3,0.5C1.4,4.8,1.3,4.9,1.2,4.9c-0.3,0-0.6,0-0.9-0.1C0.2,4.6,0.1,4.5,0,4.3
				c-0.1,0.3,0.1,0.6,0.3,0.8c0.3,0.1,0.6,0.2,0.9,0.1c0.1,0,0.2,0,0.3-0.1C1.7,5,1.8,4.8,1.9,4.6C2,4.2,2.2,3.9,2.4,3.6
				c0.3-0.2,0.7-0.2,1-0.3c1-0.5,1-2.3,2-2.8c0.6-0.4,1.4,0,2.1,0.4s1.4,0.8,2.1,0.4c0.3,0.6,0.6,1.2,1,1.8c0.2,0.3,0.5,0.7,0.8,0.6
				c0.1,0,0.2-0.1,0.3-0.1c0.2,0,0.4,0.2,0.5,0.4s0.4,0.4,0.5,0.2c0-0.2,0.1-0.4,0.3-0.4C13,3.7,12.8,3.7,12.7,3.6z"/>
			<path id="Caminho_1134" d="M12.2,1.9c0,0,0.1,0,0.2,0c0.3,0,0.3-0.2,0.2-0.4c-0.1,0-0.1,0.1-0.2,0.1C12,1.6,12,1.8,12.2,1.9z"/>
			<path id="Caminho_1135" d="M12.8,3.3c0-0.1,0-0.2,0-0.3c0,0.1,0,0.1-0.1,0.2C12.7,3.3,12.7,3.3,12.8,3.3z"/>
			<path id="Caminho_1136" d="M0.4,2.8C0.4,2.9,0.3,2.9,0.4,2.8c0,0.2,0,0.4,0,0.5C0.4,3.2,0.4,3,0.4,2.8L0.4,2.8z"/>
			<path id="Caminho_1137" d="M1,0.8C0.9,1,0.9,1.1,0.7,1.2L1,1.1C1,1,1,0.9,1,0.8z"/>
		</g>
		<path id="Caminho_1138" class="st2" d="M67.8,28.1c0,0-1-4.5-0.7-5.2c-0.4-0.7-0.6-1.4-0.9-2.2c0-0.7-0.3-1.4-0.6-2
			c-0.5-0.7-1-4.1,1.8-4.9s4.8-1.5,5.1-2.1s5-0.2,6.3,1.9s2.1,1.7,2.1,1.7s2,1.2,2,2.3s-0.6,1.6,0,1.9s0.1,4.8-2.5,4.9l-0.2,2.4
			C80.2,26.9,73.3,18.1,67.8,28.1z"/>
		<path id="Caminho_1139" class="st7" d="M68.1,14.7c0,0-0.6,3.5,0.5,4.7L68.1,14.7z"/>
		<path id="Caminho_1140" class="st7" d="M71,13.9c0,0-1.5,3.8-1.2,4.5L71,13.9z"/>
		<path id="Caminho_1141" class="st7" d="M72.3,12.7c0,0-1,4.9-0.5,5.3L72.3,12.7z"/>
		<path id="Caminho_1142" class="st7" d="M74.1,14c0,0-1.3,3.1-0.8,3.6L74.1,14z"/>
		<path id="Caminho_1143" class="st7" d="M76.5,14.4c0,0-1.5,2.6-1.2,3L76.5,14.4z"/>
		<path id="Caminho_1144" class="st7" d="M79.6,16.9c0,0-1.6,0.4-1.3,1L79.6,16.9z"/>
		<path id="Caminho_1145" class="st7" d="M81.1,19.6c0,0-1.5,0.7-1.2,1.1L81.1,19.6z"/>
		<path id="Caminho_1146" class="st7" d="M67.2,22.9c0,0,9.3-3.8,13.3,1.6C80.4,24.5,75.6,20.4,67.2,22.9z"/>
		<path id="Caminho_1147" class="st11" d="M63.8,53.8l1.3-1.3l3.6,3.6l-1.3,1.3l-3.4-3.3L63.8,53.8z"/>
		<path id="Caminho_1148" class="st10" d="M55.3,45.4c0,0,5.7,0.5,10.9,6.4L64.1,54L55.3,45.4z"/>
		<path id="Caminho_1149" class="st9" d="M72.3,56c-2-0.7-4-1.5-6-2.5c-0.5-0.5-3.7,2.3,0.2,6c0,0,4.7,1.3,5.9,0S72.3,56,72.3,56z"
			/>
	</g>
	<g id="Woman" transform="translate(-9 -151.757)">
		<path id="Caminho_1210" class="st14" d="M313.1,483.5c0.9,1,0.8,2.6-0.3,3.5c-0.1,0.1-0.1,0.1-0.2,0.2l-12.1,8.3l-5.3,3.6
			c-0.6,0.4-1.5,0.3-2-0.3l0,0c-0.5-0.6-0.4-1.6,0.2-2.1c0.1,0,0.1-0.1,0.2-0.1l5.2-3l9-8.6l-5.8-6.2l4.3-3.2L313.1,483.5z"/>
		<path id="Caminho_1211" class="st14" d="M284.5,562h-3l-1.8-24.5l7.5-0.2L284.5,562z"/>
		<path id="Caminho_1212" class="st15" d="M284.7,570c-0.8,0.4-1.5-2.6-2.1-1.9c-2,1.8-4.7,2.3-7.2,1.4l0.9,0
			c-0.6-0.2-1-0.9-0.8-1.5c0,0,0,0,0-0.1l0,0c0.1-0.4,0.4-0.6,0.8-0.7l2-0.5l3.1-5.5l3.2-0.2l0,0c1.4,1.8,2,4.2,1.4,6.5
			C285.7,568.7,285.3,569.7,284.7,570z"/>
		<path id="Caminho_1213" class="st14" d="M304.3,562h-3l-1.8-24.5l7.8-1.5L304.3,562z"/>
		<path id="Caminho_1214" class="st15" d="M304.5,570c-0.8,0.4-1.5-2.6-2.1-1.9c-2,1.8-4.7,2.3-7.2,1.4l0.9,0
			c-0.6-0.2-1-0.9-0.8-1.5c0,0,0,0,0-0.1l0,0c0.1-0.4,0.4-0.6,0.8-0.7l2-0.5l3.1-5.5l3.4-0.4l0.1,0.1c1.3,2.1,1.7,4.8,0.9,7.2
			C305.5,568.9,305.1,569.5,304.5,570z"/>
		<path id="Caminho_1215" class="st2" d="M307.7,476c-2.7,0.2-4.9,2.2-5.4,4.9l-5-9.3c-0.6-1.2-0.2-2.7,0.9-3.5l0,0
			c1.2-0.8,2.8-0.6,3.7,0.5L307.7,476z"/>
		<path id="Caminho_1216" class="st15" d="M312.9,534.9c-11.8,5.3-25.1,6.2-37.5,2.6c4.7-18.1,10.2-34.4,10.1-47.8l12.5-1.1l1.9,3
			c4.6,7.2,7.7,15.3,9.3,23.7L312.9,534.9z"/>
		<circle id="Elipse_159" class="st14" cx="292.5" cy="455.4" r="6.5"/>
		<path id="Caminho_1217" class="st2" d="M298.7,489.7l-8.7,0.2l-4.4,0.6c-2.2-7.1-4-14.3,0.4-20.2l5.2-5.2l7.8-0.2l0.1,0.1
			c2.5,1.5,3.7,4.5,2.9,7.3C300,477.9,298.9,483.7,298.7,489.7z"/>
		<path id="Caminho_1218" class="st14" d="M285.4,509.7l-0.5,7.4c-0.1,0.8-0.7,1.5-1.5,1.5l0,0c-0.9,0.1-1.7-0.6-1.8-1.5
			c0,0,0-0.1,0-0.1l0.2-7.2l5.4-20.5l0.2-12.5l6-0.2l-0.4,14.4L285.4,509.7z"/>
		<path id="Caminho_1219" class="st2" d="M294,477.6c-2.4-1.1-5.3-0.5-7.1,1.5l0.3-10.5c0.1-1.4,1.1-2.5,2.5-2.6l0,0
			c1.5-0.1,2.7,0.9,3,2.3L294,477.6z"/>
		<path id="Caminho_1220" class="st15" d="M306.2,484.2h-19.8c4.6-12.2,6.1-23.6,0-33.4c0.1-2.9,3.9-5.5,6.8-5.2l0,0
			c3.4,0.3,8.1,2.9,8.7,6.3L306.2,484.2z"/>
		
			<ellipse id="Elipse_161" transform="matrix(0.9999 -1.699754e-02 1.699754e-02 0.9999 -9.6264 5.0245)" class="st0" cx="290.8" cy="568.8" rx="23.9" ry="5.3"/>
	</g>
</g>
<g>
	<path class="st16" d="M135.5,108.8c0-7.9,0-15.8,0-23.7c0-0.5,0.1-0.6,0.6-0.6c15.8,0,31.6,0,47.4,0c0.5,0,0.6,0.1,0.6,0.6
		c0,15.8,0,31.6,0,47.4c0,0.5-0.1,0.6-0.6,0.6c-15.8,0-31.6,0-47.4,0c-0.5,0-0.6-0.1-0.6-0.6C135.5,124.6,135.5,116.7,135.5,108.8z"
		/>
	<path class="st17" d="M148.3,123.3c0-0.3-0.2-0.5-0.4-0.7c-2.3-3.2-3.6-6.8-3.9-10.8c-0.2-2.9,1.1-5.1,3.2-7c0.3-0.3,0.6-0.5,1-0.8
		c0.1-0.2,0.2-0.2,0.4-0.3c0.5,0,1-0.4,1.5,0.1c0,0.3-0.1,0.5-0.2,0.7c-1.1,1.8-0.9,3.9,0.4,5.5c1.2,1.5,3.2,2,5.1,1.4
		c1.9-0.6,3.2-2.4,3.2-4.3c0-1.3-0.5-2.4-1.4-3.4c-0.3-0.3-0.8-0.5-0.6-1c0.8-0.4,1.6-0.4,2.5-0.4c3.7-0.4,7.4-0.7,11-1.1
		c1.9-0.2,3.7-0.5,5.6-0.8c0.3,0,0.7-0.2,1,0.1c2.1,2.8,3,6.1,3.1,9.6c0,0.9-0.1,1.7-0.4,2.6c-0.2,0.4-0.3,0.8-0.5,1.1
		c-1.9,3.1-3.2,6.4-4.7,9.7c-0.6,1.3-1.5,2.4-2.1,3.7c-0.7,0.6-1.5,0.4-2.4,0.5c-7.1,0.5-13.9-0.7-20.4-3.5
		C149,123.9,148.5,123.8,148.3,123.3z"/>
	<path class="st3" d="M148.3,123.3c4.1,1.9,8.4,3.1,12.9,3.7c1.7,0.2,3.4,0.4,5.1,0.4c1.9,0,3.9,0,5.8-0.4c2.1-0.2,3.6-1.2,4.5-3
		c1-2,1.7-4.2,2.4-6.4c0.2-0.5,0.3-1.1,0.7-1.5c0.2-0.2,0.4-0.5,0.8-0.4c0.3,0.2,0.3,0.5,0.2,0.8c-0.2,1.1-0.4,2.3-0.7,3.4
		c-0.6,2.9-1.3,5.7-2.5,8.4c-0.4,1-1,1.8-1.7,2.6c-1.3,1.6-3.2,1.9-5.1,2.1c-8.8,0.9-17.2-0.8-25.2-4.3c-1-0.4-2-1.1-2.9-1.7
		c-3-2.1-4.4-4.8-3.5-8.5c0.9-3.5,2.1-6.9,3.5-10.1c0.2-0.4,0.4-1,0.9-0.9c0.5,0.2,0.4,0.8,0.3,1.2c-0.2,1.1-0.6,2.3-0.9,3.4
		c-0.3,1.2-0.6,2.4-0.8,3.6c-0.2,1.4,0.2,2.6,1.1,3.7c0.9,1.3,2.2,2.1,3.6,3C147.3,122.8,147.8,123,148.3,123.3z"/>
	<path class="st18" d="M176.7,100.3c-1.9,0.3-3.8,0.6-5.7,0.8c-1.7,0.2-3.5,0.4-5.2,0.6c-3,0.3-6,0.6-9,1c0,0-0.1,0-0.1,0.1
		c-0.3,0.1-0.5,0-0.7-0.1c-1.9-0.8-3.6-0.4-5.2,0.9c-0.1,0.1-0.2,0.4-0.5,0.2c-0.5-0.1-1.1,0.1-1.6,0.1c-0.2,0.1-0.5,0-0.8,0.1
		c-2.1,0.1-4.3,0.2-6.4-0.3c-1-0.2-1.6-1.5-1.2-2.5c0.3-0.7,0.8-1.1,1.5-1.3c3.4-1.2,7-1.6,10.6-1.8c0.6,0,0.9-0.2,1.2-0.7
		c0.9-1.8,1.8-3.6,2.8-5.4c0.9-1.6,2.1-2.3,4-1.9c1.7,0.3,3.5,0.5,5.2,0.9c0.4,0.1,0.7,0.2,1,0.6c1,1.2,2.2,2.2,2.9,3.6
		c0.1,0.2,0.3,0.3,0.6,0.2c4-1,8.1-0.8,12.2-0.5c0.4,0,0.6,0.2,0.8,0.4c0.4,0.5,0.6,1.2,0.6,1.8c0,0.8-0.3,1.3-1.1,1.6
		C180.7,99.4,178.6,99.8,176.7,100.3z"/>
	<path class="st19" d="M147.8,103.9c0.2-0.2,0.5-0.1,0.8-0.1c-0.1,0-0.2,0.1-0.3,0.1C148.1,104,148,104,147.8,103.9z"/>
	<path d="M164.7,110.7c0-2.7,2.2-4.9,4.9-4.9s4.9,2.2,4.9,4.9c0,2.7-2.2,4.9-4.9,4.9C166.8,115.7,164.7,113.4,164.7,110.7z"/>
	<path d="M150.1,103.8c1.9-1.9,3.9-2.3,6.4-1c1.9,1.4,2.7,3.2,2.1,5.5c-0.6,2-2,3.2-4.1,3.5c-2,0.3-3.7-0.5-4.7-2.3
		c-1.1-1.7-1-3.5,0-5.3C149.9,104.1,150,103.9,150.1,103.8z"/>
	<path d="M158.8,122.5c-1.2-1.3-1.3-3-1.3-4.6c0-0.5,0.4-0.4,0.7-0.4c1.6,0.1,3.2,0.2,4.7,0.4c0.9,0.1,1.8,0.1,2.7,0.2
		c0.2,0,0.5,0,0.5,0.3c-0.1,1.5-0.4,3-1.4,4.1c-0.1,0.1-0.2,0.2-0.4,0.2c-0.3-0.1-0.4-0.4-0.6-0.6c-1.4-1.5-3.2-1.4-4.5,0.2
		C159,122.4,158.9,122.5,158.8,122.5z"/>
	<path class="st20" d="M158.8,122.5c0.5-1.4,2.3-2.1,3.7-1.4c0.7,0.3,1.3,0.9,1.7,1.6c-1.1,1.4-3.6,1.6-4.9,0.3
		C159.2,122.8,159,122.7,158.8,122.5z"/>
	<path class="st21" d="M158.9,96.9c-1.1,0.4-2.1,0-3.1,0c-0.3,0-0.2-0.2-0.2-0.4c0.2-1.1,1.9-3.3,3.6-3.2c2.1,0.2,4.1,0.4,5.9,1.5
		c-0.3,0.6-0.8,0.2-1.3,0.3c-1.4,0-2.7,0.3-3.8,1.2C159.7,96.5,159.4,96.8,158.9,96.9z"/>
	<path class="st22" d="M158.9,96.9c1.3-1.3,2.8-2.2,4.8-2.1c0.6,0.2,1.2-0.1,1.8,0.1c0.2,0.1,0.4,0.2,0.9,0.4
		c-1.2,0.2-2.2,0.4-3.2,0.6C161.9,96.3,160.4,96.8,158.9,96.9z"/>
	<path class="st23" d="M165.6,94.9c-0.6,0-1.2,0.1-1.8-0.1c0.4-0.2,0.9,0.1,1.4-0.2C165.3,94.7,165.5,94.7,165.6,94.9z"/>
	<path class="st21" d="M168.9,110.7c-1.2,0-2.1-1-2.1-2.1s1-2.1,2.2-2.1c1.2,0,2.1,1.1,2.1,2.2C171.1,109.8,170.1,110.8,168.9,110.7
		z"/>
	<path class="st24" d="M172.3,111.7c0,0.3-0.2,0.6-0.5,0.6c-0.4,0-0.6-0.1-0.6-0.5c0-0.4,0.2-0.6,0.6-0.6
		C172,111.1,172.2,111.4,172.3,111.7z"/>
	<path class="st21" d="M155.3,103.2c1.2,0,2.1,1,2.1,2.1c0,1.2-1,2.2-2.2,2.1c-1.2,0-2.1-1-2.1-2.1
		C153.2,104.2,154.1,103.2,155.3,103.2z"/>
	<path class="st24" d="M151.9,108.2c-0.3,0-0.6-0.2-0.6-0.5c0-0.4,0.2-0.6,0.5-0.6c0.4,0,0.6,0.2,0.6,0.6
		C152.5,107.9,152.3,108.2,151.9,108.2z"/>
</g>
</svg>
