<svg xmlns="http://www.w3.org/2000/svg" width="289.042" height="302.629" viewBox="0 0 289.042 302.629">
  <g id="Illustration" transform="translate(30.318 19.173)">
    <rect id="Rectangle_336" data-name="Rectangle 336" width="11.184" height="177.582" transform="matrix(0.836, -0.548, 0.548, 0.836, 46.66, 95.581)" fill="#e6e6e6"/>
    <path id="Path_230" data-name="Path 230" d="M277.411,168l21.637,32.989a2.881,2.881,0,1,1-4.818,3.16l-24.874-37.925a20.546,20.546,0,0,0-9.879,1.622l27.1,41.321a2.881,2.881,0,0,1-4.818,3.16l-27.1-41.321a20.546,20.546,0,0,0-5.424,8.414l24.874,37.925a2.881,2.881,0,1,1-4.818,3.16l-21.637-32.989c-.556,9.2,2.443,20.1,9.016,30.121,12.215,18.624,32.141,27.149,44.5,19.039s12.485-29.781.27-48.406C294.873,178.252,286.068,171.157,277.411,168Z" transform="translate(-243.662 -134.435)" fill="#e6e6e6"/>
    <path id="Path_325" data-name="Path 325" d="M0,0H11.184V169.385H0Z" transform="translate(86.758 69.135)" fill="#e6e6e6"/>
    <ellipse id="Ellipse_9" data-name="Ellipse 9" cx="26.773" cy="40.329" rx="26.773" ry="40.329" transform="translate(65.407)" fill="#e6e6e6"/>
    <ellipse id="Ellipse_10" data-name="Ellipse 10" cx="22.028" cy="33.182" rx="22.028" ry="33.182" transform="translate(70.152 7.147)" fill="#ccc"/>
    <ellipse id="Ellipse_11" data-name="Ellipse 11" cx="74.358" cy="7.078" rx="74.358" ry="7.078" transform="translate(49 261.672)" fill="#e6e6e6"/>
    <path id="Path_231" data-name="Path 231" d="M530.816,672.91a394.071,394.071,0,0,0-139.807,0A5.1,5.1,0,0,1,385,667.9v-63.34H536.826V667.9a5.1,5.1,0,0,1-6.009,5.013Z" transform="translate(-334.504 -424.264)" fill="#f86464"/>
    <path id="Path_232" data-name="Path 232" d="M479.321,401.108a31.468,31.468,0,0,0-10.3,1.724,60.681,60.681,0,0,0-109.953-.556,31.519,31.519,0,1,0,4.124,59.222,60.671,60.671,0,0,0,101.922-.733,31.52,31.52,0,1,0,14.207-59.657Z" transform="translate(-290.895 -267.583)" fill="#f86464"/>
    <path id="Path_233" data-name="Path 233" d="M419.677,495.662H419a60.459,60.459,0,0,1,5.845-26.09l.613.29A59.785,59.785,0,0,0,419.677,495.662Z" transform="translate(-356.982 -335.025)" fill="#3f3d56"/>
    <path id="Path_234" data-name="Path 234" d="M766.906,496.75h-.678a59.824,59.824,0,0,0-5.522-25.248l.616-.284a60.5,60.5,0,0,1,5.584,25.532Z" transform="translate(-582.885 -336.113)" fill="#3f3d56"/>
    <path id="Path_235" data-name="Path 235" d="M384.922,673.811l-.163-.658c.191-.047,19.454-4.778,47.683-7.126,26.055-2.166,65.3-2.689,104.307,7.126l-.165.657c-38.911-9.791-78.071-9.27-104.071-7.109C404.333,669.044,385.113,673.764,384.922,673.811Z" transform="translate(-334.345 -464.044)" fill="#3f3d56"/>
    <path id="Path_236" data-name="Path 236" d="M384.922,700.811l-.163-.658c.191-.047,19.454-4.778,47.683-7.126,26.055-2.166,65.3-2.689,104.307,7.126l-.165.657c-38.911-9.791-78.071-9.269-104.071-7.109C404.333,696.044,385.113,700.764,384.922,700.811Z" transform="translate(-334.345 -481.894)" fill="#3f3d56"/>
    <path id="Path_237" data-name="Path 237" d="M384.922,727.811l-.163-.658c.191-.047,19.454-4.778,47.683-7.126,26.055-2.166,65.3-2.689,104.307,7.126l-.165.657c-38.911-9.791-78.071-9.269-104.071-7.109C404.333,723.044,385.113,727.764,384.922,727.811Z" transform="translate(-334.345 -499.744)" fill="#3f3d56"/>
    <path id="Path_238" data-name="Path 238" d="M665.164,484.019l-8.211-2.792,7.883-40.237-5.42-.493c-5.285,4.055-12.322,5.644-21.35,4.434l14.452,21.843-7.369,5.2-23.509-28.2A7.071,7.071,0,0,1,620,439.25h0a7.071,7.071,0,0,1,5.114-6.8l25.1-7.231,29.4,3.285c4.444,6.776,4.618,11.488-2.147,12.848Z" transform="translate(-489.864 -305.707)" fill="#2f2e41"/>
    <path id="Path_239" data-name="Path 239" d="M718.583,604.676h0a5.408,5.408,0,0,1-4.7-7.358l4.082-10.5c2.074-3.928,4.92-3.436,8.28,0l1.642,4.818a3.11,3.11,0,0,1-.181,2.432l-3.979,7.693A5.408,5.408,0,0,1,718.583,604.676Z" transform="translate(-551.688 -410.711)" fill="#2f2e41"/>
    <path id="Path_240" data-name="Path 240" d="M687.268,564.113h0a5.408,5.408,0,0,1-4.7-7.358l4.082-10.5c2.074-3.928,4.92-3.436,8.28,0l1.642,4.817a3.11,3.11,0,0,1-.181,2.432l-3.979,7.693a5.408,5.408,0,0,1-5.145,2.913Z" transform="translate(-530.985 -383.895)" fill="#2f2e41"/>
    <circle id="Ellipse_12" data-name="Ellipse 12" cx="9.197" cy="9.197" r="9.197" transform="translate(152.308 62.693)" fill="#ffb9b9"/>
    <path id="Path_241" data-name="Path 241" d="M488.926,229.59l-12.646,6.569-2.628-11.825,8.7-5.42Z" transform="translate(-313.133 -144.725)" fill="#ffb9b9"/>
    <path id="Path_242" data-name="Path 242" d="M720.656,351.945c-12.618-3.811-24.068-5.786-32.354-2.792,2.856-8.035-2.415-20.3-8.212-32.846,2.5-3.269,6.488-4.536,11-5.091,4.94,3.587,8.385,1.285,11-4.27,5.712-.229,11.216,1.793,16.587,5.255A56.668,56.668,0,0,0,720.656,351.945Z" transform="translate(-529.59 -227.5)" fill="#3f3d56"/>
    <path id="Path_243" data-name="Path 243" d="M672.024,366.856a19.75,19.75,0,0,0-5.584,5.584,30.64,30.64,0,0,1-7.62-6.332,13.56,13.56,0,0,1-2.484-12.685l5.612-18.24a8,8,0,0,1,2.6-3.857l.741-.6,7.39,13.96-7.39,13.8C666.228,360.994,668.99,363.9,672.024,366.856Z" transform="translate(-513.476 -243.233)" fill="#3f3d56"/>
    <path id="Path_244" data-name="Path 244" d="M695.958,450.491h0a4.746,4.746,0,0,1-6.665-3.633l-1.221-8.362,4.27-2.3,5.419,7.094a4.746,4.746,0,0,1-1.8,7.2Z" transform="translate(-534.866 -312.961)" fill="#ffb9b9"/>
    <path id="Path_245" data-name="Path 245" d="M700.039,257.459l-1.57.047-4.356-6.17a23.254,23.254,0,0,0-14.025,6.716l-.392-2.616a9.862,9.862,0,0,1,7.762-11.122h0a9.862,9.862,0,0,1,11.716,8.017Z" transform="translate(-529.255 -185.972)" fill="#2f2e41"/>
    <path id="Path_246" data-name="Path 246" d="M686.994,438.442h0a4.746,4.746,0,0,1,3.633-6.665l8.362-1.221,2.3,4.27-7.094,5.419a4.746,4.746,0,0,1-7.2-1.8Z" transform="translate(-533.871 -309.231)" fill="#ffb9b9"/>
    <path id="Path_247" data-name="Path 247" d="M748.84,358.43c-7.956.618-16.642,3.1-25.735,6.618a12.58,12.58,0,0,0-2.792-7.39c8.259-2.175,15.753-4.728,20.365-8.7l-2.792-21.022,6.077-6.9,1.048.547a7,7,0,0,1,3.548,4.454c2.566,9.98,3.705,19.542,2.922,28.541A3.548,3.548,0,0,1,748.84,358.43Z" transform="translate(-556.181 -236.826)" fill="#3f3d56"/>
    <path id="Path_248" data-name="Path 248" d="M287.189,739.4q-11.1,6.942-22.2-.006a1.505,1.505,0,0,1-.712-1.388l2.309-30.013h18.673l2.638,30a1.5,1.5,0,0,1-.711,1.4Z" transform="matrix(0.899, 0.438, -0.438, 0.899, 68.294, -589.818)" fill="#3f3d56"/>
    <ellipse id="Ellipse_13" data-name="Ellipse 13" cx="9.423" cy="3.395" rx="9.423" ry="3.395" transform="matrix(0.899, 0.438, -0.438, 0.899, -1.277, 160.565)" fill="#3f3d56"/>
    <path id="Path_249" data-name="Path 249" d="M292.372,695.017q-7.365,5.181-14.26,0v-5.432h14.26Z" transform="matrix(0.899, 0.438, -0.438, 0.899, 54.738, -582.89)" fill="#f86464"/>
    <ellipse id="Ellipse_14" data-name="Ellipse 14" cx="7.13" cy="2.716" rx="7.13" ry="2.716" transform="matrix(0.899, 0.438, -0.438, 0.899, 3.6, 156.381)" fill="#f86464"/>
    <ellipse id="Ellipse_15" data-name="Ellipse 15" cx="0.679" cy="0.34" rx="0.679" ry="0.34" transform="matrix(0.899, 0.438, -0.438, 0.899, 8.81, 161.188)" fill="#e6e6e6"/>
    <ellipse id="Ellipse_16" data-name="Ellipse 16" cx="0.679" cy="0.34" rx="0.679" ry="0.34" transform="matrix(0.899, 0.438, -0.438, 0.899, 11.692, 162.594)" fill="#e6e6e6"/>
    <ellipse id="Ellipse_17" data-name="Ellipse 17" cx="0.679" cy="0.34" rx="0.679" ry="0.34" transform="matrix(0.899, 0.438, -0.438, 0.899, 9.9, 162.611)" fill="#e6e6e6"/>
    <ellipse id="Ellipse_18" data-name="Ellipse 18" cx="0.679" cy="0.34" rx="0.679" ry="0.34" transform="matrix(0.899, 0.438, -0.438, 0.899, 4.136, 159.8)" fill="#e6e6e6"/>
    <ellipse id="Ellipse_19" data-name="Ellipse 19" cx="0.679" cy="0.34" rx="0.679" ry="0.34" transform="matrix(0.899, 0.438, -0.438, 0.899, 5.928, 159.783)" fill="#e6e6e6"/>
    <ellipse id="Ellipse_20" data-name="Ellipse 20" cx="0.679" cy="0.34" rx="0.679" ry="0.34" transform="matrix(0.899, 0.438, -0.438, 0.899, 6.842, 161.566)" fill="#e6e6e6"/>
    <path id="Path_250" data-name="Path 250" d="M892.189,739.4q-11.1,6.942-22.2-.006a1.505,1.505,0,0,1-.712-1.388l2.309-30.013h18.673l2.638,30A1.5,1.5,0,0,1,892.189,739.4Z" transform="matrix(0.951, -0.309, 0.309, 0.951, -828.995, -185.33)" fill="#3f3d56"/>
    <ellipse id="Ellipse_21" data-name="Ellipse 21" cx="9.423" cy="3.395" rx="9.423" ry="3.395" transform="matrix(0.951, -0.309, 0.309, 0.951, 217.609, 215.824)" fill="#3f3d56"/>
    <path id="Path_251" data-name="Path 251" d="M897.372,695.017q-7.365,5.181-14.26,0v-5.432h14.26Z" transform="matrix(0.951, -0.309, 0.309, 0.951, -833.934, -170.928)" fill="#f86464"/>
    <ellipse id="Ellipse_22" data-name="Ellipse 22" cx="7.13" cy="2.716" rx="7.13" ry="2.716" transform="matrix(0.951, -0.309, 0.309, 0.951, 218.21, 209.426)" fill="#f86464"/>
    <ellipse id="Ellipse_23" data-name="Ellipse 23" cx="0.679" cy="0.34" rx="0.679" ry="0.34" transform="matrix(0.951, -0.309, 0.309, 0.951, 225.298, 209.265)" fill="#e6e6e6"/>
    <ellipse id="Ellipse_24" data-name="Ellipse 24" cx="0.679" cy="0.34" rx="0.679" ry="0.34" transform="matrix(0.951, -0.309, 0.309, 0.951, 228.347, 208.274)" fill="#e6e6e6"/>
    <ellipse id="Ellipse_25" data-name="Ellipse 25" cx="0.679" cy="0.34" rx="0.679" ry="0.34" transform="matrix(0.951, -0.309, 0.309, 0.951, 227.07, 209.532)" fill="#e6e6e6"/>
    <ellipse id="Ellipse_26" data-name="Ellipse 26" cx="0.679" cy="0.34" rx="0.679" ry="0.34" transform="matrix(0.951, -0.309, 0.309, 0.951, 220.971, 211.514)" fill="#e6e6e6"/>
    <ellipse id="Ellipse_27" data-name="Ellipse 27" cx="0.679" cy="0.34" rx="0.679" ry="0.34" transform="matrix(0.951, -0.309, 0.309, 0.951, 222.249, 210.256)" fill="#e6e6e6"/>
    <ellipse id="Ellipse_28" data-name="Ellipse 28" cx="0.679" cy="0.34" rx="0.679" ry="0.34" transform="matrix(0.951, -0.309, 0.309, 0.951, 224.145, 210.904)" fill="#e6e6e6"/>
    <ellipse id="Ellipse_46" data-name="Ellipse 46" cx="16.701" cy="5.078" rx="16.701" ry="5.078" transform="translate(-28.38 251.468) rotate(11)" fill="#e6e6e6"/>
    <ellipse id="Ellipse_47" data-name="Ellipse 47" cx="16.701" cy="5.078" rx="16.701" ry="5.078" transform="translate(224.145 273.425) rotate(-9)" fill="#e6e6e6"/>
    <path id="Path_323" data-name="Path 323" d="M242.654,1443.111c2.628-7.1,3.68-6.636,8.629-6.165s5.7-5.146,5.7-7.83" transform="translate(-73.297 -1401)" fill="none" stroke="#bfbfbf" stroke-linecap="round" stroke-width="2"/>
    <path id="Path_324" data-name="Path 324" d="M242.654,1443.111c2.628-7.1,3.68-6.636,8.629-6.165s5.7-5.146,5.7-7.83" transform="matrix(0.883, -0.469, 0.469, 0.883, -724.347, -1132.157)" fill="none" stroke="#bfbfbf" stroke-linecap="round" stroke-width="2"/>
    <text id="_" data-name="?!" transform="translate(206.608) rotate(34)" fill="#bfbfbf" font-size="30" font-family="Nunito-Bold, Nunito" font-weight="700" letter-spacing="-0.015em"><tspan x="-10.38" y="30">?!</tspan></text>
    <text id="_2" data-name="*" transform="translate(131.57 14.914) rotate(-1)" fill="#bfbfbf" font-size="30" font-family="Nunito-Bold, Nunito" font-weight="700" letter-spacing="-0.015em"><tspan x="-6.795" y="30">*</tspan></text>
    <text id="_3" data-name="#" transform="translate(180.051 -6.279) rotate(-23)" fill="#bfbfbf" font-size="20" font-family="Nunito-Bold, Nunito" font-weight="700" letter-spacing="-0.015em"><tspan x="-6" y="20">#</tspan></text>
  </g>
</svg>
