<svg xmlns="http://www.w3.org/2000/svg" xmlns:xlink="http://www.w3.org/1999/xlink" width="339.1" height="246.561" viewBox="0 0 339.1 246.561">
  <defs>
    <linearGradient id="linear-gradient" x1="0.5" y1="1" x2="0.5" gradientUnits="objectBoundingBox">
      <stop offset="0" stop-color="gray" stop-opacity="0.251"/>
      <stop offset="0.54" stop-color="gray" stop-opacity="0.122"/>
      <stop offset="1" stop-color="gray" stop-opacity="0.102"/>
    </linearGradient>
    <linearGradient id="linear-gradient-2" x1="0.5" y1="1" x2="0.5" y2="0" xlink:href="#linear-gradient"/>
  </defs>
  <g id="Illustration" transform="translate(-0.004 0)">
    <ellipse id="Ellipse_29" data-name="Ellipse 29" cx="16.884" cy="6.003" rx="16.884" ry="6.003" transform="translate(7.082 187.064)" opacity="0.1"/>
    <ellipse id="Ellipse_30" data-name="Ellipse 30" cx="16.884" cy="6.003" rx="16.884" ry="6.003" transform="translate(279.847 211.884)" opacity="0.1"/>
    <path id="Path_252" data-name="Path 252" d="M364.533,128.345a112.742,112.742,0,0,1-79.415,1.043c-36.665-13.237-84.548-16.625-102.291,44.034C152.544,277.056,214.5,314.047,214.5,314.047s43.253,9.7,67.2,27.213c34.02,24.883,75.682,33.2,114.928,21.533,25.1-7.463,46.608-19.706,52.757-39.738,17.2-56.025,6.281-89.7,37.408-104.471s13.807-69.495-8.329-70.737-74.29,11.451-90.424-13.8C382.288,125.088,373.489,124.882,364.533,128.345Z" transform="translate(-164.59 -121.43)" opacity="0"/>
    <path id="Path_253" data-name="Path 253" d="M931.714,622.965s4.5-15.323-.848-26.6a24.2,24.2,0,0,1-1.958-15.184,40.7,40.7,0,0,1,2.15-7.129" transform="translate(-635.666 -404.226)" fill="none" stroke="#535461" stroke-miterlimit="10" stroke-width="2"/>
    <path id="Path_254" data-name="Path 254" d="M926.5,549.4c0,1.876,3.4,7.324,3.4,7.324s3.4-5.444,3.4-7.324a3.4,3.4,0,0,0-6.8,0Z" transform="translate(-634.444 -386.697)" fill="#f86464"/>
    <path id="Path_255" data-name="Path 255" d="M910.626,574.051c1.021,1.576,6.836,4.3,6.836,4.3s-.105-6.42-1.126-8a3.4,3.4,0,0,0-5.707,3.7Z" transform="translate(-624.187 -400.948)" fill="#f86464"/>
    <path id="Path_256" data-name="Path 256" d="M909.067,619.443c1.677.844,8.071.263,8.071.263s-3.332-5.489-5.009-6.333a3.4,3.4,0,0,0-3.062,6.071Z" transform="translate(-622.384 -428.567)" fill="#f86464"/>
    <path id="Path_257" data-name="Path 257" d="M918.455,655.686c1.5,1.126,7.909,1.621,7.909,1.621s-2.356-5.973-3.865-7.088a3.4,3.4,0,0,0-4.045,5.467Z" transform="translate(-628.557 -451.4)" fill="#f86464"/>
    <path id="Path_258" data-name="Path 258" d="M936.074,585.5c-1.347,1.309-7.624,2.664-7.624,2.664s1.538-6.232,2.885-7.542a3.4,3.4,0,1,1,4.739,4.878Z" transform="translate(-635.663 -407.73)" fill="#f86464"/>
    <path id="Path_259" data-name="Path 259" d="M944.821,626.444c-1.677.844-8.071.263-8.071.263s3.332-5.489,5.009-6.315a3.4,3.4,0,0,1,3.062,6.071Z" transform="translate(-640.848 -432.953)" fill="#f86464"/>
    <path id="Path_260" data-name="Path 260" d="M948.719,668.926c-1.5,1.126-7.909,1.621-7.909,1.621s2.356-5.973,3.865-7.088a3.4,3.4,0,0,1,4.045,5.467Z" transform="translate(-643.385 -459.672)" fill="#f86464"/>
    <path id="Path_261" data-name="Path 261" d="M200.42,462.282s9.639-32.688-1.8-56.776a51.748,51.748,0,0,1-4.176-32.406,86.872,86.872,0,0,1,4.589-15.211" transform="translate(-176.446 -269.17)" fill="none" stroke="#535461" stroke-miterlimit="10" stroke-width="2"/>
    <path id="Path_262" data-name="Path 262" d="M189.324,305.256c0,4.007,7.256,15.631,7.256,15.631s7.253-11.631,7.253-15.631a7.256,7.256,0,0,0-14.513,0Z" transform="translate(-173.856 -231.751)" fill="#f86464"/>
    <path id="Path_263" data-name="Path 263" d="M155.574,358.093c2.18,3.377,14.588,9.177,14.588,9.177s-.225-13.7-2.405-17.064a7.256,7.256,0,0,0-12.183,7.879Z" transform="translate(-152.101 -262.386)" fill="#f86464"/>
    <path id="Path_264" data-name="Path 264" d="M152.1,454.771c3.579,1.8,17.226.559,17.226.559s-7.129-11.714-10.689-13.507a7.257,7.257,0,1,0-6.536,12.959Z" transform="translate(-148.11 -321.124)" fill="#f86464"/>
    <path id="Path_265" data-name="Path 265" d="M172.1,532.1c3.223,2.383,16.884,3.459,16.884,3.459s-5.028-12.757-8.254-15.128A7.257,7.257,0,0,0,172.1,532.1Z" transform="translate(-161.259 -369.836)" fill="#f86464"/>
    <path id="Path_266" data-name="Path 266" d="M209.759,382.236c-2.874,2.791-16.269,5.684-16.269,5.684s3.279-13.3,6.153-16.1a7.263,7.263,0,0,1,10.13,10.412Z" transform="translate(-176.461 -276.59)" fill="#f86464"/>
    <path id="Path_267" data-name="Path 267" d="M228.416,469.651c-3.579,1.8-17.226.559-17.226.559s7.129-11.714,10.69-13.507a7.257,7.257,0,0,1,6.536,12.959Z" transform="translate(-187.52 -330.421)" fill="#f86464"/>
    <path id="Path_268" data-name="Path 268" d="M236.734,560.37c-3.223,2.383-16.884,3.459-16.884,3.459s5.028-12.757,8.254-15.128a7.257,7.257,0,0,1,8.63,11.669Z" transform="translate(-192.931 -387.499)" fill="#f86464"/>
    <path id="Path_269" data-name="Path 269" d="M489.977,414.963l-20.91-2.709c-.848-.109-1.5-.431-1.478-.713h0c.038-.281.75-.413,1.617-.289l20.865,3.02c.574.083,1.009.3.983.492h0C491.028,414.944,490.548,415.038,489.977,414.963Z" transform="translate(-347.717 -302.481)" fill="#f86464"/>
    <path id="Path_270" data-name="Path 270" d="M490.015,418.519l-20.974-2.169c-.852-.086-1.576.071-1.6.353h0c-.026.281.653.578,1.5.653l21.011,1.876c.578.053,1.051-.06,1.069-.251h0C491.035,418.778,490.589,418.579,490.015,418.519Z" transform="translate(-347.623 -305.681)" fill="#f86464"/>
    <path id="Path_271" data-name="Path 271" d="M609.669,457.963l20.906-2.709c.848-.109,1.5-.432,1.478-.713h0c-.038-.281-.75-.413-1.617-.289l-20.865,3.02c-.574.083-1.009.3-.983.492h0C608.614,457.944,609.095,458.038,609.669,457.963Z" transform="translate(-435.813 -329.348)" fill="#f86464"/>
    <path id="Path_272" data-name="Path 272" d="M609.435,461.519l20.974-2.169c.852-.086,1.576.071,1.6.353h0c.026.281-.653.578-1.5.653L609.5,462.232c-.578.052-1.051-.06-1.069-.251h0C608.414,461.778,608.861,461.579,609.435,461.519Z" transform="translate(-435.714 -332.547)" fill="#f86464"/>
    <rect id="Rectangle_338" data-name="Rectangle 338" width="5.099" height="73.112" transform="translate(99.596 151.071)" fill="#40414d"/>
    <rect id="Rectangle_339" data-name="Rectangle 339" width="5.099" height="73.112" transform="translate(210.963 151.071)" fill="#40414d"/>
    <path id="Path_273" data-name="Path 273" d="M246.5,386.78H364.318a8.254,8.254,0,0,1,8.254,8.254v1.1H238.25v-1.1A8.254,8.254,0,0,1,246.5,386.78Z" transform="translate(-148.856 -241.659)" fill="#dfe6f5"/>
    <path id="Path_274" data-name="Path 274" d="M245.5,386.78H363.318a8.254,8.254,0,0,1,8.254,8.254v1.1H237.25v-1.1A8.254,8.254,0,0,1,245.5,386.78Z" transform="translate(-148.231 -241.659)" opacity="0.1"/>
    <path id="Path_275" data-name="Path 275" d="M246.5,382.24H364.318a8.254,8.254,0,0,1,8.254,8.254v1.1H238.25v-1.1A8.254,8.254,0,0,1,246.5,382.24Z" transform="translate(-148.856 -238.823)" fill="#dfe6f5"/>
    <circle id="Ellipse_31" data-name="Ellipse 31" cx="10.202" cy="10.202" r="10.202" transform="translate(146.354 117.063)" fill="#ffd77c" stroke="#ffab50" stroke-miterlimit="10" stroke-width="1"/>
    <circle id="Ellipse_32" data-name="Ellipse 32" cx="8.086" cy="8.086" r="8.086" transform="translate(148.47 119.179)" fill="#ffd77c" stroke="#ffab50" stroke-miterlimit="10" stroke-width="1"/>
    <circle id="Ellipse_33" data-name="Ellipse 33" cx="6.161" cy="6.161" r="6.161" transform="translate(150.395 121.104)" fill="#ffd77c" stroke="#ffab50" stroke-miterlimit="10" stroke-width="1"/>
    <circle id="Ellipse_34" data-name="Ellipse 34" cx="3.463" cy="3.463" r="3.463" transform="translate(153.092 123.802)" fill="#ffd77c" stroke="#ffab50" stroke-miterlimit="10" stroke-width="1"/>
    <circle id="Ellipse_35" data-name="Ellipse 35" cx="10.202" cy="10.202" r="10.202" transform="translate(140.403 122.59)" fill="#ffd77c" stroke="#ffab50" stroke-miterlimit="10" stroke-width="1"/>
    <circle id="Ellipse_36" data-name="Ellipse 36" cx="8.086" cy="8.086" r="8.086" transform="translate(142.519 124.706)" fill="#ffd77c" stroke="#ffab50" stroke-miterlimit="10" stroke-width="1"/>
    <circle id="Ellipse_37" data-name="Ellipse 37" cx="6.161" cy="6.161" r="6.161" transform="translate(144.444 126.631)" fill="#ffd77c" stroke="#ffab50" stroke-miterlimit="10" stroke-width="1"/>
    <circle id="Ellipse_38" data-name="Ellipse 38" cx="3.463" cy="3.463" r="3.463" transform="translate(147.142 129.328)" fill="#ffd77c" stroke="#ffab50" stroke-miterlimit="10" stroke-width="1"/>
    <circle id="Ellipse_39" data-name="Ellipse 39" cx="10.202" cy="10.202" r="10.202" transform="translate(152.304 122.59)" fill="#ffd77c" stroke="#ffab50" stroke-miterlimit="10" stroke-width="1"/>
    <circle id="Ellipse_40" data-name="Ellipse 40" cx="8.086" cy="8.086" r="8.086" transform="translate(154.42 124.706)" fill="#ffd77c" stroke="#ffab50" stroke-miterlimit="10" stroke-width="1"/>
    <circle id="Ellipse_41" data-name="Ellipse 41" cx="6.161" cy="6.161" r="6.161" transform="translate(156.345 126.631)" fill="#ffd77c" stroke="#ffab50" stroke-miterlimit="10" stroke-width="1"/>
    <circle id="Ellipse_42" data-name="Ellipse 42" cx="3.463" cy="3.463" r="3.463" transform="translate(159.043 129.328)" fill="#ffd77c" stroke="#ffab50" stroke-miterlimit="10" stroke-width="1"/>
    <path id="Path_276" data-name="Path 276" d="M360.6,346h42.507v2A15.008,15.008,0,0,1,388.1,363H375.608A15.008,15.008,0,0,1,360.6,348Z" transform="translate(-225.3 -216.18)" fill="#f86464"/>
    <path id="Path_277" data-name="Path 277" d="M569.431,467.42A17,17,0,0,1,552.438,484H544a17.037,17.037,0,0,0,3.752.428h8.5a17,17,0,0,0,17.012-17Z" transform="translate(-395.459 -337.604)" opacity="0.1"/>
    <rect id="Rectangle_340" data-name="Rectangle 340" width="5.099" height="110.519" transform="translate(213.515 206.755) rotate(90)" fill="#40414d"/>
    <rect id="Rectangle_341" data-name="Rectangle 341" width="4.461" height="40.589" transform="translate(57.097 188.948)" fill="#40414d"/>
    <rect id="Rectangle_342" data-name="Rectangle 342" width="4.461" height="40.589" transform="translate(92.332 188.948)" fill="#40414d"/>
    <path id="Path_278" data-name="Path 278" d="M348.016,599.018c0,2.709-9.185,4.908-20.516,4.908s-20.07-2.195-20.07-4.908,8.738-4.908,20.07-4.908S348.016,596.32,348.016,599.018Z" transform="translate(-247.651 -416.759)" fill="#f6c6cd"/>
    <path id="Path_279" data-name="Path 279" d="M142.66,485.75h46.833v4.09a3.94,3.94,0,0,1-3.94,3.94H149.414a6.754,6.754,0,0,1-6.754-6.754Z" transform="translate(-89.131 -303.496)" fill="#40414d"/>
    <path id="Path_280" data-name="Path 280" d="M2.634,0h.991A2.626,2.626,0,0,1,6.251,2.626V55.748H4.75A4.75,4.75,0,0,1,0,51V2.626A2.626,2.626,0,0,1,2.634,0Z" transform="translate(43.007 135.904) rotate(-12.72)" fill="#40414d"/>
    <rect id="Rectangle_343" data-name="Rectangle 343" width="4.461" height="40.589" transform="translate(256.761 230.258) rotate(180)" fill="#40414d"/>
    <rect id="Rectangle_344" data-name="Rectangle 344" width="4.461" height="40.589" transform="translate(221.525 230.258) rotate(180)" fill="#40414d"/>
    <path id="Path_281" data-name="Path 281" d="M717.13,600.919c0,2.709,9.185,4.908,20.516,4.908s20.07-2.195,20.07-4.908S748.973,596,737.646,596,717.13,598.21,717.13,600.919Z" transform="translate(-503.63 -417.94)" fill="#f6c6cd"/>
    <path id="Path_282" data-name="Path 282" d="M6.754,0H42.893a3.94,3.94,0,0,1,3.94,3.94v4.09H0V6.754A6.754,6.754,0,0,1,6.754,0Z" transform="translate(260.329 191.008) rotate(180)" fill="#40414d"/>
    <path id="Path_283" data-name="Path 283" d="M4.743,0h1.5V53.129a2.626,2.626,0,0,1-2.626,2.626H2.626A2.626,2.626,0,0,1,0,53.129V4.75A4.75,4.75,0,0,1,4.743,0Z" transform="translate(258.575 191.001) rotate(-167.28)" fill="#40414d"/>
    <path id="Path_284" data-name="Path 284" d="M710.577,404.665l1.317-.416a222.959,222.959,0,0,1-2.229-28.515V374.57c.026-.84.056-1.673.1-2.488.053-1.043.064-2.037.056-3,.124-12.978-4.99-18.46-4.99-18.46s-6-8.562-9.6-10.228c-.311-.975-.668-2.229-.983-3.684.116-.079.229-.158.338-.24a48.561,48.561,0,0,0,4.259-3.553c1.846-1.73,3.617-3.838,3.519-6.217a4.57,4.57,0,0,0-.023-.694c-.341-2.87-3.324-5.031-4.529-7.752-1.013-2.285-.709-4.829-1.595-7.148s-3.977-4.476-6.311-3.257a12.449,12.449,0,0,0-2.094,1.85c-1.778,1.5-4.645,1.64-7.076.957s-3.152-3.467-6.551-3.474a3.953,3.953,0,0,1,.859.409,5.41,5.41,0,0,0-.859-.075,3.752,3.752,0,0,1,2.6,3.155,2.571,2.571,0,0,1-.03.27c-1.358.732-3.144.315-4.773.289s-3.482.8-3.321,2.127a1.287,1.287,0,0,0,0,.458c.214,1.009,1.565,1.771,1.73,2.705v.075a28.051,28.051,0,0,1-9.624,2.806c-.109,0-.06.131.1.323h-.1c-.612.064,3.666,3.444,4.154,3.666a59.715,59.715,0,0,0,5.812,2.03l.165.053a11.833,11.833,0,0,0-.964,4.686,12.528,12.528,0,0,0,9.778,12.006c1.051,1.227,2.154,2.574,3.159,3.913h-.071a40.746,40.746,0,0,0-6,26.26c-4.157-.236-13.091-1.332-19.886-6.307-9.166-6.7-19.39-4.694-17.259-.672s13.046,7.373,14.805,7.71c.165.03.548.12,1.1.255-2.169.409-3.654,1.126-3.564,2.09.176,1.842,9.519,7.71,15.158,8.044a59.308,59.308,0,0,1,11.748,2.379c.341,7.71-1.523,10.022-1.523,10.022s.555.341,1.475.825l-.394,1.126a28.648,28.648,0,0,1-7.677,3.253,42.171,42.171,0,0,0-9.47,3.152l-12.693,6.135a7.35,7.35,0,0,0-4.2,5.774c-.278,2.6.507,5.849,4.754,8.427.263,2.112,1.553,4.577,4.941,6.836,6.566,4.367,23.822,17.451,26.17,19.237.045,3.193-.375,9.6-4.315,10.6-4.938,1.253-.964,6,3.028,5.816a5.232,5.232,0,0,0,2.968.218c4.232-1.006,19.743-6.378,20.8-14.415a7.68,7.68,0,0,0,.06-1.051,7.007,7.007,0,0,0-.983-3.906,7.034,7.034,0,0,1,.4,1.126c-1.283-2.927-4.409-4.765-6.84-5.8v-.083c-.375-.146-.75-.266-1.058-.375a3.139,3.139,0,0,0-.049-.649l-24.324-16.76s10.577-8.716,21.507-7.373,12.671-.642,12.671-.642,5.606-5.332,6.168-11.47l.353-.094S710.63,405.374,710.577,404.665Z" transform="translate(-455.04 -237.486)" fill="url(#linear-gradient)"/>
    <path id="Path_285" data-name="Path 285" d="M739.774,671.741s.994,10.945-3.981,12.273-.33,6.634,3.647,5.628,18.576-6.3,19.571-14.258-9.95-10.614-9.95-10.614Z" transform="translate(-513.942 -460.908)" fill="#b8616e"/>
    <path id="Path_286" data-name="Path 286" d="M739.774,671.741s.994,10.945-3.981,12.273-.33,6.634,3.647,5.628,18.576-6.3,19.571-14.258-9.95-10.614-9.95-10.614Z" transform="translate(-513.942 -460.908)" opacity="0.05"/>
    <path id="Path_287" data-name="Path 287" d="M745.1,672.621s.994,10.945-3.981,12.273-.33,6.634,3.647,5.628,18.576-6.3,19.57-14.258-9.95-10.614-9.95-10.614Z" transform="translate(-517.272 -461.458)" fill="#b8616e"/>
    <path id="Path_288" data-name="Path 288" d="M767.279,666.55,758,673.517s.041.473.068,1.227c3.5-.961,11.14-3.512,11.256-7.5A17.981,17.981,0,0,0,767.279,666.55Z" transform="translate(-529.166 -462.02)" opacity="0.1"/>
    <rect id="Rectangle_345" data-name="Rectangle 345" width="3.981" height="2.987" transform="translate(228.328 109.165)" fill="#f8bdc5"/>
    <path id="Path_289" data-name="Path 289" d="M696.535,541s-6.322,4.968-11.515,6.146a38.329,38.329,0,0,0-8.911,3.118l-11.943,6.071a7.256,7.256,0,0,0-3.955,5.714c-.341,3.377,1.017,7.819,9.121,10.461l25.54,21.229,7.962-6.634-27.2-20.891,20.9-12.937Z" transform="translate(-468.038 -383.577)" fill="#758ac8"/>
    <path id="Path_290" data-name="Path 290" d="M696.535,541s-6.322,4.968-11.515,6.146a38.329,38.329,0,0,0-8.911,3.118l-11.943,6.071a7.256,7.256,0,0,0-3.955,5.714c-.341,3.377,1.017,7.819,9.121,10.461l25.54,21.229,7.962-6.634-27.2-20.891,20.9-12.937Z" transform="translate(-468.038 -383.577)" opacity="0.1"/>
    <path id="Path_291" data-name="Path 291" d="M685.063,464.077s-12.273.33-20.9-6.3-18.242-4.645-16.254-.664,12.273,7.3,13.931,7.628,25.54,6.968,25.54,6.968Z" transform="translate(-460.217 -328.873)" fill="#f8bdc5"/>
    <path id="Path_292" data-name="Path 292" d="M685.063,464.077s-12.273.33-20.9-6.3-18.242-4.645-16.254-.664,12.273,7.3,13.931,7.628,25.54,6.968,25.54,6.968Z" transform="translate(-460.217 -328.873)" opacity="0.05"/>
    <path id="Path_293" data-name="Path 293" d="M701.65,533.06,697.669,545s-22.388,13.766-24.215,15.59c-1.418,1.418-3.317,6.967,3.317,11.609s24.876,19.24,24.876,19.24,13.931-3,12.937-8.63L691.7,566.228s9.95-8.63,20.235-7.3,11.943-.664,11.943-.664,7.962-7.969,5.305-15.586S701.65,533.06,701.65,533.06Z" transform="translate(-475.476 -378.616)" fill="#758ac8"/>
    <path id="Path_294" data-name="Path 294" d="M737.65,372.424s11.279,12.273,10.614,15.92,8.956-10.614,8.956-10.614A36.894,36.894,0,0,1,754.9,362.47Z" transform="translate(-516.451 -272.031)" fill="#f8bdc5"/>
    <path id="Path_295" data-name="Path 295" d="M749.525,406.665a32.969,32.969,0,0,1,2.428-2.315,33.654,33.654,0,0,0,4.649-4.641c2.322-3,10.945,9.95,10.945,9.95s5.305,5.969,4.645,20.235.829,33.337.829,33.337l-2.007.559a11.492,11.492,0,0,1-10.168-1.445c-2.649-1.831-6-3.752-8.555-3.925a23.121,23.121,0,0,1-9.455-3.152s2.157-5.14-1.159-21.728a38.734,38.734,0,0,1,5.136-28.377S747.48,408.773,749.525,406.665Z" transform="translate(-518.484 -295.016)" opacity="0.1"/>
    <path id="Path_296" data-name="Path 296" d="M774.2,460.065l-1.989.664-1.182.394a11.489,11.489,0,0,1-10.168-1.445c-2.645-1.827-6-3.752-8.555-3.925-4.968-.334-10.6-3.981-10.6-3.981s3.317-4.311,0-20.9a38.672,38.672,0,0,1,5.14-28.362s.668,3.591,2.713,1.478a32.574,32.574,0,0,1,2.424-2.311,33.656,33.656,0,0,0,4.649-4.641c2.323-3,10.945,9.95,10.945,9.95s5.305,5.969,4.645,20.235c-.071,1.5-.1,3.047-.105,4.611A227.523,227.523,0,0,0,774.2,460.065Z" transform="translate(-518.51 -293.348)" fill="#5e52ad"/>
    <path id="Path_297" data-name="Path 297" d="M743.372,475.812l.33,7.3s-17.582.994-21.229-2.653,9.943,10.727,12.944,11.609c2.818.829,10.093,1.561,13.909,1.636a5.628,5.628,0,0,0,5.253-3.185,5.308,5.308,0,0,0,.413-3.1c-.664-4.311,0-13.6,0-13.6Z" transform="translate(-506.583 -341.603)" opacity="0.1"/>
    <path id="Path_298" data-name="Path 298" d="M716.776,474.042l.33,7.3s-17.582.994-21.229-2.653-16.843-2.84-16.584,0c.165,1.823,8.956,7.628,14.258,7.962s12.269,2.765,15.271,3.647c2.818.829,10.093,1.561,13.909,1.636a5.628,5.628,0,0,0,5.253-3.185,5.309,5.309,0,0,0,.413-3.1c-.664-4.311,0-13.6,0-13.6Z" transform="translate(-479.988 -340.497)" fill="#f8bdc5"/>
    <path id="Path_299" data-name="Path 299" d="M778.615,420.768s-7.628.994-6.634,12.273,2.323,12.273,2.323,12.273,11.279-.994,12.6-1.328.664-12.6.664-12.6S787.237,420.438,778.615,420.768Z" transform="translate(-537.845 -308.451)" opacity="0.1"/>
    <path id="Path_300" data-name="Path 300" d="M778.615,419.887s-7.628.994-6.634,12.273,2.323,12.273,2.323,12.273,11.279-.994,12.6-1.328.664-12.6.664-12.6S787.237,419.55,778.615,419.887Z" transform="translate(-537.845 -307.901)" fill="#5e52ad"/>
    <path id="Path_301" data-name="Path 301" d="M754.93,370.119c-.522-2.626.548-3.437.829-6.8L738.5,373.27s1.977,2.154,4.225,4.919a12.3,12.3,0,0,0,3.073.375C750.319,378.583,752.792,373.728,754.93,370.119Z" transform="translate(-516.982 -272.562)" opacity="0.1"/>
    <circle id="Ellipse_43" data-name="Ellipse 43" cx="12.273" cy="12.273" r="12.273" transform="translate(216.22 81.137)" fill="#f8bdc5"/>
    <path id="Path_302" data-name="Path 302" d="M725.266,329.333c-1.876,1.193-1.9,3.891-.694,5.759s3.291,3.1,5.294,4.266a3.208,3.208,0,0,0,1.876.612,2.765,2.765,0,0,0,1.343-.679,46.308,46.308,0,0,0,4.007-3.516c1.824-1.793,3.576-4,3.291-6.506-.323-2.84-3.129-4.979-4.262-7.669-.953-2.251-.668-4.776-1.5-7.076s-3.752-4.427-5.936-3.223a11.966,11.966,0,0,0-1.97,1.831c-1.673,1.478-4.371,1.625-6.66.949s-2.968-3.433-6.161-3.441a3.58,3.58,0,0,1,2.416,3.722c-1.279.724-2.96.311-4.5.285s-3.377.837-3.11,2.225c.233,1.126,1.857,1.962,1.617,3.088a25.424,25.424,0,0,1-9.057,2.776c-.574.064,3.448,3.407,3.906,3.628a53.931,53.931,0,0,0,5.467,2.007A24.831,24.831,0,0,0,725.266,329.333Z" transform="translate(-493.678 -239.648)" opacity="0.1"/>
    <path id="Path_303" data-name="Path 303" d="M725.266,328.443c-1.876,1.193-1.9,3.891-.694,5.759s3.291,3.1,5.294,4.266a3.207,3.207,0,0,0,1.876.612,2.765,2.765,0,0,0,1.343-.679,46.322,46.322,0,0,0,4.007-3.516c1.824-1.793,3.576-4,3.291-6.506-.323-2.84-3.129-4.979-4.262-7.669-.953-2.251-.668-4.776-1.5-7.076s-3.752-4.427-5.936-3.223a11.964,11.964,0,0,0-1.97,1.831c-1.673,1.478-4.371,1.625-6.66.949s-2.968-3.433-6.161-3.441a3.58,3.58,0,0,1,2.416,3.722c-1.279.724-2.96.311-4.5.285s-3.377.837-3.11,2.225c.233,1.126,1.857,1.962,1.617,3.088a25.423,25.423,0,0,1-9.057,2.776c-.574.064,3.448,3.407,3.906,3.628a53.938,53.938,0,0,0,5.467,2.007A24.862,24.862,0,0,0,725.266,328.443Z" transform="translate(-493.678 -239.092)" fill="#916168"/>
    <path id="Path_304" data-name="Path 304" d="M763.7,680.89a7.319,7.319,0,0,1,.537,3.906c-.994,7.962-15.59,13.267-19.57,14.258a5.276,5.276,0,0,1-5.339-2.176,5.169,5.169,0,0,0,5.673,2.84c3.981-.994,18.576-6.3,19.57-14.258A7.283,7.283,0,0,0,763.7,680.89Z" transform="translate(-517.501 -470.98)" fill="#fff" opacity="0.1"/>
    <path id="Path_305" data-name="Path 305" d="M345.879,459.638h0c-.3-.668-1.835-1.97-9.252-2.251-5.08-.191-6.81-2.874-7.279-5.493a7.613,7.613,0,0,0,3.4-.934s-.023-.12-.06-.334l.06-.045a35.158,35.158,0,0,1-.507-5.718,22,22,0,0,1,.518-4.878,14.386,14.386,0,0,0,.259-3.215c.041-6.378-2.2-17.589-2.2-17.589l-.308-9.316a6.472,6.472,0,0,0-3.523-5.59,5.3,5.3,0,0,0-2.383-.593s-11.759-1.853-22.343-2.863c-.75-.6-3.4-2.232-9.459-1.3l-3.489-10.213a2.9,2.9,0,0,1-.06-.375c.124-1.3.991-3.253,5.031-3.377l.844.75s.15-.3.4-.75c5.013-.056,32.32-.334,33.727,0,1.55.375,15.124-2.649,15.515-3.024,5.275-5.144-15.515-2.649-15.515-2.649-2.045.334-8.652-.064-15.421-.615,3.351-5.024,6.5-22.077,6.5-22.077s12.006-6.052,8.532-9.455-13.961,7.564-13.961,7.564-4.266,12.483-6.206,16.265c-.75,1.5-1.722,1.808-2.589,1.636.394-.315.649-.5.649-.5s-8.532-6.81-9.309-9.455a6.317,6.317,0,0,0-.57-1.242c-.409-2.4-1.126-4.758-2.874-6.33a6.5,6.5,0,0,0-.968-.852c-.473-.338-1.009-.63-1.456-1h0c.251-1.156.544-2.356.848-3.519a12.605,12.605,0,0,0,11.256-12.382,12.212,12.212,0,0,0-.341-2.855,5.5,5.5,0,0,0,4.878-2.349,6.452,6.452,0,0,0,.165-6.513,8.064,8.064,0,0,0-1.718-2.169,10.165,10.165,0,0,0-3.94-2.461,11.089,11.089,0,0,1-3.73-1.587,16.535,16.535,0,0,1-1.242-1.876,9.6,9.6,0,0,0-1.5-1.748,13.722,13.722,0,0,0-7.223-3.647,38.623,38.623,0,0,0-10.025-.184c-1.249.086-2.716.308-3.279,1.4-.424.818-.146,1.8-.2,2.709-.176,2.9-3.493,4.5-6.378,5.2s-6.326,1.309-7.718,3.853c-1.264,2.3-.375,5.08.03,7.658a18.734,18.734,0,0,1-2.825,12.978c-1.268,1.94-2.9,3.666-3.906,5.748a10.959,10.959,0,0,0-.728,7.451,5.25,5.25,0,0,1,.323,2.214,3.861,3.861,0,0,1-.878,1.647,19.886,19.886,0,0,1-14.145,7.328,4.052,4.052,0,0,0,1.291,1.947,9.324,9.324,0,0,0,2.679,1.85,40.454,40.454,0,0,0,8.217,3.058,14.317,14.317,0,0,0,5.861.5A6.141,6.141,0,0,0,262,374.861c.465-1.021.533-2.176.945-3.215.822-2.079,2.859-3.426,4.236-5.208a130.213,130.213,0,0,0-.657,13.822v3.955c0,5.212-.375,8.806-3.606,15.316a3.887,3.887,0,0,0-.484,2.251,2.469,2.469,0,0,0,.844,2.293,22.225,22.225,0,0,0-.326,3.932c-.045,4.743,1.557,11.11,10.052,12.723l15.124-.75s21.33-4.161,27.146-1.126a2.146,2.146,0,0,1,1.7,2.094,4.815,4.815,0,0,1-.146.934,14.687,14.687,0,0,0-.184,2.975c-.026,6.378,1.347,20.854,1.347,20.854v6.138c-.968,1.456-2.161,3.609-2.007,5.2v.105a.325.325,0,0,0,.023.139c.022.045,0,.083.026.124a.362.362,0,0,1,.034.12.932.932,0,0,0,.049.131c.019.041.026.068.041.1s.049.1.075.143l.045.079a1.817,1.817,0,0,0,.15.206c1.94,2.251,11.631,6.607,14.738,6.431,3.3-.188,14.348.375,14.738-4.54A.6.6,0,0,0,345.879,459.638Z" transform="translate(-205.089 -240.682)" fill="url(#linear-gradient-2)"/>
    <path id="Path_306" data-name="Path 306" d="M444.725,674.057s-4.5,5.628-2.626,7.879,11.256,6.555,14.258,6.378c3.189-.187,13.883.375,14.258-4.5,0,0,.75-2.251-9-2.626s-6.754-10.506-6.754-10.506Z" transform="translate(-331.505 -464.6)" fill="#594c76"/>
    <path id="Path_307" data-name="Path 307" d="M305.66,550.379s-4.5,15.383,9,18.01l14.633-.75s20.636-4.127,26.264-1.126c0,0,2.251.375,1.5,3.377s1.126,23.263,1.126,23.263v6.754s12.757,0,14.258-1.5c0,0-1.126-6,0-10.881s-1.876-20.261-1.876-20.261l-.3-9.26a6.438,6.438,0,0,0-3.4-5.553,5.027,5.027,0,0,0-2.3-.585s-25.514-4.127-34.519-3.377S305.66,550.379,305.66,550.379Z" transform="translate(-246.095 -388.198)" opacity="0.1"/>
    <path id="Path_308" data-name="Path 308" d="M305.66,549.379s-4.5,15.383,9,18.01l14.633-.75s20.636-4.127,26.264-1.126c0,0,2.251.375,1.5,3.377s1.126,23.263,1.126,23.263v6.754s12.757,0,14.258-1.5c0,0-1.126-6,0-10.881s-1.876-20.261-1.876-20.261l-.3-9.26a6.438,6.438,0,0,0-3.4-5.553,5.026,5.026,0,0,0-2.3-.585s-25.514-4.127-34.519-3.377S305.66,549.379,305.66,549.379Z" transform="translate(-246.095 -387.573)" fill="#8b9cd1"/>
    <path id="Path_309" data-name="Path 309" d="M404.862,431.235s3,3.752,4.878,0,6-16.134,6-16.134,10.13-10.881,13.507-7.5-8.254,9.38-8.254,9.38-4.127,22.887-7.879,23.262a71.214,71.214,0,0,1-9.38,0l-1.876-4.127Z" transform="translate(-306.65 -299.821)" fill="#f8bdc5"/>
    <path id="Path_310" data-name="Path 310" d="M404.862,431.235s3,3.752,4.878,0,6-16.134,6-16.134,10.13-10.881,13.507-7.5-8.254,9.38-8.254,9.38-4.127,22.887-7.879,23.262a71.214,71.214,0,0,1-9.38,0l-1.876-4.127Z" transform="translate(-306.65 -299.821)" opacity="0.05"/>
    <path id="Path_311" data-name="Path 311" d="M362.614,421.68s6.754,7.879,7.5,10.506,9,9.38,9,9.38-6,4.5-4.878,6.754-7.879-7.5-7.879-7.5L355.86,425.432Z" transform="translate(-277.909 -309.026)" fill="#eb6475"/>
    <path id="Path_312" data-name="Path 312" d="M362.614,421.68s6.754,7.879,7.5,10.506,9,9.38,9,9.38-6,4.5-4.878,6.754-7.879-7.5-7.879-7.5L355.86,425.432Z" transform="translate(-277.909 -309.026)" opacity="0.1"/>
    <path id="Path_313" data-name="Path 313" d="M357.107,392.134s-3.377,10.881-3.377,15.008-14.258-1.126-13.882-3.377,8.254-10.506,8.63-13.882S357.107,392.134,357.107,392.134Z" transform="translate(-267.901 -288.485)" fill="#f8bdc5"/>
    <path id="Path_314" data-name="Path 314" d="M323.165,417.3s-13.132-3.377-15.008,15.758,1.5,21.387-4.127,33.018,38.271,1.5,38.271,1.5-2.251-2.626-9.38-1.5l-3.377-10.13s-1.126-4.5,5.253-4.5,3.377-13.132,3.377-13.132-3.377-11.256-5.253-12.382S327.668,418.048,323.165,417.3Z" transform="translate(-245.215 -306.144)" opacity="0.1"/>
    <path id="Path_315" data-name="Path 315" d="M323.165,415.3s-13.132-3.377-15.008,15.758,1.5,21.386-4.127,33.018,38.271,1.5,38.271,1.5-2.251-2.626-9.38-1.5l-3.377-10.13s-1.126-4.5,5.253-4.5,3.377-13.132,3.377-13.132-3.377-11.256-5.253-12.382S327.668,416.048,323.165,415.3Z" transform="translate(-245.215 -304.894)" fill="#eb6475"/>
    <path id="Path_316" data-name="Path 316" d="M387.736,487.68s27.39,3,31.892,2.251c0,0,20.111-2.476,15.008,2.626-.375.375-13.507,3.377-15.008,3s-33.393,0-33.393,0l-.375-3.752Z" transform="translate(-296.653 -350.262)" fill="#f8bdc5"/>
    <path id="Path_317" data-name="Path 317" d="M333.007,438.513l19.886,18.01s3.752-7.5,4.878-7.5-13.507-22.137-13.507-22.137-3.752-4.5-6-2.251S329.255,425.381,333.007,438.513Z" transform="translate(-262.936 -310.475)" opacity="0.1"/>
    <path id="Path_318" data-name="Path 318" d="M332.007,436.513l19.886,18.01s3.752-7.5,4.878-7.5-13.507-22.137-13.507-22.137-3.752-4.5-6-2.251S328.255,423.381,332.007,436.513Z" transform="translate(-262.311 -309.225)" fill="#eb6475"/>
    <circle id="Ellipse_44" data-name="Ellipse 44" cx="12.382" cy="12.382" r="12.382" transform="translate(73.448 85.64)" fill="#f8bdc5"/>
    <path id="Path_319" data-name="Path 319" d="M305.286,337.887a5.117,5.117,0,0,0,5.913-2.052,6.525,6.525,0,0,0,.158-6.461,9.149,9.149,0,0,0-5.1-4.217c-1.291-.458-2.728-.72-3.718-1.666a10.96,10.96,0,0,1-1.467-2.131,12.273,12.273,0,0,0-8.056-4.979,36.631,36.631,0,0,0-9.7-.184c-1.208.086-2.626.3-3.174,1.384-.409.81-.143,1.782-.2,2.686-.169,2.878-3.377,4.472-6.18,5.163s-6.052,1.34-7.418,3.876c-1.223,2.277-.349,5.039.03,7.6a18.962,18.962,0,0,1-2.732,12.843c-1.227,1.925-2.806,3.636-3.778,5.7a11.121,11.121,0,0,0-.705,7.391,5.346,5.346,0,0,1,.315,2.195,3.86,3.86,0,0,1-.848,1.632,19.09,19.09,0,0,1-13.684,7.286c.428,1.61,1.985,2.626,3.467,3.377a38.531,38.531,0,0,0,7.947,3.032,13.535,13.535,0,0,0,5.669.5,5.978,5.978,0,0,0,4.5-3.182c.45-1.013.518-2.157.915-3.193.9-2.323,3.287-3.726,4.57-5.861,1.227-2.041,1.7-2.281,2.015-4.637s1-4.9,2.934-6.285c2.026-1.452,4.878-1.174,7.129-.06s3.643.679,5.523,2.315a45.774,45.774,0,0,0,10.96,7.061c-.375-3.272-.979-6.922-3.636-8.87-.75-.559-1.7-.987-2.1-1.842-.634-1.362.45-3.024-.041-4.446s-2.36-1.947-3.189-3.238a3.626,3.626,0,0,1,.146-3.711,10,10,0,0,1,2.743-2.746q1.384-1.047,2.807-2.045a10.027,10.027,0,0,0,2.281-1.989c.375-.514.623-1.64,1.144-2C302.052,335.219,304.071,337.41,305.286,337.887Z" transform="translate(-208.613 -242.976)" opacity="0.1"/>
    <path id="Path_320" data-name="Path 320" d="M304.286,336.887a5.117,5.117,0,0,0,5.913-2.052,6.525,6.525,0,0,0,.158-6.461,9.149,9.149,0,0,0-5.1-4.217c-1.291-.458-2.728-.72-3.718-1.666a10.962,10.962,0,0,1-1.467-2.131,12.272,12.272,0,0,0-8.056-4.979,36.631,36.631,0,0,0-9.7-.184c-1.208.086-2.626.3-3.174,1.385-.409.81-.143,1.782-.2,2.686-.169,2.878-3.377,4.472-6.18,5.163s-6.052,1.339-7.418,3.876c-1.223,2.277-.349,5.039.03,7.6a18.963,18.963,0,0,1-2.731,12.843c-1.227,1.925-2.807,3.636-3.778,5.7a11.121,11.121,0,0,0-.705,7.391,5.347,5.347,0,0,1,.315,2.195,3.861,3.861,0,0,1-.848,1.632,19.09,19.09,0,0,1-13.684,7.286c.428,1.61,1.985,2.626,3.467,3.377a38.526,38.526,0,0,0,7.947,3.032,13.535,13.535,0,0,0,5.669.5,5.978,5.978,0,0,0,4.5-3.182c.45-1.013.518-2.157.915-3.193.9-2.323,3.287-3.726,4.57-5.861,1.227-2.041,1.7-2.281,2.015-4.638s1-4.9,2.934-6.285c2.026-1.452,4.878-1.174,7.129-.06s3.643.679,5.523,2.315a45.776,45.776,0,0,0,10.96,7.061c-.375-3.272-.979-6.922-3.636-8.87-.75-.559-1.7-.987-2.1-1.842-.634-1.362.45-3.024-.041-4.446s-2.36-1.947-3.189-3.238a3.626,3.626,0,0,1,.146-3.711,10,10,0,0,1,2.743-2.746q1.385-1.047,2.807-2.045a10.025,10.025,0,0,0,2.281-1.989c.375-.514.623-1.64,1.144-2C301.052,334.219,303.071,336.41,304.286,336.887Z" transform="translate(-207.988 -242.351)" fill="#916168"/>
    <g id="Group_532" data-name="Group 532" transform="translate(110.123 206.08)" opacity="0.1">
      <path id="Path_321" data-name="Path 321" d="M475.711,673.637a12.969,12.969,0,0,1,.428-2.957l-.188.064a13.065,13.065,0,0,0-.24,2.893Z" transform="translate(-462.912 -670.68)" fill="#fff"/>
      <path id="Path_322" data-name="Path 322" d="M456.335,703.284c-3,.176-12.382-4.127-14.258-6.378a2,2,0,0,1-.435-1.066,2.356,2.356,0,0,0,.435,1.816c1.876,2.251,11.256,6.555,14.258,6.378,3.189-.188,13.882.375,14.258-4.5a.608.608,0,0,0-.053-.4C469.681,703.629,459.445,703.1,456.335,703.284Z" transform="translate(-441.607 -686.4)" fill="#fff"/>
    </g>
    <rect id="Rectangle_346" data-name="Rectangle 346" width="0.375" height="15.383" transform="translate(139.671 110.966)" fill="#ffd77c" stroke="#ffab50" stroke-miterlimit="10" stroke-width="0.25"/>
    <rect id="Rectangle_347" data-name="Rectangle 347" width="0.375" height="15.383" transform="translate(140.046 110.966)" fill="#ffd77c" stroke="#ffab50" stroke-miterlimit="10" stroke-width="0.25"/>
    <rect id="Rectangle_348" data-name="Rectangle 348" width="0.375" height="15.383" transform="translate(140.422 110.966)" fill="#ffd77c" stroke="#ffab50" stroke-miterlimit="10" stroke-width="0.25"/>
    <rect id="Rectangle_349" data-name="Rectangle 349" width="0.375" height="15.383" transform="translate(140.797 110.966)" fill="#ffd77c" stroke="#ffab50" stroke-miterlimit="10" stroke-width="0.25"/>
    <rect id="Rectangle_350" data-name="Rectangle 350" width="0.375" height="15.383" transform="translate(141.172 110.966)" fill="#ffd77c" stroke="#ffab50" stroke-miterlimit="10" stroke-width="0.25"/>
    <rect id="Rectangle_351" data-name="Rectangle 351" width="0.375" height="15.383" transform="translate(141.547 110.966)" fill="#ffd77c" stroke="#ffab50" stroke-miterlimit="10" stroke-width="0.25"/>
    <rect id="Rectangle_352" data-name="Rectangle 352" width="0.375" height="15.383" transform="translate(141.922 110.966)" fill="#ffd77c" stroke="#ffab50" stroke-miterlimit="10" stroke-width="0.25"/>
  </g>
</svg>
