<svg xmlns="http://www.w3.org/2000/svg" xmlns:xlink="http://www.w3.org/1999/xlink" width="344" height="248.907" viewBox="0 0 344 248.907">
  <defs>
    <linearGradient id="linear-gradient" x1="0.5" y1="1" x2="0.5" gradientUnits="objectBoundingBox">
      <stop offset="0" stop-color="gray" stop-opacity="0.251"/>
      <stop offset="0.54" stop-color="gray" stop-opacity="0.122"/>
      <stop offset="1" stop-color="gray" stop-opacity="0.102"/>
    </linearGradient>
    <linearGradient id="linear-gradient-2" x1="0.799" y1="1" x2="0.799" y2="0" xlink:href="#linear-gradient"/>
  </defs>
  <g id="Illustration" transform="translate(0 0)">
    <path id="Path_369" data-name="Path 369" d="M431.262,230.047c-10.877,17.788-8.953,41.95-4.293,61,1.56,6.379,3.362,13.106,1.974,20.254-1.7,8.74-7.776,15.629-13.916,19.572-11.2,7.193-23.941,7.046-33.172-.38-7.99-6.417-13.221-17.645-21.37-23.715-13.655-10.159-32.461-3.885-48.82,5.741-11.575,6.807-24.314,15.422-34.958,10.621-7.489-3.378-12.121-12.979-14.267-23.441-1.033-5.049-1.646-10.567-4.048-14.411a15.824,15.824,0,0,0-5.445-5.055c-18.662-11.377-44.017-1.691-62-14.586-12.149-8.711-19-26.774-21.195-46.112s-.252-40.055,2.166-60.453c1.729-14.494,4.051-30.014,11.591-41.832,7.974-12.5,20.49-18.12,31.341-17s20.248,8.082,28.337,16.586c10.111,10.628,19.208,24.219,32.336,27.6,8.931,2.306,18.729-.45,28.244-2.025,15.907-2.635,31.577-1.965,47.13-1.069,14.892.858,29.877,1.949,43.736,7.218,9.808,3.729,17.313,11.546,26.458,16.612,5.961,3.3,12.7,3.694,18.251,8.108a27.926,27.926,0,0,1,9.926,28.263C446.6,213.685,437.032,220.609,431.262,230.047Z" transform="translate(-134.331 -87.261)" fill="#f86464" opacity="0.1"/>
    <path id="Path_370" data-name="Path 370" d="M317.619,183.621S270.687,173.127,330.4,111.73c0,0,25.74,24.4,16.3,54.724a24.932,24.932,0,0,1-28.388,17.31Z" transform="translate(-223.749 -95.173)" fill="#f86464"/>
    <path id="Path_371" data-name="Path 371" d="M317.934,183.621c-1.03-.23-45.93-11.53,12.784-71.891,0,0,25.74,24.4,16.3,54.724a24.932,24.932,0,0,1-28.388,17.31Z" transform="translate(-224.064 -95.173)" fill="#fff" opacity="0.4"/>
    <path id="Path_372" data-name="Path 372" d="M357,183.978s24.79-37.344,12.168-72.238" transform="translate(-262.508 -95.18)" fill="none" stroke="#535461" stroke-miterlimit="10" stroke-width="1"/>
    <path id="Path_373" data-name="Path 373" d="M954.77,231.74s-8.089-32.569,4.169-55.758a50.833,50.833,0,0,0,5.473-31.692,85.506,85.506,0,0,0-3.872-15.151" transform="translate(-667.829 -107.03)" fill="none" stroke="#535461" stroke-miterlimit="10" stroke-width="2"/>
    <path id="Path_374" data-name="Path 374" d="M971.917,67.271c-.169,3.942-7.8,15.065-7.8,15.065s-6.647-11.735-6.478-15.677a7.144,7.144,0,1,1,14.275.612Z" transform="translate(-671.567 -59.82)" fill="#f86464"/>
    <path id="Path_375" data-name="Path 375" d="M1005,129.124c-2.284,3.218-14.733,8.411-14.733,8.411s.8-13.463,3.081-16.682a7.144,7.144,0,1,1,11.65,8.272Z" transform="translate(-693.789 -99.336)" fill="#f86464"/>
    <path id="Path_376" data-name="Path 376" d="M993.612,240.952c-3.595,1.624-16.962-.175-16.962-.175s7.486-11.218,11.081-12.845a7.144,7.144,0,1,1,5.882,13.021Z" transform="translate(-684.513 -173.878)" fill="#f86464"/>
    <path id="Path_377" data-name="Path 377" d="M969.139,329.534c-3.269,2.207-16.749,2.692-16.749,2.692s5.483-12.321,8.752-14.532a7.144,7.144,0,1,1,8,11.841Z" transform="translate(-667.991 -234.608)" fill="#f86464"/>
    <path id="Path_378" data-name="Path 378" d="M939.022,154.271c2.708,2.871,15.76,6.277,15.76,6.277s-2.667-13.221-5.375-16.088a7.144,7.144,0,1,0-10.386,9.812Z" transform="translate(-657.558 -115.938)" fill="#f86464"/>
    <path id="Path_379" data-name="Path 379" d="M907.835,254.06c3.445,1.914,16.9,1.276,16.9,1.276s-6.484-11.821-9.933-13.744a7.145,7.145,0,0,0-6.972,12.468Z" transform="translate(-635.257 -183.05)" fill="#f86464"/>
    <path id="Path_380" data-name="Path 380" d="M896.25,358.661c3.068,2.478,16.455,4.115,16.455,4.115s-4.408-12.758-7.476-15.227a7.144,7.144,0,1,0-8.98,11.114Z" transform="translate(-627.949 -254.693)" fill="#f86464"/>
    <path id="Path_381" data-name="Path 381" d="M971.917,67.271c-.169,3.942-7.8,15.065-7.8,15.065s-6.647-11.735-6.478-15.677a7.144,7.144,0,1,1,14.275.612Z" transform="translate(-671.567 -59.82)" fill="#fc6681"/>
    <path id="Path_382" data-name="Path 382" d="M1005,129.124c-2.284,3.218-14.733,8.411-14.733,8.411s.8-13.463,3.081-16.682a7.144,7.144,0,1,1,11.65,8.272Z" transform="translate(-693.789 -99.336)" fill="#fc6681"/>
    <path id="Path_383" data-name="Path 383" d="M993.612,240.952c-3.595,1.624-16.962-.175-16.962-.175s7.486-11.218,11.081-12.845a7.144,7.144,0,1,1,5.882,13.021Z" transform="translate(-684.513 -173.878)" fill="#fc6681"/>
    <path id="Path_384" data-name="Path 384" d="M969.139,329.534c-3.269,2.207-16.749,2.692-16.749,2.692s5.483-12.321,8.752-14.532a7.144,7.144,0,1,1,8,11.841Z" transform="translate(-667.991 -234.608)" fill="#fc6681"/>
    <path id="Path_385" data-name="Path 385" d="M939.022,154.271c2.708,2.871,15.76,6.277,15.76,6.277s-2.667-13.221-5.375-16.088a7.144,7.144,0,1,0-10.386,9.812Z" transform="translate(-657.558 -115.938)" fill="#fc6681"/>
    <path id="Path_386" data-name="Path 386" d="M907.835,254.06c3.445,1.914,16.9,1.276,16.9,1.276s-6.484-11.821-9.933-13.744a7.145,7.145,0,0,0-6.972,12.468Z" transform="translate(-635.257 -183.05)" fill="#fc6681"/>
    <path id="Path_387" data-name="Path 387" d="M896.25,358.661c3.068,2.478,16.455,4.115,16.455,4.115s-4.408-12.758-7.476-15.227a7.144,7.144,0,1,0-8.98,11.114Z" transform="translate(-627.949 -254.693)" fill="#fc6681"/>
    <path id="Path_388" data-name="Path 388" d="M867.52,236.564s33.925-28.429,41.465-42.766a203.935,203.935,0,0,1,17.151-26.688" transform="translate(-610.191 -132.889)" fill="none" stroke="#535461" stroke-miterlimit="10" stroke-width="2"/>
    <path id="Path_389" data-name="Path 389" d="M1006.012,260.5,991.34,257.19S994.8,272.672,1006.012,260.5Z" transform="translate(-694.518 -194.237)" fill="#f86464"/>
    <path id="Path_390" data-name="Path 390" d="M962.268,218l8.446,12.65S954.211,231.849,962.268,218Z" transform="translate(-673.209 -167.547)" fill="#f86464"/>
    <path id="Path_391" data-name="Path 391" d="M1026.8,225.264l-13.416-2.354S1021.81,235.729,1026.8,225.264Z" transform="translate(-709.528 -170.891)" fill="#f86464"/>
    <path id="Path_392" data-name="Path 392" d="M990.5,194.86l6.622,8.657S985.4,204.62,990.5,194.86Z" transform="translate(-693.067 -151.788)" fill="#f86464"/>
    <path id="Path_393" data-name="Path 393" d="M1035.14,189.45s11.435.545,12.758,1.636-1.7,7.489-6.06,6.446S1035.14,189.45,1035.14,189.45Z" transform="translate(-724.347 -148.103)" fill="#f86464"/>
    <path id="Path_394" data-name="Path 394" d="M1011.737,157.44s4.666,8.5,4.491,10.121-7.11,3.435-8.513-2.7S1011.737,157.44,1011.737,157.44Z" transform="translate(-705.512 -126.303)" fill="#f86464"/>
    <circle id="Ellipse_57" data-name="Ellipse 57" cx="3.19" cy="3.19" r="3.19" transform="translate(314.483 37.765) rotate(-72.43)" fill="#ffd037"/>
    <circle id="Ellipse_58" data-name="Ellipse 58" cx="3.19" cy="3.19" r="3.19" transform="translate(309.491 34.512) rotate(-72.43)" fill="#ffd037"/>
    <path id="Path_395" data-name="Path 395" d="M277.21,191.851s13.715-10.207-3.509-45.93c0,0-22.965-28.388,0-55.18,0,0-50.077,1.276-49.12,47.844s25.038,53.267,25.038,53.267Z" transform="translate(-172.316 -80.878)" fill="#f86464"/>
    <path id="Path_396" data-name="Path 396" d="M311.945,191.83s-3.454-24.56-12.7-39.551a32.155,32.155,0,0,1-3.888-9.8,40.143,40.143,0,0,1,11.3-37.548L321.249,90.71" transform="translate(-219.861 -80.858)" fill="none" stroke="#535461" stroke-miterlimit="10" stroke-width="2"/>
    <path id="Path_397" data-name="Path 397" d="M460.653,150.69s3.151,4.121-1.454,10.341-8.4,11.483-6.867,15.348c0,0,6.947-11.553,12.6-11.715S466.872,157.637,460.653,150.69Z" transform="translate(-327.196 -121.706)" fill="#f86464"/>
    <path id="Path_398" data-name="Path 398" d="M461.024,150.69a5.1,5.1,0,0,1,.638,1.292c5.518,6.481,8.456,12.532,3.155,12.685-4.941.14-10.867,8.976-12.286,11.205a4.787,4.787,0,0,0,.169.507s6.947-11.553,12.6-11.715S467.244,157.637,461.024,150.69Z" transform="translate(-327.567 -121.706)" opacity="0.1"/>
    <path id="Path_399" data-name="Path 399" d="M495.967,165.169c0,1.451-.163,2.625-.364,2.625s-.364-1.177-.364-2.625.2-.769.405-.769S495.967,163.721,495.967,165.169Z" transform="translate(-356.654 -130.935)" fill="#ffd037"/>
    <path id="Path_400" data-name="Path 400" d="M498.514,170.459c-1.276.7-2.383,1.113-2.478.938s.858-.88,2.131-1.576.772-.188.868,0S499.787,169.764,498.514,170.459Z" transform="translate(-357.192 -134.494)" fill="#ffd037"/>
    <path id="Path_401" data-name="Path 401" d="M411.9,150.69s-3.151,4.121,1.454,10.341,8.4,11.483,6.867,15.348c0,0-6.947-11.553-12.6-11.715S405.676,157.637,411.9,150.69Z" transform="translate(-295.083 -121.706)" fill="#f86464"/>
    <path id="Path_402" data-name="Path 402" d="M411.893,150.69a5.1,5.1,0,0,0-.638,1.292c-5.518,6.481-8.456,12.532-3.155,12.685,4.941.14,10.867,8.976,12.286,11.205a4.78,4.78,0,0,1-.169.507s-6.957-11.556-12.612-11.712S405.666,157.637,411.893,150.69Z" transform="translate(-295.073 -121.706)" opacity="0.1"/>
    <path id="Path_403" data-name="Path 403" d="M408.62,165.169c0,1.451.163,2.625.364,2.625s.364-1.177.364-2.625-.2-.769-.405-.769S408.62,163.721,408.62,165.169Z" transform="translate(-297.663 -130.935)" fill="#ffd037"/>
    <path id="Path_404" data-name="Path 404" d="M400.667,170.459c1.276.7,2.383,1.113,2.478.938s-.858-.88-2.131-1.576-.772-.188-.868,0S399.394,169.764,400.667,170.459Z" transform="translate(-291.719 -134.494)" fill="#ffd037"/>
    <path id="Path_405" data-name="Path 405" d="M404.75,359.367,376.806,236.414H366.424c-.415-4.7-.692-9.25-.8-13.537,0,0-37.638,8.236-67.652-15.591s-65.3,2.06-65.3,2.06l-.137-.1v.013c-2.45-1.735-36.253-24.9-65.154-1.955C137.38,231.132,99.73,222.9,99.73,222.9c-.105,4.341-.386,8.931-.81,13.674H89.287L60.75,359.811s116.006,4.344,156.658.338c1.458,3.081,7.741,5.4,15.269,5.4,8.459,0,15.339-2.925,15.578-6.571C279.9,361.383,347.991,365.233,404.75,359.367Z" transform="translate(-60.75 -153.385)" fill="url(#linear-gradient)"/>
    <path id="Path_406" data-name="Path 406" d="M99.938,323.22,72,443.9s153.794,5.76,166.179-2.3c0,0,95.475,9.649,170.644,1.872L381.463,323.08Z" transform="translate(-68.412 -239.11)" fill="#e2e2ec"/>
    <path id="Path_407" data-name="Path 407" d="M133.776,336.3,107.73,448.811s143.386,5.371,154.932-2.147c0,0,89.013,8.995,159.095,1.745L396.24,336.17Z" transform="translate(-92.745 -248.025)" opacity="0.1"/>
    <path id="Path_408" data-name="Path 408" d="M402.807,227.871s-36.866,8.063-66.242-15.266-63.939,2.016-63.939,2.016-34.56-25.345-63.936-2.016-66.242,15.265-66.242,15.265c-1.161,46.945-23.039,122.979-23.039,122.979s40.32,10.944,93.6-11.231S272.63,347.4,272.63,347.4s6.335-29.954,59.617-7.776,93.6,11.231,93.6,11.231S403.959,274.815,402.807,227.871Z" transform="translate(-100.7 -157.151)" fill="#f1f2fb"/>
    <path id="Path_409" data-name="Path 409" d="M376.75,648.416s48.674-10.944,71.128,5.183c0,0,21.6-19.584,71.712-4.319" transform="translate(-275.958 -457.301)" opacity="0.1"/>
    <ellipse id="Ellipse_59" data-name="Ellipse 59" cx="15.265" cy="6.625" rx="15.265" ry="6.625" transform="translate(156.661 197.153)" fill="#e8eaf8"/>
    <path id="Path_410" data-name="Path 410" d="M599.32,239.55s10.944,55.585.287,133.922" transform="translate(-427.537 -182.223)" opacity="0.1"/>
    <path id="Path_411" data-name="Path 411" d="M224.7,311.823s22.924,5.327,42.766,0,56.274-22.751,68.258,0" transform="translate(-172.406 -223.678)" fill="none" stroke="#000" stroke-miterlimit="10" stroke-width="4" opacity="0.1"/>
    <path id="Path_412" data-name="Path 412" d="M224.7,358.568s22.924,5.327,42.766,0,62.807-5.04,68.258,0" transform="translate(-172.406 -260.631)" fill="none" stroke="#000" stroke-miterlimit="10" stroke-width="4" opacity="0.1"/>
    <path id="Path_413" data-name="Path 413" d="M224.7,396.653s22.924,5.327,42.766,0,56.274-22.752,68.258,0" transform="translate(-172.406 -281.451)" fill="none" stroke="#000" stroke-miterlimit="10" stroke-width="4" opacity="0.1"/>
    <path id="Path_414" data-name="Path 414" d="M224.7,443.438s22.924,5.327,42.766,0,62.807-5.04,68.258,0" transform="translate(-172.406 -318.431)" fill="none" stroke="#000" stroke-miterlimit="10" stroke-width="4" opacity="0.1"/>
    <path id="Path_415" data-name="Path 415" d="M737.794,311.823s-22.924,5.327-42.766,0-56.274-22.751-68.258,0" transform="translate(-446.231 -223.678)" fill="none" stroke="#000" stroke-miterlimit="10" stroke-width="4" opacity="0.1"/>
    <path id="Path_416" data-name="Path 416" d="M737.794,358.568s-22.924,5.327-42.766,0-62.807-5.04-68.258,0" transform="translate(-446.231 -260.631)" fill="none" stroke="#000" stroke-miterlimit="10" stroke-width="4" opacity="0.1"/>
    <path id="Path_417" data-name="Path 417" d="M737.794,396.653s-22.924,5.327-42.766,0-56.274-22.752-68.258,0" transform="translate(-446.231 -281.451)" fill="none" stroke="#000" stroke-miterlimit="10" stroke-width="4" opacity="0.1"/>
    <path id="Path_418" data-name="Path 418" d="M737.794,443.438s-22.924,5.327-42.766,0-62.807-5.04-68.258,0" transform="translate(-446.231 -318.431)" fill="none" stroke="#000" stroke-miterlimit="10" stroke-width="4" opacity="0.1"/>
    <path id="Path_419" data-name="Path 419" d="M931.923,758.771a5.442,5.442,0,0,0,2.143-2.638,2.233,2.233,0,0,0-1.5-2.686c-1.375-.427-2.842.348-3.958,1.132s-2.389,1.681-3.847,1.515a4.28,4.28,0,0,0,1.812-4.465,1.733,1.733,0,0,0-.5-.909c-.762-.667-2.147-.38-3.059.144-2.906,1.668-3.716,4.887-3.732,7.786a12.13,12.13,0,0,1-.054-3.209,3.056,3.056,0,0,0-1.477-2.839,5.277,5.277,0,0,0-2.252-.431,5.41,5.41,0,0,0-3.652.848,2.55,2.55,0,0,0,.144,3.659,14.068,14.068,0,0,0,3.78,2.472,7.877,7.877,0,0,1,2.7,2.1,1.911,1.911,0,0,1,.2.376h8.188a23.533,23.533,0,0,0,5.062-2.858Z" transform="translate(-639.895 -530.085)" fill="#f86464"/>
    <path id="Path_420" data-name="Path 420" d="M788.2,244.865s.08.459.214,1.276c-.07.128-.14.255-.214.38-2.615,4.4-3.017,10.743-2.772,15.948a52.182,52.182,0,0,0,2.191,12.376,57.849,57.849,0,0,1,2.233,16.076,11.687,11.687,0,0,0,3.662,2.667c.07.214.144.431.207.638a65.2,65.2,0,0,1,2.434,12.315l.823,10.417s6.306,23.578,8.223,27.963c1.365,3.119,1.065,9.569.778,13.026-.82,2.325-1.818,4.542-2.7,4.784-1.595.453-3.19,4.293-.868,6.223h0a3.7,3.7,0,0,0,.558.383l.093.051.169.086.249.112.128.048.265.089.115.035c.124.035.252.07.389.1a6.963,6.963,0,0,0,4.734-.75,9.548,9.548,0,0,0,4.465-2.147l-.032,1.662h1.914l-.089-3.32c.344-.386.536-.638.536-.638s.057-2.006.277-4.341l-.14,7.492h1.914l-.517-13.827a2.211,2.211,0,0,1,.38-.565c1.595-1.595-1.161-6.74-2.587-7.6.638-3.381,3.072-8.264,5.878-17.626,4.111-13.715-1.1-27.14-1.1-27.14V290.537c1.381-.593,2.194-1,2.194-1s-1.914-11.24,0-19.189c1.241-5.138,1.563-9.7.526-14.069,1.378-4.746,2.491-8.411,2.491-8.411l1.914-19.737c.488-2.963.817-5.5,1.027-7.655.035-.268.061-.539.073-.807a40.318,40.318,0,0,0,.045-8.452,13.438,13.438,0,0,0,.115-2.427,9.574,9.574,0,0,0,.051-1.254c.274-.319.542-.638.8-.957a13.754,13.754,0,0,0,1.719-2.743c2.108-3.977,2.169-8.835-.775-12.341-1.812-2.159-2.376-4.485-3.942-6.784-1.432-2.105-1.7-4.628-2.048-7.052a86.316,86.316,0,0,0-1.754-8.953c-.22-.868-1.426-1.4-2.025-2.121-1.158-1.394-4.539-1.346-6.488-1.655-3.273-.52-6.816-1-9.8.281-2.073.9-3.563,2.526-5.183,3.965-1.745,1.547-5.317,2.293-5.872,4.147-.494.708-.52,1.595.319,2.781a13.447,13.447,0,0,0,3.276,2.813c.153.108.3.223.447.319a11.648,11.648,0,0,0,6.331,12.325q-.048.311-.105.612a36.947,36.947,0,0,1-1.442,5.266c-.354,1.059-4.449,2.909-7.336,4.1a3.668,3.668,0,0,0-1.171-.807c-2.194-.549-9.594,3.563-10.143,4.934-.153.383.249,1.442.9,2.775a9.886,9.886,0,0,0,.3,1.8c-.163,2.807.131,7.336,1.544,14.618Zm30.78,3.084c-.1-.195-.207-.392-.319-.6-3.046-6.159-4.855-16.117-.491-22.056.389.041.778.08,1.167.105.258,8.083.108,21.37.108,21.37s-.172.447-.466,1.177Zm-10.874,46.945c.619,3.11,1.346,6.724,2.026,10.009a26.324,26.324,0,0,1-.159,11.585l-2.577-7.732-.6-13.6-.038-.558q.622-.105,1.234-.226Z" transform="translate(-552.785 -131.037)" fill="url(#linear-gradient-2)"/>
    <path id="Path_421" data-name="Path 421" d="M860.013,565.61a25.908,25.908,0,0,1-.156,11.4,14.762,14.762,0,0,1-.638,2.089l.727,29.568.083,3.352a16.9,16.9,0,0,0,2.041.3,9.285,9.285,0,0,0,1.914,0,2.289,2.289,0,0,0,1.5-.638c.3-.367.364-.957-.061-1.815a5.4,5.4,0,0,1-.52-3.046c.025-.293.073-.6.131-.922.638-3.327,3.021-8.137,5.786-17.348,4.048-13.492-1.078-26.713-1.078-26.713v-12.42L856.52,548.07s.638,3.343,1.515,7.687C858.628,558.819,859.343,562.375,860.013,565.61Z" transform="translate(-602.7 -392.337)" fill="#fdc2cc"/>
    <path id="Path_422" data-name="Path 422" d="M860.013,565.61a25.908,25.908,0,0,1-.156,11.4,14.762,14.762,0,0,1-.638,2.089l.727,29.568.083,3.352a16.9,16.9,0,0,0,2.041.3,9.285,9.285,0,0,0,1.914,0,2.289,2.289,0,0,0,1.5-.638c.3-.367.364-.957-.061-1.815a5.4,5.4,0,0,1-.52-3.046c.025-.293.073-.6.131-.922.638-3.327,3.021-8.137,5.786-17.348,4.048-13.492-1.078-26.713-1.078-26.713v-12.42L856.52,548.07s.638,3.343,1.515,7.687C858.628,558.819,859.343,562.375,860.013,565.61Z" transform="translate(-602.7 -392.337)" opacity="0.1"/>
    <path id="Path_423" data-name="Path 423" d="M809.94,552.3a40.51,40.51,0,0,1,2.191,5.687,64.189,64.189,0,0,1,2.4,12.121l.81,10.255s6.207,23.2,8.1,27.523c1.343,3.072,1.049,9.419.765,12.829-.115,1.384-.226,2.284-.226,2.284l2.753-3.371,3.607-4.424,1.646-2.019.36-.44a16.576,16.576,0,0,1-1.053-2.816h0a48.134,48.134,0,0,1-1.643-9.043c-.81-8.363-1.078-19.7-1.078-19.7l-.427-1.276-2.552-7.626-.59-13.4-.22-4.96Z" transform="translate(-570.977 -395.218)" fill="#fdc2cc"/>
    <path id="Path_424" data-name="Path 424" d="M856.5,730.85a19.2,19.2,0,0,0-3.209,6.344c-.858,2.919-2.367,7.4-3.633,7.764-1.888.539-3.776,5.936,1.078,7.017s8.905-4.319,8.905-4.319.271-9.444,1.888-11.062-1.349-7.017-2.7-7.556C858.3,728.818,857.385,729.711,856.5,730.85Z" transform="translate(-596.669 -515.561)" fill="#5f5d7e"/>
    <path id="Path_425" data-name="Path 425" d="M851.573,751.176a6.5,6.5,0,0,0,3.789-.344,8.468,8.468,0,0,0,5.3-7.275c.23-2.89.715-6.775,1.7-7.76,1.276-1.276-.319-4.912-1.691-6.65a.731.731,0,0,1,.609-.1c1.349.539,4.319,5.936,2.7,7.556s-1.888,11.062-1.888,11.062-4.041,5.4-8.9,4.312a4.465,4.465,0,0,1-1.933-.89C851.362,751.121,851.464,751.15,851.573,751.176Z" transform="translate(-599.118 -515.572)" opacity="0.1"/>
    <path id="Path_426" data-name="Path 426" d="M887.028,752.447l.52,13.939H885.66l.262-13.929a.536.536,0,0,1,.555-.507h0A.536.536,0,0,1,887.028,752.447Z" transform="translate(-622.546 -531.187)" fill="#5f5d7e"/>
    <path id="Path_427" data-name="Path 427" d="M887.028,752.447l.52,13.939H885.66l.262-13.929a.536.536,0,0,1,.555-.507h0A.536.536,0,0,1,887.028,752.447Z" transform="translate(-622.546 -531.187)" opacity="0.15"/>
    <path id="Path_428" data-name="Path 428" d="M848.895,733.387a19.2,19.2,0,0,0-3.209,6.344c-.858,2.919-2.367,7.4-3.633,7.764-1.888.539-3.777,5.936,1.078,7.017s8.905-4.325,8.905-4.325.271-9.445,1.888-11.062-1.349-7.017-2.7-7.556C850.681,731.368,849.775,732.248,848.895,733.387Z" transform="translate(-591.486 -517.287)" fill="#5f5d7e"/>
    <path id="Path_429" data-name="Path 429" d="M843.956,753.7a6.5,6.5,0,0,0,3.789-.345,8.468,8.468,0,0,0,5.3-7.276c.23-2.89.714-6.775,1.7-7.76,1.276-1.276-.319-4.912-1.69-6.65a.73.73,0,0,1,.609-.1c1.349.539,4.319,5.936,2.7,7.556s-1.885,11.062-1.885,11.062-4.048,5.4-8.905,4.319a4.466,4.466,0,0,1-1.933-.89C843.755,753.648,843.847,753.677,843.956,753.7Z" transform="translate(-593.928 -517.288)" opacity="0.1"/>
    <path id="Path_430" data-name="Path 430" d="M879.381,754.936l.52,13.939H878l.262-13.929a.536.536,0,0,1,.555-.507h0a.536.536,0,0,1,.565.5Z" transform="translate(-617.329 -532.881)" fill="#5f5d7e"/>
    <path id="Path_431" data-name="Path 431" d="M879.381,754.936l.52,13.939H878l.262-13.929a.536.536,0,0,1,.555-.507h0a.536.536,0,0,1,.565.5Z" transform="translate(-617.329 -532.881)" opacity="0.15"/>
    <path id="Path_432" data-name="Path 432" d="M810.79,248.347l10.794,17,12.682,1.62s7.824-15.38,7.556-16.19-4.319-2.427-8.1-5.4.81-15.38.81-15.38l-12.411,1.078c.048.166.1.319.131.5a16.1,16.1,0,0,1-.061,6.465,36.368,36.368,0,0,1-1.423,5.174C820.234,244.838,810.79,248.347,810.79,248.347Z" transform="translate(-571.556 -175.719)" fill="#fdc2cc"/>
    <path id="Path_433" data-name="Path 433" d="M856.47,548.07s.638,3.343,1.515,7.687a61.917,61.917,0,0,0,11.709-3.738v-2.6Z" transform="translate(-602.666 -392.337)" opacity="0.1"/>
    <path id="Path_434" data-name="Path 434" d="M809.94,552.3a40.51,40.51,0,0,1,2.191,5.687c3.754,1.694,8.424,1.646,12.867.89l-.22-4.96Z" transform="translate(-570.977 -395.218)" opacity="0.1"/>
    <path id="Path_435" data-name="Path 435" d="M789.35,326.555c-2.574,4.335-2.969,10.57-2.727,15.712a51.352,51.352,0,0,0,2.156,12.178,56.934,56.934,0,0,1,2.2,15.824c9.173,9.983,31.839-1.349,31.839-1.349s-1.888-11.062,0-18.889c1.314-5.441,1.595-10.235.262-14.828a23.377,23.377,0,0,0-2.689-5.949c-.357-.568-.7-1.2-1.04-1.869-3.126-6.322-4.931-16.707.1-22.436a10.478,10.478,0,0,1,1.754-1.595,18.029,18.029,0,0,0,7.221-9.681,13.019,13.019,0,0,0,.319-5.7c-.539-2.97-8.1-5.668-8.1-5.668.271,8.905-11.062,16.458-11.062,16.458s-12.953-16.73-15.109-17.269-9.444,3.509-9.984,4.858,5.936,11.333,5.936,11.333S794.479,317.921,789.35,326.555Z" transform="translate(-553.624 -210.756)" fill="#d39999"/>
    <path id="Path_436" data-name="Path 436" d="M894.9,318.438a18.028,18.028,0,0,0,7.221-9.68c-.211-4.465-1.276-5.158-1.276-5.158s-8.915,8.631-8.1,11.61a30.857,30.857,0,0,1,.405,4.835A10.475,10.475,0,0,1,894.9,318.438Z" transform="translate(-627.331 -225.844)" opacity="0.1"/>
    <path id="Path_437" data-name="Path 437" d="M851.664,462.964c1.888,5.668,11.333-4.319,11.6-8.634.172-2.762,3.218-13.591,5.387-21.032a23.374,23.374,0,0,0-2.689-5.949c-.357-.568-.705-1.2-1.04-1.869-1.024,2.517-5.135,12.832-4.9,15.9.271,3.509-1.62,8.634-1.62,8.634S849.775,457.3,851.664,462.964Z" transform="translate(-599.209 -308.849)" opacity="0.1"/>
    <path id="Path_438" data-name="Path 438" d="M874.4,303.59s2.97,1.888,0,19.967l-1.888,19.428s-7.285,24.015-7.556,28.333-9.712,14.3-11.6,8.634S860.1,367,860.1,367s1.888-5.126,1.62-8.634,5.126-16.458,5.126-16.458.271-23.744-.539-26.713S874.4,303.59,874.4,303.59Z" transform="translate(-600.358 -225.837)" fill="#fdc2cc"/>
    <path id="Path_439" data-name="Path 439" d="M791.391,296.82s-3.509.81,0,18.889l2.159,19.7s4.858,28.333,4.587,31.577,10.526,11.6,11.333,7.017-5.4-12.143-5.4-12.143-2.7-5.945-2.7-17.01l-.539-8.905-3.773-32.107Z" transform="translate(-557.282 -221.226)" opacity="0.1"/>
    <path id="Path_440" data-name="Path 440" d="M789.67,296.82s-3.509.81,0,18.889l2.159,19.7s4.858,28.333,4.587,31.577,10.526,11.6,11.333,7.017-5.4-12.143-5.4-12.143-2.7-5.936-2.7-17l-.539-8.905-3.77-32.116Z" transform="translate(-556.111 -221.226)" fill="#fdc2cc"/>
    <path id="Path_441" data-name="Path 441" d="M787.359,295.563s-1.62,8.634,9.712,11.6-1.349-10.258-1.349-10.258S791.406,290.438,787.359,295.563Z" transform="translate(-555.544 -219.026)" opacity="0.1"/>
    <path id="Path_442" data-name="Path 442" d="M788.2,294.721s-1.617,8.631,9.716,11.6-1.349-10.255-1.349-10.255S792.247,289.592,788.2,294.721Z" transform="translate(-556.117 -218.451)" fill="#d39999"/>
    <path id="Path_443" data-name="Path 443" d="M892.936,295.563s1.62,8.634-9.712,11.6,1.346-10.258,1.346-10.258S888.875,290.438,892.936,295.563Z" transform="translate(-617.678 -219.026)" opacity="0.1"/>
    <path id="Path_444" data-name="Path 444" d="M892.075,294.721s1.633,8.631-9.712,11.6,1.349-10.255,1.349-10.255S888.028,289.592,892.075,294.721Z" transform="translate(-617.089 -218.451)" fill="#d39999"/>
    <path id="Path_445" data-name="Path 445" d="M846.55,239.188c1.49.434,3.158-3.056,4.918-3.056,1.866,0,3.623,3.735,5.18,2.944a46.762,46.762,0,0,1,1.971-7.4l-12.009,1.059A16.082,16.082,0,0,1,846.55,239.188Z" transform="translate(-595.91 -176.864)" opacity="0.1"/>
    <circle id="Ellipse_60" data-name="Ellipse 60" cx="11.467" cy="11.467" r="11.467" transform="translate(244.363 39.978)" fill="#fdc2cc"/>
    <path id="Path_446" data-name="Path 446" d="M814.418,182.182a13.568,13.568,0,0,0,3.225,2.769,35.433,35.433,0,0,1,4.089,3.422,12.087,12.087,0,0,1,2.287,2.832,12.933,12.933,0,0,1,1.139,5.486L826.271,216a12.322,12.322,0,0,1-.179,3.828,13.077,13.077,0,0,1-1.381,3.024,26.52,26.52,0,0,1-5.349,7.336c-.791.686-1.754,1.572-1.336,2.472.338.724,1.378.957,2.271,1.062,3.748.5,7.9.935,11.055-.893a18.776,18.776,0,0,1,3.509-2.105c1.856-.59,3.9.026,5.882.022a18.461,18.461,0,0,0,6.06-1.387,2.172,2.172,0,0,0,1-.561,1.662,1.662,0,0,0,.284-.762,9.677,9.677,0,0,0,.093-4.724c-.526-1.662-1.914-3.1-2.07-4.816-.2-2.386,2-4.328,3.579-6.29,3.368-4.175,4.118-10.188.66-14.305-1.783-2.124-2.341-4.414-3.882-6.676-1.41-2.07-1.678-4.555-2.016-6.941a85,85,0,0,0-1.729-8.813c-.214-.855-1.4-1.378-1.994-2.089-1.142-1.372-4.465-1.324-6.379-1.63-3.222-.51-6.7-.989-9.642.277-2.041.88-3.509,2.488-5.1,3.9C817.34,177.943,811.86,178.575,814.418,182.182Z" transform="translate(-573.574 -135.688)" opacity="0.1"/>
    <path id="Path_447" data-name="Path 447" d="M815.266,180.492a13.568,13.568,0,0,0,3.225,2.769,35.427,35.427,0,0,1,4.089,3.429,12.088,12.088,0,0,1,2.287,2.832,12.933,12.933,0,0,1,1.139,5.486l1.123,19.3a12.323,12.323,0,0,1-.179,3.828,13.08,13.08,0,0,1-1.381,3.024,26.521,26.521,0,0,1-5.349,7.336c-.791.686-1.754,1.573-1.336,2.472.338.724,1.378.957,2.271,1.062,3.748.5,7.9.935,11.055-.893a18.778,18.778,0,0,1,3.509-2.105c1.856-.59,3.9.026,5.882.022a18.461,18.461,0,0,0,6.06-1.387,2.172,2.172,0,0,0,1-.561,1.66,1.66,0,0,0,.284-.762,9.677,9.677,0,0,0,.093-4.724c-.526-1.662-1.914-3.1-2.07-4.816-.2-2.386,2-4.328,3.579-6.29,3.368-4.175,4.118-10.188.66-14.305-1.783-2.124-2.341-4.414-3.882-6.676-1.41-2.07-1.678-4.555-2.016-6.941a85,85,0,0,0-1.729-8.813c-.214-.855-1.4-1.378-1.994-2.089-1.142-1.372-4.465-1.324-6.379-1.63-3.222-.51-6.7-.989-9.642.277-2.041.88-3.509,2.488-5.1,3.9C818.171,176.253,812.708,176.885,815.266,180.492Z" transform="translate(-574.15 -134.537)" fill="#865a61"/>
  </g>
</svg>
