<?xml version="1.0" encoding="utf-8"?>
<!-- Generator: Adobe Illustrator 25.0.1, SVG Export Plug-In . SVG Version: 6.00 Build 0)  -->
<svg version="1.1" id="Camada_1" xmlns="http://www.w3.org/2000/svg" xmlns:xlink="http://www.w3.org/1999/xlink" x="0px" y="0px"
	 viewBox="0 0 205.2 76.9" style="enable-background:new 0 0 205.2 76.9;" xml:space="preserve">
<style type="text/css">
	.st0{fill:#F86464;}
	.st1{display:none;}
	.st2{display:inline;}
	.st3{fill:#AB3333;}
	.st4{font-family:'Nunito-ExtraBold';}
	.st5{font-size:14px;}
</style>
<g id="Grupo_2461" transform="translate(-97.391 20.831)">
	<path id="Caminho_7254" class="st0" d="M102.6,20c7.4-1,15,0.1,22.2-1.9c1.4-0.4,1-2.3,0-2.7c-1.3-0.6-3-1.7-4.7-2.4
		c3.4-1.6,6.1-4.2,9.2-6.3c2.9-1.9,6.3-2.9,9.7-2.9c-0.4,1-0.7,2.2-1.1,3.3c-2.1,9,4.1,33.3,17.6,29.7c7.7-2,10.6-13.9,8.3-20.6
		c-3-8.8-11.1-14-19.9-15.5c2.2-3.2,7.3-5.3,11-7.1C163-10,170.8-7,176.4-0.9c10.2,11.1,11.2,7.9,1.9-2.5
		c-10.7-11.9-30.5-8.4-37.7,4c-1.1-0.1-2.2-0.1-3.3,0c-7.7,0.4-12.4,6.2-18.7,9.5c0.1-2,0.5-4,1-6c0.4-1.5-1.1-3-2.5-1.9
		c-5.9,4.7-12,8.9-16.1,15.2C100.5,18.6,101.2,20.3,102.6,20z M142.4,4c1.8,0.2,3.6,0.7,5.4,1.3c11.4,3.7,18,16.5,9.8,26.7
		c-3.8,4.7-9.1-0.2-11.6-3.6c-3.7-5.2-5.5-11.5-5.2-17.8C141,8.3,141.5,6.1,142.4,4z M115.1,13.1L115.1,13.1c-0.1,0-0.1,0.3-0.1,0.5
		c1.1,1.2,2.6,2.1,4.2,2.5c-4.4,0.5-8.8,0.3-13.2,0.6c3.1-3.4,6.5-6.5,10.2-9.3c-0.1,1.6-0.4,3.3-0.9,4.8
		C115,12.5,115,12.9,115.1,13.1z"/>
	<g class="st1">
		<text transform="matrix(1 0 0 1 187.4763 23.1926)" class="st2"><tspan x="0" y="0" class="st3 st4 st5">Open your first</tspan><tspan x="6.4" y="16.8" class="st3 st4 st5">Cuukin book!</tspan></text>
	</g>
	<g>
		<path class="st3" d="M190.6,22.7c-0.7-0.4-1.3-1-1.7-1.8s-0.6-1.7-0.6-2.7c0-1,0.2-1.9,0.6-2.7s0.9-1.3,1.7-1.8s1.6-0.6,2.6-0.6
			s1.8,0.2,2.6,0.6s1.3,1,1.7,1.8s0.6,1.7,0.6,2.7c0,1-0.2,1.9-0.6,2.7s-1,1.3-1.7,1.8s-1.6,0.6-2.6,0.6S191.3,23.1,190.6,22.7z
			 M195.1,20.8c0.5-0.6,0.7-1.4,0.7-2.5c0-1.1-0.2-1.9-0.7-2.5c-0.5-0.6-1.1-0.9-1.9-0.9c-0.8,0-1.5,0.3-1.9,0.9
			c-0.5,0.6-0.7,1.4-0.7,2.5c0,1.1,0.2,1.9,0.7,2.5c0.5,0.6,1.1,0.9,1.9,0.9S194.6,21.3,195.1,20.8z"/>
		<path class="st3" d="M205,16.6c0.5,0.3,0.8,0.7,1.1,1.3c0.3,0.5,0.4,1.2,0.4,1.9c0,0.7-0.1,1.3-0.4,1.9c-0.3,0.5-0.6,0.9-1.1,1.2
			c-0.5,0.3-1,0.4-1.6,0.4c-0.5,0-0.9-0.1-1.3-0.3s-0.7-0.5-0.9-0.8v2.6c0,0.3-0.1,0.5-0.3,0.7c-0.2,0.2-0.4,0.3-0.7,0.3
			c-0.3,0-0.6-0.1-0.8-0.3c-0.2-0.2-0.3-0.4-0.3-0.7v-7.6c0-0.3,0.1-0.5,0.3-0.7c0.2-0.2,0.4-0.3,0.8-0.3s0.6,0.1,0.8,0.3
			c0.2,0.2,0.3,0.4,0.3,0.7v0.1c0.2-0.4,0.5-0.6,0.9-0.8c0.4-0.2,0.8-0.3,1.3-0.3C204.1,16.2,204.6,16.3,205,16.6z M204,21.2
			c0.3-0.3,0.4-0.8,0.4-1.4c0-0.6-0.1-1.1-0.4-1.5c-0.3-0.3-0.7-0.5-1.1-0.5c-0.5,0-0.9,0.2-1.1,0.5s-0.4,0.8-0.4,1.5
			c0,0.6,0.1,1.1,0.4,1.4s0.7,0.5,1.1,0.5C203.3,21.7,203.7,21.5,204,21.2z"/>
		<path class="st3" d="M213.5,21.4c0.1,0.1,0.2,0.3,0.2,0.6c0,0.2,0,0.3-0.1,0.4c-0.1,0.1-0.2,0.2-0.4,0.3c-0.3,0.2-0.7,0.3-1.1,0.4
			c-0.4,0.1-0.8,0.2-1.2,0.2c-0.7,0-1.4-0.1-2-0.4c-0.6-0.3-1-0.7-1.3-1.2c-0.3-0.5-0.4-1.2-0.4-1.9c0-0.7,0.1-1.3,0.4-1.9
			c0.3-0.5,0.7-1,1.2-1.3c0.5-0.3,1.1-0.5,1.8-0.5c0.6,0,1.2,0.1,1.6,0.4c0.5,0.3,0.8,0.7,1.1,1.2c0.3,0.5,0.4,1.1,0.4,1.8
			c0,0.2,0,0.4-0.1,0.5c-0.1,0.1-0.2,0.2-0.4,0.2h-3.9c0.1,0.6,0.2,1,0.5,1.2s0.7,0.4,1.2,0.4c0.3,0,0.5,0,0.7-0.1
			c0.2-0.1,0.5-0.2,0.7-0.3c0.1-0.1,0.3-0.1,0.4-0.1s0.2-0.1,0.3-0.1C213.3,21.1,213.4,21.2,213.5,21.4z M209.7,18
			c-0.2,0.3-0.4,0.6-0.4,1.1h2.7c0-0.5-0.2-0.9-0.4-1.1c-0.2-0.3-0.5-0.4-0.9-0.4S209.9,17.7,209.7,18z"/>
		<path class="st3" d="M220.9,16.9c0.4,0.5,0.6,1.2,0.6,2.2v3.2c0,0.3-0.1,0.6-0.3,0.7c-0.2,0.2-0.5,0.3-0.8,0.3s-0.6-0.1-0.8-0.3
			c-0.2-0.2-0.3-0.4-0.3-0.7v-3.1c0-0.5-0.1-0.8-0.3-1c-0.2-0.2-0.4-0.3-0.8-0.3c-0.4,0-0.8,0.1-1.1,0.4c-0.3,0.3-0.4,0.7-0.4,1.1
			v2.9c0,0.3-0.1,0.6-0.3,0.7c-0.2,0.2-0.4,0.3-0.8,0.3c-0.3,0-0.6-0.1-0.8-0.3c-0.2-0.2-0.3-0.4-0.3-0.7v-5.1
			c0-0.3,0.1-0.5,0.3-0.7c0.2-0.2,0.5-0.3,0.8-0.3c0.3,0,0.5,0.1,0.7,0.3c0.2,0.2,0.3,0.4,0.3,0.7v0.2c0.2-0.4,0.6-0.7,0.9-0.9
			c0.4-0.2,0.8-0.3,1.3-0.3C219.9,16.2,220.5,16.4,220.9,16.9z"/>
		<path class="st3" d="M231.6,16.3c0.2-0.1,0.3-0.1,0.5-0.1c0.3,0,0.5,0.1,0.7,0.3s0.3,0.4,0.3,0.6c0,0.1,0,0.3-0.1,0.4l-3.8,7.7
			c-0.1,0.2-0.2,0.3-0.4,0.4c-0.2,0.1-0.3,0.1-0.5,0.1c-0.3,0-0.5-0.1-0.7-0.3s-0.3-0.4-0.3-0.6c0-0.1,0-0.3,0.1-0.4l0.9-1.9
			l-2.5-5.1c-0.1-0.1-0.1-0.3-0.1-0.4c0-0.3,0.1-0.5,0.3-0.6c0.2-0.2,0.5-0.3,0.7-0.3c0.2,0,0.4,0,0.5,0.1c0.2,0.1,0.3,0.2,0.4,0.4
			l1.7,3.8l1.7-3.8C231.3,16.6,231.4,16.4,231.6,16.3z"/>
		<path class="st3" d="M235,22.9c-0.6-0.3-1-0.7-1.3-1.2c-0.3-0.5-0.4-1.2-0.4-1.9c0-0.7,0.1-1.4,0.4-1.9c0.3-0.5,0.7-0.9,1.3-1.2
			c0.6-0.3,1.2-0.4,1.9-0.4c0.7,0,1.4,0.1,1.9,0.4c0.6,0.3,1,0.7,1.3,1.2c0.3,0.5,0.4,1.2,0.4,1.9c0,0.7-0.1,1.4-0.4,1.9
			c-0.3,0.5-0.7,1-1.3,1.2s-1.2,0.4-1.9,0.4C236.2,23.3,235.6,23.2,235,22.9z M238.5,19.7c0-0.7-0.1-1.2-0.4-1.5
			c-0.3-0.3-0.6-0.5-1.1-0.5c-1,0-1.5,0.7-1.5,2c0,1.3,0.5,2,1.5,2S238.5,21,238.5,19.7z"/>
		<path class="st3" d="M248,16.4c0.2,0.2,0.3,0.4,0.3,0.7v5.1c0,0.3-0.1,0.5-0.3,0.7c-0.2,0.2-0.5,0.3-0.8,0.3
			c-0.3,0-0.5-0.1-0.7-0.3c-0.2-0.2-0.3-0.4-0.3-0.7v-0.1c-0.2,0.4-0.5,0.6-0.8,0.8c-0.4,0.2-0.7,0.3-1.2,0.3
			c-0.9,0-1.5-0.2-1.9-0.7c-0.4-0.5-0.6-1.2-0.6-2.2v-3.2c0-0.3,0.1-0.6,0.3-0.7c0.2-0.2,0.5-0.3,0.8-0.3s0.6,0.1,0.8,0.3
			c0.2,0.2,0.3,0.4,0.3,0.7v3.3c0,0.4,0.1,0.7,0.3,0.9s0.4,0.3,0.8,0.3c0.4,0,0.7-0.1,1-0.4s0.4-0.6,0.4-1.1v-3
			c0-0.3,0.1-0.6,0.3-0.7c0.2-0.2,0.4-0.3,0.8-0.3C247.5,16.2,247.8,16.3,248,16.4z"/>
		<path class="st3" d="M254.4,16.4c0.2,0.1,0.2,0.4,0.2,0.7c0,0.3-0.1,0.5-0.2,0.7c-0.1,0.1-0.4,0.2-0.8,0.3l-0.4,0
			c-0.5,0.1-0.9,0.2-1.1,0.5c-0.2,0.3-0.3,0.6-0.3,1.1v2.7c0,0.3-0.1,0.6-0.3,0.7c-0.2,0.2-0.5,0.3-0.7,0.3c-0.3,0-0.6-0.1-0.8-0.3
			c-0.2-0.2-0.3-0.4-0.3-0.7v-5.1c0-0.3,0.1-0.5,0.3-0.7s0.5-0.3,0.7-0.3c0.3,0,0.5,0.1,0.7,0.2c0.2,0.2,0.3,0.4,0.3,0.7v0.4
			c0.2-0.4,0.4-0.7,0.8-0.9c0.3-0.2,0.7-0.3,1.1-0.4l0.2,0C254,16.2,254.2,16.2,254.4,16.4z"/>
		<path class="st3" d="M265.8,16.5c0.2,0.1,0.2,0.3,0.2,0.6v5.2c0,0.3-0.1,0.6-0.3,0.7c-0.2,0.2-0.5,0.3-0.8,0.3
			c-0.3,0-0.5-0.1-0.7-0.3c-0.2-0.2-0.3-0.4-0.3-0.7v-4.4h-2.6v4.4c0,0.3-0.1,0.6-0.3,0.7s-0.5,0.3-0.7,0.3c-0.3,0-0.6-0.1-0.8-0.3
			c-0.2-0.2-0.3-0.4-0.3-0.7v-4.4h-0.6c-0.6,0-0.9-0.3-0.9-0.8c0-0.5,0.3-0.8,0.9-0.8h0.6c0-0.9,0.3-1.6,0.8-2.1
			c0.5-0.5,1.2-0.8,2-0.9l0.3,0c0.1,0,0.1,0,0.3,0c0.6,0,0.9,0.2,0.9,0.7c0,0.2-0.1,0.4-0.2,0.6c-0.1,0.1-0.3,0.2-0.5,0.2l-0.3,0
			c-0.4,0-0.7,0.2-0.8,0.4c-0.2,0.2-0.3,0.5-0.3,0.9v0.2h3.8C265.4,16.3,265.7,16.4,265.8,16.5z M264.1,14.8
			c-0.2-0.2-0.3-0.5-0.3-0.8c0-0.3,0.1-0.6,0.3-0.8s0.5-0.3,0.9-0.3s0.7,0.1,0.9,0.3c0.2,0.2,0.3,0.4,0.3,0.8c0,0.3-0.1,0.6-0.3,0.8
			s-0.5,0.3-0.9,0.3C264.6,15.1,264.3,15,264.1,14.8z"/>
		<path class="st3" d="M272.2,16.4c0.2,0.1,0.2,0.4,0.2,0.7c0,0.3-0.1,0.5-0.2,0.7c-0.1,0.1-0.4,0.2-0.8,0.3l-0.4,0
			c-0.5,0.1-0.9,0.2-1.1,0.5c-0.2,0.3-0.3,0.6-0.3,1.1v2.7c0,0.3-0.1,0.6-0.3,0.7c-0.2,0.2-0.5,0.3-0.7,0.3c-0.3,0-0.6-0.1-0.8-0.3
			c-0.2-0.2-0.3-0.4-0.3-0.7v-5.1c0-0.3,0.1-0.5,0.3-0.7s0.5-0.3,0.7-0.3c0.3,0,0.5,0.1,0.7,0.2c0.2,0.2,0.3,0.4,0.3,0.7v0.4
			c0.2-0.4,0.4-0.7,0.8-0.9c0.3-0.2,0.7-0.3,1.1-0.4l0.2,0C271.8,16.2,272,16.2,272.2,16.4z"/>
		<path class="st3" d="M273.9,23.2c-0.4-0.1-0.8-0.2-1.1-0.4c-0.1-0.1-0.2-0.2-0.3-0.3c-0.1-0.1-0.1-0.3-0.1-0.5
			c0-0.2,0.1-0.4,0.2-0.5c0.1-0.1,0.3-0.2,0.4-0.2c0.1,0,0.2,0,0.4,0.1s0.2,0.1,0.4,0.1c0.3,0.1,0.5,0.2,0.8,0.3s0.6,0.1,0.9,0.1
			c0.3,0,0.6-0.1,0.8-0.2c0.2-0.1,0.3-0.2,0.3-0.4c0-0.1,0-0.2-0.1-0.3s-0.2-0.2-0.4-0.2c-0.2-0.1-0.6-0.1-1-0.2
			c-0.8-0.2-1.4-0.4-1.8-0.7s-0.5-0.8-0.5-1.3c0-0.4,0.1-0.8,0.4-1.1s0.6-0.6,1.1-0.8c0.4-0.2,1-0.3,1.5-0.3c0.4,0,0.8,0.1,1.2,0.2
			s0.7,0.2,1,0.4c0.3,0.2,0.4,0.4,0.4,0.8c0,0.2-0.1,0.4-0.2,0.6c-0.1,0.1-0.3,0.2-0.4,0.2c-0.2,0-0.5-0.1-0.8-0.3
			c-0.2-0.1-0.4-0.2-0.6-0.3s-0.4-0.1-0.7-0.1c-0.3,0-0.5,0.1-0.7,0.2c-0.2,0.1-0.3,0.3-0.3,0.4c0,0.2,0.1,0.3,0.3,0.4
			c0.2,0.1,0.6,0.2,1.1,0.3c0.6,0.1,1.1,0.3,1.5,0.4s0.6,0.4,0.8,0.7c0.2,0.3,0.2,0.6,0.2,1c0,0.7-0.3,1.2-0.8,1.6
			c-0.5,0.4-1.3,0.6-2.2,0.6C274.8,23.3,274.3,23.3,273.9,23.2z"/>
		<path class="st3" d="M283.7,21.9c0.1,0.1,0.2,0.3,0.2,0.5c0,0.3-0.1,0.5-0.3,0.6c-0.2,0.1-0.5,0.2-0.9,0.2l-0.4,0
			c-1.6-0.1-2.4-1-2.4-2.6v-2.8h-0.6c-0.3,0-0.5-0.1-0.7-0.2c-0.2-0.1-0.2-0.3-0.2-0.6c0-0.3,0.1-0.5,0.2-0.6
			c0.2-0.1,0.4-0.2,0.7-0.2h0.6v-1.1c0-0.3,0.1-0.6,0.3-0.7c0.2-0.2,0.5-0.3,0.8-0.3s0.6,0.1,0.8,0.3c0.2,0.2,0.3,0.4,0.3,0.7v1.1h1
			c0.6,0,1,0.3,1,0.8c0,0.3-0.1,0.4-0.2,0.6c-0.2,0.1-0.4,0.2-0.7,0.2h-1v2.9c0,0.3,0.1,0.5,0.2,0.6c0.1,0.1,0.3,0.2,0.6,0.2l0.4,0
			C283.4,21.8,283.6,21.8,283.7,21.9z"/>
		<path class="st3" d="M197,39.5c-0.7-0.4-1.3-1-1.7-1.8s-0.6-1.7-0.6-2.7c0-1,0.2-1.9,0.6-2.7c0.4-0.8,1-1.3,1.7-1.8
			c0.7-0.4,1.6-0.6,2.5-0.6c1.2,0,2.3,0.3,3.2,1c0.1,0.1,0.2,0.2,0.3,0.3c0.1,0.1,0.1,0.3,0.1,0.4c0,0.2-0.1,0.5-0.2,0.6
			c-0.1,0.2-0.3,0.3-0.5,0.3c-0.1,0-0.2,0-0.3,0c-0.1,0-0.2-0.1-0.3-0.2c-0.4-0.2-0.7-0.4-1-0.5c-0.3-0.1-0.7-0.2-1-0.2
			c-0.9,0-1.6,0.3-2,0.8c-0.5,0.6-0.7,1.4-0.7,2.5c0,2.2,0.9,3.3,2.7,3.3c0.3,0,0.7-0.1,1-0.2c0.3-0.1,0.7-0.3,1.1-0.5
			c0.1-0.1,0.3-0.1,0.3-0.2c0.1,0,0.2,0,0.3,0c0.2,0,0.4,0.1,0.5,0.3c0.1,0.2,0.2,0.4,0.2,0.6c0,0.2,0,0.3-0.1,0.4
			c-0.1,0.1-0.2,0.2-0.3,0.3c-0.9,0.7-1.9,1-3.2,1C198.5,40.1,197.7,39.9,197,39.5z"/>
		<path class="st3" d="M210.2,33.2c0.2,0.2,0.3,0.4,0.3,0.7v5.1c0,0.3-0.1,0.5-0.3,0.7c-0.2,0.2-0.5,0.3-0.8,0.3
			c-0.3,0-0.5-0.1-0.7-0.3s-0.3-0.4-0.3-0.7V39c-0.2,0.4-0.5,0.6-0.8,0.8c-0.3,0.2-0.7,0.3-1.2,0.3c-0.9,0-1.5-0.2-1.9-0.7
			c-0.4-0.5-0.6-1.2-0.6-2.2V34c0-0.3,0.1-0.6,0.3-0.7c0.2-0.2,0.5-0.3,0.8-0.3c0.3,0,0.6,0.1,0.8,0.3c0.2,0.2,0.3,0.4,0.3,0.7v3.3
			c0,0.4,0.1,0.7,0.3,0.9s0.4,0.3,0.8,0.3c0.4,0,0.7-0.1,1-0.4s0.4-0.6,0.4-1.1v-3c0-0.3,0.1-0.6,0.3-0.7c0.2-0.2,0.4-0.3,0.8-0.3
			C209.8,33,210.1,33.1,210.2,33.2z"/>
		<path class="st3" d="M218.3,33.2c0.2,0.2,0.3,0.4,0.3,0.7v5.1c0,0.3-0.1,0.5-0.3,0.7c-0.2,0.2-0.5,0.3-0.8,0.3
			c-0.3,0-0.5-0.1-0.7-0.3c-0.2-0.2-0.3-0.4-0.3-0.7V39c-0.2,0.4-0.5,0.6-0.8,0.8s-0.7,0.3-1.2,0.3c-0.9,0-1.5-0.2-1.9-0.7
			c-0.4-0.5-0.6-1.2-0.6-2.2V34c0-0.3,0.1-0.6,0.3-0.7c0.2-0.2,0.5-0.3,0.8-0.3c0.3,0,0.6,0.1,0.8,0.3c0.2,0.2,0.3,0.4,0.3,0.7v3.3
			c0,0.4,0.1,0.7,0.3,0.9c0.2,0.2,0.4,0.3,0.8,0.3c0.4,0,0.7-0.1,1-0.4c0.3-0.3,0.4-0.6,0.4-1.1v-3c0-0.3,0.1-0.6,0.3-0.7
			c0.2-0.2,0.4-0.3,0.8-0.3S218.1,33.1,218.3,33.2z"/>
		<path class="st3" d="M226.7,39.1c0,0.3-0.1,0.5-0.3,0.7c-0.2,0.2-0.4,0.3-0.7,0.3c-0.2,0-0.5-0.1-0.7-0.3l-3.1-2.8v2.1
			c0,0.3-0.1,0.6-0.3,0.7c-0.2,0.2-0.5,0.3-0.7,0.3c-0.3,0-0.6-0.1-0.8-0.3c-0.2-0.2-0.3-0.4-0.3-0.7v-8c0-0.3,0.1-0.6,0.3-0.7
			c0.2-0.2,0.5-0.3,0.8-0.3c0.3,0,0.5,0.1,0.7,0.3c0.2,0.2,0.3,0.4,0.3,0.7v5l2.8-2.8c0.2-0.2,0.4-0.3,0.7-0.3
			c0.3,0,0.5,0.1,0.7,0.3c0.2,0.2,0.3,0.4,0.3,0.7c0,0.2-0.1,0.5-0.3,0.7l-1.9,1.8l2.1,1.9C226.6,38.6,226.7,38.8,226.7,39.1z"/>
		<path class="st3" d="M227.7,31.6c-0.2-0.2-0.3-0.5-0.3-0.8c0-0.3,0.1-0.6,0.3-0.8c0.2-0.2,0.5-0.3,0.9-0.3c0.4,0,0.7,0.1,0.9,0.3
			c0.2,0.2,0.3,0.4,0.3,0.8c0,0.3-0.1,0.6-0.3,0.8s-0.5,0.3-0.9,0.3C228.2,31.9,227.9,31.8,227.7,31.6z M227.8,39.8
			c-0.2-0.2-0.3-0.4-0.3-0.7V34c0-0.3,0.1-0.6,0.3-0.7c0.2-0.2,0.5-0.3,0.8-0.3s0.5,0.1,0.7,0.3c0.2,0.2,0.3,0.4,0.3,0.7v5.1
			c0,0.3-0.1,0.6-0.3,0.7c-0.2,0.2-0.5,0.3-0.7,0.3C228.3,40.1,228,40,227.8,39.8z"/>
		<path class="st3" d="M237.1,33.7c0.4,0.5,0.6,1.2,0.6,2.2v3.2c0,0.3-0.1,0.6-0.3,0.7c-0.2,0.2-0.5,0.3-0.8,0.3
			c-0.3,0-0.6-0.1-0.8-0.3c-0.2-0.2-0.3-0.4-0.3-0.7v-3.1c0-0.5-0.1-0.8-0.3-1c-0.2-0.2-0.4-0.3-0.8-0.3c-0.4,0-0.8,0.1-1.1,0.4
			c-0.3,0.3-0.4,0.7-0.4,1.1v2.9c0,0.3-0.1,0.6-0.3,0.7c-0.2,0.2-0.4,0.3-0.8,0.3c-0.3,0-0.6-0.1-0.8-0.3c-0.2-0.2-0.3-0.4-0.3-0.7
			v-5.1c0-0.3,0.1-0.5,0.3-0.7c0.2-0.2,0.5-0.3,0.8-0.3c0.3,0,0.5,0.1,0.7,0.3s0.3,0.4,0.3,0.7v0.2c0.2-0.4,0.6-0.7,0.9-0.9
			c0.4-0.2,0.8-0.3,1.3-0.3C236.1,33,236.7,33.2,237.1,33.7z"/>
		<path class="st3" d="M248.6,33.4c0.5,0.3,0.8,0.7,1.1,1.2c0.3,0.5,0.4,1.2,0.4,1.9s-0.1,1.3-0.4,1.9s-0.6,1-1.1,1.3
			c-0.5,0.3-1,0.5-1.6,0.5c-0.5,0-0.9-0.1-1.3-0.3c-0.4-0.2-0.7-0.5-0.9-0.8v0.1c0,0.3-0.1,0.5-0.3,0.7c-0.2,0.2-0.4,0.3-0.8,0.3
			c-0.3,0-0.6-0.1-0.8-0.3c-0.2-0.2-0.3-0.4-0.3-0.7V31c0-0.3,0.1-0.5,0.3-0.7c0.2-0.2,0.5-0.3,0.8-0.3c0.3,0,0.6,0.1,0.7,0.3
			c0.2,0.2,0.3,0.4,0.3,0.7V34c0.2-0.3,0.5-0.6,0.9-0.8s0.8-0.3,1.3-0.3C247.6,33,248.1,33.1,248.6,33.4z M247.5,38
			c0.3-0.3,0.4-0.8,0.4-1.5c0-0.6-0.1-1.1-0.4-1.4c-0.3-0.3-0.7-0.5-1.1-0.5c-0.5,0-0.9,0.2-1.1,0.5s-0.4,0.8-0.4,1.4
			c0,0.6,0.1,1.1,0.4,1.5s0.7,0.5,1.1,0.5C246.9,38.5,247.3,38.3,247.5,38z"/>
		<path class="st3" d="M252.5,39.7c-0.6-0.3-1-0.7-1.3-1.2c-0.3-0.5-0.4-1.2-0.4-1.9c0-0.7,0.1-1.4,0.4-1.9c0.3-0.5,0.7-0.9,1.3-1.2
			c0.6-0.3,1.2-0.4,1.9-0.4c0.7,0,1.4,0.1,1.9,0.4c0.6,0.3,1,0.7,1.3,1.2c0.3,0.5,0.4,1.2,0.4,1.9c0,0.7-0.1,1.4-0.4,1.9
			c-0.3,0.5-0.7,1-1.3,1.2c-0.6,0.3-1.2,0.4-1.9,0.4C253.7,40.1,253,40,252.5,39.7z M255.9,36.5c0-0.7-0.1-1.2-0.4-1.5
			c-0.3-0.3-0.6-0.5-1.1-0.5c-1,0-1.5,0.7-1.5,2c0,1.3,0.5,2,1.5,2C255.4,38.5,255.9,37.8,255.9,36.5z"/>
		<path class="st3" d="M260.5,39.7c-0.6-0.3-1-0.7-1.3-1.2c-0.3-0.5-0.4-1.2-0.4-1.9c0-0.7,0.1-1.4,0.4-1.9c0.3-0.5,0.7-0.9,1.3-1.2
			c0.6-0.3,1.2-0.4,1.9-0.4c0.7,0,1.4,0.1,1.9,0.4c0.6,0.3,1,0.7,1.3,1.2c0.3,0.5,0.4,1.2,0.4,1.9c0,0.7-0.1,1.4-0.4,1.9
			c-0.3,0.5-0.7,1-1.3,1.2s-1.2,0.4-1.9,0.4C261.7,40.1,261,40,260.5,39.7z M263.9,36.5c0-0.7-0.1-1.2-0.4-1.5
			c-0.3-0.3-0.6-0.5-1.1-0.5c-1,0-1.5,0.7-1.5,2c0,1.3,0.5,2,1.5,2C263.4,38.5,263.9,37.8,263.9,36.5z"/>
		<path class="st3" d="M273.9,39.1c0,0.3-0.1,0.5-0.3,0.7c-0.2,0.2-0.4,0.3-0.7,0.3c-0.2,0-0.5-0.1-0.7-0.3l-3.1-2.8v2.1
			c0,0.3-0.1,0.6-0.3,0.7c-0.2,0.2-0.5,0.3-0.7,0.3c-0.3,0-0.6-0.1-0.8-0.3c-0.2-0.2-0.3-0.4-0.3-0.7v-8c0-0.3,0.1-0.6,0.3-0.7
			c0.2-0.2,0.5-0.3,0.8-0.3c0.3,0,0.5,0.1,0.7,0.3c0.2,0.2,0.3,0.4,0.3,0.7v5l2.8-2.8c0.2-0.2,0.4-0.3,0.7-0.3
			c0.3,0,0.5,0.1,0.7,0.3c0.2,0.2,0.3,0.4,0.3,0.7c0,0.2-0.1,0.5-0.3,0.7l-1.9,1.8l2.1,1.9C273.8,38.6,273.9,38.8,273.9,39.1z"/>
		<path class="st3" d="M275.2,36.8c-0.1-0.1-0.2-0.3-0.2-0.5l-0.6-4.9c0,0,0-0.1,0-0.2c0-0.3,0.1-0.6,0.4-0.8
			c0.2-0.2,0.5-0.3,0.9-0.3c0.4,0,0.7,0.1,0.9,0.3c0.2,0.2,0.4,0.5,0.4,0.8c0,0.1,0,0.1,0,0.2l-0.6,4.9c0,0.2-0.1,0.4-0.2,0.5
			c-0.1,0.1-0.3,0.2-0.4,0.2S275.4,36.9,275.2,36.8z M274.8,39.7c-0.2-0.2-0.3-0.5-0.3-0.9c0-0.3,0.1-0.6,0.3-0.9
			c0.2-0.2,0.5-0.3,0.9-0.3c0.3,0,0.6,0.1,0.9,0.3c0.2,0.2,0.3,0.5,0.3,0.9c0,0.3-0.1,0.6-0.3,0.9c-0.2,0.2-0.5,0.3-0.9,0.3
			C275.3,40.1,275,40,274.8,39.7z"/>
	</g>
</g>
</svg>
