<svg xmlns="http://www.w3.org/2000/svg" width="28.442" height="28.416" viewBox="0 0 28.442 28.416">
  <g id="cooking" transform="translate(0 -0.227)">
    <path id="Caminho_1515" data-name="Caminho 1515" d="M4.166,214.773a2.5,2.5,0,0,1-2.5-2.5.834.834,0,0,1,.833-.833H5l-1.666-1.667H2.5a2.5,2.5,0,0,0-2.5,2.5,4.171,4.171,0,0,0,4.166,4.166.833.833,0,1,0,0-1.666Z" transform="translate(0 -197.905)" fill="#bfbfbf"/>
    <path id="Caminho_1516" data-name="Caminho 1516" d="M424.5,209.773h-.833L422,211.44h2.5a.834.834,0,0,1,.833.833,2.5,2.5,0,0,1-2.5,2.5.833.833,0,1,0,0,1.666A4.171,4.171,0,0,0,427,212.273,2.5,2.5,0,0,0,424.5,209.773Z" transform="translate(-398.558 -197.905)" fill="#767676"/>
    <path id="Caminho_1517" data-name="Caminho 1517" d="M301.833,71.294a.833.833,0,1,1,0-1.666,1.279,1.279,0,0,0,1.523-1.523,2.9,2.9,0,0,1,3.191-3.191.833.833,0,0,1,0,1.666,1.28,1.28,0,0,0-1.526,1.524,2.9,2.9,0,0,1-3.19,3.19Z" transform="translate(-284.279 -61.093)" fill="#fff"/>
    <path id="Caminho_1518" data-name="Caminho 1518" d="M391.833,71.294a.833.833,0,1,1,0-1.666,1.279,1.279,0,0,0,1.523-1.523,2.9,2.9,0,0,1,3.191-3.191.833.833,0,0,1,0,1.666,1.28,1.28,0,0,0-1.526,1.524,2.9,2.9,0,0,1-3.19,3.19Z" transform="translate(-369.28 -61.093)" fill="#fff"/>
    <path id="Caminho_1519" data-name="Caminho 1519" d="M70.888,209.773H60v12.61a4.171,4.171,0,0,0,4.166,4.166H77.609a4.171,4.171,0,0,0,4.166-4.166v-12.61Z" transform="translate(-56.667 -197.905)" fill="#f2a8a8"/>
    <path id="Caminho_1520" data-name="Caminho 1520" d="M266.888,222.383v-12.61H256v16.776h6.722A4.171,4.171,0,0,0,266.888,222.383Z" transform="translate(-241.779 -197.905)" fill="#f86464"/>
    <g id="Grupo_619" data-name="Grupo 619" transform="translate(3.333 0.227)">
      <path id="Caminho_1521" data-name="Caminho 1521" d="M178.846,17.867a3.333,3.333,0,1,0-6.063,2.77l.347.758,3.949-1.8,2.114-.966Z" transform="translate(-166.232 -15.049)" fill="#bfbfbf"/>
      <path id="Caminho_1522" data-name="Caminho 1522" d="M210.182,16.181a3.3,3.3,0,0,0-2.659.039h0l1.728,3.791.923-.422,2.114-.966-.347-.757A3.313,3.313,0,0,0,210.182,16.181Z" transform="translate(-199.326 -15.049)" fill="#767676"/>
      <path id="Caminho_1523" data-name="Caminho 1523" d="M79.781.76a.832.832,0,0,0-1.1-.412L70.848,3.894,60.487,8.627a.833.833,0,0,0,.692,1.516l9.664-4.415,8.526-3.864a.833.833,0,0,0,.412-1.1Z" transform="translate(-60 -0.27)" fill="#f2a8a8"/>
      <path id="Caminho_1524" data-name="Caminho 1524" d="M241.511.3l-7.829,3.546-1.277.583.691,1.516.581-.265L242.2,1.819A.833.833,0,1,0,241.511.3Z" transform="translate(-222.828 -0.227)" fill="#f86464"/>
    </g>
  </g>
</svg>
