<?xml version="1.0" encoding="utf-8"?>
<!-- Generator: Adobe Illustrator 25.0.1, SVG Export Plug-In . SVG Version: 6.00 Build 0)  -->
<svg version="1.1" id="Camada_1" xmlns="http://www.w3.org/2000/svg" xmlns:xlink="http://www.w3.org/1999/xlink" x="0px" y="0px"
	 viewBox="0 0 1244 1527.1" style="enable-background:new 0 0 1244 1527.1;" xml:space="preserve">
<style type="text/css">
	.st0{fill:none;stroke:#BFBFBF;stroke-width:5;stroke-dasharray:13,3;}
	.st1{fill:none;stroke:#3AA252;stroke-width:8;stroke-dasharray:17,7;}
	.st2{fill:#FFFFFF;}
	.st3{fill:none;stroke:#BFBFBF;stroke-width:8;}
	.st4{fill:none;stroke:#707070;stroke-width:8.0036;stroke-miterlimit:4.0018;stroke-dasharray:17.0077,7.0032;}
	.st5{fill:none;stroke:#3277B4;stroke-width:8;stroke-dasharray:17,7;}
	.st6{fill:#3277B4;}
	.st7{font-family:'ProximaNova-Semibold';}
	.st8{font-size:16px;}
	.st9{fill:none;stroke:#E5A11B;stroke-width:8;stroke-dasharray:17,7;}
	.st10{fill:none;stroke:#F86464;stroke-width:16;}
	.st11{fill:none;stroke:#F86464;stroke-width:16;stroke-dasharray:17,7;}
	.st12{fill:none;stroke:#F86464;stroke-width:7;}
	.st13{fill:none;stroke:#F86464;stroke-width:8;}
	.st14{fill:#F86464;}
	.st15{fill:#E5A11B;}
	.st16{fill:#BFBFBF;}
</style>
<g id="Grupo_2055" transform="translate(169.593 26)">
	<line id="Lvl1-2" class="st0" x1="-168.3" y1="259.9" x2="1075.7" y2="259.9"/>
	<line id="Lvl2-3" class="st0" x1="-168.3" y1="736.9" x2="1075.7" y2="736.9"/>
	<path id="Vegan_path_Unexplored" class="st1" d="M370.4,918c-71.6-83.8-161.6-106.9-248-101.6s-199.6,64.1-235.2,154.1
		s-25.8,211.2,37.4,251.2s171.1,26.7,212-17.8s67.7-176.4,0-216.5"/>
	<g id="Elipse_308" transform="translate(208.407 784)">
		<circle class="st2" cx="36.3" cy="49.4" r="35"/>
		<circle class="st3" cx="36.3" cy="49.4" r="31"/>
	</g>
	<g id="Elipse_309" transform="translate(47.407 775)">
		<circle class="st2" cx="36.3" cy="49.4" r="35"/>
		<circle class="st3" cx="36.3" cy="49.4" r="31"/>
	</g>
	<g id="Elipse_310" transform="translate(-111.593 854)">
		<circle class="st2" cx="36.3" cy="49.4" r="35"/>
		<circle class="st3" cx="36.3" cy="49.4" r="31"/>
	</g>
	<g id="Elipse_311" transform="translate(-169.593 992)">
		<circle class="st2" cx="36.3" cy="49.4" r="35"/>
		<circle class="st3" cx="36.3" cy="49.4" r="31"/>
	</g>
	<g id="Elipse_312" transform="translate(-146.593 1130)">
		<circle class="st2" cx="36.3" cy="49.4" r="35"/>
		<circle class="st3" cx="36.3" cy="49.4" r="31"/>
	</g>
	<g id="Elipse_313" transform="translate(12.407 1196)">
		<circle class="st2" cx="36.3" cy="49.4" r="35"/>
		<circle class="st3" cx="36.3" cy="49.4" r="31"/>
	</g>
	<g id="Elipse_314" transform="translate(138.407 1095)">
		<circle class="st2" cx="36.3" cy="49.4" r="35"/>
		<circle class="st3" cx="36.3" cy="49.4" r="31"/>
	</g>
	<g id="Elipse_315" transform="translate(103.407 946)">
		<circle class="st2" cx="36.3" cy="49.4" r="35"/>
		<circle class="st3" cx="36.3" cy="49.4" r="31"/>
	</g>
	<g id="Xmas_path">
		<path id="Xmas_path_Unexplored" class="st4" d="M485.3,642.8c53.6,42.2,128.8,67.5,181.7,38.8c52.8-28.7,102.9-120.7,76.5-166.1
			c-26.4-45.4-141.2-35.5-168.3-73.9c-27.1-38.4-12.8-130.2,69.1-115.5"/>
		<g id="Elipse_300" transform="translate(599.407 642)">
			<circle class="st2" cx="36.3" cy="49.4" r="35"/>
			<circle class="st3" cx="36.3" cy="49.4" r="31"/>
		</g>
		<g id="Elipse_301" transform="translate(712.407 476)">
			<circle class="st2" cx="36.3" cy="49.4" r="35"/>
			<circle class="st3" cx="36.3" cy="49.4" r="31"/>
		</g>
		<g id="Elipse_302" transform="translate(580.407 412)">
			<circle class="st2" cx="36.3" cy="49.4" r="35"/>
			<circle class="st3" cx="36.3" cy="49.4" r="31"/>
		</g>
		<g id="Elipse_303" transform="translate(610.407 282)">
			<circle class="st2" cx="36.3" cy="49.4" r="35"/>
			<circle class="st3" cx="36.3" cy="49.4" r="31"/>
		</g>
	</g>
	<path id="Cuisine_path_Unexplored" class="st5" d="M410.2,195.6c31.1,15,101.6,4.5,126.4-27.2c24.7-31.6,28.8-119.6,86.4-138.3
		c57.6-18.7,143.6,2.8,176.4,62.9s15.8,123.3-26.8,189.4s-1.2,163.8,83.9,161s159.8-3.2,190.6,84.4"/>
	<g id="Elipse_291" transform="translate(505.407 119)">
		<circle class="st2" cx="36.3" cy="49.4" r="35"/>
		<circle class="st3" cx="36.3" cy="49.4" r="31"/>
	</g>
	<g id="Elipse_292" transform="translate(657.407 -26)">
		<circle class="st2" cx="36.3" cy="49.4" r="35"/>
		<circle class="st3" cx="36.3" cy="49.4" r="31"/>
	</g>
	<g id="Elipse_293" transform="translate(782.407 146)">
		<circle class="st2" cx="36.3" cy="49.4" r="35"/>
		<circle class="st3" cx="36.3" cy="49.4" r="31"/>
	</g>
	<g id="Elipse_294" transform="translate(727.407 301)">
		<circle class="st2" cx="36.3" cy="49.4" r="35"/>
		<circle class="st3" cx="36.3" cy="49.4" r="31"/>
	</g>
	<g id="Elipse_295" transform="translate(839.407 398)">
		<circle class="st2" cx="36.3" cy="49.4" r="35"/>
		<circle class="st3" cx="36.3" cy="49.4" r="31"/>
	</g>
	<g id="Elipse_296" transform="translate(1004.407 468)">
		<circle class="st2" cx="36.3" cy="49.4" r="35"/>
		<circle class="st3" cx="36.3" cy="49.4" r="31"/>
	</g>
	<text transform="matrix(1 0 0 1 462.9158 114.3765)" class="st6 st7 st8">French</text>
	<text transform="matrix(1 0 0 1 654.1078 84.3765)" class="st6 st7 st8">Italian</text>
	<text transform="matrix(1 0 0 1 699.0839 197.3765)" class="st6 st7 st8">Greek</text>
	<text transform="matrix(1 0 0 1 769.5636 345.3765)" class="st6 st7 st8">Chinese</text>
	<g id="Patisserie_path">
		<path id="Patisserie_path_Unexplored" class="st9" d="M370.4,222c-11.5,32.4-20.8,76.7-56.4,95.5s-99.1,1.4-127.4,40.6
			s-5.8,66.5,10.3,85.4s38.9,35.5,38.6,74.4c-0.2,38.9-40.1,71.3-102.7,65.5s-80.1-54.2-71.5-97.7S16.7,414.2-12.6,413"/>
		<g id="Elipse_286" transform="translate(267.407 266)">
			<circle class="st2" cx="36.3" cy="49.4" r="35"/>
			<circle class="st3" cx="36.3" cy="49.4" r="31"/>
		</g>
		<g id="Elipse_287" transform="translate(145.407 363)">
			<circle class="st2" cx="36.3" cy="49.4" r="35"/>
			<circle class="st3" cx="36.3" cy="49.4" r="31"/>
		</g>
		<g id="Elipse_288" transform="translate(171.407 520)">
			<circle class="st2" cx="36.3" cy="49.4" r="35"/>
			<circle class="st3" cx="36.3" cy="49.4" r="31"/>
		</g>
		<g id="Elipse_289" transform="translate(28.407 480)">
			<circle class="st2" cx="36.3" cy="49.4" r="35"/>
			<circle class="st3" cx="36.3" cy="49.4" r="31"/>
		</g>
		<g id="Elipse_290" transform="translate(-41.593 363)">
			<circle class="st2" cx="36.3" cy="49.4" r="35"/>
			<circle class="st3" cx="36.3" cy="49.4" r="31"/>
		</g>
	</g>
	<g id="Main_path">
		<path id="Main_path_Completed" class="st10" d="M397.2,49.4c-37.3,75-27.2,120.4-22,141.4s55.9,110.7,48.5,150.8"/>
		<path id="Main_path_Unexplored" class="st11" d="M422.5,347.5c-8.6,40.6-48.2,79.1-48.2,128.1s55.4,86.5,78,119.7
			s67,134.4,27.4,188.7c-33,45.3-55.5,58.5-99.8,111.9c-40,54.1-60.9,138.7-50,212.3c9.9,66.6,88.9,144.3,114.4,199.3
			c33.6,72.5-14.1,203.9-14.2,207.7"/>
		<g id="Elipse_283" transform="translate(361.407)">
			<circle class="st2" cx="36.3" cy="49.4" r="35"/>
			<circle class="st12" cx="36.3" cy="49.4" r="31.5"/>
		</g>
		<g id="Elipse_284" transform="translate(343.407 146)">
			<circle class="st2" cx="36.3" cy="49.4" r="35"/>
			<circle class="st13" cx="36.3" cy="49.4" r="31"/>
		</g>
		<g id="Elipse_285" transform="translate(388.407 292)">
			<circle class="st2" cx="36.3" cy="49.4" r="35"/>
			<circle class="st3" cx="36.3" cy="49.4" r="31"/>
		</g>
		<g id="Elipse_297" transform="translate(337.407 439)">
			<circle class="st2" cx="36.3" cy="49.4" r="35"/>
			<circle class="st3" cx="36.3" cy="49.4" r="31"/>
		</g>
		<g id="Elipse_298" transform="translate(431.407 570)">
			<circle class="st2" cx="36.3" cy="49.4" r="35"/>
			<circle class="st3" cx="36.3" cy="49.4" r="31"/>
		</g>
		<g id="Elipse_299" transform="translate(433.407 737)">
			<circle class="st2" cx="36.3" cy="49.4" r="35"/>
			<circle class="st3" cx="36.3" cy="49.4" r="31"/>
		</g>
		<g id="Elipse_304" transform="translate(330.407 870)">
			<circle class="st2" cx="36.3" cy="49.4" r="35"/>
			<circle class="st3" cx="36.3" cy="49.4" r="31"/>
		</g>
		<g id="Elipse_305" transform="translate(290.407 1017)">
			<circle class="st2" cx="36.3" cy="49.4" r="35"/>
			<circle class="st3" cx="36.3" cy="49.4" r="31"/>
		</g>
		<g id="Elipse_306" transform="translate(360.407 1179)">
			<circle class="st2" cx="36.3" cy="49.4" r="35"/>
			<circle class="st3" cx="36.3" cy="49.4" r="31"/>
		</g>
		<g id="Elipse_307" transform="translate(419.407 1343)">
			<circle class="st2" cx="36.3" cy="49.4" r="35"/>
			<circle class="st3" cx="36.3" cy="49.4" r="31"/>
		</g>
		<text transform="matrix(1 0 0 1 291.7479 37.3765)" class="st14 st7 st8">Kitchen </text>
		<text transform="matrix(1 0 0 1 303.0998 57.3765)" class="st14 st7 st8">SOS</text>
		<text transform="matrix(1 0 0 1 263.7478 186.3765)" class="st14 st7 st8">Kitchen </text>
		<text transform="matrix(1 0 0 1 267.7718 206.3765)" class="st14 st7 st8">Basics</text>
		<text transform="matrix(1 0 0 1 148.2598 293.3765)" class="st15 st7 st8">Puff pastry</text>
		<text transform="matrix(1 0 0 1 217.8998 393.3765)" class="st15 st7 st8">Batter</text>
		<text transform="matrix(1 0 0 1 457.8038 311.3765)" class="st14 st7 st8">Salad </text>
		<text transform="matrix(1 0 0 1 466.7078 331.3765)" class="st14 st7 st8">101</text>
		<text transform="matrix(1 0 0 1 289.6998 460.3765)" class="st14 st7 st8">Sauce </text>
		<text transform="matrix(1 0 0 1 300.7078 480.3765)" class="st14 st7 st8">101</text>
	</g>
	<path id="Icon_material-lock" class="st16" d="M476.7,612.9h-1.5v-3c0-4.1-3.4-7.5-7.5-7.5s-7.5,3.4-7.5,7.5v3h-1.5
		c-1.7,0-3,1.3-3,3v15c0,1.7,1.3,3,3,3h18c1.7,0,3-1.3,3-3v-15C479.7,614.2,478.4,612.9,476.7,612.9z M467.7,626.4c-1.7,0-3-1.3-3-3
		s1.3-3,3-3s3,1.3,3,3S469.4,626.4,467.7,626.4z M472.4,612.9h-9.3v-3c0-2.6,2.1-4.7,4.6-4.7s4.7,2.1,4.7,4.6l0,0L472.4,612.9
		L472.4,612.9z"/>
	<path id="Icon_material-lock_1_" class="st16" d="M382.7,481.1h-1.5v-3c0-4.1-3.4-7.5-7.5-7.5s-7.5,3.4-7.5,7.5v3h-1.5
		c-1.7,0-3,1.3-3,3v15c0,1.7,1.3,3,3,3h18c1.7,0,3-1.3,3-3v-15C385.7,482.4,384.4,481.1,382.7,481.1z M373.7,494.6c-1.7,0-3-1.3-3-3
		s1.3-3,3-3s3,1.3,3,3S375.4,494.6,373.7,494.6z M378.4,481.1h-9.3v-3c0-2.6,2.1-4.7,4.6-4.7s4.7,2.1,4.7,4.6l0,0L378.4,481.1
		L378.4,481.1z"/>
	<path id="Icon_material-lock_2_" class="st16" d="M433.7,334.7h-1.5v-3c0-4.1-3.4-7.5-7.5-7.5s-7.5,3.4-7.5,7.5v3h-1.5
		c-1.7,0-3,1.3-3,3v15c0,1.7,1.3,3,3,3h18c1.7,0,3-1.3,3-3v-15C436.7,336,435.4,334.7,433.7,334.7z M424.7,348.2c-1.7,0-3-1.3-3-3
		s1.3-3,3-3s3,1.3,3,3S426.4,348.2,424.7,348.2z M429.4,334.7h-9.3v-3c0-2.6,2.1-4.7,4.6-4.7s4.7,2.1,4.7,4.6l0,0L429.4,334.7
		L429.4,334.7z"/>
	<path id="Icon_material-lock_3_" class="st16" d="M312.5,308H311v-3c0-4.1-3.4-7.5-7.5-7.5s-7.5,3.4-7.5,7.5v3h-1.5
		c-1.7,0-3,1.3-3,3v15c0,1.7,1.3,3,3,3h18c1.7,0,3-1.3,3-3v-15C315.5,309.3,314.2,308,312.5,308z M303.5,321.5c-1.7,0-3-1.3-3-3
		s1.3-3,3-3s3,1.3,3,3S305.2,321.5,303.5,321.5z M308.2,308h-9.3v-3c0-2.6,2.1-4.7,4.6-4.7s4.7,2.1,4.7,4.6l0,0L308.2,308L308.2,308
		z"/>
	<path id="Icon_material-lock_4_" class="st16" d="M550.7,162.1h-1.5v-3c0-4.1-3.4-7.5-7.5-7.5c-4.1,0-7.5,3.4-7.5,7.5v3h-1.5
		c-1.7,0-3,1.3-3,3v15c0,1.7,1.3,3,3,3h18c1.7,0,3-1.3,3-3v-15C553.7,163.4,552.4,162.1,550.7,162.1z M541.7,175.6c-1.7,0-3-1.3-3-3
		s1.3-3,3-3s3,1.3,3,3S543.4,175.6,541.7,175.6z M546.4,162.1h-9.3v-3c0-2.6,2.1-4.7,4.6-4.7s4.7,2.1,4.7,4.6l0,0L546.4,162.1
		L546.4,162.1z"/>
	<path id="Icon_material-lock-2" class="st16" d="M702.7,16.8h-1.5v-3c0-4.1-3.4-7.5-7.5-7.5s-7.5,3.4-7.5,7.5v3h-1.5
		c-1.7,0-3,1.3-3,3v15c0,1.7,1.3,3,3,3h18c1.7,0,3-1.3,3-3v-15C705.7,18.1,704.4,16.8,702.7,16.8z M693.7,30.3c-1.7,0-3-1.3-3-3
		c0-1.7,1.3-3,3-3s3,1.3,3,3C696.7,28.9,695.4,30.3,693.7,30.3z M698.4,16.8h-9.3v-3c0-2.6,2.1-4.7,4.6-4.7c2.6,0,4.7,2.1,4.7,4.6
		l0,0V16.8z"/>
	<path id="Icon_material-lock-3" class="st16" d="M826.7,189.8h-1.5v-3c0-4.1-3.4-7.5-7.5-7.5s-7.5,3.4-7.5,7.5v3h-1.5
		c-1.7,0-3,1.3-3,3v15c0,1.7,1.3,3,3,3h18c1.7,0,3-1.3,3-3v-15C829.7,191.1,828.4,189.8,826.7,189.8z M817.7,203.3c-1.7,0-3-1.3-3-3
		s1.3-3,3-3s3,1.3,3,3C820.7,201.9,819.4,203.3,817.7,203.3z M822.4,189.8h-9.3v-3c0-2.6,2.1-4.7,4.6-4.7c2.6,0,4.7,2.1,4.7,4.6l0,0
		V189.8z"/>
	<path id="Icon_material-lock-4" class="st16" d="M772.7,343.8h-1.5v-3c0-4.1-3.4-7.5-7.5-7.5s-7.5,3.4-7.5,7.5v3h-1.5
		c-1.7,0-3,1.3-3,3v15c0,1.7,1.3,3,3,3h18c1.7,0,3-1.3,3-3v-15C775.7,345.1,774.4,343.8,772.7,343.8z M763.7,357.3c-1.7,0-3-1.3-3-3
		s1.3-3,3-3s3,1.3,3,3C766.7,355.9,765.4,357.3,763.7,357.3z M768.4,343.8h-9.3v-3c0-2.6,2.1-4.7,4.6-4.7c2.6,0,4.7,2.1,4.7,4.6l0,0
		V343.8z"/>
	<path id="Icon_material-lock-5" class="st16" d="M883.7,440h-1.5v-3c0-4.1-3.4-7.5-7.5-7.5s-7.5,3.4-7.5,7.5v3h-1.5
		c-1.7,0-3,1.3-3,3v15c0,1.7,1.3,3,3,3h18c1.7,0,3-1.3,3-3v-15C886.7,441.4,885.4,440,883.7,440z M874.7,453.5c-1.7,0-3-1.3-3-3
		s1.3-3,3-3s3,1.3,3,3C877.7,452.2,876.4,453.5,874.7,453.5z M879.4,440h-9.3v-3c0-2.6,2.1-4.7,4.6-4.7c2.6,0,4.7,2.1,4.7,4.6l0,0
		V440z"/>
	<path id="Icon_material-lock-6" class="st16" d="M1049.7,510h-1.5v-3c0-4.1-3.4-7.5-7.5-7.5s-7.5,3.4-7.5,7.5v3h-1.5
		c-1.7,0-3,1.3-3,3v15c0,1.7,1.3,3,3,3h18c1.7,0,3-1.3,3-3v-15C1052.7,511.4,1051.4,510,1049.7,510z M1040.7,523.5c-1.7,0-3-1.3-3-3
		s1.3-3,3-3s3,1.3,3,3C1043.7,522.2,1042.4,523.5,1040.7,523.5z M1045.4,510h-9.3v-3c0-2.6,2.1-4.7,4.6-4.7s4.7,2.1,4.7,4.6l0,0
		L1045.4,510L1045.4,510z"/>
	<path id="Icon_material-lock-7" class="st16" d="M656,323.8h-1.5v-3c0-4.1-3.4-7.5-7.5-7.5s-7.5,3.4-7.5,7.5v3H638
		c-1.7,0-3,1.3-3,3v15c0,1.7,1.3,3,3,3h18c1.7,0,3-1.3,3-3v-15C659,325.1,657.6,323.8,656,323.8z M647,337.3c-1.7,0-3-1.3-3-3
		s1.3-3,3-3s3,1.3,3,3C650,335.9,648.6,337.3,647,337.3z M651.6,323.8h-9.3v-3c0-2.6,2.1-4.7,4.6-4.7c2.6,0,4.7,2.1,4.7,4.6l0,0
		V323.8z"/>
	<path id="Icon_material-lock-8" class="st16" d="M625,454.8h-1.5v-3c0-4.1-3.4-7.5-7.5-7.5s-7.5,3.4-7.5,7.5v3H607
		c-1.7,0-3,1.3-3,3v15c0,1.7,1.3,3,3,3h18c1.7,0,3-1.3,3-3v-15C628,456.1,626.6,454.8,625,454.8z M616,468.3c-1.7,0-3-1.3-3-3
		s1.3-3,3-3s3,1.3,3,3C619,466.9,617.6,468.3,616,468.3z M620.6,454.8h-9.3v-3c0-2.6,2.1-4.7,4.6-4.7c2.6,0,4.7,2.1,4.7,4.6l0,0
		V454.8z"/>
	<path id="Icon_material-lock-9" class="st16" d="M758.7,518.9h-1.5v-3c0-4.1-3.4-7.5-7.5-7.5s-7.5,3.4-7.5,7.5v3h-1.5
		c-1.7,0-3,1.3-3,3v15c0,1.7,1.3,3,3,3h18c1.7,0,3-1.3,3-3v-15C761.7,520.2,760.4,518.9,758.7,518.9z M749.7,532.4c-1.7,0-3-1.3-3-3
		s1.3-3,3-3s3,1.3,3,3S751.4,532.4,749.7,532.4z M754.4,518.9h-9.3v-3c0-2.6,2.1-4.7,4.6-4.7c2.6,0,4.7,2.1,4.7,4.6l0,0V518.9z"/>
	<path id="Icon_material-lock-10" class="st16" d="M645,685.2h-1.5v-3c0-4.1-3.4-7.5-7.5-7.5s-7.5,3.4-7.5,7.5v3H627
		c-1.7,0-3,1.3-3,3v15c0,1.7,1.3,3,3,3h18c1.7,0,3-1.3,3-3v-15C648,686.5,646.6,685.2,645,685.2z M636,698.6c-1.7,0-3-1.3-3-3
		s1.3-3,3-3s3,1.3,3,3S637.6,698.6,636,698.6z M640.6,685.2h-9.3v-3c0-2.6,2.1-4.7,4.6-4.7c2.6,0,4.7,2.1,4.7,4.6l0,0V685.2z"/>
	<path id="Icon_material-lock-11" class="st16" d="M478.3,781.2h-1.5v-3c0-4.1-3.4-7.5-7.5-7.5s-7.5,3.4-7.5,7.5v3h-1.5
		c-1.7,0-3,1.3-3,3v15c0,1.7,1.3,3,3,3h18c1.7,0,3-1.3,3-3v-15C481.3,782.5,479.9,781.2,478.3,781.2z M469.3,794.6c-1.7,0-3-1.3-3-3
		s1.3-3,3-3s3,1.3,3,3S470.9,794.6,469.3,794.6z M473.9,781.2h-9.3v-3c0-2.6,2.1-4.7,4.6-4.7s4.7,2.1,4.7,4.6l0,0L473.9,781.2
		L473.9,781.2z"/>
	<path id="Icon_material-lock-12" class="st16" d="M375.7,912.9h-1.5v-3c0-4.1-3.4-7.5-7.5-7.5s-7.5,3.4-7.5,7.5v3h-1.5
		c-1.7,0-3,1.3-3,3v15c0,1.7,1.3,3,3,3h18c1.7,0,3-1.3,3-3v-15C378.7,914.2,377.4,912.9,375.7,912.9z M366.7,926.4c-1.7,0-3-1.3-3-3
		s1.3-3,3-3s3,1.3,3,3S368.4,926.4,366.7,926.4z M371.4,912.9h-9.3v-3c0-2.6,2.1-4.7,4.6-4.7s4.7,2.1,4.7,4.6l0,0L371.4,912.9
		L371.4,912.9z"/>
	<path id="Icon_material-lock-13" class="st16" d="M335.7,1059.9h-1.5v-3c0-4.1-3.4-7.5-7.5-7.5s-7.5,3.4-7.5,7.5v3h-1.5
		c-1.7,0-3,1.3-3,3v15c0,1.7,1.3,3,3,3h18c1.7,0,3-1.3,3-3v-15C338.7,1061.2,337.4,1059.9,335.7,1059.9z M326.7,1073.4
		c-1.7,0-3-1.3-3-3s1.3-3,3-3s3,1.3,3,3S328.4,1073.4,326.7,1073.4z M331.4,1059.9h-9.3v-3c0-2.6,2.1-4.7,4.6-4.7
		c2.6,0,4.7,2.1,4.7,4.6l0,0L331.4,1059.9L331.4,1059.9z"/>
	<path id="Icon_material-lock-14" class="st16" d="M253.7,828.2h-1.5v-3c0-4.1-3.4-7.5-7.5-7.5s-7.5,3.4-7.5,7.5v3h-1.5
		c-1.7,0-3,1.3-3,3v15c0,1.7,1.3,3,3,3h18c1.7,0,3-1.3,3-3v-15C256.7,829.5,255.4,828.2,253.7,828.2z M244.7,841.6c-1.7,0-3-1.3-3-3
		s1.3-3,3-3s3,1.3,3,3S246.4,841.6,244.7,841.6z M249.4,828.2h-9.3v-3c0-2.6,2.1-4.7,4.6-4.7c2.6,0,4.7,2.1,4.7,4.6l0,0V828.2z"/>
	<path id="Icon_material-lock-15" class="st16" d="M92.7,815.6h-1.5v-3c0-4.1-3.4-7.5-7.5-7.5s-7.5,3.4-7.5,7.5v3h-1.5
		c-1.7,0-3,1.3-3,3v15c0,1.7,1.3,3,3,3h18c1.7,0,3-1.3,3-3v-15C95.7,817,94.4,815.7,92.7,815.6z M83.7,829.2c-1.7,0-3-1.3-3-3
		s1.3-3,3-3s3,1.3,3,3C86.7,827.8,85.4,829.1,83.7,829.2z M88.4,815.6h-9.3v-3c0-2.6,2.1-4.7,4.6-4.7c2.6,0,4.7,2.1,4.7,4.6l0,0
		C88.4,812.5,88.4,815.6,88.4,815.6z"/>
	<path id="Icon_material-lock-16" class="st16" d="M-66.3,892.6h-1.5v-3c0-4.1-3.4-7.5-7.5-7.5s-7.5,3.4-7.5,7.5v3h-1.5
		c-1.7,0-3,1.3-3,3v15c0,1.7,1.3,3,3,3h18c1.7,0,3-1.3,3-3v-15C-63.3,894-64.6,892.7-66.3,892.6z M-75.3,906.2c-1.7,0-3-1.3-3-3
		s1.3-3,3-3s3,1.3,3,3C-72.3,904.8-73.6,906.1-75.3,906.2z M-70.6,892.6h-9.3v-3c0-2.6,2.1-4.7,4.6-4.7c2.6,0,4.7,2.1,4.7,4.6l0,0
		C-70.6,889.5-70.6,892.6-70.6,892.6z"/>
	<path id="Icon_material-lock-17" class="st16" d="M-124.3,1036.2h-1.5v-3c0-4.1-3.4-7.5-7.5-7.5s-7.5,3.4-7.5,7.5v3h-1.5
		c-1.7,0-3,1.3-3,3v15c0,1.7,1.3,3,3,3h18c1.7,0,3-1.3,3-3v-15C-121.3,1037.5-122.6,1036.2-124.3,1036.2z M-133.3,1049.6
		c-1.7,0-3-1.3-3-3s1.3-3,3-3s3,1.3,3,3C-130.3,1048.3-131.6,1049.6-133.3,1049.6z M-128.6,1036.2h-9.3v-3c0-2.6,2.1-4.7,4.6-4.7
		c2.6,0,4.7,2.1,4.7,4.6l0,0V1036.2z"/>
	<path id="Icon_material-lock-18" class="st16" d="M-101.3,1177.2h-1.5v-3c0-4.1-3.4-7.5-7.5-7.5s-7.5,3.4-7.5,7.5v3h-1.5
		c-1.7,0-3,1.3-3,3v15c0,1.7,1.3,3,3,3h18c1.7,0,3-1.3,3-3v-15C-98.3,1178.5-99.6,1177.2-101.3,1177.2z M-110.3,1190.6
		c-1.7,0-3-1.3-3-3s1.3-3,3-3s3,1.3,3,3C-107.3,1189.3-108.6,1190.6-110.3,1190.6z M-105.6,1177.2h-9.3v-3c0-2.6,2.1-4.7,4.6-4.7
		c2.6,0,4.7,2.1,4.7,4.6l0,0C-105.6,1174.1-105.6,1177.2-105.6,1177.2z"/>
	<path id="Icon_material-lock-19" class="st16" d="M57.7,1240.4h-1.5v-3c0-4.1-3.4-7.5-7.5-7.5s-7.5,3.4-7.5,7.5v3h-1.5
		c-1.7,0-3,1.3-3,3v15c0,1.7,1.3,3,3,3h18c1.7,0,3-1.3,3-3v-15C60.7,1241.8,59.4,1240.4,57.7,1240.4z M48.7,1253.9c-1.7,0-3-1.3-3-3
		s1.3-3,3-3s3,1.3,3,3S50.4,1253.9,48.7,1253.9z M53.4,1240.4h-9.3v-3c0-2.6,2.1-4.7,4.6-4.7c2.6,0,4.7,2.1,4.7,4.6l0,0V1240.4z"/>
	<path id="Icon_material-lock-20" class="st16" d="M179.7,1139.2h-1.5v-3c0-4.1-3.4-7.5-7.5-7.5s-7.5,3.4-7.5,7.5v3h-1.5
		c-1.7,0-3,1.3-3,3v15c0,1.7,1.3,3,3,3h18c1.7,0,3-1.3,3-3v-15C182.7,1140.5,181.4,1139.2,179.7,1139.2z M170.7,1152.6
		c-1.7,0-3-1.3-3-3s1.3-3,3-3s3,1.3,3,3C173.7,1151.3,172.4,1152.6,170.7,1152.6z M175.4,1139.2h-9.3v-3c0-2.6,2.1-4.7,4.6-4.7
		c2.6,0,4.7,2.1,4.7,4.6l0,0V1139.2z"/>
	<path id="Icon_material-lock-21" class="st16" d="M148.7,990.2h-1.5v-3c0-4.1-3.4-7.5-7.5-7.5s-7.5,3.4-7.5,7.5v3h-1.5
		c-1.7,0-3,1.3-3,3v15c0,1.7,1.3,3,3,3h18c1.7,0,3-1.3,3-3v-15C151.7,991.5,150.4,990.2,148.7,990.2z M139.7,1003.6
		c-1.7,0-3-1.3-3-3s1.3-3,3-3s3,1.3,3,3S141.4,1003.6,139.7,1003.6z M144.4,990.2h-9.3v-3c0-2.6,2.1-4.7,4.6-4.7
		c2.6,0,4.7,2.1,4.7,4.6l0,0V990.2z"/>
	<path id="Icon_material-lock-22" class="st16" d="M406.2,1220.9h-1.5v-3c0-4.1-3.4-7.5-7.5-7.5s-7.5,3.4-7.5,7.5v3h-1.5
		c-1.7,0-3,1.3-3,3v15c0,1.7,1.3,3,3,3h18c1.7,0,3-1.3,3-3v-15C409.2,1222.2,407.9,1220.9,406.2,1220.9z M397.2,1234.4
		c-1.7,0-3-1.3-3-3s1.3-3,3-3s3,1.3,3,3S398.9,1234.4,397.2,1234.4z M401.9,1220.9h-9.3v-3c0-2.6,2.1-4.7,4.6-4.7
		c2.6,0,4.7,2.1,4.7,4.6l0,0L401.9,1220.9L401.9,1220.9z"/>
	<path id="Icon_material-lock-23" class="st16" d="M465.2,1385.9h-1.5v-3c0-4.1-3.4-7.5-7.5-7.5s-7.5,3.4-7.5,7.5v3h-1.5
		c-1.7,0-3,1.3-3,3v15c0,1.7,1.3,3,3,3h18c1.7,0,3-1.3,3-3v-15C468.2,1387.2,466.9,1385.9,465.2,1385.9z M456.2,1399.4
		c-1.7,0-3-1.3-3-3s1.3-3,3-3s3,1.3,3,3S457.9,1399.4,456.2,1399.4z M460.9,1385.9h-9.3v-3c0-2.6,2.1-4.7,4.6-4.7
		c2.6,0,4.7,2.1,4.7,4.6l0,0L460.9,1385.9L460.9,1385.9z"/>
	<path id="Icon_material-lock-24" class="st16" d="M2.7,404.9H1.2v-3c0-4.1-3.4-7.5-7.5-7.5s-7.5,3.4-7.5,7.5v3h-1.5
		c-1.7,0-3,1.3-3,3v15c0,1.7,1.3,3,3,3h18c1.7,0,3-1.3,3-3v-15C5.7,406.2,4.4,404.9,2.7,404.9z M-6.3,418.4c-1.7,0-3-1.3-3-3
		s1.3-3,3-3s3,1.3,3,3C-3.3,417.1-4.6,418.4-6.3,418.4z M-1.6,404.9h-9.3v-3c0-2.6,2.1-4.7,4.6-4.7s4.7,2.1,4.7,4.6l0,0
		C-1.6,401.8-1.6,404.9-1.6,404.9z"/>
	<path id="Icon_material-lock-25" class="st16" d="M74.7,521.9h-1.5v-3c0-4.1-3.4-7.5-7.5-7.5s-7.5,3.4-7.5,7.5v3h-1.5
		c-1.7,0-3,1.3-3,3v15c0,1.7,1.3,3,3,3h18c1.7,0,3-1.3,3-3v-15C77.7,523.2,76.4,521.9,74.7,521.9z M65.7,535.4c-1.7,0-3-1.3-3-3
		s1.3-3,3-3c1.7,0,3,1.3,3,3S67.4,535.4,65.7,535.4z M70.4,521.9h-9.3v-3c0-2.6,2.1-4.7,4.6-4.7s4.7,2.1,4.7,4.6l0,0V521.9z"/>
	<path id="Icon_material-lock-26" class="st16" d="M218.7,562.9h-1.5v-3c0-4.1-3.4-7.5-7.5-7.5s-7.5,3.4-7.5,7.5v3h-1.5
		c-1.7,0-3,1.3-3,3v15c0,1.7,1.3,3,3,3h18c1.7,0,3-1.3,3-3v-15C221.7,564.2,220.4,562.9,218.7,562.9z M209.7,576.4c-1.7,0-3-1.3-3-3
		s1.3-3,3-3s3,1.3,3,3S211.4,576.4,209.7,576.4z M214.4,562.9h-9.3v-3c0-2.6,2.1-4.7,4.6-4.7c2.6,0,4.7,2.1,4.7,4.6l0,0V562.9z"/>
	<path id="Icon_material-lock-27" class="st16" d="M190.7,404.9h-1.5v-3c0-4.1-3.4-7.5-7.5-7.5s-7.5,3.4-7.5,7.5v3h-1.5
		c-1.7,0-3,1.3-3,3v15c0,1.7,1.3,3,3,3h18c1.7,0,3-1.3,3-3v-15C193.7,406.2,192.4,404.9,190.7,404.9z M181.7,418.4c-1.7,0-3-1.3-3-3
		s1.3-3,3-3s3,1.3,3,3S183.4,418.4,181.7,418.4z M186.4,404.9h-9.3v-3c0-2.6,2.1-4.7,4.6-4.7c2.6,0,4.7,2.1,4.7,4.6l0,0V404.9z"/>
</g>
</svg>
