<?xml version="1.0" encoding="utf-8"?>
<!-- Generator: Adobe Illustrator 25.0.1, SVG Export Plug-In . SVG Version: 6.00 Build 0)  -->
<svg version="1.1" id="Camada_1" xmlns="http://www.w3.org/2000/svg" xmlns:xlink="http://www.w3.org/1999/xlink" x="0px" y="0px"
	 viewBox="0 0 1244 1527.1" style="enable-background:new 0 0 1244 1527.1;" xml:space="preserve">
<style type="text/css">
	.st0{fill:none;stroke:#BFBFBF;stroke-width:5;stroke-dasharray:13,3;}
	.st1{fill:none;stroke:#3AA252;stroke-width:8;stroke-dasharray:17,7;}
	.st2{fill:#FFFFFF;}
	.st3{fill:none;stroke:#BFBFBF;stroke-width:8;}
	.st4{fill:none;stroke:#707070;stroke-width:8.0036;stroke-miterlimit:4.0018;stroke-dasharray:17.0077,7.0032;}
	.st5{fill:none;stroke:#3277B4;stroke-width:8;stroke-dasharray:17,7;}
	.st6{fill:none;stroke:#3277B4;stroke-width:8;}
	.st7{fill:#3277B4;}
	.st8{font-family:'ProximaNova-Semibold';}
	.st9{font-size:16px;}
	.st10{fill:none;stroke:#E5A11B;stroke-width:8;stroke-dasharray:17,7;}
	.st11{fill:none;stroke:#F86464;stroke-width:16;}
	.st12{fill:none;stroke:#F86464;stroke-width:16;stroke-dasharray:17,7;}
	.st13{fill:none;stroke:#F86464;stroke-width:7;}
	.st14{fill:none;stroke:#F86464;stroke-width:8;}
	.st15{fill:#F86464;}
	.st16{fill:#E5A11B;}
	.st17{fill:#BFBFBF;}
</style>
<g id="Grupo_2055" transform="translate(169.593 26)">
	<line id="Lvl1-2" class="st0" x1="-169.6" y1="245.5" x2="1074.4" y2="245.5"/>
	<line id="Lvl2-3" class="st0" x1="-169.6" y1="722.5" x2="1074.4" y2="722.5"/>
	<path id="Vegan_path_Unexplored" class="st1" d="M369.1,903.6c-71.6-83.8-161.6-106.9-248-101.6s-199.6,64.1-235.2,154.1
		s-25.8,211.2,37.4,251.2s171.1,26.7,212-17.8s67.7-176.4,0-216.5"/>
	<g id="Elipse_308" transform="translate(208.407 784)">
		<circle class="st2" cx="35" cy="35" r="35"/>
		<circle class="st3" cx="35" cy="35" r="31"/>
	</g>
	<g id="Elipse_309" transform="translate(47.407 775)">
		<circle class="st2" cx="35" cy="35" r="35"/>
		<circle class="st3" cx="35" cy="35" r="31"/>
	</g>
	<g id="Elipse_310" transform="translate(-111.593 854)">
		<circle class="st2" cx="35" cy="35" r="35"/>
		<circle class="st3" cx="35" cy="35" r="31"/>
	</g>
	<g id="Elipse_311" transform="translate(-169.593 992)">
		<circle class="st2" cx="35" cy="35" r="35"/>
		<circle class="st3" cx="35" cy="35" r="31"/>
	</g>
	<g id="Elipse_312" transform="translate(-146.593 1130)">
		<circle class="st2" cx="35" cy="35" r="35"/>
		<circle class="st3" cx="35" cy="35" r="31"/>
	</g>
	<g id="Elipse_313" transform="translate(12.407 1196)">
		<circle class="st2" cx="35" cy="35" r="35"/>
		<circle class="st3" cx="35" cy="35" r="31"/>
	</g>
	<g id="Elipse_314" transform="translate(138.407 1095)">
		<circle class="st2" cx="35" cy="35" r="35"/>
		<circle class="st3" cx="35" cy="35" r="31"/>
	</g>
	<g id="Elipse_315" transform="translate(103.407 946)">
		<circle class="st2" cx="35" cy="35" r="35"/>
		<circle class="st3" cx="35" cy="35" r="31"/>
	</g>
	<g id="Xmas_path">
		<path id="Xmas_path_Unexplored" class="st4" d="M484,628.4c53.6,42.2,128.8,67.5,181.7,38.8c52.8-28.7,102.9-120.7,76.5-166.1
			S601,465.6,573.9,427.2C546.8,388.8,561.1,297,643,311.7"/>
		<g id="Elipse_300" transform="translate(599.407 642)">
			<circle class="st2" cx="35" cy="35" r="35"/>
			<circle class="st3" cx="35" cy="35" r="31"/>
		</g>
		<g id="Elipse_301" transform="translate(712.407 476)">
			<circle class="st2" cx="35" cy="35" r="35"/>
			<circle class="st3" cx="35" cy="35" r="31"/>
		</g>
		<g id="Elipse_302" transform="translate(580.407 412)">
			<circle class="st2" cx="35" cy="35" r="35"/>
			<circle class="st3" cx="35" cy="35" r="31"/>
		</g>
		<g id="Elipse_303" transform="translate(610.407 282)">
			<circle class="st2" cx="35" cy="35" r="35"/>
			<circle class="st3" cx="35" cy="35" r="31"/>
		</g>
	</g>
	<g id="Cuisine_path">
		<path id="Cuisine_path_Unexplored" class="st5" d="M408.9,181.2c31.1,15,101.6,4.5,126.4-27.2c24.7-31.6,28.8-119.6,86.4-138.3
			c57.6-18.7,143.6,2.8,176.4,62.9s15.8,123.3-26.8,189.4s-1.2,163.8,83.9,161s159.8-3.2,190.6,84.4"/>
		<path id="Cuisine_path_Explored" class="st6" d="M408.9,181.2c31.1,15,101.6,4.5,126.4-27.2"/>
		<g id="Elipse_291" transform="translate(505.407 119)">
			<circle class="st2" cx="35" cy="35" r="35"/>
			<circle class="st3" cx="35" cy="35" r="31"/>
		</g>
		<g id="Elipse_292" transform="translate(657.407 -26)">
			<circle class="st2" cx="35" cy="35" r="35"/>
			<circle class="st3" cx="35" cy="35" r="31"/>
		</g>
		<g id="Elipse_293" transform="translate(782.407 146)">
			<circle class="st2" cx="35" cy="35" r="35"/>
			<circle class="st3" cx="35" cy="35" r="31"/>
		</g>
		<g id="Elipse_294" transform="translate(727.407 301)">
			<circle class="st2" cx="35" cy="35" r="35"/>
			<circle class="st3" cx="35" cy="35" r="31"/>
		</g>
		<g id="Elipse_295" transform="translate(839.407 398)">
			<circle class="st2" cx="35" cy="35" r="35"/>
			<circle class="st3" cx="35" cy="35" r="31"/>
		</g>
		<g id="Elipse_296" transform="translate(1004.407 468)">
			<circle class="st2" cx="35" cy="35" r="35"/>
			<circle class="st3" cx="35" cy="35" r="31"/>
		</g>
		<text transform="matrix(1 0 0 1 461.599 100)" class="st7 st8 st9">French</text>
		<text transform="matrix(1 0 0 1 652.791 70)" class="st7 st8 st9">Italian</text>
		<text transform="matrix(1 0 0 1 697.767 183)" class="st7 st8 st9">Greek</text>
		<text transform="matrix(1 0 0 1 768.2469 331)" class="st7 st8 st9">Chinese</text>
	</g>
	<g id="Patisserie_path">
		<path id="Patisserie_path_Unexplored" class="st10" d="M369.1,207.6c-11.5,32.4-20.8,76.7-56.4,95.5s-99.1,1.4-127.4,40.6
			s-5.8,66.5,10.3,85.4s38.9,35.5,38.6,74.4c-0.2,38.9-40.1,71.3-102.7,65.5s-80.1-54.2-71.5-97.7s-44.6-71.5-73.9-72.7"/>
		<g id="Elipse_286" transform="translate(267.407 266)">
			<circle class="st2" cx="35" cy="35" r="35"/>
			<circle class="st3" cx="35" cy="35" r="31"/>
		</g>
		<g id="Elipse_287" transform="translate(145.407 363)">
			<circle class="st2" cx="35" cy="35" r="35"/>
			<circle class="st3" cx="35" cy="35" r="31"/>
		</g>
		<g id="Elipse_288" transform="translate(171.407 520)">
			<circle class="st2" cx="35" cy="35" r="35"/>
			<circle class="st3" cx="35" cy="35" r="31"/>
		</g>
		<g id="Elipse_289" transform="translate(28.407 480)">
			<circle class="st2" cx="35" cy="35" r="35"/>
			<circle class="st3" cx="35" cy="35" r="31"/>
		</g>
		<g id="Elipse_290" transform="translate(-41.593 363)">
			<circle class="st2" cx="35" cy="35" r="35"/>
			<circle class="st3" cx="35" cy="35" r="31"/>
		</g>
	</g>
	<g id="Main_path">
		<path id="Main_path_Completed" class="st11" d="M395.9,35c-37.3,75-27.2,120.4-22,141.4s55.9,110.7,48.5,150.8"/>
		<path id="Main_path_Unexplored" class="st12" d="M421.2,333.1c-8.6,40.6-48.2,79.1-48.2,128.1s55.4,86.5,78,119.7
			s67,134.4,27.4,188.7c-33,45.3-55.5,58.5-99.8,111.9c-40,54.1-60.9,138.7-50,212.3c9.9,66.6,88.9,144.3,114.4,199.3
			c33.6,72.5-14.1,203.9-14.2,207.7"/>
		<g id="Elipse_283" transform="translate(361.407)">
			<circle class="st2" cx="35" cy="35" r="35"/>
			<circle class="st13" cx="35" cy="35" r="31.5"/>
		</g>
		<g id="Elipse_284" transform="translate(343.407 146)">
			<circle class="st2" cx="35" cy="35" r="35"/>
			<circle class="st14" cx="35" cy="35" r="31"/>
		</g>
		<g id="Elipse_285" transform="translate(388.407 292)">
			<circle class="st2" cx="35" cy="35" r="35"/>
			<circle class="st3" cx="35" cy="35" r="31"/>
		</g>
		<g id="Elipse_297" transform="translate(337.407 439)">
			<circle class="st2" cx="35" cy="35" r="35"/>
			<circle class="st3" cx="35" cy="35" r="31"/>
		</g>
		<g id="Elipse_298" transform="translate(431.407 570)">
			<circle class="st2" cx="35" cy="35" r="35"/>
			<circle class="st3" cx="35" cy="35" r="31"/>
		</g>
		<g id="Elipse_299" transform="translate(433.407 737)">
			<circle class="st2" cx="35" cy="35" r="35"/>
			<circle class="st3" cx="35" cy="35" r="31"/>
		</g>
		<g id="Elipse_304" transform="translate(330.407 870)">
			<circle class="st2" cx="35" cy="35" r="35"/>
			<circle class="st3" cx="35" cy="35" r="31"/>
		</g>
		<g id="Elipse_305" transform="translate(290.407 1017)">
			<circle class="st2" cx="35" cy="35" r="35"/>
			<circle class="st3" cx="35" cy="35" r="31"/>
		</g>
		<g id="Elipse_306" transform="translate(360.407 1179)">
			<circle class="st2" cx="35" cy="35" r="35"/>
			<circle class="st3" cx="35" cy="35" r="31"/>
		</g>
		<g id="Elipse_307" transform="translate(419.407 1343)">
			<circle class="st2" cx="35" cy="35" r="35"/>
			<circle class="st3" cx="35" cy="35" r="31"/>
		</g>
		<text transform="matrix(1 0 0 1 270.4311 23)" class="st15 st8 st9">Kitchen </text>
		<text transform="matrix(1 0 0 1 281.783 43)" class="st15 st8 st9">SOS</text>
		<text transform="matrix(1 0 0 1 251.431 173)" class="st15 st8 st9">Kitchen </text>
		<text transform="matrix(1 0 0 1 255.455 193)" class="st15 st8 st9">Basics</text>
		<text transform="matrix(1 0 0 1 146.943 279)" class="st16 st8 st9">Puff pastry</text>
		<text transform="matrix(1 0 0 1 186.583 399)" class="st16 st8 st9">Batter</text>
		<text transform="matrix(1 0 0 1 443.487 295)" class="st15 st8 st9">Salad </text>
		<text transform="matrix(1 0 0 1 452.391 315)" class="st15 st8 st9">101</text>
		<text transform="matrix(1 0 0 1 268.383 434)" class="st15 st8 st9">Sauce </text>
		<text transform="matrix(1 0 0 1 279.391 454)" class="st15 st8 st9">101</text>
	</g>
	<path id="Icon_material-lock" class="st17" d="M476.4,598.5h-1.5v-3c0-4.1-3.4-7.5-7.5-7.5c-4.1,0-7.5,3.4-7.5,7.5v3h-1.5
		c-1.7,0-3,1.3-3,3v15c0,1.7,1.3,3,3,3h18c1.7,0,3-1.3,3-3v-15C479.4,599.8,478.1,598.5,476.4,598.5z M467.4,612c-1.7,0-3-1.3-3-3
		s1.3-3,3-3s3,1.3,3,3C470.4,610.7,469.1,612,467.4,612z M472.1,598.5h-9.3v-3c0-2.6,2.1-4.7,4.6-4.7s4.7,2.1,4.7,4.6c0,0,0,0,0,0
		V598.5z"/>
	<path id="Icon_material-lock-2" class="st17" d="M701.4,2.4h-1.5v-3c0-4.1-3.4-7.5-7.5-7.5s-7.5,3.4-7.5,7.5v3h-1.5
		c-1.7,0-3,1.3-3,3v15c0,1.7,1.3,3,3,3h18c1.7,0,3-1.3,3-3v-15C704.4,3.7,703.1,2.4,701.4,2.4z M692.4,15.9c-1.7,0-3-1.3-3-3
		s1.3-3,3-3s3,1.3,3,3C695.4,14.5,694.1,15.9,692.4,15.9z M697.1,2.4h-9.3v-3c0-2.6,2.1-4.7,4.6-4.7c2.6,0,4.7,2.1,4.7,4.6
		c0,0,0,0,0,0V2.4z"/>
	<path id="Icon_material-lock-3" class="st17" d="M825.4,175.4h-1.5v-3c0-4.1-3.4-7.5-7.5-7.5s-7.5,3.4-7.5,7.5v3h-1.5
		c-1.7,0-3,1.3-3,3v15c0,1.7,1.3,3,3,3h18c1.7,0,3-1.3,3-3v-15C828.4,176.7,827.1,175.4,825.4,175.4z M816.4,188.9c-1.7,0-3-1.3-3-3
		s1.3-3,3-3s3,1.3,3,3C819.4,187.5,818.1,188.9,816.4,188.9z M821.1,175.4h-9.3v-3c0-2.6,2.1-4.7,4.6-4.7c2.6,0,4.7,2.1,4.7,4.6
		c0,0,0,0,0,0V175.4z"/>
	<path id="Icon_material-lock-4" class="st17" d="M773.4,330.4h-1.5v-3c0-4.1-3.4-7.5-7.5-7.5s-7.5,3.4-7.5,7.5v3h-1.5
		c-1.7,0-3,1.3-3,3v15c0,1.7,1.3,3,3,3h18c1.7,0,3-1.3,3-3v-15C776.4,331.7,775.1,330.4,773.4,330.4z M764.4,343.9c-1.7,0-3-1.3-3-3
		s1.3-3,3-3s3,1.3,3,3C767.4,342.5,766.1,343.9,764.4,343.9z M769.1,330.4h-9.3v-3c0-2.6,2.1-4.7,4.6-4.7c2.6,0,4.7,2.1,4.7,4.6
		c0,0,0,0,0,0V330.4z"/>
	<path id="Icon_material-lock-5" class="st17" d="M881.4,426.6h-1.5v-3c0-4.1-3.4-7.5-7.5-7.5s-7.5,3.4-7.5,7.5v3h-1.5
		c-1.7,0-3,1.3-3,3v15c0,1.7,1.3,3,3,3h18c1.7,0,3-1.3,3-3v-15C884.4,428,883.1,426.6,881.4,426.6z M872.4,440.1c-1.7,0-3-1.3-3-3
		s1.3-3,3-3s3,1.3,3,3C875.4,438.8,874.1,440.1,872.4,440.1z M877.1,426.6h-9.3v-3c0-2.6,2.1-4.7,4.6-4.7c2.6,0,4.7,2.1,4.7,4.6
		c0,0,0,0,0,0V426.6z"/>
	<path id="Icon_material-lock-6" class="st17" d="M1048.4,495.6h-1.5v-3c0-4.1-3.4-7.5-7.5-7.5s-7.5,3.4-7.5,7.5v3h-1.5
		c-1.7,0-3,1.3-3,3v15c0,1.7,1.3,3,3,3h18c1.7,0,3-1.3,3-3v-15C1051.4,497,1050.1,495.6,1048.4,495.6z M1039.4,509.1
		c-1.7,0-3-1.3-3-3s1.3-3,3-3s3,1.3,3,3C1042.4,507.8,1041.1,509.1,1039.4,509.1z M1044.1,495.6h-9.3v-3c0-2.6,2.1-4.7,4.6-4.7
		s4.7,2.1,4.7,4.6c0,0,0,0,0,0V495.6z"/>
	<path id="Icon_material-lock-7" class="st17" d="M652.7,308.4h-1.5v-3c0-4.1-3.4-7.5-7.5-7.5s-7.5,3.4-7.5,7.5v3h-1.5
		c-1.7,0-3,1.3-3,3v15c0,1.7,1.3,3,3,3h18c1.7,0,3-1.3,3-3v-15C655.7,309.7,654.3,308.4,652.7,308.4z M643.7,321.9c-1.7,0-3-1.3-3-3
		s1.3-3,3-3s3,1.3,3,3C646.7,320.5,645.3,321.9,643.7,321.9z M648.3,308.4H639v-3c0-2.6,2.1-4.7,4.6-4.7c2.6,0,4.7,2.1,4.7,4.6
		c0,0,0,0,0,0V308.4z"/>
	<path id="Icon_material-lock-8" class="st17" d="M623.7,442.4h-1.5v-3c0-4.1-3.4-7.5-7.5-7.5s-7.5,3.4-7.5,7.5v3h-1.5
		c-1.7,0-3,1.3-3,3v15c0,1.7,1.3,3,3,3h18c1.7,0,3-1.3,3-3v-15C626.7,443.7,625.3,442.4,623.7,442.4z M614.7,455.9c-1.7,0-3-1.3-3-3
		s1.3-3,3-3s3,1.3,3,3C617.7,454.5,616.3,455.9,614.7,455.9z M619.3,442.4H610v-3c0-2.6,2.1-4.7,4.6-4.7c2.6,0,4.7,2.1,4.7,4.6
		c0,0,0,0,0,0V442.4z"/>
	<path id="Icon_material-lock-9" class="st17" d="M761.4,507.5h-1.5v-3c0-4.1-3.4-7.5-7.5-7.5s-7.5,3.4-7.5,7.5v3h-1.5
		c-1.7,0-3,1.3-3,3v15c0,1.7,1.3,3,3,3h18c1.7,0,3-1.3,3-3v-15C764.4,508.8,763.1,507.5,761.4,507.5z M752.4,521c-1.7,0-3-1.3-3-3
		s1.3-3,3-3s3,1.3,3,3C755.4,519.7,754.1,521,752.4,521z M757.1,507.5h-9.3v-3c0-2.6,2.1-4.7,4.6-4.7c2.6,0,4.7,2.1,4.7,4.6
		c0,0,0,0,0,0V507.5z"/>
	<path id="Icon_material-lock-10" class="st17" d="M640.7,675.8h-1.5v-3c0-4.1-3.4-7.5-7.5-7.5s-7.5,3.4-7.5,7.5v3h-1.5
		c-1.7,0-3,1.3-3,3v15c0,1.7,1.3,3,3,3h18c1.7,0,3-1.3,3-3v-15C643.7,677.1,642.3,675.8,640.7,675.8z M631.7,689.2c-1.7,0-3-1.3-3-3
		s1.3-3,3-3s3,1.3,3,3C634.7,687.9,633.3,689.2,631.7,689.2z M636.3,675.8H627v-3c0-2.6,2.1-4.7,4.6-4.7c2.6,0,4.7,2.1,4.7,4.6
		c0,0,0,0,0,0V675.8z"/>
	<path id="Icon_material-lock-11" class="st17" d="M478,769.8h-1.5v-3c0-4.1-3.4-7.5-7.5-7.5c-4.1,0-7.5,3.4-7.5,7.5v3H460
		c-1.7,0-3,1.3-3,3v15c0,1.7,1.3,3,3,3h18c1.7,0,3-1.3,3-3v-15C481,771.1,479.6,769.8,478,769.8z M469,783.2c-1.7,0-3-1.3-3-3
		s1.3-3,3-3s3,1.3,3,3C472,781.9,470.6,783.2,469,783.2z M473.6,769.8h-9.3v-3c0-2.6,2.1-4.7,4.6-4.7s4.7,2.1,4.7,4.6c0,0,0,0,0,0
		V769.8z"/>
	<path id="Icon_material-lock-12" class="st17" d="M373.4,899.5h-1.5v-3c0-4.1-3.4-7.5-7.5-7.5c-4.1,0-7.5,3.4-7.5,7.5v3h-1.5
		c-1.7,0-3,1.3-3,3v15c0,1.7,1.3,3,3,3h18c1.7,0,3-1.3,3-3v-15C376.4,900.8,375.1,899.5,373.4,899.5z M364.4,913c-1.7,0-3-1.3-3-3
		s1.3-3,3-3s3,1.3,3,3C367.4,911.7,366.1,913,364.4,913z M369.1,899.5h-9.3v-3c0-2.6,2.1-4.7,4.6-4.7s4.7,2.1,4.7,4.6c0,0,0,0,0,0
		V899.5z"/>
	<path id="Icon_material-lock-13" class="st17" d="M333.4,1047.5h-1.5v-3c0-4.1-3.4-7.5-7.5-7.5c-4.1,0-7.5,3.4-7.5,7.5v3h-1.5
		c-1.7,0-3,1.3-3,3v15c0,1.7,1.3,3,3,3h18c1.7,0,3-1.3,3-3v-15C336.4,1048.8,335.1,1047.5,333.4,1047.5z M324.4,1061
		c-1.7,0-3-1.3-3-3s1.3-3,3-3s3,1.3,3,3C327.4,1059.7,326.1,1061,324.4,1061z M329.1,1047.5h-9.3v-3c0-2.6,2.1-4.7,4.6-4.7
		c2.6,0,4.7,2.1,4.7,4.6c0,0,0,0,0,0V1047.5z"/>
	<path id="Icon_material-lock-14" class="st17" d="M252.4,813.8h-1.5v-3c0-4.1-3.4-7.5-7.5-7.5s-7.5,3.4-7.5,7.5v3h-1.5
		c-1.7,0-3,1.3-3,3v15c0,1.7,1.3,3,3,3h18c1.7,0,3-1.3,3-3v-15C255.4,815.1,254.1,813.8,252.4,813.8z M243.4,827.2c-1.7,0-3-1.3-3-3
		s1.3-3,3-3s3,1.3,3,3C246.4,825.9,245.1,827.2,243.4,827.2z M248.1,813.8h-9.3v-3c0-2.6,2.1-4.7,4.6-4.7c2.6,0,4.7,2.1,4.7,4.6
		c0,0,0,0,0,0V813.8z"/>
	<path id="Icon_material-lock-15" class="st17" d="M91.4,801.2h-1.5v-3c0-4.1-3.4-7.5-7.5-7.5s-7.5,3.4-7.5,7.5v3h-1.5
		c-1.7,0-3,1.3-3,3v15c0,1.7,1.3,3,3,3h18c1.7,0,3-1.3,3-3v-15C94.4,802.6,93.1,801.3,91.4,801.2z M82.4,814.8c-1.7,0-3-1.3-3-3
		s1.3-3,3-3s3,1.3,3,3C85.4,813.4,84.1,814.7,82.4,814.8z M87.1,801.2h-9.3v-3c0-2.6,2.1-4.7,4.6-4.7c2.6,0,4.7,2.1,4.7,4.6
		c0,0,0,0,0,0V801.2z"/>
	<path id="Icon_material-lock-16" class="st17" d="M-67.6,878.2h-1.5v-3c0-4.1-3.4-7.5-7.5-7.5s-7.5,3.4-7.5,7.5v3h-1.5
		c-1.7,0-3,1.3-3,3v15c0,1.7,1.3,3,3,3h18c1.7,0,3-1.3,3-3v-15C-64.6,879.6-65.9,878.3-67.6,878.2z M-76.6,891.8c-1.7,0-3-1.3-3-3
		s1.3-3,3-3s3,1.3,3,3C-73.6,890.4-74.9,891.7-76.6,891.8z M-71.9,878.2h-9.3v-3c0-2.6,2.1-4.7,4.6-4.7c2.6,0,4.7,2.1,4.7,4.6
		c0,0,0,0,0,0V878.2z"/>
	<path id="Icon_material-lock-17" class="st17" d="M-125.6,1021.8h-1.5v-3c0-4.1-3.4-7.5-7.5-7.5s-7.5,3.4-7.5,7.5v3h-1.5
		c-1.7,0-3,1.3-3,3v15c0,1.7,1.3,3,3,3h18c1.7,0,3-1.3,3-3v-15C-122.6,1023.1-123.9,1021.8-125.6,1021.8z M-134.6,1035.2
		c-1.7,0-3-1.3-3-3s1.3-3,3-3s3,1.3,3,3C-131.6,1033.9-132.9,1035.2-134.6,1035.2z M-129.9,1021.8h-9.3v-3c0-2.6,2.1-4.7,4.6-4.7
		c2.6,0,4.7,2.1,4.7,4.6c0,0,0,0,0,0V1021.8z"/>
	<path id="Icon_material-lock-18" class="st17" d="M-102.6,1162.8h-1.5v-3c0-4.1-3.4-7.5-7.5-7.5s-7.5,3.4-7.5,7.5v3h-1.5
		c-1.7,0-3,1.3-3,3v15c0,1.7,1.3,3,3,3h18c1.7,0,3-1.3,3-3v-15C-99.6,1164.1-100.9,1162.8-102.6,1162.8z M-111.6,1176.2
		c-1.7,0-3-1.3-3-3s1.3-3,3-3s3,1.3,3,3C-108.6,1174.9-109.9,1176.2-111.6,1176.2z M-106.9,1162.8h-9.3v-3c0-2.6,2.1-4.7,4.6-4.7
		c2.6,0,4.7,2.1,4.7,4.6c0,0,0,0,0,0V1162.8z"/>
	<path id="Icon_material-lock-19" class="st17" d="M56.4,1226h-1.5v-3c0-4.1-3.4-7.5-7.5-7.5s-7.5,3.4-7.5,7.5v3h-1.5
		c-1.7,0-3,1.3-3,3v15c0,1.7,1.3,3,3,3h18c1.7,0,3-1.3,3-3v-15C59.4,1227.4,58.1,1226,56.4,1226z M47.4,1239.5c-1.7,0-3-1.3-3-3
		s1.3-3,3-3c1.7,0,3,1.3,3,3C50.4,1238.2,49.1,1239.5,47.4,1239.5z M52.1,1226h-9.3v-3c0-2.6,2.1-4.7,4.6-4.7c2.6,0,4.7,2.1,4.7,4.6
		c0,0,0,0,0,0V1226z"/>
	<path id="Icon_material-lock-20" class="st17" d="M178.4,1124.8h-1.5v-3c0-4.1-3.4-7.5-7.5-7.5s-7.5,3.4-7.5,7.5v3h-1.5
		c-1.7,0-3,1.3-3,3v15c0,1.7,1.3,3,3,3h18c1.7,0,3-1.3,3-3v-15C181.4,1126.1,180.1,1124.8,178.4,1124.8z M169.4,1138.2
		c-1.7,0-3-1.3-3-3s1.3-3,3-3s3,1.3,3,3C172.4,1136.9,171.1,1138.2,169.4,1138.2z M174.1,1124.8h-9.3v-3c0-2.6,2.1-4.7,4.6-4.7
		c2.6,0,4.7,2.1,4.7,4.6c0,0,0,0,0,0V1124.8z"/>
	<path id="Icon_material-lock-21" class="st17" d="M147.4,975.8h-1.5v-3c0-4.1-3.4-7.5-7.5-7.5s-7.5,3.4-7.5,7.5v3h-1.5
		c-1.7,0-3,1.3-3,3v15c0,1.7,1.3,3,3,3h18c1.7,0,3-1.3,3-3v-15C150.4,977.1,149.1,975.8,147.4,975.8z M138.4,989.2c-1.7,0-3-1.3-3-3
		s1.3-3,3-3s3,1.3,3,3C141.4,987.9,140.1,989.2,138.4,989.2z M143.1,975.8h-9.3v-3c0-2.6,2.1-4.7,4.6-4.7c2.6,0,4.7,2.1,4.7,4.6
		c0,0,0,0,0,0V975.8z"/>
	<path id="Icon_material-lock-22" class="st17" d="M404.9,1206.5h-1.5v-3c0-4.1-3.4-7.5-7.5-7.5c-4.1,0-7.5,3.4-7.5,7.5v3h-1.5
		c-1.7,0-3,1.3-3,3v15c0,1.7,1.3,3,3,3h18c1.7,0,3-1.3,3-3v-15C407.9,1207.8,406.6,1206.5,404.9,1206.5z M395.9,1220
		c-1.7,0-3-1.3-3-3s1.3-3,3-3s3,1.3,3,3C398.9,1218.7,397.6,1220,395.9,1220z M400.6,1206.5h-9.3v-3c0-2.6,2.1-4.7,4.6-4.7
		c2.6,0,4.7,2.1,4.7,4.6c0,0,0,0,0,0V1206.5z"/>
	<path id="Icon_material-lock-23" class="st17" d="M461.9,1377.5h-1.5v-3c0-4.1-3.4-7.5-7.5-7.5c-4.1,0-7.5,3.4-7.5,7.5v3h-1.5
		c-1.7,0-3,1.3-3,3v15c0,1.7,1.3,3,3,3h18c1.7,0,3-1.3,3-3v-15C464.9,1378.8,463.6,1377.5,461.9,1377.5z M452.9,1391
		c-1.7,0-3-1.3-3-3s1.3-3,3-3s3,1.3,3,3C455.9,1389.7,454.6,1391,452.9,1391z M457.6,1377.5h-9.3v-3c0-2.6,2.1-4.7,4.6-4.7
		c2.6,0,4.7,2.1,4.7,4.6c0,0,0,0,0,0V1377.5z"/>
	<path id="Icon_material-lock-24" class="st17" d="M1.4,390.5h-1.5v-3c0-4.1-3.4-7.5-7.5-7.5s-7.5,3.4-7.5,7.5v3h-1.5
		c-1.7,0-3,1.3-3,3v15c0,1.7,1.3,3,3,3h18c1.7,0,3-1.3,3-3v-15C4.4,391.8,3.1,390.5,1.4,390.5z M-7.6,404c-1.7,0-3-1.3-3-3
		s1.3-3,3-3s3,1.3,3,3C-4.6,402.7-5.9,404-7.6,404z M-2.9,390.5h-9.3v-3c0-2.6,2.1-4.7,4.6-4.7s4.7,2.1,4.7,4.6c0,0,0,0,0,0V390.5z"
		/>
	<path id="Icon_material-lock-25" class="st17" d="M73.4,507.5h-1.5v-3c0-4.1-3.4-7.5-7.5-7.5s-7.5,3.4-7.5,7.5v3h-1.5
		c-1.7,0-3,1.3-3,3v15c0,1.7,1.3,3,3,3h18c1.7,0,3-1.3,3-3v-15C76.4,508.8,75.1,507.5,73.4,507.5z M64.4,521c-1.7,0-3-1.3-3-3
		s1.3-3,3-3c1.7,0,3,1.3,3,3C67.4,519.7,66.1,521,64.4,521z M69.1,507.5h-9.3v-3c0-2.6,2.1-4.7,4.6-4.7s4.7,2.1,4.7,4.6c0,0,0,0,0,0
		V507.5z"/>
	<path id="Icon_material-lock-26" class="st17" d="M217.4,548.5h-1.5v-3c0-4.1-3.4-7.5-7.5-7.5s-7.5,3.4-7.5,7.5v3h-1.5
		c-1.7,0-3,1.3-3,3v15c0,1.7,1.3,3,3,3h18c1.7,0,3-1.3,3-3v-15C220.4,549.8,219.1,548.5,217.4,548.5z M208.4,562c-1.7,0-3-1.3-3-3
		s1.3-3,3-3s3,1.3,3,3C211.4,560.7,210.1,562,208.4,562z M213.1,548.5h-9.3v-3c0-2.6,2.1-4.7,4.6-4.7c2.6,0,4.7,2.1,4.7,4.6
		c0,0,0,0,0,0V548.5z"/>
	<path id="Icon_material-lock-27" class="st17" d="M189.4,390.5h-1.5v-3c0-4.1-3.4-7.5-7.5-7.5s-7.5,3.4-7.5,7.5v3h-1.5
		c-1.7,0-3,1.3-3,3v15c0,1.7,1.3,3,3,3h18c1.7,0,3-1.3,3-3v-15C192.4,391.8,191.1,390.5,189.4,390.5z M180.4,404c-1.7,0-3-1.3-3-3
		s1.3-3,3-3s3,1.3,3,3C183.4,402.7,182.1,404,180.4,404z M185.1,390.5h-9.3v-3c0-2.6,2.1-4.7,4.6-4.7c2.6,0,4.7,2.1,4.7,4.6
		c0,0,0,0,0,0V390.5z"/>
</g>
</svg>
