<?xml version="1.0" encoding="utf-8"?>
<!-- Generator: Adobe Illustrator 25.0.1, SVG Export Plug-In . SVG Version: 6.00 Build 0)  -->
<svg version="1.1" id="Camada_1" xmlns="http://www.w3.org/2000/svg" xmlns:xlink="http://www.w3.org/1999/xlink" x="0px" y="0px"
	 viewBox="0 0 951 1326" style="enable-background:new 0 0 951 1326;" xml:space="preserve">
<style type="text/css">
	.st0{fill:none;stroke:#3AA252;stroke-width:8;stroke-dasharray:17,7;}
	.st1{fill:#FFFFFF;}
	.st2{fill:none;stroke:#BFBFBF;stroke-width:8;}
	.st3{fill:#BFBFBF;}
	.st4{fill:none;stroke:#707070;stroke-width:8.0036;stroke-miterlimit:4.0018;stroke-dasharray:17.0077,7.0032;}
	.st5{fill:none;stroke:#3277B4;stroke-width:8;stroke-dasharray:17,7;}
	.st6{fill:none;stroke:#E5A11B;stroke-width:8;stroke-dasharray:17,7;}
	.st7{fill:none;stroke:#F86464;stroke-width:16;}
	.st8{fill:none;stroke:#F86464;stroke-width:16;stroke-dasharray:17,7;}
	.st9{fill:none;stroke:#F86464;stroke-width:7;}
	.st10{fill:none;stroke:#F86464;stroke-width:8;}
	.st11{enable-background:new    ;}
	.st12{fill:#F86464;}
	.st13{opacity:0.5;fill:#F86464;enable-background:new    ;}
</style>
<g>
	<path id="Vegan_path_Unexplored_1_" class="st0" d="M541.3,795.6c-71.6-83.8-161.6-106.9-248-101.6S93.7,758.1,58.1,848.1
		s-17.7,200.6,37.4,251.2c35.1,32.2,95.2,63.2,136.1,18.7"/>
	<g id="Elipse_308" transform="translate(208.407 784)">
		<circle class="st1" cx="207.2" cy="-73" r="35"/>
		<circle class="st2" cx="207.2" cy="-73" r="31"/>
	</g>
	<g id="Elipse_309" transform="translate(47.407 775)">
		<circle class="st1" cx="207.2" cy="-73" r="35"/>
		<circle class="st2" cx="207.2" cy="-73" r="31"/>
	</g>
	<g id="Elipse_310" transform="translate(-111.593 854)">
		<circle class="st1" cx="207.2" cy="-73" r="35"/>
		<circle class="st2" cx="207.2" cy="-73" r="31"/>
	</g>
	<g id="Elipse_311" transform="translate(-169.593 992)">
		<circle class="st1" cx="207.2" cy="-73" r="35"/>
		<circle class="st2" cx="207.2" cy="-73" r="31"/>
	</g>
	<g id="Elipse_312" transform="translate(-146.593 1130)">
		<circle class="st1" cx="207.2" cy="-73" r="35"/>
		<circle class="st2" cx="207.2" cy="-73" r="31"/>
	</g>
	<g id="Elipse_313" transform="translate(12.407 1196)">
		<circle class="st1" cx="207.2" cy="-65" r="35"/>
		<circle class="st2" cx="207.2" cy="-65" r="31"/>
	</g>
	<path id="Icon_material-lock-14" class="st3" d="M424.6,703.8h-1.5v-3c0-4.1-3.4-7.5-7.5-7.5s-7.5,3.4-7.5,7.5v3h-1.5
		c-1.7,0-3,1.3-3,3v15c0,1.7,1.3,3,3,3h18c1.7,0,3-1.3,3-3v-15C427.6,705.1,426.3,703.8,424.6,703.8z M415.6,717.2c-1.7,0-3-1.3-3-3
		s1.3-3,3-3s3,1.3,3,3S417.3,717.2,415.6,717.2z M420.3,703.8H411v-3c0-2.6,2.1-4.7,4.6-4.7c2.6,0,4.7,2.1,4.7,4.6l0,0L420.3,703.8
		L420.3,703.8z"/>
	<path id="Icon_material-lock-15" class="st3" d="M263.6,694.8h-1.5v-3c0-4.1-3.4-7.5-7.5-7.5s-7.5,3.4-7.5,7.5v3h-1.5
		c-1.7,0-3,1.3-3,3v15c0,1.7,1.3,3,3,3h18c1.7,0,3-1.3,3-3v-15C266.6,696.2,265.3,694.9,263.6,694.8z M254.6,708.4c-1.7,0-3-1.3-3-3
		s1.3-3,3-3c1.7,0,3,1.3,3,3C257.6,707,256.3,708.3,254.6,708.4z M259.3,694.8H250v-3c0-2.6,2.1-4.7,4.6-4.7c2.6,0,4.7,2.1,4.7,4.6
		l0,0C259.3,691.7,259.3,694.8,259.3,694.8z"/>
	<path id="Icon_material-lock-16" class="st3" d="M104.6,773.8h-1.5v-3c0-4.1-3.4-7.5-7.5-7.5s-7.5,3.4-7.5,7.5v3h-1.5
		c-1.7,0-3,1.3-3,3v15c0,1.7,1.3,3,3,3h18c1.7,0,3-1.3,3-3v-15C107.6,775.2,106.3,773.9,104.6,773.8z M95.6,787.4c-1.7,0-3-1.3-3-3
		s1.3-3,3-3s3,1.3,3,3C98.6,786,97.3,787.3,95.6,787.4z M100.3,773.8H91v-3c0-2.6,2.1-4.7,4.6-4.7c2.6,0,4.7,2.1,4.7,4.6l0,0
		C100.3,770.7,100.3,773.8,100.3,773.8z"/>
	<path id="Icon_material-lock-17" class="st3" d="M46.6,911.8h-1.5v-3c0-4.1-3.4-7.5-7.5-7.5s-7.5,3.4-7.5,7.5v3h-1.5
		c-1.7,0-3,1.3-3,3v15c0,1.7,1.3,3,3,3h18c1.7,0,3-1.3,3-3v-15C49.6,913.1,48.3,911.8,46.6,911.8z M37.6,925.2c-1.7,0-3-1.3-3-3
		s1.3-3,3-3s3,1.3,3,3S39.3,925.2,37.6,925.2z M42.3,911.8H33v-3c0-2.6,2.1-4.7,4.6-4.7c2.6,0,4.7,2.1,4.7,4.6l0,0V911.8z"/>
	<path id="Icon_material-lock-18" class="st3" d="M69.6,1049.8h-1.5v-3c0-4.1-3.4-7.5-7.5-7.5s-7.5,3.4-7.5,7.5v3h-1.5
		c-1.7,0-3,1.3-3,3v15c0,1.7,1.3,3,3,3h18c1.7,0,3-1.3,3-3v-15C72.6,1051.1,71.3,1049.8,69.6,1049.8z M60.6,1063.2c-1.7,0-3-1.3-3-3
		s1.3-3,3-3s3,1.3,3,3C63.6,1061.9,62.3,1063.2,60.6,1063.2z M65.3,1049.8H56v-3c0-2.6,2.1-4.7,4.6-4.7c2.6,0,4.7,2.1,4.7,4.6l0,0
		C65.3,1046.7,65.3,1049.8,65.3,1049.8z"/>
	<path id="Icon_material-lock-19" class="st3" d="M228.6,1123.8h-1.5v-3c0-4.1-3.4-7.5-7.5-7.5s-7.5,3.4-7.5,7.5v3h-1.5
		c-1.7,0-3,1.3-3,3v15c0,1.7,1.3,3,3,3h18c1.7,0,3-1.3,3-3v-15C231.6,1125.2,230.3,1123.8,228.6,1123.8z M219.6,1137.3
		c-1.7,0-3-1.3-3-3s1.3-3,3-3s3,1.3,3,3S221.3,1137.3,219.6,1137.3z M224.3,1123.8H215v-3c0-2.6,2.1-4.7,4.6-4.7
		c2.6,0,4.7,2.1,4.7,4.6l0,0V1123.8z"/>
</g>
<g id="Grupo_2055" transform="translate(169.593 26)">
	<g id="Xmas_path">
		<path id="Xmas_path_Unexplored" class="st4" d="M393,642.8c53.6,42.2,128.8,67.5,181.7,38.8c52.8-28.7,102.9-120.7,76.5-166.1
			S510,480,482.9,441.6S470.1,311.4,552,326.1"/>
		<g id="Elipse_300" transform="translate(599.407 642)">
			<circle class="st1" cx="-56" cy="49.4" r="35"/>
			<circle class="st2" cx="-56" cy="49.4" r="31"/>
		</g>
		<g id="Elipse_301" transform="translate(712.407 476)">
			<circle class="st1" cx="-56" cy="49.4" r="35"/>
			<circle class="st2" cx="-56" cy="49.4" r="31"/>
		</g>
		<g id="Elipse_302" transform="translate(580.407 412)">
			<circle class="st1" cx="-56" cy="49.4" r="35"/>
			<circle class="st2" cx="-56" cy="49.4" r="31"/>
		</g>
		<g id="Elipse_303" transform="translate(610.407 282)">
			<circle class="st1" cx="-56" cy="49.4" r="35"/>
			<circle class="st2" cx="-56" cy="49.4" r="31"/>
		</g>
	</g>
	<path id="Cuisine_path_Unexplored_1_" class="st5" d="M317.9,195.6c31.1,15,101.6,4.5,126.4-27.2c24.7-31.6,28.8-119.6,86.4-138.3
		c57.6-18.7,143.6,2.8,176.4,62.9s15.8,123.3-26.8,189.4s-1.2,163.8,83.9,161"/>
	<g id="Elipse_291" transform="translate(505.407 119)">
		<circle class="st1" cx="-56" cy="49.4" r="35"/>
		<circle class="st2" cx="-56" cy="49.4" r="31"/>
	</g>
	<g id="Elipse_292" transform="translate(657.407 -26)">
		<circle class="st1" cx="-83" cy="49.4" r="35"/>
		<circle class="st2" cx="-83" cy="49.4" r="31"/>
	</g>
	<g id="Elipse_293" transform="translate(782.407 146)">
		<circle class="st1" cx="-60" cy="-15.6" r="35"/>
		<circle class="st2" cx="-60" cy="-15.6" r="31"/>
	</g>
	<g id="Elipse_294" transform="translate(727.407 301)">
		<circle class="st1" cx="-47" cy="4.4" r="35"/>
		<circle class="st2" cx="-47" cy="4.4" r="31"/>
	</g>
	<g id="Elipse_295" transform="translate(839.407 398)">
		<circle class="st1" cx="-93" cy="49.4" r="35"/>
		<circle class="st2" cx="-93" cy="49.4" r="31"/>
	</g>
	<g id="Patisserie_path">
		<path id="Patisserie_path_Unexplored" class="st6" d="M278.1,222c-11.5,32.4-20.8,76.7-56.4,95.5s-99.1,1.4-127.4,40.6
			s-5.8,66.5,10.3,85.4s38.9,35.5,38.6,74.4c-0.2,38.9-40.1,71.3-102.7,65.5s-80.1-54.2-71.5-97.7s-44.6-71.5-73.9-72.7"/>
		<g id="Elipse_286" transform="translate(267.407 266)">
			<circle class="st1" cx="-56" cy="49.4" r="35"/>
			<circle class="st2" cx="-56" cy="49.4" r="31"/>
		</g>
		<g id="Elipse_287" transform="translate(145.407 363)">
			<circle class="st1" cx="-56" cy="49.4" r="35"/>
			<circle class="st2" cx="-56" cy="49.4" r="31"/>
		</g>
		<g id="Elipse_288" transform="translate(171.407 520)">
			<circle class="st1" cx="-56" cy="49.4" r="35"/>
			<circle class="st2" cx="-56" cy="49.4" r="31"/>
		</g>
		<g id="Elipse_289" transform="translate(28.407 480)">
			<circle class="st1" cx="-56" cy="49.4" r="35"/>
			<circle class="st2" cx="-56" cy="49.4" r="31"/>
		</g>
		<g id="Elipse_290" transform="translate(-41.593 363)">
			<circle class="st1" cx="-93" cy="49.4" r="35"/>
			<circle class="st2" cx="-93" cy="49.4" r="31"/>
		</g>
	</g>
	<g id="Main_path">
		<path id="Main_path_Completed" class="st7" d="M304.9,49.4c-37.3,75-27.2,120.4-22,141.4s55.9,110.7,48.5,150.8"/>
		<path id="Main_path_Unexplored_1_" class="st8" d="M330.2,347.5c-8.6,40.6-48.2,79.1-48.2,128.1s55.4,86.5,78,119.7
			s67,134.4,27.4,188.7c-33,45.3-55.5,58.5-99.8,111.9c-40,54.1-60.9,138.7-50,212.3c9.9,66.6,53.8,88.2,79.3,143.2"/>
		<g id="Elipse_283" transform="translate(361.407)">
			<circle class="st1" cx="-56" cy="49.4" r="35"/>
			<circle class="st9" cx="-56" cy="49.4" r="31.5"/>
		</g>
		<g id="Elipse_284" transform="translate(343.407 146)">
			<circle class="st1" cx="-56" cy="49.4" r="35"/>
			<circle class="st10" cx="-56" cy="49.4" r="31"/>
		</g>
		<g id="Elipse_285" transform="translate(388.407 292)">
			<circle class="st1" cx="-56" cy="49.4" r="35"/>
			<circle class="st2" cx="-56" cy="49.4" r="31"/>
		</g>
		<g id="Elipse_297" transform="translate(337.407 439)">
			<circle class="st1" cx="-56" cy="49.4" r="35"/>
			<circle class="st2" cx="-56" cy="49.4" r="31"/>
		</g>
		<g id="Elipse_298" transform="translate(431.407 570)">
			<circle class="st1" cx="-56" cy="49.4" r="35"/>
			<circle class="st2" cx="-56" cy="49.4" r="31"/>
		</g>
		<g id="Elipse_299" transform="translate(433.407 737)">
			<circle class="st1" cx="-56" cy="49.4" r="35"/>
			<circle class="st2" cx="-56" cy="49.4" r="31"/>
		</g>
		<g id="Elipse_304" transform="translate(330.407 870)">
			<circle class="st1" cx="-56" cy="49.4" r="35"/>
			<circle class="st2" cx="-56" cy="49.4" r="31"/>
		</g>
		<g id="Elipse_305" transform="translate(290.407 1017)">
			<circle class="st1" cx="-56" cy="49.4" r="35"/>
			<circle class="st2" cx="-56" cy="49.4" r="31"/>
		</g>
		<g id="Elipse_306" transform="translate(360.407 1179)">
			<circle class="st1" cx="-56" cy="49.4" r="35"/>
			<circle class="st2" cx="-56" cy="49.4" r="31"/>
		</g>
		<g>
			<g class="st11">
				<path class="st12" d="M216,39.4l-3.6-4.5l-0.9,1.1v3.4h-1.9V28.7h1.9v5.1l4.2-5.1h2.3l-4.3,5l4.7,5.7
					C218.4,39.4,216,39.4,216,39.4z"/>
				<path class="st12" d="M219.3,29.7c0-0.6,0.5-1,1-1c0.6,0,1,0.5,1,1s-0.5,1-1,1C219.7,30.7,219.3,30.2,219.3,29.7z M219.5,39.4
					v-7.7h1.7v7.7H219.5z"/>
				<path class="st12" d="M223.7,37.6v-4.5h-1.3v-1.5h1.3v-2.1h1.7v2.1h1.6v1.5h-1.6v4c0,0.5,0.3,0.9,0.7,0.9c0.3,0,0.6-0.1,0.7-0.3
					l0.4,1.3c-0.3,0.3-0.8,0.5-1.6,0.5C224.4,39.6,223.7,38.9,223.7,37.6z"/>
				<path class="st12" d="M228,35.5c0-2.3,1.6-4,4-4c1.5,0,2.4,0.6,3,1.4l-1.1,1c-0.4-0.6-1-0.9-1.8-0.9c-1.4,0-2.3,1.1-2.3,2.6
					s0.9,2.6,2.3,2.6c0.8,0,1.3-0.3,1.8-0.9l1.1,1c-0.5,0.7-1.4,1.4-3,1.4C229.6,39.6,228,37.8,228,35.5z"/>
				<path class="st12" d="M241.6,39.4v-4.9c0-1.2-0.6-1.6-1.6-1.6c-0.9,0-1.6,0.5-2,1v5.4h-1.7V28.7h1.7v4c0.5-0.6,1.5-1.2,2.7-1.2
					c1.7,0,2.5,0.9,2.5,2.4v5.5H241.6z"/>
				<path class="st12" d="M245,35.5c0-2.2,1.6-4,3.9-4c2.3,0,3.8,1.8,3.8,4.2v0.4h-6c0.1,1.2,1,2.1,2.4,2.1c0.8,0,1.6-0.3,2.2-0.9
					l0.8,1.1c-0.8,0.7-1.9,1.1-3.1,1.1C246.7,39.6,245,38,245,35.5z M248.9,32.8c-1.4,0-2.1,1.1-2.2,2h4.4
					C251.1,34,250.4,32.8,248.9,32.8z"/>
				<path class="st12" d="M259.6,39.4v-4.8c0-1.2-0.6-1.6-1.6-1.6c-0.8,0-1.6,0.5-2,1v5.4h-1.7v-7.7h1.7v1c0.5-0.6,1.5-1.2,2.7-1.2
					c1.7,0,2.5,0.9,2.5,2.5v5.4C261.2,39.4,259.6,39.4,259.6,39.4z"/>
			</g>
			<g class="st11">
				<path class="st12" d="M220.2,57.9l1.1-1.5c0.7,0.8,1.9,1.5,3.4,1.5s2.1-0.8,2.1-1.5c0-2.2-6.2-0.8-6.2-4.8
					c0-1.8,1.5-3.1,3.9-3.1c1.6,0,3,0.5,4,1.5l-1.1,1.4c-0.8-0.8-2-1.2-3.1-1.2s-1.8,0.5-1.8,1.3c0,2,6.2,0.8,6.2,4.7
					c0,1.8-1.3,3.3-4.1,3.3C222.6,59.6,221.2,58.9,220.2,57.9z"/>
				<path class="st12" d="M230,54c0-3.2,2.3-5.5,5.5-5.5s5.5,2.3,5.5,5.5s-2.3,5.5-5.5,5.5C232.2,59.6,230,57.2,230,54z M239,54
					c0-2.2-1.4-3.9-3.5-3.9c-2.2,0-3.5,1.6-3.5,3.9c0,2.2,1.4,3.9,3.5,3.9S239,56.2,239,54z"/>
				<path class="st12" d="M242,57.9l1.1-1.5c0.7,0.8,1.9,1.5,3.4,1.5s2.1-0.8,2.1-1.5c0-2.2-6.2-0.8-6.2-4.8c0-1.8,1.5-3.1,3.9-3.1
					c1.6,0,3,0.5,4,1.5l-1.1,1.4c-0.8-0.8-2-1.2-3.1-1.2s-1.8,0.5-1.8,1.3c0,2,6.2,0.8,6.2,4.7c0,1.8-1.3,3.3-4.1,3.3
					C244.4,59.6,243,58.9,242,57.9z"/>
			</g>
		</g>
		<g>
			<g class="st11">
				<path class="st12" d="M199.1,157.4l-3.6-4.5l-0.9,1.1v3.4h-1.9v-10.7h1.9v5.1l4.2-5.1h2.3l-4.3,5l4.7,5.7H199.1z"/>
				<path class="st12" d="M202.4,147.7c0-0.6,0.5-1,1-1c0.6,0,1,0.5,1,1s-0.5,1-1,1C202.8,148.7,202.4,148.3,202.4,147.7z
					 M202.6,157.4v-7.7h1.7v7.7H202.6z"/>
				<path class="st12" d="M206.8,155.6v-4.5h-1.3v-1.5h1.3v-2.1h1.7v2.1h1.6v1.5h-1.6v4c0,0.5,0.3,0.9,0.7,0.9
					c0.3,0,0.6-0.1,0.7-0.3l0.4,1.3c-0.3,0.3-0.8,0.5-1.6,0.5C207.5,157.6,206.8,156.9,206.8,155.6z"/>
				<path class="st12" d="M211.1,153.5c0-2.3,1.6-4,4-4c1.5,0,2.4,0.6,3,1.4l-1.1,1c-0.4-0.6-1-0.9-1.8-0.9c-1.4,0-2.3,1.1-2.3,2.6
					s0.9,2.6,2.3,2.6c0.8,0,1.3-0.3,1.8-0.9l1.1,1c-0.5,0.7-1.4,1.4-3,1.4C212.7,157.6,211.1,155.9,211.1,153.5z"/>
				<path class="st12" d="M224.7,157.4v-4.9c0-1.2-0.6-1.6-1.6-1.6c-0.9,0-1.6,0.5-2,1v5.4h-1.7v-10.7h1.7v4
					c0.5-0.6,1.5-1.2,2.7-1.2c1.7,0,2.5,0.9,2.5,2.4v5.5h-1.6L224.7,157.4L224.7,157.4z"/>
				<path class="st12" d="M228.1,153.5c0-2.2,1.6-4,3.9-4c2.3,0,3.8,1.8,3.8,4.2v0.4h-6c0.1,1.2,1,2.1,2.4,2.1
					c0.8,0,1.6-0.3,2.2-0.9l0.8,1.1c-0.8,0.7-1.9,1.1-3.1,1.1C229.8,157.6,228.1,156,228.1,153.5z M232,150.9c-1.4,0-2.1,1.1-2.2,2
					h4.4C234.2,152,233.6,150.9,232,150.9z"/>
				<path class="st12" d="M242.7,157.4v-4.8c0-1.2-0.6-1.6-1.6-1.6c-0.8,0-1.6,0.5-2,1v5.4h-1.7v-7.7h1.7v1c0.5-0.6,1.5-1.2,2.7-1.2
					c1.7,0,2.5,0.9,2.5,2.5v5.4L242.7,157.4L242.7,157.4z"/>
			</g>
			<g class="st11">
				<path class="st12" d="M196.7,177.4v-10.7h5.3c2,0,3,1.2,3,2.7c0,1.3-0.9,2.2-1.9,2.4c1.2,0.2,2.1,1.3,2.1,2.6
					c0,1.7-1.1,2.9-3.1,2.9h-5.4L196.7,177.4L196.7,177.4z M203.1,169.7c0-0.8-0.5-1.4-1.5-1.4h-3v2.8h3
					C202.5,171.1,203.1,170.6,203.1,169.7z M203.3,174.3c0-0.8-0.6-1.5-1.6-1.5h-3.1v3h3.1C202.7,175.8,203.3,175.2,203.3,174.3z"/>
				<path class="st12" d="M211.8,177.4v-0.8c-0.6,0.7-1.5,1-2.5,1c-1.2,0-2.7-0.9-2.7-2.6c0-1.8,1.4-2.5,2.7-2.5
					c1.1,0,1.9,0.3,2.5,1v-1.2c0-0.9-0.8-1.4-1.8-1.4c-0.9,0-1.6,0.3-2.3,1l-0.7-1.2c0.9-0.9,2-1.2,3.2-1.2c1.7,0,3.2,0.7,3.2,2.8
					v5.1L211.8,177.4L211.8,177.4z M211.8,175.6v-1.2c-0.4-0.5-1.1-0.8-1.8-0.8c-0.9,0-1.7,0.6-1.7,1.4c0,0.8,0.7,1.4,1.7,1.4
					C210.7,176.4,211.4,176.2,211.8,175.6z"/>
				<path class="st12" d="M215,176.4l0.8-1.2c0.5,0.6,1.6,1.1,2.6,1.1s1.5-0.4,1.5-1c0-1.5-4.7-0.4-4.7-3.4c0-1.3,1.1-2.3,3-2.3
					c1.3,0,2.3,0.5,3,1.1l-0.7,1.2c-0.5-0.5-1.3-0.9-2.3-0.9c-0.9,0-1.4,0.4-1.4,1c0,1.4,4.7,0.3,4.7,3.4c0,1.4-1.1,2.4-3.2,2.4
					C217,177.6,215.8,177.2,215,176.4z"/>
				<path class="st12" d="M223,167.7c0-0.6,0.5-1,1-1s1,0.5,1,1s-0.5,1-1,1S223,168.3,223,167.7z M223.2,177.4v-7.7h1.7v7.7H223.2z"
					/>
				<path class="st12" d="M226.6,173.5c0-2.3,1.6-4,4-4c1.5,0,2.4,0.6,3,1.4l-1.1,1c-0.4-0.6-1-0.9-1.8-0.9c-1.4,0-2.3,1.1-2.3,2.6
					s0.9,2.6,2.3,2.6c0.8,0,1.3-0.3,1.8-0.9l1.1,1c-0.5,0.7-1.4,1.4-3,1.4C228.2,177.6,226.6,175.9,226.6,173.5z"/>
				<path class="st12" d="M234.4,176.4l0.8-1.2c0.5,0.6,1.6,1.1,2.6,1.1s1.5-0.4,1.5-1c0-1.5-4.7-0.4-4.7-3.4c0-1.3,1.1-2.3,3-2.3
					c1.3,0,2.3,0.5,3,1.1l-0.7,1.2c-0.5-0.5-1.3-0.9-2.3-0.9c-0.9,0-1.4,0.4-1.4,1c0,1.4,4.7,0.3,4.7,3.4c0,1.4-1.1,2.4-3.2,2.4
					C236.3,177.6,235.2,177.2,234.4,176.4z"/>
			</g>
		</g>
	</g>
	<path id="Icon_material-lock" class="st3" d="M384.4,612.9h-1.5v-3c0-4.1-3.4-7.5-7.5-7.5s-7.5,3.4-7.5,7.5v3h-1.5
		c-1.7,0-3,1.3-3,3v15c0,1.7,1.3,3,3,3h18c1.7,0,3-1.3,3-3v-15C387.4,614.2,386.1,612.9,384.4,612.9z M375.4,626.4c-1.7,0-3-1.3-3-3
		s1.3-3,3-3s3,1.3,3,3S377.1,626.4,375.4,626.4z M380.1,612.9h-9.3v-3c0-2.6,2.1-4.7,4.6-4.7s4.7,2.1,4.7,4.6l0,0L380.1,612.9
		L380.1,612.9z"/>
	<path id="Icon_material-lock_1_" class="st3" d="M290.4,481.1h-1.5v-3c0-4.1-3.4-7.5-7.5-7.5s-7.5,3.4-7.5,7.5v3h-1.5
		c-1.7,0-3,1.3-3,3v15c0,1.7,1.3,3,3,3h18c1.7,0,3-1.3,3-3v-15C293.4,482.4,292.1,481.1,290.4,481.1z M281.4,494.6c-1.7,0-3-1.3-3-3
		s1.3-3,3-3s3,1.3,3,3S283.1,494.6,281.4,494.6z M286.1,481.1h-9.3v-3c0-2.6,2.1-4.7,4.6-4.7s4.7,2.1,4.7,4.6l0,0L286.1,481.1
		L286.1,481.1z"/>
	<path id="Icon_material-lock_2_" class="st3" d="M341.4,334.7h-1.5v-3c0-4.1-3.4-7.5-7.5-7.5s-7.5,3.4-7.5,7.5v3h-1.5
		c-1.7,0-3,1.3-3,3v15c0,1.7,1.3,3,3,3h18c1.7,0,3-1.3,3-3v-15C344.4,336,343.1,334.7,341.4,334.7z M332.4,348.2c-1.7,0-3-1.3-3-3
		s1.3-3,3-3s3,1.3,3,3S334.1,348.2,332.4,348.2z M337.1,334.7h-9.3v-3c0-2.6,2.1-4.7,4.6-4.7s4.7,2.1,4.7,4.6l0,0L337.1,334.7
		L337.1,334.7z"/>
	<path id="Icon_material-lock_3_" class="st3" d="M220.2,308h-1.5v-3c0-4.1-3.4-7.5-7.5-7.5s-7.5,3.4-7.5,7.5v3h-1.5
		c-1.7,0-3,1.3-3,3v15c0,1.7,1.3,3,3,3h18c1.7,0,3-1.3,3-3v-15C223.2,309.3,221.9,308,220.2,308z M211.2,321.5c-1.7,0-3-1.3-3-3
		s1.3-3,3-3s3,1.3,3,3S212.9,321.5,211.2,321.5z M215.9,308h-9.3v-3c0-2.6,2.1-4.7,4.6-4.7s4.7,2.1,4.7,4.6l0,0V308L215.9,308z"/>
	<path id="Icon_material-lock_4_" class="st3" d="M458.4,162.1h-1.5v-3c0-4.1-3.4-7.5-7.5-7.5s-7.5,3.4-7.5,7.5v3h-1.5
		c-1.7,0-3,1.3-3,3v15c0,1.7,1.3,3,3,3h18c1.7,0,3-1.3,3-3v-15C461.4,163.4,460.1,162.1,458.4,162.1z M449.4,175.6c-1.7,0-3-1.3-3-3
		s1.3-3,3-3s3,1.3,3,3S451.1,175.6,449.4,175.6z M454.1,162.1h-9.3v-3c0-2.6,2.1-4.7,4.6-4.7s4.7,2.1,4.7,4.6l0,0L454.1,162.1
		L454.1,162.1z"/>
	<path id="Icon_material-lock-2" class="st3" d="M583.4,16.8h-1.5v-3c0-4.1-3.4-7.5-7.5-7.5s-7.5,3.4-7.5,7.5v3h-1.5
		c-1.7,0-3,1.3-3,3v15c0,1.7,1.3,3,3,3h18c1.7,0,3-1.3,3-3v-15C586.4,18.1,585.1,16.8,583.4,16.8z M574.4,30.3c-1.7,0-3-1.3-3-3
		s1.3-3,3-3s3,1.3,3,3C577.4,28.9,576.1,30.3,574.4,30.3z M579.1,16.8h-9.3v-3c0-2.6,2.1-4.7,4.6-4.7c2.6,0,4.7,2.1,4.7,4.6l0,0
		V16.8z"/>
	<path id="Icon_material-lock-3" class="st3" d="M731.4,122.8h-1.5v-3c0-4.1-3.4-7.5-7.5-7.5s-7.5,3.4-7.5,7.5v3h-1.5
		c-1.7,0-3,1.3-3,3v15c0,1.7,1.3,3,3,3h18c1.7,0,3-1.3,3-3v-15C734.4,124.1,733.1,122.8,731.4,122.8z M722.4,136.3c-1.7,0-3-1.3-3-3
		s1.3-3,3-3s3,1.3,3,3C725.4,134.9,724.1,136.3,722.4,136.3z M727.1,122.8h-9.3v-3c0-2.6,2.1-4.7,4.6-4.7c2.6,0,4.7,2.1,4.7,4.6l0,0
		V122.8z"/>
	<path id="Icon_material-lock-4" class="st3" d="M689.4,298.8h-1.5v-3c0-4.1-3.4-7.5-7.5-7.5s-7.5,3.4-7.5,7.5v3h-1.5
		c-1.7,0-3,1.3-3,3v15c0,1.7,1.3,3,3,3h18c1.7,0,3-1.3,3-3v-15C692.4,300.1,691.1,298.8,689.4,298.8z M680.4,312.3c-1.7,0-3-1.3-3-3
		s1.3-3,3-3s3,1.3,3,3C683.4,310.9,682.1,312.3,680.4,312.3z M685.1,298.8h-9.3v-3c0-2.6,2.1-4.7,4.6-4.7c2.6,0,4.7,2.1,4.7,4.6l0,0
		V298.8z"/>
	<path id="Icon_material-lock-5" class="st3" d="M754.4,440h-1.5v-3c0-4.1-3.4-7.5-7.5-7.5s-7.5,3.4-7.5,7.5v3h-1.5
		c-1.7,0-3,1.3-3,3v15c0,1.7,1.3,3,3,3h18c1.7,0,3-1.3,3-3v-15C757.4,441.4,756.1,440,754.4,440z M745.4,453.5c-1.7,0-3-1.3-3-3
		s1.3-3,3-3s3,1.3,3,3S747.1,453.5,745.4,453.5z M750.1,440h-9.3v-3c0-2.6,2.1-4.7,4.6-4.7c2.6,0,4.7,2.1,4.7,4.6l0,0V440z"/>
	<path id="Icon_material-lock-7" class="st3" d="M563.7,323.8h-1.5v-3c0-4.1-3.4-7.5-7.5-7.5s-7.5,3.4-7.5,7.5v3h-1.5
		c-1.7,0-3,1.3-3,3v15c0,1.7,1.3,3,3,3h18c1.7,0,3-1.3,3-3v-15C566.7,325.1,565.3,323.8,563.7,323.8z M554.7,337.3c-1.7,0-3-1.3-3-3
		s1.3-3,3-3s3,1.3,3,3C557.7,335.9,556.3,337.3,554.7,337.3z M559.3,323.8H550v-3c0-2.6,2.1-4.7,4.6-4.7c2.6,0,4.7,2.1,4.7,4.6l0,0
		V323.8z"/>
	<path id="Icon_material-lock-8" class="st3" d="M532.7,454.8h-1.5v-3c0-4.1-3.4-7.5-7.5-7.5s-7.5,3.4-7.5,7.5v3h-1.5
		c-1.7,0-3,1.3-3,3v15c0,1.7,1.3,3,3,3h18c1.7,0,3-1.3,3-3v-15C535.7,456.1,534.3,454.8,532.7,454.8z M523.7,468.3c-1.7,0-3-1.3-3-3
		s1.3-3,3-3s3,1.3,3,3C526.7,466.9,525.3,468.3,523.7,468.3z M528.3,454.8H519v-3c0-2.6,2.1-4.7,4.6-4.7c2.6,0,4.7,2.1,4.7,4.6l0,0
		V454.8z"/>
	<path id="Icon_material-lock-9" class="st3" d="M665.4,518.9h-1.5v-3c0-4.1-3.4-7.5-7.5-7.5s-7.5,3.4-7.5,7.5v3h-1.5
		c-1.7,0-3,1.3-3,3v15c0,1.7,1.3,3,3,3h18c1.7,0,3-1.3,3-3v-15C668.4,520.2,667.1,518.9,665.4,518.9z M656.4,532.4c-1.7,0-3-1.3-3-3
		s1.3-3,3-3s3,1.3,3,3S658.1,532.4,656.4,532.4z M661.1,518.9h-9.3v-3c0-2.6,2.1-4.7,4.6-4.7c2.6,0,4.7,2.1,4.7,4.6l0,0V518.9z"/>
	<path id="Icon_material-lock-10" class="st3" d="M552.7,685.2h-1.5v-3c0-4.1-3.4-7.5-7.5-7.5s-7.5,3.4-7.5,7.5v3h-1.5
		c-1.7,0-3,1.3-3,3v15c0,1.7,1.3,3,3,3h18c1.7,0,3-1.3,3-3v-15C555.7,686.5,554.3,685.2,552.7,685.2z M543.7,698.6c-1.7,0-3-1.3-3-3
		s1.3-3,3-3s3,1.3,3,3S545.3,698.6,543.7,698.6z M548.3,685.2H539v-3c0-2.6,2.1-4.7,4.6-4.7c2.6,0,4.7,2.1,4.7,4.6l0,0V685.2z"/>
	<path id="Icon_material-lock-11" class="st3" d="M387,779.2h-1.5v-3c0-4.1-3.4-7.5-7.5-7.5s-7.5,3.4-7.5,7.5v3H369
		c-1.7,0-3,1.3-3,3v15c0,1.7,1.3,3,3,3h18c1.7,0,3-1.3,3-3v-15C390,780.5,388.6,779.2,387,779.2z M378,792.6c-1.7,0-3-1.3-3-3
		s1.3-3,3-3s3,1.3,3,3S379.6,792.6,378,792.6z M382.6,779.2h-9.3v-3c0-2.6,2.1-4.7,4.6-4.7s4.7,2.1,4.7,4.6l0,0L382.6,779.2
		L382.6,779.2z"/>
	<path id="Icon_material-lock-12" class="st3" d="M283.4,912.9h-1.5v-3c0-4.1-3.4-7.5-7.5-7.5s-7.5,3.4-7.5,7.5v3h-1.5
		c-1.7,0-3,1.3-3,3v15c0,1.7,1.3,3,3,3h18c1.7,0,3-1.3,3-3v-15C286.4,914.2,285.1,912.9,283.4,912.9z M274.4,926.4c-1.7,0-3-1.3-3-3
		s1.3-3,3-3s3,1.3,3,3S276.1,926.4,274.4,926.4z M279.1,912.9h-9.3v-3c0-2.6,2.1-4.7,4.6-4.7s4.7,2.1,4.7,4.6l0,0L279.1,912.9
		L279.1,912.9z"/>
	<path id="Icon_material-lock-13" class="st3" d="M243.4,1059.9h-1.5v-3c0-4.1-3.4-7.5-7.5-7.5s-7.5,3.4-7.5,7.5v3h-1.5
		c-1.7,0-3,1.3-3,3v15c0,1.7,1.3,3,3,3h18c1.7,0,3-1.3,3-3v-15C246.4,1061.2,245.1,1059.9,243.4,1059.9z M234.4,1073.4
		c-1.7,0-3-1.3-3-3s1.3-3,3-3s3,1.3,3,3S236.1,1073.4,234.4,1073.4z M239.1,1059.9h-9.3v-3c0-2.6,2.1-4.7,4.6-4.7
		c2.6,0,4.7,2.1,4.7,4.6l0,0V1059.9L239.1,1059.9z"/>
	<path id="Icon_material-lock-22" class="st3" d="M313.9,1220.9h-1.5v-3c0-4.1-3.4-7.5-7.5-7.5s-7.5,3.4-7.5,7.5v3h-1.5
		c-1.7,0-3,1.3-3,3v15c0,1.7,1.3,3,3,3h18c1.7,0,3-1.3,3-3v-15C316.9,1222.2,315.6,1220.9,313.9,1220.9z M304.9,1234.4
		c-1.7,0-3-1.3-3-3s1.3-3,3-3s3,1.3,3,3S306.6,1234.4,304.9,1234.4z M309.6,1220.9h-9.3v-3c0-2.6,2.1-4.7,4.6-4.7
		c2.6,0,4.7,2.1,4.7,4.6l0,0L309.6,1220.9L309.6,1220.9z"/>
	<path id="Icon_material-lock-24" class="st3" d="M-125.6,404.9h-1.5v-3c0-4.1-3.4-7.5-7.5-7.5s-7.5,3.4-7.5,7.5v3h-1.5
		c-1.7,0-3,1.3-3,3v15c0,1.7,1.3,3,3,3h18c1.7,0,3-1.3,3-3v-15C-122.6,406.2-123.9,404.9-125.6,404.9z M-134.6,418.4
		c-1.7,0-3-1.3-3-3s1.3-3,3-3s3,1.3,3,3S-132.9,418.4-134.6,418.4z M-129.9,404.9h-9.3v-3c0-2.6,2.1-4.7,4.6-4.7s4.7,2.1,4.7,4.6
		l0,0V404.9z"/>
	<path id="Icon_material-lock-25" class="st3" d="M-17.6,521.9h-1.5v-3c0-4.1-3.4-7.5-7.5-7.5s-7.5,3.4-7.5,7.5v3h-1.5
		c-1.7,0-3,1.3-3,3v15c0,1.7,1.3,3,3,3h18c1.7,0,3-1.3,3-3v-15C-14.6,523.2-15.9,521.9-17.6,521.9z M-26.6,535.4c-1.7,0-3-1.3-3-3
		s1.3-3,3-3s3,1.3,3,3S-24.9,535.4-26.6,535.4z M-21.9,521.9h-9.3v-3c0-2.6,2.1-4.7,4.6-4.7s4.7,2.1,4.7,4.6l0,0
		C-21.9,518.8-21.9,521.9-21.9,521.9z"/>
	<path id="Icon_material-lock-26" class="st3" d="M125.4,562.9h-1.5v-3c0-4.1-3.4-7.5-7.5-7.5s-7.5,3.4-7.5,7.5v3h-1.5
		c-1.7,0-3,1.3-3,3v15c0,1.7,1.3,3,3,3h18c1.7,0,3-1.3,3-3v-15C128.4,564.2,127.1,562.9,125.4,562.9z M116.4,576.4c-1.7,0-3-1.3-3-3
		s1.3-3,3-3s3,1.3,3,3S118.1,576.4,116.4,576.4z M121.1,562.9h-9.3v-3c0-2.6,2.1-4.7,4.6-4.7c2.6,0,4.7,2.1,4.7,4.6l0,0
		C121.1,559.8,121.1,562.9,121.1,562.9z"/>
	<path id="Icon_material-lock-27" class="st3" d="M98.4,404.9h-1.5v-3c0-4.1-3.4-7.5-7.5-7.5s-7.5,3.4-7.5,7.5v3h-1.5
		c-1.7,0-3,1.3-3,3v15c0,1.7,1.3,3,3,3h18c1.7,0,3-1.3,3-3v-15C101.4,406.2,100.1,404.9,98.4,404.9z M89.4,418.4c-1.7,0-3-1.3-3-3
		s1.3-3,3-3s3,1.3,3,3S91.1,418.4,89.4,418.4z M94.1,404.9h-9.3v-3c0-2.6,2.1-4.7,4.6-4.7c2.6,0,4.7,2.1,4.7,4.6l0,0
		C94.1,401.8,94.1,404.9,94.1,404.9z"/>
</g>
<g id="Grupo_2294" transform="translate(-247.135 -223.001)">
	<path id="Icon_metro-bubble" class="st13" d="M614.4,511c-27.7,0-50.2-12.8-50.2-28.5c0-15.7,22.5-28.5,50.2-28.5
		c2.7,0,5.3,0.1,7.9,0.4c10.8-7.5,23.7-8.9,36.1-9.1v1.8c-6.8,2.3-12.6,6.5-12.6,11.3c0,0.6,0.1,1.3,0.2,1.9
		c11.4,5.2,18.6,13.2,18.6,22.1C664.6,498.3,642.2,511,614.4,511z"/>
	<g class="st11">
		<path class="st1" d="M581.1,471.9l0.8-1.2c0.6,0.6,1.6,1.2,2.8,1.2c1.2,0,1.8-0.6,1.8-1.2c0-1.8-5-0.6-5-3.9
			c0-1.5,1.2-2.5,3.1-2.5c1.3,0,2.4,0.5,3.2,1.2l-0.8,1.1c-0.6-0.6-1.6-1-2.5-1c-0.9,0-1.5,0.5-1.5,1.1c0,1.7,5,0.6,5,3.8
			c0,1.5-1,2.7-3.3,2.7C583.1,473.3,581.9,472.8,581.1,471.9z"/>
		<path class="st1" d="M589.4,471.7v-3.6h-1v-1.2h1v-1.7h1.4v1.7h1.3v1.2h-1.3v3.2c0,0.5,0.2,0.7,0.6,0.7c0.3,0,0.5-0.1,0.6-0.3
			l0.4,1c-0.3,0.2-0.6,0.4-1.3,0.4C590,473.3,589.4,472.8,589.4,471.7z"/>
		<path class="st1" d="M597.1,473.2v-0.6c-0.5,0.6-1.2,0.8-2,0.8c-1,0-2.1-0.7-2.1-2c0-1.5,1.1-2,2.1-2c0.8,0,1.6,0.3,2,0.8v-0.9
			c0-0.7-0.6-1.2-1.5-1.2c-0.7,0-1.3,0.3-1.8,0.8l-0.6-0.9c0.7-0.7,1.7-1,2.6-1c1.4,0,2.6,0.6,2.6,2.2v4.2L597.1,473.2L597.1,473.2z
			 M597.1,471.7v-0.9c-0.4-0.5-0.9-0.6-1.5-0.6c-0.7,0-1.4,0.5-1.4,1.1s0.6,1.1,1.4,1.1C596.2,472.4,596.8,472.2,597.1,471.7z"/>
		<path class="st1" d="M600.3,473.2v-6.3h1.4v0.9c0.5-0.6,1.2-1,2-1v1.4c-0.1,0-0.3,0-0.4,0c-0.6,0-1.4,0.4-1.7,0.8v4.3L600.3,473.2
			L600.3,473.2z"/>
		<path class="st1" d="M605,471.7v-3.6h-1v-1.2h1v-1.7h1.4v1.7h1.3v1.2h-1.3v3.2c0,0.5,0.2,0.7,0.6,0.7c0.3,0,0.5-0.1,0.6-0.3l0.4,1
			c-0.3,0.2-0.6,0.4-1.3,0.4C605.5,473.3,605,472.8,605,471.7z"/>
		<path class="st1" d="M616.4,473.2v-4c0-1-0.5-1.3-1.3-1.3c-0.7,0-1.3,0.4-1.6,0.8v4.3h-1.4v-8.6h1.4v3.2c0.4-0.5,1.2-1,2.2-1
			c1.4,0,2,0.7,2,1.9v4.4L616.4,473.2L616.4,473.2z"/>
		<path class="st1" d="M619.2,470.1c0-1.8,1.3-3.2,3.1-3.2s3.1,1.4,3.1,3.4v0.4h-4.8c0.1,0.9,0.8,1.8,1.9,1.8c0.6,0,1.3-0.3,1.8-0.7
			l0.6,0.9c-0.6,0.6-1.6,0.9-2.5,0.9C620.6,473.3,619.2,472,619.2,470.1z M622.4,467.9c-1.1,0-1.7,0.9-1.8,1.7h3.5
			C624.1,468.8,623.6,467.9,622.4,467.9z"/>
		<path class="st1" d="M626.8,473.2v-6.3h1.4v0.9c0.5-0.6,1.2-1,2-1v1.4c-0.1,0-0.3,0-0.4,0c-0.6,0-1.4,0.4-1.7,0.8v4.3L626.8,473.2
			L626.8,473.2z"/>
		<path class="st1" d="M630.9,470.1c0-1.8,1.3-3.2,3.1-3.2c1.8,0,3.1,1.4,3.1,3.4v0.4h-4.8c0.1,0.9,0.8,1.8,1.9,1.8
			c0.6,0,1.3-0.3,1.8-0.7l0.6,0.9c-0.6,0.6-1.6,0.9-2.5,0.9C632.3,473.3,630.9,472,630.9,470.1z M634,467.9c-1.1,0-1.7,0.9-1.8,1.7
			h3.5C635.8,468.8,635.3,467.9,634,467.9z"/>
		<path class="st1" d="M641.7,465.3c0-0.5,0.4-0.8,0.8-0.8s0.8,0.4,0.8,0.8s-0.4,0.8-0.8,0.8C642.1,466.2,641.7,465.8,641.7,465.3z
			 M641.8,473.2v-6.3h1.4v6.3H641.8z"/>
		<path class="st1" d="M645.3,473.2v-5.1h-1v-1.2h1v-0.4c0-1.4,0.8-2.1,1.9-2.1c0.6,0,1.1,0.2,1.5,0.6l-0.6,0.8
			c-0.2-0.2-0.4-0.3-0.7-0.3c-0.6,0-0.8,0.4-0.8,1v0.4h1.3v1.2h-1.3v5.1L645.3,473.2L645.3,473.2z"/>
	</g>
	<g class="st11">
		<path class="st1" d="M571.5,486.5c0.2,0.1,0.4,0.1,0.6,0.1c0.5,0,0.7-0.1,0.9-0.6l0.3-0.7l-2.6-6.3h1.5l1.8,4.7l1.8-4.7h1.5
			l-3.1,7.4c-0.5,1-1.2,1.4-2.1,1.4c-0.2,0-0.6,0-0.7-0.1L571.5,486.5z"/>
		<path class="st1" d="M577.7,482.1c0-1.8,1.2-3.2,3.2-3.2s3.2,1.5,3.2,3.2c0,1.8-1.2,3.3-3.2,3.3S577.7,483.9,577.7,482.1z
			 M582.7,482.1c0-1.1-0.6-2-1.8-2s-1.8,1-1.8,2c0,1.1,0.6,2.1,1.8,2.1C582,484.1,582.7,483.2,582.7,482.1z"/>
		<path class="st1" d="M589.7,485.3v-0.8c-0.5,0.5-1.2,1-2.2,1c-1.4,0-2-0.7-2-1.9v-4.4h1.4v3.9c0,1,0.5,1.3,1.3,1.3
			c0.6,0,1.3-0.4,1.6-0.8v-4.3h1.4v6.3L589.7,485.3L589.7,485.3z"/>
		<path class="st1" d="M600.4,485.3v-4c0-1-0.5-1.3-1.3-1.3c-0.7,0-1.3,0.4-1.6,0.8v4.3h-1.4v-8.6h1.4v3.2c0.4-0.5,1.2-1,2.2-1
			c1.4,0,2,0.7,2,1.9v4.4L600.4,485.3L600.4,485.3z"/>
		<path class="st1" d="M607.4,485.3v-0.6c-0.5,0.6-1.2,0.8-2,0.8c-1,0-2.1-0.7-2.1-2c0-1.5,1.1-2,2.1-2c0.8,0,1.6,0.3,2,0.8v-0.9
			c0-0.7-0.6-1.2-1.5-1.2c-0.7,0-1.3,0.3-1.8,0.8l-0.6-0.9c0.7-0.7,1.7-1,2.6-1c1.4,0,2.6,0.6,2.6,2.2v4.2L607.4,485.3L607.4,485.3z
			 M607.4,483.8v-0.9c-0.4-0.5-0.9-0.6-1.5-0.6c-0.7,0-1.4,0.5-1.4,1.1s0.6,1.1,1.4,1.1C606.5,484.4,607,484.2,607.4,483.8z"/>
		<path class="st1" d="M612.1,485.3l-2.6-6.3h1.5l1.8,4.7l1.8-4.7h1.5l-2.6,6.3H612.1z"/>
		<path class="st1" d="M616.6,482.1c0-1.8,1.3-3.2,3.1-3.2c1.8,0,3.1,1.4,3.1,3.4v0.4H618c0.1,0.9,0.8,1.8,1.9,1.8
			c0.6,0,1.3-0.3,1.8-0.7l0.6,0.9c-0.6,0.6-1.6,0.9-2.5,0.9C618,485.3,616.6,484,616.6,482.1z M619.8,479.9c-1.1,0-1.7,0.9-1.8,1.7
			h3.5C621.5,480.8,621,479.9,619.8,479.9z"/>
		<path class="st1" d="M627,484.4l0.6-1c0.5,0.5,1.3,0.8,2.1,0.8c0.8,0,1.2-0.4,1.2-0.8c0-1.2-3.8-0.4-3.8-2.8c0-1,0.9-1.8,2.5-1.8
			c1,0,1.8,0.4,2.4,0.8l-0.6,0.9c-0.4-0.4-1-0.7-1.8-0.7c-0.7,0-1.1,0.4-1.1,0.7c0,1.1,3.8,0.3,3.8,2.8c0,1.1-0.9,1.9-2.6,1.9
			C628.6,485.3,627.6,485,627,484.4z"/>
		<path class="st1" d="M633.3,482.1c0-1.8,1.2-3.2,3.2-3.2c2,0,3.2,1.5,3.2,3.2c0,1.8-1.2,3.3-3.2,3.3
			C634.5,485.3,633.3,483.9,633.3,482.1z M638.3,482.1c0-1.1-0.6-2-1.8-2s-1.8,1-1.8,2c0,1.1,0.6,2.1,1.8,2.1
			C637.6,484.1,638.3,483.2,638.3,482.1z"/>
		<path class="st1" d="M648.7,485.3v-4.1c0-0.6-0.3-1.1-1-1.1c-0.6,0-1.2,0.4-1.5,0.8v4.3h-1.4v-4.1c0-0.6-0.3-1.1-1-1.1
			c-0.6,0-1.2,0.5-1.5,0.8v4.3H641V479h1.4v0.8c0.3-0.4,1.1-1,2-1s1.5,0.5,1.7,1.1c0.4-0.6,1.2-1.1,2.1-1.1c1.1,0,1.8,0.6,1.8,1.8
			v4.5L648.7,485.3L648.7,485.3L648.7,485.3z"/>
		<path class="st1" d="M651.5,482.1c0-1.8,1.3-3.2,3.1-3.2c1.8,0,3.1,1.4,3.1,3.4v0.4h-4.8c0.1,0.9,0.8,1.8,1.9,1.8
			c0.6,0,1.3-0.3,1.8-0.7l0.6,0.9c-0.6,0.6-1.6,0.9-2.5,0.9C652.9,485.3,651.5,484,651.5,482.1z M654.6,479.9
			c-1.1,0-1.7,0.9-1.8,1.7h3.5C656.4,480.8,655.8,479.9,654.6,479.9z"/>
	</g>
	<g class="st11">
		<path class="st1" d="M582.8,494.1c0-1.8,1.3-3.2,3.1-3.2s3.1,1.4,3.1,3.4v0.4h-4.8c0.1,0.9,0.8,1.8,1.9,1.8c0.6,0,1.3-0.3,1.8-0.7
			l0.6,0.9c-0.6,0.6-1.6,0.9-2.5,0.9C584.2,497.4,582.8,496.1,582.8,494.1z M586,491.9c-1.1,0-1.7,0.9-1.8,1.7h3.5
			C587.7,492.8,587.2,491.9,586,491.9z"/>
		<path class="st1" d="M594.3,497.3l-1.7-2.3l-1.7,2.3h-1.6l2.3-3.2l-2.1-3.1h1.6l1.5,2.1l1.5-2.1h1.6l-2.1,3.1l2.3,3.2H594.3z"/>
		<path class="st1" d="M598.2,496.3v3.2h-1.4V491h1.4v0.8c0.5-0.6,1.2-1,2-1c1.7,0,2.8,1.2,2.8,3.2s-1.1,3.3-2.8,3.3
			C599.4,497.4,598.7,497,598.2,496.3z M601.6,494.1c0-1.2-0.7-2-1.8-2c-0.6,0-1.3,0.4-1.6,0.8v2.5c0.3,0.5,1,0.8,1.6,0.8
			C600.9,496.2,601.6,495.3,601.6,494.1z"/>
		<path class="st1" d="M604,494.1c0-1.8,1.3-3.2,3.1-3.2c1.8,0,3.1,1.4,3.1,3.4v0.4h-4.8c0.1,0.9,0.8,1.8,1.9,1.8
			c0.6,0,1.3-0.3,1.8-0.7l0.6,0.9c-0.6,0.6-1.6,0.9-2.5,0.9C605.3,497.4,604,496.1,604,494.1z M607.1,491.9c-1.1,0-1.7,0.9-1.8,1.7
			h3.5C608.9,492.8,608.4,491.9,607.1,491.9z"/>
		<path class="st1" d="M611.5,497.3V491h1.4v0.9c0.5-0.6,1.2-1,2-1v1.4c-0.1,0-0.3,0-0.4,0c-0.6,0-1.4,0.4-1.7,0.8v4.3L611.5,497.3
			L611.5,497.3z"/>
		<path class="st1" d="M615.9,489.3c0-0.5,0.4-0.8,0.8-0.8s0.8,0.4,0.8,0.8s-0.4,0.8-0.8,0.8C616.3,490.2,615.9,489.9,615.9,489.3z
			 M616.1,497.3V491h1.4v6.3H616.1z"/>
		<path class="st1" d="M618.8,494.1c0-1.8,1.3-3.2,3.1-3.2s3.1,1.4,3.1,3.4v0.4h-4.8c0.1,0.9,0.8,1.8,1.9,1.8c0.6,0,1.3-0.3,1.8-0.7
			l0.6,0.9c-0.6,0.6-1.6,0.9-2.5,0.9C620.1,497.4,618.8,496.1,618.8,494.1z M622,491.9c-1.1,0-1.7,0.9-1.8,1.7h3.5
			C623.7,492.8,623.2,491.9,622,491.9z"/>
		<path class="st1" d="M630.6,497.3v-3.9c0-1-0.5-1.3-1.3-1.3c-0.6,0-1.3,0.4-1.6,0.8v4.3h-1.4V491h1.4v0.8c0.4-0.5,1.2-1,2.2-1
			c1.4,0,2,0.7,2,2v4.4H630.6z"/>
		<path class="st1" d="M633.4,494.1c0-1.8,1.3-3.2,3.2-3.2c1.2,0,1.9,0.6,2.4,1.1l-0.9,0.8c-0.4-0.5-0.8-0.7-1.5-0.7
			c-1.1,0-1.8,0.8-1.8,2c0,1.2,0.7,2.1,1.8,2.1c0.6,0,1.1-0.3,1.5-0.7l0.9,0.8c-0.5,0.6-1.2,1.1-2.4,1.1
			C634.7,497.4,633.4,496,633.4,494.1z"/>
		<path class="st1" d="M639.8,494.1c0-1.8,1.3-3.2,3.1-3.2c1.8,0,3.1,1.4,3.1,3.4v0.4h-4.8c0.1,0.9,0.8,1.8,1.9,1.8
			c0.6,0,1.3-0.3,1.8-0.7l0.6,0.9c-0.6,0.6-1.6,0.9-2.5,0.9C641.2,497.4,639.8,496.1,639.8,494.1z M643,491.9
			c-1.1,0-1.7,0.9-1.8,1.7h3.5C644.7,492.8,644.2,491.9,643,491.9z"/>
	</g>
</g>
<g id="Grupo_2293" transform="translate(-449.848 11.999)">
	<path id="Icon_metro-bubble_1_" class="st13" d="M1008.6-3c22.8,0,41.3,15,41.3,33.5S1031.4,64,1008.6,64c-2.1,0-4.3-0.1-6.4-0.4
		c-8.9,8.9-19.4,10.5-29.6,10.6v-2.1c5.5-2.7,10.3-7.6,10.3-13.2c0-0.7-0.1-1.6-0.2-2.3c-9.3-6.1-15.3-15.5-15.3-26
		C967.4,12,985.9-3,1008.6-3L1008.6-3z"/>
	<g class="st11">
		<path class="st1" d="M980.3,12.2c0-2.7,1.9-4.4,4.5-4.4c1.8,0,2.9,0.9,3.4,1.9l-1.3,0.6c-0.4-0.7-1.3-1.3-2.2-1.3
			c-1.7,0-3,1.3-3,3.1c0,1.8,1.3,3.1,3,3.1c0.9,0,1.8-0.6,2.2-1.3l1.3,0.6c-0.6,1-1.8,1.9-3.5,1.9C982.3,16.6,980.3,14.9,980.3,12.2
			z"/>
		<path class="st1" d="M989.1,13.4c0-1.8,1.2-3.2,3.2-3.2s3.2,1.5,3.2,3.2s-1.2,3.3-3.2,3.3S989.1,15.2,989.1,13.4z M994.1,13.4
			c0-1.1-0.6-2-1.8-2s-1.8,1-1.8,2c0,1.1,0.6,2.1,1.8,2.1C993.5,15.4,994.1,14.5,994.1,13.4z"/>
		<path class="st1" d="M1004.6,16.5v-4.2c0-0.6-0.3-1.1-1-1.1c-0.6,0-1.2,0.4-1.5,0.8v4.3h-1.4v-4.1c0-0.6-0.3-1.1-1-1.1
			c-0.6,0-1.2,0.5-1.5,0.8v4.3h-1.4v-6.2h1.4v0.8c0.3-0.4,1.1-1,2-1s1.5,0.5,1.7,1.1c0.4-0.6,1.2-1.1,2.1-1.1c1.1,0,1.8,0.6,1.8,1.8
			v4.5L1004.6,16.5L1004.6,16.5L1004.6,16.5z"/>
		<path class="st1" d="M1009.1,15.6v3.2h-1.4v-8.6h1.4v0.8c0.5-0.6,1.2-1,2-1c1.7,0,2.8,1.2,2.8,3.2s-1.1,3.3-2.8,3.3
			C1010.3,16.6,1009.6,16.3,1009.1,15.6z M1012.4,13.4c0-1.2-0.7-2-1.8-2c-0.6,0-1.3,0.4-1.6,0.8v2.4c0.3,0.5,1,0.8,1.6,0.8
			C1011.8,15.4,1012.4,14.6,1012.4,13.4z"/>
		<path class="st1" d="M1015.2,16.5V7.9h1.4v8.6H1015.2z"/>
		<path class="st1" d="M1018,13.4c0-1.8,1.3-3.2,3.1-3.2c1.8,0,3.1,1.4,3.1,3.4V14h-4.8c0.1,0.9,0.8,1.8,1.9,1.8
			c0.6,0,1.3-0.3,1.8-0.7l0.6,0.9c-0.6,0.6-1.6,0.9-2.5,0.9C1019.4,16.6,1018,15.3,1018,13.4z M1021.1,11.2c-1.1,0-1.7,0.9-1.8,1.7
			h3.5C1022.9,12.1,1022.3,11.2,1021.1,11.2z"/>
		<path class="st1" d="M1025.9,15.1v-3.6h-1v-1.2h1V8.5h1.4v1.7h1.3v1.2h-1.3v3.2c0,0.5,0.2,0.7,0.6,0.7c0.3,0,0.5-0.1,0.6-0.3
			l0.4,1c-0.3,0.2-0.6,0.4-1.3,0.4C1026.4,16.6,1025.9,16.1,1025.9,15.1z"/>
		<path class="st1" d="M1029.4,13.4c0-1.8,1.3-3.2,3.1-3.2s3.1,1.4,3.1,3.4V14h-4.8c0.1,0.9,0.8,1.8,1.9,1.8c0.6,0,1.3-0.3,1.8-0.7
			l0.6,0.9c-0.6,0.6-1.6,0.9-2.5,0.9C1030.8,16.6,1029.4,15.3,1029.4,13.4z M1032.5,11.2c-1.1,0-1.7,0.9-1.8,1.7h3.5
			C1034.2,12.1,1033.7,11.2,1032.5,11.2z"/>
	</g>
	<g class="st11">
		<path class="st1" d="M979.9,28.6V20h1.4v3.2c0.5-0.6,1.2-1,2-1c1.7,0,2.8,1.3,2.8,3.2c0,2-1.2,3.3-2.8,3.3c-0.8,0-1.6-0.4-2-1v0.8
			C981.3,28.6,979.9,28.6,979.9,28.6z M982.8,27.5c1.1,0,1.8-0.8,1.8-2.1c0-1.2-0.6-2-1.8-2c-0.6,0-1.3,0.4-1.7,0.8v2.5
			C981.5,27.1,982.2,27.5,982.8,27.5z"/>
		<path class="st1" d="M987,25.4c0-1.8,1.3-3.2,3.1-3.2s3.1,1.4,3.1,3.4V26h-4.8c0.1,0.9,0.8,1.8,1.9,1.8c0.6,0,1.3-0.3,1.8-0.7
			l0.6,0.9c-0.6,0.6-1.6,0.9-2.5,0.9C988.4,28.7,987,27.4,987,25.4z M990.2,23.2c-1.1,0-1.7,0.9-1.8,1.7h3.5
			C991.9,24.1,991.4,23.2,990.2,23.2z"/>
		<path class="st1" d="M994.5,30.1l0.6-1c0.6,0.6,1.2,0.8,2,0.8c0.9,0,1.8-0.4,1.8-1.8v-0.7c-0.5,0.6-1.2,1-2,1
			c-1.6,0-2.8-1.1-2.8-3.2c0-2,1.1-3.2,2.8-3.2c0.8,0,1.5,0.4,2,1v-0.8h1.4v5.9c0,2.2-1.7,2.9-3.2,2.9
			C996.1,31.1,995.2,30.8,994.5,30.1z M998.9,26.5v-2.3c-0.3-0.5-1-0.8-1.6-0.8c-1.1,0-1.8,0.8-1.8,2c0,1.2,0.6,2,1.8,2
			C998,27.3,998.7,26.9,998.9,26.5z"/>
		<path class="st1" d="M1001.9,20.6c0-0.5,0.4-0.8,0.8-0.8c0.5,0,0.8,0.4,0.8,0.8s-0.4,0.8-0.8,0.8
			C1002.3,21.4,1001.9,21.2,1001.9,20.6z M1002.1,28.6v-6.3h1.4v6.3H1002.1z"/>
		<path class="st1" d="M1009.5,28.6v-3.9c0-1-0.5-1.3-1.3-1.3c-0.6,0-1.3,0.4-1.6,0.8v4.3h-1.4v-6.3h1.4v0.8c0.4-0.5,1.2-1,2.2-1
			c1.4,0,2,0.7,2,2v4.4H1009.5z"/>
		<path class="st1" d="M1016.8,28.6v-3.9c0-1-0.5-1.3-1.3-1.3c-0.6,0-1.3,0.4-1.6,0.8v4.3h-1.4v-6.3h1.4v0.8c0.4-0.5,1.2-1,2.2-1
			c1.4,0,2,0.7,2,2v4.4H1016.8z"/>
		<path class="st1" d="M1019.6,25.4c0-1.8,1.3-3.2,3.1-3.2s3.1,1.4,3.1,3.4V26h-4.8c0.1,0.9,0.8,1.8,1.9,1.8c0.6,0,1.3-0.3,1.8-0.7
			l0.6,0.9c-0.6,0.6-1.6,0.9-2.5,0.9C1021,28.7,1019.6,27.4,1019.6,25.4z M1022.7,23.2c-1.1,0-1.7,0.9-1.8,1.7h3.5
			C1024.5,24.1,1023.9,23.2,1022.7,23.2z"/>
		<path class="st1" d="M1027.1,28.6v-6.3h1.4v0.9c0.5-0.6,1.2-1,2-1v1.4c-0.1,0-0.3,0-0.4,0c-0.6,0-1.4,0.4-1.7,0.8v4.3L1027.1,28.6
			L1027.1,28.6z"/>
		<path class="st1" d="M1031.1,27.7l0.6-1c0.5,0.5,1.3,0.8,2.1,0.8c0.8,0,1.2-0.4,1.2-0.8c0-1.2-3.8-0.4-3.8-2.8
			c0-1,0.9-1.8,2.5-1.8c1,0,1.8,0.4,2.4,0.8l-0.6,0.9c-0.4-0.4-1-0.7-1.8-0.7c-0.7,0-1.1,0.4-1.1,0.7c0,1.1,3.8,0.3,3.8,2.8
			c0,1.1-0.9,1.9-2.6,1.9C1032.7,28.7,1031.8,28.3,1031.1,27.7z"/>
	</g>
	<g class="st11">
		<path class="st1" d="M974.2,39.8l0.6-1c0.5,0.5,1.3,0.8,2.1,0.8c0.8,0,1.2-0.4,1.2-0.8c0-1.2-3.8-0.4-3.8-2.8c0-1,0.9-1.8,2.5-1.8
			c1,0,1.8,0.4,2.4,0.8l-0.6,0.9c-0.4-0.4-1-0.7-1.8-0.7c-0.7,0-1.1,0.4-1.1,0.7c0,1.1,3.8,0.3,3.8,2.8c0,1.1-0.9,1.9-2.6,1.9
			C975.8,40.7,974.9,40.3,974.2,39.8z"/>
		<path class="st1" d="M985.2,40.6v-4c0-1-0.5-1.3-1.3-1.3c-0.7,0-1.3,0.4-1.6,0.8v4.3h-1.4v-8.6h1.4v3.2c0.4-0.5,1.2-1,2.2-1
			c1.4,0,2,0.7,2,1.9v4.4L985.2,40.6L985.2,40.6z"/>
		<path class="st1" d="M987.8,37.4c0-1.8,1.2-3.2,3.2-3.2s3.2,1.5,3.2,3.2c0,1.8-1.2,3.3-3.2,3.3S987.8,39.2,987.8,37.4z
			 M992.8,37.4c0-1.1-0.6-2-1.8-2s-1.8,1-1.8,2c0,1.1,0.6,2.1,1.8,2.1C992.3,39.5,992.8,38.6,992.8,37.4z"/>
		<path class="st1" d="M999.9,40.6v-0.8c-0.5,0.5-1.2,1-2.2,1c-1.4,0-2-0.7-2-1.9v-4.4h1.4v3.9c0,1,0.5,1.3,1.3,1.3
			c0.6,0,1.3-0.4,1.6-0.8v-4.3h1.4v6.3L999.9,40.6L999.9,40.6z"/>
		<path class="st1" d="M1003,40.6V32h1.4v8.6H1003z"/>
		<path class="st1" d="M1010.5,40.6v-0.8c-0.5,0.6-1.2,1-2,1c-1.6,0-2.8-1.2-2.8-3.3c0-2,1.2-3.2,2.8-3.2c0.8,0,1.5,0.4,2,1V32h1.4
			v8.6H1010.5z M1010.5,38.6v-2.5c-0.3-0.5-1-0.8-1.6-0.8c-1.1,0-1.8,0.8-1.8,2c0,1.2,0.6,2.1,1.8,2.1
			C1009.6,39.5,1010.2,39.1,1010.5,38.6z"/>
		<path class="st1" d="M1016.4,39.8l0.6-1c0.5,0.5,1.3,0.8,2.1,0.8c0.8,0,1.2-0.4,1.2-0.8c0-1.2-3.8-0.4-3.8-2.8
			c0-1,0.9-1.8,2.5-1.8c1,0,1.8,0.4,2.4,0.8l-0.6,0.9c-0.4-0.4-1-0.7-1.8-0.7c-0.7,0-1.1,0.4-1.1,0.7c0,1.1,3.8,0.3,3.8,2.8
			c0,1.1-0.9,1.9-2.6,1.9C1018.1,40.7,1017.1,40.3,1016.4,39.8z"/>
		<path class="st1" d="M1023.4,39.1v-3.6h-1v-1.2h1v-1.7h1.4v1.7h1.3v1.2h-1.3v3.2c0,0.5,0.2,0.7,0.6,0.7c0.3,0,0.5-0.1,0.6-0.3
			l0.4,1c-0.3,0.2-0.6,0.4-1.3,0.4C1023.9,40.7,1023.4,40.1,1023.4,39.1z"/>
		<path class="st1" d="M1031,40.6v-0.6c-0.5,0.6-1.2,0.8-2,0.8c-1,0-2.1-0.7-2.1-2c0-1.5,1.1-2,2.1-2c0.8,0,1.6,0.3,2,0.8v-0.9
			c0-0.7-0.6-1.2-1.5-1.2c-0.7,0-1.3,0.3-1.8,0.8l-0.6-0.9c0.7-0.7,1.7-1,2.6-1c1.4,0,2.6,0.6,2.6,2.2v4.2L1031,40.6L1031,40.6z
			 M1031,39.1v-0.9c-0.4-0.5-0.9-0.6-1.5-0.6c-0.7,0-1.4,0.5-1.4,1.1c0,0.6,0.6,1.1,1.4,1.1C1030.2,39.8,1030.8,39.6,1031,39.1z"/>
		<path class="st1" d="M1034.2,40.6v-6.3h1.4v0.9c0.5-0.6,1.2-1,2-1v1.4c-0.1,0-0.3,0-0.4,0c-0.6,0-1.4,0.4-1.7,0.8v4.3L1034.2,40.6
			L1034.2,40.6z"/>
		<path class="st1" d="M1039,39.1v-3.6h-1v-1.2h1v-1.7h1.4v1.7h1.3v1.2h-1.3v3.2c0,0.5,0.2,0.7,0.6,0.7c0.3,0,0.5-0.1,0.6-0.3l0.4,1
			c-0.3,0.2-0.6,0.4-1.3,0.4C1039.5,40.7,1039,40.1,1039,39.1z"/>
	</g>
	<g class="st11">
		<path class="st1" d="M999.9,52.6v-4c0-1-0.5-1.3-1.3-1.3c-0.7,0-1.3,0.4-1.6,0.8v4.3h-1.4v-8.6h1.4v3.2c0.4-0.5,1.2-1,2.2-1
			c1.4,0,2,0.7,2,1.9v4.4L999.9,52.6L999.9,52.6z"/>
		<path class="st1" d="M1002.6,49.5c0-1.8,1.3-3.2,3.1-3.2s3.1,1.4,3.1,3.4V50h-4.8c0.1,0.9,0.8,1.8,1.9,1.8c0.6,0,1.3-0.3,1.8-0.7
			l0.6,0.9c-0.6,0.6-1.6,0.9-2.5,0.9C1004,52.7,1002.6,51.4,1002.6,49.5z M1005.8,47.2c-1.1,0-1.7,0.9-1.8,1.7h3.5
			C1007.5,48.2,1007,47.2,1005.8,47.2z"/>
		<path class="st1" d="M1010.2,52.6v-6.3h1.4v0.9c0.5-0.6,1.2-1,2-1v1.4c-0.1,0-0.3,0-0.4,0c-0.6,0-1.4,0.4-1.7,0.8v4.3L1010.2,52.6
			L1010.2,52.6z"/>
		<path class="st1" d="M1014.4,49.5c0-1.8,1.3-3.2,3.1-3.2c1.8,0,3.1,1.4,3.1,3.4V50h-4.8c0.1,0.9,0.8,1.8,1.9,1.8
			c0.6,0,1.3-0.3,1.8-0.7l0.6,0.9c-0.6,0.6-1.6,0.9-2.5,0.9C1015.8,52.7,1014.4,51.4,1014.4,49.5z M1017.5,47.2
			c-1.1,0-1.7,0.9-1.8,1.7h3.5C1019.2,48.2,1018.7,47.2,1017.5,47.2z"/>
	</g>
</g>
</svg>
