<?xml version="1.0" encoding="utf-8"?>
<!-- Generator: Adobe Illustrator 25.0.1, SVG Export Plug-In . SVG Version: 6.00 Build 0)  -->
<svg version="1.1" id="Camada_1" xmlns="http://www.w3.org/2000/svg" xmlns:xlink="http://www.w3.org/1999/xlink" x="0px" y="0px"
	 viewBox="0 0 165.8 823.6" style="enable-background:new 0 0 165.8 823.6;" xml:space="preserve">
<style type="text/css">
	.st0{fill:#F86464;}
	.st1{enable-background:new    ;}
	.st2{fill:#FFFFFF;}
	.st3{opacity:0.21;fill:none;stroke:#F86464;stroke-width:19;stroke-linecap:round;enable-background:new    ;}
	.st4{fill:#BFBFBF;}
	.st5{fill:#767676;}
	.st6{fill:#E6E6E6;}
	.st7{opacity:0.84;fill:#FFFFFF;enable-background:new    ;}
	.st8{fill:#1B1C1D;}
</style>
<g id="Grupo_2460" transform="translate(9 -146)">
	<path id="Retângulo_1004" class="st0" d="M13,146h90c8.3,0,15,6.7,15,15v20c0,8.3-6.7,15-15,15H13c-8.3,0-15-6.7-15-15v-20
		C-2,152.7,4.7,146,13,146z"/>
	<g class="st1">
		<path class="st2" d="M52.3,157c0.2,0.2,0.3,0.4,0.3,0.7v9.5c0,0.3-0.1,0.5-0.3,0.7s-0.4,0.3-0.7,0.3s-0.5-0.1-0.7-0.3
			s-0.2-0.4-0.2-0.7v-6.6l-2.7,5.2c-0.1,0.2-0.3,0.4-0.4,0.5c-0.1,0.1-0.3,0.2-0.5,0.2s-0.4-0.1-0.5-0.2c-0.1-0.1-0.3-0.3-0.4-0.5
			l-2.7-5.1v6.5c0,0.3-0.1,0.5-0.2,0.7c-0.2,0.2-0.4,0.3-0.7,0.3s-0.5-0.1-0.7-0.3s-0.2-0.4-0.2-0.7v-9.5c0-0.3,0.1-0.6,0.3-0.7
			c0.2-0.2,0.4-0.3,0.7-0.3c0.4,0,0.7,0.2,1,0.7l3.6,6.8l3.5-6.8c0.2-0.5,0.5-0.7,0.9-0.7C51.9,156.8,52.1,156.9,52.3,157z"/>
		<path class="st2" d="M60.7,160.9c0.5,0.5,0.8,1.4,0.8,2.5v3.9c0,0.3-0.1,0.5-0.3,0.7s-0.4,0.2-0.7,0.2s-0.5-0.1-0.7-0.3
			s-0.3-0.4-0.3-0.7v-0.4c-0.2,0.4-0.5,0.7-0.9,1c-0.4,0.2-0.8,0.4-1.4,0.4c-0.5,0-1-0.1-1.4-0.3s-0.8-0.5-1-0.9s-0.4-0.8-0.4-1.2
			c0-0.6,0.1-1,0.4-1.4c0.3-0.3,0.8-0.6,1.4-0.7c0.7-0.1,1.6-0.2,2.7-0.2h0.4v-0.4c0-0.5-0.1-0.9-0.3-1.1c-0.2-0.2-0.6-0.4-1.1-0.4
			c-0.3,0-0.6,0-0.9,0.1s-0.7,0.2-1.1,0.4c-0.3,0.1-0.5,0.2-0.6,0.2c-0.2,0-0.3-0.1-0.5-0.2c-0.1-0.1-0.2-0.3-0.2-0.5s0-0.3,0.1-0.5
			c0.1-0.1,0.2-0.3,0.5-0.4c0.4-0.2,0.8-0.4,1.3-0.5s1-0.2,1.5-0.2C59.3,160.1,60.1,160.4,60.7,160.9z M59,166.3
			c0.3-0.4,0.5-0.8,0.5-1.4v-0.3h-0.3c-0.7,0-1.3,0-1.7,0.1s-0.7,0.2-0.8,0.3s-0.3,0.4-0.3,0.7s0.1,0.6,0.4,0.8
			c0.2,0.2,0.5,0.3,0.9,0.3C58.3,166.8,58.7,166.6,59,166.3z"/>
		<path class="st2" d="M63.6,158.4c-0.2-0.2-0.3-0.5-0.3-0.8s0.1-0.6,0.3-0.8s0.5-0.3,0.9-0.3s0.6,0.1,0.9,0.3
			c0.2,0.2,0.3,0.4,0.3,0.8c0,0.3-0.1,0.6-0.3,0.8s-0.5,0.3-0.9,0.3S63.8,158.6,63.6,158.4z M63.8,168c-0.2-0.2-0.3-0.4-0.3-0.7
			v-6.2c0-0.3,0.1-0.5,0.3-0.7s0.4-0.2,0.7-0.2s0.5,0.1,0.7,0.2s0.3,0.4,0.3,0.7v6.2c0,0.3-0.1,0.5-0.3,0.7
			c-0.2,0.2-0.4,0.2-0.7,0.2C64.2,168.2,64,168.1,63.8,168z"/>
		<path class="st2" d="M74.2,160.9c0.5,0.5,0.7,1.3,0.7,2.4v3.9c0,0.3-0.1,0.5-0.3,0.7c-0.2,0.2-0.4,0.3-0.7,0.3
			c-0.3,0-0.6-0.1-0.7-0.3c-0.2-0.2-0.3-0.4-0.3-0.7v-3.8c0-0.6-0.1-1-0.3-1.3s-0.6-0.4-1.1-0.4c-0.6,0-1,0.2-1.4,0.5
			c-0.3,0.4-0.5,0.8-0.5,1.5v3.6c0,0.3-0.1,0.5-0.3,0.7c-0.2,0.2-0.4,0.3-0.7,0.3c-0.3,0-0.6-0.1-0.7-0.3c-0.2-0.2-0.3-0.4-0.3-0.7
			v-6.2c0-0.3,0.1-0.5,0.3-0.7c0.2-0.2,0.4-0.3,0.7-0.3c0.3,0,0.5,0.1,0.7,0.2c0.2,0.2,0.3,0.4,0.3,0.6v0.4c0.3-0.4,0.6-0.8,1.1-1
			c0.4-0.2,1-0.4,1.5-0.4C73,160.1,73.7,160.4,74.2,160.9z"/>
	</g>
	<g class="st1">
		<path class="st2" d="M29.7,182.4c0-0.3,0.1-0.5,0.2-0.6s0.3-0.2,0.6-0.2H31c0.4,0,0.8-0.2,1-0.4c0.2-0.3,0.3-0.6,0.3-1.2v-7.2
			c0-0.3,0.1-0.6,0.3-0.7c0.2-0.2,0.4-0.3,0.7-0.3s0.6,0.1,0.8,0.3s0.3,0.4,0.3,0.7v7.2c0,2-1,3.1-3,3.2h-0.5
			C30.1,183.2,29.7,183,29.7,182.4z"/>
		<path class="st2" d="M38.1,182.8c-0.6-0.3-1.1-0.8-1.4-1.4c-0.3-0.6-0.5-1.3-0.5-2.2s0.2-1.5,0.5-2.2s0.8-1.1,1.4-1.4
			c0.6-0.3,1.3-0.5,2.1-0.5s1.5,0.2,2.1,0.5s1.1,0.8,1.4,1.4c0.3,0.6,0.5,1.3,0.5,2.2s-0.2,1.5-0.5,2.2c-0.3,0.6-0.8,1.1-1.4,1.4
			c-0.6,0.3-1.3,0.5-2.1,0.5C39.4,183.2,38.7,183.1,38.1,182.8z M41.7,181.1c0.3-0.4,0.5-1.1,0.5-1.9c0-0.8-0.2-1.4-0.5-1.9
			c-0.3-0.4-0.8-0.6-1.5-0.6s-1.1,0.2-1.5,0.6s-0.5,1.1-0.5,1.9c0,0.8,0.2,1.5,0.5,1.9s0.8,0.6,1.5,0.6
			C40.9,181.7,41.3,181.5,41.7,181.1z"/>
		<path class="st2" d="M52.8,175.4c0.2,0.2,0.3,0.4,0.3,0.7v6.2c0,0.3-0.1,0.5-0.3,0.7s-0.4,0.3-0.7,0.3s-0.5-0.1-0.7-0.2
			c-0.2-0.2-0.3-0.4-0.3-0.7V182c-0.2,0.4-0.6,0.8-1,1s-0.9,0.3-1.4,0.3c-1.9,0-2.9-1.1-2.9-3.2v-3.9c0-0.3,0.1-0.5,0.3-0.7
			s0.4-0.3,0.7-0.3s0.6,0.1,0.7,0.3c0.2,0.2,0.3,0.4,0.3,0.7v4c0,0.6,0.1,1,0.3,1.2c0.2,0.3,0.6,0.4,1.1,0.4c0.6,0,1-0.2,1.3-0.6
			c0.3-0.4,0.5-0.9,0.5-1.5v-3.6c0-0.3,0.1-0.5,0.3-0.7s0.4-0.3,0.7-0.3C52.3,175.1,52.6,175.2,52.8,175.4z"/>
		<path class="st2" d="M60.1,175.3c0.2,0.1,0.2,0.3,0.2,0.6s-0.1,0.5-0.2,0.6s-0.4,0.2-0.8,0.3h-0.5c-0.6,0.1-1.1,0.3-1.4,0.6
			s-0.4,0.8-0.4,1.4v3.4c0,0.3-0.1,0.5-0.3,0.7s-0.4,0.2-0.7,0.2s-0.5-0.1-0.7-0.2c-0.2-0.2-0.3-0.4-0.3-0.7V176
			c0-0.3,0.1-0.5,0.3-0.7s0.4-0.2,0.7-0.2s0.5,0.1,0.7,0.2c0.2,0.2,0.3,0.4,0.3,0.7v0.6c0.2-0.5,0.5-0.8,0.9-1.1s0.8-0.4,1.3-0.4
			h0.2C59.8,175.1,60,175.2,60.1,175.3z"/>
		<path class="st2" d="M67.9,175.9c0.5,0.5,0.7,1.3,0.7,2.4v3.9c0,0.3-0.1,0.5-0.3,0.7c-0.2,0.2-0.4,0.3-0.7,0.3
			c-0.3,0-0.6-0.1-0.7-0.3c-0.2-0.2-0.3-0.4-0.3-0.7v-3.8c0-0.6-0.1-1-0.3-1.3s-0.6-0.4-1.1-0.4c-0.6,0-1,0.2-1.4,0.5
			c-0.3,0.4-0.5,0.8-0.5,1.5v3.6c0,0.3-0.1,0.5-0.3,0.7s-0.4,0.3-0.7,0.3s-0.6-0.1-0.7-0.3c-0.2-0.2-0.3-0.4-0.3-0.7v-6.2
			c0-0.3,0.1-0.5,0.3-0.7s0.4-0.3,0.7-0.3s0.5,0.1,0.7,0.2c0.2,0.2,0.3,0.4,0.3,0.6v0.4c0.3-0.4,0.6-0.8,1.1-1
			c0.4-0.2,1-0.4,1.5-0.4C66.7,175.1,67.4,175.4,67.9,175.9z"/>
		<path class="st2" d="M77.2,181.2c0.1,0.1,0.2,0.3,0.2,0.6s-0.2,0.6-0.6,0.8s-0.8,0.4-1.2,0.5c-0.5,0.1-0.9,0.2-1.3,0.2
			c-1.3,0-2.3-0.4-3-1.1c-0.7-0.7-1.1-1.7-1.1-3c0-0.8,0.2-1.5,0.5-2.1s0.8-1.1,1.4-1.4s1.2-0.5,2-0.5c0.7,0,1.3,0.2,1.8,0.5
			s0.9,0.7,1.2,1.3c0.3,0.6,0.4,1.2,0.4,2c0,0.5-0.2,0.7-0.6,0.7h-4.7c0.1,0.7,0.3,1.3,0.6,1.6c0.4,0.3,0.9,0.5,1.5,0.5
			c0.3,0,0.6,0,0.9-0.1s0.6-0.2,0.9-0.4s0.6-0.3,0.7-0.3C77,181,77.1,181,77.2,181.2z M72.7,177c-0.3,0.3-0.5,0.8-0.6,1.5h3.6
			c0-0.7-0.2-1.1-0.5-1.5c-0.3-0.3-0.7-0.5-1.2-0.5S73,176.7,72.7,177z"/>
		<path class="st2" d="M84.8,175.3c0.1-0.1,0.3-0.1,0.5-0.1s0.5,0.1,0.7,0.2c0.2,0.2,0.3,0.4,0.3,0.6c0,0.1,0,0.2-0.1,0.4l-4.4,9.2
			c-0.2,0.4-0.5,0.5-0.8,0.5c-0.2,0-0.5-0.1-0.6-0.2c-0.2-0.2-0.3-0.3-0.3-0.6c0-0.1,0-0.2,0.1-0.4l1.1-2.3l-3-6.2
			c-0.1-0.1-0.1-0.2-0.1-0.4s0.1-0.5,0.3-0.6c0.2-0.2,0.4-0.3,0.7-0.3c0.2,0,0.3,0,0.5,0.1c0.1,0.1,0.3,0.2,0.4,0.4l2.2,4.9l2.2-4.9
			C84.5,175.5,84.6,175.4,84.8,175.3z"/>
	</g>
	<path id="Caminho_7244" class="st3" d="M51.6,196.1c-11.7,69.8,62.4,42.2,67.7,113.7S37.9,376,24,433s72.4,84.4,74.4,143.9
		s-53.3,90.6-50.7,147s90.6,90,86,143s-69.2,74.5-69.2,74.5"/>
	<g id="Book0" transform="translate(67 309.756)">
		<g class="st1">
			<path class="st4" d="M23.4,91.3l-3.6-4.5l-0.9,1.1v3.4H17V80.6h1.9v5.1l4.2-5.1h2.3l-4.3,5l4.7,5.7
				C25.8,91.3,23.4,91.3,23.4,91.3z"/>
			<path class="st4" d="M26.7,81.6c0-0.6,0.5-1,1-1c0.6,0,1,0.5,1,1s-0.5,1-1,1S26.7,82.2,26.7,81.6z M26.9,91.3v-7.7h1.7v7.7H26.9z
				"/>
			<path class="st4" d="M31.1,89.5V85h-1.3v-1.5h1.3v-2.1h1.7v2.1h1.6V85h-1.6v4c0,0.5,0.3,0.9,0.7,0.9c0.3,0,0.6-0.1,0.7-0.3
				l0.4,1.3c-0.3,0.3-0.8,0.5-1.6,0.5C31.8,91.5,31.1,90.8,31.1,89.5z"/>
			<path class="st4" d="M35.4,87.4c0-2.3,1.6-4,4-4c1.5,0,2.4,0.6,3,1.4l-1.1,1c-0.4-0.6-1-0.9-1.8-0.9c-1.4,0-2.3,1.1-2.3,2.6
				s0.9,2.6,2.3,2.6c0.8,0,1.3-0.3,1.8-0.9l1.1,1c-0.5,0.7-1.4,1.4-3,1.4C37,91.5,35.4,89.8,35.4,87.4z"/>
			<path class="st4" d="M49.1,91.3v-4.9c0-1.2-0.6-1.6-1.6-1.6c-0.9,0-1.6,0.5-2,1v5.4h-1.7V80.6h1.7v4c0.5-0.6,1.5-1.2,2.7-1.2
				c1.7,0,2.5,0.9,2.5,2.4v5.5H49.1z"/>
			<path class="st4" d="M52.5,87.4c0-2.2,1.6-4,3.9-4s3.8,1.8,3.8,4.2V88h-6c0.1,1.2,1,2.1,2.4,2.1c0.8,0,1.6-0.3,2.2-0.9l0.8,1.1
				c-0.8,0.7-1.9,1.1-3.1,1.1C54.2,91.5,52.5,89.9,52.5,87.4z M56.4,84.8c-1.4,0-2.1,1.1-2.2,2h4.4C58.5,85.9,57.9,84.8,56.4,84.8z"
				/>
			<path class="st4" d="M67.1,91.3v-4.8c0-1.2-0.6-1.6-1.6-1.6c-0.8,0-1.6,0.5-2,1v5.4h-1.7v-7.7h1.7v1c0.5-0.6,1.5-1.2,2.7-1.2
				c1.7,0,2.5,0.9,2.5,2.5v5.4C68.7,91.3,67.1,91.3,67.1,91.3z"/>
		</g>
		<g class="st1">
			<path class="st4" d="M11.4,111.3v-10.7h5.3c2,0,3,1.2,3,2.7c0,1.3-0.9,2.2-1.9,2.4c1.2,0.2,2.1,1.3,2.1,2.6
				c0,1.7-1.1,2.9-3.1,2.9L11.4,111.3L11.4,111.3z M17.8,103.7c0-0.8-0.5-1.4-1.5-1.4h-3v2.8h3C17.3,105,17.8,104.5,17.8,103.7z
				 M18,108.2c0-0.8-0.6-1.5-1.6-1.5h-3.1v3h3.1C17.4,109.7,18,109.1,18,108.2z"/>
			<path class="st4" d="M21.3,107.4c0-2.2,1.6-4,3.9-4s3.8,1.8,3.8,4.2v0.4h-6c0.1,1.2,1,2.1,2.4,2.1c0.8,0,1.6-0.3,2.2-0.9l0.8,1.1
				c-0.8,0.7-1.9,1.1-3.1,1.1C23,111.5,21.3,109.9,21.3,107.4z M25.2,104.8c-1.4,0-2.1,1.1-2.2,2h4.4
				C27.4,105.9,26.7,104.8,25.2,104.8z"/>
			<path class="st4" d="M30.6,113.3l0.8-1.2c0.6,0.7,1.4,1,2.5,1s2.3-0.5,2.3-2.2V110c-0.6,0.8-1.5,1.3-2.5,1.3c-2,0-3.4-1.4-3.4-4
				c0-2.5,1.4-4,3.4-4c1,0,1.9,0.4,2.5,1.3v-1.1h1.7v7.3c0,2.8-2.1,3.5-4,3.5C32.5,114.4,31.6,114.2,30.6,113.3z M36.1,108.8v-2.9
				c-0.4-0.6-1.2-1-2-1c-1.3,0-2.2,1-2.2,2.5s0.8,2.5,2.2,2.5C34.9,109.8,35.8,109.4,36.1,108.8z"/>
			<path class="st4" d="M39.8,101.6c0-0.6,0.5-1,1-1c0.6,0,1,0.5,1,1s-0.5,1-1,1S39.8,102.2,39.8,101.6z M40,111.3v-7.7h1.7v7.7H40z
				"/>
			<path class="st4" d="M49.1,111.3v-4.8c0-1.2-0.6-1.6-1.6-1.6c-0.8,0-1.6,0.5-2,1v5.4h-1.7v-7.7h1.7v1c0.5-0.6,1.5-1.2,2.7-1.2
				c1.7,0,2.5,0.9,2.5,2.5v5.4C50.7,111.3,49.1,111.3,49.1,111.3z"/>
			<path class="st4" d="M58.2,111.3v-4.8c0-1.2-0.6-1.6-1.6-1.6c-0.8,0-1.6,0.5-2,1v5.4h-1.7v-7.7h1.7v1c0.5-0.6,1.5-1.2,2.7-1.2
				c1.7,0,2.5,0.9,2.5,2.5v5.4C59.8,111.3,58.2,111.3,58.2,111.3z"/>
			<path class="st4" d="M61.6,107.4c0-2.2,1.6-4,3.9-4s3.8,1.8,3.8,4.2v0.4h-6c0.1,1.2,1,2.1,2.4,2.1c0.8,0,1.6-0.3,2.2-0.9l0.8,1.1
				c-0.8,0.7-1.9,1.1-3.1,1.1C63.3,111.5,61.6,109.9,61.6,107.4z M65.5,104.8c-1.4,0-2.1,1.1-2.2,2h4.4
				C67.6,105.9,67,104.8,65.5,104.8z"/>
			<path class="st4" d="M70.9,111.3v-7.7h1.7v1.1c0.6-0.7,1.5-1.3,2.5-1.3v1.7c-0.1,0-0.3,0-0.5,0c-0.7,0-1.7,0.5-2,1v5.3
				L70.9,111.3L70.9,111.3z"/>
		</g>
	</g>
	<g id="Book0-2" transform="translate(20 202.756)">
		<g class="st1">
			<path class="st5" d="M5.7,94.3l-3.6-4.5l-0.9,1.1v3.4h-1.9V83.6h1.9v5.1l4.2-5.1h2.3l-4.3,5l4.7,5.7C8.1,94.3,5.7,94.3,5.7,94.3z
				"/>
			<path class="st5" d="M9,84.6c0-0.6,0.5-1,1-1c0.6,0,1,0.5,1,1s-0.5,1-1,1S9,85.2,9,84.6z M9.2,94.3v-7.7h1.7v7.7H9.2z"/>
			<path class="st5" d="M13.4,92.5V88h-1.3v-1.5h1.3v-2.1h1.7v2.1h1.6V88h-1.6v4c0,0.5,0.3,0.9,0.7,0.9c0.3,0,0.6-0.1,0.7-0.3L17,94
				c-0.3,0.3-0.8,0.5-1.6,0.5C14.1,94.5,13.4,93.8,13.4,92.5z"/>
			<path class="st5" d="M17.7,90.4c0-2.3,1.6-4,4-4c1.5,0,2.4,0.6,3,1.4l-1.1,1c-0.4-0.6-1-0.9-1.8-0.9c-1.4,0-2.3,1.1-2.3,2.6
				s0.9,2.6,2.3,2.6c0.8,0,1.3-0.3,1.8-0.9l1.1,1c-0.5,0.7-1.4,1.4-3,1.4C19.4,94.5,17.7,92.8,17.7,90.4z"/>
			<path class="st5" d="M31.4,94.3v-4.9c0-1.2-0.6-1.6-1.6-1.6c-0.9,0-1.6,0.5-2,1v5.4h-1.7V83.6h1.7v4c0.5-0.6,1.5-1.2,2.7-1.2
				c1.7,0,2.5,0.9,2.5,2.4v5.5H31.4z"/>
			<path class="st5" d="M34.8,90.4c0-2.2,1.6-4,3.9-4c2.3,0,3.8,1.8,3.8,4.2V91h-6c0.1,1.2,1,2.1,2.4,2.1c0.8,0,1.6-0.3,2.2-0.9
				l0.8,1.1c-0.8,0.7-1.9,1.1-3.1,1.1C36.5,94.5,34.8,92.9,34.8,90.4z M38.7,87.8c-1.4,0-2.1,1.1-2.2,2h4.4
				C40.8,88.9,40.2,87.8,38.7,87.8z"/>
			<path class="st5" d="M49.4,94.3v-4.8c0-1.2-0.6-1.6-1.6-1.6c-0.8,0-1.6,0.5-2,1v5.4h-1.7v-7.7h1.7v1c0.5-0.6,1.5-1.2,2.7-1.2
				c1.7,0,2.5,0.9,2.5,2.5v5.4C51,94.3,49.4,94.3,49.4,94.3z"/>
			<path class="st5" d="M56.7,92.8l1.1-1.5c0.7,0.8,1.9,1.5,3.4,1.5s2.1-0.8,2.1-1.5c0-2.2-6.2-0.8-6.2-4.8c0-1.8,1.5-3.1,3.9-3.1
				c1.6,0,3,0.5,4,1.5l-1.1,1.4c-0.8-0.8-2-1.2-3.1-1.2S59,85.6,59,86.4c0,2,6.2,0.8,6.2,4.7c0,1.8-1.3,3.3-4.1,3.3
				C59.1,94.5,57.7,93.8,56.7,92.8z"/>
			<path class="st5" d="M66.4,89c0-3.2,2.3-5.5,5.5-5.5s5.5,2.3,5.5,5.5s-2.3,5.5-5.5,5.5C68.7,94.5,66.4,92.2,66.4,89z M75.4,89
				c0-2.2-1.4-3.9-3.5-3.9c-2.2,0-3.5,1.6-3.5,3.9c0,2.2,1.4,3.9,3.5,3.9C74,92.8,75.4,91.2,75.4,89z"/>
			<path class="st5" d="M78.5,92.8l1.1-1.5c0.7,0.8,1.9,1.5,3.4,1.5s2.1-0.8,2.1-1.5c0-2.2-6.2-0.8-6.2-4.8c0-1.8,1.5-3.1,3.9-3.1
				c1.6,0,3,0.5,4,1.5l-1.1,1.4c-0.8-0.8-2-1.2-3.1-1.2s-1.8,0.5-1.8,1.3c0,2,6.2,0.8,6.2,4.7c0,1.8-1.3,3.3-4.1,3.3
				C80.8,94.5,79.4,93.8,78.5,92.8z"/>
		</g>
	</g>
	<g id="Book1" transform="translate(-9 401.672)">
		<g class="st1">
			<path class="st4" d="M21.3,95.3l-3.6-4.5l-0.9,1.1v3.4h-1.9V84.7h1.9v5.1l4.2-5.1h2.3l-4.3,5l4.7,5.7L21.3,95.3L21.3,95.3z"/>
			<path class="st4" d="M24.6,85.6c0-0.6,0.5-1,1-1c0.6,0,1,0.5,1,1s-0.5,1-1,1C25.1,86.7,24.6,86.2,24.6,85.6z M24.8,95.3v-7.7h1.7
				v7.7H24.8z"/>
			<path class="st4" d="M29,93.5V89h-1.3v-1.5H29v-2.1h1.7v2.1h1.6V89h-1.6v4c0,0.5,0.3,0.9,0.7,0.9c0.3,0,0.6-0.1,0.7-0.3l0.4,1.3
				c-0.3,0.3-0.8,0.5-1.6,0.5C29.7,95.5,29,94.8,29,93.5z"/>
			<path class="st4" d="M33.3,91.5c0-2.3,1.6-4,4-4c1.5,0,2.4,0.6,3,1.4l-1.1,1c-0.4-0.6-1-0.9-1.8-0.9c-1.4,0-2.3,1.1-2.3,2.6
				s0.9,2.6,2.3,2.6c0.8,0,1.3-0.3,1.8-0.9l1.1,1c-0.5,0.7-1.4,1.4-3,1.4C35,95.5,33.3,93.8,33.3,91.5z"/>
			<path class="st4" d="M47,95.3v-4.9c0-1.2-0.6-1.6-1.6-1.6c-0.9,0-1.6,0.5-2,1v5.4h-1.7V84.7h1.7v4c0.5-0.6,1.5-1.2,2.7-1.2
				c1.7,0,2.5,0.9,2.5,2.4v5.5L47,95.3L47,95.3z"/>
			<path class="st4" d="M50.4,91.5c0-2.2,1.6-4,3.9-4s3.8,1.8,3.8,4.2V92h-6c0.1,1.2,1,2.1,2.4,2.1c0.8,0,1.6-0.3,2.2-0.9l0.8,1.1
				c-0.8,0.7-1.9,1.1-3.1,1.1C52.1,95.5,50.4,93.9,50.4,91.5z M54.3,88.8c-1.4,0-2.1,1.1-2.2,2h4.4C56.4,89.9,55.8,88.8,54.3,88.8z"
				/>
			<path class="st4" d="M65,95.3v-4.8c0-1.2-0.6-1.6-1.6-1.6c-0.8,0-1.6,0.5-2,1v5.4h-1.7v-7.7h1.7v1c0.5-0.6,1.5-1.2,2.7-1.2
				c1.7,0,2.5,0.9,2.5,2.5v5.4C66.6,95.3,65,95.3,65,95.3z"/>
		</g>
		<g class="st1">
			<path class="st4" d="M19,115.3v-10.7h5.3c2,0,3,1.2,3,2.7c0,1.3-0.9,2.2-1.9,2.4c1.2,0.2,2.1,1.3,2.1,2.6c0,1.7-1.1,2.9-3.1,2.9
				L19,115.3L19,115.3z M25.3,107.7c0-0.8-0.5-1.4-1.5-1.4h-3v2.8h3C24.8,109.1,25.3,108.5,25.3,107.7z M25.6,112.2
				c0-0.8-0.6-1.5-1.6-1.5h-3.1v3H24C24.9,113.7,25.6,113.1,25.6,112.2z"/>
			<path class="st4" d="M34,115.3v-0.8c-0.6,0.7-1.5,1-2.5,1c-1.2,0-2.7-0.9-2.7-2.6c0-1.8,1.4-2.5,2.7-2.5c1.1,0,1.9,0.3,2.5,1
				v-1.2c0-0.9-0.8-1.4-1.8-1.4c-0.9,0-1.6,0.3-2.3,1l-0.7-1.2c0.9-0.9,2-1.2,3.2-1.2c1.7,0,3.2,0.7,3.2,2.8v5.1
				C35.6,115.3,34,115.3,34,115.3z M34,113.6v-1.2c-0.4-0.5-1.1-0.8-1.8-0.8c-0.9,0-1.7,0.6-1.7,1.4s0.7,1.4,1.7,1.4
				C32.9,114.4,33.6,114.1,34,113.6z"/>
			<path class="st4" d="M37.2,114.3l0.8-1.2c0.5,0.6,1.6,1.1,2.6,1.1s1.5-0.4,1.5-1c0-1.5-4.7-0.4-4.7-3.4c0-1.3,1.1-2.3,3-2.3
				c1.3,0,2.3,0.5,3,1.1l-0.7,1.2c-0.5-0.5-1.3-0.9-2.3-0.9c-0.9,0-1.4,0.4-1.4,1c0,1.4,4.7,0.3,4.7,3.4c0,1.4-1.1,2.4-3.2,2.4
				C39.2,115.5,38,115.1,37.2,114.3z"/>
			<path class="st4" d="M45.3,105.6c0-0.6,0.5-1,1-1c0.6,0,1,0.5,1,1s-0.5,1-1,1C45.7,106.7,45.3,106.2,45.3,105.6z M45.5,115.3
				v-7.7h1.7v7.7H45.5z"/>
			<path class="st4" d="M48.8,111.5c0-2.3,1.6-4,4-4c1.5,0,2.4,0.6,3,1.4l-1.1,1c-0.4-0.6-1-0.9-1.8-0.9c-1.4,0-2.3,1.1-2.3,2.6
				s0.9,2.6,2.3,2.6c0.8,0,1.3-0.3,1.8-0.9l1.1,1c-0.5,0.7-1.4,1.4-3,1.4C50.5,115.5,48.8,113.8,48.8,111.5z"/>
			<path class="st4" d="M56.6,114.3l0.8-1.2c0.5,0.6,1.6,1.1,2.6,1.1s1.5-0.4,1.5-1c0-1.5-4.7-0.4-4.7-3.4c0-1.3,1.1-2.3,3-2.3
				c1.3,0,2.3,0.5,3,1.1l-0.7,1.2c-0.5-0.5-1.3-0.9-2.3-0.9c-0.9,0-1.4,0.4-1.4,1c0,1.4,4.7,0.3,4.7,3.4c0,1.4-1.1,2.4-3.2,2.4
				C58.6,115.5,57.4,115.1,56.6,114.3z"/>
		</g>
	</g>
	<g class="st1">
		<path class="st4" d="M28.7,733.5c0-3.3,2.4-5.5,5.6-5.5c2.1,0,3.5,1.1,4.3,2.4l-1.6,0.8c-0.5-0.9-1.6-1.6-2.7-1.6
			c-2.1,0-3.7,1.6-3.7,3.9c0,2.2,1.6,3.9,3.7,3.9c1.1,0,2.2-0.7,2.7-1.6l1.6,0.8c-0.8,1.3-2.1,2.4-4.3,2.4
			C31.2,739.1,28.7,736.8,28.7,733.5z"/>
		<path class="st4" d="M39.6,735c0-2.2,1.5-4,4-4s4,1.8,4,4s-1.5,4.1-4,4.1S39.6,737.2,39.6,735z M45.8,735c0-1.4-0.8-2.6-2.2-2.6
			s-2.2,1.2-2.2,2.6c0,1.4,0.8,2.6,2.2,2.6S45.8,736.4,45.8,735z"/>
		<path class="st4" d="M58.7,738.9v-5c0-0.8-0.4-1.4-1.3-1.4c-0.8,0-1.5,0.5-1.8,1v5.4H54v-5c0-0.8-0.4-1.4-1.3-1.4
			c-0.8,0-1.4,0.5-1.8,1v5.4h-1.7v-7.7h1.7v1c0.3-0.5,1.3-1.2,2.5-1.2s1.9,0.6,2.1,1.4c0.4-0.7,1.5-1.4,2.6-1.4
			c1.4,0,2.2,0.8,2.2,2.3v5.6L58.7,738.9L58.7,738.9z"/>
		<path class="st4" d="M64.3,737.8v4h-1.7v-10.7h1.7v1.1c0.6-0.8,1.5-1.2,2.5-1.2c2,0,3.4,1.5,3.4,4s-1.4,4.1-3.4,4.1
			C65.8,739.1,64.9,738.6,64.3,737.8z M68.4,735c0-1.5-0.9-2.6-2.2-2.6c-0.8,0-1.6,0.4-2,1v3.1c0.4,0.6,1.2,1.1,2,1.1
			C67.6,737.6,68.4,736.5,68.4,735z"/>
		<path class="st4" d="M71.8,738.9v-10.7h1.7v10.7H71.8z"/>
		<path class="st4" d="M75.2,735c0-2.2,1.6-4,3.9-4s3.8,1.8,3.8,4.2v0.4h-6c0.1,1.2,1,2.1,2.4,2.1c0.8,0,1.6-0.3,2.2-0.9l0.8,1.1
			c-0.8,0.7-1.9,1.1-3.1,1.1C76.9,739.1,75.2,737.4,75.2,735z M79.1,732.3c-1.4,0-2.1,1.1-2.2,2h4.4
			C81.3,733.4,80.7,732.3,79.1,732.3z"/>
		<path class="st4" d="M85,737.1v-4.5h-1.3v-1.5H85V729h1.7v2.1h1.6v1.5h-1.6v4c0,0.5,0.3,0.9,0.7,0.9c0.3,0,0.6-0.1,0.7-0.3
			l0.4,1.3c-0.3,0.3-0.8,0.5-1.6,0.5C85.6,739.1,85,738.4,85,737.1z"/>
		<path class="st4" d="M89.2,735c0-2.2,1.6-4,3.9-4s3.8,1.8,3.8,4.2v0.4h-6c0.1,1.2,1,2.1,2.4,2.1c0.8,0,1.6-0.3,2.2-0.9l0.8,1.1
			c-0.8,0.7-1.9,1.1-3.1,1.1C91,739.1,89.2,737.4,89.2,735z M93.1,732.3c-1.4,0-2.1,1.1-2.2,2h4.4C95.3,733.4,94.7,732.3,93.1,732.3
			z"/>
	</g>
	<g class="st1">
		<path class="st4" d="M52,758.9v-8.2l-3.3,8.2h-0.8l-3.3-8.2v8.2h-1.9v-10.7h2.6l2.9,7.3l2.9-7.3h2.6v10.7H52z"/>
		<path class="st4" d="M55.6,755c0-2.2,1.6-4,3.9-4s3.8,1.8,3.8,4.2v0.4h-6c0.1,1.2,1,2.1,2.4,2.1c0.8,0,1.6-0.3,2.2-0.9l0.8,1.1
			c-0.8,0.7-1.9,1.1-3.1,1.1C57.3,759.1,55.6,757.4,55.6,755z M59.5,752.3c-1.4,0-2.1,1.1-2.2,2h4.4
			C61.7,753.4,61.1,752.3,59.5,752.3z"/>
		<path class="st4" d="M69.7,758.9V758c-0.6,0.7-1.5,1-2.5,1c-1.2,0-2.7-0.9-2.7-2.6c0-1.8,1.4-2.5,2.7-2.5c1.1,0,1.9,0.3,2.5,1
			v-1.2c0-0.9-0.8-1.4-1.8-1.4c-0.9,0-1.6,0.3-2.3,1l-0.7-1.2c0.9-0.9,2-1.2,3.2-1.2c1.7,0,3.2,0.7,3.2,2.8v5.1h-1.6
			C69.7,758.8,69.7,758.9,69.7,758.9z M69.7,757.1v-1.2c-0.4-0.5-1.1-0.8-1.8-0.8c-0.9,0-1.7,0.6-1.7,1.4c0,0.8,0.7,1.4,1.7,1.4
			C68.6,757.9,69.3,757.6,69.7,757.1z"/>
		<path class="st4" d="M73.6,758.9v-10.7h1.7v10.7H73.6z"/>
		<path class="st4" d="M76.8,757.8l0.8-1.2c0.5,0.6,1.6,1.1,2.6,1.1s1.5-0.4,1.5-1c0-1.5-4.7-0.4-4.7-3.4c0-1.3,1.1-2.3,3-2.3
			c1.3,0,2.3,0.5,3,1.1l-0.7,1.2c-0.5-0.5-1.3-0.9-2.3-0.9c-0.9,0-1.4,0.4-1.4,1c0,1.4,4.7,0.3,4.7,3.4c0,1.4-1.1,2.4-3.2,2.4
			C78.8,759.1,77.6,758.6,76.8,757.8z"/>
	</g>
	<g>
		<g id="Caminho_6696" transform="translate(17.278)">
			<path class="st6" d="M47.6,710.8c-4.1,0-8.1-0.8-11.9-2.4c-3.6-1.5-6.9-3.7-9.7-6.6c-2.8-2.8-5.1-6.1-6.6-9.7
				c-1.6-3.8-2.4-7.8-2.4-11.9s0.8-8.1,2.4-11.9c1.5-3.6,3.7-6.9,6.6-9.7c2.8-2.8,6.1-5.1,9.7-6.6c3.8-1.6,7.8-2.4,11.9-2.4
				s8.1,0.8,11.9,2.4c3.6,1.5,6.9,3.7,9.7,6.6c2.8,2.8,5.1,6.1,6.6,9.7c1.6,3.8,2.4,7.8,2.4,11.9s-0.8,8.1-2.4,11.9
				c-1.5,3.6-3.7,6.9-6.6,9.7c-2.8,2.8-6.1,5.1-9.7,6.6C55.7,709.9,51.7,710.8,47.6,710.8z"/>
			<path class="st4" d="M47.6,652.8c-15.1,0-27.3,12.2-27.3,27.3s12.2,27.3,27.3,27.3s27.3-12.2,27.3-27.3S62.6,652.8,47.6,652.8
				 M47.6,646.1c18.7,0,34,15.2,34,34s-15.2,34-34,34s-34-15.2-34-34S28.8,646.1,47.6,646.1z"/>
		</g>
		<path id="Icon_material-lock" class="st7" d="M75.3,672.1h-1.7v-3.5c0-4.9-3.9-8.7-8.8-8.7c-4.9,0-8.7,3.9-8.7,8.7v3.5h-1.7
			c-1.9,0-3.5,1.5-3.5,3.5v17.5c0,1.9,1.5,3.5,3.5,3.5h21c1.9,0,3.5-1.5,3.5-3.5v-17.5C78.8,673.6,77.2,672.1,75.3,672.1z
			 M64.9,687.8c-1.9,0-3.5-1.5-3.5-3.5s1.5-3.5,3.5-3.5c2,0,3.5,1.5,3.5,3.5l0,0C68.3,686.2,66.8,687.8,64.9,687.8z M70.2,672.1
			H59.5v-3.5c0-3,2.4-5.4,5.4-5.4c3,0,5.4,2.4,5.4,5.4L70.2,672.1z"/>
	</g>
	<g>
		<g id="Caminho_6696_1_" transform="translate(17.278)">
			<path class="st6" d="M76.1,588.5c-4.1,0-8.1-0.8-11.9-2.4c-3.6-1.5-6.9-3.7-9.7-6.6c-2.8-2.8-5.1-6.1-6.6-9.7
				c-1.6-3.8-2.4-7.8-2.4-11.9s0.8-8.1,2.4-11.9c1.5-3.6,3.7-6.9,6.6-9.7c2.8-2.8,6.1-5.1,9.7-6.6c3.8-1.6,7.8-2.4,11.9-2.4
				s8.1,0.8,11.9,2.4c3.6,1.5,6.9,3.7,9.7,6.6c2.8,2.8,5.1,6.1,6.6,9.7c1.6,3.8,2.4,7.8,2.4,11.9s-0.8,8.1-2.4,11.9
				c-1.5,3.6-3.7,6.9-6.6,9.7c-2.8,2.8-6.1,5.1-9.7,6.6C84.3,587.6,80.3,588.5,76.1,588.5z"/>
			<path class="st4" d="M76.1,530.5c-15.1,0-27.3,12.2-27.3,27.3s12.2,27.3,27.3,27.3s27.3-12.2,27.3-27.3S91.2,530.5,76.1,530.5
				 M76.1,523.8c18.7,0,34,15.2,34,34s-15.2,34-34,34s-34-15.2-34-34S57.4,523.8,76.1,523.8z"/>
		</g>
		<path id="Icon_material-lock_1_" class="st7" d="M103.9,549.8h-1.7v-3.5c0-4.9-3.9-8.7-8.8-8.7c-4.9,0-8.7,3.9-8.7,8.7v3.5H83
			c-1.9,0-3.5,1.5-3.5,3.5v17.5c0,1.9,1.5,3.5,3.5,3.5h21c1.9,0,3.5-1.5,3.5-3.5v-17.6C107.4,551.3,105.8,549.8,103.9,549.8z
			 M93.4,565.4c-1.9,0-3.5-1.5-3.5-3.5c0-2,1.5-3.5,3.5-3.5c2,0,3.5,1.5,3.5,3.5l0,0C96.9,563.9,95.3,565.4,93.4,565.4z M98.8,549.8
			H88.1v-3.5c0-3,2.4-5.4,5.4-5.4c3.1,0,5.4,2.4,5.4,5.4L98.8,549.8z"/>
	</g>
	<g>
		<g id="Caminho_6696_2_" transform="translate(17.278)">
			<path class="st6" d="M10.8,467.5c-4.1,0-8.1-0.8-11.9-2.4c-3.6-1.5-6.9-3.7-9.7-6.6c-2.8-2.8-5.1-6.1-6.6-9.7
				c-1.6-3.8-2.4-7.8-2.4-11.9c0-4.1,0.8-8.1,2.4-11.9c1.5-3.6,3.7-6.9,6.6-9.7s6.1-5.1,9.7-6.6c3.8-1.6,7.8-2.4,11.9-2.4
				s8.1,0.8,11.9,2.4c3.6,1.5,6.9,3.7,9.7,6.6c2.8,2.8,5.1,6.1,6.6,9.7c1.6,3.8,2.4,7.8,2.4,11.9c0,4.1-0.8,8.1-2.4,11.9
				c-1.5,3.6-3.7,6.9-6.6,9.7c-2.8,2.8-6.1,5.1-9.7,6.6C18.9,466.7,14.9,467.5,10.8,467.5z"/>
			<path class="st4" d="M10.8,409.6c-15.1,0-27.3,12.2-27.3,27.3s12.2,27.2,27.3,27.2s27.3-12.2,27.3-27.3S25.8,409.6,10.8,409.6
				 M10.8,402.9c18.7,0,34,15.2,34,34c0,18.7-15.2,34-34,34s-34-15.2-34-34C-23.2,418.1-8,402.9,10.8,402.9z"/>
		</g>
		<path id="Icon_material-lock_2_" class="st7" d="M38.5,428.8h-1.7v-3.5c0-4.9-3.9-8.7-8.8-8.7s-8.7,3.9-8.7,8.7v3.5h-1.7
			c-1.9,0-3.5,1.5-3.5,3.5v17.5c0,1.9,1.5,3.5,3.5,3.5h21c1.9,0,3.5-1.5,3.5-3.5v-17.5C42,430.4,40.4,428.8,38.5,428.8z M28,444.5
			c-1.9,0-3.5-1.5-3.5-3.5c0-2,1.5-3.5,3.5-3.5s3.5,1.5,3.5,3.5l0,0C31.5,443,30,444.5,28,444.5z M33.4,428.8H22.7v-3.5
			c0-3,2.4-5.4,5.4-5.4s5.4,2.4,5.4,5.4L33.4,428.8z"/>
	</g>
	<g>
		<g id="Caminho_6696_3_" transform="translate(17.278)">
			<path class="st6" d="M92.6,376.1c-4.1,0-8.1-0.8-11.9-2.4c-3.6-1.5-6.9-3.7-9.7-6.6c-2.8-2.8-5.1-6.1-6.6-9.7
				c-1.6-3.8-2.4-7.8-2.4-11.9c0-4.1,0.8-8.1,2.4-11.9c1.5-3.6,3.7-6.9,6.6-9.7c2.8-2.8,6.1-5.1,9.7-6.6c3.8-1.6,7.8-2.4,11.9-2.4
				s8.1,0.8,11.9,2.4c3.6,1.5,6.9,3.7,9.7,6.6c2.8,2.8,5.1,6.1,6.6,9.7c1.6,3.8,2.4,7.8,2.4,11.9c0,4.1-0.8,8.1-2.4,11.9
				c-1.5,3.6-3.7,6.9-6.6,9.7c-2.9,2.9-6.1,5.1-9.7,6.6C100.7,375.3,96.7,376.1,92.6,376.1z"/>
			<path class="st4" d="M92.6,318.2c-15.1,0-27.3,12.2-27.3,27.3s12.2,27.2,27.3,27.2s27.3-12.2,27.3-27.3S107.6,318.2,92.6,318.2
				 M92.6,311.5c18.7,0,34,15.2,34,34c0,18.7-15.2,34-34,34s-34-15.3-34-34.1C58.6,326.7,73.8,311.5,92.6,311.5z"/>
		</g>
		<path id="Icon_material-lock_3_" class="st7" d="M120.3,337.4h-1.7v-3.5c0-4.9-3.9-8.7-8.8-8.7c-4.9,0-8.7,3.9-8.7,8.7v3.5h-1.7
			c-1.9,0-3.5,1.5-3.5,3.5v17.5c0,1.9,1.5,3.5,3.5,3.5h21c1.9,0,3.5-1.5,3.5-3.5v-17.5C123.8,339,122.2,337.4,120.3,337.4z
			 M109.9,353.1c-1.9,0-3.5-1.5-3.5-3.5c0-2,1.5-3.5,3.5-3.5c2,0,3.5,1.5,3.5,3.5l0,0C113.3,351.6,111.8,353.1,109.9,353.1z
			 M115.2,337.4h-10.8v-3.5c0-3,2.4-5.4,5.4-5.4c3.1,0,5.4,2.4,5.4,5.4L115.2,337.4z"/>
	</g>
	<g>
		<g id="Caminho_6696_4_" transform="translate(17.278)">
			<path class="st6" d="M45.5,269c-4.1,0-8.1-0.8-11.9-2.4c-3.6-1.5-6.9-3.7-9.7-6.6c-2.8-2.8-5.1-6.1-6.6-9.7
				c-1.6-3.8-2.4-7.8-2.4-11.9c0-4.1,0.8-8.1,2.4-11.9c1.5-3.6,3.7-6.9,6.6-9.7c2.8-2.8,6.1-5.1,9.7-6.6c3.8-1.6,7.8-2.4,11.9-2.4
				s8.1,0.8,11.9,2.4c3.6,1.5,6.9,3.7,9.7,6.6c2.8,2.8,5.1,6.1,6.6,9.7c1.6,3.8,2.4,7.8,2.4,11.9c0,4.1-0.8,8.1-2.4,11.9
				c-1.5,3.6-3.7,6.9-6.6,9.7c-2.9,2.9-6.1,5.1-9.7,6.6C53.6,268.3,49.6,269,45.5,269z"/>
			<path class="st4" d="M45.5,211.1c-15.1,0-27.3,12.2-27.3,27.3s12.2,27.2,27.3,27.2s27.3-12.2,27.3-27.3S60.5,211.1,45.5,211.1
				 M45.5,204.5c18.7,0,34,15.2,34,34c0,18.7-15.2,34-34,34s-34-15.3-34-34.1C11.5,219.6,26.7,204.5,45.5,204.5z"/>
		</g>
		<path id="Icon_material-lock_4_" class="st7" d="M73.2,230.3h-1.7v-3.5c0-4.9-3.9-8.7-8.8-8.7S54,222,54,226.8v3.5h-1.7
			c-1.9,0-3.5,1.5-3.5,3.5v17.5c0,1.9,1.5,3.5,3.5,3.5h21c1.9,0,3.5-1.5,3.5-3.5v-17.5C76.8,232,75.1,230.3,73.2,230.3z M62.8,246.1
			c-1.9,0-3.5-1.5-3.5-3.5c0-2,1.5-3.5,3.5-3.5c2,0,3.5,1.5,3.5,3.5l0,0C66.3,244.6,64.7,246.1,62.8,246.1z M68.2,230.3H57.4v-3.5
			c0-3,2.4-5.4,5.4-5.4c3.1,0,5.4,2.4,5.4,5.4L68.2,230.3z"/>
	</g>
	<g id="Book1-3" transform="translate(78 787.475)">
		<g class="st1">
			<path class="st4" d="M6.7,84c0-3.3,2.4-5.5,5.6-5.5c2.1,0,3.5,1.1,4.3,2.4L15,81.7c-0.5-0.9-1.6-1.6-2.7-1.6
				c-2.1,0-3.7,1.6-3.7,3.9c0,2.2,1.6,3.9,3.7,3.9c1.1,0,2.2-0.7,2.7-1.6l1.6,0.8c-0.8,1.3-2.1,2.4-4.3,2.4
				C9.2,89.5,6.7,87.3,6.7,84z"/>
			<path class="st4" d="M17.6,85.5c0-2.2,1.5-4,4-4s4,1.8,4,4s-1.5,4.1-4,4.1C19.1,89.5,17.6,87.7,17.6,85.5z M23.8,85.5
				c0-1.4-0.8-2.6-2.2-2.6c-1.4,0-2.2,1.2-2.2,2.6s0.8,2.6,2.2,2.6C23,88,23.8,86.8,23.8,85.5z"/>
			<path class="st4" d="M36.7,89.3v-5c0-0.8-0.4-1.4-1.3-1.4c-0.8,0-1.5,0.5-1.8,1v5.4H32v-5c0-0.8-0.4-1.4-1.3-1.4
				c-0.8,0-1.4,0.5-1.8,1v5.4h-1.7v-7.7h1.7v1c0.3-0.5,1.3-1.2,2.5-1.2s1.9,0.6,2.1,1.4c0.4-0.7,1.5-1.4,2.6-1.4
				c1.4,0,2.2,0.8,2.2,2.3v5.6C38.3,89.3,36.7,89.3,36.7,89.3z"/>
			<path class="st4" d="M42.3,88.3v4h-1.7V81.6h1.7v1.1c0.6-0.8,1.5-1.2,2.5-1.2c2,0,3.4,1.5,3.4,4s-1.4,4.1-3.4,4.1
				C43.8,89.5,42.9,89.1,42.3,88.3z M46.4,85.5c0-1.5-0.9-2.6-2.2-2.6c-0.8,0-1.6,0.4-2,1V87c0.4,0.6,1.2,1.1,2,1.1
				C45.6,88,46.4,87,46.4,85.5z"/>
			<path class="st4" d="M49.8,89.3V78.7h1.7v10.7L49.8,89.3L49.8,89.3z"/>
			<path class="st4" d="M53.2,85.5c0-2.2,1.6-4,3.9-4c2.3,0,3.8,1.8,3.8,4.2V86h-6c0.1,1.2,1,2.1,2.4,2.1c0.8,0,1.6-0.3,2.2-0.9
				l0.8,1.1c-0.8,0.7-1.9,1.1-3.1,1.1C54.9,89.5,53.2,87.9,53.2,85.5z M57.1,82.8c-1.4,0-2.1,1.1-2.2,2h4.4
				C59.3,83.9,58.7,82.8,57.1,82.8z"/>
			<path class="st4" d="M63,87.5V83h-1.3v-1.5H63v-2.1h1.7v2.1h1.6V83h-1.6v4c0,0.5,0.3,0.9,0.7,0.9c0.3,0,0.6-0.1,0.7-0.3l0.4,1.3
				c-0.3,0.3-0.8,0.5-1.6,0.5C63.6,89.5,63,88.8,63,87.5z"/>
			<path class="st4" d="M67.2,85.5c0-2.2,1.6-4,3.9-4s3.8,1.8,3.8,4.2V86h-6c0.1,1.2,1,2.1,2.4,2.1c0.8,0,1.6-0.3,2.2-0.9l0.8,1.1
				c-0.8,0.7-1.9,1.1-3.1,1.1C69,89.5,67.2,87.9,67.2,85.5z M71.1,82.8c-1.4,0-2.1,1.1-2.2,2h4.4C73.3,83.9,72.7,82.8,71.1,82.8z"/>
		</g>
		<g class="st1">
			<path class="st4" d="M30,109.3v-8.2l-3.3,8.2h-0.8l-3.3-8.2v8.2h-1.9V98.7h2.6l2.9,7.3l2.9-7.3h2.6v10.7L30,109.3L30,109.3z"/>
			<path class="st4" d="M33.6,105.5c0-2.2,1.6-4,3.9-4c2.3,0,3.8,1.8,3.8,4.2v0.4h-6c0.1,1.2,1,2.1,2.4,2.1c0.8,0,1.6-0.3,2.2-0.9
				l0.8,1.1c-0.8,0.7-1.9,1.1-3.1,1.1C35.3,109.5,33.6,107.9,33.6,105.5z M37.5,102.8c-1.4,0-2.1,1.1-2.2,2h4.4
				C39.7,103.9,39.1,102.8,37.5,102.8z"/>
			<path class="st4" d="M47.7,109.3v-0.8c-0.6,0.7-1.5,1-2.5,1c-1.2,0-2.7-0.9-2.7-2.6c0-1.8,1.4-2.5,2.7-2.5c1.1,0,1.9,0.3,2.5,1
				v-1.2c0-0.9-0.8-1.4-1.8-1.4c-0.9,0-1.6,0.3-2.3,1l-0.7-1.2c0.9-0.9,2-1.2,3.2-1.2c1.7,0,3.2,0.7,3.2,2.8v5.1
				C49.3,109.3,47.7,109.3,47.7,109.3z M47.7,107.6v-1.2c-0.4-0.5-1.1-0.8-1.8-0.8c-0.9,0-1.7,0.6-1.7,1.4s0.7,1.4,1.7,1.4
				C46.6,108.4,47.3,108.1,47.7,107.6z"/>
			<path class="st4" d="M51.6,109.3V98.7h1.7v10.7L51.6,109.3L51.6,109.3z"/>
			<path class="st4" d="M54.8,108.3l0.8-1.2c0.5,0.6,1.6,1.1,2.6,1.1s1.5-0.4,1.5-1c0-1.5-4.7-0.4-4.7-3.4c0-1.3,1.1-2.3,3-2.3
				c1.3,0,2.3,0.5,3,1.1l-0.7,1.2c-0.5-0.5-1.3-0.9-2.3-0.9c-0.9,0-1.4,0.4-1.4,1c0,1.4,4.7,0.3,4.7,3.4c0,1.4-1.1,2.4-3.2,2.4
				C56.8,109.5,55.6,109.1,54.8,108.3z"/>
		</g>
		<g>
			<g id="Caminho_6696-2" transform="translate(17.278)">
				<path class="st6" d="M25.6,66.2c-4.1,0-8.1-0.8-11.9-2.4C10,62.2,6.8,60,3.9,57.2c-2.9-2.8-5.1-6-6.6-9.6
					c-1.6-3.8-2.4-7.8-2.4-11.9s0.8-8.2,2.4-11.9c1.5-3.6,3.7-6.9,6.6-9.7s6.1-5.1,9.7-6.6c3.8-1.6,7.8-2.4,11.9-2.4
					s8.1,0.8,11.9,2.4c3.6,1.5,6.9,3.7,9.7,6.6c2.8,2.8,5.1,6.1,6.6,9.7c1.6,3.8,2.4,7.8,2.4,11.9s-0.8,8.1-2.4,11.9
					c-1.5,3.6-3.7,6.9-6.6,9.7c-2.8,2.8-6.1,5.1-9.7,6.6C33.7,65.4,29.7,66.2,25.6,66.2z"/>
				<path class="st4" d="M25.6,8.3C10.5,8.3-1.7,20.5-1.7,35.6s12.2,27.3,27.3,27.3s27.3-12.2,27.3-27.3S40.6,8.3,25.6,8.3
					 M25.6,1.6c18.7,0,34,15.2,34,34s-15.3,33.9-34,33.9s-34-15.2-34-33.9S6.8,1.6,25.6,1.6z"/>
			</g>
			<path id="Icon_material-lock-2" class="st7" d="M53.3,26.6h-1.7v-3.5c0-4.9-3.9-8.7-8.8-8.7s-8.7,3.9-8.7,8.7v3.5h-1.7
				c-1.9,0-3.5,1.5-3.5,3.5v17.5c0,1.9,1.5,3.5,3.5,3.5h21c1.9,0,3.5-1.5,3.5-3.5V30.1C56.8,28.1,55.2,26.6,53.3,26.6z M42.9,42.3
				c-1.9,0-3.5-1.5-3.5-3.5s1.5-3.5,3.5-3.5c2,0,3.5,1.5,3.5,3.5l0,0C46.3,40.8,44.8,42.3,42.9,42.3z M48.2,26.6H37.5v-3.5
				c0-3,2.4-5.4,5.4-5.4c3,0,5.4,2.4,5.4,5.4L48.2,26.6z"/>
		</g>
	</g>
	<g id="Book1-4" transform="translate(49 522.606)">
		<g class="st1">
			<path class="st4" d="M-1.4,95.3V84.6h1.9v10.7C0.5,95.3-1.4,95.3-1.4,95.3z"/>
			<path class="st4" d="M7.9,95.3v-4.8c0-1.2-0.6-1.6-1.6-1.6c-0.8,0-1.6,0.5-2,1v5.4H2.6v-7.7h1.7v1C4.8,88,5.8,87.4,7,87.4
				c1.7,0,2.5,0.9,2.5,2.5v5.4H7.9z"/>
			<path class="st4" d="M12.1,93.5V89h-1.3v-1.5h1.3v-2.1h1.7v2.1h1.6V89h-1.6v4c0,0.5,0.3,0.9,0.7,0.9c0.3,0,0.6-0.1,0.7-0.3
				l0.4,1.3c-0.3,0.3-0.8,0.5-1.6,0.5C12.8,95.5,12.1,94.8,12.1,93.5z"/>
			<path class="st4" d="M16.4,91.5c0-2.2,1.6-4,3.9-4s3.8,1.8,3.8,4.2V92h-6c0.1,1.2,1,2.1,2.4,2.1c0.8,0,1.6-0.3,2.2-0.9l0.8,1.1
				c-0.8,0.7-1.9,1.1-3.1,1.1C18.1,95.5,16.4,93.9,16.4,91.5z M20.3,88.8c-1.4,0-2.1,1.1-2.2,2h4.4C22.5,89.9,21.8,88.8,20.3,88.8z"
				/>
			<path class="st4" d="M25.8,95.3v-7.7h1.7v1.1c0.6-0.7,1.5-1.3,2.5-1.3v1.7c-0.1,0-0.3,0-0.5,0c-0.7,0-1.7,0.5-2,1v5.3L25.8,95.3
				L25.8,95.3z"/>
			<path class="st4" d="M40.8,95.3v-5c0-0.8-0.4-1.4-1.3-1.4c-0.8,0-1.5,0.5-1.8,1v5.4H36v-5c0-0.8-0.4-1.4-1.3-1.4
				c-0.8,0-1.4,0.5-1.8,1v5.4h-1.7v-7.7H33v1c0.3-0.5,1.3-1.2,2.5-1.2s1.9,0.6,2.1,1.4c0.4-0.7,1.5-1.4,2.6-1.4
				c1.4,0,2.2,0.8,2.2,2.3v5.6C42.4,95.3,40.8,95.3,40.8,95.3z"/>
			<path class="st4" d="M44.2,91.5c0-2.2,1.6-4,3.9-4c2.3,0,3.8,1.8,3.8,4.2V92h-6c0.1,1.2,1,2.1,2.4,2.1c0.8,0,1.6-0.3,2.2-0.9
				l0.8,1.1c-0.8,0.7-1.9,1.1-3.1,1.1C45.9,95.5,44.2,93.9,44.2,91.5z M48.1,88.8c-1.4,0-2.1,1.1-2.2,2h4.4
				C50.3,89.9,49.6,88.8,48.1,88.8z"/>
			<path class="st4" d="M59,95.3v-1.1c-0.6,0.8-1.5,1.2-2.5,1.2c-2,0-3.4-1.5-3.4-4.1c0-2.5,1.4-4,3.4-4c1,0,1.9,0.4,2.5,1.3v-4h1.7
				v10.7H59z M59,93v-3.1c-0.4-0.6-1.2-1-2-1c-1.3,0-2.2,1.1-2.2,2.6s0.8,2.6,2.2,2.6C57.8,94,58.7,93.6,59,93z"/>
			<path class="st4" d="M62.7,85.6c0-0.6,0.5-1,1-1c0.6,0,1,0.5,1,1s-0.5,1-1,1C63.2,86.7,62.7,86.2,62.7,85.6z M62.9,95.3v-7.7h1.7
				v7.7H62.9z"/>
			<path class="st4" d="M71.5,95.3v-0.8c-0.6,0.7-1.5,1-2.5,1c-1.2,0-2.7-0.9-2.7-2.6c0-1.8,1.4-2.5,2.7-2.5c1.1,0,1.9,0.3,2.5,1
				v-1.2c0-0.9-0.8-1.4-1.8-1.4c-0.9,0-1.6,0.3-2.3,1l-0.7-1.2c0.9-0.9,2-1.2,3.2-1.2c1.7,0,3.2,0.7,3.2,2.8v5.1
				C73.1,95.3,71.5,95.3,71.5,95.3z M71.5,93.6v-1.2c-0.4-0.5-1.1-0.8-1.8-0.8c-0.9,0-1.7,0.6-1.7,1.4s0.7,1.4,1.7,1.4
				C70.4,94.4,71.1,94.1,71.5,93.6z"/>
			<path class="st4" d="M75.7,93.5V89h-1.3v-1.5h1.3v-2.1h1.7v2.1H79V89h-1.6v4c0,0.5,0.3,0.9,0.7,0.9c0.3,0,0.6-0.1,0.7-0.3
				l0.4,1.3c-0.3,0.3-0.8,0.5-1.6,0.5C76.4,95.5,75.7,94.8,75.7,93.5z"/>
			<path class="st4" d="M80,91.5c0-2.2,1.6-4,3.9-4s3.8,1.8,3.8,4.2V92h-6c0.1,1.2,1,2.1,2.4,2.1c0.8,0,1.6-0.3,2.2-0.9l0.8,1.1
				c-0.8,0.7-1.9,1.1-3.1,1.1C81.7,95.5,80,93.9,80,91.5z M83.9,88.8c-1.4,0-2.1,1.1-2.2,2h4.4C86,89.9,85.4,88.8,83.9,88.8z"/>
		</g>
	</g>
	<g id="Book1-5" transform="translate(16 898.409)">
		<g id="Caminho_6696-4" transform="translate(17.278)">
			<path class="st6" d="M25.6,66.2c-4.1,0-8.1-0.8-11.9-2.4C10,62.2,6.8,60,3.9,57.2c-2.9-2.8-5.1-6-6.6-9.6
				c-1.6-3.8-2.4-7.8-2.4-11.9s0.8-8.2,2.4-11.9c1.5-3.6,3.7-6.9,6.6-9.7s6.1-5.1,9.7-6.6c3.8-1.6,7.8-2.4,11.9-2.4
				s8.1,0.8,11.9,2.4c3.6,1.5,6.9,3.7,9.7,6.6c2.8,2.8,5.1,6.1,6.6,9.7c1.6,3.8,2.4,7.8,2.4,11.9s-0.8,8.1-2.4,11.9
				c-1.5,3.6-3.7,6.9-6.6,9.7c-2.8,2.8-6.1,5.1-9.7,6.6C33.7,65.4,29.7,66.2,25.6,66.2z"/>
			<path class="st4" d="M25.6,8.3C10.5,8.3-1.7,20.5-1.7,35.6s12.2,27.3,27.3,27.3s27.3-12.2,27.3-27.3S40.6,8.3,25.6,8.3 M25.6,1.6
				c18.7,0,34,15.2,34,34s-15.3,33.9-34,33.9s-34-15.2-34-33.9S6.8,1.6,25.6,1.6z"/>
		</g>
		<path id="Icon_material-lock-3" class="st7" d="M53.3,26.6h-1.7v-3.5c0-4.9-3.9-8.7-8.8-8.7s-8.7,3.9-8.7,8.7v3.5h-1.7
			c-1.9,0-3.5,1.5-3.5,3.5v17.5c0,1.9,1.5,3.5,3.5,3.5h21c1.9,0,3.5-1.5,3.5-3.5V30.1C56.8,28.1,55.2,26.6,53.3,26.6z M42.9,42.3
			c-1.9,0-3.5-1.5-3.5-3.5s1.5-3.5,3.5-3.5c2,0,3.5,1.5,3.5,3.5l0,0C46.3,40.8,44.8,42.3,42.9,42.3z M48.2,26.6H37.5v-3.5
			c0-3,2.4-5.4,5.4-5.4c3,0,5.4,2.4,5.4,5.4L48.2,26.6z"/>
		<g class="st1">
			<path class="st8" d="M25.4,34.6v-7.8l-3.2,7.8h-0.8l-3.2-7.8v7.8h-1.8V24.4H19l2.8,7l2.8-7H27v10.2C27,34.6,25.4,34.6,25.4,34.6z
				"/>
			<path class="st8" d="M29,30.9c0-2.1,1.4-3.8,3.8-3.8s3.8,1.7,3.8,3.8c0,2.1-1.4,3.9-3.8,3.9S29,33,29,30.9z M34.9,30.9
				c0-1.3-0.8-2.5-2.1-2.5c-1.3,0-2.1,1.1-2.1,2.5c0,1.3,0.8,2.5,2.1,2.5C34.1,33.4,34.9,32.3,34.9,30.9z"/>
			<path class="st8" d="M38.1,34.6v-7.4h1.6v1.1c0.6-0.7,1.4-1.2,2.4-1.2v1.6c-0.1,0-0.3,0-0.5,0c-0.7,0-1.6,0.5-1.9,1v5.1
				L38.1,34.6L38.1,34.6z"/>
			<path class="st8" d="M43,30.9c0-2.1,1.5-3.8,3.7-3.8c2.2,0,3.6,1.7,3.6,4v0.4h-5.7c0.1,1.1,1,2,2.3,2c0.8,0,1.5-0.3,2.1-0.9
				l0.8,1.1c-0.8,0.7-1.8,1.1-3,1.1C44.6,34.8,43,33.2,43,30.9z M46.7,28.3c-1.3,0-2,1.1-2.1,1.9h4.2C48.7,29.4,48.2,28.3,46.7,28.3
				z"/>
			<path class="st8" d="M56.3,32.9v-4.3H55v-1.4h1.2v-2h1.6v2h1.5v1.4h-1.5v3.8c0,0.5,0.3,0.9,0.7,0.9c0.3,0,0.6-0.1,0.7-0.3
				l0.4,1.2c-0.3,0.3-0.8,0.5-1.5,0.5C56.8,34.8,56.3,34.2,56.3,32.9z"/>
			<path class="st8" d="M60.3,30.9c0-2.1,1.4-3.8,3.8-3.8s3.8,1.7,3.8,3.8c0,2.1-1.4,3.9-3.8,3.9S60.3,33,60.3,30.9z M66.2,30.9
				c0-1.3-0.8-2.5-2.1-2.5c-1.3,0-2.1,1.1-2.1,2.5c0,1.3,0.8,2.5,2.1,2.5C65.5,33.4,66.2,32.3,66.2,30.9z"/>
		</g>
		<g class="st1">
			<path class="st8" d="M22,46.2c0-2.2,1.5-3.8,3.8-3.8c1.4,0,2.3,0.6,2.9,1.3l-1.1,1c-0.4-0.6-1-0.9-1.7-0.9
				c-1.3,0-2.2,1.1-2.2,2.5c0,1.4,0.9,2.5,2.2,2.5c0.8,0,1.2-0.3,1.7-0.9l1.1,1c-0.5,0.7-1.3,1.3-2.9,1.3C23.5,50.1,22,48.4,22,46.2
				z"/>
			<path class="st8" d="M29.5,46.2c0-2.1,1.4-3.8,3.8-3.8s3.8,1.7,3.8,3.8c0,2.1-1.4,3.9-3.8,3.9S29.5,48.3,29.5,46.2z M35.4,46.2
				c0-1.3-0.8-2.5-2.1-2.5c-1.3,0-2.1,1.1-2.1,2.5c0,1.3,0.8,2.5,2.1,2.5C34.7,48.7,35.4,47.5,35.4,46.2z"/>
			<path class="st8" d="M47.9,49.9v-4.8c0-0.8-0.4-1.3-1.2-1.3c-0.8,0-1.4,0.5-1.7,1v5.2h-1.6v-4.8c0-0.8-0.4-1.3-1.2-1.3
				c-0.8,0-1.3,0.5-1.7,1v5.2h-1.6v-7.4h1.6v1c0.3-0.5,1.2-1.1,2.4-1.1s1.8,0.6,2,1.3c0.4-0.7,1.4-1.3,2.5-1.3
				c1.3,0,2.1,0.8,2.1,2.2v5.3C49.3,49.9,47.9,49.9,47.9,49.9z"/>
			<path class="st8" d="M51.1,46.2c0-2.1,1.5-3.8,3.7-3.8s3.6,1.7,3.6,4v0.4h-5.7c0.1,1.1,1,2,2.3,2c0.8,0,1.5-0.3,2.1-0.9l0.8,1.1
				c-0.8,0.7-1.8,1.1-3,1.1C52.7,50.1,51.1,48.5,51.1,46.2z M54.8,43.6c-1.3,0-2,1.1-2.1,1.9h4.2C56.8,44.7,56.3,43.6,54.8,43.6z"/>
			<path class="st8" d="M59.8,49c0-0.6,0.5-1.1,1.1-1.1s1.1,0.5,1.1,1.1S61.4,50,60.9,50S59.8,49.5,59.8,49z M60.2,46.8l-0.3-7.1
				h1.9l-0.3,7.1H60.2z"/>
		</g>
	</g>
</g>
</svg>
