<?xml version="1.0" encoding="utf-8"?>
<!-- Generator: Adobe Illustrator 25.0.1, SVG Export Plug-In . SVG Version: 6.00 Build 0)  -->
<svg version="1.1" id="Camada_1" xmlns="http://www.w3.org/2000/svg" xmlns:xlink="http://www.w3.org/1999/xlink" x="0px" y="0px"
	 viewBox="0 0 951 1289.4" style="enable-background:new 0 0 951 1289.4;" xml:space="preserve">
<style type="text/css">
	.st0{fill:none;stroke:#3AA252;stroke-width:8;stroke-dasharray:17,7;}
	.st1{fill:#FFFFFF;}
	.st2{fill:none;stroke:#BFBFBF;stroke-width:8;}
	.st3{fill:#BFBFBF;}
	.st4{fill:none;stroke:#707070;stroke-width:8.0036;stroke-miterlimit:4.0018;stroke-dasharray:17.0077,7.0032;}
	.st5{fill:none;stroke:#3277B4;stroke-width:8;stroke-dasharray:17,7;}
	.st6{fill:none;stroke:#E5A11B;stroke-width:8;stroke-dasharray:17,7;}
	.st7{fill:none;stroke:#F86464;stroke-width:16;}
	.st8{fill:none;stroke:#F86464;stroke-width:16;stroke-dasharray:17,7;}
	.st9{fill:none;stroke:#F86464;stroke-width:7;}
	.st10{fill:none;stroke:#F86464;stroke-width:8;}
	.st11{enable-background:new    ;}
	.st12{fill:#F86464;}
	.st13{opacity:0.5;fill:#F86464;enable-background:new    ;}
</style>
<g>
	<path id="Vegan_path_Unexplored_1_" class="st0" d="M541.3,795.6c-71.6-83.8-161.6-106.9-248-101.6S93.7,758.1,58.1,848.1
		s-17.7,200.6,37.4,251.2c35.1,32.2,95.2,63.2,136.1,18.7"/>
	<g id="Elipse_308" transform="translate(208.407 784)">
		<circle class="st1" cx="207.2" cy="-73" r="35"/>
		<circle class="st2" cx="207.2" cy="-73" r="31"/>
	</g>
	<g id="Elipse_309" transform="translate(47.407 775)">
		<circle class="st1" cx="207.2" cy="-73" r="35"/>
		<circle class="st2" cx="207.2" cy="-73" r="31"/>
	</g>
	<g id="Elipse_310" transform="translate(-111.593 854)">
		<circle class="st1" cx="207.2" cy="-73" r="35"/>
		<circle class="st2" cx="207.2" cy="-73" r="31"/>
	</g>
	<g id="Elipse_311" transform="translate(-169.593 992)">
		<circle class="st1" cx="207.2" cy="-73" r="35"/>
		<circle class="st2" cx="207.2" cy="-73" r="31"/>
	</g>
	<g id="Elipse_312" transform="translate(-146.593 1130)">
		<circle class="st1" cx="207.2" cy="-73" r="35"/>
		<circle class="st2" cx="207.2" cy="-73" r="31"/>
	</g>
	<g id="Elipse_313" transform="translate(12.407 1196)">
		<circle class="st1" cx="207.2" cy="-65" r="35"/>
		<circle class="st2" cx="207.2" cy="-65" r="31"/>
	</g>
	<path id="Icon_material-lock-14" class="st3" d="M424.6,703.8h-1.5v-3c0-4.1-3.4-7.5-7.5-7.5s-7.5,3.4-7.5,7.5v3h-1.5
		c-1.7,0-3,1.3-3,3v15c0,1.7,1.3,3,3,3h18c1.7,0,3-1.3,3-3v-15C427.6,705.1,426.3,703.8,424.6,703.8z M415.6,717.2c-1.7,0-3-1.3-3-3
		s1.3-3,3-3c1.7,0,3,1.3,3,3S417.3,717.2,415.6,717.2z M420.3,703.8H411v-3c0-2.6,2.1-4.7,4.6-4.7c2.6,0,4.7,2.1,4.7,4.6l0,0V703.8z
		"/>
	<path id="Icon_material-lock-15" class="st3" d="M263.6,694.8h-1.5v-3c0-4.1-3.4-7.5-7.5-7.5s-7.5,3.4-7.5,7.5v3h-1.5
		c-1.7,0-3,1.3-3,3v15c0,1.7,1.3,3,3,3h18c1.7,0,3-1.3,3-3v-15C266.6,696.2,265.3,694.9,263.6,694.8z M254.6,708.4c-1.7,0-3-1.3-3-3
		s1.3-3,3-3s3,1.3,3,3C257.6,707,256.3,708.3,254.6,708.4z M259.3,694.8H250v-3c0-2.6,2.1-4.7,4.6-4.7c2.6,0,4.7,2.1,4.7,4.6l0,0
		C259.3,691.7,259.3,694.8,259.3,694.8z"/>
	<path id="Icon_material-lock-16" class="st3" d="M104.6,773.8h-1.5v-3c0-4.1-3.4-7.5-7.5-7.5s-7.5,3.4-7.5,7.5v3h-1.5
		c-1.7,0-3,1.3-3,3v15c0,1.7,1.3,3,3,3h18c1.7,0,3-1.3,3-3v-15C107.6,775.2,106.3,773.9,104.6,773.8z M95.6,787.4c-1.7,0-3-1.3-3-3
		s1.3-3,3-3s3,1.3,3,3C98.6,786,97.3,787.3,95.6,787.4z M100.3,773.8H91v-3c0-2.6,2.1-4.7,4.6-4.7c2.6,0,4.7,2.1,4.7,4.6l0,0
		C100.3,770.7,100.3,773.8,100.3,773.8z"/>
	<path id="Icon_material-lock-17" class="st3" d="M46.6,911.8h-1.5v-3c0-4.1-3.4-7.5-7.5-7.5s-7.5,3.4-7.5,7.5v3h-1.5
		c-1.7,0-3,1.3-3,3v15c0,1.7,1.3,3,3,3h18c1.7,0,3-1.3,3-3v-15C49.6,913.1,48.3,911.8,46.6,911.8z M37.6,925.2c-1.7,0-3-1.3-3-3
		s1.3-3,3-3s3,1.3,3,3C40.6,923.9,39.3,925.2,37.6,925.2z M42.3,911.8H33v-3c0-2.6,2.1-4.7,4.6-4.7c2.6,0,4.7,2.1,4.7,4.6l0,0V911.8
		z"/>
	<path id="Icon_material-lock-18" class="st3" d="M69.6,1049.8h-1.5v-3c0-4.1-3.4-7.5-7.5-7.5s-7.5,3.4-7.5,7.5v3h-1.5
		c-1.7,0-3,1.3-3,3v15c0,1.7,1.3,3,3,3h18c1.7,0,3-1.3,3-3v-15C72.6,1051.1,71.3,1049.8,69.6,1049.8z M60.6,1063.2c-1.7,0-3-1.3-3-3
		s1.3-3,3-3s3,1.3,3,3C63.6,1061.9,62.3,1063.2,60.6,1063.2z M65.3,1049.8H56v-3c0-2.6,2.1-4.7,4.6-4.7c2.6,0,4.7,2.1,4.7,4.6l0,0
		C65.3,1046.7,65.3,1049.8,65.3,1049.8z"/>
	<path id="Icon_material-lock-19" class="st3" d="M228.6,1123.8h-1.5v-3c0-4.1-3.4-7.5-7.5-7.5c-4.1,0-7.5,3.4-7.5,7.5v3h-1.5
		c-1.7,0-3,1.3-3,3v15c0,1.7,1.3,3,3,3h18c1.7,0,3-1.3,3-3v-15C231.6,1125.2,230.3,1123.8,228.6,1123.8z M219.6,1137.3
		c-1.7,0-3-1.3-3-3s1.3-3,3-3s3,1.3,3,3S221.3,1137.3,219.6,1137.3z M224.3,1123.8H215v-3c0-2.6,2.1-4.7,4.6-4.7
		c2.6,0,4.7,2.1,4.7,4.6l0,0V1123.8z"/>
</g>
<g id="Grupo_2055" transform="translate(169.593 26)">
	<g id="Xmas_path">
		<path id="Xmas_path_Unexplored" class="st4" d="M393,642.8c53.6,42.2,128.8,67.5,181.7,38.8c52.8-28.7,102.9-120.7,76.5-166.1
			S510,480,482.9,441.6S470.1,311.4,552,326.1"/>
		<g id="Elipse_300" transform="translate(599.407 642)">
			<circle class="st1" cx="-56" cy="49.4" r="35"/>
			<circle class="st2" cx="-56" cy="49.4" r="31"/>
		</g>
		<g id="Elipse_301" transform="translate(712.407 476)">
			<circle class="st1" cx="-56" cy="49.4" r="35"/>
			<circle class="st2" cx="-56" cy="49.4" r="31"/>
		</g>
		<g id="Elipse_302" transform="translate(580.407 412)">
			<circle class="st1" cx="-56" cy="49.4" r="35"/>
			<circle class="st2" cx="-56" cy="49.4" r="31"/>
		</g>
		<g id="Elipse_303" transform="translate(610.407 282)">
			<circle class="st1" cx="-56" cy="49.4" r="35"/>
			<circle class="st2" cx="-56" cy="49.4" r="31"/>
		</g>
	</g>
	<path id="Cuisine_path_Unexplored_1_" class="st5" d="M317.9,195.6c31.1,15,101.6,4.5,126.4-27.2c24.7-31.6,28.8-119.6,86.4-138.3
		c57.6-18.7,143.6,2.8,176.4,62.9s15.8,123.3-26.8,189.4s-1.2,163.8,83.9,161"/>
	<g id="Elipse_291" transform="translate(505.407 119)">
		<circle class="st1" cx="-56" cy="49.4" r="35"/>
		<circle class="st2" cx="-56" cy="49.4" r="31"/>
	</g>
	<g id="Elipse_292" transform="translate(657.407 -26)">
		<circle class="st1" cx="-83" cy="49.4" r="35"/>
		<circle class="st2" cx="-83" cy="49.4" r="31"/>
	</g>
	<g id="Elipse_293" transform="translate(782.407 146)">
		<circle class="st1" cx="-60" cy="-15.6" r="35"/>
		<circle class="st2" cx="-60" cy="-15.6" r="31"/>
	</g>
	<g id="Elipse_294" transform="translate(727.407 301)">
		<circle class="st1" cx="-47" cy="4.4" r="35"/>
		<circle class="st2" cx="-47" cy="4.4" r="31"/>
	</g>
	<g id="Elipse_295" transform="translate(839.407 398)">
		<circle class="st1" cx="-93" cy="49.4" r="35"/>
		<circle class="st2" cx="-93" cy="49.4" r="31"/>
	</g>
	<g id="Patisserie_path">
		<path id="Patisserie_path_Unexplored" class="st6" d="M278.1,222c-11.5,32.4-20.8,76.7-56.4,95.5s-99.1,1.4-127.4,40.6
			s-5.8,66.5,10.3,85.4s38.9,35.5,38.6,74.4c-0.2,38.9-40.1,71.3-102.7,65.5s-80.1-54.2-71.5-97.7s-44.6-71.5-73.9-72.7"/>
		<g id="Elipse_286" transform="translate(267.407 266)">
			<circle class="st1" cx="-56" cy="49.4" r="35"/>
			<circle class="st2" cx="-56" cy="49.4" r="31"/>
		</g>
		<g id="Elipse_287" transform="translate(145.407 363)">
			<circle class="st1" cx="-56" cy="49.4" r="35"/>
			<circle class="st2" cx="-56" cy="49.4" r="31"/>
		</g>
		<g id="Elipse_288" transform="translate(171.407 520)">
			<circle class="st1" cx="-56" cy="49.4" r="35"/>
			<circle class="st2" cx="-56" cy="49.4" r="31"/>
		</g>
		<g id="Elipse_289" transform="translate(28.407 480)">
			<circle class="st1" cx="-56" cy="49.4" r="35"/>
			<circle class="st2" cx="-56" cy="49.4" r="31"/>
		</g>
		<g id="Elipse_290" transform="translate(-41.593 363)">
			<circle class="st1" cx="-93" cy="49.4" r="35"/>
			<circle class="st2" cx="-93" cy="49.4" r="31"/>
		</g>
	</g>
	<g id="Main_path">
		<path id="Main_path_Completed" class="st7" d="M304.9,49.4c-37.3,75-27.2,120.4-22,141.4s55.9,110.7,48.5,150.8"/>
		<path id="Main_path_Unexplored_1_" class="st8" d="M330.2,347.5c-8.6,40.6-48.2,79.1-48.2,128.1s55.4,86.5,78,119.7
			s67,134.4,27.4,188.7c-33,45.3-55.5,58.5-99.8,111.9c-40,54.1-60.9,138.7-50,212.3c9.9,66.6,53.8,88.2,79.3,143.2"/>
		<g id="Elipse_283" transform="translate(361.407)">
			<circle class="st1" cx="-56" cy="49.4" r="35"/>
			<circle class="st9" cx="-56" cy="49.4" r="31.5"/>
		</g>
		<g id="Elipse_284" transform="translate(343.407 146)">
			<circle class="st1" cx="-56" cy="49.4" r="35"/>
			<circle class="st10" cx="-56" cy="49.4" r="31"/>
		</g>
		<g id="Elipse_285" transform="translate(388.407 292)">
			<circle class="st1" cx="-56" cy="49.4" r="35"/>
			<circle class="st2" cx="-56" cy="49.4" r="31"/>
		</g>
		<g id="Elipse_297" transform="translate(337.407 439)">
			<circle class="st1" cx="-56" cy="49.4" r="35"/>
			<circle class="st2" cx="-56" cy="49.4" r="31"/>
		</g>
		<g id="Elipse_298" transform="translate(431.407 570)">
			<circle class="st1" cx="-56" cy="49.4" r="35"/>
			<circle class="st2" cx="-56" cy="49.4" r="31"/>
		</g>
		<g id="Elipse_299" transform="translate(433.407 737)">
			<circle class="st1" cx="-56" cy="49.4" r="35"/>
			<circle class="st2" cx="-56" cy="49.4" r="31"/>
		</g>
		<g id="Elipse_304" transform="translate(330.407 870)">
			<circle class="st1" cx="-56" cy="49.4" r="35"/>
			<circle class="st2" cx="-56" cy="49.4" r="31"/>
		</g>
		<g id="Elipse_305" transform="translate(290.407 1017)">
			<circle class="st1" cx="-56" cy="49.4" r="35"/>
			<circle class="st2" cx="-56" cy="49.4" r="31"/>
		</g>
		<g id="Elipse_306" transform="translate(360.407 1179)">
			<circle class="st1" cx="-56" cy="49.4" r="35"/>
			<circle class="st2" cx="-56" cy="49.4" r="31"/>
		</g>
		<g>
			<g class="st11">
				<path class="st12" d="M212,39.4l-3.6-4.5l-0.9,1.1v3.4h-1.9V28.7h1.9v5.1l4.2-5.1h2.3l-4.3,5l4.7,5.7H212z"/>
				<path class="st12" d="M215.3,29.7c0-0.6,0.5-1,1-1c0.6,0,1,0.5,1,1s-0.5,1-1,1C215.7,30.7,215.3,30.2,215.3,29.7z M215.5,39.4
					v-7.7h1.7v7.7H215.5z"/>
				<path class="st12" d="M219.7,37.6v-4.5h-1.3v-1.5h1.3v-2.1h1.7v2.1h1.6v1.5h-1.6v4c0,0.5,0.3,0.9,0.7,0.9c0.3,0,0.6-0.1,0.7-0.3
					l0.4,1.3c-0.3,0.3-0.8,0.5-1.6,0.5C220.4,39.6,219.7,38.9,219.7,37.6z"/>
				<path class="st12" d="M224,35.5c0-2.3,1.6-4,4-4c1.5,0,2.4,0.6,3,1.4l-1.1,1c-0.4-0.6-1-0.9-1.8-0.9c-1.4,0-2.3,1.1-2.3,2.6
					c0,1.5,0.9,2.6,2.3,2.6c0.8,0,1.3-0.3,1.8-0.9l1.1,1c-0.5,0.7-1.4,1.4-3,1.4C225.6,39.6,224,37.8,224,35.5z"/>
				<path class="st12" d="M237.6,39.4v-4.9c0-1.2-0.6-1.6-1.6-1.6c-0.9,0-1.6,0.5-2,1v5.4h-1.7V28.7h1.7v4c0.5-0.6,1.5-1.2,2.7-1.2
					c1.7,0,2.5,0.9,2.5,2.4v5.5H237.6z"/>
				<path class="st12" d="M241,35.5c0-2.2,1.6-4,3.9-4c2.3,0,3.8,1.8,3.8,4.2v0.4h-6c0.1,1.2,1,2.1,2.4,2.1c0.8,0,1.6-0.3,2.2-0.9
					l0.8,1.1c-0.8,0.7-1.9,1.1-3.1,1.1C242.7,39.6,241,38,241,35.5z M244.9,32.8c-1.4,0-2.1,1.1-2.2,2h4.4
					C247.1,34,246.4,32.8,244.9,32.8z"/>
				<path class="st12" d="M255.6,39.4v-4.8c0-1.2-0.6-1.6-1.6-1.6c-0.8,0-1.6,0.5-2,1v5.4h-1.7v-7.7h1.7v1c0.5-0.6,1.5-1.2,2.7-1.2
					c1.7,0,2.5,0.9,2.5,2.5v5.4H255.6z"/>
			</g>
			<g class="st11">
				<path class="st12" d="M216.2,57.9l1.1-1.5c0.7,0.8,1.9,1.5,3.4,1.5c1.5,0,2.1-0.8,2.1-1.5c0-2.2-6.2-0.8-6.2-4.8
					c0-1.8,1.5-3.1,3.9-3.1c1.6,0,3,0.5,4,1.5l-1.1,1.4c-0.8-0.8-2-1.2-3.1-1.2c-1.1,0-1.8,0.5-1.8,1.3c0,2,6.2,0.8,6.2,4.7
					c0,1.8-1.3,3.3-4.1,3.3C218.6,59.6,217.2,58.9,216.2,57.9z"/>
				<path class="st12" d="M226,54c0-3.2,2.3-5.5,5.5-5.5c3.2,0,5.5,2.3,5.5,5.5s-2.3,5.5-5.5,5.5C228.2,59.6,226,57.2,226,54z
					 M235,54c0-2.2-1.4-3.9-3.5-3.9c-2.2,0-3.5,1.6-3.5,3.9c0,2.2,1.4,3.9,3.5,3.9C233.6,57.9,235,56.2,235,54z"/>
				<path class="st12" d="M238,57.9l1.1-1.5c0.7,0.8,1.9,1.5,3.4,1.5c1.5,0,2.1-0.8,2.1-1.5c0-2.2-6.2-0.8-6.2-4.8
					c0-1.8,1.5-3.1,3.9-3.1c1.6,0,3,0.5,4,1.5l-1.1,1.4c-0.8-0.8-2-1.2-3.1-1.2c-1.1,0-1.8,0.5-1.8,1.3c0,2,6.2,0.8,6.2,4.7
					c0,1.8-1.3,3.3-4.1,3.3C240.4,59.6,239,58.9,238,57.9z"/>
			</g>
		</g>
		<g>
			<g class="st11">
				<path class="st12" d="M199.1,156.4l-3.6-4.5l-0.9,1.1v3.4h-1.9v-10.7h1.9v5.1l4.2-5.1h2.3l-4.3,5l4.7,5.7H199.1z"/>
				<path class="st12" d="M202.4,146.7c0-0.6,0.5-1,1-1c0.6,0,1,0.5,1,1s-0.5,1-1,1C202.8,147.7,202.4,147.3,202.4,146.7z
					 M202.6,156.4v-7.7h1.7v7.7H202.6z"/>
				<path class="st12" d="M206.8,154.6v-4.5h-1.3v-1.5h1.3v-2.1h1.7v2.1h1.6v1.5h-1.6v4c0,0.5,0.3,0.9,0.7,0.9
					c0.3,0,0.6-0.1,0.7-0.3l0.4,1.3c-0.3,0.3-0.8,0.5-1.6,0.5C207.5,156.6,206.8,155.9,206.8,154.6z"/>
				<path class="st12" d="M211.1,152.5c0-2.3,1.6-4,4-4c1.5,0,2.4,0.6,3,1.4l-1.1,1c-0.4-0.6-1-0.9-1.8-0.9c-1.4,0-2.3,1.1-2.3,2.6
					c0,1.5,0.9,2.6,2.3,2.6c0.8,0,1.3-0.3,1.8-0.9l1.1,1c-0.5,0.7-1.4,1.4-3,1.4C212.7,156.6,211.1,154.9,211.1,152.5z"/>
				<path class="st12" d="M224.7,156.4v-4.9c0-1.2-0.6-1.6-1.6-1.6c-0.9,0-1.6,0.5-2,1v5.4h-1.7v-10.7h1.7v4
					c0.5-0.6,1.5-1.2,2.7-1.2c1.7,0,2.5,0.9,2.5,2.4v5.5H224.7z"/>
				<path class="st12" d="M228.1,152.5c0-2.2,1.6-4,3.9-4c2.3,0,3.8,1.8,3.8,4.2v0.4h-6c0.1,1.2,1,2.1,2.4,2.1
					c0.8,0,1.6-0.3,2.2-0.9l0.8,1.1c-0.8,0.7-1.9,1.1-3.1,1.1C229.8,156.6,228.1,155,228.1,152.5z M232,149.9c-1.4,0-2.1,1.1-2.2,2
					h4.4C234.2,151,233.6,149.9,232,149.9z"/>
				<path class="st12" d="M242.7,156.4v-4.8c0-1.2-0.6-1.6-1.6-1.6c-0.8,0-1.6,0.5-2,1v5.4h-1.7v-7.7h1.7v1c0.5-0.6,1.5-1.2,2.7-1.2
					c1.7,0,2.5,0.9,2.5,2.5v5.4H242.7z"/>
			</g>
			<g class="st11">
				<path class="st12" d="M196.7,176.4v-10.7h5.3c2,0,3,1.2,3,2.7c0,1.3-0.9,2.2-1.9,2.4c1.2,0.2,2.1,1.3,2.1,2.6
					c0,1.7-1.1,2.9-3.1,2.9H196.7z M203.1,168.7c0-0.8-0.5-1.4-1.5-1.4h-3v2.8h3C202.5,170.1,203.1,169.6,203.1,168.7z M203.3,173.3
					c0-0.8-0.6-1.5-1.6-1.5h-3.1v3h3.1C202.7,174.8,203.3,174.2,203.3,173.3z"/>
				<path class="st12" d="M211.8,176.4v-0.8c-0.6,0.7-1.5,1-2.5,1c-1.2,0-2.7-0.9-2.7-2.6c0-1.8,1.4-2.5,2.7-2.5
					c1.1,0,1.9,0.3,2.5,1v-1.2c0-0.9-0.8-1.4-1.8-1.4c-0.9,0-1.6,0.3-2.3,1l-0.7-1.2c0.9-0.9,2-1.2,3.2-1.2c1.7,0,3.2,0.7,3.2,2.8
					v5.1H211.8z M211.8,174.6v-1.2c-0.4-0.5-1.1-0.8-1.8-0.8c-0.9,0-1.7,0.6-1.7,1.4c0,0.8,0.7,1.4,1.7,1.4
					C210.7,175.4,211.4,175.2,211.8,174.6z"/>
				<path class="st12" d="M215,175.4l0.8-1.2c0.5,0.6,1.6,1.1,2.6,1.1c1,0,1.5-0.4,1.5-1c0-1.5-4.7-0.4-4.7-3.4c0-1.3,1.1-2.3,3-2.3
					c1.3,0,2.3,0.5,3,1.1l-0.7,1.2c-0.5-0.5-1.3-0.9-2.3-0.9c-0.9,0-1.4,0.4-1.4,1c0,1.4,4.7,0.3,4.7,3.4c0,1.4-1.1,2.4-3.2,2.4
					C217,176.6,215.8,176.2,215,175.4z"/>
				<path class="st12" d="M223,166.7c0-0.6,0.5-1,1-1s1,0.5,1,1s-0.5,1-1,1S223,167.3,223,166.7z M223.2,176.4v-7.7h1.7v7.7H223.2z"
					/>
				<path class="st12" d="M226.6,172.5c0-2.3,1.6-4,4-4c1.5,0,2.4,0.6,3,1.4l-1.1,1c-0.4-0.6-1-0.9-1.8-0.9c-1.4,0-2.3,1.1-2.3,2.6
					c0,1.5,0.9,2.6,2.3,2.6c0.8,0,1.3-0.3,1.8-0.9l1.1,1c-0.5,0.7-1.4,1.4-3,1.4C228.2,176.6,226.6,174.9,226.6,172.5z"/>
				<path class="st12" d="M234.4,175.4l0.8-1.2c0.5,0.6,1.6,1.1,2.6,1.1c1,0,1.5-0.4,1.5-1c0-1.5-4.7-0.4-4.7-3.4
					c0-1.3,1.1-2.3,3-2.3c1.3,0,2.3,0.5,3,1.1l-0.7,1.2c-0.5-0.5-1.3-0.9-2.3-0.9c-0.9,0-1.4,0.4-1.4,1c0,1.4,4.7,0.3,4.7,3.4
					c0,1.4-1.1,2.4-3.2,2.4C236.3,176.6,235.2,176.2,234.4,175.4z"/>
			</g>
		</g>
	</g>
	<path id="Icon_material-lock" class="st3" d="M384.4,612.9h-1.5v-3c0-4.1-3.4-7.5-7.5-7.5s-7.5,3.4-7.5,7.5v3h-1.5
		c-1.7,0-3,1.3-3,3v15c0,1.7,1.3,3,3,3h18c1.7,0,3-1.3,3-3v-15C387.4,614.2,386.1,612.9,384.4,612.9z M375.4,626.4c-1.7,0-3-1.3-3-3
		s1.3-3,3-3s3,1.3,3,3S377.1,626.4,375.4,626.4z M380.1,612.9h-9.3v-3c0-2.6,2.1-4.7,4.6-4.7s4.7,2.1,4.7,4.6l0,0L380.1,612.9
		L380.1,612.9z"/>
	<path id="Icon_material-lock_1_" class="st3" d="M290.4,481.1h-1.5v-3c0-4.1-3.4-7.5-7.5-7.5s-7.5,3.4-7.5,7.5v3h-1.5
		c-1.7,0-3,1.3-3,3v15c0,1.7,1.3,3,3,3h18c1.7,0,3-1.3,3-3v-15C293.4,482.4,292.1,481.1,290.4,481.1z M281.4,494.6c-1.7,0-3-1.3-3-3
		s1.3-3,3-3s3,1.3,3,3S283.1,494.6,281.4,494.6z M286.1,481.1h-9.3v-3c0-2.6,2.1-4.7,4.6-4.7s4.7,2.1,4.7,4.6l0,0L286.1,481.1
		L286.1,481.1z"/>
	<path id="Icon_material-lock_2_" class="st3" d="M341.4,334.7h-1.5v-3c0-4.1-3.4-7.5-7.5-7.5s-7.5,3.4-7.5,7.5v3h-1.5
		c-1.7,0-3,1.3-3,3v15c0,1.7,1.3,3,3,3h18c1.7,0,3-1.3,3-3v-15C344.4,336,343.1,334.7,341.4,334.7z M332.4,348.2c-1.7,0-3-1.3-3-3
		s1.3-3,3-3s3,1.3,3,3S334.1,348.2,332.4,348.2z M337.1,334.7h-9.3v-3c0-2.6,2.1-4.7,4.6-4.7s4.7,2.1,4.7,4.6l0,0L337.1,334.7
		L337.1,334.7z"/>
	<path id="Icon_material-lock_3_" class="st3" d="M220.2,308h-1.5v-3c0-4.1-3.4-7.5-7.5-7.5s-7.5,3.4-7.5,7.5v3h-1.5
		c-1.7,0-3,1.3-3,3v15c0,1.7,1.3,3,3,3h18c1.7,0,3-1.3,3-3v-15C223.2,309.3,221.9,308,220.2,308z M211.2,321.5c-1.7,0-3-1.3-3-3
		s1.3-3,3-3s3,1.3,3,3S212.9,321.5,211.2,321.5z M215.9,308h-9.3v-3c0-2.6,2.1-4.7,4.6-4.7s4.7,2.1,4.7,4.6l0,0L215.9,308L215.9,308
		z"/>
	<path id="Icon_material-lock_4_" class="st3" d="M458.4,162.1h-1.5v-3c0-4.1-3.4-7.5-7.5-7.5s-7.5,3.4-7.5,7.5v3h-1.5
		c-1.7,0-3,1.3-3,3v15c0,1.7,1.3,3,3,3h18c1.7,0,3-1.3,3-3v-15C461.4,163.4,460.1,162.1,458.4,162.1z M449.4,175.6c-1.7,0-3-1.3-3-3
		s1.3-3,3-3s3,1.3,3,3S451.1,175.6,449.4,175.6z M454.1,162.1h-9.3v-3c0-2.6,2.1-4.7,4.6-4.7s4.7,2.1,4.7,4.6l0,0V162.1L454.1,162.1
		z"/>
	<path id="Icon_material-lock-2" class="st3" d="M583.4,16.8h-1.5v-3c0-4.1-3.4-7.5-7.5-7.5s-7.5,3.4-7.5,7.5v3h-1.5
		c-1.7,0-3,1.3-3,3v15c0,1.7,1.3,3,3,3h18c1.7,0,3-1.3,3-3v-15C586.4,18.1,585.1,16.8,583.4,16.8z M574.4,30.3c-1.7,0-3-1.3-3-3
		s1.3-3,3-3s3,1.3,3,3C577.4,28.9,576.1,30.3,574.4,30.3z M579.1,16.8h-9.3v-3c0-2.6,2.1-4.7,4.6-4.7c2.6,0,4.7,2.1,4.7,4.6l0,0
		V16.8z"/>
	<path id="Icon_material-lock-3" class="st3" d="M731.4,122.8h-1.5v-3c0-4.1-3.4-7.5-7.5-7.5s-7.5,3.4-7.5,7.5v3h-1.5
		c-1.7,0-3,1.3-3,3v15c0,1.7,1.3,3,3,3h18c1.7,0,3-1.3,3-3v-15C734.4,124.1,733.1,122.8,731.4,122.8z M722.4,136.3c-1.7,0-3-1.3-3-3
		s1.3-3,3-3s3,1.3,3,3C725.4,134.9,724.1,136.3,722.4,136.3z M727.1,122.8h-9.3v-3c0-2.6,2.1-4.7,4.6-4.7c2.6,0,4.7,2.1,4.7,4.6l0,0
		V122.8z"/>
	<path id="Icon_material-lock-4" class="st3" d="M689.4,298.8h-1.5v-3c0-4.1-3.4-7.5-7.5-7.5s-7.5,3.4-7.5,7.5v3h-1.5
		c-1.7,0-3,1.3-3,3v15c0,1.7,1.3,3,3,3h18c1.7,0,3-1.3,3-3v-15C692.4,300.1,691.1,298.8,689.4,298.8z M680.4,312.3c-1.7,0-3-1.3-3-3
		s1.3-3,3-3s3,1.3,3,3C683.4,310.9,682.1,312.3,680.4,312.3z M685.1,298.8h-9.3v-3c0-2.6,2.1-4.7,4.6-4.7c2.6,0,4.7,2.1,4.7,4.6l0,0
		V298.8z"/>
	<path id="Icon_material-lock-5" class="st3" d="M754.4,440h-1.5v-3c0-4.1-3.4-7.5-7.5-7.5s-7.5,3.4-7.5,7.5v3h-1.5
		c-1.7,0-3,1.3-3,3v15c0,1.7,1.3,3,3,3h18c1.7,0,3-1.3,3-3v-15C757.4,441.4,756.1,440,754.4,440z M745.4,453.5c-1.7,0-3-1.3-3-3
		s1.3-3,3-3s3,1.3,3,3S747.1,453.5,745.4,453.5z M750.1,440h-9.3v-3c0-2.6,2.1-4.7,4.6-4.7c2.6,0,4.7,2.1,4.7,4.6l0,0V440z"/>
	<path id="Icon_material-lock-7" class="st3" d="M563.7,323.8h-1.5v-3c0-4.1-3.4-7.5-7.5-7.5s-7.5,3.4-7.5,7.5v3h-1.5
		c-1.7,0-3,1.3-3,3v15c0,1.7,1.3,3,3,3h18c1.7,0,3-1.3,3-3v-15C566.7,325.1,565.3,323.8,563.7,323.8z M554.7,337.3c-1.7,0-3-1.3-3-3
		s1.3-3,3-3s3,1.3,3,3C557.7,335.9,556.3,337.3,554.7,337.3z M559.3,323.8H550v-3c0-2.6,2.1-4.7,4.6-4.7c2.6,0,4.7,2.1,4.7,4.6l0,0
		V323.8z"/>
	<path id="Icon_material-lock-8" class="st3" d="M532.7,454.8h-1.5v-3c0-4.1-3.4-7.5-7.5-7.5s-7.5,3.4-7.5,7.5v3h-1.5
		c-1.7,0-3,1.3-3,3v15c0,1.7,1.3,3,3,3h18c1.7,0,3-1.3,3-3v-15C535.7,456.1,534.3,454.8,532.7,454.8z M523.7,468.3c-1.7,0-3-1.3-3-3
		s1.3-3,3-3s3,1.3,3,3C526.7,466.9,525.3,468.3,523.7,468.3z M528.3,454.8H519v-3c0-2.6,2.1-4.7,4.6-4.7c2.6,0,4.7,2.1,4.7,4.6l0,0
		V454.8z"/>
	<path id="Icon_material-lock-9" class="st3" d="M665.4,518.9h-1.5v-3c0-4.1-3.4-7.5-7.5-7.5s-7.5,3.4-7.5,7.5v3h-1.5
		c-1.7,0-3,1.3-3,3v15c0,1.7,1.3,3,3,3h18c1.7,0,3-1.3,3-3v-15C668.4,520.2,667.1,518.9,665.4,518.9z M656.4,532.4c-1.7,0-3-1.3-3-3
		s1.3-3,3-3s3,1.3,3,3S658.1,532.4,656.4,532.4z M661.1,518.9h-9.3v-3c0-2.6,2.1-4.7,4.6-4.7c2.6,0,4.7,2.1,4.7,4.6l0,0V518.9z"/>
	<path id="Icon_material-lock-10" class="st3" d="M552.7,685.2h-1.5v-3c0-4.1-3.4-7.5-7.5-7.5s-7.5,3.4-7.5,7.5v3h-1.5
		c-1.7,0-3,1.3-3,3v15c0,1.7,1.3,3,3,3h18c1.7,0,3-1.3,3-3v-15C555.7,686.5,554.3,685.2,552.7,685.2z M543.7,698.6c-1.7,0-3-1.3-3-3
		s1.3-3,3-3s3,1.3,3,3S545.3,698.6,543.7,698.6z M548.3,685.2H539v-3c0-2.6,2.1-4.7,4.6-4.7c2.6,0,4.7,2.1,4.7,4.6l0,0V685.2z"/>
	<path id="Icon_material-lock-11" class="st3" d="M387,779.2h-1.5v-3c0-4.1-3.4-7.5-7.5-7.5s-7.5,3.4-7.5,7.5v3H369
		c-1.7,0-3,1.3-3,3v15c0,1.7,1.3,3,3,3h18c1.7,0,3-1.3,3-3v-15C390,780.5,388.6,779.2,387,779.2z M378,792.6c-1.7,0-3-1.3-3-3
		s1.3-3,3-3s3,1.3,3,3S379.6,792.6,378,792.6z M382.6,779.2h-9.3v-3c0-2.6,2.1-4.7,4.6-4.7s4.7,2.1,4.7,4.6l0,0L382.6,779.2
		L382.6,779.2z"/>
	<path id="Icon_material-lock-12" class="st3" d="M283.4,912.9h-1.5v-3c0-4.1-3.4-7.5-7.5-7.5s-7.5,3.4-7.5,7.5v3h-1.5
		c-1.7,0-3,1.3-3,3v15c0,1.7,1.3,3,3,3h18c1.7,0,3-1.3,3-3v-15C286.4,914.2,285.1,912.9,283.4,912.9z M274.4,926.4c-1.7,0-3-1.3-3-3
		s1.3-3,3-3s3,1.3,3,3S276.1,926.4,274.4,926.4z M279.1,912.9h-9.3v-3c0-2.6,2.1-4.7,4.6-4.7s4.7,2.1,4.7,4.6l0,0L279.1,912.9
		L279.1,912.9z"/>
	<path id="Icon_material-lock-13" class="st3" d="M243.4,1059.9h-1.5v-3c0-4.1-3.4-7.5-7.5-7.5s-7.5,3.4-7.5,7.5v3h-1.5
		c-1.7,0-3,1.3-3,3v15c0,1.7,1.3,3,3,3h18c1.7,0,3-1.3,3-3v-15C246.4,1061.2,245.1,1059.9,243.4,1059.9z M234.4,1073.4
		c-1.7,0-3-1.3-3-3s1.3-3,3-3s3,1.3,3,3S236.1,1073.4,234.4,1073.4z M239.1,1059.9h-9.3v-3c0-2.6,2.1-4.7,4.6-4.7
		c2.6,0,4.7,2.1,4.7,4.6l0,0L239.1,1059.9L239.1,1059.9z"/>
	<path id="Icon_material-lock-22" class="st3" d="M313.9,1220.9h-1.5v-3c0-4.1-3.4-7.5-7.5-7.5s-7.5,3.4-7.5,7.5v3h-1.5
		c-1.7,0-3,1.3-3,3v15c0,1.7,1.3,3,3,3h18c1.7,0,3-1.3,3-3v-15C316.9,1222.2,315.6,1220.9,313.9,1220.9z M304.9,1234.4
		c-1.7,0-3-1.3-3-3s1.3-3,3-3s3,1.3,3,3S306.6,1234.4,304.9,1234.4z M309.6,1220.9h-9.3v-3c0-2.6,2.1-4.7,4.6-4.7
		c2.6,0,4.7,2.1,4.7,4.6l0,0L309.6,1220.9L309.6,1220.9z"/>
	<path id="Icon_material-lock-24" class="st3" d="M-125.6,404.9h-1.5v-3c0-4.1-3.4-7.5-7.5-7.5c-4.1,0-7.5,3.4-7.5,7.5v3h-1.5
		c-1.7,0-3,1.3-3,3v15c0,1.7,1.3,3,3,3h18c1.7,0,3-1.3,3-3v-15C-122.6,406.2-123.9,404.9-125.6,404.9z M-134.6,418.4
		c-1.7,0-3-1.3-3-3s1.3-3,3-3s3,1.3,3,3S-132.9,418.4-134.6,418.4z M-129.9,404.9h-9.3v-3c0-2.6,2.1-4.7,4.6-4.7s4.7,2.1,4.7,4.6
		l0,0C-129.9,401.8-129.9,404.9-129.9,404.9z"/>
	<path id="Icon_material-lock-25" class="st3" d="M-17.6,521.9h-1.5v-3c0-4.1-3.4-7.5-7.5-7.5s-7.5,3.4-7.5,7.5v3h-1.5
		c-1.7,0-3,1.3-3,3v15c0,1.7,1.3,3,3,3h18c1.7,0,3-1.3,3-3v-15C-14.6,523.2-15.9,521.9-17.6,521.9z M-26.6,535.4c-1.7,0-3-1.3-3-3
		s1.3-3,3-3c1.7,0,3,1.3,3,3S-24.9,535.4-26.6,535.4z M-21.9,521.9h-9.3v-3c0-2.6,2.1-4.7,4.6-4.7c2.5,0,4.7,2.1,4.7,4.6l0,0V521.9z
		"/>
	<path id="Icon_material-lock-26" class="st3" d="M125.4,562.9h-1.5v-3c0-4.1-3.4-7.5-7.5-7.5s-7.5,3.4-7.5,7.5v3h-1.5
		c-1.7,0-3,1.3-3,3v15c0,1.7,1.3,3,3,3h18c1.7,0,3-1.3,3-3v-15C128.4,564.2,127.1,562.9,125.4,562.9z M116.4,576.4c-1.7,0-3-1.3-3-3
		s1.3-3,3-3s3,1.3,3,3S118.1,576.4,116.4,576.4z M121.1,562.9h-9.3v-3c0-2.6,2.1-4.7,4.6-4.7c2.6,0,4.7,2.1,4.7,4.6l0,0V562.9z"/>
	<path id="Icon_material-lock-27" class="st3" d="M98.4,404.9h-1.5v-3c0-4.1-3.4-7.5-7.5-7.5s-7.5,3.4-7.5,7.5v3h-1.5
		c-1.7,0-3,1.3-3,3v15c0,1.7,1.3,3,3,3h18c1.7,0,3-1.3,3-3v-15C101.4,406.2,100.1,404.9,98.4,404.9z M89.4,418.4c-1.7,0-3-1.3-3-3
		s1.3-3,3-3s3,1.3,3,3S91.1,418.4,89.4,418.4z M94.1,404.9h-9.3v-3c0-2.6,2.1-4.7,4.6-4.7c2.6,0,4.7,2.1,4.7,4.6l0,0V404.9z"/>
</g>
<g id="Grupo_2294" transform="translate(-247.135 -223.001)">
	<path id="Icon_metro-bubble" class="st13" d="M611.6,515.6c-30,0-54.3-13.8-54.3-30.8s24.3-30.8,54.3-30.8c2.9,0,5.7,0.1,8.5,0.4
		c11.7-8.1,25.6-9.6,39-9.8v2c-7.3,2.5-13.6,7-13.6,12.2c0,0.7,0.1,1.4,0.2,2.1c12.3,5.6,20.1,14.3,20.1,23.9
		C665.9,501.9,641.6,515.6,611.6,515.6z"/>
	<g class="st11">
		<path class="st1" d="M575.6,473.4l0.9-1.3c0.6,0.7,1.7,1.3,3,1.3s1.9-0.7,1.9-1.3c0-2-5.4-0.7-5.4-4.2c0-1.6,1.3-2.7,3.4-2.7
			c1.4,0,2.6,0.5,3.5,1.3l-0.9,1.2c-0.7-0.7-1.7-1.1-2.7-1.1s-1.6,0.5-1.6,1.2c0,1.8,5.4,0.7,5.4,4.1c0,1.6-1.1,2.9-3.6,2.9
			C577.7,474.9,576.5,474.3,575.6,473.4z"/>
		<path class="st1" d="M584.6,473.2v-3.9h-1.1V468h1.1v-1.8h1.5v1.8h1.4v1.3h-1.4v3.5c0,0.5,0.2,0.8,0.6,0.8c0.3,0,0.5-0.1,0.6-0.3
			l0.4,1.1c-0.3,0.2-0.7,0.4-1.4,0.4C585.2,474.9,584.6,474.3,584.6,473.2z"/>
		<path class="st1" d="M592.9,474.8v-0.7c-0.5,0.6-1.3,0.9-2.2,0.9c-1.1,0-2.3-0.8-2.3-2.2c0-1.6,1.2-2.2,2.3-2.2
			c0.9,0,1.7,0.3,2.2,0.9v-1c0-0.8-0.7-1.3-1.6-1.3c-0.8,0-1.4,0.3-2,0.9l-0.6-1c0.8-0.8,1.8-1.1,2.8-1.1c1.5,0,2.8,0.6,2.8,2.4v4.5
			L592.9,474.8L592.9,474.8z M592.9,473.2v-1c-0.4-0.5-1-0.7-1.6-0.7c-0.8,0-1.5,0.5-1.5,1.2c0,0.7,0.6,1.2,1.5,1.2
			C591.9,473.9,592.6,473.7,592.9,473.2z"/>
		<path class="st1" d="M596.3,474.8V468h1.5v1c0.5-0.6,1.3-1.1,2.2-1.1v1.5c-0.1,0-0.3,0-0.4,0c-0.6,0-1.5,0.4-1.8,0.9v4.6h-1.5
			V474.8z"/>
		<path class="st1" d="M601.4,473.2v-3.9h-1.1V468h1.1v-1.8h1.5v1.8h1.4v1.3h-1.4v3.5c0,0.5,0.2,0.8,0.6,0.8c0.3,0,0.5-0.1,0.6-0.3
			l0.4,1.1c-0.3,0.2-0.7,0.4-1.4,0.4C602,474.9,601.4,474.3,601.4,473.2z"/>
		<path class="st1" d="M613.8,474.8v-4.3c0-1.1-0.5-1.4-1.4-1.4c-0.8,0-1.4,0.4-1.7,0.9v4.7h-1.5v-9.3h1.5v3.5
			c0.4-0.5,1.3-1.1,2.4-1.1c1.5,0,2.2,0.8,2.2,2.1v4.8h-1.5V474.8z"/>
		<path class="st1" d="M616.8,471.4c0-2,1.4-3.5,3.4-3.5s3.3,1.5,3.3,3.7v0.4h-5.2c0.1,1,0.9,1.9,2.1,1.9c0.7,0,1.4-0.3,1.9-0.8
			l0.7,1c-0.7,0.6-1.7,1-2.7,1C618.3,474.9,616.8,473.5,616.8,471.4z M620.2,469c-1.2,0-1.8,1-1.9,1.8h3.8
			C622.1,470,621.5,469,620.2,469z"/>
		<path class="st1" d="M625,474.8V468h1.5v1c0.5-0.6,1.3-1.1,2.2-1.1v1.5c-0.1,0-0.3,0-0.4,0c-0.6,0-1.5,0.4-1.8,0.9v4.6H625V474.8z
			"/>
		<path class="st1" d="M629.4,471.4c0-2,1.4-3.5,3.4-3.5s3.3,1.5,3.3,3.7v0.4h-5.2c0.1,1,0.9,1.9,2.1,1.9c0.7,0,1.4-0.3,1.9-0.8
			l0.7,1c-0.7,0.6-1.7,1-2.7,1C630.9,474.9,629.4,473.5,629.4,471.4z M632.8,469c-1.2,0-1.8,1-1.9,1.8h3.8
			C634.7,470,634.2,469,632.8,469z"/>
		<path class="st1" d="M641.1,466.2c0-0.5,0.4-0.9,0.9-0.9s0.9,0.4,0.9,0.9s-0.4,0.9-0.9,0.9C641.5,467.2,641.1,466.8,641.1,466.2z
			 M641.2,474.8V468h1.5v6.8H641.2z"/>
		<path class="st1" d="M645,474.8v-5.5h-1.1V468h1.1v-0.4c0-1.5,0.9-2.3,2.1-2.3c0.6,0,1.2,0.2,1.6,0.6l-0.6,0.9
			c-0.2-0.2-0.4-0.3-0.8-0.3c-0.6,0-0.9,0.4-0.9,1.1v0.4h1.4v1.3h-1.4v5.5H645z"/>
	</g>
	<g class="st11">
		<path class="st1" d="M565.2,489.1c0.2,0.1,0.4,0.1,0.6,0.1c0.5,0,0.8-0.1,1-0.6l0.3-0.8l-2.8-6.8h1.6l2,5.1l2-5.1h1.6l-3.3,8
			c-0.5,1.1-1.3,1.5-2.3,1.5c-0.2,0-0.6,0-0.8-0.1L565.2,489.1z"/>
		<path class="st1" d="M571.9,484.4c0-1.9,1.3-3.5,3.5-3.5s3.5,1.6,3.5,3.5s-1.3,3.6-3.5,3.6S571.9,486.3,571.9,484.4z M577.3,484.4
			c0-1.2-0.7-2.2-1.9-2.2s-1.9,1.1-1.9,2.2c0,1.2,0.7,2.3,1.9,2.3C576.6,486.6,577.3,485.6,577.3,484.4z"/>
		<path class="st1" d="M584.9,487.8v-0.9c-0.5,0.5-1.3,1.1-2.4,1.1c-1.5,0-2.2-0.8-2.2-2.1v-4.8h1.5v4.2c0,1.1,0.5,1.4,1.4,1.4
			c0.7,0,1.4-0.4,1.7-0.9v-4.7h1.5v6.8h-1.5V487.8z"/>
		<path class="st1" d="M596.4,487.8v-4.3c0-1.1-0.5-1.4-1.4-1.4c-0.8,0-1.4,0.4-1.7,0.9v4.7h-1.5v-9.3h1.5v3.5
			c0.4-0.5,1.3-1.1,2.4-1.1c1.5,0,2.2,0.8,2.2,2.1v4.8L596.4,487.8L596.4,487.8z"/>
		<path class="st1" d="M604,487.8v-0.7c-0.5,0.6-1.3,0.9-2.2,0.9c-1.1,0-2.3-0.8-2.3-2.2c0-1.6,1.2-2.2,2.3-2.2
			c0.9,0,1.7,0.3,2.2,0.9v-1c0-0.8-0.7-1.3-1.6-1.3c-0.8,0-1.4,0.3-2,0.9l-0.6-1c0.8-0.8,1.8-1.1,2.8-1.1c1.5,0,2.8,0.6,2.8,2.4v4.5
			L604,487.8L604,487.8z M604,486.2v-1c-0.4-0.5-1-0.7-1.6-0.7c-0.8,0-1.5,0.5-1.5,1.2s0.6,1.2,1.5,1.2
			C603,486.9,603.6,486.7,604,486.2z"/>
		<path class="st1" d="M609.1,487.8l-2.8-6.8h1.6l2,5.1l2-5.1h1.6l-2.8,6.8H609.1z"/>
		<path class="st1" d="M614,484.4c0-2,1.4-3.5,3.4-3.5s3.3,1.5,3.3,3.7v0.4h-5.2c0.1,1,0.9,1.9,2.1,1.9c0.7,0,1.4-0.3,1.9-0.8l0.7,1
			c-0.7,0.6-1.7,1-2.7,1C615.5,487.9,614,486.5,614,484.4z M617.4,482c-1.2,0-1.8,1-1.9,1.8h3.8C619.3,483,618.7,482,617.4,482z"/>
		<path class="st1" d="M625.2,486.9l0.7-1.1c0.5,0.5,1.4,0.9,2.3,0.9c0.9,0,1.3-0.4,1.3-0.9c0-1.3-4.1-0.4-4.1-3c0-1.1,1-2,2.7-2
			c1.1,0,2,0.4,2.6,0.9l-0.6,1c-0.4-0.4-1.1-0.8-2-0.8c-0.8,0-1.2,0.4-1.2,0.8c0,1.2,4.1,0.3,4.1,3c0,1.2-1,2.1-2.8,2.1
			C626.9,487.9,625.9,487.5,625.2,486.9z"/>
		<path class="st1" d="M632,484.4c0-1.9,1.3-3.5,3.5-3.5s3.5,1.6,3.5,3.5s-1.3,3.6-3.5,3.6C633.3,487.9,632,486.3,632,484.4z
			 M637.4,484.4c0-1.2-0.7-2.2-1.9-2.2c-1.2,0-1.9,1.1-1.9,2.2c0,1.2,0.7,2.3,1.9,2.3C636.7,486.6,637.4,485.6,637.4,484.4z"/>
		<path class="st1" d="M648.7,487.8v-4.4c0-0.7-0.3-1.2-1.1-1.2c-0.7,0-1.3,0.4-1.6,0.9v4.7h-1.5v-4.4c0-0.7-0.3-1.2-1.1-1.2
			c-0.7,0-1.3,0.5-1.6,0.9v4.7h-1.5V481h1.5v0.9c0.3-0.4,1.2-1.1,2.2-1.1s1.6,0.5,1.8,1.2c0.4-0.6,1.3-1.2,2.3-1.2
			c1.2,0,1.9,0.7,1.9,2v4.9h-1.3V487.8z"/>
		<path class="st1" d="M651.7,484.4c0-2,1.4-3.5,3.4-3.5s3.3,1.5,3.3,3.7v0.4h-5.2c0.1,1,0.9,1.9,2.1,1.9c0.7,0,1.4-0.3,1.9-0.8
			l0.7,1c-0.7,0.6-1.7,1-2.7,1C653.2,487.9,651.7,486.5,651.7,484.4z M655.1,482c-1.2,0-1.8,1-1.9,1.8h3.8
			C657,483,656.4,482,655.1,482z"/>
	</g>
	<g class="st11">
		<path class="st1" d="M577.4,497.4c0-2,1.4-3.5,3.4-3.5s3.3,1.5,3.3,3.7v0.4h-5.2c0.1,1,0.9,1.9,2.1,1.9c0.7,0,1.4-0.3,1.9-0.8
			l0.7,1c-0.7,0.6-1.7,1-2.7,1C578.9,500.9,577.4,499.5,577.4,497.4z M580.9,495c-1.2,0-1.8,1-1.9,1.8h3.8
			C582.7,496,582.2,495,580.9,495z"/>
		<path class="st1" d="M589.9,500.8l-1.8-2.5l-1.8,2.5h-1.7l2.5-3.5l-2.3-3.3h1.7l1.6,2.3l1.6-2.3h1.7l-2.3,3.3l2.5,3.5H589.9z"/>
		<path class="st1" d="M594.1,499.8v3.5h-1.5V494h1.5v0.9c0.5-0.7,1.3-1.1,2.2-1.1c1.8,0,3,1.3,3,3.5s-1.2,3.6-3,3.6
			C595.4,500.9,594.6,500.5,594.1,499.8z M597.7,497.4c0-1.3-0.8-2.2-1.9-2.2c-0.7,0-1.4,0.4-1.7,0.9v2.7c0.3,0.5,1.1,0.9,1.7,0.9
			C597,499.6,597.7,498.7,597.7,497.4z"/>
		<path class="st1" d="M600.3,497.4c0-2,1.4-3.5,3.4-3.5s3.3,1.5,3.3,3.7v0.4h-5.2c0.1,1,0.9,1.9,2.1,1.9c0.7,0,1.4-0.3,1.9-0.8
			l0.7,1c-0.7,0.6-1.7,1-2.7,1C601.8,500.9,600.3,499.5,600.3,497.4z M603.7,495c-1.2,0-1.8,1-1.9,1.8h3.8
			C605.6,496,605.1,495,603.7,495z"/>
		<path class="st1" d="M608.5,500.8V494h1.5v1c0.5-0.6,1.3-1.1,2.2-1.1v1.5c-0.1,0-0.3,0-0.4,0c-0.6,0-1.5,0.4-1.8,0.9v4.6h-1.5
			V500.8z"/>
		<path class="st1" d="M613.2,492.2c0-0.5,0.4-0.9,0.9-0.9s0.9,0.4,0.9,0.9s-0.4,0.9-0.9,0.9C613.6,493.2,613.2,492.8,613.2,492.2z
			 M613.4,500.8V494h1.5v6.8H613.4z"/>
		<path class="st1" d="M616.3,497.4c0-2,1.4-3.5,3.4-3.5s3.3,1.5,3.3,3.7v0.4h-5.2c0.1,1,0.9,1.9,2.1,1.9c0.7,0,1.4-0.3,1.9-0.8
			l0.7,1c-0.7,0.6-1.7,1-2.7,1C617.8,500.9,616.3,499.5,616.3,497.4z M619.8,495c-1.2,0-1.8,1-1.9,1.8h3.8
			C621.6,496,621.1,495,619.8,495z"/>
		<path class="st1" d="M629.1,500.8v-4.2c0-1.1-0.5-1.4-1.4-1.4c-0.7,0-1.4,0.4-1.7,0.9v4.7h-1.5V494h1.5v0.9
			c0.4-0.5,1.3-1.1,2.4-1.1c1.5,0,2.2,0.8,2.2,2.2v4.8H629.1z"/>
		<path class="st1" d="M632.1,497.4c0-2,1.4-3.5,3.5-3.5c1.3,0,2.1,0.6,2.6,1.2l-1,0.9c-0.4-0.5-0.9-0.8-1.6-0.8c-1.2,0-2,0.9-2,2.2
			c0,1.3,0.8,2.3,2,2.3c0.7,0,1.2-0.3,1.6-0.8l1,0.9c-0.5,0.6-1.3,1.2-2.6,1.2C633.5,500.9,632.1,499.4,632.1,497.4z"/>
		<path class="st1" d="M639.1,497.4c0-2,1.4-3.5,3.4-3.5s3.3,1.5,3.3,3.7v0.4h-5.2c0.1,1,0.9,1.9,2.1,1.9c0.7,0,1.4-0.3,1.9-0.8
			l0.7,1c-0.7,0.6-1.7,1-2.7,1C640.6,500.9,639.1,499.5,639.1,497.4z M642.5,495c-1.2,0-1.8,1-1.9,1.8h3.8
			C644.4,496,643.8,495,642.5,495z"/>
	</g>
</g>
<g id="Grupo_2293" transform="translate(-449.848 11.999)">
	<path id="Icon_metro-bubble_1_" class="st13" d="M1012.1-0.8c24.6,0,44.6,16.2,44.6,36.2s-20,36.2-44.6,36.2
		c-2.3,0-4.6-0.1-6.9-0.4c-9.6,9.6-21,11.3-32,11.5v-2.3c6-2.9,11.1-8.2,11.1-14.3c0-0.8-0.1-1.7-0.2-2.5
		C974,57,967.6,46.8,967.6,35.5C967.5,15.4,987.5-0.8,1012.1-0.8L1012.1-0.8z"/>
	<g class="st11">
		<path class="st1" d="M981.5,15.6c0-2.9,2.1-4.8,4.9-4.8c1.9,0,3.1,1,3.7,2.1l-1.4,0.7c-0.4-0.8-1.4-1.4-2.4-1.4
			c-1.8,0-3.2,1.4-3.2,3.4c0,1.9,1.4,3.4,3.2,3.4c1,0,1.9-0.6,2.4-1.4l1.4,0.7c-0.7,1.1-1.9,2.1-3.8,2.1
			C983.6,20.4,981.5,18.5,981.5,15.6z"/>
		<path class="st1" d="M991,16.9c0-1.9,1.3-3.5,3.5-3.5s3.5,1.6,3.5,3.5s-1.3,3.6-3.5,3.6S991,18.8,991,16.9z M996.4,16.9
			c0-1.2-0.7-2.2-1.9-2.2s-1.9,1.1-1.9,2.2c0,1.2,0.7,2.3,1.9,2.3C995.7,19.1,996.4,18.1,996.4,16.9z"/>
		<path class="st1" d="M1007.7,20.3v-4.5c0-0.7-0.3-1.2-1.1-1.2c-0.7,0-1.3,0.4-1.6,0.9v4.7h-1.5v-4.4c0-0.7-0.3-1.2-1.1-1.2
			c-0.7,0-1.3,0.5-1.6,0.9v4.7h-1.5v-6.7h1.5v0.9c0.3-0.4,1.2-1.1,2.2-1.1s1.6,0.5,1.8,1.2c0.4-0.6,1.3-1.2,2.3-1.2
			c1.2,0,1.9,0.7,1.9,2v4.9h-1.3V20.3z"/>
		<path class="st1" d="M1012.6,19.3v3.5h-1.5v-9.3h1.5v0.9c0.5-0.7,1.3-1.1,2.2-1.1c1.8,0,3,1.3,3,3.5s-1.2,3.6-3,3.6
			C1013.9,20.4,1013.1,20,1012.6,19.3z M1016.2,16.9c0-1.3-0.8-2.2-1.9-2.2c-0.7,0-1.4,0.4-1.7,0.9v2.6c0.3,0.5,1.1,0.9,1.7,0.9
			C1015.5,19.1,1016.2,18.2,1016.2,16.9z"/>
		<path class="st1" d="M1019.2,20.3V11h1.5v9.3H1019.2z"/>
		<path class="st1" d="M1022.2,16.9c0-2,1.4-3.5,3.4-3.5s3.3,1.5,3.3,3.7v0.4h-5.2c0.1,1,0.9,1.9,2.1,1.9c0.7,0,1.4-0.3,1.9-0.8
			l0.7,1c-0.7,0.6-1.7,1-2.7,1C1023.7,20.4,1022.2,19,1022.2,16.9z M1025.6,14.5c-1.2,0-1.8,1-1.9,1.8h3.8
			C1027.5,15.5,1026.9,14.5,1025.6,14.5z"/>
		<path class="st1" d="M1030.7,18.7v-3.9h-1.1v-1.3h1.1v-1.9h1.5v1.8h1.4v1.3h-1.4v3.5c0,0.5,0.2,0.8,0.6,0.8c0.3,0,0.5-0.1,0.6-0.3
			l0.4,1.1c-0.3,0.2-0.7,0.4-1.4,0.4C1031.3,20.4,1030.7,19.8,1030.7,18.7z"/>
		<path class="st1" d="M1034.5,16.9c0-2,1.4-3.5,3.4-3.5s3.3,1.5,3.3,3.7v0.4h-5.2c0.1,1,0.9,1.9,2.1,1.9c0.7,0,1.4-0.3,1.9-0.8
			l0.7,1c-0.7,0.6-1.7,1-2.7,1C1036,20.4,1034.5,19,1034.5,16.9z M1037.9,14.5c-1.2,0-1.8,1-1.9,1.8h3.8
			C1039.7,15.5,1039.2,14.5,1037.9,14.5z"/>
	</g>
	<g class="st11">
		<path class="st1" d="M981,33.3V24h1.5v3.5c0.5-0.7,1.3-1.1,2.2-1.1c1.8,0,3,1.4,3,3.5c0,2.2-1.3,3.6-3,3.6c-0.9,0-1.7-0.4-2.2-1.1
			v0.9C982.5,33.3,981,33.3,981,33.3z M984.2,32.1c1.2,0,1.9-0.9,1.9-2.3c0-1.3-0.7-2.2-1.9-2.2c-0.7,0-1.4,0.4-1.8,0.9v2.7
			C982.8,31.7,983.5,32.1,984.2,32.1z"/>
		<path class="st1" d="M988.7,29.9c0-2,1.4-3.5,3.4-3.5s3.3,1.5,3.3,3.7v0.4h-5.2c0.1,1,0.9,1.9,2.1,1.9c0.7,0,1.4-0.3,1.9-0.8
			l0.7,1c-0.7,0.6-1.7,1-2.7,1C990.2,33.4,988.7,32,988.7,29.9z M992.1,27.5c-1.2,0-1.8,1-1.9,1.8h3.8
			C994,28.5,993.4,27.5,992.1,27.5z"/>
		<path class="st1" d="M996.8,35l0.7-1.1c0.6,0.6,1.3,0.9,2.2,0.9c1,0,2-0.4,2-1.9v-0.8c-0.5,0.7-1.3,1.1-2.2,1.1
			c-1.7,0-3-1.2-3-3.5c0-2.2,1.2-3.5,3-3.5c0.9,0,1.6,0.4,2.2,1.1v-0.9h1.5v6.4c0,2.4-1.8,3.1-3.5,3.1C998.5,36,997.6,35.7,996.8,35
			z M1001.6,31.1v-2.5c-0.3-0.5-1.1-0.9-1.7-0.9c-1.2,0-1.9,0.9-1.9,2.2s0.7,2.2,1.9,2.2C1000.6,31.9,1001.3,31.5,1001.6,31.1z"/>
		<path class="st1" d="M1004.8,24.7c0-0.5,0.4-0.9,0.9-0.9s0.9,0.4,0.9,0.9s-0.4,0.9-0.9,0.9S1004.8,25.3,1004.8,24.7z M1005,33.3
			v-6.8h1.5v6.8H1005z"/>
		<path class="st1" d="M1013,33.3v-4.2c0-1.1-0.5-1.4-1.4-1.4c-0.7,0-1.4,0.4-1.7,0.9v4.7h-1.5v-6.8h1.5v0.9
			c0.4-0.5,1.3-1.1,2.4-1.1c1.5,0,2.2,0.8,2.2,2.2v4.8C1014.5,33.3,1013,33.3,1013,33.3z"/>
		<path class="st1" d="M1020.9,33.3v-4.2c0-1.1-0.5-1.4-1.4-1.4c-0.7,0-1.4,0.4-1.7,0.9v4.7h-1.5v-6.8h1.5v0.9
			c0.4-0.5,1.3-1.1,2.4-1.1c1.5,0,2.2,0.8,2.2,2.2v4.8C1022.4,33.3,1020.9,33.3,1020.9,33.3z"/>
		<path class="st1" d="M1023.9,29.9c0-2,1.4-3.5,3.4-3.5s3.3,1.5,3.3,3.7v0.4h-5.2c0.1,1,0.9,1.9,2.1,1.9c0.7,0,1.4-0.3,1.9-0.8
			l0.7,1c-0.7,0.6-1.7,1-2.7,1C1025.4,33.4,1023.9,32,1023.9,29.9z M1027.3,27.5c-1.2,0-1.8,1-1.9,1.8h3.8
			C1029.2,28.5,1028.6,27.5,1027.3,27.5z"/>
		<path class="st1" d="M1032.1,33.3v-6.8h1.5v1c0.5-0.6,1.3-1.1,2.2-1.1v1.5c-0.1,0-0.3,0-0.4,0c-0.6,0-1.5,0.4-1.8,0.9v4.6
			L1032.1,33.3L1032.1,33.3z"/>
		<path class="st1" d="M1036.4,32.4l0.7-1.1c0.5,0.5,1.4,0.9,2.3,0.9s1.3-0.4,1.3-0.9c0-1.3-4.1-0.4-4.1-3c0-1.1,1-2,2.7-2
			c1.1,0,2,0.4,2.6,0.9l-0.6,1c-0.4-0.4-1.1-0.8-2-0.8c-0.8,0-1.2,0.4-1.2,0.8c0,1.2,4.1,0.3,4.1,3c0,1.2-1,2.1-2.8,2.1
			C1038.1,33.4,1037.1,33,1036.4,32.4z"/>
	</g>
	<g class="st11">
		<path class="st1" d="M974.9,45.4l0.7-1.1c0.5,0.5,1.4,0.9,2.3,0.9c0.9,0,1.3-0.4,1.3-0.9c0-1.3-4.1-0.4-4.1-3c0-1.1,1-2,2.7-2
			c1.1,0,2,0.4,2.6,0.9l-0.6,1c-0.4-0.4-1.1-0.8-2-0.8c-0.8,0-1.2,0.4-1.2,0.8c0,1.2,4.1,0.3,4.1,3c0,1.2-1,2.1-2.8,2.1
			C976.6,46.4,975.6,46,974.9,45.4z"/>
		<path class="st1" d="M986.7,46.3V42c0-1.1-0.5-1.4-1.4-1.4c-0.8,0-1.4,0.4-1.7,0.9v4.7h-1.5v-9.3h1.5v3.5c0.4-0.5,1.3-1.1,2.4-1.1
			c1.5,0,2.2,0.8,2.2,2.1v4.8L986.7,46.3L986.7,46.3z"/>
		<path class="st1" d="M989.6,42.9c0-1.9,1.3-3.5,3.5-3.5s3.5,1.6,3.5,3.5s-1.3,3.6-3.5,3.6S989.6,44.8,989.6,42.9z M995,42.9
			c0-1.2-0.7-2.2-1.9-2.2s-1.9,1.1-1.9,2.2c0,1.2,0.7,2.3,1.9,2.3C994.4,45.1,995,44.1,995,42.9z"/>
		<path class="st1" d="M1002.6,46.3v-0.9c-0.5,0.5-1.3,1.1-2.4,1.1c-1.5,0-2.2-0.8-2.2-2.1v-4.8h1.5v4.2c0,1.1,0.5,1.4,1.4,1.4
			c0.7,0,1.4-0.4,1.7-0.9v-4.7h1.5v6.8L1002.6,46.3L1002.6,46.3z"/>
		<path class="st1" d="M1006,46.3V37h1.5v9.3H1006z"/>
		<path class="st1" d="M1014.1,46.3v-0.9c-0.5,0.7-1.3,1.1-2.2,1.1c-1.7,0-3-1.3-3-3.6c0-2.2,1.3-3.5,3-3.5c0.9,0,1.6,0.4,2.2,1.1
			V37h1.5v9.3C1015.6,46.3,1014.1,46.3,1014.1,46.3z M1014.1,44.2v-2.7c-0.3-0.5-1.1-0.9-1.7-0.9c-1.2,0-1.9,0.9-1.9,2.2
			c0,1.3,0.7,2.3,1.9,2.3C1013.1,45.1,1013.8,44.7,1014.1,44.2z"/>
		<path class="st1" d="M1020.5,45.4l0.7-1.1c0.5,0.5,1.4,0.9,2.3,0.9s1.3-0.4,1.3-0.9c0-1.3-4.1-0.4-4.1-3c0-1.1,1-2,2.7-2
			c1.1,0,2,0.4,2.6,0.9l-0.6,1c-0.4-0.4-1.1-0.8-2-0.8c-0.8,0-1.2,0.4-1.2,0.8c0,1.2,4.1,0.3,4.1,3c0,1.2-1,2.1-2.8,2.1
			C1022.3,46.4,1021.2,46,1020.5,45.4z"/>
		<path class="st1" d="M1028,44.7v-3.9h-1.1v-1.3h1.1v-1.8h1.5v1.8h1.4v1.3h-1.4v3.5c0,0.5,0.2,0.8,0.6,0.8c0.3,0,0.5-0.1,0.6-0.3
			l0.4,1.1c-0.3,0.2-0.7,0.4-1.4,0.4C1028.6,46.4,1028,45.8,1028,44.7z"/>
		<path class="st1" d="M1036.3,46.3v-0.7c-0.5,0.6-1.3,0.9-2.2,0.9c-1.1,0-2.3-0.8-2.3-2.2c0-1.6,1.2-2.2,2.3-2.2
			c0.9,0,1.7,0.3,2.2,0.9v-1c0-0.8-0.7-1.3-1.6-1.3c-0.8,0-1.4,0.3-2,0.9l-0.6-1c0.8-0.8,1.8-1.1,2.8-1.1c1.5,0,2.8,0.6,2.8,2.4v4.5
			L1036.3,46.3L1036.3,46.3z M1036.3,44.7v-1c-0.4-0.5-1-0.7-1.6-0.7c-0.8,0-1.5,0.5-1.5,1.2s0.6,1.2,1.5,1.2
			C1035.4,45.4,1036,45.2,1036.3,44.7z"/>
		<path class="st1" d="M1039.7,46.3v-6.8h1.5v1c0.5-0.6,1.3-1.1,2.2-1.1v1.5c-0.1,0-0.3,0-0.4,0c-0.6,0-1.5,0.4-1.8,0.9v4.6
			L1039.7,46.3L1039.7,46.3z"/>
		<path class="st1" d="M1044.9,44.7v-3.9h-1.1v-1.3h1.1v-1.8h1.5v1.8h1.4v1.3h-1.4v3.5c0,0.5,0.2,0.8,0.6,0.8c0.3,0,0.5-0.1,0.6-0.3
			l0.4,1.1c-0.3,0.2-0.7,0.4-1.4,0.4C1045.5,46.4,1044.9,45.8,1044.9,44.7z"/>
	</g>
	<g class="st11">
		<path class="st1" d="M1002.6,59.3V55c0-1.1-0.5-1.4-1.4-1.4c-0.8,0-1.4,0.4-1.7,0.9v4.7H998v-9.3h1.5v3.5c0.4-0.5,1.3-1.1,2.4-1.1
			c1.5,0,2.2,0.8,2.2,2.1v4.8L1002.6,59.3L1002.6,59.3z"/>
		<path class="st1" d="M1005.6,55.9c0-2,1.4-3.5,3.4-3.5s3.3,1.5,3.3,3.7v0.4h-5.2c0.1,1,0.9,1.9,2.1,1.9c0.7,0,1.4-0.3,1.9-0.8
			l0.7,1c-0.7,0.6-1.7,1-2.7,1C1007.1,59.4,1005.6,58,1005.6,55.9z M1009,53.5c-1.2,0-1.8,1-1.9,1.8h3.8
			C1010.9,54.5,1010.3,53.5,1009,53.5z"/>
		<path class="st1" d="M1013.8,59.3v-6.8h1.5v1c0.5-0.6,1.3-1.1,2.2-1.1v1.5c-0.1,0-0.3,0-0.4,0c-0.6,0-1.5,0.4-1.8,0.9v4.6h-1.5
			V59.3z"/>
		<path class="st1" d="M1018.3,55.9c0-2,1.4-3.5,3.4-3.5s3.3,1.5,3.3,3.7v0.4h-5.2c0.1,1,0.9,1.9,2.1,1.9c0.7,0,1.4-0.3,1.9-0.8
			l0.7,1c-0.7,0.6-1.7,1-2.7,1C1019.8,59.4,1018.3,58,1018.3,55.9z M1021.7,53.5c-1.2,0-1.8,1-1.9,1.8h3.8
			C1023.5,54.5,1023,53.5,1021.7,53.5z"/>
	</g>
</g>
</svg>
