<?xml version="1.0" encoding="utf-8"?>
<!-- Generator: Adobe Illustrator 25.0.1, SVG Export Plug-In . SVG Version: 6.00 Build 0)  -->
<svg version="1.1" id="Camada_1" xmlns="http://www.w3.org/2000/svg" xmlns:xlink="http://www.w3.org/1999/xlink" x="0px" y="0px"
	 viewBox="0 0 165.8 823.6" style="enable-background:new 0 0 165.8 823.6;" xml:space="preserve">
<style type="text/css">
	.st0{fill:#F86464;}
	.st1{enable-background:new    ;}
	.st2{fill:#FFFFFF;}
	.st3{opacity:0.21;fill:none;stroke:#F86464;stroke-width:19;stroke-linecap:round;enable-background:new    ;}
	.st4{fill:#BFBFBF;}
	.st5{fill:none;stroke:#BFBFBF;stroke-width:7;}
	.st6{fill:#767676;}
	.st7{fill:none;stroke:#F86464;stroke-width:7.5;stroke-linecap:round;}
	.st8{fill:#E6E6E6;}
	.st9{opacity:0.84;fill:#FFFFFF;enable-background:new    ;}
	.st10{fill:#1B1C1D;}
</style>
<g id="Grupo_2460" transform="translate(9 -146)">
	<path id="Retângulo_1004" class="st0" d="M13,146h90c8.3,0,15,6.7,15,15v20c0,8.3-6.7,15-15,15H13c-8.3,0-15-6.7-15-15v-20
		C-2,152.7,4.7,146,13,146z"/>
	<g class="st1">
		<path class="st2" d="M52.3,157c0.2,0.2,0.3,0.4,0.3,0.7v9.5c0,0.3-0.1,0.5-0.3,0.7s-0.4,0.3-0.7,0.3s-0.5-0.1-0.7-0.3
			s-0.2-0.4-0.2-0.7v-6.6l-2.7,5.2c-0.1,0.2-0.3,0.4-0.4,0.5c-0.1,0.1-0.3,0.2-0.5,0.2s-0.4-0.1-0.5-0.2c-0.1-0.1-0.3-0.3-0.4-0.5
			l-2.7-5.1v6.5c0,0.3-0.1,0.5-0.2,0.7c-0.2,0.2-0.4,0.3-0.7,0.3s-0.5-0.1-0.7-0.3s-0.2-0.4-0.2-0.7v-9.5c0-0.3,0.1-0.6,0.3-0.7
			c0.2-0.2,0.4-0.3,0.7-0.3c0.4,0,0.7,0.2,1,0.7l3.6,6.8l3.5-6.8c0.2-0.5,0.5-0.7,0.9-0.7C51.9,156.8,52.1,156.9,52.3,157z"/>
		<path class="st2" d="M60.7,160.9c0.5,0.5,0.8,1.4,0.8,2.5v3.9c0,0.3-0.1,0.5-0.3,0.7c-0.2,0.2-0.4,0.2-0.7,0.2
			c-0.3,0-0.5-0.1-0.7-0.3s-0.3-0.4-0.3-0.7v-0.4c-0.2,0.4-0.5,0.7-0.9,1c-0.4,0.2-0.8,0.4-1.4,0.4c-0.5,0-1-0.1-1.4-0.3
			s-0.8-0.5-1-0.9s-0.4-0.8-0.4-1.2c0-0.6,0.1-1,0.4-1.4c0.3-0.3,0.8-0.6,1.4-0.7c0.7-0.1,1.6-0.2,2.7-0.2h0.4v-0.4
			c0-0.5-0.1-0.9-0.3-1.1c-0.2-0.2-0.6-0.4-1.1-0.4c-0.3,0-0.6,0-0.9,0.1s-0.7,0.2-1.1,0.4c-0.3,0.1-0.5,0.2-0.6,0.2
			c-0.2,0-0.3-0.1-0.5-0.2c-0.1-0.1-0.2-0.3-0.2-0.5s0-0.3,0.1-0.5c0.1-0.1,0.2-0.3,0.5-0.4c0.4-0.2,0.8-0.4,1.3-0.5s1-0.2,1.5-0.2
			C59.3,160.1,60.1,160.4,60.7,160.9z M59,166.3c0.3-0.4,0.5-0.8,0.5-1.4v-0.3h-0.3c-0.7,0-1.3,0-1.7,0.1c-0.4,0.1-0.7,0.2-0.8,0.3
			s-0.3,0.4-0.3,0.7s0.1,0.6,0.4,0.8c0.2,0.2,0.5,0.3,0.9,0.3C58.3,166.8,58.7,166.6,59,166.3z"/>
		<path class="st2" d="M63.6,158.4c-0.2-0.2-0.3-0.5-0.3-0.8s0.1-0.6,0.3-0.8s0.5-0.3,0.9-0.3s0.6,0.1,0.9,0.3
			c0.2,0.2,0.3,0.4,0.3,0.8c0,0.3-0.1,0.6-0.3,0.8s-0.5,0.3-0.9,0.3S63.8,158.6,63.6,158.4z M63.8,168c-0.2-0.2-0.3-0.4-0.3-0.7
			v-6.2c0-0.3,0.1-0.5,0.3-0.7s0.4-0.2,0.7-0.2c0.3,0,0.5,0.1,0.7,0.2s0.3,0.4,0.3,0.7v6.2c0,0.3-0.1,0.5-0.3,0.7
			c-0.2,0.2-0.4,0.2-0.7,0.2C64.2,168.2,64,168.1,63.8,168z"/>
		<path class="st2" d="M74.2,160.9c0.5,0.5,0.7,1.3,0.7,2.4v3.9c0,0.3-0.1,0.5-0.3,0.7c-0.2,0.2-0.4,0.3-0.7,0.3
			c-0.3,0-0.6-0.1-0.7-0.3c-0.2-0.2-0.3-0.4-0.3-0.7v-3.8c0-0.6-0.1-1-0.3-1.3s-0.6-0.4-1.1-0.4c-0.6,0-1,0.2-1.4,0.5
			c-0.3,0.4-0.5,0.8-0.5,1.5v3.6c0,0.3-0.1,0.5-0.3,0.7c-0.2,0.2-0.4,0.3-0.7,0.3c-0.3,0-0.6-0.1-0.7-0.3c-0.2-0.2-0.3-0.4-0.3-0.7
			v-6.2c0-0.3,0.1-0.5,0.3-0.7c0.2-0.2,0.4-0.3,0.7-0.3c0.3,0,0.5,0.1,0.7,0.2c0.2,0.2,0.3,0.4,0.3,0.6v0.4c0.3-0.4,0.6-0.8,1.1-1
			c0.4-0.2,1-0.4,1.5-0.4C73,160.1,73.7,160.4,74.2,160.9z"/>
	</g>
	<g class="st1">
		<path class="st2" d="M29.7,182.4c0-0.3,0.1-0.5,0.2-0.6s0.3-0.2,0.6-0.2H31c0.4,0,0.8-0.2,1-0.4c0.2-0.3,0.3-0.6,0.3-1.2v-7.2
			c0-0.3,0.1-0.6,0.3-0.7c0.2-0.2,0.4-0.3,0.7-0.3s0.6,0.1,0.8,0.3s0.3,0.4,0.3,0.7v7.2c0,2-1,3.1-3,3.2h-0.5
			C30.1,183.2,29.7,183,29.7,182.4z"/>
		<path class="st2" d="M38.1,182.8c-0.6-0.3-1.1-0.8-1.4-1.4c-0.3-0.6-0.5-1.3-0.5-2.2s0.2-1.5,0.5-2.2s0.8-1.1,1.4-1.4
			c0.6-0.3,1.3-0.5,2.1-0.5s1.5,0.2,2.1,0.5s1.1,0.8,1.4,1.4c0.3,0.6,0.5,1.3,0.5,2.2s-0.2,1.5-0.5,2.2c-0.3,0.6-0.8,1.1-1.4,1.4
			c-0.6,0.3-1.3,0.5-2.1,0.5C39.4,183.2,38.7,183.1,38.1,182.8z M41.7,181.1c0.3-0.4,0.5-1.1,0.5-1.9c0-0.8-0.2-1.4-0.5-1.9
			c-0.3-0.4-0.8-0.6-1.5-0.6s-1.1,0.2-1.5,0.6s-0.5,1.1-0.5,1.9c0,0.8,0.2,1.5,0.5,1.9s0.8,0.6,1.5,0.6
			C40.9,181.7,41.3,181.5,41.7,181.1z"/>
		<path class="st2" d="M52.8,175.4c0.2,0.2,0.3,0.4,0.3,0.7v6.2c0,0.3-0.1,0.5-0.3,0.7s-0.4,0.3-0.7,0.3s-0.5-0.1-0.7-0.2
			c-0.2-0.2-0.3-0.4-0.3-0.7V182c-0.2,0.4-0.6,0.8-1,1s-0.9,0.3-1.4,0.3c-1.9,0-2.9-1.1-2.9-3.2v-3.9c0-0.3,0.1-0.5,0.3-0.7
			s0.4-0.3,0.7-0.3s0.6,0.1,0.7,0.3c0.2,0.2,0.3,0.4,0.3,0.7v4c0,0.6,0.1,1,0.3,1.2c0.2,0.3,0.6,0.4,1.1,0.4c0.6,0,1-0.2,1.3-0.6
			c0.3-0.4,0.5-0.9,0.5-1.5v-3.6c0-0.3,0.1-0.5,0.3-0.7s0.4-0.3,0.7-0.3C52.3,175.1,52.6,175.2,52.8,175.4z"/>
		<path class="st2" d="M60.1,175.3c0.2,0.1,0.2,0.3,0.2,0.6s-0.1,0.5-0.2,0.6s-0.4,0.2-0.8,0.3h-0.5c-0.6,0.1-1.1,0.3-1.4,0.6
			s-0.4,0.8-0.4,1.4v3.4c0,0.3-0.1,0.5-0.3,0.7c-0.2,0.2-0.4,0.2-0.7,0.2c-0.3,0-0.5-0.1-0.7-0.2c-0.2-0.2-0.3-0.4-0.3-0.7V176
			c0-0.3,0.1-0.5,0.3-0.7s0.4-0.2,0.7-0.2c0.3,0,0.5,0.1,0.7,0.2c0.2,0.2,0.3,0.4,0.3,0.7v0.6c0.2-0.5,0.5-0.8,0.9-1.1
			s0.8-0.4,1.3-0.4h0.2C59.8,175.1,60,175.2,60.1,175.3z"/>
		<path class="st2" d="M67.9,175.9c0.5,0.5,0.7,1.3,0.7,2.4v3.9c0,0.3-0.1,0.5-0.3,0.7c-0.2,0.2-0.4,0.3-0.7,0.3
			c-0.3,0-0.6-0.1-0.7-0.3c-0.2-0.2-0.3-0.4-0.3-0.7v-3.8c0-0.6-0.1-1-0.3-1.3s-0.6-0.4-1.1-0.4c-0.6,0-1,0.2-1.4,0.5
			c-0.3,0.4-0.5,0.8-0.5,1.5v3.6c0,0.3-0.1,0.5-0.3,0.7c-0.2,0.2-0.4,0.3-0.7,0.3c-0.3,0-0.6-0.1-0.7-0.3c-0.2-0.2-0.3-0.4-0.3-0.7
			v-6.2c0-0.3,0.1-0.5,0.3-0.7c0.2-0.2,0.4-0.3,0.7-0.3c0.3,0,0.5,0.1,0.7,0.2c0.2,0.2,0.3,0.4,0.3,0.6v0.4c0.3-0.4,0.6-0.8,1.1-1
			c0.4-0.2,1-0.4,1.5-0.4C66.7,175.1,67.4,175.4,67.9,175.9z"/>
		<path class="st2" d="M77.2,181.2c0.1,0.1,0.2,0.3,0.2,0.6s-0.2,0.6-0.6,0.8s-0.8,0.4-1.2,0.5c-0.5,0.1-0.9,0.2-1.3,0.2
			c-1.3,0-2.3-0.4-3-1.1c-0.7-0.7-1.1-1.7-1.1-3c0-0.8,0.2-1.5,0.5-2.1s0.8-1.1,1.4-1.4s1.2-0.5,2-0.5c0.7,0,1.3,0.2,1.8,0.5
			s0.9,0.7,1.2,1.3c0.3,0.6,0.4,1.2,0.4,2c0,0.5-0.2,0.7-0.6,0.7h-4.7c0.1,0.7,0.3,1.3,0.6,1.6c0.4,0.3,0.9,0.5,1.5,0.5
			c0.3,0,0.6,0,0.9-0.1s0.6-0.2,0.9-0.4s0.6-0.3,0.7-0.3C77,181,77.1,181,77.2,181.2z M72.7,177c-0.3,0.3-0.5,0.8-0.6,1.5h3.6
			c0-0.7-0.2-1.1-0.5-1.5c-0.3-0.3-0.7-0.5-1.2-0.5S73,176.7,72.7,177z"/>
		<path class="st2" d="M84.8,175.3c0.1-0.1,0.3-0.1,0.5-0.1s0.5,0.1,0.7,0.2c0.2,0.2,0.3,0.4,0.3,0.6c0,0.1,0,0.2-0.1,0.4l-4.4,9.2
			c-0.2,0.4-0.5,0.5-0.8,0.5c-0.2,0-0.5-0.1-0.6-0.2c-0.2-0.2-0.3-0.3-0.3-0.6c0-0.1,0-0.2,0.1-0.4l1.1-2.3l-3-6.2
			c-0.1-0.1-0.1-0.2-0.1-0.4s0.1-0.5,0.3-0.6c0.2-0.2,0.4-0.3,0.7-0.3c0.2,0,0.3,0,0.5,0.1c0.1,0.1,0.3,0.2,0.4,0.4l2.2,4.9l2.2-4.9
			C84.5,175.5,84.6,175.4,84.8,175.3z"/>
	</g>
	<path id="Caminho_7244" class="st3" d="M51.6,196.1c-11.7,69.8,62.4,42.2,67.7,113.7S37.9,376,24,433s72.4,84.4,74.4,143.9
		s-53.3,90.6-50.7,147s90.6,90,86,143s-69.2,74.5-69.2,74.5"/>
	<g id="Book0" transform="translate(67 309.756)">
		<g class="st1">
			<path class="st4" d="M23.4,91.3l-3.6-4.5l-0.9,1.1v3.4H17V80.6h1.9v5.1l4.2-5.1h2.3l-4.3,5l4.7,5.7
				C25.8,91.3,23.4,91.3,23.4,91.3z"/>
			<path class="st4" d="M26.7,81.6c0-0.6,0.5-1,1-1c0.6,0,1,0.5,1,1s-0.5,1-1,1S26.7,82.2,26.7,81.6z M26.9,91.3v-7.7h1.7v7.7H26.9z
				"/>
			<path class="st4" d="M31.1,89.5V85h-1.3v-1.5h1.3v-2.1h1.7v2.1h1.6V85h-1.6v4c0,0.5,0.3,0.9,0.7,0.9c0.3,0,0.6-0.1,0.7-0.3
				l0.4,1.3c-0.3,0.3-0.8,0.5-1.6,0.5C31.8,91.5,31.1,90.8,31.1,89.5z"/>
			<path class="st4" d="M35.4,87.4c0-2.3,1.6-4,4-4c1.5,0,2.4,0.6,3,1.4l-1.1,1c-0.4-0.6-1-0.9-1.8-0.9c-1.4,0-2.3,1.1-2.3,2.6
				s0.9,2.6,2.3,2.6c0.8,0,1.3-0.3,1.8-0.9l1.1,1c-0.5,0.7-1.4,1.4-3,1.4C37,91.5,35.4,89.8,35.4,87.4z"/>
			<path class="st4" d="M49.1,91.3v-4.9c0-1.2-0.6-1.6-1.6-1.6c-0.9,0-1.6,0.5-2,1v5.4h-1.7V80.6h1.7v4c0.5-0.6,1.5-1.2,2.7-1.2
				c1.7,0,2.5,0.9,2.5,2.4v5.5H49.1z"/>
			<path class="st4" d="M52.5,87.4c0-2.2,1.6-4,3.9-4s3.8,1.8,3.8,4.2V88h-6c0.1,1.2,1,2.1,2.4,2.1c0.8,0,1.6-0.3,2.2-0.9l0.8,1.1
				c-0.8,0.7-1.9,1.1-3.1,1.1C54.2,91.5,52.5,89.9,52.5,87.4z M56.4,84.8c-1.4,0-2.1,1.1-2.2,2h4.4C58.5,85.9,57.9,84.8,56.4,84.8z"
				/>
			<path class="st4" d="M67.1,91.3v-4.8c0-1.2-0.6-1.6-1.6-1.6c-0.8,0-1.6,0.5-2,1v5.4h-1.7v-7.7h1.7v1c0.5-0.6,1.5-1.2,2.7-1.2
				c1.7,0,2.5,0.9,2.5,2.5v5.4C68.7,91.3,67.1,91.3,67.1,91.3z"/>
		</g>
		<g class="st1">
			<path class="st4" d="M11.4,111.3v-10.7h5.3c2,0,3,1.2,3,2.7c0,1.3-0.9,2.2-1.9,2.4c1.2,0.2,2.1,1.3,2.1,2.6
				c0,1.7-1.1,2.9-3.1,2.9L11.4,111.3L11.4,111.3z M17.8,103.7c0-0.8-0.5-1.4-1.5-1.4h-3v2.8h3C17.3,105,17.8,104.5,17.8,103.7z
				 M18,108.2c0-0.8-0.6-1.5-1.6-1.5h-3.1v3h3.1C17.4,109.7,18,109.1,18,108.2z"/>
			<path class="st4" d="M21.3,107.4c0-2.2,1.6-4,3.9-4c2.3,0,3.8,1.8,3.8,4.2v0.4h-6c0.1,1.2,1,2.1,2.4,2.1c0.8,0,1.6-0.3,2.2-0.9
				l0.8,1.1c-0.8,0.7-1.9,1.1-3.1,1.1C23,111.5,21.3,109.9,21.3,107.4z M25.2,104.8c-1.4,0-2.1,1.1-2.2,2h4.4
				C27.4,105.9,26.7,104.8,25.2,104.8z"/>
			<path class="st4" d="M30.6,113.3l0.8-1.2c0.6,0.7,1.4,1,2.5,1s2.3-0.5,2.3-2.2V110c-0.6,0.8-1.5,1.3-2.5,1.3c-2,0-3.4-1.4-3.4-4
				c0-2.5,1.4-4,3.4-4c1,0,1.9,0.4,2.5,1.3v-1.1h1.7v7.3c0,2.8-2.1,3.5-4,3.5C32.5,114.4,31.6,114.2,30.6,113.3z M36.1,108.8v-2.9
				c-0.4-0.6-1.2-1-2-1c-1.3,0-2.2,1-2.2,2.5s0.8,2.5,2.2,2.5C34.9,109.8,35.8,109.4,36.1,108.8z"/>
			<path class="st4" d="M39.8,101.6c0-0.6,0.5-1,1-1c0.6,0,1,0.5,1,1s-0.5,1-1,1S39.8,102.2,39.8,101.6z M40,111.3v-7.7h1.7v7.7H40z
				"/>
			<path class="st4" d="M49.1,111.3v-4.8c0-1.2-0.6-1.6-1.6-1.6c-0.8,0-1.6,0.5-2,1v5.4h-1.7v-7.7h1.7v1c0.5-0.6,1.5-1.2,2.7-1.2
				c1.7,0,2.5,0.9,2.5,2.5v5.4C50.7,111.3,49.1,111.3,49.1,111.3z"/>
			<path class="st4" d="M58.2,111.3v-4.8c0-1.2-0.6-1.6-1.6-1.6c-0.8,0-1.6,0.5-2,1v5.4h-1.7v-7.7h1.7v1c0.5-0.6,1.5-1.2,2.7-1.2
				c1.7,0,2.5,0.9,2.5,2.5v5.4C59.8,111.3,58.2,111.3,58.2,111.3z"/>
			<path class="st4" d="M61.6,107.4c0-2.2,1.6-4,3.9-4c2.3,0,3.8,1.8,3.8,4.2v0.4h-6c0.1,1.2,1,2.1,2.4,2.1c0.8,0,1.6-0.3,2.2-0.9
				l0.8,1.1c-0.8,0.7-1.9,1.1-3.1,1.1C63.3,111.5,61.6,109.9,61.6,107.4z M65.5,104.8c-1.4,0-2.1,1.1-2.2,2h4.4
				C67.6,105.9,67,104.8,65.5,104.8z"/>
			<path class="st4" d="M70.9,111.3v-7.7h1.7v1.1c0.6-0.7,1.5-1.3,2.5-1.3v1.7c-0.1,0-0.3,0-0.5,0c-0.7,0-1.7,0.5-2,1v5.3
				L70.9,111.3L70.9,111.3z"/>
		</g>
	</g>
	<g id="Book0-2" transform="translate(20 202.756)">
		<g id="Elipse_283-2" transform="translate(17.278)">
			<circle class="st2" cx="25.6" cy="35.6" r="35.6"/>
			<circle class="st5" cx="25.6" cy="35.6" r="32.1"/>
		</g>
		<g class="st1">
			<path class="st6" d="M5.7,94.3l-3.6-4.5l-0.9,1.1v3.4h-1.9V83.6h1.9v5.1l4.2-5.1h2.3l-4.3,5l4.7,5.7C8.1,94.3,5.7,94.3,5.7,94.3z
				"/>
			<path class="st6" d="M9,84.6c0-0.6,0.5-1,1-1c0.6,0,1,0.5,1,1s-0.5,1-1,1S9,85.2,9,84.6z M9.2,94.3v-7.7h1.7v7.7H9.2z"/>
			<path class="st6" d="M13.4,92.5V88h-1.3v-1.5h1.3v-2.1h1.7v2.1h1.6V88h-1.6v4c0,0.5,0.3,0.9,0.7,0.9c0.3,0,0.6-0.1,0.7-0.3L17,94
				c-0.3,0.3-0.8,0.5-1.6,0.5C14.1,94.5,13.4,93.8,13.4,92.5z"/>
			<path class="st6" d="M17.7,90.4c0-2.3,1.6-4,4-4c1.5,0,2.4,0.6,3,1.4l-1.1,1c-0.4-0.6-1-0.9-1.8-0.9c-1.4,0-2.3,1.1-2.3,2.6
				s0.9,2.6,2.3,2.6c0.8,0,1.3-0.3,1.8-0.9l1.1,1c-0.5,0.7-1.4,1.4-3,1.4C19.4,94.5,17.7,92.8,17.7,90.4z"/>
			<path class="st6" d="M31.4,94.3v-4.9c0-1.2-0.6-1.6-1.6-1.6c-0.9,0-1.6,0.5-2,1v5.4h-1.7V83.6h1.7v4c0.5-0.6,1.5-1.2,2.7-1.2
				c1.7,0,2.5,0.9,2.5,2.4v5.5H31.4z"/>
			<path class="st6" d="M34.8,90.4c0-2.2,1.6-4,3.9-4c2.3,0,3.8,1.8,3.8,4.2V91h-6c0.1,1.2,1,2.1,2.4,2.1c0.8,0,1.6-0.3,2.2-0.9
				l0.8,1.1c-0.8,0.7-1.9,1.1-3.1,1.1C36.5,94.5,34.8,92.9,34.8,90.4z M38.7,87.8c-1.4,0-2.1,1.1-2.2,2h4.4
				C40.8,88.9,40.2,87.8,38.7,87.8z"/>
			<path class="st6" d="M49.4,94.3v-4.8c0-1.2-0.6-1.6-1.6-1.6c-0.8,0-1.6,0.5-2,1v5.4h-1.7v-7.7h1.7v1c0.5-0.6,1.5-1.2,2.7-1.2
				c1.7,0,2.5,0.9,2.5,2.5v5.4C51,94.3,49.4,94.3,49.4,94.3z"/>
			<path class="st6" d="M56.7,92.8l1.1-1.5c0.7,0.8,1.9,1.5,3.4,1.5s2.1-0.8,2.1-1.5c0-2.2-6.2-0.8-6.2-4.8c0-1.8,1.5-3.1,3.9-3.1
				c1.6,0,3,0.5,4,1.5l-1.1,1.4c-0.8-0.8-2-1.2-3.1-1.2S59,85.6,59,86.4c0,2,6.2,0.8,6.2,4.7c0,1.8-1.3,3.3-4.1,3.3
				C59.1,94.5,57.7,93.8,56.7,92.8z"/>
			<path class="st6" d="M66.4,89c0-3.2,2.3-5.5,5.5-5.5s5.5,2.3,5.5,5.5s-2.3,5.5-5.5,5.5C68.7,94.5,66.4,92.2,66.4,89z M75.4,89
				c0-2.2-1.4-3.9-3.5-3.9c-2.2,0-3.5,1.6-3.5,3.9c0,2.2,1.4,3.9,3.5,3.9C74,92.8,75.4,91.2,75.4,89z"/>
			<path class="st6" d="M78.5,92.8l1.1-1.5c0.7,0.8,1.9,1.5,3.4,1.5s2.1-0.8,2.1-1.5c0-2.2-6.2-0.8-6.2-4.8c0-1.8,1.5-3.1,3.9-3.1
				c1.6,0,3,0.5,4,1.5l-1.1,1.4c-0.8-0.8-2-1.2-3.1-1.2s-1.8,0.5-1.8,1.3c0,2,6.2,0.8,6.2,4.7c0,1.8-1.3,3.3-4.1,3.3
				C80.8,94.5,79.4,93.8,78.5,92.8z"/>
		</g>
		<path id="_3_4_Done-3" class="st7" d="M42.9,67.3C24.8,67.3,11,53.4,11,35.6"/>
		<path id="_2_4_Done-2" class="st7" d="M42.9,67.3c18.1,0,31.9-13.9,31.9-31.7"/>
		<path id="_1_4_Done-2" class="st7" d="M42.9,3.8c18.1,0,31.9,13.9,31.9,31.7"/>
		<path id="_3_4_Done-4" class="st7" d="M11,35.7c0-18.2,14-32,31.8-32"/>
		<g class="st1">
			<path class="st0" d="M37.1,42.7c-1.3-1.9-2-4.5-2-8.1c0-3.5,0.7-6.2,2-8c1.4-1.9,3.3-2.8,5.9-2.8c2.6,0,4.5,0.9,5.9,2.8
				c1.3,1.9,2,4.5,2,8s-0.7,6.2-2,8.1c-1.4,1.9-3.3,2.8-5.9,2.8C40.4,45.5,38.5,44.6,37.1,42.7z M45.5,40.2c0.5-1.2,0.8-3,0.8-5.5
				c0-2.6-0.3-4.4-0.8-5.5C45,28,44.2,27.4,43,27.4s-2,0.6-2.5,1.7c-0.5,1.2-0.8,3-0.8,5.5s0.3,4.4,0.8,5.5c0.5,1.2,1.4,1.7,2.5,1.7
				C44.2,41.9,45,41.4,45.5,40.2z"/>
		</g>
	</g>
	<g id="Book1" transform="translate(-9 401.672)">
		<g class="st1">
			<path class="st4" d="M21.3,95.3l-3.6-4.5l-0.9,1.1v3.4h-1.9V84.7h1.9v5.1l4.2-5.1h2.3l-4.3,5l4.7,5.7L21.3,95.3L21.3,95.3z"/>
			<path class="st4" d="M24.6,85.6c0-0.6,0.5-1,1-1c0.6,0,1,0.5,1,1s-0.5,1-1,1C25.1,86.7,24.6,86.2,24.6,85.6z M24.8,95.3v-7.7h1.7
				v7.7H24.8z"/>
			<path class="st4" d="M29,93.5V89h-1.3v-1.5H29v-2.1h1.7v2.1h1.6V89h-1.6v4c0,0.5,0.3,0.9,0.7,0.9c0.3,0,0.6-0.1,0.7-0.3l0.4,1.3
				c-0.3,0.3-0.8,0.5-1.6,0.5C29.7,95.5,29,94.8,29,93.5z"/>
			<path class="st4" d="M33.3,91.5c0-2.3,1.6-4,4-4c1.5,0,2.4,0.6,3,1.4l-1.1,1c-0.4-0.6-1-0.9-1.8-0.9c-1.4,0-2.3,1.1-2.3,2.6
				s0.9,2.6,2.3,2.6c0.8,0,1.3-0.3,1.8-0.9l1.1,1c-0.5,0.7-1.4,1.4-3,1.4C35,95.5,33.3,93.8,33.3,91.5z"/>
			<path class="st4" d="M47,95.3v-4.9c0-1.2-0.6-1.6-1.6-1.6c-0.9,0-1.6,0.5-2,1v5.4h-1.7V84.7h1.7v4c0.5-0.6,1.5-1.2,2.7-1.2
				c1.7,0,2.5,0.9,2.5,2.4v5.5L47,95.3L47,95.3z"/>
			<path class="st4" d="M50.4,91.5c0-2.2,1.6-4,3.9-4s3.8,1.8,3.8,4.2V92h-6c0.1,1.2,1,2.1,2.4,2.1c0.8,0,1.6-0.3,2.2-0.9l0.8,1.1
				c-0.8,0.7-1.9,1.1-3.1,1.1C52.1,95.5,50.4,93.9,50.4,91.5z M54.3,88.8c-1.4,0-2.1,1.1-2.2,2h4.4C56.4,89.9,55.8,88.8,54.3,88.8z"
				/>
			<path class="st4" d="M65,95.3v-4.8c0-1.2-0.6-1.6-1.6-1.6c-0.8,0-1.6,0.5-2,1v5.4h-1.7v-7.7h1.7v1c0.5-0.6,1.5-1.2,2.7-1.2
				c1.7,0,2.5,0.9,2.5,2.5v5.4C66.6,95.3,65,95.3,65,95.3z"/>
		</g>
		<g class="st1">
			<path class="st4" d="M19,115.3v-10.7h5.3c2,0,3,1.2,3,2.7c0,1.3-0.9,2.2-1.9,2.4c1.2,0.2,2.1,1.3,2.1,2.6c0,1.7-1.1,2.9-3.1,2.9
				L19,115.3L19,115.3z M25.3,107.7c0-0.8-0.5-1.4-1.5-1.4h-3v2.8h3C24.8,109.1,25.3,108.5,25.3,107.7z M25.6,112.2
				c0-0.8-0.6-1.5-1.6-1.5h-3.1v3H24C24.9,113.7,25.6,113.1,25.6,112.2z"/>
			<path class="st4" d="M34,115.3v-0.8c-0.6,0.7-1.5,1-2.5,1c-1.2,0-2.7-0.9-2.7-2.6c0-1.8,1.4-2.5,2.7-2.5c1.1,0,1.9,0.3,2.5,1
				v-1.2c0-0.9-0.8-1.4-1.8-1.4c-0.9,0-1.6,0.3-2.3,1l-0.7-1.2c0.9-0.9,2-1.2,3.2-1.2c1.7,0,3.2,0.7,3.2,2.8v5.1
				C35.6,115.3,34,115.3,34,115.3z M34,113.6v-1.2c-0.4-0.5-1.1-0.8-1.8-0.8c-0.9,0-1.7,0.6-1.7,1.4s0.7,1.4,1.7,1.4
				C32.9,114.4,33.6,114.1,34,113.6z"/>
			<path class="st4" d="M37.2,114.3l0.8-1.2c0.5,0.6,1.6,1.1,2.6,1.1s1.5-0.4,1.5-1c0-1.5-4.7-0.4-4.7-3.4c0-1.3,1.1-2.3,3-2.3
				c1.3,0,2.3,0.5,3,1.1l-0.7,1.2c-0.5-0.5-1.3-0.9-2.3-0.9c-0.9,0-1.4,0.4-1.4,1c0,1.4,4.7,0.3,4.7,3.4c0,1.4-1.1,2.4-3.2,2.4
				C39.2,115.5,38,115.1,37.2,114.3z"/>
			<path class="st4" d="M45.3,105.6c0-0.6,0.5-1,1-1c0.6,0,1,0.5,1,1s-0.5,1-1,1C45.7,106.7,45.3,106.2,45.3,105.6z M45.5,115.3
				v-7.7h1.7v7.7H45.5z"/>
			<path class="st4" d="M48.8,111.5c0-2.3,1.6-4,4-4c1.5,0,2.4,0.6,3,1.4l-1.1,1c-0.4-0.6-1-0.9-1.8-0.9c-1.4,0-2.3,1.1-2.3,2.6
				s0.9,2.6,2.3,2.6c0.8,0,1.3-0.3,1.8-0.9l1.1,1c-0.5,0.7-1.4,1.4-3,1.4C50.5,115.5,48.8,113.8,48.8,111.5z"/>
			<path class="st4" d="M56.6,114.3l0.8-1.2c0.5,0.6,1.6,1.1,2.6,1.1s1.5-0.4,1.5-1c0-1.5-4.7-0.4-4.7-3.4c0-1.3,1.1-2.3,3-2.3
				c1.3,0,2.3,0.5,3,1.1l-0.7,1.2c-0.5-0.5-1.3-0.9-2.3-0.9c-0.9,0-1.4,0.4-1.4,1c0,1.4,4.7,0.3,4.7,3.4c0,1.4-1.1,2.4-3.2,2.4
				C58.6,115.5,57.4,115.1,56.6,114.3z"/>
		</g>
	</g>
	<g id="Caminho_6696" transform="translate(17.278)">
		<path class="st8" d="M47.6,712.2c-4.3,0-8.5-0.8-12.5-2.5c-3.8-1.6-7.2-3.9-10.2-6.9c-2.9-2.9-5.3-6.4-6.9-10.2
			c-1.7-4-2.5-8.2-2.5-12.5s0.8-8.5,2.5-12.5c1.6-3.8,3.9-7.2,6.9-10.2c2.9-2.9,6.4-5.3,10.2-6.9c4-1.7,8.2-2.5,12.5-2.5
			s8.5,0.8,12.5,2.5c3.8,1.6,7.2,3.9,10.2,6.9c2.9,2.9,5.3,6.4,6.9,10.2c1.7,4,2.5,8.2,2.5,12.5s-0.8,8.5-2.5,12.5
			c-1.6,3.8-3.9,7.2-6.9,10.2c-2.9,2.9-6.4,5.3-10.2,6.9C56.1,711.3,51.9,712.2,47.6,712.2z"/>
		<path class="st4" d="M47.6,651.5c-15.8,0-28.6,12.8-28.6,28.6s12.8,28.6,28.6,28.6s28.6-12.8,28.6-28.6S63.3,651.5,47.6,651.5
			 M47.6,644.5c19.6,0,35.6,15.9,35.6,35.6s-15.9,35.6-35.6,35.6S12,699.8,12,680.1S27.9,644.5,47.6,644.5z"/>
	</g>
	<g class="st1">
		<path class="st4" d="M28.7,733.5c0-3.3,2.4-5.5,5.6-5.5c2.1,0,3.5,1.1,4.3,2.4l-1.6,0.8c-0.5-0.9-1.6-1.6-2.7-1.6
			c-2.1,0-3.7,1.6-3.7,3.9c0,2.2,1.6,3.9,3.7,3.9c1.1,0,2.2-0.7,2.7-1.6l1.6,0.8c-0.8,1.3-2.1,2.4-4.3,2.4
			C31.2,739.1,28.7,736.8,28.7,733.5z"/>
		<path class="st4" d="M39.6,735c0-2.2,1.5-4,4-4s4,1.8,4,4s-1.5,4.1-4,4.1S39.6,737.2,39.6,735z M45.8,735c0-1.4-0.8-2.6-2.2-2.6
			s-2.2,1.2-2.2,2.6c0,1.4,0.8,2.6,2.2,2.6S45.8,736.4,45.8,735z"/>
		<path class="st4" d="M58.7,738.9v-5c0-0.8-0.4-1.4-1.3-1.4c-0.8,0-1.5,0.5-1.8,1v5.4H54v-5c0-0.8-0.4-1.4-1.3-1.4
			c-0.8,0-1.4,0.5-1.8,1v5.4h-1.7v-7.7h1.7v1c0.3-0.5,1.3-1.2,2.5-1.2c1.2,0,1.9,0.6,2.1,1.4c0.4-0.7,1.5-1.4,2.6-1.4
			c1.4,0,2.2,0.8,2.2,2.3v5.6L58.7,738.9L58.7,738.9z"/>
		<path class="st4" d="M64.3,737.8v4h-1.7v-10.7h1.7v1.1c0.6-0.8,1.5-1.2,2.5-1.2c2,0,3.4,1.5,3.4,4s-1.4,4.1-3.4,4.1
			C65.8,739.1,64.9,738.6,64.3,737.8z M68.4,735c0-1.5-0.9-2.6-2.2-2.6c-0.8,0-1.6,0.4-2,1v3.1c0.4,0.6,1.2,1.1,2,1.1
			C67.6,737.6,68.4,736.5,68.4,735z"/>
		<path class="st4" d="M71.8,738.9v-10.7h1.7v10.7H71.8z"/>
		<path class="st4" d="M75.2,735c0-2.2,1.6-4,3.9-4s3.8,1.8,3.8,4.2v0.4h-6c0.1,1.2,1,2.1,2.4,2.1c0.8,0,1.6-0.3,2.2-0.9l0.8,1.1
			c-0.8,0.7-1.9,1.1-3.1,1.1C76.9,739.1,75.2,737.4,75.2,735z M79.1,732.3c-1.4,0-2.1,1.1-2.2,2h4.4
			C81.3,733.4,80.7,732.3,79.1,732.3z"/>
		<path class="st4" d="M85,737.1v-4.5h-1.3v-1.5H85V729h1.7v2.1h1.6v1.5h-1.6v4c0,0.5,0.3,0.9,0.7,0.9c0.3,0,0.6-0.1,0.7-0.3
			l0.4,1.3c-0.3,0.3-0.8,0.5-1.6,0.5C85.6,739.1,85,738.4,85,737.1z"/>
		<path class="st4" d="M89.2,735c0-2.2,1.6-4,3.9-4s3.8,1.8,3.8,4.2v0.4h-6c0.1,1.2,1,2.1,2.4,2.1c0.8,0,1.6-0.3,2.2-0.9l0.8,1.1
			c-0.8,0.7-1.9,1.1-3.1,1.1C91,739.1,89.2,737.4,89.2,735z M93.1,732.3c-1.4,0-2.1,1.1-2.2,2h4.4C95.3,733.4,94.7,732.3,93.1,732.3
			z"/>
	</g>
	<g class="st1">
		<path class="st4" d="M52,758.9v-8.2l-3.3,8.2h-0.8l-3.3-8.2v8.2h-1.9v-10.7h2.6l2.9,7.3l2.9-7.3h2.6v10.7H52z"/>
		<path class="st4" d="M55.6,755c0-2.2,1.6-4,3.9-4s3.8,1.8,3.8,4.2v0.4h-6c0.1,1.2,1,2.1,2.4,2.1c0.8,0,1.6-0.3,2.2-0.9l0.8,1.1
			c-0.8,0.7-1.9,1.1-3.1,1.1C57.3,759.1,55.6,757.4,55.6,755z M59.5,752.3c-1.4,0-2.1,1.1-2.2,2h4.4
			C61.7,753.4,61.1,752.3,59.5,752.3z"/>
		<path class="st4" d="M69.7,758.9V758c-0.6,0.7-1.5,1-2.5,1c-1.2,0-2.7-0.9-2.7-2.6c0-1.8,1.4-2.5,2.7-2.5c1.1,0,1.9,0.3,2.5,1
			v-1.2c0-0.9-0.8-1.4-1.8-1.4c-0.9,0-1.6,0.3-2.3,1l-0.7-1.2c0.9-0.9,2-1.2,3.2-1.2c1.7,0,3.2,0.7,3.2,2.8v5.1h-1.6V758.9z
			 M69.7,757.1v-1.2c-0.4-0.5-1.1-0.8-1.8-0.8c-0.9,0-1.7,0.6-1.7,1.4c0,0.8,0.7,1.4,1.7,1.4C68.6,757.9,69.3,757.6,69.7,757.1z"/>
		<path class="st4" d="M73.6,758.9v-10.7h1.7v10.7H73.6z"/>
		<path class="st4" d="M76.8,757.8l0.8-1.2c0.5,0.6,1.6,1.1,2.6,1.1s1.5-0.4,1.5-1c0-1.5-4.7-0.4-4.7-3.4c0-1.3,1.1-2.3,3-2.3
			c1.3,0,2.3,0.5,3,1.1l-0.7,1.2c-0.5-0.5-1.3-0.9-2.3-0.9c-0.9,0-1.4,0.4-1.4,1c0,1.4,4.7,0.3,4.7,3.4c0,1.4-1.1,2.4-3.2,2.4
			C78.8,759.1,77.6,758.6,76.8,757.8z"/>
	</g>
	<path id="Icon_material-lock" class="st9" d="M75.8,671.7H74V668c0-5.1-4.1-9.1-9.2-9.1s-9.1,4.1-9.1,9.1v3.7h-1.8
		c-2,0-3.7,1.6-3.7,3.7v18.3c0,2,1.6,3.7,3.7,3.7h22c2,0,3.7-1.6,3.7-3.7v-18.3C79.5,673.3,77.8,671.7,75.8,671.7z M64.9,688.2
		c-2,0-3.7-1.6-3.7-3.7s1.6-3.7,3.7-3.7c2.1,0,3.7,1.6,3.7,3.7l0,0C68.5,686.5,66.9,688.2,64.9,688.2z M70.5,671.7H59.2V668
		c0-3.1,2.5-5.7,5.7-5.7c3.1,0,5.7,2.5,5.7,5.7L70.5,671.7z"/>
	<g id="Caminho_6696_1_" transform="translate(17.278)">
		<path class="st8" d="M76.1,589.9c-4.3,0-8.5-0.8-12.5-2.5c-3.8-1.6-7.2-3.9-10.2-6.9c-2.9-2.9-5.3-6.4-6.9-10.2
			c-1.7-4-2.5-8.2-2.5-12.5s0.8-8.5,2.5-12.5c1.6-3.8,3.9-7.2,6.9-10.2c2.9-2.9,6.4-5.3,10.2-6.9c4-1.7,8.2-2.5,12.5-2.5
			s8.5,0.8,12.5,2.5c3.8,1.6,7.2,3.9,10.2,6.9c2.9,2.9,5.3,6.4,6.9,10.2c1.7,4,2.5,8.2,2.5,12.5s-0.8,8.5-2.5,12.5
			c-1.6,3.8-3.9,7.2-6.9,10.2c-2.9,2.9-6.4,5.3-10.2,6.9C84.7,589,80.5,589.9,76.1,589.9z"/>
		<path class="st4" d="M76.1,529.2c-15.8,0-28.6,12.8-28.6,28.6s12.8,28.6,28.6,28.6s28.6-12.8,28.6-28.6S91.9,529.2,76.1,529.2
			 M76.1,522.2c19.6,0,35.6,15.9,35.6,35.6s-15.9,35.6-35.6,35.6s-35.6-15.9-35.6-35.6S56.5,522.2,76.1,522.2z"/>
	</g>
	<path id="Icon_material-lock_1_" class="st9" d="M104.4,549.4h-1.8v-3.7c0-5.1-4.1-9.1-9.2-9.1s-9.1,4.1-9.1,9.1v3.7h-1.8
		c-2,0-3.7,1.6-3.7,3.7v18.3c0,2,1.6,3.7,3.7,3.7h22c2,0,3.7-1.6,3.7-3.7V553C108.1,551,106.4,549.4,104.4,549.4z M93.4,565.8
		c-2,0-3.7-1.6-3.7-3.7s1.6-3.7,3.7-3.7s3.7,1.6,3.7,3.7l0,0C97.1,564.2,95.4,565.8,93.4,565.8z M99.1,549.4H87.8v-3.7
		c0-3.1,2.5-5.7,5.7-5.7s5.7,2.5,5.7,5.7L99.1,549.4z"/>
	<g id="Caminho_6696_2_" transform="translate(17.278)">
		<path class="st8" d="M10.8,468.9c-4.3,0-8.5-0.8-12.5-2.5c-3.8-1.6-7.2-3.9-10.2-6.9c-2.9-2.9-5.3-6.4-6.9-10.2
			c-1.7-4-2.5-8.2-2.5-12.5s0.8-8.5,2.5-12.5c1.6-3.8,3.9-7.2,6.9-10.2s6.4-5.3,10.2-6.9c4-1.7,8.2-2.5,12.5-2.5s8.5,0.8,12.5,2.5
			c3.8,1.6,7.2,3.9,10.2,6.9c2.9,2.9,5.3,6.4,6.9,10.2c1.7,4,2.5,8.2,2.5,12.5s-0.8,8.5-2.5,12.5c-1.6,3.8-3.9,7.2-6.9,10.2
			c-2.9,2.9-6.4,5.3-10.2,6.9C19.3,468.1,15.1,468.9,10.8,468.9z"/>
		<path class="st4" d="M10.8,408.3c-15.8,0-28.6,12.8-28.6,28.6s12.8,28.5,28.6,28.5s28.6-12.8,28.6-28.6S26.5,408.3,10.8,408.3
			 M10.8,401.3c19.6,0,35.6,15.9,35.6,35.6c0,19.6-15.9,35.6-35.6,35.6s-35.6-15.9-35.6-35.6C-24.8,417.2-8.9,401.3,10.8,401.3z"/>
	</g>
	<path id="Icon_material-lock_2_" class="st9" d="M39,428.4h-1.8v-3.7c0-5.1-4.1-9.1-9.2-9.1s-9.1,4.1-9.1,9.1v3.7h-1.8
		c-2,0-3.7,1.6-3.7,3.7v18.3c0,2,1.6,3.7,3.7,3.7h22c2,0,3.7-1.6,3.7-3.7v-18.3C42.7,430.1,41,428.4,39,428.4z M28,444.9
		c-2,0-3.7-1.6-3.7-3.7s1.6-3.7,3.7-3.7s3.7,1.6,3.7,3.7l0,0C31.7,443.3,30.1,444.9,28,444.9z M33.7,428.4H22.4v-3.7
		c0-3.1,2.5-5.7,5.7-5.7s5.7,2.5,5.7,5.7L33.7,428.4z"/>
	<g>
		<g id="Caminho_6696_3_" transform="translate(17.278)">
			<path class="st8" d="M92.6,377.5c-4.3,0-8.5-0.8-12.5-2.5c-3.8-1.6-7.2-3.9-10.2-6.9c-2.9-2.9-5.3-6.4-6.9-10.2
				c-1.7-4-2.5-8.2-2.5-12.5s0.8-8.5,2.5-12.5c1.6-3.8,3.9-7.2,6.9-10.2c2.9-2.9,6.4-5.3,10.2-6.9c4-1.7,8.2-2.5,12.5-2.5
				s8.5,0.8,12.5,2.5c3.8,1.6,7.2,3.9,10.2,6.9c2.9,2.9,5.3,6.4,6.9,10.2c1.7,4,2.5,8.2,2.5,12.5s-0.8,8.5-2.5,12.5
				c-1.6,3.8-3.9,7.2-6.9,10.2s-6.4,5.3-10.2,6.9C101.1,376.7,96.9,377.5,92.6,377.5z"/>
			<path class="st4" d="M92.6,316.9c-15.8,0-28.6,12.8-28.6,28.6S76.8,374,92.6,374s28.6-12.8,28.6-28.6S108.3,316.9,92.6,316.9
				 M92.6,309.9c19.6,0,35.6,15.9,35.6,35.6c0,19.6-15.9,35.6-35.6,35.6S57,365.1,57,345.4C57,325.8,72.9,309.9,92.6,309.9z"/>
		</g>
		<path id="Icon_material-lock_3_" class="st9" d="M120.8,337H119v-3.7c0-5.1-4.1-9.1-9.2-9.1s-9.1,4.1-9.1,9.1v3.7h-1.8
			c-2,0-3.7,1.6-3.7,3.7V359c0,2,1.6,3.7,3.7,3.7h22c2,0,3.7-1.6,3.7-3.7v-18.3C124.5,338.7,122.8,337,120.8,337z M109.9,353.5
			c-2,0-3.7-1.6-3.7-3.7s1.6-3.7,3.7-3.7s3.7,1.6,3.7,3.7l0,0C113.5,351.9,111.9,353.5,109.9,353.5z M115.5,337h-11.3v-3.7
			c0-3.1,2.5-5.7,5.7-5.7s5.7,2.5,5.7,5.7L115.5,337z"/>
	</g>
	<g id="Book1-3" transform="translate(78 787.475)">
		<g id="Caminho_6696-2" transform="translate(17.278)">
			<path class="st8" d="M25.6,67.6c-4.3,0-8.5-0.8-12.5-2.5c-3.8-1.6-7.2-3.9-10.2-6.9c-3-2.9-5.3-6.3-6.9-10.1
				c-1.7-4-2.5-8.2-2.5-12.5S-5.7,27-4,23.1c1.6-3.8,3.9-7.2,6.9-10.2S9.3,7.6,13.1,6c4-1.7,8.2-2.5,12.5-2.5S34.1,4.3,38.1,6
				c3.8,1.6,7.2,3.9,10.2,6.9c2.9,2.9,5.3,6.4,6.9,10.2c1.7,4,2.5,8.2,2.5,12.5s-0.8,8.5-2.5,12.5c-1.6,3.8-3.9,7.2-6.9,10.2
				c-2.9,2.9-6.4,5.3-10.2,6.9C34.1,66.8,29.9,67.6,25.6,67.6z"/>
			<path class="st4" d="M25.6,7C9.8,7-3,19.8-3,35.6S9.8,64.2,25.6,64.2s28.6-12.8,28.6-28.6S41.3,7,25.6,7 M25.6,0
				c19.6,0,35.6,15.9,35.6,35.6s-16,35.5-35.6,35.5S-10,55.2-10,35.6S5.9,0,25.6,0z"/>
		</g>
		<g class="st1">
			<path class="st4" d="M6.7,84c0-3.3,2.4-5.5,5.6-5.5c2.1,0,3.5,1.1,4.3,2.4L15,81.7c-0.5-0.9-1.6-1.6-2.7-1.6
				c-2.1,0-3.7,1.6-3.7,3.9c0,2.2,1.6,3.9,3.7,3.9c1.1,0,2.2-0.7,2.7-1.6l1.6,0.8c-0.8,1.3-2.1,2.4-4.3,2.4
				C9.2,89.5,6.7,87.3,6.7,84z"/>
			<path class="st4" d="M17.6,85.5c0-2.2,1.5-4,4-4s4,1.8,4,4s-1.5,4.1-4,4.1C19.1,89.5,17.6,87.7,17.6,85.5z M23.8,85.5
				c0-1.4-0.8-2.6-2.2-2.6c-1.4,0-2.2,1.2-2.2,2.6s0.8,2.6,2.2,2.6C23,88,23.8,86.8,23.8,85.5z"/>
			<path class="st4" d="M36.7,89.3v-5c0-0.8-0.4-1.4-1.3-1.4c-0.8,0-1.5,0.5-1.8,1v5.4H32v-5c0-0.8-0.4-1.4-1.3-1.4
				c-0.8,0-1.4,0.5-1.8,1v5.4h-1.7v-7.7h1.7v1c0.3-0.5,1.3-1.2,2.5-1.2c1.2,0,1.9,0.6,2.1,1.4c0.4-0.7,1.5-1.4,2.6-1.4
				c1.4,0,2.2,0.8,2.2,2.3v5.6C38.3,89.3,36.7,89.3,36.7,89.3z"/>
			<path class="st4" d="M42.3,88.3v4h-1.7V81.6h1.7v1.1c0.6-0.8,1.5-1.2,2.5-1.2c2,0,3.4,1.5,3.4,4s-1.4,4.1-3.4,4.1
				C43.8,89.5,42.9,89.1,42.3,88.3z M46.4,85.5c0-1.5-0.9-2.6-2.2-2.6c-0.8,0-1.6,0.4-2,1V87c0.4,0.6,1.2,1.1,2,1.1
				C45.6,88,46.4,87,46.4,85.5z"/>
			<path class="st4" d="M49.8,89.3V78.7h1.7v10.7L49.8,89.3L49.8,89.3z"/>
			<path class="st4" d="M53.2,85.5c0-2.2,1.6-4,3.9-4c2.3,0,3.8,1.8,3.8,4.2V86h-6c0.1,1.2,1,2.1,2.4,2.1c0.8,0,1.6-0.3,2.2-0.9
				l0.8,1.1c-0.8,0.7-1.9,1.1-3.1,1.1C54.9,89.5,53.2,87.9,53.2,85.5z M57.1,82.8c-1.4,0-2.1,1.1-2.2,2h4.4
				C59.3,83.9,58.7,82.8,57.1,82.8z"/>
			<path class="st4" d="M63,87.5V83h-1.3v-1.5H63v-2.1h1.7v2.1h1.6V83h-1.6v4c0,0.5,0.3,0.9,0.7,0.9c0.3,0,0.6-0.1,0.7-0.3l0.4,1.3
				c-0.3,0.3-0.8,0.5-1.6,0.5C63.6,89.5,63,88.8,63,87.5z"/>
			<path class="st4" d="M67.2,85.5c0-2.2,1.6-4,3.9-4s3.8,1.8,3.8,4.2V86h-6c0.1,1.2,1,2.1,2.4,2.1c0.8,0,1.6-0.3,2.2-0.9l0.8,1.1
				c-0.8,0.7-1.9,1.1-3.1,1.1C69,89.5,67.2,87.9,67.2,85.5z M71.1,82.8c-1.4,0-2.1,1.1-2.2,2h4.4C73.3,83.9,72.7,82.8,71.1,82.8z"/>
		</g>
		<g class="st1">
			<path class="st4" d="M30,109.3v-8.2l-3.3,8.2h-0.8l-3.3-8.2v8.2h-1.9V98.7h2.6l2.9,7.3l2.9-7.3h2.6v10.7L30,109.3L30,109.3z"/>
			<path class="st4" d="M33.6,105.5c0-2.2,1.6-4,3.9-4c2.3,0,3.8,1.8,3.8,4.2v0.4h-6c0.1,1.2,1,2.1,2.4,2.1c0.8,0,1.6-0.3,2.2-0.9
				l0.8,1.1c-0.8,0.7-1.9,1.1-3.1,1.1C35.3,109.5,33.6,107.9,33.6,105.5z M37.5,102.8c-1.4,0-2.1,1.1-2.2,2h4.4
				C39.7,103.9,39.1,102.8,37.5,102.8z"/>
			<path class="st4" d="M47.7,109.3v-0.8c-0.6,0.7-1.5,1-2.5,1c-1.2,0-2.7-0.9-2.7-2.6c0-1.8,1.4-2.5,2.7-2.5c1.1,0,1.9,0.3,2.5,1
				v-1.2c0-0.9-0.8-1.4-1.8-1.4c-0.9,0-1.6,0.3-2.3,1l-0.7-1.2c0.9-0.9,2-1.2,3.2-1.2c1.7,0,3.2,0.7,3.2,2.8v5.1
				C49.3,109.3,47.7,109.3,47.7,109.3z M47.7,107.6v-1.2c-0.4-0.5-1.1-0.8-1.8-0.8c-0.9,0-1.7,0.6-1.7,1.4s0.7,1.4,1.7,1.4
				C46.6,108.4,47.3,108.1,47.7,107.6z"/>
			<path class="st4" d="M51.6,109.3V98.7h1.7v10.7L51.6,109.3L51.6,109.3z"/>
			<path class="st4" d="M54.8,108.3l0.8-1.2c0.5,0.6,1.6,1.1,2.6,1.1s1.5-0.4,1.5-1c0-1.5-4.7-0.4-4.7-3.4c0-1.3,1.1-2.3,3-2.3
				c1.3,0,2.3,0.5,3,1.1l-0.7,1.2c-0.5-0.5-1.3-0.9-2.3-0.9c-0.9,0-1.4,0.4-1.4,1c0,1.4,4.7,0.3,4.7,3.4c0,1.4-1.1,2.4-3.2,2.4
				C56.8,109.5,55.6,109.1,54.8,108.3z"/>
		</g>
		<path id="Icon_material-lock-2" class="st9" d="M53.8,26.2H52v-3.7c0-5.1-4.1-9.1-9.2-9.1s-9.1,4.1-9.1,9.1v3.7h-1.8
			c-2,0-3.7,1.6-3.7,3.7v18.3c0,2,1.6,3.7,3.7,3.7h22c2,0,3.7-1.6,3.7-3.7V29.8C57.5,27.8,55.8,26.2,53.8,26.2z M42.9,42.6
			c-2,0-3.7-1.6-3.7-3.7s1.6-3.7,3.7-3.7s3.7,1.6,3.7,3.7l0,0C46.5,41,44.9,42.6,42.9,42.6z M48.5,26.2H37.2v-3.7
			c0-3.1,2.5-5.7,5.7-5.7c3.1,0,5.7,2.5,5.7,5.7L48.5,26.2z"/>
	</g>
	<g id="Book1-4" transform="translate(49 522.606)">
		<g class="st1">
			<path class="st4" d="M-1.4,95.3V84.6h1.9v10.7C0.5,95.3-1.4,95.3-1.4,95.3z"/>
			<path class="st4" d="M7.9,95.3v-4.8c0-1.2-0.6-1.6-1.6-1.6c-0.8,0-1.6,0.5-2,1v5.4H2.6v-7.7h1.7v1C4.8,88,5.8,87.4,7,87.4
				c1.7,0,2.5,0.9,2.5,2.5v5.4C9.5,95.3,7.9,95.3,7.9,95.3z"/>
			<path class="st4" d="M12.1,93.5V89h-1.3v-1.5h1.3v-2.1h1.7v2.1h1.6V89h-1.6v4c0,0.5,0.3,0.9,0.7,0.9c0.3,0,0.6-0.1,0.7-0.3
				l0.4,1.3c-0.3,0.3-0.8,0.5-1.6,0.5C12.8,95.5,12.1,94.8,12.1,93.5z"/>
			<path class="st4" d="M16.4,91.5c0-2.2,1.6-4,3.9-4s3.8,1.8,3.8,4.2V92h-6c0.1,1.2,1,2.1,2.4,2.1c0.8,0,1.6-0.3,2.2-0.9l0.8,1.1
				c-0.8,0.7-1.9,1.1-3.1,1.1C18.1,95.5,16.4,93.9,16.4,91.5z M20.3,88.8c-1.4,0-2.1,1.1-2.2,2h4.4C22.5,89.9,21.8,88.8,20.3,88.8z"
				/>
			<path class="st4" d="M25.8,95.3v-7.7h1.7v1.1c0.6-0.7,1.5-1.3,2.5-1.3v1.7c-0.1,0-0.3,0-0.5,0c-0.7,0-1.7,0.5-2,1v5.3L25.8,95.3
				L25.8,95.3z"/>
			<path class="st4" d="M40.8,95.3v-5c0-0.8-0.4-1.4-1.3-1.4c-0.8,0-1.5,0.5-1.8,1v5.4H36v-5c0-0.8-0.4-1.4-1.3-1.4
				c-0.8,0-1.4,0.5-1.8,1v5.4h-1.7v-7.7H33v1c0.3-0.5,1.3-1.2,2.5-1.2s1.9,0.6,2.1,1.4c0.4-0.7,1.5-1.4,2.6-1.4
				c1.4,0,2.2,0.8,2.2,2.3v5.6C42.4,95.3,40.8,95.3,40.8,95.3z"/>
			<path class="st4" d="M44.2,91.5c0-2.2,1.6-4,3.9-4c2.3,0,3.8,1.8,3.8,4.2V92h-6c0.1,1.2,1,2.1,2.4,2.1c0.8,0,1.6-0.3,2.2-0.9
				l0.8,1.1c-0.8,0.7-1.9,1.1-3.1,1.1C45.9,95.5,44.2,93.9,44.2,91.5z M48.1,88.8c-1.4,0-2.1,1.1-2.2,2h4.4
				C50.3,89.9,49.6,88.8,48.1,88.8z"/>
			<path class="st4" d="M59,95.3v-1.1c-0.6,0.8-1.5,1.2-2.5,1.2c-2,0-3.4-1.5-3.4-4.1c0-2.5,1.4-4,3.4-4c1,0,1.9,0.4,2.5,1.3v-4h1.7
				v10.7H59z M59,93v-3.1c-0.4-0.6-1.2-1-2-1c-1.3,0-2.2,1.1-2.2,2.6s0.8,2.6,2.2,2.6C57.8,94,58.7,93.6,59,93z"/>
			<path class="st4" d="M62.7,85.6c0-0.6,0.5-1,1-1c0.6,0,1,0.5,1,1s-0.5,1-1,1C63.2,86.7,62.7,86.2,62.7,85.6z M62.9,95.3v-7.7h1.7
				v7.7H62.9z"/>
			<path class="st4" d="M71.5,95.3v-0.8c-0.6,0.7-1.5,1-2.5,1c-1.2,0-2.7-0.9-2.7-2.6c0-1.8,1.4-2.5,2.7-2.5c1.1,0,1.9,0.3,2.5,1
				v-1.2c0-0.9-0.8-1.4-1.8-1.4c-0.9,0-1.6,0.3-2.3,1l-0.7-1.2c0.9-0.9,2-1.2,3.2-1.2c1.7,0,3.2,0.7,3.2,2.8v5.1
				C73.1,95.3,71.5,95.3,71.5,95.3z M71.5,93.6v-1.2c-0.4-0.5-1.1-0.8-1.8-0.8c-0.9,0-1.7,0.6-1.7,1.4s0.7,1.4,1.7,1.4
				C70.4,94.4,71.1,94.1,71.5,93.6z"/>
			<path class="st4" d="M75.7,93.5V89h-1.3v-1.5h1.3v-2.1h1.7v2.1H79V89h-1.6v4c0,0.5,0.3,0.9,0.7,0.9c0.3,0,0.6-0.1,0.7-0.3
				l0.4,1.3c-0.3,0.3-0.8,0.5-1.6,0.5C76.4,95.5,75.7,94.8,75.7,93.5z"/>
			<path class="st4" d="M80,91.5c0-2.2,1.6-4,3.9-4s3.8,1.8,3.8,4.2V92h-6c0.1,1.2,1,2.1,2.4,2.1c0.8,0,1.6-0.3,2.2-0.9l0.8,1.1
				c-0.8,0.7-1.9,1.1-3.1,1.1C81.7,95.5,80,93.9,80,91.5z M83.9,88.8c-1.4,0-2.1,1.1-2.2,2h4.4C86,89.9,85.4,88.8,83.9,88.8z"/>
		</g>
	</g>
	<g id="Book1-5" transform="translate(16 898.409)">
		<g id="Caminho_6696-4" transform="translate(17.278)">
			<path class="st8" d="M25.6,67.6c-4.3,0-8.5-0.8-12.5-2.5c-3.8-1.6-7.2-3.9-10.2-6.9c-3-2.9-5.3-6.3-6.9-10.1
				c-1.7-4-2.5-8.2-2.5-12.5S-5.7,27-4,23.1c1.6-3.8,3.9-7.2,6.9-10.2S9.3,7.6,13.1,6c4-1.7,8.2-2.5,12.5-2.5S34.1,4.3,38.1,6
				c3.8,1.6,7.2,3.9,10.2,6.9c2.9,2.9,5.3,6.4,6.9,10.2c1.7,4,2.5,8.2,2.5,12.5s-0.8,8.5-2.5,12.5c-1.6,3.8-3.9,7.2-6.9,10.2
				c-2.9,2.9-6.4,5.3-10.2,6.9C34.1,66.8,29.9,67.6,25.6,67.6z"/>
			<path class="st4" d="M25.6,7C9.8,7-3,19.8-3,35.6S9.8,64.2,25.6,64.2s28.6-12.8,28.6-28.6S41.3,7,25.6,7 M25.6,0
				c19.6,0,35.6,15.9,35.6,35.6s-16,35.5-35.6,35.5S-10,55.2-10,35.6S5.9,0,25.6,0z"/>
		</g>
		<path id="Icon_material-lock-3" class="st9" d="M53.8,26.2H52v-3.7c0-5.1-4.1-9.1-9.2-9.1s-9.1,4.1-9.1,9.1v3.7h-1.8
			c-2,0-3.7,1.6-3.7,3.7v18.3c0,2,1.6,3.7,3.7,3.7h22c2,0,3.7-1.6,3.7-3.7V29.8C57.5,27.8,55.8,26.2,53.8,26.2z M42.9,42.6
			c-2,0-3.7-1.6-3.7-3.7s1.6-3.7,3.7-3.7s3.7,1.6,3.7,3.7l0,0C46.5,41,44.9,42.6,42.9,42.6z M48.5,26.2H37.2v-3.7
			c0-3.1,2.5-5.7,5.7-5.7c3.1,0,5.7,2.5,5.7,5.7L48.5,26.2z"/>
		<g class="st1">
			<path class="st10" d="M24.6,34.6v-8.2l-3.3,8.2h-0.8l-3.3-8.2v8.2h-1.9V23.9h2.6l2.9,7.3l2.9-7.3h2.6v10.7
				C26.3,34.6,24.6,34.6,24.6,34.6z"/>
			<path class="st10" d="M28.3,30.7c0-2.2,1.5-4,4-4s4,1.8,4,4s-1.5,4.1-4,4.1S28.3,32.9,28.3,30.7z M34.5,30.7
				c0-1.4-0.8-2.6-2.2-2.6c-1.4,0-2.2,1.2-2.2,2.6c0,1.4,0.8,2.6,2.2,2.6C33.7,33.3,34.5,32.1,34.5,30.7z"/>
			<path class="st10" d="M37.9,34.6v-7.7h1.7V28c0.6-0.7,1.5-1.3,2.5-1.3v1.7c-0.1,0-0.3,0-0.5,0c-0.7,0-1.7,0.5-2,1v5.3h-1.7V34.6z
				"/>
			<path class="st10" d="M43,30.7c0-2.2,1.6-4,3.9-4c2.3,0,3.8,1.8,3.8,4.2v0.4h-6c0.1,1.2,1,2.1,2.4,2.1c0.8,0,1.6-0.3,2.2-0.9
				l0.8,1.1c-0.8,0.7-1.9,1.1-3.1,1.1C44.7,34.8,43,33.1,43,30.7z M46.9,28c-1.4,0-2.1,1.1-2.2,2h4.4C49,29.1,48.4,28,46.9,28z"/>
			<path class="st10" d="M56.9,32.8v-4.5h-1.3v-1.5h1.3v-2.1h1.7v2.1h1.6v1.5h-1.6v4c0,0.5,0.3,0.9,0.7,0.9c0.3,0,0.6-0.1,0.7-0.3
				l0.4,1.3c-0.3,0.3-0.8,0.5-1.6,0.5C57.5,34.8,56.9,34.1,56.9,32.8z"/>
			<path class="st10" d="M61.1,30.7c0-2.2,1.5-4,4-4c2.5,0,4,1.8,4,4s-1.5,4.1-4,4.1C62.6,34.8,61.1,32.9,61.1,30.7z M67.3,30.7
				c0-1.4-0.8-2.6-2.2-2.6c-1.4,0-2.2,1.2-2.2,2.6c0,1.4,0.8,2.6,2.2,2.6C66.6,33.3,67.3,32.1,67.3,30.7z"/>
		</g>
		<g class="st1">
			<path class="st10" d="M21,46.7c0-2.3,1.6-4,4-4c1.5,0,2.4,0.6,3,1.4l-1.1,1c-0.4-0.6-1-0.9-1.8-0.9c-1.4,0-2.3,1.1-2.3,2.6
				s0.9,2.6,2.3,2.6c0.8,0,1.3-0.3,1.8-0.9l1.1,1c-0.5,0.7-1.4,1.4-3,1.4C22.6,50.8,21,49,21,46.7z"/>
			<path class="st10" d="M28.9,46.7c0-2.2,1.5-4,4-4s4,1.8,4,4s-1.5,4.1-4,4.1S28.9,48.9,28.9,46.7z M35.1,46.7
				c0-1.4-0.8-2.6-2.2-2.6c-1.4,0-2.2,1.2-2.2,2.6c0,1.4,0.8,2.6,2.2,2.6C34.3,49.3,35.1,48.1,35.1,46.7z"/>
			<path class="st10" d="M48.1,50.6v-5c0-0.8-0.4-1.4-1.3-1.4c-0.8,0-1.5,0.5-1.8,1v5.4h-1.7v-5c0-0.8-0.4-1.4-1.3-1.4
				c-0.8,0-1.4,0.5-1.8,1v5.4h-1.7v-7.7h1.7v1c0.3-0.5,1.3-1.2,2.5-1.2s1.9,0.6,2.1,1.4c0.4-0.7,1.5-1.4,2.6-1.4
				c1.4,0,2.2,0.8,2.2,2.3v5.6C49.6,50.6,48.1,50.6,48.1,50.6z"/>
			<path class="st10" d="M51.5,46.7c0-2.2,1.6-4,3.9-4s3.8,1.8,3.8,4.2v0.4h-6c0.1,1.2,1,2.1,2.4,2.1c0.8,0,1.6-0.3,2.2-0.9l0.8,1.1
				c-0.8,0.7-1.9,1.1-3.1,1.1C53.2,50.8,51.5,49.1,51.5,46.7z M55.4,44c-1.4,0-2.1,1.1-2.2,2h4.4C57.5,45.1,56.9,44,55.4,44z"/>
			<path class="st10" d="M60.6,49.6c0-0.6,0.5-1.1,1.1-1.1s1.1,0.5,1.1,1.1s-0.5,1.1-1.1,1.1S60.6,50.2,60.6,49.6z M61,47.3
				l-0.3-7.4h2l-0.3,7.4H61z"/>
		</g>
	</g>
</g>
</svg>
