<?xml version="1.0" encoding="utf-8"?>
<!-- Generator: Adobe Illustrator 25.0.1, SVG Export Plug-In . SVG Version: 6.00 Build 0)  -->
<svg version="1.1" id="Camada_1" xmlns="http://www.w3.org/2000/svg" xmlns:xlink="http://www.w3.org/1999/xlink" x="0px" y="0px"
	 viewBox="0 0 1001.4 1343.2" style="enable-background:new 0 0 1001.4 1343.2;" xml:space="preserve">
<style type="text/css">
	.st0{fill:none;stroke:#3AA252;stroke-width:8;stroke-dasharray:17,7;}
	.st1{fill:#FFFFFF;}
	.st2{fill:none;stroke:#BFBFBF;stroke-width:8;}
	.st3{fill:#BFBFBF;}
	.st4{fill:none;stroke:#707070;stroke-width:8.0036;stroke-miterlimit:4.0018;stroke-dasharray:17.0077,7.0032;}
	.st5{fill:none;stroke:#3277B4;stroke-width:8;stroke-dasharray:17,7;}
	.st6{fill:none;stroke:#E5A11B;stroke-width:8;stroke-dasharray:17,7;}
	.st7{fill:none;stroke:#F86464;stroke-width:16;}
	.st8{fill:none;stroke:#F86464;stroke-width:16;stroke-dasharray:17,7;}
	.st9{fill:none;stroke:#F86464;stroke-width:7;}
	.st10{fill:none;stroke:#F86464;stroke-width:8;}
	.st11{enable-background:new    ;}
	.st12{fill:#F86464;}
	.st13{opacity:0.5;fill:#F86464;enable-background:new    ;}
	.st14{opacity:0.7;clip-path:url(#SVGID_2_);fill:url(#SVGID_3_);}
</style>
<g>
	<path id="Vegan_path_Unexplored_1_" class="st0" d="M566.5,812.8c-71.6-83.8-161.6-106.9-248-101.6S118.9,775.3,83.3,865.3
		s-17.7,200.6,37.4,251.2c35.1,32.2,95.2,63.2,136.1,18.7"/>
	<g id="Elipse_308" transform="translate(208.407 784)">
		<circle class="st1" cx="232.4" cy="-55.8" r="35"/>
		<circle class="st2" cx="232.4" cy="-55.8" r="31"/>
	</g>
	<g id="Elipse_309" transform="translate(47.407 775)">
		<circle class="st1" cx="232.4" cy="-55.8" r="35"/>
		<circle class="st2" cx="232.4" cy="-55.8" r="31"/>
	</g>
	<g id="Elipse_310" transform="translate(-111.593 854)">
		<circle class="st1" cx="232.4" cy="-55.8" r="35"/>
		<circle class="st2" cx="232.4" cy="-55.8" r="31"/>
	</g>
	<g id="Elipse_311" transform="translate(-169.593 992)">
		<circle class="st1" cx="232.4" cy="-55.8" r="35"/>
		<circle class="st2" cx="232.4" cy="-55.8" r="31"/>
	</g>
	<g id="Elipse_312" transform="translate(-146.593 1130)">
		<circle class="st1" cx="232.4" cy="-55.8" r="35"/>
		<circle class="st2" cx="232.4" cy="-55.8" r="31"/>
	</g>
	<g id="Elipse_313" transform="translate(12.407 1196)">
		<circle class="st1" cx="232.4" cy="-47.8" r="35"/>
		<circle class="st2" cx="232.4" cy="-47.8" r="31"/>
	</g>
	<path id="Icon_material-lock-14" class="st3" d="M449.8,721h-1.5v-3c0-4.1-3.4-7.5-7.5-7.5s-7.5,3.4-7.5,7.5v3h-1.5
		c-1.7,0-3,1.3-3,3v15c0,1.7,1.3,3,3,3h18c1.7,0,3-1.3,3-3v-15C452.8,722.3,451.5,721,449.8,721z M440.8,734.4c-1.7,0-3-1.3-3-3
		s1.3-3,3-3s3,1.3,3,3S442.5,734.4,440.8,734.4z M445.5,721h-9.3v-3c0-2.6,2.1-4.7,4.6-4.7c2.6,0,4.7,2.1,4.7,4.6l0,0L445.5,721
		L445.5,721z"/>
	<path id="Icon_material-lock-15" class="st3" d="M288.8,712h-1.5v-3c0-4.1-3.4-7.5-7.5-7.5s-7.5,3.4-7.5,7.5v3h-1.5
		c-1.7,0-3,1.3-3,3v15c0,1.7,1.3,3,3,3h18c1.7,0,3-1.3,3-3v-15C291.8,713.4,290.5,712.1,288.8,712z M279.8,725.6c-1.7,0-3-1.3-3-3
		s1.3-3,3-3c1.7,0,3,1.3,3,3C282.8,724.2,281.5,725.5,279.8,725.6z M284.5,712h-9.3v-3c0-2.6,2.1-4.7,4.6-4.7c2.6,0,4.7,2.1,4.7,4.6
		l0,0C284.5,708.9,284.5,712,284.5,712z"/>
	<path id="Icon_material-lock-16" class="st3" d="M129.8,791h-1.5v-3c0-4.1-3.4-7.5-7.5-7.5s-7.5,3.4-7.5,7.5v3h-1.5
		c-1.7,0-3,1.3-3,3v15c0,1.7,1.3,3,3,3h18c1.7,0,3-1.3,3-3v-15C132.8,792.4,131.5,791.1,129.8,791z M120.8,804.6c-1.7,0-3-1.3-3-3
		s1.3-3,3-3s3,1.3,3,3C123.8,803.2,122.5,804.5,120.8,804.6z M125.5,791h-9.3v-3c0-2.6,2.1-4.7,4.6-4.7c2.6,0,4.7,2.1,4.7,4.6l0,0
		C125.5,787.9,125.5,791,125.5,791z"/>
	<path id="Icon_material-lock-17" class="st3" d="M71.8,929h-1.5v-3c0-4.1-3.4-7.5-7.5-7.5s-7.5,3.4-7.5,7.5v3h-1.5
		c-1.7,0-3,1.3-3,3v15c0,1.7,1.3,3,3,3h18c1.7,0,3-1.3,3-3v-15C74.8,930.3,73.5,929,71.8,929z M62.8,942.4c-1.7,0-3-1.3-3-3
		s1.3-3,3-3c1.7,0,3,1.3,3,3S64.5,942.4,62.8,942.4z M67.5,929h-9.3v-3c0-2.6,2.1-4.7,4.6-4.7c2.6,0,4.7,2.1,4.7,4.6l0,0V929z"/>
	<path id="Icon_material-lock-18" class="st3" d="M94.8,1067h-1.5v-3c0-4.1-3.4-7.5-7.5-7.5s-7.5,3.4-7.5,7.5v3h-1.5
		c-1.7,0-3,1.3-3,3v15c0,1.7,1.3,3,3,3h18c1.7,0,3-1.3,3-3v-15C97.8,1068.3,96.5,1067,94.8,1067z M85.8,1080.4c-1.7,0-3-1.3-3-3
		s1.3-3,3-3c1.7,0,3,1.3,3,3C88.8,1079.1,87.5,1080.4,85.8,1080.4z M90.5,1067h-9.3v-3c0-2.6,2.1-4.7,4.6-4.7c2.6,0,4.7,2.1,4.7,4.6
		l0,0C90.5,1063.9,90.5,1067,90.5,1067z"/>
	<path id="Icon_material-lock-19" class="st3" d="M253.8,1141h-1.5v-3c0-4.1-3.4-7.5-7.5-7.5s-7.5,3.4-7.5,7.5v3h-1.5
		c-1.7,0-3,1.3-3,3v15c0,1.7,1.3,3,3,3h18c1.7,0,3-1.3,3-3v-15C256.8,1142.4,255.5,1141,253.8,1141z M244.8,1154.5c-1.7,0-3-1.3-3-3
		s1.3-3,3-3s3,1.3,3,3S246.5,1154.5,244.8,1154.5z M249.5,1141h-9.3v-3c0-2.6,2.1-4.7,4.6-4.7c2.6,0,4.7,2.1,4.7,4.6l0,0V1141z"/>
</g>
<g id="Grupo_2055" transform="translate(169.593 26)">
	<g id="Xmas_path">
		<path id="Xmas_path_Unexplored" class="st4" d="M418.2,660c53.6,42.2,128.8,67.5,181.7,38.8c52.8-28.7,102.9-120.7,76.5-166.1
			s-141.2-35.5-168.3-73.9c-27.1-38.4-12.8-130.2,69.1-115.5"/>
		<g id="Elipse_300" transform="translate(599.407 642)">
			<circle class="st1" cx="-30.8" cy="66.6" r="35"/>
			<circle class="st2" cx="-30.8" cy="66.6" r="31"/>
		</g>
		<g id="Elipse_301" transform="translate(712.407 476)">
			<circle class="st1" cx="-30.8" cy="66.6" r="35"/>
			<circle class="st2" cx="-30.8" cy="66.6" r="31"/>
		</g>
		<g id="Elipse_302" transform="translate(580.407 412)">
			<circle class="st1" cx="-30.8" cy="66.6" r="35"/>
			<circle class="st2" cx="-30.8" cy="66.6" r="31"/>
		</g>
		<g id="Elipse_303" transform="translate(610.407 282)">
			<circle class="st1" cx="-30.8" cy="66.6" r="35"/>
			<circle class="st2" cx="-30.8" cy="66.6" r="31"/>
		</g>
	</g>
	<path id="Cuisine_path_Unexplored_1_" class="st5" d="M343.1,212.8c31.1,15,101.6,4.5,126.4-27.2C494.2,154,498.3,66,555.9,47.3
		c57.6-18.7,143.6,2.8,176.4,62.9s15.8,123.3-26.8,189.4s-1.2,163.8,83.9,161"/>
	<g id="Elipse_291" transform="translate(505.407 119)">
		<circle class="st1" cx="-30.8" cy="66.6" r="35"/>
		<circle class="st2" cx="-30.8" cy="66.6" r="31"/>
	</g>
	<g id="Elipse_292" transform="translate(657.407 -26)">
		<circle class="st1" cx="-57.8" cy="66.6" r="35"/>
		<circle class="st2" cx="-57.8" cy="66.6" r="31"/>
	</g>
	<g id="Elipse_293" transform="translate(782.407 146)">
		<circle class="st1" cx="-34.8" cy="1.6" r="35"/>
		<circle class="st2" cx="-34.8" cy="1.6" r="31"/>
	</g>
	<g id="Elipse_294" transform="translate(727.407 301)">
		<circle class="st1" cx="-21.8" cy="21.6" r="35"/>
		<circle class="st2" cx="-21.8" cy="21.6" r="31"/>
	</g>
	<g id="Elipse_295" transform="translate(839.407 398)">
		<circle class="st1" cx="-67.8" cy="66.6" r="35"/>
		<circle class="st2" cx="-67.8" cy="66.6" r="31"/>
	</g>
	<g id="Patisserie_path">
		<path id="Patisserie_path_Unexplored" class="st6" d="M303.3,239.2c-11.5,32.4-20.8,76.7-56.4,95.5s-99.1,1.4-127.4,40.6
			s-5.8,66.5,10.3,85.4s38.9,35.5,38.6,74.4c-0.2,38.9-40.1,71.3-102.7,65.5s-80.1-54.2-71.5-97.7s-44.6-71.5-73.9-72.7"/>
		<g id="Elipse_286" transform="translate(267.407 266)">
			<circle class="st1" cx="-30.8" cy="66.6" r="35"/>
			<circle class="st2" cx="-30.8" cy="66.6" r="31"/>
		</g>
		<g id="Elipse_287" transform="translate(145.407 363)">
			<circle class="st1" cx="-30.8" cy="66.6" r="35"/>
			<circle class="st2" cx="-30.8" cy="66.6" r="31"/>
		</g>
		<g id="Elipse_288" transform="translate(171.407 520)">
			<circle class="st1" cx="-30.8" cy="66.6" r="35"/>
			<circle class="st2" cx="-30.8" cy="66.6" r="31"/>
		</g>
		<g id="Elipse_289" transform="translate(28.407 480)">
			<circle class="st1" cx="-30.8" cy="66.6" r="35"/>
			<circle class="st2" cx="-30.8" cy="66.6" r="31"/>
		</g>
		<g id="Elipse_290" transform="translate(-41.593 363)">
			<circle class="st1" cx="-67.8" cy="66.6" r="35"/>
			<circle class="st2" cx="-67.8" cy="66.6" r="31"/>
		</g>
	</g>
	<g id="Main_path">
		<path id="Main_path_Completed" class="st7" d="M330.1,66.6c-37.3,75-27.2,120.4-22,141.4s55.9,110.7,48.5,150.8"/>
		<path id="Main_path_Unexplored_1_" class="st8" d="M355.4,364.7c-8.6,40.6-48.2,79.1-48.2,128.1s55.4,86.5,78,119.7
			s67,134.4,27.4,188.7c-33,45.3-55.5,58.5-99.8,111.9c-40,54.1-60.9,138.7-50,212.3c9.9,66.6,53.8,88.2,79.3,143.2"/>
		<g id="Elipse_283" transform="translate(361.407)">
			<circle class="st1" cx="-30.8" cy="66.6" r="35"/>
			<circle class="st9" cx="-30.8" cy="66.6" r="31.5"/>
		</g>
		<g id="Elipse_284" transform="translate(343.407 146)">
			<circle class="st1" cx="-30.8" cy="66.6" r="35"/>
			<circle class="st10" cx="-30.8" cy="66.6" r="31"/>
		</g>
		<g id="Elipse_285" transform="translate(388.407 292)">
			<circle class="st1" cx="-30.8" cy="66.6" r="35"/>
			<circle class="st2" cx="-30.8" cy="66.6" r="31"/>
		</g>
		<g id="Elipse_297" transform="translate(337.407 439)">
			<circle class="st1" cx="-30.8" cy="66.6" r="35"/>
			<circle class="st2" cx="-30.8" cy="66.6" r="31"/>
		</g>
		<g id="Elipse_298" transform="translate(431.407 570)">
			<circle class="st1" cx="-30.8" cy="66.6" r="35"/>
			<circle class="st2" cx="-30.8" cy="66.6" r="31"/>
		</g>
		<g id="Elipse_299" transform="translate(433.407 737)">
			<circle class="st1" cx="-30.8" cy="66.6" r="35"/>
			<circle class="st2" cx="-30.8" cy="66.6" r="31"/>
		</g>
		<g id="Elipse_304" transform="translate(330.407 870)">
			<circle class="st1" cx="-30.8" cy="66.6" r="35"/>
			<circle class="st2" cx="-30.8" cy="66.6" r="31"/>
		</g>
		<g id="Elipse_305" transform="translate(290.407 1017)">
			<circle class="st1" cx="-30.8" cy="66.6" r="35"/>
			<circle class="st2" cx="-30.8" cy="66.6" r="31"/>
		</g>
		<g id="Elipse_306" transform="translate(360.407 1179)">
			<circle class="st1" cx="-30.8" cy="66.6" r="35"/>
			<circle class="st2" cx="-30.8" cy="66.6" r="31"/>
		</g>
		<g>
			<g class="st11">
				<path class="st12" d="M241.2,56.6l-3.6-4.5l-0.9,1.1v3.4h-1.9V45.9h1.9V51l4.2-5.1h2.3l-4.3,5l4.7,5.7
					C243.6,56.6,241.2,56.6,241.2,56.6z"/>
				<path class="st12" d="M244.5,46.9c0-0.6,0.5-1,1-1c0.6,0,1,0.5,1,1s-0.5,1-1,1C244.9,47.9,244.5,47.4,244.5,46.9z M244.7,56.6
					v-7.7h1.7v7.7H244.7z"/>
				<path class="st12" d="M248.9,54.8v-4.5h-1.3v-1.5h1.3v-2.1h1.7v2.1h1.6v1.5h-1.6v4c0,0.5,0.3,0.9,0.7,0.9c0.3,0,0.6-0.1,0.7-0.3
					l0.4,1.3c-0.3,0.3-0.8,0.5-1.6,0.5C249.6,56.8,248.9,56.1,248.9,54.8z"/>
				<path class="st12" d="M253.2,52.7c0-2.3,1.6-4,4-4c1.5,0,2.4,0.6,3,1.4l-1.1,1c-0.4-0.6-1-0.9-1.8-0.9c-1.4,0-2.3,1.1-2.3,2.6
					s0.9,2.6,2.3,2.6c0.8,0,1.3-0.3,1.8-0.9l1.1,1c-0.5,0.7-1.4,1.4-3,1.4C254.8,56.8,253.2,55,253.2,52.7z"/>
				<path class="st12" d="M266.8,56.6v-4.9c0-1.2-0.6-1.6-1.6-1.6c-0.9,0-1.6,0.5-2,1v5.4h-1.7V45.9h1.7v4c0.5-0.6,1.5-1.2,2.7-1.2
					c1.7,0,2.5,0.9,2.5,2.4v5.5H266.8z"/>
				<path class="st12" d="M270.2,52.7c0-2.2,1.6-4,3.9-4c2.3,0,3.8,1.8,3.8,4.2v0.4h-6c0.1,1.2,1,2.1,2.4,2.1c0.8,0,1.6-0.3,2.2-0.9
					l0.8,1.1c-0.8,0.7-1.9,1.1-3.1,1.1C271.9,56.8,270.2,55.2,270.2,52.7z M274.1,50c-1.4,0-2.1,1.1-2.2,2h4.4
					C276.3,51.2,275.6,50,274.1,50z"/>
				<path class="st12" d="M284.8,56.6v-4.8c0-1.2-0.6-1.6-1.6-1.6c-0.8,0-1.6,0.5-2,1v5.4h-1.7v-7.7h1.7v1c0.5-0.6,1.5-1.2,2.7-1.2
					c1.7,0,2.5,0.9,2.5,2.5v5.4C286.4,56.6,284.8,56.6,284.8,56.6z"/>
			</g>
			<g class="st11">
				<path class="st12" d="M245.4,75.1l1.1-1.5c0.7,0.8,1.9,1.5,3.4,1.5s2.1-0.8,2.1-1.5c0-2.2-6.2-0.8-6.2-4.8
					c0-1.8,1.5-3.1,3.9-3.1c1.6,0,3,0.5,4,1.5l-1.1,1.4c-0.8-0.8-2-1.2-3.1-1.2s-1.8,0.5-1.8,1.3c0,2,6.2,0.8,6.2,4.7
					c0,1.8-1.3,3.3-4.1,3.3C247.8,76.8,246.4,76.1,245.4,75.1z"/>
				<path class="st12" d="M255.2,71.2c0-3.2,2.3-5.5,5.5-5.5c3.2,0,5.5,2.3,5.5,5.5c0,3.2-2.3,5.5-5.5,5.5
					C257.4,76.8,255.2,74.4,255.2,71.2z M264.2,71.2c0-2.2-1.4-3.9-3.5-3.9c-2.2,0-3.5,1.6-3.5,3.9c0,2.2,1.4,3.9,3.5,3.9
					S264.2,73.4,264.2,71.2z"/>
				<path class="st12" d="M267.2,75.1l1.1-1.5c0.7,0.8,1.9,1.5,3.4,1.5s2.1-0.8,2.1-1.5c0-2.2-6.2-0.8-6.2-4.8
					c0-1.8,1.5-3.1,3.9-3.1c1.6,0,3,0.5,4,1.5l-1.1,1.4c-0.8-0.8-2-1.2-3.1-1.2s-1.8,0.5-1.8,1.3c0,2,6.2,0.8,6.2,4.7
					c0,1.8-1.3,3.3-4.1,3.3C269.6,76.8,268.2,76.1,267.2,75.1z"/>
			</g>
		</g>
		<g>
			<g class="st11">
				<path class="st12" d="M224.3,174.6l-3.6-4.5l-0.9,1.1v3.4h-1.9v-10.7h1.9v5.1l4.2-5.1h2.3l-4.3,5l4.7,5.7H224.3z"/>
				<path class="st12" d="M227.6,164.9c0-0.6,0.5-1,1-1c0.6,0,1,0.5,1,1s-0.5,1-1,1C228,165.9,227.6,165.5,227.6,164.9z
					 M227.8,174.6v-7.7h1.7v7.7H227.8z"/>
				<path class="st12" d="M232,172.8v-4.5h-1.3v-1.5h1.3v-2.1h1.7v2.1h1.6v1.5h-1.6v4c0,0.5,0.3,0.9,0.7,0.9c0.3,0,0.6-0.1,0.7-0.3
					l0.4,1.3c-0.3,0.3-0.8,0.5-1.6,0.5C232.7,174.8,232,174.1,232,172.8z"/>
				<path class="st12" d="M236.3,170.7c0-2.3,1.6-4,4-4c1.5,0,2.4,0.6,3,1.4l-1.1,1c-0.4-0.6-1-0.9-1.8-0.9c-1.4,0-2.3,1.1-2.3,2.6
					s0.9,2.6,2.3,2.6c0.8,0,1.3-0.3,1.8-0.9l1.1,1c-0.5,0.7-1.4,1.4-3,1.4C237.9,174.8,236.3,173.1,236.3,170.7z"/>
				<path class="st12" d="M249.9,174.6v-4.9c0-1.2-0.6-1.6-1.6-1.6c-0.9,0-1.6,0.5-2,1v5.4h-1.7v-10.7h1.7v4
					c0.5-0.6,1.5-1.2,2.7-1.2c1.7,0,2.5,0.9,2.5,2.4v5.5h-1.6L249.9,174.6L249.9,174.6z"/>
				<path class="st12" d="M253.3,170.7c0-2.2,1.6-4,3.9-4c2.3,0,3.8,1.8,3.8,4.2v0.4h-6c0.1,1.2,1,2.1,2.4,2.1
					c0.8,0,1.6-0.3,2.2-0.9l0.8,1.1c-0.8,0.7-1.9,1.1-3.1,1.1C255,174.8,253.3,173.2,253.3,170.7z M257.2,168.1
					c-1.4,0-2.1,1.1-2.2,2h4.4C259.4,169.2,258.8,168.1,257.2,168.1z"/>
				<path class="st12" d="M267.9,174.6v-4.8c0-1.2-0.6-1.6-1.6-1.6c-0.8,0-1.6,0.5-2,1v5.4h-1.7v-7.7h1.7v1c0.5-0.6,1.5-1.2,2.7-1.2
					c1.7,0,2.5,0.9,2.5,2.5v5.4L267.9,174.6L267.9,174.6z"/>
			</g>
			<g class="st11">
				<path class="st12" d="M221.9,194.6v-10.7h5.3c2,0,3,1.2,3,2.7c0,1.3-0.9,2.2-1.9,2.4c1.2,0.2,2.1,1.3,2.1,2.6
					c0,1.7-1.1,2.9-3.1,2.9h-5.4L221.9,194.6L221.9,194.6z M228.3,186.9c0-0.8-0.5-1.4-1.5-1.4h-3v2.8h3
					C227.7,188.3,228.3,187.8,228.3,186.9z M228.5,191.5c0-0.8-0.6-1.5-1.6-1.5h-3.1v3h3.1C227.9,193,228.5,192.4,228.5,191.5z"/>
				<path class="st12" d="M237,194.6v-0.8c-0.6,0.7-1.5,1-2.5,1c-1.2,0-2.7-0.9-2.7-2.6c0-1.8,1.4-2.5,2.7-2.5c1.1,0,1.9,0.3,2.5,1
					v-1.2c0-0.9-0.8-1.4-1.8-1.4c-0.9,0-1.6,0.3-2.3,1l-0.7-1.2c0.9-0.9,2-1.2,3.2-1.2c1.7,0,3.2,0.7,3.2,2.8v5.1L237,194.6
					L237,194.6z M237,192.8v-1.2c-0.4-0.5-1.1-0.8-1.8-0.8c-0.9,0-1.7,0.6-1.7,1.4c0,0.8,0.7,1.4,1.7,1.4
					C235.9,193.6,236.6,193.4,237,192.8z"/>
				<path class="st12" d="M240.2,193.6l0.8-1.2c0.5,0.6,1.6,1.1,2.6,1.1s1.5-0.4,1.5-1c0-1.5-4.7-0.4-4.7-3.4c0-1.3,1.1-2.3,3-2.3
					c1.3,0,2.3,0.5,3,1.1l-0.7,1.2c-0.5-0.5-1.3-0.9-2.3-0.9c-0.9,0-1.4,0.4-1.4,1c0,1.4,4.7,0.3,4.7,3.4c0,1.4-1.1,2.4-3.2,2.4
					C242.2,194.8,241,194.4,240.2,193.6z"/>
				<path class="st12" d="M248.2,184.9c0-0.6,0.5-1,1-1s1,0.5,1,1s-0.5,1-1,1S248.2,185.5,248.2,184.9z M248.4,194.6v-7.7h1.7v7.7
					H248.4z"/>
				<path class="st12" d="M251.8,190.7c0-2.3,1.6-4,4-4c1.5,0,2.4,0.6,3,1.4l-1.1,1c-0.4-0.6-1-0.9-1.8-0.9c-1.4,0-2.3,1.1-2.3,2.6
					s0.9,2.6,2.3,2.6c0.8,0,1.3-0.3,1.8-0.9l1.1,1c-0.5,0.7-1.4,1.4-3,1.4C253.4,194.8,251.8,193.1,251.8,190.7z"/>
				<path class="st12" d="M259.6,193.6l0.8-1.2c0.5,0.6,1.6,1.1,2.6,1.1s1.5-0.4,1.5-1c0-1.5-4.7-0.4-4.7-3.4c0-1.3,1.1-2.3,3-2.3
					c1.3,0,2.3,0.5,3,1.1l-0.7,1.2c-0.5-0.5-1.3-0.9-2.3-0.9c-0.9,0-1.4,0.4-1.4,1c0,1.4,4.7,0.3,4.7,3.4c0,1.4-1.1,2.4-3.2,2.4
					C261.5,194.8,260.4,194.4,259.6,193.6z"/>
			</g>
		</g>
	</g>
	<path id="Icon_material-lock" class="st3" d="M409.6,630.1h-1.5v-3c0-4.1-3.4-7.5-7.5-7.5s-7.5,3.4-7.5,7.5v3h-1.5
		c-1.7,0-3,1.3-3,3v15c0,1.7,1.3,3,3,3h18c1.7,0,3-1.3,3-3v-15C412.6,631.4,411.3,630.1,409.6,630.1z M400.6,643.6c-1.7,0-3-1.3-3-3
		s1.3-3,3-3s3,1.3,3,3S402.3,643.6,400.6,643.6z M405.3,630.1H396v-3c0-2.6,2.1-4.7,4.6-4.7s4.7,2.1,4.7,4.6l0,0L405.3,630.1
		L405.3,630.1z"/>
	<path id="Icon_material-lock_1_" class="st3" d="M315.6,498.3h-1.5v-3c0-4.1-3.4-7.5-7.5-7.5s-7.5,3.4-7.5,7.5v3h-1.5
		c-1.7,0-3,1.3-3,3v15c0,1.7,1.3,3,3,3h18c1.7,0,3-1.3,3-3v-15C318.6,499.6,317.3,498.3,315.6,498.3z M306.6,511.8c-1.7,0-3-1.3-3-3
		s1.3-3,3-3s3,1.3,3,3S308.3,511.8,306.6,511.8z M311.3,498.3H302v-3c0-2.6,2.1-4.7,4.6-4.7s4.7,2.1,4.7,4.6l0,0L311.3,498.3
		L311.3,498.3z"/>
	<path id="Icon_material-lock_2_" class="st3" d="M366.6,351.9h-1.5v-3c0-4.1-3.4-7.5-7.5-7.5s-7.5,3.4-7.5,7.5v3h-1.5
		c-1.7,0-3,1.3-3,3v15c0,1.7,1.3,3,3,3h18c1.7,0,3-1.3,3-3v-15C369.6,353.2,368.3,351.9,366.6,351.9z M357.6,365.4c-1.7,0-3-1.3-3-3
		s1.3-3,3-3s3,1.3,3,3S359.3,365.4,357.6,365.4z M362.3,351.9H353v-3c0-2.6,2.1-4.7,4.6-4.7s4.7,2.1,4.7,4.6l0,0L362.3,351.9
		L362.3,351.9z"/>
	<path id="Icon_material-lock_3_" class="st3" d="M245.4,325.2h-1.5v-3c0-4.1-3.4-7.5-7.5-7.5s-7.5,3.4-7.5,7.5v3h-1.5
		c-1.7,0-3,1.3-3,3v15c0,1.7,1.3,3,3,3h18c1.7,0,3-1.3,3-3v-15C248.4,326.5,247.1,325.2,245.4,325.2z M236.4,338.7c-1.7,0-3-1.3-3-3
		s1.3-3,3-3s3,1.3,3,3S238.1,338.7,236.4,338.7z M241.1,325.2h-9.3v-3c0-2.6,2.1-4.7,4.6-4.7s4.7,2.1,4.7,4.6l0,0V325.2L241.1,325.2
		z"/>
	<path id="Icon_material-lock_4_" class="st3" d="M483.6,179.3h-1.5v-3c0-4.1-3.4-7.5-7.5-7.5s-7.5,3.4-7.5,7.5v3h-1.5
		c-1.7,0-3,1.3-3,3v15c0,1.7,1.3,3,3,3h18c1.7,0,3-1.3,3-3v-15C486.6,180.6,485.3,179.3,483.6,179.3z M474.6,192.8c-1.7,0-3-1.3-3-3
		s1.3-3,3-3s3,1.3,3,3S476.3,192.8,474.6,192.8z M479.3,179.3H470v-3c0-2.6,2.1-4.7,4.6-4.7s4.7,2.1,4.7,4.6l0,0L479.3,179.3
		L479.3,179.3z"/>
	<path id="Icon_material-lock-2" class="st3" d="M608.6,34h-1.5v-3c0-4.1-3.4-7.5-7.5-7.5s-7.5,3.4-7.5,7.5v3h-1.5c-1.7,0-3,1.3-3,3
		v15c0,1.7,1.3,3,3,3h18c1.7,0,3-1.3,3-3V37C611.6,35.3,610.3,34,608.6,34z M599.6,47.5c-1.7,0-3-1.3-3-3s1.3-3,3-3s3,1.3,3,3
		C602.6,46.1,601.3,47.5,599.6,47.5z M604.3,34H595v-3c0-2.6,2.1-4.7,4.6-4.7c2.6,0,4.7,2.1,4.7,4.6l0,0V34z"/>
	<path id="Icon_material-lock-3" class="st3" d="M756.6,140h-1.5v-3c0-4.1-3.4-7.5-7.5-7.5s-7.5,3.4-7.5,7.5v3h-1.5
		c-1.7,0-3,1.3-3,3v15c0,1.7,1.3,3,3,3h18c1.7,0,3-1.3,3-3v-15C759.6,141.3,758.3,140,756.6,140z M747.6,153.5c-1.7,0-3-1.3-3-3
		s1.3-3,3-3s3,1.3,3,3C750.6,152.1,749.3,153.5,747.6,153.5z M752.3,140H743v-3c0-2.6,2.1-4.7,4.6-4.7c2.6,0,4.7,2.1,4.7,4.6l0,0
		V140z"/>
	<path id="Icon_material-lock-4" class="st3" d="M714.6,316h-1.5v-3c0-4.1-3.4-7.5-7.5-7.5s-7.5,3.4-7.5,7.5v3h-1.5
		c-1.7,0-3,1.3-3,3v15c0,1.7,1.3,3,3,3h18c1.7,0,3-1.3,3-3v-15C717.6,317.3,716.3,316,714.6,316z M705.6,329.5c-1.7,0-3-1.3-3-3
		s1.3-3,3-3s3,1.3,3,3C708.6,328.1,707.3,329.5,705.6,329.5z M710.3,316H701v-3c0-2.6,2.1-4.7,4.6-4.7c2.6,0,4.7,2.1,4.7,4.6l0,0
		V316z"/>
	<path id="Icon_material-lock-5" class="st3" d="M779.6,457.2h-1.5v-3c0-4.1-3.4-7.5-7.5-7.5s-7.5,3.4-7.5,7.5v3h-1.5
		c-1.7,0-3,1.3-3,3v15c0,1.7,1.3,3,3,3h18c1.7,0,3-1.3,3-3v-15C782.6,458.6,781.3,457.2,779.6,457.2z M770.6,470.7c-1.7,0-3-1.3-3-3
		s1.3-3,3-3s3,1.3,3,3S772.3,470.7,770.6,470.7z M775.3,457.2H766v-3c0-2.6,2.1-4.7,4.6-4.7c2.6,0,4.7,2.1,4.7,4.6l0,0V457.2z"/>
	<path id="Icon_material-lock-7" class="st3" d="M588.9,341h-1.5v-3c0-4.1-3.4-7.5-7.5-7.5s-7.5,3.4-7.5,7.5v3h-1.5
		c-1.7,0-3,1.3-3,3v15c0,1.7,1.3,3,3,3h18c1.7,0,3-1.3,3-3v-15C591.9,342.3,590.5,341,588.9,341z M579.9,354.5c-1.7,0-3-1.3-3-3
		s1.3-3,3-3s3,1.3,3,3C582.9,353.1,581.5,354.5,579.9,354.5z M584.5,341h-9.3v-3c0-2.6,2.1-4.7,4.6-4.7c2.6,0,4.7,2.1,4.7,4.6l0,0
		V341z"/>
	<path id="Icon_material-lock-8" class="st3" d="M557.9,472h-1.5v-3c0-4.1-3.4-7.5-7.5-7.5s-7.5,3.4-7.5,7.5v3h-1.5
		c-1.7,0-3,1.3-3,3v15c0,1.7,1.3,3,3,3h18c1.7,0,3-1.3,3-3v-15C560.9,473.3,559.5,472,557.9,472z M548.9,485.5c-1.7,0-3-1.3-3-3
		s1.3-3,3-3s3,1.3,3,3C551.9,484.1,550.5,485.5,548.9,485.5z M553.5,472h-9.3v-3c0-2.6,2.1-4.7,4.6-4.7c2.6,0,4.7,2.1,4.7,4.6l0,0
		V472z"/>
	<path id="Icon_material-lock-9" class="st3" d="M690.6,536.1h-1.5v-3c0-4.1-3.4-7.5-7.5-7.5s-7.5,3.4-7.5,7.5v3h-1.5
		c-1.7,0-3,1.3-3,3v15c0,1.7,1.3,3,3,3h18c1.7,0,3-1.3,3-3v-15C693.6,537.4,692.3,536.1,690.6,536.1z M681.6,549.6c-1.7,0-3-1.3-3-3
		s1.3-3,3-3s3,1.3,3,3S683.3,549.6,681.6,549.6z M686.3,536.1H677v-3c0-2.6,2.1-4.7,4.6-4.7c2.6,0,4.7,2.1,4.7,4.6l0,0V536.1z"/>
	<path id="Icon_material-lock-10" class="st3" d="M577.9,702.4h-1.5v-3c0-4.1-3.4-7.5-7.5-7.5s-7.5,3.4-7.5,7.5v3h-1.5
		c-1.7,0-3,1.3-3,3v15c0,1.7,1.3,3,3,3h18c1.7,0,3-1.3,3-3v-15C580.9,703.7,579.5,702.4,577.9,702.4z M568.9,715.8c-1.7,0-3-1.3-3-3
		s1.3-3,3-3s3,1.3,3,3S570.5,715.8,568.9,715.8z M573.5,702.4h-9.3v-3c0-2.6,2.1-4.7,4.6-4.7c2.6,0,4.7,2.1,4.7,4.6l0,0V702.4z"/>
	<path id="Icon_material-lock-11" class="st3" d="M412.2,796.4h-1.5v-3c0-4.1-3.4-7.5-7.5-7.5s-7.5,3.4-7.5,7.5v3h-1.5
		c-1.7,0-3,1.3-3,3v15c0,1.7,1.3,3,3,3h18c1.7,0,3-1.3,3-3v-15C415.2,797.7,413.8,796.4,412.2,796.4z M403.2,809.8c-1.7,0-3-1.3-3-3
		s1.3-3,3-3s3,1.3,3,3S404.8,809.8,403.2,809.8z M407.8,796.4h-9.3v-3c0-2.6,2.1-4.7,4.6-4.7s4.7,2.1,4.7,4.6l0,0L407.8,796.4
		L407.8,796.4z"/>
	<path id="Icon_material-lock-12" class="st3" d="M308.6,930.1h-1.5v-3c0-4.1-3.4-7.5-7.5-7.5s-7.5,3.4-7.5,7.5v3h-1.5
		c-1.7,0-3,1.3-3,3v15c0,1.7,1.3,3,3,3h18c1.7,0,3-1.3,3-3v-15C311.6,931.4,310.3,930.1,308.6,930.1z M299.6,943.6c-1.7,0-3-1.3-3-3
		s1.3-3,3-3s3,1.3,3,3S301.3,943.6,299.6,943.6z M304.3,930.1H295v-3c0-2.6,2.1-4.7,4.6-4.7s4.7,2.1,4.7,4.6l0,0L304.3,930.1
		L304.3,930.1z"/>
	<path id="Icon_material-lock-13" class="st3" d="M268.6,1077.1h-1.5v-3c0-4.1-3.4-7.5-7.5-7.5c-4.1,0-7.5,3.4-7.5,7.5v3h-1.5
		c-1.7,0-3,1.3-3,3v15c0,1.7,1.3,3,3,3h18c1.7,0,3-1.3,3-3v-15C271.6,1078.4,270.3,1077.1,268.6,1077.1z M259.6,1090.6
		c-1.7,0-3-1.3-3-3s1.3-3,3-3c1.7,0,3,1.3,3,3S261.3,1090.6,259.6,1090.6z M264.3,1077.1H255v-3c0-2.6,2.1-4.7,4.6-4.7
		c2.6,0,4.7,2.1,4.7,4.6l0,0V1077.1L264.3,1077.1z"/>
	<path id="Icon_material-lock-22" class="st3" d="M339.1,1238.1h-1.5v-3c0-4.1-3.4-7.5-7.5-7.5s-7.5,3.4-7.5,7.5v3h-1.5
		c-1.7,0-3,1.3-3,3v15c0,1.7,1.3,3,3,3h18c1.7,0,3-1.3,3-3v-15C342.1,1239.4,340.8,1238.1,339.1,1238.1z M330.1,1251.6
		c-1.7,0-3-1.3-3-3s1.3-3,3-3s3,1.3,3,3S331.8,1251.6,330.1,1251.6z M334.8,1238.1h-9.3v-3c0-2.6,2.1-4.7,4.6-4.7
		c2.6,0,4.7,2.1,4.7,4.6l0,0L334.8,1238.1L334.8,1238.1z"/>
	<path id="Icon_material-lock-24" class="st3" d="M-100.4,422.1h-1.5v-3c0-4.1-3.4-7.5-7.5-7.5s-7.5,3.4-7.5,7.5v3h-1.5
		c-1.7,0-3,1.3-3,3v15c0,1.7,1.3,3,3,3h18c1.7,0,3-1.3,3-3v-15C-97.4,423.4-98.7,422.1-100.4,422.1z M-109.4,435.6c-1.7,0-3-1.3-3-3
		s1.3-3,3-3s3,1.3,3,3S-107.7,435.6-109.4,435.6z M-104.7,422.1h-9.3v-3c0-2.6,2.1-4.7,4.6-4.7s4.7,2.1,4.7,4.6l0,0V422.1z"/>
	<path id="Icon_material-lock-25" class="st3" d="M7.6,539.1H6.1v-3c0-4.1-3.4-7.5-7.5-7.5s-7.5,3.4-7.5,7.5v3h-1.5
		c-1.7,0-3,1.3-3,3v15c0,1.7,1.3,3,3,3h18c1.7,0,3-1.3,3-3v-15C10.6,540.4,9.3,539.1,7.6,539.1z M-1.4,552.6c-1.7,0-3-1.3-3-3
		s1.3-3,3-3s3,1.3,3,3S0.3,552.6-1.4,552.6z M3.3,539.1H-6v-3c0-2.6,2.1-4.7,4.6-4.7s4.7,2.1,4.7,4.6l0,0
		C3.3,536,3.3,539.1,3.3,539.1z"/>
	<path id="Icon_material-lock-26" class="st3" d="M150.6,580.1h-1.5v-3c0-4.1-3.4-7.5-7.5-7.5c-4.1,0-7.5,3.4-7.5,7.5v3h-1.5
		c-1.7,0-3,1.3-3,3v15c0,1.7,1.3,3,3,3h18c1.7,0,3-1.3,3-3v-15C153.6,581.4,152.3,580.1,150.6,580.1z M141.6,593.6c-1.7,0-3-1.3-3-3
		s1.3-3,3-3s3,1.3,3,3S143.3,593.6,141.6,593.6z M146.3,580.1H137v-3c0-2.6,2.1-4.7,4.6-4.7c2.6,0,4.7,2.1,4.7,4.6l0,0
		C146.3,577,146.3,580.1,146.3,580.1z"/>
	<path id="Icon_material-lock-27" class="st3" d="M123.6,422.1h-1.5v-3c0-4.1-3.4-7.5-7.5-7.5s-7.5,3.4-7.5,7.5v3h-1.5
		c-1.7,0-3,1.3-3,3v15c0,1.7,1.3,3,3,3h18c1.7,0,3-1.3,3-3v-15C126.6,423.4,125.3,422.1,123.6,422.1z M114.6,435.6c-1.7,0-3-1.3-3-3
		s1.3-3,3-3s3,1.3,3,3S116.3,435.6,114.6,435.6z M119.3,422.1H110v-3c0-2.6,2.1-4.7,4.6-4.7c2.6,0,4.7,2.1,4.7,4.6l0,0
		C119.3,419,119.3,422.1,119.3,422.1z"/>
</g>
<g id="Grupo_2294" transform="translate(-247.135 -223.001)">
	<path id="Icon_metro-bubble" class="st13" d="M654.6,529.2c-27.7,0-50.2-12.8-50.2-28.5c0-15.7,22.5-28.5,50.2-28.5
		c2.7,0,5.3,0.1,7.9,0.4c10.8-7.5,23.7-8.9,36.1-9.1v1.8c-6.8,2.3-12.6,6.5-12.6,11.3c0,0.6,0.1,1.3,0.2,1.9
		c11.4,5.2,18.6,13.2,18.6,22.1C704.8,516.5,682.4,529.2,654.6,529.2z"/>
	<g>
		<path class="st1" d="M630.9,493.1v-3.4h-3.8v3.4h-1.7v-8h1.7v3.1h3.8v-3.1h1.7v8H630.9z"/>
		<path class="st1" d="M637.7,493.1v-0.6c-0.4,0.5-1.1,0.8-1.8,0.8c-0.9,0-2-0.6-2-1.9c0-1.4,1.1-1.9,2-1.9c0.8,0,1.5,0.3,1.8,0.7
			v-0.7c0-0.6-0.5-1-1.3-1c-0.6,0-1.2,0.2-1.7,0.7l-0.6-1.1c0.7-0.6,1.6-0.9,2.5-0.9c1.3,0,2.5,0.5,2.5,2.2v3.7H637.7z M637.7,491.7
			V491c-0.3-0.3-0.7-0.5-1.2-0.5c-0.6,0-1.1,0.3-1.1,0.9s0.5,0.9,1.1,0.9C636.9,492.2,637.4,492,637.7,491.7z"/>
		<path class="st1" d="M642.2,493.1l-2.3-5.8h1.6l1.5,4l1.5-4h1.6l-2.3,5.8H642.2z"/>
		<path class="st1" d="M646.5,490.2c0-1.7,1.2-3,3-3c1.7,0,2.9,1.3,2.9,3.2v0.4h-4.3c0.1,0.7,0.7,1.3,1.7,1.3c0.5,0,1.2-0.2,1.5-0.6
			l0.7,1c-0.6,0.5-1.5,0.8-2.4,0.8C647.8,493.2,646.5,492,646.5,490.2z M649.5,488.4c-0.9,0-1.4,0.7-1.4,1.2h2.9
			C650.9,489.1,650.5,488.4,649.5,488.4z"/>
		<path class="st1" d="M656.1,492.3l0.7-1.1c0.4,0.4,1.3,0.8,2,0.8c0.7,0,1-0.3,1-0.6c0-0.9-3.4-0.2-3.4-2.4c0-1,0.8-1.8,2.4-1.8
			c1,0,1.8,0.3,2.3,0.8l-0.6,1.1c-0.3-0.4-1-0.7-1.7-0.7c-0.6,0-0.9,0.2-0.9,0.6c0,0.9,3.4,0.1,3.4,2.5c0,1.1-0.9,1.8-2.5,1.8
			C657.7,493.2,656.7,492.9,656.1,492.3z"/>
		<path class="st1" d="M661.9,490.2c0-1.6,1.2-3,3.1-3c1.9,0,3.1,1.4,3.1,3s-1.2,3-3.1,3C663.1,493.2,661.9,491.8,661.9,490.2z
			 M666.5,490.2c0-0.9-0.5-1.7-1.5-1.7c-0.9,0-1.5,0.8-1.5,1.7c0,0.9,0.5,1.7,1.5,1.7C665.9,491.9,666.5,491.1,666.5,490.2z"/>
		<path class="st1" d="M676.4,493.1v-3.7c0-0.5-0.2-0.9-0.9-0.9c-0.5,0-1,0.4-1.2,0.7v3.9h-1.5v-3.7c0-0.5-0.2-0.9-0.9-0.9
			c-0.5,0-1,0.4-1.2,0.7v3.9h-1.5v-5.8h1.5v0.7c0.3-0.3,1-0.9,1.9-0.9c0.9,0,1.4,0.4,1.6,1c0.3-0.5,1.1-1,2-1c1.1,0,1.7,0.6,1.7,1.8
			v4.2H676.4z"/>
		<path class="st1" d="M679.1,490.2c0-1.7,1.2-3,3-3c1.7,0,2.9,1.3,2.9,3.2v0.4h-4.3c0.1,0.7,0.7,1.3,1.7,1.3c0.5,0,1.2-0.2,1.5-0.6
			l0.7,1c-0.6,0.5-1.5,0.8-2.4,0.8C680.4,493.2,679.1,492,679.1,490.2z M682.1,488.4c-0.9,0-1.4,0.7-1.4,1.2h2.9
			C683.4,489.1,683.1,488.4,682.1,488.4z"/>
		<path class="st1" d="M625,502.2c0-1.7,1.2-3,3-3c1.7,0,2.9,1.3,2.9,3.2v0.4h-4.3c0.1,0.7,0.7,1.3,1.7,1.3c0.5,0,1.2-0.2,1.5-0.6
			l0.7,1c-0.6,0.5-1.5,0.8-2.4,0.8C626.4,505.2,625,504,625,502.2z M628,500.4c-0.9,0-1.4,0.7-1.4,1.2h2.9
			C629.4,501.1,629,500.4,628,500.4z"/>
		<path class="st1" d="M635.6,505.1l-1.3-2l-1.3,2h-1.7l2.1-3l-1.9-2.8h1.7l1.2,1.8l1.2-1.8h1.7l-1.9,2.8l2.1,3H635.6z"/>
		<path class="st1" d="M639.6,504.3v3h-1.5v-8h1.5v0.7c0.4-0.6,1.1-0.9,1.8-0.9c1.5,0,2.6,1.1,2.6,3c0,1.9-1.1,3-2.6,3
			C640.7,505.2,640.1,504.9,639.6,504.3z M642.4,502.2c0-1-0.6-1.7-1.5-1.7c-0.5,0-1,0.3-1.3,0.7v2c0.3,0.4,0.8,0.7,1.3,0.7
			C641.8,503.9,642.4,503.2,642.4,502.2z"/>
		<path class="st1" d="M644.7,502.2c0-1.7,1.2-3,3-3c1.7,0,2.9,1.3,2.9,3.2v0.4h-4.3c0.1,0.7,0.7,1.3,1.7,1.3c0.5,0,1.2-0.2,1.5-0.6
			l0.7,1c-0.6,0.5-1.5,0.8-2.4,0.8C646,505.2,644.7,504,644.7,502.2z M647.7,500.4c-0.9,0-1.4,0.7-1.4,1.2h2.9
			C649.1,501.1,648.7,500.4,647.7,500.4z"/>
		<path class="st1" d="M651.7,505.1v-5.8h1.5v0.8c0.4-0.5,1.1-0.9,1.8-0.9v1.5c-0.1,0-0.2,0-0.4,0c-0.5,0-1.2,0.3-1.4,0.7v3.8H651.7
			z"/>
		<path class="st1" d="M655.9,497.7c0-0.5,0.4-0.9,0.9-0.9c0.5,0,0.9,0.4,0.9,0.9c0,0.5-0.4,0.9-0.9,0.9
			C656.3,498.7,655.9,498.2,655.9,497.7z M656,505.1v-5.8h1.5v5.8H656z"/>
		<path class="st1" d="M658.7,502.2c0-1.7,1.2-3,3-3c1.7,0,2.9,1.3,2.9,3.2v0.4h-4.3c0.1,0.7,0.7,1.3,1.7,1.3c0.5,0,1.2-0.2,1.5-0.6
			l0.7,1c-0.6,0.5-1.5,0.8-2.4,0.8C660,505.2,658.7,504,658.7,502.2z M661.7,500.4c-0.9,0-1.4,0.7-1.4,1.2h2.9
			C663.1,501.1,662.7,500.4,661.7,500.4z"/>
		<path class="st1" d="M669.6,505.1v-3.5c0-0.8-0.4-1.1-1.1-1.1c-0.6,0-1.1,0.3-1.3,0.7v3.9h-1.5v-5.8h1.5v0.7
			c0.4-0.4,1.1-0.9,2-0.9c1.3,0,1.9,0.7,1.9,1.8v4.1H669.6z"/>
		<path class="st1" d="M672.3,502.2c0-1.8,1.3-3,3.1-3c1.2,0,1.9,0.5,2.3,1l-1,0.9c-0.3-0.4-0.7-0.6-1.2-0.6c-0.9,0-1.6,0.7-1.6,1.7
			s0.6,1.7,1.6,1.7c0.5,0,0.9-0.2,1.2-0.6l1,0.9c-0.4,0.5-1.1,1.1-2.3,1.1C673.6,505.2,672.3,504,672.3,502.2z"/>
		<path class="st1" d="M678.3,502.2c0-1.7,1.2-3,3-3c1.7,0,2.9,1.3,2.9,3.2v0.4h-4.3c0.1,0.7,0.7,1.3,1.7,1.3c0.5,0,1.2-0.2,1.5-0.6
			l0.7,1c-0.6,0.5-1.5,0.8-2.4,0.8C679.6,505.2,678.3,504,678.3,502.2z M681.3,500.4c-0.9,0-1.4,0.7-1.4,1.2h2.9
			C682.7,501.1,682.3,500.4,681.3,500.4z"/>
		<path class="st1" d="M685.8,501.6c0-1.4,1.8-1.6,1.8-2.4c0-0.4-0.3-0.7-0.9-0.7c-0.6,0-1.1,0.3-1.5,0.7l-1-1.1
			c0.6-0.8,1.6-1.2,2.6-1.2c1.5,0,2.5,0.8,2.5,1.9c0,1.8-2,1.9-2,2.9c0,0.2,0.1,0.4,0.2,0.5l-1.3,0.4
			C685.9,502.3,685.8,502,685.8,501.6z M685.8,504.2c0-0.5,0.4-1,1-1c0.5,0,1,0.4,1,1c0,0.5-0.4,1-1,1
			C686.2,505.2,685.8,504.8,685.8,504.2z"/>
		<path class="st1" d="M624.9,515.9l0.9-1.3c0.6,0.6,1.4,1.1,2.5,1.1c0.9,0,1.4-0.4,1.4-0.9c0-1.4-4.6-0.4-4.6-3.4
			c0-1.3,1.2-2.4,3-2.4c1.3,0,2.3,0.4,3.1,1.1l-0.9,1.3c-0.6-0.6-1.5-0.9-2.3-0.9c-0.7,0-1.1,0.3-1.1,0.8c0,1.3,4.6,0.4,4.6,3.4
			c0,1.5-1.1,2.6-3.2,2.6C626.8,517.2,625.6,516.7,624.9,515.9z"/>
		<path class="st1" d="M632.8,515.6v-3h-1v-1.3h1v-1.6h1.5v1.6h1.2v1.3h-1.2v2.6c0,0.4,0.2,0.6,0.5,0.6c0.2,0,0.4-0.1,0.5-0.2
			l0.3,1.2c-0.2,0.2-0.6,0.4-1.3,0.4C633.3,517.2,632.8,516.7,632.8,515.6z"/>
		<path class="st1" d="M640,517.1v-0.6c-0.4,0.5-1.1,0.8-1.8,0.8c-0.9,0-2-0.6-2-1.9c0-1.4,1.1-1.9,2-1.9c0.8,0,1.5,0.3,1.8,0.7
			v-0.7c0-0.6-0.5-1-1.3-1c-0.6,0-1.2,0.2-1.7,0.7l-0.6-1.1c0.7-0.6,1.6-0.9,2.5-0.9c1.3,0,2.5,0.5,2.5,2.2v3.7H640z M640,515.7V515
			c-0.3-0.3-0.7-0.5-1.2-0.5c-0.6,0-1.1,0.3-1.1,0.9s0.5,0.9,1.1,0.9C639.2,516.2,639.7,516,640,515.7z"/>
		<path class="st1" d="M643,517.1v-5.8h1.5v0.8c0.4-0.5,1.1-0.9,1.8-0.9v1.5c-0.1,0-0.2,0-0.4,0c-0.5,0-1.2,0.3-1.4,0.7v3.8H643z"/>
		<path class="st1" d="M647.6,515.6v-3h-1v-1.3h1v-1.6h1.5v1.6h1.2v1.3h-1.2v2.6c0,0.4,0.2,0.6,0.5,0.6c0.2,0,0.4-0.1,0.5-0.2
			l0.3,1.2c-0.2,0.2-0.6,0.4-1.3,0.4C648.2,517.2,647.6,516.7,647.6,515.6z"/>
		<path class="st1" d="M658.4,517.1v-3.5c0-0.8-0.4-1.1-1.1-1.1c-0.6,0-1.1,0.3-1.3,0.7v3.9h-1.5v-8h1.5v3c0.4-0.4,1.1-0.9,2-0.9
			c1.3,0,1.9,0.7,1.9,1.8v4.1H658.4z"/>
		<path class="st1" d="M661.1,514.2c0-1.7,1.2-3,3-3c1.7,0,2.9,1.3,2.9,3.2v0.4h-4.3c0.1,0.7,0.7,1.3,1.7,1.3c0.5,0,1.2-0.2,1.5-0.6
			l0.7,1c-0.6,0.5-1.5,0.8-2.4,0.8C662.4,517.2,661.1,516,661.1,514.2z M664.1,512.4c-0.9,0-1.4,0.7-1.4,1.2h2.9
			C665.4,513.1,665.1,512.4,664.1,512.4z"/>
		<path class="st1" d="M668.1,517.1v-5.8h1.5v0.8c0.4-0.5,1.1-0.9,1.8-0.9v1.5c-0.1,0-0.2,0-0.4,0c-0.5,0-1.2,0.3-1.4,0.7v3.8H668.1
			z"/>
		<path class="st1" d="M672,514.2c0-1.7,1.2-3,3-3c1.7,0,2.9,1.3,2.9,3.2v0.4h-4.3c0.1,0.7,0.7,1.3,1.7,1.3c0.5,0,1.2-0.2,1.5-0.6
			l0.7,1c-0.6,0.5-1.5,0.8-2.4,0.8C673.3,517.2,672,516,672,514.2z M675,512.4c-0.9,0-1.4,0.7-1.4,1.2h2.9
			C676.4,513.1,676,512.4,675,512.4z"/>
		<path class="st1" d="M678.8,516.2c0-0.5,0.4-1,1-1s1,0.4,1,1c0,0.5-0.4,1-1,1S678.8,516.8,678.8,516.2z"/>
	</g>
</g>
<g id="Grupo_2293" transform="translate(-449.848 11.999)">
	<path id="Icon_metro-bubble_1_" class="st13" d="M1018.8,10.2c22.8,0,41.3,15,41.3,33.5s-18.5,33.5-41.3,33.5
		c-2.1,0-4.3-0.1-6.4-0.4c-8.9,8.9-19.4,10.5-29.6,10.6v-2.1c5.5-2.7,10.3-7.6,10.3-13.2c0-0.7-0.1-1.6-0.2-2.3
		c-9.3-6.1-15.3-15.5-15.3-26C977.6,25.2,996.1,10.2,1018.8,10.2L1018.8,10.2z"/>
	<g>
		<path class="st1" d="M991.9,31.7c0-2.5,1.9-4.1,4.3-4.1c1.8,0,2.8,0.9,3.3,2l-1.5,0.7c-0.3-0.6-1.1-1.2-1.9-1.2
			c-1.5,0-2.5,1.1-2.5,2.6c0,1.5,1.1,2.6,2.5,2.6c0.8,0,1.5-0.5,1.9-1.2l1.5,0.7c-0.6,1-1.6,2-3.3,2
			C993.8,35.9,991.9,34.2,991.9,31.7z"/>
		<path class="st1" d="M1000.1,32.8c0-1.6,1.2-3,3.1-3c1.9,0,3.1,1.4,3.1,3c0,1.6-1.2,3-3.1,3C1001.3,35.9,1000.1,34.5,1000.1,32.8z
			 M1004.7,32.8c0-0.9-0.5-1.7-1.5-1.7c-0.9,0-1.5,0.8-1.5,1.7c0,0.9,0.5,1.7,1.5,1.7C1004.1,34.5,1004.7,33.8,1004.7,32.8z"/>
		<path class="st1" d="M1014.6,35.7v-3.7c0-0.5-0.2-0.9-0.9-0.9c-0.5,0-1,0.4-1.2,0.7v3.9h-1.5v-3.7c0-0.5-0.2-0.9-0.9-0.9
			c-0.5,0-1,0.4-1.2,0.7v3.9h-1.5v-5.8h1.5v0.7c0.3-0.3,1-0.9,1.9-0.9c0.9,0,1.4,0.4,1.6,1c0.3-0.5,1.1-1,2-1c1.1,0,1.7,0.6,1.7,1.8
			v4.2H1014.6z"/>
		<path class="st1" d="M1019.2,35v3h-1.5v-8h1.5v0.7c0.4-0.6,1.1-0.9,1.8-0.9c1.5,0,2.6,1.1,2.6,3c0,1.9-1.1,3-2.6,3
			C1020.3,35.9,1019.6,35.6,1019.2,35z M1021.9,32.8c0-1-0.6-1.7-1.5-1.7c-0.5,0-1,0.3-1.3,0.7v2c0.3,0.4,0.8,0.7,1.3,0.7
			C1021.3,34.5,1021.9,33.8,1021.9,32.8z"/>
		<path class="st1" d="M1024.6,35.7v-8h1.5v8H1024.6z"/>
		<path class="st1" d="M1027.3,32.8c0-1.7,1.2-3,3-3c1.7,0,2.9,1.3,2.9,3.2v0.4h-4.3c0.1,0.7,0.7,1.3,1.7,1.3c0.5,0,1.2-0.2,1.5-0.6
			l0.7,1c-0.6,0.5-1.5,0.8-2.4,0.8C1028.6,35.9,1027.3,34.7,1027.3,32.8z M1030.3,31.1c-0.9,0-1.4,0.7-1.4,1.2h2.9
			C1031.7,31.7,1031.3,31.1,1030.3,31.1z"/>
		<path class="st1" d="M1034.6,34.3v-3h-1v-1.3h1v-1.6h1.5v1.6h1.2v1.3h-1.2v2.6c0,0.4,0.2,0.6,0.5,0.6c0.2,0,0.4-0.1,0.5-0.2
			l0.3,1.2c-0.2,0.2-0.6,0.4-1.3,0.4C1035.2,35.9,1034.6,35.3,1034.6,34.3z"/>
		<path class="st1" d="M1038,32.8c0-1.7,1.2-3,3-3c1.7,0,2.9,1.3,2.9,3.2v0.4h-4.3c0.1,0.7,0.7,1.3,1.7,1.3c0.5,0,1.2-0.2,1.5-0.6
			l0.7,1c-0.6,0.5-1.5,0.8-2.4,0.8C1039.3,35.9,1038,34.7,1038,32.8z M1041,31.1c-0.9,0-1.4,0.7-1.4,1.2h2.9
			C1042.4,31.7,1042,31.1,1041,31.1z"/>
		<path class="st1" d="M992.3,47.7v-8h1.5v3c0.5-0.6,1.1-0.9,1.8-0.9c1.5,0,2.6,1.2,2.6,3c0,1.9-1.1,3-2.6,3c-0.7,0-1.3-0.3-1.8-0.9
			v0.7H992.3z M995.1,46.5c0.9,0,1.5-0.7,1.5-1.7c0-1-0.6-1.7-1.5-1.7c-0.5,0-1.1,0.3-1.3,0.7v2.1C994,46.3,994.6,46.5,995.1,46.5z"
			/>
		<path class="st1" d="M998.9,44.8c0-1.7,1.2-3,3-3c1.7,0,2.9,1.3,2.9,3.2v0.4h-4.3c0.1,0.7,0.7,1.3,1.7,1.3c0.5,0,1.2-0.2,1.5-0.6
			l0.7,1c-0.6,0.5-1.5,0.8-2.4,0.8C1000.2,47.9,998.9,46.7,998.9,44.8z M1001.9,43.1c-0.9,0-1.4,0.7-1.4,1.2h2.9
			C1003.3,43.7,1002.9,43.1,1001.9,43.1z"/>
		<path class="st1" d="M1005.8,49.2l0.7-1.1c0.5,0.5,1.1,0.7,1.8,0.7c0.7,0,1.6-0.3,1.6-1.5v-0.6c-0.5,0.6-1.1,0.9-1.8,0.9
			c-1.4,0-2.6-1-2.6-2.9c0-1.9,1.1-3,2.6-3c0.7,0,1.3,0.3,1.8,0.9v-0.7h1.5v5.4c0,2.2-1.7,2.7-3.1,2.7
			C1007.3,50.1,1006.5,49.9,1005.8,49.2z M1009.9,45.7v-1.9c-0.3-0.4-0.8-0.6-1.3-0.6c-0.9,0-1.5,0.6-1.5,1.6s0.6,1.6,1.5,1.6
			C1009.1,46.4,1009.6,46.1,1009.9,45.7z"/>
		<path class="st1" d="M1012.8,40.4c0-0.5,0.4-0.9,0.9-0.9c0.5,0,0.9,0.4,0.9,0.9c0,0.5-0.4,0.9-0.9,0.9
			C1013.2,41.3,1012.8,40.9,1012.8,40.4z M1012.9,47.7v-5.8h1.5v5.8H1012.9z"/>
		<path class="st1" d="M1019.9,47.7v-3.5c0-0.8-0.4-1.1-1.1-1.1c-0.6,0-1.1,0.3-1.3,0.7v3.9h-1.5v-5.8h1.5v0.7
			c0.4-0.4,1.1-0.9,2-0.9c1.3,0,1.9,0.7,1.9,1.8v4.1H1019.9z"/>
		<path class="st1" d="M1026.8,47.7v-3.5c0-0.8-0.4-1.1-1.1-1.1c-0.6,0-1.1,0.3-1.3,0.7v3.9h-1.5v-5.8h1.5v0.7
			c0.4-0.4,1.1-0.9,2-0.9c1.3,0,1.9,0.7,1.9,1.8v4.1H1026.8z"/>
		<path class="st1" d="M1029.5,44.8c0-1.7,1.2-3,3-3c1.7,0,2.9,1.3,2.9,3.2v0.4h-4.3c0.1,0.7,0.7,1.3,1.7,1.3c0.5,0,1.2-0.2,1.5-0.6
			l0.7,1c-0.6,0.5-1.5,0.8-2.4,0.8C1030.8,47.9,1029.5,46.7,1029.5,44.8z M1032.5,43.1c-0.9,0-1.4,0.7-1.4,1.2h2.9
			C1033.9,43.7,1033.5,43.1,1032.5,43.1z"/>
		<path class="st1" d="M1036.5,47.7v-5.8h1.5v0.8c0.4-0.5,1.1-0.9,1.8-0.9v1.5c-0.1,0-0.2,0-0.4,0c-0.5,0-1.2,0.3-1.4,0.7v3.8
			H1036.5z"/>
		<path class="st1" d="M1041.8,44.2c0-1.4,1.8-1.6,1.8-2.4c0-0.4-0.3-0.7-0.9-0.7c-0.6,0-1.1,0.3-1.5,0.7l-1-1.1
			c0.6-0.8,1.6-1.2,2.6-1.2c1.5,0,2.5,0.8,2.5,1.9c0,1.8-2,1.9-2,2.9c0,0.2,0.1,0.4,0.2,0.5l-1.3,0.4
			C1042,45,1041.8,44.6,1041.8,44.2z M1041.8,46.9c0-0.5,0.4-1,1-1c0.5,0,1,0.4,1,1c0,0.5-0.4,1-1,1
			C1042.3,47.9,1041.8,47.4,1041.8,46.9z"/>
		<path class="st1" d="M991.7,58.6l0.9-1.3c0.6,0.6,1.4,1.1,2.5,1.1c0.9,0,1.4-0.4,1.4-0.9c0-1.4-4.6-0.4-4.6-3.4
			c0-1.3,1.2-2.4,3-2.4c1.3,0,2.3,0.4,3.1,1.1l-0.9,1.3c-0.6-0.6-1.5-0.9-2.3-0.9c-0.7,0-1.1,0.3-1.1,0.8c0,1.3,4.6,0.4,4.6,3.4
			c0,1.5-1.1,2.6-3.2,2.6C993.6,59.9,992.5,59.4,991.7,58.6z"/>
		<path class="st1" d="M999.6,58.3v-3h-1v-1.3h1v-1.6h1.5v1.6h1.2v1.3h-1.2v2.6c0,0.4,0.2,0.6,0.5,0.6c0.2,0,0.4-0.1,0.5-0.2
			l0.3,1.2c-0.2,0.2-0.6,0.4-1.3,0.4C1000.2,59.9,999.6,59.3,999.6,58.3z"/>
		<path class="st1" d="M1006.8,59.7v-0.6c-0.4,0.5-1.1,0.8-1.8,0.8c-0.9,0-2-0.6-2-1.9c0-1.4,1.1-1.9,2-1.9c0.8,0,1.5,0.3,1.8,0.7
			v-0.7c0-0.6-0.5-1-1.3-1c-0.6,0-1.2,0.2-1.7,0.7l-0.6-1.1c0.7-0.6,1.6-0.9,2.5-0.9c1.3,0,2.5,0.5,2.5,2.2v3.7H1006.8z
			 M1006.8,58.4v-0.7c-0.3-0.3-0.7-0.5-1.2-0.5c-0.6,0-1.1,0.3-1.1,0.9s0.5,0.9,1.1,0.9C1006.1,58.9,1006.6,58.7,1006.8,58.4z"/>
		<path class="st1" d="M1009.9,59.7v-5.8h1.5v0.8c0.4-0.5,1.1-0.9,1.8-0.9v1.5c-0.1,0-0.2,0-0.4,0c-0.5,0-1.2,0.3-1.4,0.7v3.8
			H1009.9z"/>
		<path class="st1" d="M1014.5,58.3v-3h-1v-1.3h1v-1.6h1.5v1.6h1.2v1.3h-1.2v2.6c0,0.4,0.2,0.6,0.5,0.6c0.2,0,0.4-0.1,0.5-0.2
			l0.3,1.2c-0.2,0.2-0.6,0.4-1.3,0.4C1015,59.9,1014.5,59.3,1014.5,58.3z"/>
		<path class="st1" d="M1025.2,59.7v-3.5c0-0.8-0.4-1.1-1.1-1.1c-0.6,0-1.1,0.3-1.3,0.7v3.9h-1.5v-8h1.5v3c0.4-0.4,1.1-0.9,2-0.9
			c1.3,0,1.9,0.7,1.9,1.8v4.1H1025.2z"/>
		<path class="st1" d="M1027.9,56.8c0-1.7,1.2-3,3-3c1.7,0,2.9,1.3,2.9,3.2v0.4h-4.3c0.1,0.7,0.7,1.3,1.7,1.3c0.5,0,1.2-0.2,1.5-0.6
			l0.7,1c-0.6,0.5-1.5,0.8-2.4,0.8C1029.2,59.9,1027.9,58.7,1027.9,56.8z M1030.9,55.1c-0.9,0-1.4,0.7-1.4,1.2h2.9
			C1032.3,55.7,1031.9,55.1,1030.9,55.1z"/>
		<path class="st1" d="M1034.9,59.7v-5.8h1.5v0.8c0.4-0.5,1.1-0.9,1.8-0.9v1.5c-0.1,0-0.2,0-0.4,0c-0.5,0-1.2,0.3-1.4,0.7v3.8
			H1034.9z"/>
		<path class="st1" d="M1038.9,56.8c0-1.7,1.2-3,3-3c1.7,0,2.9,1.3,2.9,3.2v0.4h-4.3c0.1,0.7,0.7,1.3,1.7,1.3c0.5,0,1.2-0.2,1.5-0.6
			l0.7,1c-0.6,0.5-1.5,0.8-2.4,0.8C1040.2,59.9,1038.9,58.7,1038.9,56.8z M1041.9,55.1c-0.9,0-1.4,0.7-1.4,1.2h2.9
			C1043.2,55.7,1042.9,55.1,1041.9,55.1z"/>
		<path class="st1" d="M1045.6,58.9c0-0.5,0.4-1,1-1s1,0.4,1,1c0,0.5-0.4,1-1,1S1045.6,59.4,1045.6,58.9z"/>
	</g>
</g>
<g>
	<defs>
		<rect id="SVGID_1_" x="0" width="1001.4" height="1341.9"/>
	</defs>
	<clipPath id="SVGID_2_">
		<use xlink:href="#SVGID_1_"  style="overflow:visible;"/>
	</clipPath>
	
		<radialGradient id="SVGID_3_" cx="771.1241" cy="401.2991" r="568.0187" gradientTransform="matrix(1.4552 0 0 1.1182 -647.4322 -340.6922)" gradientUnits="userSpaceOnUse">
		<stop  offset="0" style="stop-color:#FFFFFF;stop-opacity:0"/>
		<stop  offset="0.177" style="stop-color:#FFFFFF;stop-opacity:2.400000e-02"/>
		<stop  offset="1" style="stop-color:#EDEDED"/>
	</radialGradient>
	<rect x="0" y="-895.5" class="st14" width="1001.4" height="2906.1"/>
</g>
</svg>
