<?xml version="1.0" encoding="utf-8"?>
<!-- Generator: Adobe Illustrator 25.0.1, SVG Export Plug-In . SVG Version: 6.00 Build 0)  -->
<svg version="1.1" id="Camada_1" xmlns="http://www.w3.org/2000/svg" xmlns:xlink="http://www.w3.org/1999/xlink" x="0px" y="0px"
	 viewBox="0 0 208 151" style="enable-background:new 0 0 208 151;" xml:space="preserve">
<style type="text/css">
	.st0{enable-background:new    ;}
	.st1{fill:#F86464;}
	.st2{fill:#EDEDED;}
	.st3{fill:none;stroke:#F86464;stroke-width:2;stroke-linecap:round;stroke-dasharray:0,3.5;}
	.st4{fill:#F76464;}
	.st5{fill:#767676;}
	.st6{fill:#C2B0B0;}
	.st7{fill:#F99A9A;}
	.st8{fill:#030202;}
	.st9{fill:#3B2121;}
	.st10{fill:#FEFEFE;}
	.st11{fill:#F66464;}
	.st12{fill:#D9CCCC;}
	.st13{fill:#F8F8F8;}
</style>
<g id="Grupo_2287" transform="translate(-67 -291)">
	<g class="st0">
		<path class="st1" d="M227.5,347.8c-0.2-0.2-0.3-0.5-0.3-0.8l1.2-15.5h-5.6c-0.3,0-0.5-0.1-0.7-0.2c-0.2-0.2-0.2-0.4-0.2-0.6
			c0-0.3,0.1-0.5,0.3-0.7s0.4-0.2,0.8-0.2h13.3c0.3,0,0.5,0.1,0.7,0.2c0.2,0.2,0.2,0.4,0.2,0.6c0,0.6-0.3,0.9-1,0.9h-5.6l-1.2,15.6
			c0,0.3-0.2,0.5-0.4,0.7s-0.5,0.3-0.8,0.3C228,348.1,227.7,348,227.5,347.8z"/>
		<path class="st1" d="M237.9,347.9c-0.2-0.2-0.3-0.4-0.3-0.8l0.9-11c0-0.3,0.1-0.6,0.4-0.7c0.2-0.2,0.5-0.2,0.8-0.2
			s0.5,0.1,0.7,0.2c0.2,0.2,0.3,0.4,0.3,0.7l-0.9,11c0,0.3-0.1,0.6-0.4,0.8c-0.2,0.2-0.5,0.3-0.8,0.3
			C238.3,348.1,238.1,348,237.9,347.9z M239,332c-0.3-0.2-0.4-0.6-0.4-1s0.1-0.7,0.4-0.9c0.3-0.2,0.6-0.4,1-0.4s0.8,0.1,1,0.4
			c0.3,0.2,0.4,0.6,0.4,0.9c0,0.4-0.1,0.7-0.4,1c-0.3,0.2-0.6,0.4-1,0.4S239.2,332.2,239,332z"/>
		<path class="st1" d="M253.1,335.8c0.8,0.5,1.4,1.2,1.9,2.1s0.7,2,0.7,3.2c0,1.4-0.3,2.6-0.8,3.7s-1.2,1.9-2.1,2.5
			c-0.9,0.6-1.9,0.9-3.1,0.9c-1,0-1.9-0.2-2.6-0.6s-1.3-1-1.7-1.8l-0.5,6.2c0,0.3-0.1,0.5-0.3,0.7s-0.5,0.2-0.8,0.2
			s-0.6-0.1-0.7-0.2c-0.2-0.2-0.3-0.4-0.2-0.7l1.2-15.8c0-0.3,0.2-0.6,0.4-0.8c0.2-0.2,0.5-0.3,0.8-0.3s0.6,0.1,0.7,0.3
			c0.2,0.2,0.3,0.4,0.2,0.8l-0.1,1.1c0.4-0.7,1-1.2,1.7-1.6s1.5-0.6,2.4-0.6C251.4,335,252.3,335.3,253.1,335.8z M252.5,345
			c0.7-0.9,1.1-2.2,1.1-3.8c0-1.4-0.3-2.5-1-3.3s-1.6-1.2-2.8-1.2s-2.2,0.5-2.9,1.4s-1.1,2.2-1.1,3.9c0,1.4,0.3,2.5,1,3.2
			s1.6,1.1,2.8,1.1C250.8,346.4,251.8,346,252.5,345z"/>
		<path class="st1" d="M259.8,347.8c-0.8-0.2-1.5-0.6-2-0.9c-0.3-0.2-0.5-0.5-0.5-0.9c0-0.2,0.1-0.4,0.2-0.6s0.3-0.2,0.6-0.2
			c0.2,0,0.3,0.1,0.5,0.2c0.6,0.4,1.2,0.7,1.8,0.9c0.6,0.2,1.3,0.3,2,0.3c2,0,3-0.6,3-1.9c0-0.6-0.2-1-0.7-1.3s-1.2-0.6-2.3-0.9
			c-0.9-0.3-1.6-0.5-2.2-0.8c-0.5-0.2-1-0.6-1.4-1.1s-0.6-1.1-0.6-1.8c0-1.1,0.5-2.1,1.4-2.8c0.9-0.7,2.2-1,3.7-1
			c0.8,0,1.6,0.1,2.3,0.4c0.7,0.3,1.3,0.6,1.8,1c0.3,0.2,0.4,0.5,0.4,0.8c0,0.2-0.1,0.4-0.2,0.6s-0.3,0.3-0.5,0.3s-0.4-0.1-0.6-0.2
			c-1-0.7-2.1-1.1-3.2-1.1c-1,0-1.7,0.2-2.2,0.5s-0.8,0.8-0.8,1.5c0,0.6,0.2,1,0.7,1.3s1.2,0.6,2.2,0.9c0.9,0.3,1.6,0.5,2.2,0.8
			c0.6,0.2,1,0.6,1.4,1.1s0.6,1.1,0.6,1.8c0,1.1-0.5,2-1.4,2.7s-2.2,1-3.8,1C261.5,348.2,260.6,348.1,259.8,347.8z"/>
		<path class="st1" d="M270.1,347.7c-0.3-0.3-0.4-0.6-0.4-1.1c0-0.4,0.1-0.8,0.4-1.1s0.6-0.4,1-0.4s0.7,0.1,1,0.4s0.4,0.6,0.4,1.1
			c0,0.4-0.1,0.8-0.4,1.1c-0.3,0.3-0.6,0.4-1,0.4C270.8,348.1,270.4,348,270.1,347.7z M271,343.2c-0.1-0.1-0.2-0.3-0.2-0.5l0.3-11.8
			c0-0.4,0.1-0.7,0.4-1c0.3-0.2,0.6-0.3,1-0.3c0.3,0,0.6,0.1,0.9,0.3c0.2,0.2,0.3,0.5,0.3,0.8v0.2l-1.5,11.8c0,0.2-0.1,0.4-0.3,0.5
			s-0.3,0.2-0.5,0.2C271.2,343.3,271.1,343.3,271,343.2z"/>
	</g>
	<ellipse id="shadow" class="st2" cx="125" cy="432" rx="40" ry="10"/>
	<path id="Caminho_5401" class="st3" d="M187.1,373.5c19,3.5,33.1-1.4,40.2-16.5"/>
</g>
<g>
	<path class="st4" d="M98,42.7c5.4,7.3,7.7,15.5,8,24.5c0.1,2.3-0.2,4.4-1.1,6.5c-0.4,1-0.7,2-1.2,2.9c-4.8,7.8-8.3,16.4-12,24.8
		c-1.5,3.3-3.7,6.2-5.4,9.5c-1.7,1.6-4,1.2-6,1.3c-18.1,1.3-35.4-1.8-52.1-8.9c-1-0.4-2.2-0.6-2.7-1.8c0.1-0.8-0.5-1.3-0.9-1.9
		c-5.8-8.1-9.2-17.1-9.8-27.2c-0.5-7.8,2.7-13.8,8.6-18.5c0.7-0.6,1.4-1.2,2.1-1.7c0.2-0.5,0.6-0.7,1.1-0.8
		c11.4-1.5,22.8-3.9,34.3-4.9c11.3-1,22.6-2,33.8-3.9C95.8,42.4,96.9,41.8,98,42.7z"/>
	<path class="st5" d="M25.6,101.4c10.5,4.8,21.4,7.9,32.8,9.5c4.3,0.6,8.7,0.9,13,0.9c5,0,10-0.1,14.9-1.1c5.4-0.4,9.2-3,11.6-7.8
		c2.6-5.2,4.2-10.8,6-16.3c0.4-1.4,0.8-2.8,1.9-3.8c0.5-0.6,1.2-1.3,2-0.9c0.9,0.4,0.8,1.3,0.6,2.1c-0.5,2.9-1.1,5.8-1.7,8.6
		c-1.7,7.3-3.3,14.6-6.3,21.5c-1.1,2.4-2.5,4.6-4.1,6.6c-3.5,4.2-8.3,5.1-13.3,5.7c-22.5,2.3-43.8-2.1-64.4-11
		c-2.6-1.1-5.1-2.7-7.4-4.3c-7.7-5.4-11.2-12.3-8.9-21.9c2.2-8.9,5.2-17.5,8.9-25.8c0.4-1,1-2.6,2.4-2.2c1.3,0.4,1,2.1,0.7,3.1
		c-0.7,2.9-1.6,5.8-2.4,8.7c-0.8,3-1.6,6-1.9,9.2c-0.5,3.6,0.7,6.7,2.7,9.5c2.4,3.3,5.7,5.5,9.2,7.5C22.9,100,24.3,100.7,25.6,101.4
		z"/>
	<path class="st5" d="M98,42.7c-4.9,0.7-9.8,1.5-14.6,2.1c-4.3,0.6-8.6,1-13,1.4c-10.3,1-20.6,1.9-30.7,3.7
		c-4.4,0.8-8.8,1.5-13.3,1.8c-0.6,0.3-1.3-0.1-2,0.2c-5.5,0.2-11,0.6-16.4-0.7c-2.6-0.6-4.1-3.9-3-6.4c0.8-1.8,2-2.8,3.9-3.5
		c8.8-3,17.9-4.2,27.1-4.6c1.5-0.1,2.3-0.5,3-1.8c2.4-4.5,4.6-9.2,7.1-13.7c2.3-4.3,5.3-5.9,10.3-5.1c4.4,0.7,8.9,1.3,13.2,2.4
		c1,0.3,1.8,0.7,2.4,1.4c2.6,3,5.6,5.7,7.5,9.2c0.3,0.6,0.7,0.7,1.4,0.6c10.3-2.5,20.7-2,31.1-1.3c0.9,0.1,1.5,0.4,2.1,1.2
		c1.1,1.4,1.6,3,1.7,4.7c0.1,2-0.8,3.3-2.7,4C108.2,40.3,103.1,41.3,98,42.7z"/>
	<path class="st6" d="M24.3,52c0.6-0.5,1.3-0.3,2-0.2c-0.2,0.1-0.5,0.2-0.7,0.3C25.2,52,24.7,52,24.3,52z"/>
	<path d="M39.9,76.3c-6.9,0-12.4-5.7-12.4-12.7c0.1-6.8,5.8-12.4,12.6-12.3c6.8,0.1,12.5,5.8,12.4,12.5
		C52.4,70.8,46.8,76.4,39.9,76.3z"/>
	<path d="M52.5,99.4c-3.1-3.3-3.3-7.5-3.4-11.7c0-1.3,1-1.2,1.8-1.1c4,0.3,8.1,0.6,12.1,0.9c2.3,0.2,4.5,0.4,6.8,0.5
		c0.5,0,1.3-0.1,1.2,0.8c-0.2,3.8-0.9,7.5-3.6,10.5c-0.3,0.3-0.6,0.5-1,0.5c-0.9-0.2-1.2-1-1.7-1.5c-3.6-3.8-8.1-3.6-11.4,0.4
		C53,99,52.8,99.2,52.5,99.4z"/>
	<path class="st7" d="M52.5,99.4c1.3-3.6,5.8-5.4,9.5-3.6c1.9,0.9,3.4,2.2,4.3,4.1c-2.9,3.6-9.1,4-12.4,0.8
		C53.5,100.2,53,99.8,52.5,99.4z"/>
	<path class="st8" d="M68.2,68.4c6-3.4,12.7-3.3,17.2,0.3c2.5,2,4.3,4.5,4.6,7.9c-0.3,0-0.5,0-0.5,0c-2.1-4.2-5.9-6-10.3-6.9
		c-0.8-0.2-1.5-0.4-2.2-0.7c-2.6-0.4-5.2-0.4-7.7,0.4C68.4,69.5,67.4,69.8,68.2,68.4z"/>
	<path class="st9" d="M68.2,68.4c-0.2,0.9,0.2,1,0.9,0.7c1.9-0.7,4-0.7,6-0.6c0.6,0,1.3-0.2,1.8,0.4c-3.8-0.5-7.4,0.4-11.4,1.8
		C66.3,69.3,67.2,68.8,68.2,68.4z"/>
	<path class="st10" d="M52.8,34c-2.6,1.2-5.3-0.1-7.9-0.1c-0.7,0-0.6-0.6-0.6-1.2c0.5-3.9,5.4-8.2,9.4-8.1
		c5.2,0.1,10.2,1.1,14.8,3.6c-0.7,1.5-2.1,0.6-3.2,0.9c-3.6-0.1-6.8,0.9-9.6,3.1C54.8,32.9,53.9,33.6,52.8,34z"/>
	<path class="st11" d="M52.8,34c3.4-3.4,7.3-5.7,12.3-5.4c1.5,0.4,3.1-0.2,4.6,0.3c0.6,0.3,1.1,0.6,2.2,1.2c-3,0.6-5.6,1.2-8.1,1.7
		C60.2,32.5,56.5,33.6,52.8,34z"/>
	<path class="st12" d="M69.7,28.9c-1.6,0-3.1,0.2-4.6-0.3c1.1-0.4,2.4,0.4,3.5-0.4C69,28.3,69.5,28.5,69.7,28.9z"/>
	<path class="st10" d="M38.1,59.9c0-3,2.4-5.5,5.4-5.5c3,0,5.5,2.4,5.5,5.4c0.1,3.1-2.4,5.6-5.5,5.6C40.5,65.3,38.1,62.9,38.1,59.9z
		"/>
	<path class="st13" d="M36.3,65.6c-0.1,0.9-0.5,1.5-1.5,1.5c-0.9,0-1.5-0.4-1.6-1.4c-0.1-1,0.5-1.6,1.5-1.6
		C35.8,64.1,36.2,64.7,36.3,65.6z"/>
</g>
</svg>
