<?xml version="1.0" encoding="utf-8"?>
<!-- Generator: Adobe Illustrator 25.0.1, SVG Export Plug-In . SVG Version: 6.00 Build 0)  -->
<svg version="1.1" id="Camada_1" xmlns="http://www.w3.org/2000/svg" xmlns:xlink="http://www.w3.org/1999/xlink" x="0px" y="0px"
	 viewBox="0 0 148.6 120" style="enable-background:new 0 0 148.6 120;" xml:space="preserve">
<style type="text/css">
	.st0{fill:#FEFEFE;}
	.st1{fill:#F76464;}
	.st2{fill:#767676;}
	.st3{fill:#C2B0B0;}
	.st4{fill:#F99A9A;}
	.st5{fill:#F66464;}
	.st6{fill:#D9CCCC;}
	.st7{fill:#F9F9F9;}
	.st8{fill:#F86464;}
</style>
<g>
	<path class="st0" d="M28.6,60c0-19.5,0-39,0-58.5c0-1.2,0.3-1.5,1.6-1.5c39,0,77.9,0,116.9,0c1.3,0,1.6,0.3,1.5,1.5
		c0,39,0,77.9,0,116.9c0,1.3-0.3,1.6-1.5,1.5c-39,0-77.9,0-116.9,0c-1.3,0-1.6-0.3-1.6-1.5C28.7,99,28.6,79.5,28.6,60z"/>
	<path class="st1" d="M56.7,90c0.1-0.8-0.5-1.3-0.9-1.8c-5.7-8-9-16.8-9.5-26.6c-0.4-7.2,2.6-12.7,7.9-17.2c0.8-0.7,1.6-1.3,2.5-2
		c0.2-0.4,0.5-0.6,0.9-0.7c1.2,0,2.5-0.9,3.7,0.2c0.1,0.7-0.3,1.2-0.6,1.7c-2.6,4.4-2.2,9.5,1.1,13.5c2.9,3.6,7.9,4.9,12.5,3.4
		s7.9-5.9,7.9-10.7c0-3.2-1.2-6-3.5-8.3c-0.7-0.7-1.9-1.2-1.6-2.5c1.9-1,4-0.9,6.1-1.1c9.1-1.1,18.2-1.7,27.2-2.8
		c4.6-0.5,9.1-1.2,13.7-1.9c0.8-0.1,1.7-0.5,2.5,0.2c5.2,7,7.5,15,7.7,23.7c0.1,2.2-0.2,4.3-1,6.3c-0.4,0.9-0.7,1.9-1.2,2.8
		c-4.7,7.6-8,15.8-11.6,23.9c-1.4,3.2-3.6,6-5.2,9.2c-1.7,1.5-3.8,1.1-5.8,1.3C92,101.8,75.3,98.9,59.2,92
		C58.3,91.4,57.2,91.2,56.7,90z"/>
	<path class="st2" d="M56.7,90c10.1,4.6,20.6,7.7,31.7,9.2c4.2,0.6,8.4,0.9,12.5,0.9c4.8,0,9.7-0.1,14.4-1c5.2-0.4,8.9-2.9,11.2-7.5
		c2.5-5,4.1-10.4,5.8-15.8c0.4-1.3,0.8-2.7,1.8-3.7c0.5-0.5,1.1-1.2,1.9-0.9c0.8,0.4,0.7,1.2,0.6,2c-0.5,2.8-1,5.6-1.7,8.3
		c-1.6,7.1-3.2,14.1-6.1,20.8c-1,2.4-2.4,4.5-4.1,6.5c-3.3,4-7.9,4.8-12.7,5.3c-21.7,2.2-42.3-2-62.2-10.6c-2.5-1.1-4.9-2.6-7.2-4.1
		c-7.5-5.1-10.9-11.8-8.6-21c2.1-8.6,5.1-16.9,8.6-25c0.4-1,1-2.5,2.3-2.1s1,2,0.7,3c-0.6,2.8-1.5,5.6-2.3,8.4
		c-0.8,2.9-1.5,5.8-1.9,8.9c-0.4,3.5,0.6,6.5,2.7,9.2c2.3,3.2,5.5,5.3,8.9,7.3C54.1,88.7,55.4,89.4,56.7,90z"/>
	<path class="st2" d="M126.6,33.3c-4.7,0.7-9.4,1.4-14.1,2c-4.3,0.5-8.6,1-12.9,1.4c-7.4,0.7-14.8,1.4-22.2,2.4
		c-0.1,0-0.2,0.1-0.3,0.2c-0.7,0.3-1.2-0.1-1.8-0.3c-4.8-2-9-0.9-12.8,2.3c-0.3,0.3-0.6,0.9-1.2,0.6c-1.3-0.3-2.6,0.3-3.9,0.2
		c-0.6,0.3-1.3-0.1-1.9,0.2c-5.3,0.2-10.6,0.6-15.8-0.7c-2.5-0.6-3.9-3.8-2.9-6.2c0.8-1.8,1.9-2.7,3.8-3.3c8.5-2.9,17.3-4,26.1-4.5
		c1.4-0.1,2.2-0.5,2.9-1.8c2.3-4.4,4.5-8.9,6.9-13.2c2.2-4,5.1-5.6,9.9-4.8c4.3,0.7,8.6,1.3,12.8,2.3c1,0.2,1.7,0.6,2.4,1.4
		c2.5,2.9,5.4,5.5,7.2,8.9c0.3,0.6,0.7,0.7,1.4,0.6c9.9-2.4,20-1.9,30.1-1.3c0.9,0.1,1.5,0.4,2,1.1c1,1.3,1.6,2.9,1.6,4.5
		c0.1,1.9-0.7,3.2-2.6,3.9C136.5,31,131.5,32.1,126.6,33.3z"/>
	<path class="st3" d="M55.5,42.3c0.6-0.5,1.2-0.3,1.9-0.2c-0.2,0.1-0.5,0.2-0.7,0.3C56.3,42.4,55.9,42.4,55.5,42.3z"/>
	<path d="M97.1,58.9c0-6.6,5.5-12,12.1-12s12.1,5.5,12.1,12c0,6.7-5.4,12.1-12.1,12.1C102.4,71.2,97.1,65.7,97.1,58.9z"/>
	<path d="M61.2,41.9c4.6-4.8,9.5-5.6,15.8-2.5c4.6,3.4,6.7,7.9,5.1,13.5c-1.4,5-4.9,8-10.1,8.7c-5,0.7-9.1-1.3-11.7-5.6
		c-2.7-4.3-2.5-8.7,0.1-13C60.7,42.6,61,42.3,61.2,41.9z"/>
	<path d="M82.7,88.1c-3-3.2-3.2-7.3-3.3-11.3c0-1.3,0.9-1.1,1.7-1.1c3.9,0.3,7.8,0.6,11.7,0.9c2.2,0.2,4.4,0.3,6.6,0.5
		c0.5,0,1.2-0.1,1.2,0.8c-0.2,3.7-0.9,7.3-3.5,10.1c-0.3,0.3-0.6,0.5-1,0.5c-0.8-0.2-1.1-0.9-1.6-1.5c-3.5-3.6-7.9-3.5-11,0.4
		C83.1,87.7,82.9,88,82.7,88.1z"/>
	<path class="st4" d="M82.7,88.1c1.2-3.5,5.6-5.2,9.2-3.5c1.8,0.8,3.2,2.1,4.2,3.9c-2.8,3.5-8.8,3.9-12,0.8
		C83.6,88.9,83.1,88.5,82.7,88.1z"/>
	<path class="st0" d="M82.9,25c-2.6,1.1-5.1,0-7.6-0.1c-0.7,0-0.6-0.6-0.5-1.1c0.4-2.8,4.7-8.2,8.9-7.9c5.1,0.4,10,1.1,14.5,3.6
		c-0.7,1.4-2,0.6-3.1,0.8c-3.5-0.1-6.6,0.8-9.3,3C84.9,23.9,84,24.6,82.9,25z"/>
	<path class="st5" d="M82.9,25c3.3-3.2,7-5.5,11.9-5.2c1.5,0.4,3-0.2,4.5,0.3c0.5,0.3,1.1,0.6,2.1,1.1c-2.9,0.6-5.4,1.1-7.8,1.6
		C90.1,23.5,86.6,24.6,82.9,25z"/>
	<path class="st6" d="M99.3,20c-1.5,0-3,0.2-4.5-0.3c1.1-0.4,2.3,0.3,3.4-0.4C98.6,19.5,99.1,19.6,99.3,20z"/>
	<path class="st0" d="M107.6,59c-2.9,0-5.2-2.4-5.2-5.3c0-2.9,2.5-5.3,5.5-5.2c2.9,0.1,5.2,2.6,5.1,5.4
		C112.9,56.8,110.5,59.1,107.6,59z"/>
	<path class="st7" d="M115.8,61.5c-0.1,0.8-0.4,1.4-1.3,1.5s-1.5-0.3-1.6-1.3s0.4-1.6,1.4-1.6C115.2,60,115.7,60.6,115.8,61.5z"/>
	<path class="st0" d="M74,40.5c2.9,0,5.3,2.4,5.3,5.2c0,3-2.4,5.4-5.4,5.3c-2.9,0-5.2-2.4-5.2-5.3C68.8,42.9,71.1,40.5,74,40.5z"/>
	<path class="st7" d="M65.6,52.8c-0.8,0-1.4-0.4-1.4-1.3c-0.1-0.9,0.4-1.5,1.3-1.6c1-0.1,1.6,0.5,1.6,1.4
		C67.1,52.1,66.5,52.7,65.6,52.8z"/>
</g>
<path id="Icon_metro-heart" class="st8" d="M20.8,43.8c-2.2,0-4.2,1.8-5.1,3.7c-0.9-1.9-2.8-3.7-5.1-3.7c-3.1,0-5.6,2.5-5.6,5.6
	c0,6.3,6.4,8,10.7,14.2c4.1-6.2,10.7-8.1,10.7-14.2C26.4,46.4,23.9,43.8,20.8,43.8z"/>
</svg>
