<?xml version="1.0" encoding="utf-8"?>
<!-- Generator: Adobe Illustrator 25.0.1, SVG Export Plug-In . SVG Version: 6.00 Build 0)  -->
<svg version="1.1" id="Camada_1" xmlns="http://www.w3.org/2000/svg" xmlns:xlink="http://www.w3.org/1999/xlink" x="0px" y="0px"
	 viewBox="0 0 19 19" style="enable-background:new 0 0 19 19;" xml:space="preserve">
<style type="text/css">
	.st0{fill:#F86464;}
	.st1{fill:#F76464;}
	.st2{fill:#FCFCFC;}
	.st3{fill:#C2B0B0;}
	.st4{fill:#F99A9A;}
	.st5{fill:#FEFEFE;}
	.st6{fill:#F66464;}
	.st7{fill:#D9CCCC;}
	.st8{fill:#F9F9F9;}
</style>
<g id="Kin" transform="translate(-159 -747.553)">
	<circle id="Elipse_798" class="st0" cx="168.5" cy="757.1" r="9.5"/>
</g>
<g>
	<path class="st1" d="M5.7,12.9c0-0.1-0.1-0.2-0.1-0.2c-0.7-0.9-1.1-2-1.1-3.1c0-0.8,0.3-1.5,0.9-2c0.1-0.1,0.2-0.2,0.3-0.2
		c0,0,0.1-0.1,0.1-0.1c0.1,0,0.3-0.1,0.4,0c0,0.1,0,0.1-0.1,0.2C5.9,8,6,8.6,6.3,9c0.3,0.4,0.9,0.6,1.5,0.4s0.9-0.7,0.9-1.3
		c0-0.4-0.1-0.7-0.4-1C8.3,7.1,8.1,7,8.1,6.9c0.2-0.1,0.5-0.1,0.7-0.1c1.1-0.1,2.1-0.2,3.2-0.3c0.5-0.1,1.1-0.1,1.6-0.2
		c0.1,0,0.2-0.1,0.3,0C14.6,7.1,14.9,8,14.9,9c0,0.3,0,0.5-0.1,0.7c0,0.1-0.1,0.2-0.1,0.3c-0.6,0.9-0.9,1.9-1.4,2.8
		c-0.2,0.4-0.4,0.7-0.6,1.1c-0.2,0.2-0.4,0.1-0.7,0.2c-2.1,0.1-4-0.2-5.9-1C5.9,13.1,5.8,13,5.7,12.9z"/>
	<path class="st2" d="M5.7,12.9c1.2,0.5,2.4,0.9,3.7,1.1c0.5,0.1,1,0.1,1.5,0.1c0.6,0,1.1,0,1.7-0.1c0.6,0,1-0.3,1.3-0.9
		c0.3-0.6,0.5-1.2,0.7-1.9c0-0.2,0.1-0.3,0.2-0.4c0.1-0.1,0.1-0.1,0.2-0.1c0.1,0,0.1,0.1,0.1,0.2c-0.1,0.3-0.1,0.7-0.2,1
		c-0.2,0.8-0.4,1.7-0.7,2.4c-0.1,0.3-0.3,0.5-0.5,0.8c-0.4,0.5-0.9,0.6-1.5,0.6c-2.6,0.3-5-0.2-7.3-1.2c-0.3-0.1-0.6-0.3-0.8-0.5
		c-0.9-0.6-1.3-1.4-1-2.5c0.2-1,0.6-2,1-2.9c0-0.1,0.1-0.3,0.3-0.2c0.2,0,0.1,0.2,0.1,0.4C4.4,9,4.3,9.4,4.2,9.7
		c-0.1,0.3-0.2,0.7-0.2,1c0,0.4,0.1,0.8,0.3,1.1c0.3,0.4,0.6,0.6,1,0.9C5.4,12.7,5.6,12.8,5.7,12.9z"/>
	<path class="st2" d="M14,6.2c-0.6,0.1-1.1,0.2-1.7,0.2c-0.5,0.1-1,0.1-1.5,0.2C9.9,6.7,9.1,6.8,8.2,6.9c0,0,0,0,0,0
		c-0.1,0-0.1,0-0.2,0C7.4,6.7,6.9,6.8,6.4,7.2c0,0-0.1,0.1-0.1,0.1c-0.2,0-0.3,0-0.5,0c-0.1,0-0.2,0-0.2,0C5,7.3,4.4,7.4,3.7,7.2
		C3.4,7.1,3.3,6.8,3.4,6.5c0.1-0.2,0.2-0.3,0.4-0.4c1-0.3,2-0.5,3.1-0.5c0.2,0,0.3-0.1,0.3-0.2c0.3-0.5,0.5-1,0.8-1.6
		c0.3-0.5,0.6-0.7,1.2-0.6c0.5,0.1,1,0.2,1.5,0.3c0.1,0,0.2,0.1,0.3,0.2c0.3,0.3,0.6,0.6,0.8,1c0,0.1,0.1,0.1,0.2,0.1
		c1.2-0.3,2.4-0.2,3.5-0.2c0.1,0,0.2,0,0.2,0.1C15.9,4.9,16,5.1,16,5.3c0,0.2-0.1,0.4-0.3,0.5C15.1,6,14.6,6.1,14,6.2z"/>
	<path class="st3" d="M5.6,7.3c0.1-0.1,0.1,0,0.2,0c0,0-0.1,0-0.1,0C5.7,7.3,5.7,7.3,5.6,7.3z"/>
	<path d="M10.5,9.2c0-0.8,0.6-1.4,1.4-1.4c0.8,0,1.4,0.6,1.4,1.4c0,0.8-0.6,1.4-1.4,1.4C11.1,10.7,10.5,10,10.5,9.2z"/>
	<path d="M6.3,7.2c0.5-0.6,1.1-0.7,1.9-0.3c0.5,0.4,0.8,0.9,0.6,1.6c-0.2,0.6-0.6,0.9-1.2,1C7,9.6,6.5,9.4,6.2,8.9
		c-0.3-0.5-0.3-1,0-1.5C6.2,7.3,6.3,7.3,6.3,7.2z"/>
	<path d="M8.8,12.7c-0.4-0.4-0.4-0.9-0.4-1.3c0-0.2,0.1-0.1,0.2-0.1c0.5,0,0.9,0.1,1.4,0.1c0.3,0,0.5,0,0.8,0.1c0.1,0,0.1,0,0.1,0.1
		c0,0.4-0.1,0.9-0.4,1.2c0,0-0.1,0.1-0.1,0.1c-0.1,0-0.1-0.1-0.2-0.2C9.8,12.1,9.3,12.1,8.8,12.7C8.9,12.6,8.8,12.7,8.8,12.7z"/>
	<path class="st4" d="M8.8,12.7c0.1-0.4,0.7-0.6,1.1-0.4c0.2,0.1,0.4,0.2,0.5,0.5c-0.3,0.4-1,0.5-1.4,0.1
		C8.9,12.8,8.9,12.7,8.8,12.7z"/>
	<path class="st5" d="M8.8,5.2c-0.3,0.1-0.6,0-0.9,0c-0.1,0-0.1-0.1-0.1-0.1c0-0.3,0.6-1,1-0.9c0.6,0,1.2,0.1,1.7,0.4
		c-0.1,0.2-0.2,0.1-0.4,0.1C9.9,4.7,9.5,4.8,9.2,5C9.1,5.1,9,5.2,8.8,5.2z"/>
	<path class="st6" d="M8.8,5.2c0.4-0.4,0.8-0.6,1.4-0.6c0.2,0,0.4,0,0.5,0c0.1,0,0.1,0.1,0.2,0.1c-0.3,0.1-0.6,0.1-0.9,0.2
		C9.7,5.1,9.3,5.2,8.8,5.2z"/>
	<path class="st7" d="M10.8,4.7c-0.2,0-0.4,0-0.5,0c0.1,0,0.3,0,0.4,0C10.7,4.6,10.7,4.6,10.8,4.7z"/>
	<path class="st5" d="M11.7,9.2c-0.3,0-0.6-0.3-0.6-0.6c0-0.3,0.3-0.6,0.6-0.6c0.3,0,0.6,0.3,0.6,0.6C12.4,9,12.1,9.3,11.7,9.2z"/>
	<path class="st8" d="M12.7,9.5c0,0.1,0,0.2-0.2,0.2c-0.1,0-0.2,0-0.2-0.2s0-0.2,0.2-0.2C12.6,9.4,12.7,9.4,12.7,9.5z"/>
	<path class="st5" d="M7.8,7.1c0.3,0,0.6,0.3,0.6,0.6c0,0.4-0.3,0.6-0.6,0.6C7.4,8.3,7.2,8,7.2,7.7C7.2,7.4,7.4,7.1,7.8,7.1z"/>
	<path class="st8" d="M6.8,8.5c-0.1,0-0.2,0-0.2-0.2c0-0.1,0-0.2,0.2-0.2C6.9,8.2,7,8.2,7,8.3C7,8.4,6.9,8.5,6.8,8.5z"/>
</g>
</svg>
