<?xml version="1.0" encoding="utf-8"?>
<!-- Generator: Adobe Illustrator 25.0.1, SVG Export Plug-In . SVG Version: 6.00 Build 0)  -->
<svg version="1.1" id="Camada_1" xmlns="http://www.w3.org/2000/svg" xmlns:xlink="http://www.w3.org/1999/xlink" x="0px" y="0px"
	 viewBox="0 0 120 120" style="enable-background:new 0 0 120 120;" xml:space="preserve">
<style type="text/css">
	.st0{fill:#FEFEFE;}
	.st1{fill:#F76464;}
	.st2{fill:#767676;}
	.st3{fill:#C2B0B0;}
	.st4{fill:#F99A9A;}
	.st5{fill:#F66464;}
	.st6{fill:#D9CCCC;}
	.st7{fill:#F9F9F9;}
	.st8{fill:#271414;}
</style>
<g>
	<path class="st0" d="M0,60C0,40.5,0,21,0,1.5C0,0.3,0.3,0,1.6,0c39,0,77.9,0,116.9,0c1.3,0,1.6,0.3,1.5,1.5c0,39,0,77.9,0,116.9
		c0,1.3-0.3,1.6-1.5,1.5c-39,0-77.9,0-116.9,0c-1.3,0-1.6-0.3-1.6-1.5C0.1,99,0,79.5,0,60z"/>
	<path class="st1" d="M28.1,90c0.1-0.8-0.5-1.3-0.9-1.8c-5.7-8-9-16.8-9.5-26.6c-0.4-7.2,2.6-12.7,7.9-17.2c0.8-0.7,1.6-1.3,2.5-2
		c0.2-0.4,0.5-0.6,0.9-0.7c1.2,0,2.5-0.9,3.7,0.2c0.1,0.7-0.3,1.2-0.6,1.7c-2.6,4.4-2.2,9.5,1.1,13.5c2.9,3.6,7.9,4.9,12.5,3.4
		s7.9-5.9,7.9-10.7c0-3.2-1.2-6-3.5-8.3c-0.7-0.7-1.9-1.2-1.6-2.5c1.9-1,4-0.9,6.1-1.1c9.1-1.1,18.2-1.7,27.2-2.8
		c4.6-0.5,9.1-1.2,13.7-1.9c0.8-0.1,1.7-0.5,2.5,0.2c5.2,7,7.5,15,7.7,23.7c0.1,2.2-0.2,4.3-1,6.3c-0.4,0.9-0.7,1.9-1.2,2.8
		c-4.7,7.6-8,15.8-11.6,23.9c-1.4,3.2-3.6,6-5.2,9.2c-1.7,1.5-3.8,1.1-5.8,1.3c-17.5,1.2-34.2-1.7-50.3-8.6
		C29.7,91.4,28.6,91.2,28.1,90z"/>
	<path class="st2" d="M28.1,90c10.1,4.6,20.6,7.7,31.7,9.2c4.2,0.6,8.4,0.9,12.5,0.9c4.8,0,9.7-0.1,14.4-1c5.2-0.4,8.9-2.9,11.2-7.5
		c2.5-5,4.1-10.4,5.8-15.8c0.4-1.3,0.8-2.7,1.8-3.7c0.5-0.5,1.1-1.2,1.9-0.9c0.8,0.4,0.7,1.2,0.6,2c-0.5,2.8-1,5.6-1.7,8.3
		c-1.6,7.1-3.2,14.1-6.1,20.8c-1,2.4-2.4,4.5-4.1,6.5c-3.3,4-7.9,4.8-12.7,5.3c-21.7,2.2-42.3-2-62.2-10.6c-2.5-1.1-4.9-2.6-7.2-4.1
		c-7.5-5.1-10.9-11.8-8.6-21c2.1-8.6,5.1-16.9,8.6-25c0.4-1,1-2.5,2.3-2.1s1,2,0.7,3c-0.6,2.8-1.5,5.6-2.3,8.4
		c-0.8,2.9-1.5,5.8-1.9,8.9c-0.4,3.5,0.6,6.5,2.7,9.2c2.3,3.2,5.5,5.3,8.9,7.3C25.5,88.7,26.8,89.4,28.1,90z"/>
	<path class="st2" d="M98,33.3c-4.7,0.7-9.4,1.4-14.1,2c-4.3,0.5-8.6,1-12.9,1.4c-7.4,0.7-14.8,1.4-22.2,2.4c-0.1,0-0.2,0.1-0.3,0.2
		c-0.7,0.3-1.2-0.1-1.8-0.3c-4.8-2-9-0.9-12.8,2.3c-0.3,0.3-0.6,0.9-1.2,0.6c-1.3-0.3-2.6,0.3-3.9,0.2c-0.6,0.3-1.3-0.1-1.9,0.2
		c-5.3,0.2-10.6,0.6-15.8-0.7c-2.5-0.6-3.9-3.8-2.9-6.2c0.8-1.8,1.9-2.7,3.8-3.3c8.5-2.9,17.3-4,26.1-4.5c1.4-0.1,2.2-0.5,2.9-1.8
		c2.3-4.4,4.5-8.9,6.9-13.2c2.2-4,5.1-5.6,9.9-4.8c4.3,0.7,8.6,1.3,12.8,2.3c1,0.2,1.7,0.6,2.4,1.4c2.5,2.9,5.4,5.5,7.2,8.9
		c0.3,0.6,0.7,0.7,1.4,0.6c9.9-2.4,20-1.9,30.1-1.3c0.9,0.1,1.5,0.4,2,1.1c1,1.3,1.6,2.9,1.6,4.5c0.1,1.9-0.7,3.2-2.6,3.9
		C107.9,31,102.9,32.1,98,33.3z"/>
	<path class="st3" d="M26.9,42.3c0.6-0.5,1.2-0.3,1.9-0.2c-0.2,0.1-0.5,0.2-0.7,0.3C27.7,42.4,27.3,42.4,26.9,42.3z"/>
	<path d="M32.6,41.9c4.6-4.8,9.5-5.6,15.8-2.5c4.6,3.4,6.7,7.9,5.1,13.5c-1.4,5-4.9,8-10.1,8.7c-5,0.7-9.1-1.3-11.7-5.6
		c-2.7-4.3-2.5-8.7,0.1-13C32.1,42.6,32.4,42.3,32.6,41.9z"/>
	<path d="M54.1,88.1c-3-3.2-3.2-7.3-3.3-11.3c0-1.3,0.9-1.1,1.7-1.1c3.9,0.3,7.8,0.6,11.7,0.9c2.2,0.2,4.4,0.3,6.6,0.5
		c0.5,0,1.2-0.1,1.2,0.8c-0.2,3.7-0.9,7.3-3.5,10.1c-0.3,0.3-0.6,0.5-1,0.5c-0.8-0.2-1.1-0.9-1.6-1.5c-3.5-3.6-7.9-3.5-11,0.4
		C54.5,87.7,54.3,88,54.1,88.1z"/>
	<path class="st4" d="M54.1,88.1c1.2-3.5,5.6-5.2,9.2-3.5c1.8,0.8,3.2,2.1,4.2,3.9c-2.8,3.5-8.8,3.9-12,0.8
		C55,88.9,54.5,88.5,54.1,88.1z"/>
	<path class="st0" d="M54.3,25c-2.6,1.1-5.1,0-7.6-0.1c-0.7,0-0.6-0.6-0.5-1.1c0.4-2.8,4.7-8.2,8.9-7.9c5.1,0.4,10,1.1,14.5,3.6
		c-0.7,1.4-2,0.6-3.1,0.8c-3.5-0.1-6.6,0.8-9.3,3C56.3,23.9,55.4,24.6,54.3,25z"/>
	<path class="st5" d="M54.3,25c3.3-3.2,7-5.5,11.9-5.2c1.5,0.4,3-0.2,4.5,0.3c0.5,0.3,1.1,0.6,2.1,1.1c-2.9,0.6-5.4,1.1-7.8,1.6
		C61.5,23.5,58,24.6,54.3,25z"/>
	<path class="st6" d="M70.7,20c-1.5,0-3,0.2-4.5-0.3c1.1-0.4,2.3,0.3,3.4-0.4C70,19.5,70.5,19.6,70.7,20z"/>
	<path class="st0" d="M45.4,40.5c2.9,0,5.3,2.4,5.3,5.2c0,3-2.4,5.4-5.4,5.3c-2.9,0-5.2-2.4-5.2-5.3C40.2,42.9,42.5,40.5,45.4,40.5z
		"/>
	<path class="st7" d="M37,52.8c-0.8,0-1.4-0.4-1.4-1.3c-0.1-0.9,0.4-1.5,1.3-1.6c1-0.1,1.6,0.5,1.6,1.4C38.5,52.1,37.9,52.7,37,52.8
		z"/>
</g>
<path class="st8" d="M67.5,55.8c4.3-4.5,9.6-4.8,14.9-2.8c3.2,1.2,6.1,3.2,5.8,7.7C82.1,54.7,75,54.2,67.5,55.8L67.5,55.8z"/>
</svg>
