<svg id="Level_icon_hat" data-name="Level icon hat" xmlns="http://www.w3.org/2000/svg" width="20.82" height="19.341" viewBox="0 0 20.82 19.341">
  <path id="Caminho_1458" data-name="Caminho 1458" d="M16.343,22.344A6.368,6.368,0,0,0,14.259,19.5a6.314,6.314,0,0,0-7.7,0,6.368,6.368,0,0,0-2.084,2.844A4.569,4.569,0,0,0,3.82,31.42v2.57H17V31.42a4.569,4.569,0,0,0-.657-9.075Z" transform="translate(0 -18.191)" fill="#bfbfbf"/>
  <path id="Caminho_1459" data-name="Caminho 1459" d="M261.878,22.344a6.368,6.368,0,0,0-2.084-2.844,6.253,6.253,0,0,0-3.849-1.309h0v15.8h6.592V31.42a4.569,4.569,0,0,0-.657-9.075Z" transform="translate(-245.535 -18.191)" fill="#bfbfbf"/>
  <g id="Grupo_592" data-name="Grupo 592" transform="translate(3.822 15.478)">
    <path id="Caminho_1460" data-name="Caminho 1460" d="M106.566,402.673H94.611a.61.61,0,0,1-.61-.61V398.81h13.175v3.253A.61.61,0,0,1,106.566,402.673Z" transform="translate(-94.001 -398.81)" fill="#bfbfbf"/>
  </g>
  <path id="Caminho_1461" data-name="Caminho 1461" d="M255.943,398.81v3.863h5.98a.61.61,0,0,0,.61-.61V398.81Z" transform="translate(-245.535 -383.332)" fill="#bfbfbf"/>
  <line id="Linha_7" data-name="Linha 7" x2="12" transform="translate(4.41 16.478)" fill="none" stroke="#fff" stroke-width="1"/>
</svg>
