<?xml version="1.0" encoding="utf-8"?>
<!-- Generator: Adobe Illustrator 25.0.1, SVG Export Plug-In . SVG Version: 6.00 Build 0)  -->
<svg version="1.1" id="Camada_1" xmlns="http://www.w3.org/2000/svg" xmlns:xlink="http://www.w3.org/1999/xlink" x="0px" y="0px"
	 viewBox="0 0 35 35" style="enable-background:new 0 0 35 35;" xml:space="preserve">
<style type="text/css">
	.st0{display:none;}
	.st1{display:inline;}
	.st2{fill:#FFFFFF;}
	.st3{fill:none;stroke:#F86464;stroke-width:4;}
	.st4{display:inline;fill:#F86464;}
	.st5{display:none;fill:#FCFCFA;stroke:#B5CC18;stroke-miterlimit:10;}
	.st6{fill:none;stroke:#BFBFBF;stroke-width:4;}
</style>
<g id="Grupo_2055" transform="translate(-65 -281)" class="st0">
	<g id="Elipse_319" transform="translate(65 281)" class="st1">
		<circle class="st2" cx="17.5" cy="17.5" r="17.5"/>
		<circle class="st3" cx="17.5" cy="17.5" r="15.5"/>
	</g>
	<path id="Icon_awesome-play" class="st4" d="M90.1,297.3l-10.4-6.1c-0.7-0.4-1.5-0.2-1.9,0.5c-0.1,0.2-0.2,0.5-0.2,0.7v12.3
		c0,0.8,0.6,1.4,1.4,1.4c0.3,0,0.5-0.1,0.7-0.2l10.4-6.1c0.7-0.4,0.9-1.3,0.5-1.9C90.4,297.6,90.3,297.4,90.1,297.3z"/>
</g>
<g id="Grupo_2055_1_" transform="translate(-65 -281)">
	<g id="Elipse_319_2_" transform="translate(65 281)">
		<circle class="st5" cx="17.5" cy="17.5" r="17.5"/>
		<circle class="st2" cx="17.5" cy="17.5" r="17.5"/>
		<circle class="st6" cx="17.5" cy="17.5" r="15.5"/>
	</g>
</g>
</svg>
