<?xml version="1.0" encoding="utf-8"?>
<!-- Generator: Adobe Illustrator 25.0.1, SVG Export Plug-In . SVG Version: 6.00 Build 0)  -->
<svg version="1.1" id="Level_icon_hat" xmlns="http://www.w3.org/2000/svg" xmlns:xlink="http://www.w3.org/1999/xlink" x="0px"
	 y="0px" viewBox="0 0 20.8 19.3" style="enable-background:new 0 0 20.8 19.3;" xml:space="preserve">
<style type="text/css">
	.st0{fill:#BFBFBF;}
	.st1{fill:none;stroke:#FFFFFF;}
</style>
<path id="Caminho_1458" class="st0" d="M16.3,4.2C15.9,3,15.2,2,14.3,1.3c-2.3-1.7-5.4-1.7-7.7,0C5.6,2,4.9,3,4.5,4.2
	C2,4.2-0.1,6.3,0,8.8c0,2.2,1.7,4.1,3.8,4.4v2.6H17v-2.6c2.5-0.4,4.2-2.8,3.8-5.3C20.4,5.8,18.5,4.2,16.3,4.2L16.3,4.2z"/>
<path id="Caminho_1459" class="st0" d="M16.3,4.2C15.9,3,15.2,2,14.3,1.3C13.2,0.5,11.8,0,10.4,0l0,0v15.8H17v-2.6
	c2.5-0.4,4.2-2.8,3.8-5.3C20.4,5.8,18.5,4.2,16.3,4.2L16.3,4.2z"/>
<g id="Grupo_592" transform="translate(3.822 15.478)">
	<path id="Caminho_1460" class="st0" d="M12.6,3.9h-12C0.3,3.9,0,3.6,0,3.3V0h13.2v3.3C13.2,3.6,12.9,3.9,12.6,3.9
		C12.6,3.9,12.6,3.9,12.6,3.9z"/>
</g>
<path id="Caminho_1461" class="st0" d="M10.4,15.5v3.9h6c0.3,0,0.6-0.3,0.6-0.6v-3.3H10.4z"/>
<line id="Linha_7" class="st1" x1="4.4" y1="16.5" x2="16.4" y2="16.5"/>
</svg>
