<?xml version="1.0" encoding="utf-8"?>
<!-- Generator: Adobe Illustrator 25.0.1, SVG Export Plug-In . SVG Version: 6.00 Build 0)  -->
<svg version="1.1" id="Camada_1" xmlns="http://www.w3.org/2000/svg" xmlns:xlink="http://www.w3.org/1999/xlink" x="0px" y="0px"
	 viewBox="0 0 29.2 29.2" style="enable-background:new 0 0 29.2 29.2;" xml:space="preserve">
<style type="text/css">
	.st0{fill:#767676;}
</style>
<path id="Icon_ionic-ios-information-circle" class="st0" d="M14.6,0C6.5,0,0,6.5,0,14.6s6.5,14.6,14.6,14.6s14.6-6.5,14.6-14.6
	C29.3,6.5,22.7,0,14.6,0C14.6,0,14.6,0,14.6,0z M16,21.4h-2.7V11.2H16V21.4z M14.6,10.1c-0.8,0-1.4-0.7-1.3-1.5s0.7-1.4,1.5-1.3
	c0.7,0,1.3,0.6,1.3,1.4C16.1,9.5,15.4,10.1,14.6,10.1C14.6,10.1,14.6,10.1,14.6,10.1z"/>
</svg>
