<?xml version="1.0" encoding="utf-8"?>
<!-- Generator: Adobe Illustrator 25.0.1, SVG Export Plug-In . SVG Version: 6.00 Build 0)  -->
<svg version="1.1" id="Camada_1" xmlns="http://www.w3.org/2000/svg" xmlns:xlink="http://www.w3.org/1999/xlink" x="0px" y="0px"
	 viewBox="0 0 35 35" style="enable-background:new 0 0 35 35;" xml:space="preserve">
<style type="text/css">
	.st0{fill:#F86464;}
	.st1{fill:none;stroke:#FFFFFF;stroke-width:4;}
	.st2{fill:#FFFFFF;}
</style>
<g id="Grupo_2054" transform="translate(-65 -281)">
	<g id="Elipse_319" transform="translate(65 281)">
		<circle class="st0" cx="17.5" cy="17.5" r="17.5"/>
		<circle class="st1" cx="17.5" cy="17.5" r="15.5"/>
	</g>
	<path id="Icon_material-lock" class="st2" d="M87.3,295.4h-0.8v-1.6c0-2.3-1.8-4.1-4.1-4.1s-4.1,1.8-4.1,4.1c0,0,0,0,0,0v1.6h-0.8
		c-0.9,0-1.6,0.7-1.6,1.6v8.2c0,0.9,0.7,1.6,1.6,1.6h9.8c0.9,0,1.6-0.7,1.6-1.6V297C89,296.1,88.2,295.4,87.3,295.4z M82.4,302.7
		c-0.9,0-1.6-0.7-1.6-1.6s0.7-1.6,1.6-1.6c0.9,0,1.6,0.7,1.6,1.6C84,302,83.3,302.7,82.4,302.7z M84.9,295.4h-5.1v-1.6
		c0-1.4,1.1-2.6,2.5-2.6c1.4,0,2.6,1.1,2.6,2.5c0,0,0,0.1,0,0.1L84.9,295.4z"/>
</g>
</svg>
