<?xml version="1.0" encoding="utf-8"?>
<!-- Generator: Adobe Illustrator 25.0.1, SVG Export Plug-In . SVG Version: 6.00 Build 0)  -->
<svg version="1.1" id="Camada_1" xmlns="http://www.w3.org/2000/svg" xmlns:xlink="http://www.w3.org/1999/xlink" x="0px" y="0px"
	 viewBox="0 0 144 191.6" style="enable-background:new 0 0 144 191.6;" xml:space="preserve">
<style type="text/css">
	.st0{fill:#F86464;}
	.st1{opacity:0.2;enable-background:new    ;}
	.st2{fill:#D0CDE1;}
	.st3{fill:#2F2E41;}
	.st4{opacity:0.45;fill:#535A5D;enable-background:new    ;}
	.st5{fill:#FFFFFF;}
	.st6{fill:#DADCDF;}
</style>
<g id="Grupo_1279" transform="translate(229.233 123)">
	<path id="Caminho_2509" class="st0" d="M-91.8-9.1c0,8.8-1.8,17.5-5.2,25.6l-0.2,0.5c-12,27.4-41.3,43-70.7,37.9
		c-0.4-0.1-0.8-0.1-1.2-0.2c-4-0.8-7.9-1.9-11.7-3.5c-0.6-0.2-1.2-0.5-1.8-0.8c-0.4-0.2-0.8-0.4-1.2-0.6
		c-32.5-15-46.7-53.6-31.7-86.2c15-32.5,53.6-46.7,86.2-31.7C-106.5-57.4-91.8-34.4-91.8-9.1L-91.8-9.1z"/>
	<path id="Caminho_2510" class="st1" d="M-168,54.8c-0.4-0.1-0.8-0.1-1.2-0.2c-0.4-12.8-1.8-25.6-4.1-38.3c-1.5-8.7-3.9-17.2-7-25.5
		c-1.1-2.7-2.3-5.4-3.7-8c-3.2-6-7-11-11.6-14.4l0.7-0.9c4.2,3.2,7.8,7.3,10.4,11.9c0.9,1.5,1.8,3.2,2.7,4.9
		c0.9,1.9,1.8,3.8,2.6,5.9c0.5,1.3,1,2.7,1.5,4.1c2.3,6.9,4.2,14,5.5,21.1c0.3,1.7,0.6,3.5,0.9,5.4C-169.4,32.1-168.4,43.4-168,54.8
		z"/>
	<path id="Caminho_2511" class="st1" d="M-182.7,50.4c-0.4-0.2-0.8-0.4-1.2-0.6c-0.4-5-1.3-10-2.5-14.9c-0.6-2.3-1.3-4.6-2.3-6.8
		c-1.5-3.6-3.5-6.7-6.1-8.6l0.7-0.9c2.8,2.3,5,5.3,6.4,8.7c1.8,4.3,3.1,8.9,3.8,13.5C-183.4,44.3-183,47.6-182.7,50.4z"/>
	<circle id="Elipse_320" class="st1" cx="-202" cy="-37.4" r="5.8"/>
	<circle id="Elipse_321" class="st1" cx="-200.1" cy="12.4" r="5.8"/>
	<path id="Caminho_2512" class="st1" d="M-179.1-27.7c-0.7,4.4-0.2,9,1.5,13.2c6.3-6.7,8-16.5,4.4-25
		C-176.1-36.2-178.2-32.1-179.1-27.7z"/>
	<path id="Caminho_2513" class="st1" d="M-198.3-11.2c4.3,1.4,8.8,1.7,13.2,0.9c-5.6-7.3-14.9-10.7-23.9-8.7
		C-206.1-15.6-202.5-12.9-198.3-11.2z"/>
	<path id="Caminho_2514" class="st1" d="M-199.4,32.8c3,1,6.2,1.2,9.3,0.6c-3.9-5.2-10.4-7.6-16.7-6.1
		C-204.9,29.7-202.3,31.6-199.4,32.8z"/>
	<circle id="Elipse_322" class="st2" cx="-156.9" cy="-20.1" r="25.3"/>
	<path id="Caminho_2515" class="st2" d="M-166.8-0.7c0,0,3.2,15,3.2,16.6s15,8.7,15,8.7l13.4-2.4l4.7-14.2c0,0-7.9-11.9-7.9-16.6
		L-166.8-0.7z"/>
	<path id="Caminho_2516" class="st3" d="M-97,16.4l-0.2,0.5c-12.1,27.4-41.3,43-70.7,37.9c-0.4-0.1-0.8-0.1-1.2-0.2
		c-4-0.8-7.9-1.9-11.7-3.5c-0.6-0.2-1.2-0.5-1.8-0.8c-0.4-0.2-0.8-0.4-1.2-0.6c-3.7-1.7-7.3-3.8-10.6-6.2l-3-8.7l1.7-1.3l3.5-2.6
		l3.7-2.8l1-0.7l14.5-11.1l1.1-0.8l7.5-5.8l0,0c0,0,8.2,13.3,20,9.3c6.8-2.1,11.4-8.2,11.6-15.3L-97,16.4z"/>
	<path id="Caminho_2517" class="st3" d="M-178.8-40.5c0,0,8-17.4,23.4-13.4s24.1,10,24.8,16.1s-0.3,15.1-0.3,15.1
		s-1.7-12.4-12.4-9.7s-27.5,0.7-27.5,0.7l-2.7,24.1c0,0-3-4.4-6.4-1.7S-189.5-35.1-178.8-40.5z"/>
	<path id="Caminho_2518" class="st3" d="M-180.9,51.1c-0.6-0.2-1.2-0.5-1.8-0.8c-0.4-0.2-0.8-0.4-1.2-0.6
		c-6.2-2.9-11.8-6.7-16.8-11.3c0.9-1.3,2-2.5,3.2-3.6h11.9l1.8,6L-180.9,51.1z"/>
</g>
<path id="Caminho_1039" class="st4" d="M71.2,17.8c-1.8-2-4.1-3.5-6.7-4.3c-2-0.6-4.1-0.8-6.1-0.5c-2.5,0.3-5,0.2-7.5-0.3
	c-1.5-0.3-3.1-0.5-4.7-0.4c-3.9,0.1-7.6,1.6-10.6,4.2c-0.7,0.6-1.5,1.2-2.4,1.5c-0.7,0.3-1.4,0.4-2.1,0.5c-7.2,0.7-12,7.2-12.6,11.9
	c-0.3,2.1-0.8,4.1-1.6,6.1c-1.7,4.4-0.4,9.4,3.4,12.3c1.2,0.9,2.1,2.2,2.5,3.7l0,0.2c1.3,4.7,6.2,7.4,10.9,6.1l0.3-0.1l0,0
	c0.2,0.3,0.5,0.6,0.6,0.9l0,0l0,0L38,70c3.7-1.9,7.6-3.6,11.5-5.1c2.8-1.1,5.7-2.1,8.6-3c6.9-2.1,13.9-3.6,21.1-4.5l0.1,0L76,46.9
	l-0.1,0l0.1,0l0.1-0.1L76,46.9l0,0l0.1-0.1c7.6-4,7.2-6.9,5.3-10.3c-1-1.8-1.5-3.9-1.4-6c0-1.1-0.1-2.1-0.3-3.2
	c-0.5-2.5-2-4.7-4.2-6C73.9,20.5,72.4,19.2,71.2,17.8z"/>
<g id="Grupo_563" transform="translate(1.211)">
	<path id="Caminho_1040" class="st5" d="M28.1,35.3L28.1,35.3C28.1,35.2,28.1,35.3,28.1,35.3z"/>
	<path id="Caminho_1041" class="st5" d="M76.3,17.7c-1.6-1-3.1-2.2-4.3-3.6c-1.8-2-4.1-3.5-6.7-4.3c-2-0.6-4.1-0.8-6.1-0.5
		c-2.5,0.3-5,0.2-7.5-0.3c-1.5-0.3-3.1-0.5-4.7-0.4c-3.9,0.1-7.6,1.6-10.6,4.2c-0.7,0.6-1.5,1.2-2.4,1.5c-0.7,0.3-1.4,0.4-2.1,0.5
		c-7.2,0.7-12,7.2-12.6,11.9c-0.3,2.1-0.8,4.1-1.6,6.1c-1.7,4.4-0.4,9.4,3.4,12.3c1.2,0.9,2.1,2.2,2.5,3.7l0,0.2
		c1.3,4.7,6.2,7.4,10.9,6.1L35,55c-5.1-1.9-6.9-8.2-6.9-8.2c4.8,4,11.3,3.5,11.3,3.5c-4.9-4.1-8.6-12-9.1-13
		c2.1,4.3,16.9,10.3,16.9,10.3c-5.4-6.4-5.6-18.7-5.6-18.7c1.8,7.5,11.6,16,11.6,16c8-2.7,6.6-25.2,6.6-25.2c1.7,3.3,3,22.5,3,22.5
		c10.6-4.6,10.8-21.9,10.8-21.9c1.5,4.3,0,20.6,0,20.6c3.2-1.7,5.3-4.9,5.7-8.5c2.5,7.2-2.3,10.7-2.5,10.9l0.1-0.1
		c7.6-4,7.2-6.9,5.3-10.3c-1-1.8-1.5-3.9-1.4-6c0-1.1-0.1-2.1-0.3-3.2C80.1,21.2,78.5,19,76.3,17.7z"/>
	<path id="Caminho_1042" class="st5" d="M76.9,43.2l3.2,10.4l-0.1,0c-7.1,0.9-14.2,2.4-21.1,4.5c-2.9,0.9-5.8,1.9-8.6,3
		c-3.9,1.5-7.7,3.2-11.5,5.1l-3.2-10.4c4.2-2.1,8.5-4,13-5.7c2.3-0.9,7-5.9,9.4-6.6c6.9-2.1,16.8-2,18.8-0.4L76.9,43.2z"/>
	<path id="Caminho_1043" class="st6" d="M79.4,32.3c-0.4,3.6-2.5,6.7-5.7,8.5c0,0,1.5-16.3,0-20.6c0,0-0.2,17.3-10.8,21.9
		c0,0-1.3-19.1-3-22.5c0,0,1.4,22.5-6.6,25.2c0,0-9.8-8.5-11.6-16c0,0,0.1,12.4,5.6,18.7c0,0-15-6.1-16.9-10.4c0,0,3.8,8.8,9.1,13.1
		c0,0-6.5,0.5-11.3-3.5c0,0,1.8,6.3,6.9,8.2c0.2,0.3,0.5,0.6,0.6,0.9l0,0l0,0l3.2,10.4c3.7-1.9,7.6-3.6,11.5-5.1
		c2.8-1.1,5.7-2.1,8.6-3c6.9-2.1,13.9-3.6,21.1-4.5l0.1,0l-0.7-2.4c-8.8,0.5-19.1,3.5-27.7,6.7c-1.4,0.5-3-0.2-3.6-1.6
		c-0.1-0.3-0.2-0.6-0.2-0.8c0-1.8,0.2-3.5,0.7-5.2l0,0c13.2-7.4,28-6.9,28.2-7l0,0l0.1,0l0.1-0.1l-0.1,0.1
		C77.1,43,81.9,39.5,79.4,32.3z"/>
	<path id="Caminho_1044" class="st6" d="M34,14.4c-0.7,2.1-2.4,3.7-4.5,4.4c-3.8,1.2-10.5,6.6-7,13.2c0,0-5.8,7.3,1.1,11.4
		c0,0,1.5,12.1,11.4,11.6l-0.3,0.1c-4.7,1.3-9.5-1.4-10.9-6.1l-0.1-0.2c-0.4-1.5-1.3-2.8-2.5-3.7c-3.7-2.9-5.1-7.9-3.4-12.3
		c0.8-1.9,1.3-4,1.6-6.1C20,22,24.8,15.5,32,14.9C32.7,14.8,33.4,14.6,34,14.4z"/>
</g>
</svg>
