<?xml version="1.0" encoding="utf-8"?>
<!-- Generator: Adobe Illustrator 25.0.1, SVG Export Plug-In . SVG Version: 6.00 Build 0)  -->
<svg version="1.1" id="Camada_1" xmlns="http://www.w3.org/2000/svg" xmlns:xlink="http://www.w3.org/1999/xlink" x="0px" y="0px"
	 viewBox="0 0 31 31" style="enable-background:new 0 0 31 31;" xml:space="preserve">
<style type="text/css">
	.st0{fill:#FFFFFF;}
	.st1{fill:none;stroke:#F86464;stroke-width:3;}
	.st2{enable-background:new    ;}
	.st3{fill:#F86464;}
</style>
<g id="Step" transform="translate(-46 -456)">
	<g id="Elipse_769" transform="translate(49 456)">
		<circle class="st0" cx="12.5" cy="15.5" r="15.5"/>
		<circle class="st1" cx="12.5" cy="15.5" r="14"/>
	</g>
	<g class="st2">
		<path class="st3" d="M66.5,478h-10v-2.2c2.9-2.1,4.8-3.6,5.7-4.5s1.4-1.7,1.4-2.5c0-0.6-0.2-1-0.6-1.3c-0.4-0.3-0.9-0.4-1.5-0.4
			c-1.4,0-2.6,0.5-3.6,1.5l-1.6-1.9c0.6-0.7,1.4-1.3,2.3-1.6c0.9-0.4,1.9-0.5,2.8-0.5c1.5,0,2.7,0.4,3.6,1.2s1.5,1.8,1.5,3.1
			c0,1.1-0.4,2.2-1.3,3.2c-0.9,1-2.2,2.2-4,3.6h5.4V478z"/>
	</g>
</g>
</svg>
