<?xml version="1.0" encoding="utf-8"?>
<!-- Generator: Adobe Illustrator 25.0.1, SVG Export Plug-In . SVG Version: 6.00 Build 0)  -->
<svg version="1.1" id="Camada_1" xmlns="http://www.w3.org/2000/svg" xmlns:xlink="http://www.w3.org/1999/xlink" x="0px" y="0px"
	 viewBox="0 0 31 31" style="enable-background:new 0 0 31 31;" xml:space="preserve">
<style type="text/css">
	.st0{fill:#FFFFFF;}
	.st1{fill:none;stroke:#F86464;stroke-width:3;}
	.st2{enable-background:new    ;}
	.st3{fill:#F86464;}
</style>
<g id="Step" transform="translate(-46 -456)">
	<g id="Elipse_769" transform="translate(49 456)">
		<circle class="st0" cx="12.5" cy="15.5" r="15.5"/>
		<circle class="st1" cx="12.5" cy="15.5" r="14"/>
	</g>
	<g class="st2">
		<path class="st3" d="M61.3,478.2c-1.2,0-2.2-0.2-3.1-0.6c-0.9-0.4-1.6-0.9-2.1-1.6l1.5-1.9c0.4,0.5,1,0.8,1.7,1.1
			c0.7,0.3,1.3,0.4,2,0.4c0.8,0,1.4-0.2,1.9-0.5c0.4-0.3,0.7-0.7,0.7-1.2c0-0.5-0.2-0.9-0.6-1.2c-0.4-0.2-1.1-0.4-2-0.4
			c-0.8,0-1.4,0-1.7,0V470c0.2,0,0.7,0,1.7,0c1.7,0,2.5-0.5,2.5-1.4c0-0.5-0.2-0.9-0.7-1.2c-0.5-0.3-1.1-0.4-1.8-0.4
			c-1.3,0-2.4,0.5-3.4,1.4l-1.4-1.8c1.3-1.4,3-2.1,5.1-2.1c1.6,0,2.8,0.3,3.7,1c0.9,0.7,1.4,1.5,1.4,2.6c0,0.8-0.3,1.5-0.9,2
			s-1.3,0.9-2.1,1c0.8,0.1,1.5,0.4,2.2,1c0.6,0.6,1,1.3,1,2.2c0,1.2-0.5,2.1-1.4,2.8S62.9,478.2,61.3,478.2z"/>
	</g>
</g>
</svg>
