<?xml version="1.0" encoding="utf-8"?>
<!-- Generator: Adobe Illustrator 25.0.1, SVG Export Plug-In . SVG Version: 6.00 Build 0)  -->
<svg version="1.1" id="Camada_1" xmlns="http://www.w3.org/2000/svg" xmlns:xlink="http://www.w3.org/1999/xlink" x="0px" y="0px"
	 viewBox="0 0 46 49" style="enable-background:new 0 0 46 49;" xml:space="preserve">
<style type="text/css">
	.st0{fill:#FFE966;}
	.st1{fill:#FFE236;}
	.st2{fill:#FFC166;}
	.st3{fill:#FFB74E;}
	.st4{enable-background:new    ;}
	.st5{fill:#6B1B1B;}
</style>
<g id="Grupo_638" transform="translate(204.984 338.5)">
	<path id="Caminho_1577" class="st0" d="M-195.5-323c-0.1,0.7-0.2,1.4-0.3,2.1c-0.4,1.8-0.2,3.7,0.5,5.4c0.3,0.6,0.7,1.2,1.2,1.7
		c0.5,0.6,1.4,0.6,1.9,0.1c0.1-0.1,0.1-0.1,0.2-0.2c0.9-0.9,1.3-2.2,1-3.5s-0.4-2.7-0.5-4c0-3.2,1.5-6.2,4-8.1
		c0.5-0.4,1-0.7,1.5-1.1c0.3-0.2,0.6-0.4,0.9-0.6c1.6-0.9,2.4-2.9,1.9-4.7c-0.1-0.8-0.3-1.6-0.5-2.4c-0.1-0.3,0-0.4,0.3-0.2
		c1.6,0.7,3.1,1.6,4.3,2.9c3,3.4,0.3,8.1,0.6,12c0,0.5,0.2,1.1,0.3,1.6c0.6,1.7,2.6,3.7,4.5,2.6c1.1-0.9,1.9-2.1,2.1-3.5
		c0.3-1.4,0.4-2.8,0.1-4.2c0-0.1-0.1-0.3-0.1-0.4c0-0.2,0.1-0.3,0.2-0.3c0.1,0,0.2,0,0.3,0.1c2.5,2.5,4.4,5.5,5.6,8.8
		c0.5,1.5,0.9,3.1,1.2,4.7s0.4,3.2,0.3,4.8c0,1.6-0.3,3.2-0.6,4.7c-0.4,1.5-0.9,3-1.6,4.4c-0.7,1.4-1.6,2.7-2.6,3.9
		c-1.1,1.2-2.3,2.3-3.6,3.2c-0.3,0.2-0.7,0.4-1,0.6c-8.9,4.8-19.9,1.7-25-7c-3.5-6.4-3.8-14.9,0.9-20.8c0.6-0.8,1.2-1.6,1.9-2.4
		L-195.5-323z"/>
	<path id="Caminho_1578" class="st1" d="M-183.2-335.8c0,0.2,0.1,0.5,0.1,0.7c2.3,3.4-0.1,7.8,0.3,11.5c0,0.5,0.2,1.1,0.3,1.6
		c0.6,1.7,2.6,3.7,4.5,2.6c0.4-0.2,0.7-0.5,0.9-0.8c-0.5-0.5-0.8-1.1-1.1-1.7c-0.2-0.5-0.3-1.1-0.3-1.6c-0.4-3.9,2.3-8.6-0.6-12
		c-1.2-1.2-2.7-2.2-4.3-2.9c-0.3-0.1-0.3,0-0.3,0.2C-183.6-337.4-183.4-336.6-183.2-335.8z M-164.3-314.4c-0.3-1.6-0.7-3.2-1.2-4.7
		c-1.3-3.3-3.2-6.3-5.6-8.8c-0.1-0.1-0.3-0.1-0.4,0c-0.1,0.1-0.1,0.2-0.1,0.3c0,0.1,0.1,0.3,0.1,0.4c0.3,1.4,0.2,2.9-0.1,4.2v0.1
		c0.7,1.2,1.3,2.5,1.8,3.8c0.5,1.5,0.9,3.1,1.2,4.7s0.4,3.2,0.3,4.8c0,1.6-0.3,3.2-0.6,4.7c-0.4,1.5-0.9,3-1.6,4.4
		c-0.7,1.4-1.6,2.7-2.6,3.9c-1.1,1.2-2.3,2.3-3.6,3.2c-0.3,0.2-0.7,0.4-1,0.6c-2.1,1.1-4.3,1.9-6.7,2.1c3.8,0.5,7.7-0.3,11-2.1
		c0.3-0.2,0.7-0.4,1-0.6c1.4-0.9,2.6-1.9,3.6-3.2c1-1.2,1.9-2.5,2.6-3.9c0.7-1.4,1.2-2.9,1.6-4.4c0.4-1.6,0.6-3.1,0.6-4.7
		C-163.9-311.2-164-312.8-164.3-314.4L-164.3-314.4z M-199.6-315.5c0.3,0.6,0.7,1.2,1.2,1.7c0.5,0.6,1.4,0.6,1.9,0.1
		c0.1-0.1,0.1-0.1,0.2-0.2c0.5-0.5,0.9-1.2,1-1.9c-0.5-1.4-0.7-2.9-0.4-4.4c0-0.4-0.1-0.8-0.1-1.2c0-0.5,0-1,0.1-1.4
		c-0.6,0.7-1.1,1.5-1.7,2.2c-1,1.3-1.8,2.7-2.4,4.3C-199.8-316-199.7-315.7-199.6-315.5L-199.6-315.5z"/>
	<path id="Caminho_1579" class="st2" d="M-191.9-307.1c0.2,0.7,0.5,1.5,0.7,2.2c0.4,1.3,1.2,2.5,2.3,3.3c0.8,0.6,1.8,0.9,2.8,0.9
		c1.4,0,2.5-1,2.5-2.4c0-0.2,0-0.4-0.1-0.6c-0.3-1.3-0.7-2.6-1.3-3.8c-0.8-1.6-1.4-3.3-2-5c-0.9-3.1,0-6.4,2.5-8.5
		c0.5-0.5,1-0.9,1.5-1.3c0.1-0.1,0.2-0.3,0.4-0.2c0.2,0.1,0.1,0.3,0.1,0.4c0,1.1,0,2.2,0.2,3.3c0.4,2.3,1.5,4.5,3,6.2
		c1.4,1.6,2.9,3.1,4.3,4.7c1.3,1.5,2.4,3.2,3.2,5.1c1,2.4,0.7,5.2-0.8,7.3c-1.5,2.4-4,4.1-6.8,4.7c-3.4,0.9-7,0.3-10-1.5
		c-4.3-2.5-6-7.8-3.9-12.3c0.4-0.8,0.7-1.6,1.1-2.4L-191.9-307.1z"/>
	<path id="Caminho_1580" class="st3" d="M-193.1-301.6c0.8,0.6,1.8,0.9,2.8,0.9c0.7,0,1.3-0.3,1.8-0.7c-0.1,0-0.1-0.1-0.2-0.1
		c-1.1-0.8-1.9-2-2.3-3.3c-0.3-0.7-0.5-1.5-0.7-2.2h-0.2c-0.4,0.8-0.8,1.6-1.1,2.4c-0.4,0.8-0.6,1.6-0.8,2.5
		C-193.7-302-193.4-301.8-193.1-301.6z M-171.7-302.9c-0.8-1.9-1.9-3.6-3.2-5.1c-1.4-1.6-2.9-3.1-4.3-4.7c-1.6-1.8-2.6-3.9-3-6.2
		c-0.1-1.1-0.2-2.2-0.2-3.3c0-0.1,0.1-0.4-0.1-0.4c-0.2-0.1-0.3,0.1-0.4,0.2c-0.5,0.4-1,0.9-1.5,1.3c-0.9,0.8-1.6,1.8-2.1,2.8
		c0.5,2.1,1.5,4,2.9,5.6s2.9,3.1,4.3,4.7c1.3,1.5,2.4,3.2,3.2,5.1c1,2.4,0.7,5.2-0.8,7.3c-1.5,2.4-4,4.1-6.8,4.7
		c-0.4,0.1-0.8,0.2-1.1,0.2c1.8,0.3,3.7,0.2,5.5-0.2c2.8-0.6,5.3-2.2,6.8-4.7C-171-297.7-170.7-300.5-171.7-302.9z"/>
</g>
<g class="st4">
	<path class="st5" d="M20.2,42.1c0,0.3-0.1,0.5-0.4,0.7c-0.2,0.2-0.5,0.3-0.8,0.3c-0.2,0-0.4,0-0.6-0.1c-0.2-0.1-0.4-0.2-0.5-0.4
		l-2.1-3.1c-0.2-0.3-0.4-0.5-0.6-0.6c-0.2-0.1-0.5-0.2-0.8-0.2h-1.3v3.2c0,0.4-0.1,0.7-0.3,0.9c-0.2,0.2-0.5,0.3-0.9,0.3
		c-0.4,0-0.7-0.1-0.9-0.3c-0.2-0.2-0.3-0.5-0.3-0.9v-9c0-0.4,0.1-0.7,0.3-0.9c0.2-0.2,0.5-0.3,0.9-0.3h4c1.3,0,2.3,0.3,3,0.9
		c0.7,0.6,1,1.4,1,2.5c0,0.9-0.2,1.6-0.7,2.2c-0.5,0.6-1.2,1-2,1.1c0.3,0.1,0.6,0.2,0.9,0.4s0.5,0.5,0.7,0.8l1.2,1.8
		C20.1,41.7,20.2,41.9,20.2,42.1z M17.1,36.4c0.3-0.2,0.5-0.6,0.5-1.2c0-0.5-0.2-0.9-0.5-1.2c-0.3-0.2-0.8-0.4-1.6-0.4h-2.4v3.1h2.4
		C16.2,36.7,16.8,36.6,17.1,36.4z"/>
	<path class="st5" d="M22.3,42.8c-0.2-0.2-0.3-0.5-0.3-0.9v-9c0-0.4,0.1-0.7,0.3-0.9c0.2-0.2,0.5-0.3,0.9-0.3c0.4,0,0.7,0.1,0.9,0.3
		c0.2,0.2,0.3,0.5,0.3,0.9v9c0,0.4-0.1,0.7-0.3,0.9c-0.2,0.2-0.5,0.3-0.9,0.3C22.8,43.1,22.5,43,22.3,42.8z"/>
	<path class="st5" d="M27,42.8c-0.2-0.2-0.3-0.5-0.3-0.9v-9c0-0.4,0.1-0.7,0.3-0.9c0.2-0.2,0.5-0.3,0.9-0.3h4c1.2,0,2.2,0.3,2.9,0.9
		c0.7,0.6,1,1.5,1,2.6s-0.3,2-1,2.6c-0.7,0.6-1.6,0.9-2.9,0.9h-2.7v3.1c0,0.4-0.1,0.7-0.3,0.9c-0.2,0.2-0.5,0.3-0.9,0.3
		C27.5,43.1,27.2,43,27,42.8z M31.5,36.9c1.2,0,1.9-0.5,1.9-1.6c0-1.1-0.6-1.6-1.9-1.6h-2.4v3.2H31.5z"/>
</g>
</svg>
