<?xml version="1.0" encoding="utf-8"?>
<!-- Generator: Adobe Illustrator 25.0.1, SVG Export Plug-In . SVG Version: 6.00 Build 0)  -->
<svg version="1.1" id="Camada_1" xmlns="http://www.w3.org/2000/svg" xmlns:xlink="http://www.w3.org/1999/xlink" x="0px" y="0px"
	 viewBox="0 0 41.2 41.2" style="enable-background:new 0 0 41.2 41.2;" xml:space="preserve">
<style type="text/css">
	.st0{fill:#767676;}
</style>
<g id="Icon_ionic-md-sad" transform="translate(-3.375 -3.375)">
	<path id="Caminho_7255" class="st0" d="M24,27.2c-4.3,0-8.3,2.5-10.1,6.3h20.3C32.3,29.6,28.3,27.2,24,27.2z"/>
	<path id="Caminho_7256" class="st0" d="M24,3.4C12.6,3.4,3.4,12.6,3.4,24S12.6,44.6,24,44.6S44.6,35.4,44.6,24
		C44.6,12.6,35.4,3.4,24,3.4C24,3.4,24,3.4,24,3.4z M24,40.5c-9.1,0-16.5-7.4-16.5-16.5S14.9,7.5,24,7.5S40.5,14.9,40.5,24
		C40.5,33.1,33.1,40.5,24,40.5z"/>
	<path id="Caminho_7257" class="st0" d="M31.2,21.9c1.7,0,3.1-1.4,3.1-3.1s-1.4-3.1-3.1-3.1c-1.7,0-3.1,1.4-3.1,3.1c0,0,0,0,0,0
		c0,1.7,1.3,3.1,3,3.1C31.1,21.9,31.2,21.9,31.2,21.9z"/>
	<path id="Caminho_7258" class="st0" d="M16.8,21.9c1.7,0,3.1-1.4,3.1-3.1s-1.4-3.1-3.1-3.1c-1.7,0-3.1,1.4-3.1,3.1c0,0,0,0,0,0
		c0,1.7,1.3,3.1,3,3.1C16.7,21.9,16.7,21.9,16.8,21.9z"/>
</g>
</svg>
