<?xml version="1.0" encoding="utf-8"?>
<!-- Generator: Adobe Illustrator 25.0.1, SVG Export Plug-In . SVG Version: 6.00 Build 0)  -->
<svg version="1.1" id="Camada_1" xmlns="http://www.w3.org/2000/svg" xmlns:xlink="http://www.w3.org/1999/xlink" x="0px" y="0px"
	 viewBox="0 0 56 42" style="enable-background:new 0 0 56 42;" xml:space="preserve">
<style type="text/css">
	.st0{fill-rule:evenodd;clip-rule:evenodd;fill:#FFFFFF;}
	.st1{fill:#FFFFFF;}
</style>
<g id="camera" transform="translate(0 -4.5)">
	<path id="Caminho_6721" class="st0" d="M52.5,39.5v-21c0-1.9-1.6-3.5-3.5-3.5h-4.1c-2.8,0-5.4-1.1-7.4-3.1L34.5,9
		c-0.7-0.6-1.5-1-2.5-1h-8.2c-0.9,0-1.8,0.4-2.5,1l-2.9,2.9c-2,2-4.6,3.1-7.4,3.1H7c-1.9,0-3.5,1.6-3.5,3.5v21C3.5,41.4,5.1,43,7,43
		h42C50.9,43,52.5,41.4,52.5,39.5z M7,11.5c-3.9,0-7,3.1-7,7c0,0,0,0,0,0v21c0,3.9,3.1,7,7,7h42c3.9,0,7-3.1,7-7v-21
		c0-3.9-3.1-7-7-7h-4.1c-1.9,0-3.6-0.7-4.9-2.1L37,6.5c-1.3-1.3-3.1-2-4.9-2h-8.2c-1.9,0-3.6,0.7-4.9,2.1L16,9.5
		c-1.3,1.3-3.1,2-4.9,2L7,11.5z"/>
	<path id="Caminho_6722" class="st0" d="M28,36c4.8,0,8.7-3.9,8.7-8.7s-3.9-8.7-8.7-8.7s-8.7,3.9-8.7,8.7S23.1,36,28,36L28,36z
		 M28,39.5c6.8,0,12.2-5.5,12.2-12.2S34.7,15,28,15c-6.8,0-12.2,5.5-12.2,12.2C15.7,34,21.2,39.5,28,39.5C28,39.5,28,39.5,28,39.5
		L28,39.5z"/>
	<path id="Caminho_6723" class="st1" d="M10.5,20.2c0,1-0.8,1.7-1.7,1.7c-1,0-1.7-0.8-1.7-1.7c0-1,0.8-1.7,1.7-1.7
		C9.7,18.5,10.5,19.3,10.5,20.2C10.5,20.2,10.5,20.2,10.5,20.2z"/>
</g>
</svg>
