<?xml version="1.0" encoding="utf-8"?>
<!-- Generator: Adobe Illustrator 25.0.1, SVG Export Plug-In . SVG Version: 6.00 Build 0)  -->
<svg version="1.1" id="Camada_1" xmlns="http://www.w3.org/2000/svg" xmlns:xlink="http://www.w3.org/1999/xlink" x="0px" y="0px"
	 viewBox="0 0 35 57" style="enable-background:new 0 0 35 57;" xml:space="preserve">
<style type="text/css">
	.st0{opacity:0.26;fill:#FFD21C;enable-background:new    ;}
	.st1{fill:#D2D5D7;}
	.st2{fill:#E6E6E6;}
	.st3{fill:#F86464;}
</style>
<g id="Grupo_2510" transform="translate(-81 -264)">
	<circle id="Elipse_1012" class="st0" cx="98.5" cy="292.5" r="17.5"/>
	<g id="spoon" transform="translate(69.5 264)">
		<path id="Caminho_7425" class="st1" d="M28.5,30c-0.6,0-1-0.4-1-1v-9c0-0.6,0.4-1,1-1s1,0.4,1,1v9C29.5,29.6,29.1,30,28.5,30z"/>
		<ellipse id="Elipse_1031" class="st2" cx="28.5" cy="10" rx="6" ry="10"/>
		<path id="Caminho_7426" class="st3" d="M28.5,57L28.5,57c-1.7,0-3-1.3-3-3V32c0-1.7,1.3-3,3-3l0,0c1.7,0,3,1.3,3,3v22
			C31.5,55.7,30.2,57,28.5,57z"/>
		<path id="Caminho_7427" class="st1" d="M28.5,35L28.5,35c-0.6,0-1-0.4-1-1l0,0c0-0.6,0.4-1,1-1l0,0c0.6,0,1,0.4,1,1l0,0
			C29.5,34.6,29.1,35,28.5,35z"/>
		<path id="Caminho_7428" class="st1" d="M28.5,39L28.5,39c-0.6,0-1-0.4-1-1l0,0c0-0.6,0.4-1,1-1l0,0c0.6,0,1,0.4,1,1l0,0
			C29.5,38.6,29.1,39,28.5,39z"/>
	</g>
</g>
</svg>
