<?xml version="1.0" encoding="utf-8"?>
<!-- Generator: Adobe Illustrator 25.0.1, SVG Export Plug-In . SVG Version: 6.00 Build 0)  -->
<svg version="1.1" id="Camada_1" xmlns="http://www.w3.org/2000/svg" xmlns:xlink="http://www.w3.org/1999/xlink" x="0px" y="0px"
	 viewBox="0 0 24 24" style="enable-background:new 0 0 24 24;" xml:space="preserve">
<style type="text/css">
	.st0{fill:#FFEA65;}
	.st1{fill:#FED223;}
	.st2{fill:#994C0F;}
	.st3{fill:#713708;}
</style>
<g id="cookie" transform="translate(0)">
	<path id="Caminho_1480" class="st0" d="M23.5,11c-1.4-0.5-2.3-1.8-2.3-3.3c0-0.2-0.1-0.5-0.3-0.6C20.8,7,20.6,7,20.4,7
		c-1.1,0.2-2.3-0.1-3.2-0.9c-0.9-0.7-1.5-1.8-1.6-2.9c0-0.2-0.1-0.4-0.3-0.5c-0.2-0.1-0.4-0.1-0.6-0.1c-1.8,0.6-3.8-0.4-4.4-2.2
		C10.1,0.1,9.8-0.1,9.4,0C6.7,0.7,4.3,2.2,2.6,4.5c-3.8,4.8-3.5,11.7,0.9,16.1c4.7,4.7,12.2,4.7,16.9,0c0,0,0,0,0,0
		c2.3-2.3,3.6-5.3,3.6-8.6C24,11.5,24,11.2,23.5,11z"/>
	<path id="Caminho_1481" class="st1" d="M24,12c0,3.2-1.3,6.3-3.6,8.6c-4.7,4.7-12.2,4.7-16.9,0c0,0,0,0,0,0L17.2,6.1
		c0.9,0.7,2,1,3.2,0.9c0.2,0,0.4,0,0.6,0.2c0.2,0.1,0.3,0.4,0.3,0.6c0,1.5,0.9,2.8,2.3,3.3C24,11.2,24,11.5,24,12z"/>
	<path id="Caminho_1482" class="st2" d="M9.1,14.7c-0.4-0.3-0.8-0.5-1.3-0.5c-1.2,0-2.1,0.9-2.1,2.1c0,0,0,0,0,0
		c0,1.2,1,2.1,2.1,2.1c1.2,0,2.1-0.9,2.1-2.1c0,0,0,0,0,0C9.9,15.7,9.6,15.1,9.1,14.7z"/>
	<g id="Grupo_599" transform="translate(12.67 9.95)">
		<path id="Caminho_1483" class="st3" d="M2.1,4.2C0.9,4.2,0,3.3,0,2.1S0.9,0,2.1,0s2.1,0.9,2.1,2.1l0,0C4.2,3.3,3.3,4.2,2.1,4.2z"
			/>
		<path id="Caminho_1484" class="st3" d="M1.4,9.9C0.6,9.9,0,9.2,0,8.4C0,7.7,0.6,7,1.4,7c0.8,0,1.4,0.6,1.4,1.4c0,0,0,0,0,0
			C2.8,9.2,2.2,9.9,1.4,9.9z"/>
	</g>
	<path id="Caminho_1485" class="st2" d="M8.4,9.9C7.7,9.9,7,9.3,7,8.5c0-0.8,0.6-1.4,1.4-1.4c0.8,0,1.4,0.6,1.4,1.4
		C9.9,9.3,9.2,9.9,8.4,9.9z"/>
	<ellipse id="Elipse_187" class="st3" cx="19" cy="14.9" rx="0.7" ry="0.7"/>
	<ellipse id="Elipse_188" class="st2" cx="4.9" cy="12.1" rx="0.7" ry="0.7"/>
	<path id="Caminho_1486" class="st3" d="M9.9,16.3c0,1.2-0.9,2.1-2.1,2.1c0,0,0,0,0,0c-0.6,0-1.2-0.3-1.6-0.7l2.9-3
		C9.6,15.1,9.9,15.7,9.9,16.3z"/>
</g>
</svg>
