<?xml version="1.0" encoding="utf-8"?>
<!-- Generator: Adobe Illustrator 25.0.1, SVG Export Plug-In . SVG Version: 6.00 Build 0)  -->
<svg version="1.1" id="open-book_1_" xmlns="http://www.w3.org/2000/svg" xmlns:xlink="http://www.w3.org/1999/xlink" x="0px"
	 y="0px" viewBox="0 0 35.9 27.4" style="enable-background:new 0 0 35.9 27.4;" xml:space="preserve">
<style type="text/css">
	.st0{fill:#F86464;}
	.st1{fill:#FBB1B1;}
</style>
<g id="Grupo_636" transform="translate(0 0)">
	<g id="Grupo_635">
		<path id="Caminho_1559" class="st0" d="M5.5,0L5.5,0C5.2,0,4.8,0.1,4.6,0.4C4.3,0.6,4.2,0.9,4.2,1.3v19.3c0,0.7,0.6,1.3,1.3,1.3
			c3,0,8,0.6,11.5,4.2V5.9c0-0.2-0.1-0.5-0.2-0.7C13.9,0.7,8.5,0,5.5,0z"/>
		<path id="Caminho_1560" class="st1" d="M31.7,20.6V1.3c0-0.3-0.1-0.7-0.4-0.9C31.1,0.1,30.7,0,30.4,0l0,0c-3,0-8.4,0.7-11.3,5.3
			C19,5.5,18.9,5.7,19,5.9v20.2c3.5-3.6,8.5-4.2,11.5-4.2C31.1,21.8,31.7,21.3,31.7,20.6z"/>
		<path id="Caminho_1561" class="st1" d="M34.6,4.4h-0.9v16.1c0,1.8-1.5,3.3-3.3,3.3c-2.5,0-6.7,0.5-9.7,3.3
			c4.5-0.9,9.1-0.8,13.6,0.3c0.7,0.2,1.4-0.3,1.5-1c0-0.1,0-0.2,0-0.3V5.7C35.9,5,35.3,4.4,34.6,4.4z"/>
		<path id="Caminho_1562" class="st0" d="M2.2,20.5V4.4H1.3C0.6,4.4,0,5,0,5.7v20.4c0,0.7,0.6,1.3,1.3,1.3c0.1,0,0.2,0,0.3,0
			c4.5-1.1,9.1-1.2,13.6-0.3c-3-2.8-7.1-3.3-9.7-3.3C3.7,23.8,2.2,22.4,2.2,20.5z"/>
	</g>
</g>
</svg>
