<?xml version="1.0" encoding="utf-8"?>
<!-- Generator: Adobe Illustrator 25.0.1, SVG Export Plug-In . SVG Version: 6.00 Build 0)  -->
<svg version="1.1" id="Camada_1" xmlns="http://www.w3.org/2000/svg" xmlns:xlink="http://www.w3.org/1999/xlink" x="0px" y="0px"
	 viewBox="0 0 35.9 28.9" style="enable-background:new 0 0 35.9 28.9;" xml:space="preserve">
<style type="text/css">
	.st0{fill:#767676;stroke:#EDEDED;stroke-width:0.4;stroke-linejoin:round;}
	.st1{opacity:0;}
	.st2{fill:#F86464;}
	.st3{fill:#FBB1B1;}
</style>
<g id="Grupo_1966" transform="translate(-126.677 -770)">
	<g id="open-book" transform="translate(127.188 770.472)">
		<g id="Grupo_628" transform="translate(0 0)">
			<path id="Caminho_1536" class="st0" d="M33.7,3.8h-2.4V1.3c0-0.6-0.4-1.1-1-1.2c-1.8-0.2-3.6-0.2-5.3,0.2
				c-2.9,0.4-5.6,1.9-7.5,4.2c-1.9-2.3-4.6-3.8-7.5-4.2C8.2,0,6.4-0.1,4.6,0.1c-0.6,0.1-1,0.6-1,1.2v2.5H1.2C0.5,3.8,0,4.3,0,5
				c0,0,0,0,0,0V27c0,0.6,0.5,1.2,1.2,1.2c0.1,0,0.3,0,0.4-0.1c0.1,0,8.9-3,15.4,0c0.3,0.1,0.7,0.1,1,0c6.5-3,15.3,0,15.4,0
				c0.6,0.2,1.3-0.1,1.5-0.7c0-0.1,0.1-0.3,0.1-0.4V5C34.9,4.3,34.4,3.8,33.7,3.8C33.7,3.8,33.7,3.8,33.7,3.8z M2.3,25.5V6.2h1.3
				v15.6c0,0.6,0.5,1.2,1.2,1.2c0.1,0,0.1,0,0.2,0c0.1,0,5.1-0.7,8.9,1.8C10,24.2,6.1,24.4,2.3,25.5z M16.3,23.7
				c-1.8-1.6-4-2.6-6.3-2.9c-1.1-0.2-2.2-0.3-3.3-0.3c-0.3,0-0.5,0-0.7,0V2.4l0,0c2.2-0.1,7.7,0.1,10.3,4.5V23.7z M18.6,6.9
				c2.6-4.4,8.1-4.6,10.3-4.5v18.1c-1.3-0.1-2.7,0-4,0.3c-2.3,0.4-4.5,1.4-6.3,2.9V6.9z M21.1,24.7c3.7-2.5,8.8-1.9,8.9-1.8
				c0.6,0.1,1.2-0.3,1.3-1c0-0.1,0-0.1,0-0.2V6.2h1.3v19.3C28.8,24.4,24.9,24.2,21.1,24.7L21.1,24.7z"/>
		</g>
	</g>
	<g id="open-book_1_" transform="translate(126.677 770)" class="st1">
		<g id="Grupo_636" transform="translate(0 0)">
			<g id="Grupo_635">
				<path id="Caminho_1559" class="st2" d="M5.5,0L5.5,0C5.2,0,4.8,0.1,4.6,0.4C4.3,0.6,4.2,0.9,4.2,1.3v19.3c0,0.7,0.6,1.3,1.3,1.3
					c3,0,8,0.6,11.5,4.2V5.9c0-0.2-0.1-0.5-0.2-0.7C13.9,0.7,8.5,0,5.5,0z"/>
				<path id="Caminho_1560" class="st3" d="M31.7,20.6V1.3c0-0.3-0.1-0.7-0.4-0.9C31.1,0.1,30.7,0,30.4,0l0,0c-3,0-8.4,0.7-11.3,5.3
					C19,5.5,18.9,5.7,19,5.9v20.2c3.5-3.6,8.5-4.2,11.5-4.2C31.1,21.8,31.7,21.3,31.7,20.6z"/>
				<path id="Caminho_1561" class="st3" d="M34.6,4.4h-0.9v16.1c0,1.8-1.5,3.3-3.3,3.3c-2.5,0-6.7,0.5-9.7,3.3
					c4.5-0.9,9.1-0.8,13.6,0.3c0.7,0.2,1.4-0.3,1.5-1c0-0.1,0-0.2,0-0.3V5.7C35.9,5,35.3,4.4,34.6,4.4z"/>
				<path id="Caminho_1562" class="st2" d="M2.2,20.5V4.4H1.3C0.6,4.4,0,5,0,5.7v20.4c0,0.7,0.6,1.3,1.3,1.3c0.1,0,0.2,0,0.3,0
					c4.5-1.1,9.1-1.2,13.6-0.3c-3-2.8-7.1-3.3-9.7-3.3C3.7,23.8,2.2,22.4,2.2,20.5z"/>
			</g>
		</g>
	</g>
</g>
</svg>
