<?xml version="1.0" encoding="utf-8"?>
<!-- Generator: Adobe Illustrator 25.0.1, SVG Export Plug-In . SVG Version: 6.00 Build 0)  -->
<svg version="1.1" id="open-book_1_" xmlns="http://www.w3.org/2000/svg" xmlns:xlink="http://www.w3.org/1999/xlink" x="0px"
	 y="0px" viewBox="0 0 35.9 27.4" style="enable-background:new 0 0 35.9 27.4;" xml:space="preserve">
<style type="text/css">
	.st0{fill:#F86464;}
	.st1{fill:#FBB1B1;}
</style>
<g id="Grupo_636" transform="translate(0 0)">
	<g id="Grupo_635">
		<path id="Caminho_1559" class="st0" d="M6.1,0.6L6.1,0.6C5.8,0.6,5.4,0.7,5.2,1C4.9,1.2,4.8,1.5,4.8,1.9v18.4
			c0,0.7,0.6,1.3,1.3,1.3c2.9,0,7.7,0.6,10.9,4V6.2c0-0.2-0.1-0.5-0.2-0.7C14.1,1.3,8.9,0.6,6.1,0.6z"/>
		<path id="Caminho_1560" class="st1" d="M31.1,20.3V1.9c0-0.3-0.1-0.7-0.4-0.9c-0.2-0.3-0.6-0.4-0.9-0.4l0,0c-2.9,0-8,0.7-10.9,5
			c0,0.3-0.1,0.4,0,0.6v19.3c3.4-3.5,8.1-4,10.9-4C30.5,21.4,31.1,21,31.1,20.3z"/>
		<path id="Caminho_1561" class="st1" d="M33.9,4.8H33v15.4c0,1.7-1.5,3.2-3.2,3.2c-2.4,0-6.4,0.5-9.3,3.2c4.3-0.9,8.7-0.8,13,0.3
			c0.7,0.2,1.4-0.3,1.5-1c0-0.1,0-0.2,0-0.3V6C35.1,5.4,34.6,4.8,33.9,4.8z"/>
		<path id="Caminho_1562" class="st0" d="M2.9,20.2V4.8H2c-0.7,0-1.3,0.6-1.3,1.3v19.5c0,0.7,0.6,1.3,1.3,1.3c0.1,0,0.2,0,0.3,0
			c4.3-1.1,8.7-1.2,13-0.3c-2.9-2.7-6.8-3.2-9.3-3.2C4.3,23.4,2.9,22,2.9,20.2z"/>
	</g>
</g>
</svg>
