<?xml version="1.0" encoding="utf-8"?>
<!-- Generator: Adobe Illustrator 25.0.1, SVG Export Plug-In . SVG Version: 6.00 Build 0)  -->
<svg version="1.1" id="group_1_" xmlns="http://www.w3.org/2000/svg" xmlns:xlink="http://www.w3.org/1999/xlink" x="0px" y="0px"
	 viewBox="0 0 33.5 28.4" style="enable-background:new 0 0 33.5 28.4;" xml:space="preserve">
<style type="text/css">
	.st0{fill:#F86464;}
	.st1{fill:#BFBFBF;}
	.st2{fill:#FBB1B1;}
</style>
<path id="Caminho_1547" class="st0" d="M28.7,15.3h-3.4c-2.7,0-4.8,2.2-4.9,4.8v5.3c0,1.6,1.3,2.9,2.9,2.9h7.3
	c1.6,0,2.9-1.3,2.9-2.9v-5.3C33.5,17.5,31.4,15.3,28.7,15.3z"/>
<path id="Caminho_1548" class="st0" d="M27,15.3h-1.7c-2.7,0-4.8,2.2-4.9,4.8v5.3c0,1.6,1.3,2.9,2.9,2.9H27V15.3z"/>
<path id="Caminho_1549" class="st0" d="M27,5.4c-2.4,0-4.3,1.9-4.3,4.3c0,2.4,1.9,4.3,4.3,4.3c2.4,0,4.3-1.9,4.3-4.3v0
	C31.3,7.4,29.4,5.4,27,5.4z"/>
<path id="Caminho_1550" class="st0" d="M27,5.4c-2.4,0-4.4,1.9-4.4,4.3c0,2.4,1.9,4.3,4.4,4.3V5.4z"/>
<path id="Caminho_1551" class="st1" d="M8.3,15.3H4.9c-2.7,0-4.8,2.2-4.9,4.8v5.3c0,1.6,1.3,2.9,2.9,2.9h7.3c1.6,0,2.9-1.3,2.9-2.9
	v-5.3C13.1,17.5,10.9,15.3,8.3,15.3z"/>
<path id="Caminho_1552" class="st1" d="M6.6,15.3H4.9c-2.7,0-4.8,2.2-4.9,4.8v5.3c0,1.6,1.3,2.9,2.9,2.9h3.6V15.3z"/>
<path id="Caminho_1553" class="st2" d="M19.7,12.8h-5.9C11.1,12.8,9,15,9,17.7v9.8c0,0.5,0.4,1,1,1h13.7c0.5,0,1-0.4,1-1v-9.8
	C24.6,15,22.4,12.8,19.7,12.8z"/>
<path id="Caminho_1554" class="st2" d="M16.8,12.8h-3C11.1,12.8,9,15,9,17.7v9.8c0,0.5,0.4,1,1,1h6.9V12.8z"/>
<path id="Caminho_1555" class="st2" d="M16.8,0c-3.2,0-5.8,2.6-5.8,5.8c0,3.2,2.6,5.8,5.8,5.8c3.2,0,5.8-2.6,5.8-5.8v0
	C22.6,2.6,20,0,16.8,0z"/>
<path id="Caminho_1556" class="st2" d="M16.8,0c-3.2,0-5.8,2.6-5.8,5.8c0,3.2,2.6,5.8,5.8,5.8V0z"/>
<path id="Caminho_1557" class="st1" d="M6.6,5.4c-2.4,0-4.3,1.9-4.3,4.3c0,2.4,1.9,4.3,4.3,4.3s4.3-1.9,4.3-4.3l0,0
	C10.9,7.4,9,5.4,6.6,5.4z"/>
<path id="Caminho_1558" class="st1" d="M6.6,5.4c-2.4,0-4.3,1.9-4.3,4.3c0,2.4,1.9,4.3,4.3,4.3V5.4z"/>
</svg>
