<?xml version="1.0" encoding="utf-8"?>
<!-- Generator: Adobe Illustrator 25.0.1, SVG Export Plug-In . SVG Version: 6.00 Build 0)  -->
<svg version="1.1" id="group_1_" xmlns="http://www.w3.org/2000/svg" xmlns:xlink="http://www.w3.org/1999/xlink" x="0px" y="0px"
	 viewBox="0 0 33.5 28.4" style="enable-background:new 0 0 33.5 28.4;" xml:space="preserve">
<style type="text/css">
	.st0{fill:#F86464;}
	.st1{fill:#BFBFBF;}
	.st2{fill:#FBB1B1;}
</style>
<path id="Caminho_1547_1_" class="st0" d="M28.6,15.2h-3.4c-2.7,0-4.8,2.2-4.9,4.8v5.3c0,1.6,1.3,2.9,2.9,2.9h7.2
	c1.6,0,2.9-1.3,2.9-2.9V20C33.4,17.4,31.3,15.2,28.6,15.2z"/>
<path id="Caminho_1548_1_" class="st0" d="M26.9,15.2h-1.7c-2.7,0-4.8,2.2-4.9,4.8v5.3c0,1.6,1.3,2.9,2.9,2.9h3.7V15.2z"/>
<path id="Caminho_1549_1_" class="st0" d="M26.9,5.4c-2.4,0-4.3,1.9-4.3,4.3s1.9,4.3,4.3,4.3s4.3-1.9,4.3-4.3l0,0
	C31.2,7.4,29.3,5.4,26.9,5.4z"/>
<path id="Caminho_1550_1_" class="st0" d="M26.9,5.4c-2.4,0-4.4,1.9-4.4,4.3s1.9,4.3,4.4,4.3V5.4z"/>
<path id="Caminho_1551_1_" class="st1" d="M8.4,15.2H5c-2.7,0-4.8,2.2-4.9,4.8v5.3c0,1.6,1.3,2.9,2.9,2.9h7.2c1.6,0,2.9-1.3,2.9-2.9
	V20C13.1,17.4,11,15.2,8.4,15.2z"/>
<path id="Caminho_1552_1_" class="st1" d="M6.7,15.2H5c-2.7,0-4.8,2.2-4.9,4.8v5.3c0,1.6,1.3,2.9,2.9,2.9h3.6L6.7,15.2L6.7,15.2z"/>
<path id="Caminho_1553_1_" class="st2" d="M19.7,12.8h-5.8c-2.7,0-4.8,2.2-4.8,4.9v9.7c0,0.5,0.4,1,1,1h13.6c0.5,0,1-0.4,1-1v-9.7
	C24.5,14.9,22.4,12.8,19.7,12.8z"/>
<path id="Caminho_1554_1_" class="st2" d="M16.8,12.8h-3c-2.7,0-4.8,2.2-4.8,4.9v9.7c0,0.5,0.4,1,1,1h6.8L16.8,12.8L16.8,12.8z"/>
<path id="Caminho_1555_1_" class="st2" d="M16.8,0.1c-3.2,0-5.7,2.6-5.7,5.7s2.6,5.7,5.7,5.7s5.7-2.6,5.7-5.7l0,0
	C22.5,2.7,20,0.1,16.8,0.1z"/>
<path id="Caminho_1556_1_" class="st2" d="M16.8,0.1c-3.2,0-5.7,2.6-5.7,5.7s2.6,5.7,5.7,5.7V0.1z"/>
<path id="Caminho_1557_1_" class="st1" d="M6.7,5.4c-2.4,0-4.3,1.9-4.3,4.3S4.3,14,6.7,14S11,12.1,11,9.7l0,0
	C11,7.4,9.1,5.4,6.7,5.4z"/>
<path id="Caminho_1558_1_" class="st1" d="M6.7,5.4c-2.4,0-4.3,1.9-4.3,4.3S4.3,14,6.7,14V5.4z"/>
</svg>
