<?xml version="1.0" encoding="utf-8"?>
<!-- Generator: Adobe Illustrator 25.0.1, SVG Export Plug-In . SVG Version: 6.00 Build 0)  -->
<svg version="1.1" id="Camada_1" xmlns="http://www.w3.org/2000/svg" xmlns:xlink="http://www.w3.org/1999/xlink" x="0px" y="0px"
	 viewBox="0 0 34.3 28.4" style="enable-background:new 0 0 34.3 28.4;" xml:space="preserve">
<style type="text/css">
	.st0{fill:#BFBFBF;}
	.st1{opacity:0;}
</style>
<g id="Grupo_1965" transform="translate(-215 -770)">
	<g id="group" transform="translate(215 770)">
		<g id="Grupo_621" transform="translate(0 12.446)">
			<g id="Grupo_620">
				<path id="Caminho_1532" class="st0" d="M29.2,2.6h-3.4c-0.4,0-0.9,0.1-1.3,0.2C23.7,1.1,22,0,20.1,0h-5.9
					c-1.9,0-3.6,1.1-4.5,2.8C9.3,2.6,8.8,2.6,8.4,2.6H5c-2.8,0-5,2.2-5,5V13c0,1.7,1.3,3,3,3h28.2c1.7,0,3-1.3,3-3V7.6
					C34.3,4.8,32,2.6,29.2,2.6z M9.1,5v9H3c-0.6,0-1-0.4-1-1V7.6c0-1.7,1.3-3,3-3h3.4c0.3,0,0.5,0,0.8,0.1C9.2,4.8,9.1,4.9,9.1,5z
					 M23.1,14h-12V5c0-1.7,1.3-3,3-3H20c1.7,0,3,1.3,3,3v9H23.1z M32.3,13c0,0.6-0.4,1-1,1h-6.1V5c0-0.1,0-0.2,0-0.3
					c0.3-0.1,0.5-0.1,0.8-0.1h3.4c1.7,0,3,1.3,3,3L32.3,13L32.3,13z"/>
			</g>
		</g>
		<g id="Grupo_623" transform="translate(2.237 5.54)">
			<g id="Grupo_622">
				<path id="Caminho_1533" class="st0" d="M4.5,0C2,0,0,2,0,4.5S2,9,4.5,9S9,7,9,4.5l0,0C8.9,2,6.9,0,4.5,0z M4.5,6.9
					C3.1,6.9,2,5.8,2,4.5C2,3.1,3.1,2,4.5,2S7,3.1,7,4.5C6.9,5.8,5.8,6.9,4.5,6.9L4.5,6.9z"/>
			</g>
		</g>
		<g id="Grupo_625" transform="translate(11.175 0)">
			<g id="Grupo_624">
				<path id="Caminho_1534" class="st0" d="M6,0C2.7,0,0,2.7,0,6s2.7,6,6,6s6-2.7,6-6C11.9,2.7,9.3,0,6,0z M6,9.9c-2.2,0-4-1.8-4-4
					s1.8-4,4-4s4,1.8,4,4l0,0C9.9,8.1,8.1,9.9,6,9.9z"/>
			</g>
		</g>
		<g id="Grupo_627" transform="translate(23.112 5.54)">
			<g id="Grupo_626">
				<path id="Caminho_1535" class="st0" d="M4.5,0C2,0,0,2,0,4.5S2,9,4.5,9S9,7,9,4.5l0,0C8.9,2,6.9,0,4.5,0z M4.5,6.9
					C3.1,6.9,2,5.8,2,4.5S3.1,2,4.5,2S7,3.1,7,4.5C6.9,5.8,5.8,6.9,4.5,6.9L4.5,6.9z"/>
			</g>
		</g>
	</g>
	<g id="group_1_" transform="translate(215.253 770)" class="st1">
		<path id="Caminho_1547" class="st0" d="M28.7,15.3h-3.4c-2.7,0-4.8,2.2-4.9,4.8v5.3c0,1.6,1.3,2.9,2.9,2.9h7.3
			c1.6,0,2.9-1.3,2.9-2.9v-5.3C33.5,17.5,31.4,15.3,28.7,15.3z"/>
		<path id="Caminho_1548" class="st0" d="M27,15.3h-1.7c-2.7,0-4.8,2.2-4.9,4.8v5.3c0,1.6,1.3,2.9,2.9,2.9H27V15.3z"/>
		<path id="Caminho_1549" class="st0" d="M27,5.4c-2.4,0-4.3,1.9-4.3,4.3S24.6,14,27,14s4.3-1.9,4.3-4.3l0,0
			C31.3,7.4,29.4,5.4,27,5.4z"/>
		<path id="Caminho_1550" class="st0" d="M27,5.4c-2.4,0-4.4,1.9-4.4,4.3S24.5,14,27,14V5.4z"/>
		<path id="Caminho_1551" class="st0" d="M8.3,15.3H4.9c-2.7,0-4.8,2.2-4.9,4.8v5.3c0,1.6,1.3,2.9,2.9,2.9h7.3
			c1.6,0,2.9-1.3,2.9-2.9v-5.3C13.1,17.5,10.9,15.3,8.3,15.3z"/>
		<path id="Caminho_1552" class="st0" d="M6.6,15.3H4.9c-2.7,0-4.8,2.2-4.9,4.8v5.3c0,1.6,1.3,2.9,2.9,2.9h3.6L6.6,15.3L6.6,15.3z"
			/>
		<path id="Caminho_1553" class="st0" d="M19.7,12.8h-5.9C11.1,12.8,9,15,9,17.7v9.8c0,0.5,0.4,1,1,1h13.7c0.5,0,1-0.4,1-1v-9.8
			C24.6,15,22.4,12.8,19.7,12.8z"/>
		<path id="Caminho_1554" class="st0" d="M16.8,12.8h-3C11.1,12.8,9,15,9,17.7v9.8c0,0.5,0.4,1,1,1h6.9V12.8H16.8z"/>
		<path id="Caminho_1555" class="st0" d="M16.8,0C13.6,0,11,2.6,11,5.8s2.6,5.8,5.8,5.8s5.8-2.6,5.8-5.8l0,0C22.6,2.6,20,0,16.8,0z"
			/>
		<path id="Caminho_1556" class="st0" d="M16.8,0C13.6,0,11,2.6,11,5.8s2.6,5.8,5.8,5.8V0z"/>
		<path id="Caminho_1557" class="st0" d="M6.6,5.4c-2.4,0-4.3,1.9-4.3,4.3S4.2,14,6.6,14s4.3-1.9,4.3-4.3l0,0
			C10.9,7.4,9,5.4,6.6,5.4z"/>
		<path id="Caminho_1558" class="st0" d="M6.6,5.4c-2.4,0-4.3,1.9-4.3,4.3S4.2,14,6.6,14V5.4z"/>
	</g>
</g>
</svg>
