<?xml version="1.0" encoding="utf-8"?>
<!-- Generator: Adobe Illustrator 25.0.1, SVG Export Plug-In . SVG Version: 6.00 Build 0)  -->
<svg version="1.1" id="Camada_1" xmlns="http://www.w3.org/2000/svg" xmlns:xlink="http://www.w3.org/1999/xlink" x="0px" y="0px"
	 viewBox="0 0 31 30" style="enable-background:new 0 0 31 30;" xml:space="preserve">
<style type="text/css">
	.st0{fill:#767676;}
	.st1{clip-path:url(#SVGID_2_);}
	.st2{fill:#F86464;}
	.st3{clip-path:url(#SVGID_4_);}
	.st4{fill:#FBB1B1;}
</style>
<g id="grocery_list_color" transform="translate(-2.846 -2.542)">
	<path id="Caminho_6718" class="st0" d="M15.8,30.2c0,1.3-1,2.3-2.3,2.3s-2.3-1-2.3-2.3c0-1.3,1-2.3,2.3-2.3h0
		C14.8,27.9,15.8,29,15.8,30.2z"/>
	<path id="Caminho_6719" class="st0" d="M29.7,30.2c0,1.3-1,2.3-2.3,2.3s-2.3-1-2.3-2.3c0-1.3,1-2.3,2.3-2.3l0,0
		C28.7,27.9,29.7,29,29.7,30.2z"/>
	<g>
		<defs>
			<rect id="SVGID_1_" x="20.8" y="2.5" width="13" height="24"/>
		</defs>
		<clipPath id="SVGID_2_">
			<use xlink:href="#SVGID_1_"  style="overflow:visible;"/>
		</clipPath>
		<g id="Grupo_de_máscara_19" class="st1">
			<path id="Caminho_6779" class="st2" d="M33.6,5.4C33.4,5.2,33.1,5,32.8,5H11.6l0.7,2h19.2l-2.7,12.2H13.5L8.9,4.6
				C8.8,4.2,8.5,4,8.2,3.9L4,2.6C3.5,2.4,2.9,2.7,2.7,3.3s0.1,1.1,0.6,1.3c0,0,0,0,0.1,0l3.7,1.1l4.7,14.8l-1.7,1.4l-0.1,0.1
				c-0.9,1-0.9,2.4-0.1,3.4c0.6,0.7,1.4,1.1,2.3,1h17c0.6,0,1-0.5,1-1s-0.5-1-1-1H12c-0.4,0-0.7-0.3-0.7-0.7c0-0.1,0-0.2,0.1-0.3
				l2.5-2h15.7c0.5,0,0.9-0.3,1-0.8l3.2-14.2C33.9,6,33.8,5.7,33.6,5.4L33.6,5.4z"/>
		</g>
	</g>
	<g>
		<defs>
			<rect id="SVGID_3_" x="2.8" y="2.5" width="18" height="24"/>
		</defs>
		<clipPath id="SVGID_4_">
			<use xlink:href="#SVGID_3_"  style="overflow:visible;"/>
		</clipPath>
		<g id="Grupo_de_máscara_20" class="st3">
			<path id="Caminho_6720" class="st4" d="M33.8,5.4C33.6,5.2,33.3,5,33,5H11.8l0.7,2h19.2l-2.7,12.2H13.7L9,4.6
				C8.9,4.2,8.7,4,8.3,3.9L4.2,2.6C3.6,2.4,3.1,2.7,2.9,3.3S3,4.4,3.5,4.6c0,0,0,0,0.1,0l3.7,1.1l4.7,14.8l-1.7,1.4l-0.1,0.1
				c-0.9,1-0.9,2.4-0.1,3.4c0.6,0.7,1.4,1.1,2.3,1h17c0.6,0,1-0.5,1-1s-0.5-1-1-1H12.1c-0.4,0-0.7-0.3-0.7-0.7c0-0.1,0-0.2,0.1-0.3
				l2.5-2h15.7c0.5,0,0.9-0.3,1-0.8L34,6.3C34,6,34,5.7,33.8,5.4L33.8,5.4z"/>
		</g>
	</g>
	<g id="Caminho_6780">
		<path class="st4" d="M20.3,20h-7L8.9,5.5h11.5V20z"/>
		<path class="st4" d="M9.6,6l4.2,13.5h6.1V6H9.6 M8.2,5h12.6v15.5H13L8.2,5z"/>
	</g>
	<g id="Caminho_6781">
		<path class="st2" d="M28.9,19.9h-7.5V6.3h11L28.9,19.9z"/>
		<path class="st2" d="M28.5,19.4l3.2-12.6h-9.9v12.6H28.5 M29.3,20.4h-8.4V5.8H33L29.3,20.4z"/>
	</g>
</g>
</svg>
