<?xml version="1.0" encoding="utf-8"?>
<!-- Generator: Adobe Illustrator 25.0.1, SVG Export Plug-In . SVG Version: 6.00 Build 0)  -->
<svg version="1.1" id="Camada_1" xmlns="http://www.w3.org/2000/svg" xmlns:xlink="http://www.w3.org/1999/xlink" x="0px" y="0px"
	 viewBox="0 0 31.1 29.9" style="enable-background:new 0 0 31.1 29.9;" xml:space="preserve">
<style type="text/css">
	.st0{fill:#BFBFBF;}
</style>
<g id="grocery_list" transform="translate(-2.7 -2.575)">
	<path id="Caminho_6718" class="st0" d="M15.8,30.2c0,1.3-1,2.3-2.3,2.3s-2.3-1-2.3-2.3c0-1.3,1-2.3,2.3-2.3h0
		C14.8,27.9,15.8,29,15.8,30.2z"/>
	<path id="Caminho_6719" class="st0" d="M29.7,30.2c0,1.3-1,2.3-2.3,2.3s-2.3-1-2.3-2.3c0-1.3,1-2.3,2.3-2.3l0,0
		C28.7,27.9,29.7,29,29.7,30.2z"/>
	<path id="Caminho_6720" class="st0" d="M33.6,5.4C33.4,5.2,33.1,5,32.8,5H11.6l0.7,2h19.2l-2.7,12.2H13.5L8.9,4.6
		C8.8,4.2,8.5,4,8.2,3.9L4,2.6C3.5,2.4,2.9,2.7,2.7,3.3s0.1,1.1,0.6,1.3c0,0,0,0,0.1,0l3.7,1.1l4.7,14.8l-1.7,1.4l-0.1,0.1
		c-0.9,1-0.9,2.4-0.1,3.4c0.6,0.7,1.4,1.1,2.3,1h17c0.6,0,1-0.5,1-1s-0.5-1-1-1H12c-0.4,0-0.7-0.3-0.7-0.7c0-0.1,0-0.2,0.1-0.3
		l2.5-2h15.7c0.5,0,0.9-0.3,1-0.8l3.2-14.2C33.9,6,33.8,5.7,33.6,5.4L33.6,5.4z"/>
</g>
</svg>
