<?xml version="1.0" encoding="utf-8"?>
<!-- Generator: Adobe Illustrator 25.0.1, SVG Export Plug-In . SVG Version: 6.00 Build 0)  -->
<svg version="1.1" id="Camada_1" xmlns="http://www.w3.org/2000/svg" xmlns:xlink="http://www.w3.org/1999/xlink" x="0px" y="0px"
	 viewBox="0 0 28.8 28.7" style="enable-background:new 0 0 28.8 28.7;" xml:space="preserve">
<style type="text/css">
	.st0{fill:#BFBFBF;stroke:#BFBFBF;stroke-width:0.4;}
	.st1{opacity:0;}
	.st2{fill:#BFBFBF;stroke:#BFBFBF;stroke-miterlimit:10;}
</style>
<g id="Grupo_1967" transform="translate(-39.8 -769.759)">
	<g id="cooking_1_" transform="translate(39.998 770)">
		<path id="Caminho_1525" class="st0" d="M25.7,11.6H2.5C1.1,11.6,0,12.7,0,14l0,0c0,2,1.4,3.7,3.3,4v6c0,2.3,1.9,4.1,4.1,4.1h13.3
			c2.3,0,4.1-1.9,4.1-4.1v-6c1.9-0.4,3.3-2.1,3.3-4C28.2,12.7,27.1,11.6,25.7,11.6z M1.7,14c0-0.5,0.4-0.8,0.8-0.8h0.8v3.2
			C2.3,16,1.7,15.1,1.7,14z M23.3,24.1c0,1.4-1.1,2.5-2.5,2.5H7.4c-1.4,0-2.5-1.1-2.5-2.5V13.2h18.3L23.3,24.1z M24.9,16.4v-3.2h0.8
			c0.5,0,0.8,0.4,0.8,0.8C26.6,15.1,25.9,16,24.9,16.4L24.9,16.4z"/>
		<path id="Caminho_1526" class="st0" d="M3.4,9.4C3.6,9.9,4.1,10,4.5,9.8l0,0l18-8.3c0.5-0.1,0.7-0.6,0.5-1s-0.7-0.6-1.1-0.4l0,0
			l-6,2.8l0,0c-0.7-1.7-2.7-2.4-4.4-1.7S9.1,3.8,9.8,5.5v0.1l0,0l-6,2.8C3.4,8.5,3.2,9,3.4,9.4L3.4,9.4L3.4,9.4z M11.3,4.9
			c-0.4-0.8-0.1-1.8,0.7-2.2s1.8-0.1,2.2,0.7c0,0,0,0.1,0.1,0.1l0,0L11.3,4.9L11.3,4.9z"/>
		<path id="Caminho_1527" class="st0" d="M22.9,4.4c0-0.5-0.4-0.8-0.8-0.8c-1.6-0.2-3,1-3.2,2.6c0,0.2,0,0.4,0,0.6
			c0.1,0.7-0.3,1.4-1,1.5c-0.2,0-0.4,0-0.5,0c-0.5,0-0.8,0.4-0.8,0.8s0.4,0.8,0.8,0.8c1.6,0.2,3-1,3.2-2.6c0-0.2,0-0.4,0-0.6
			c-0.2-0.7,0.3-1.4,1-1.5c0.2,0,0.4,0,0.5,0C22.5,5.2,22.9,4.9,22.9,4.4z"/>
		<path id="Caminho_1528" class="st0" d="M22.4,9.9c1.6,0.2,3-1,3.2-2.6c0-0.2,0-0.4,0-0.6c-0.2-0.7,0.3-1.4,1-1.5
			c0.2,0,0.4,0,0.5,0c0.5,0,0.8-0.4,0.8-0.8S27.5,3.6,27,3.6c-1.6-0.2-3,1-3.2,2.6c0,0.2,0,0.4,0,0.6c0.1,0.7-0.3,1.4-1,1.5
			c-0.2,0-0.4,0-0.5,0c-0.5,0-0.8,0.4-0.8,0.8S21.9,9.9,22.4,9.9L22.4,9.9z"/>
	</g>
	<g id="cooking" transform="translate(40.135 769.773)" class="st1">
		<path id="Caminho_1515" class="st2" d="M4.2,16.9c-1.4,0-2.5-1.1-2.5-2.5c0-0.5,0.4-0.8,0.8-0.8H5l-1.7-1.7H2.5
			C1.1,11.9,0,13,0,14.4c0,2.3,1.9,4.2,4.2,4.2c0.5,0,0.8-0.4,0.8-0.8C5,17.2,4.6,16.9,4.2,16.9z"/>
		<path id="Caminho_1516" class="st2" d="M25.9,11.9h-0.8l-1.7,1.7h2.5c0.5,0,0.8,0.4,0.8,0.8c0,1.4-1.1,2.5-2.5,2.5
			c-0.5,0-0.8,0.4-0.8,0.8c0,0.5,0.4,0.8,0.8,0.8c2.3,0,4.2-1.9,4.2-4.2C28.4,13,27.3,11.9,25.9,11.9z"/>
		<path id="Caminho_1517" class="st2" d="M17.6,10.2c-0.5,0-0.8-0.4-0.8-0.8s0.4-0.8,0.8-0.8l0,0c0.7,0.2,1.4-0.3,1.5-1
			c0-0.2,0-0.4,0-0.5c-0.2-1.6,1-3,2.6-3.2c0.2,0,0.4,0,0.6,0c0.5,0,0.8,0.4,0.8,0.8s-0.4,0.8-0.8,0.8c-0.7-0.2-1.4,0.3-1.5,1
			c0,0.2,0,0.4,0,0.5c0.2,1.6-1,3-2.6,3.2C18,10.2,17.8,10.2,17.6,10.2L17.6,10.2z"/>
		<path id="Caminho_1518" class="st2" d="M22.6,10.2c-0.5,0-0.8-0.4-0.8-0.8s0.4-0.8,0.8-0.8c0.7,0.2,1.4-0.3,1.5-1
			c0-0.2,0-0.4,0-0.5c-0.2-1.6,1-3,2.6-3.2c0.2,0,0.4,0,0.6,0c0.5,0,0.8,0.4,0.8,0.8s-0.4,0.8-0.8,0.8c-0.7-0.2-1.4,0.3-1.5,1
			c0,0.2,0,0.4,0,0.5c0.2,1.6-1,3-2.6,3.2C23,10.2,22.8,10.2,22.6,10.2L22.6,10.2z"/>
		<path id="Caminho_1519" class="st2" d="M14.2,11.9H3.3v12.6c0,2.3,1.9,4.2,4.2,4.2h13.4c2.3,0,4.2-1.9,4.2-4.2V11.9H14.2z"/>
		<path id="Caminho_1520" class="st2" d="M25.1,24.5V11.9H14.2v16.8h6.7C23.2,28.6,25.1,26.8,25.1,24.5z"/>
		<g id="Grupo_619" transform="translate(3.333 0.227)">
			<path id="Caminho_1521" class="st2" d="M12.6,2.8c-0.8-1.7-2.7-2.4-4.4-1.7C6.5,1.9,5.8,3.9,6.5,5.5l0,0l0.3,0.8l3.9-1.8l2.1-1
				L12.6,2.8z"/>
			<path id="Caminho_1522" class="st2" d="M10.9,1.1C10,0.8,9,0.8,8.2,1.2l0,0L9.9,5l0.9-0.4l2.1-1l-0.3-0.8
				C12.3,2.1,11.6,1.4,10.9,1.1z"/>
			<path id="Caminho_1523" class="st2" d="M19.8,0.5c-0.2-0.4-0.7-0.6-1.1-0.4l-7.8,3.5L0.5,8.4C0.1,8.5-0.1,9,0.1,9.5
				c0.2,0.4,0.7,0.6,1.1,0.4l0,0l9.7-4.4l8.5-3.9C19.8,1.4,20,0.9,19.8,0.5L19.8,0.5z"/>
			<path id="Caminho_1524" class="st2" d="M18.7,0.1l-7.8,3.5L9.6,4.2l0.7,1.5l0.6-0.3l8.5-3.9c0.4-0.2,0.6-0.7,0.4-1.1
				S19.1-0.1,18.7,0.1L18.7,0.1z"/>
		</g>
	</g>
</g>
</svg>
