<?xml version="1.0" encoding="utf-8"?>
<!-- Generator: Adobe Illustrator 25.0.1, SVG Export Plug-In . SVG Version: 6.00 Build 0)  -->
<svg version="1.1" id="Camada_1" xmlns="http://www.w3.org/2000/svg" xmlns:xlink="http://www.w3.org/1999/xlink" x="0px" y="0px"
	 viewBox="0 0 28.4 28.4" style="enable-background:new 0 0 28.4 28.4;" xml:space="preserve">
<style type="text/css">
	.st0{fill:#BFBFBF;}
	.st1{fill:#767676;}
	.st2{fill:#FFFFFF;}
	.st3{fill:#F2A8A8;}
	.st4{fill:#F86464;}
</style>
<g id="cooking" transform="translate(0 -0.227)">
	<path id="Caminho_1515" class="st0" d="M4.2,16.9c-1.4,0-2.5-1.1-2.5-2.5c0-0.5,0.4-0.8,0.8-0.8H5l-1.7-1.7H2.5
		C1.1,11.9,0,13,0,14.4c0,2.3,1.9,4.2,4.2,4.2c0.5,0,0.8-0.4,0.8-0.8C5,17.2,4.6,16.9,4.2,16.9z"/>
	<path id="Caminho_1516" class="st1" d="M25.9,11.9h-0.8l-1.7,1.7h2.5c0.5,0,0.8,0.4,0.8,0.8c0,1.4-1.1,2.5-2.5,2.5
		c-0.5,0-0.8,0.4-0.8,0.8c0,0.5,0.4,0.8,0.8,0.8c2.3,0,4.2-1.9,4.2-4.2C28.4,13,27.3,11.9,25.9,11.9z"/>
	<path id="Caminho_1517" class="st2" d="M17.6,10.2c-0.5,0-0.8-0.4-0.8-0.8s0.4-0.8,0.8-0.8l0,0c0.7,0.2,1.4-0.3,1.5-1
		c0-0.2,0-0.4,0-0.5c-0.2-1.6,1-3,2.6-3.2c0.2,0,0.4,0,0.6,0c0.5,0,0.8,0.4,0.8,0.8s-0.4,0.8-0.8,0.8c-0.7-0.2-1.4,0.3-1.5,1
		c0,0.2,0,0.4,0,0.5c0.2,1.6-1,3-2.6,3.2C18,10.2,17.8,10.2,17.6,10.2L17.6,10.2z"/>
	<path id="Caminho_1518" class="st2" d="M22.6,10.2c-0.5,0-0.8-0.4-0.8-0.8s0.4-0.8,0.8-0.8c0.7,0.2,1.4-0.3,1.5-1
		c0-0.2,0-0.4,0-0.5c-0.2-1.6,1-3,2.6-3.2c0.2,0,0.4,0,0.6,0c0.5,0,0.8,0.4,0.8,0.8s-0.4,0.8-0.8,0.8c-0.7-0.2-1.4,0.3-1.5,1
		c0,0.2,0,0.4,0,0.5c0.2,1.6-1,3-2.6,3.2C23,10.2,22.8,10.2,22.6,10.2L22.6,10.2z"/>
	<path id="Caminho_1519" class="st3" d="M14.2,11.9H3.3v12.6c0,2.3,1.9,4.2,4.2,4.2h13.4c2.3,0,4.2-1.9,4.2-4.2V11.9H14.2z"/>
	<path id="Caminho_1520" class="st4" d="M25.1,24.5V11.9H14.2v16.8h6.7C23.2,28.6,25.1,26.8,25.1,24.5z"/>
	<g id="Grupo_619" transform="translate(3.333 0.227)">
		<path id="Caminho_1521" class="st0" d="M12.6,2.8c-0.8-1.7-2.7-2.4-4.4-1.7C6.5,1.9,5.8,3.9,6.5,5.5c0,0,0,0,0,0l0.3,0.8l3.9-1.8
			l2.1-1L12.6,2.8z"/>
		<path id="Caminho_1522" class="st1" d="M10.9,1.1C10,0.8,9,0.8,8.2,1.2l0,0L9.9,5l0.9-0.4l2.1-1l-0.3-0.8
			C12.3,2.1,11.6,1.4,10.9,1.1z"/>
		<path id="Caminho_1523" class="st3" d="M19.8,0.5c-0.2-0.4-0.7-0.6-1.1-0.4l-7.8,3.5L0.5,8.4C0.1,8.5-0.1,9,0.1,9.5
			c0.2,0.4,0.7,0.6,1.1,0.4l0,0l9.7-4.4l8.5-3.9C19.8,1.4,20,0.9,19.8,0.5L19.8,0.5z"/>
		<path id="Caminho_1524" class="st4" d="M18.7,0.1l-7.8,3.5L9.6,4.2l0.7,1.5l0.6-0.3l8.5-3.9c0.4-0.2,0.6-0.7,0.4-1.1
			S19.1-0.1,18.7,0.1L18.7,0.1z"/>
	</g>
</g>
</svg>
