<?xml version="1.0" encoding="utf-8"?>
<!-- Generator: Adobe Illustrator 25.0.1, SVG Export Plug-In . SVG Version: 6.00 Build 0)  -->
<svg version="1.1" id="Camada_1" xmlns="http://www.w3.org/2000/svg" xmlns:xlink="http://www.w3.org/1999/xlink" x="0px" y="0px"
	 viewBox="0 0 28.4 28.4" style="enable-background:new 0 0 28.4 28.4;" xml:space="preserve">
<style type="text/css">
	.st0{fill:#BFBFBF;}
	.st1{fill:#767676;}
	.st2{fill:#FFFFFF;}
	.st3{fill:#F2A8A8;}
	.st4{fill:#F86464;}
</style>
<g id="cooking" transform="translate(0 -0.227)">
	<g id="cooking_2_" transform="translate(0 -0.227)">
		<path id="Caminho_1515_1_" class="st0" d="M4.2,17.1c-1.4,0-2.5-1.1-2.5-2.5c0-0.5,0.4-0.8,0.8-0.8H5l-1.7-1.7H2.5
			c-1.4,0-2.5,1.1-2.5,2.5c0,2.3,1.9,4.2,4.2,4.2C4.7,18.8,5,18.4,5,18C5,17.4,4.6,17.1,4.2,17.1z"/>
		<path id="Caminho_1516_1_" class="st1" d="M25.9,12.1h-0.8l-1.7,1.7h2.5c0.5,0,0.8,0.4,0.8,0.8c0,1.4-1.1,2.5-2.5,2.5
			c-0.5,0-0.8,0.4-0.8,0.8c0,0.5,0.4,0.8,0.8,0.8c2.3,0,4.2-1.9,4.2-4.2C28.4,13.2,27.3,12.1,25.9,12.1z"/>
		<path id="Caminho_1517_1_" class="st2" d="M17.6,10.4c-0.5,0-0.8-0.4-0.8-0.8c0-0.4,0.4-0.8,0.8-0.8l0,0c0.7,0.2,1.4-0.3,1.5-1
			c0-0.2,0-0.4,0-0.5c-0.2-1.6,1-3,2.6-3.2c0.2,0,0.4,0,0.6,0c0.5,0,0.8,0.4,0.8,0.8c0,0.4-0.4,0.8-0.8,0.8c-0.7-0.2-1.4,0.3-1.5,1
			c0,0.2,0,0.4,0,0.5c0.2,1.6-1,3-2.6,3.2C18,10.4,17.8,10.4,17.6,10.4L17.6,10.4z"/>
		<path id="Caminho_1518_1_" class="st2" d="M22.6,10.4c-0.5,0-0.8-0.4-0.8-0.8c0-0.4,0.4-0.8,0.8-0.8c0.7,0.2,1.4-0.3,1.5-1
			c0-0.2,0-0.4,0-0.5c-0.2-1.6,1-3,2.6-3.2c0.2,0,0.4,0,0.6,0c0.5,0,0.8,0.4,0.8,0.8c0,0.4-0.4,0.8-0.8,0.8c-0.7-0.2-1.4,0.3-1.5,1
			c0,0.2,0,0.4,0,0.5c0.2,1.6-1,3-2.6,3.2C23,10.4,22.8,10.4,22.6,10.4L22.6,10.4z"/>
		<path id="Caminho_1519_1_" class="st3" d="M14.2,12.1H3.3v12.6c0,2.3,1.9,4.2,4.2,4.2h13.4c2.3,0,4.2-1.9,4.2-4.2V12.1H14.2z"/>
		<path id="Caminho_1520_1_" class="st4" d="M25.1,24.7V12.1H14.2v16.9h6.7C23.2,28.8,25.1,27,25.1,24.7z"/>
		<g id="Grupo_619_1_" transform="translate(3.333 0.227)">
			<path id="Caminho_1521_1_" class="st0" d="M12.6,3c-0.8-1.7-2.7-2.4-4.4-1.7C6.5,2,5.8,4.1,6.5,5.7l0,0l0.3,0.8l3.9-1.8l2.1-1
				L12.6,3z"/>
			<path id="Caminho_1522_1_" class="st1" d="M10.9,1.2C10,0.9,9,0.9,8.2,1.3l0,0l1.7,3.8l0.9-0.4l2.1-1L12.6,3
				C12.3,2.2,11.6,1.5,10.9,1.2z"/>
			<path id="Caminho_1523_1_" class="st3" d="M19.8,0.6c-0.2-0.4-0.7-0.6-1.1-0.4l-7.8,3.5L0.5,8.6C0.1,8.7-0.1,9.2,0.1,9.7
				c0.2,0.4,0.7,0.6,1.1,0.4l0,0l9.7-4.4l8.5-3.9C19.8,1.5,20,1,19.8,0.6L19.8,0.6z"/>
			<path id="Caminho_1524_1_" class="st4" d="M18.7,0.2l-7.8,3.5L9.6,4.4l0.7,1.5l0.6-0.3l8.5-3.9c0.4-0.2,0.6-0.7,0.4-1.1
				S19.1,0,18.7,0.2L18.7,0.2z"/>
		</g>
	</g>
</g>
</svg>
