<?xml version="1.0" encoding="utf-8"?>
<!-- Generator: Adobe Illustrator 25.0.1, SVG Export Plug-In . SVG Version: 6.00 Build 0)  -->
<svg version="1.1" id="Camada_1" xmlns="http://www.w3.org/2000/svg" xmlns:xlink="http://www.w3.org/1999/xlink" x="0px" y="0px"
	 viewBox="0 0 25.2 23.4" style="enable-background:new 0 0 25.2 23.4;" xml:space="preserve">
<style type="text/css">
	.st0{fill:#F0F0F0;}
	.st1{fill:#DFDFDF;}
	.st2{fill:#CACACA;}
	.st3{fill:#BFBFBF;}
</style>
<g id="Grupo_2439" transform="translate(0 0)">
	<path id="Caminho_1458" class="st0" d="M19.8,5c-0.5-1.4-1.4-2.6-2.5-3.4c-2.7-2.1-6.6-2.1-9.3,0C6.8,2.5,5.9,3.7,5.4,5
		c-3,0.1-5.5,2.6-5.4,5.6C0,13.3,2,15.6,4.6,16v3.1h15.9V16c3-0.5,5-3.3,4.5-6.3C24.7,7,22.4,5.1,19.8,5L19.8,5z"/>
	<path id="Caminho_1459" class="st1" d="M19.8,5c-0.5-1.4-1.4-2.6-2.5-3.4c-1.3-1-3-1.6-4.7-1.6l0,0v19.1h8V16c3-0.5,5-3.3,4.5-6.3
		C24.7,7,22.4,5.1,19.8,5L19.8,5z"/>
	<g id="Grupo_592" transform="translate(4.621 18.71)">
		<path id="Caminho_1460" class="st2" d="M15.2,4.7H0.7C0.3,4.7,0,4.3,0,3.9V0h15.9v3.9C15.9,4.3,15.6,4.7,15.2,4.7z"/>
	</g>
	<path id="Caminho_1461" class="st3" d="M12.6,18.7v4.7h7.2c0.4,0,0.7-0.3,0.7-0.7v-3.9H12.6z"/>
</g>
</svg>
