<?xml version="1.0" encoding="utf-8"?>
<!-- Generator: Adobe Illustrator 25.0.1, SVG Export Plug-In . SVG Version: 6.00 Build 0)  -->
<svg version="1.1" id="Camada_1" xmlns="http://www.w3.org/2000/svg" xmlns:xlink="http://www.w3.org/1999/xlink" x="0px" y="0px"
	 viewBox="0 0 22.8 29.9" style="enable-background:new 0 0 22.8 29.9;" xml:space="preserve">
<style type="text/css">
	.st0{fill:#767676;}
	.st1{opacity:0;}
	.st2{fill:#FFFFFF;}
	.st3{fill:#F2F2FC;}
	.st4{fill:#FBCFB1;}
	.st5{fill:#F2B4A2;}
	.st6{fill:#8C574D;}
	.st7{fill:#663328;}
</style>
<g id="Grupo_1964" transform="translate(-309 -769)">
	<g id="Grupo_1963">
		<g id="chef" transform="translate(309 769)">
			<path id="Caminho_1529" class="st0" d="M22.8,23.7c0-2.4-2-4.4-4.4-4.4h-14c-2.4,0-4.4,2-4.4,4.4v6.2h22.8V23.7z M1.8,23.7
				c0-1.5,1.2-2.6,2.6-2.6h5.9l-2.1,1.4C7.5,23,7,23.8,7,24.7v3.5H1.8L1.8,23.7z M21,28.2H8.8v-3.5c0-0.3,0.1-0.6,0.4-0.7l4.3-2.8h5
				c1.5,0,2.6,1.2,2.6,2.6L21,28.2z"/>
			<path id="Caminho_1530" class="st0" d="M10.5,24.6h1.8v1.8h-1.8V24.6z"/>
			<path id="Caminho_1531" class="st0" d="M17.5,13.2V7.7c1.1-0.8,1.7-2,1.8-3.3C19.3,1.8,16.8,0,14,0c-0.9,0-1.8,0.2-2.6,0.6
				C10.6,0.2,9.7,0,8.8,0C6,0,3.5,1.8,3.5,4.4c0,1.3,0.7,2.5,1.8,3.3v5.6c0,3.4,2.7,6.1,6.1,6.1C14.8,19.4,17.5,16.6,17.5,13.2
				L17.5,13.2z M8.8,1.8c0.3,0,0.6,0,1,0.1c-0.6,0.7-1,1.6-1,2.5h1.8c0-1.5,1.6-2.6,3.5-2.6s3.5,1.2,3.5,2.6c0,1.5-1.6,2.2-1.8,2.3
				v2.1H7V6.7C6.9,6.6,5.3,5.9,5.3,4.4C5.3,2.9,6.8,1.8,8.8,1.8L8.8,1.8z M11.4,17.6c-2.4,0-4.4-2-4.4-4.4v-2.7h8.8v2.7
				C15.8,15.6,13.8,17.6,11.4,17.6z"/>
		</g>
		<g id="chef_1_" transform="translate(309 769)" class="st1">
			<path id="Caminho_1537" class="st2" d="M14,0c-0.9,0-1.8,0.2-2.6,0.6h0C10.6,0.2,9.7,0,8.8,0C5.9,0,3.5,2,3.5,4.4
				c0,1.3,0.7,2.5,1.8,3.3v1.1L7,9.7h8.8l1.8-0.9V7.7c1.1-0.8,1.7-2,1.8-3.3C19.3,2,16.9,0,14,0z"/>
			<path id="Caminho_1538" class="st3" d="M17.5,8.8V7.7c1.1-0.8,1.7-2,1.8-3.3C19.3,2,16.9,0,14,0c-0.9,0-1.8,0.2-2.6,0.6h0v9.1
				h4.4L17.5,8.8z"/>
			<g id="Grupo_629" transform="translate(0 19.352)">
				<path id="Caminho_1539" class="st3" d="M11.4,0h-7C2,0,0,2,0,4.4v6.2h7l4.4-7.9L12.9,0H11.4z"/>
			</g>
			<path id="Caminho_1540" class="st3" d="M11.4,19.4V22l1.5-2.7H11.4z"/>
			<g id="Grupo_630" transform="translate(7.016 19.352)">
				<path id="Caminho_1541" class="st2" d="M11.4,0H5.9L4.4,1L1.2,3.1C0.4,3.6,0,4.4,0,5.3v5.2h15.8V4.4C15.8,2,13.8,0,11.4,0z"/>
			</g>
			<g id="Grupo_631" transform="translate(11.401 19.352)">
				<path id="Caminho_1542" class="st2" d="M11.4,4.4C11.4,2,9.4,0,7,0H1.5L0,1v9.6h11.4V4.4z"/>
			</g>
			<g id="Grupo_632" transform="translate(5.262 8.828)">
				<path id="Caminho_1543" class="st4" d="M6.1,0H0v4.4c0,3.4,2.7,6.1,6.1,6.1c3.4,0,6.1-2.7,6.1-6.1c0,0,0,0,0,0V0H6.1z"/>
				<path id="Caminho_1544" class="st5" d="M12.3,4.4V0H6.1v10.5C9.5,10.5,12.3,7.8,12.3,4.4L12.3,4.4z"/>
			</g>
			<g id="Grupo_633" transform="translate(10.524 24.614)">
				<path id="Caminho_1545" class="st6" d="M0,0h1.8v1.8H0V0z"/>
			</g>
			<g id="Grupo_634" transform="translate(11.401 24.614)">
				<path id="Caminho_1546" class="st7" d="M0,0h0.9v1.8H0V0z"/>
			</g>
		</g>
	</g>
</g>
</svg>
