<?xml version="1.0" encoding="utf-8"?>
<!-- Generator: Adobe Illustrator 25.0.1, SVG Export Plug-In . SVG Version: 6.00 Build 0)  -->
<svg version="1.1" id="Camada_1" xmlns="http://www.w3.org/2000/svg" xmlns:xlink="http://www.w3.org/1999/xlink" x="0px" y="0px"
	 viewBox="0 0 57 57" style="enable-background:new 0 0 57 57;" xml:space="preserve">
<style type="text/css">
	.st0{fill:#F86464;}
	.st1{fill:#F76464;}
	.st2{fill:#FFFFFF;}
	.st3{fill:#C2B0B0;}
	.st4{fill:#F99A9A;}
	.st5{fill:#FEFEFE;}
	.st6{fill:#F66464;}
	.st7{fill:#F9F9F9;}
</style>
<g id="Sub-menu" transform="translate(-150 -742)">
	<g transform="matrix(1, 0, 0, 1, 150, 742)">
		<circle id="Elipse_798-2" class="st0" cx="28.5" cy="28.5" r="28.5"/>
	</g>
</g>
<g>
	<path class="st1" d="M17.5,38.7c0-0.3-0.2-0.4-0.3-0.6c-2-2.8-3.1-5.8-3.3-9.2c-0.1-2.5,0.9-4.4,2.7-6c0.3-0.2,0.6-0.4,0.9-0.7
		c0.1-0.1,0.2-0.2,0.3-0.2c0.4,0,0.9-0.3,1.3,0.1c0,0.2-0.1,0.4-0.2,0.6c-0.9,1.5-0.8,3.3,0.4,4.7c1,1.2,2.7,1.7,4.3,1.2
		c1.6-0.5,2.7-2,2.7-3.7c0-1.1-0.4-2.1-1.2-2.9c-0.2-0.2-0.7-0.4-0.6-0.9c0.7-0.3,1.4-0.3,2.1-0.4c3.1-0.4,6.3-0.6,9.4-1
		c1.6-0.2,3.1-0.4,4.7-0.7c0.3,0,0.6-0.2,0.9,0.1c1.8,2.4,2.6,5.2,2.7,8.2c0,0.8-0.1,1.5-0.3,2.2c-0.1,0.3-0.2,0.7-0.4,1
		c-1.6,2.6-2.8,5.5-4,8.3c-0.5,1.1-1.2,2.1-1.8,3.2c-0.6,0.5-1.3,0.4-2,0.4c-6.1,0.4-11.8-0.6-17.4-3C18,39.2,17.6,39.1,17.5,38.7z"
		/>
	<path class="st2" d="M17.5,38.7c3.5,1.6,7.1,2.7,11,3.2c1.5,0.2,2.9,0.3,4.3,0.3c1.7,0,3.4,0,5-0.3c1.8-0.1,3.1-1,3.9-2.6
		c0.9-1.7,1.4-3.6,2-5.5c0.1-0.4,0.3-0.9,0.6-1.3c0.2-0.2,0.4-0.4,0.7-0.3c0.3,0.1,0.2,0.4,0.2,0.7c-0.2,1-0.3,1.9-0.6,2.9
		c-0.6,2.5-1.1,4.9-2.1,7.2c-0.3,0.8-0.8,1.6-1.4,2.2c-1.1,1.4-2.7,1.7-4.4,1.8c-7.5,0.8-14.6-0.7-21.5-3.7
		c-0.9-0.4-1.7-0.9-2.5-1.4c-2.6-1.8-3.8-4.1-3-7.3c0.7-3,1.8-5.8,3-8.7c0.1-0.3,0.3-0.9,0.8-0.7s0.3,0.7,0.2,1
		c-0.2,1-0.5,1.9-0.8,2.9c-0.3,1-0.5,2-0.7,3.1c-0.1,1.2,0.2,2.2,0.9,3.2c0.8,1.1,1.9,1.8,3.1,2.5C16.6,38.2,17,38.5,17.5,38.7z"/>
	<path class="st2" d="M41.7,19c-1.6,0.2-3.3,0.5-4.9,0.7c-1.5,0.2-3,0.3-4.5,0.5c-2.6,0.2-5.1,0.5-7.7,0.8c0,0-0.1,0-0.1,0.1
		c-0.2,0.1-0.4,0-0.6-0.1c-1.7-0.7-3.1-0.3-4.4,0.8c-0.1,0.1-0.2,0.3-0.4,0.2c-0.4-0.1-0.9,0.1-1.3,0.1c-0.2,0.1-0.4,0-0.7,0.1
		c-1.8,0.1-3.7,0.2-5.5-0.2c-0.9-0.2-1.3-1.3-1-2.1c0.3-0.6,0.7-0.9,1.3-1.1c2.9-1,6-1.4,9-1.6c0.5,0,0.8-0.2,1-0.6
		c0.8-1.5,1.6-3.1,2.4-4.6c0.8-1.4,1.8-1.9,3.4-1.7c1.5,0.2,3,0.4,4.4,0.8c0.3,0.1,0.6,0.2,0.8,0.5c0.9,1,1.9,1.9,2.5,3.1
		c0.1,0.2,0.2,0.2,0.5,0.2c3.4-0.8,6.9-0.7,10.4-0.4c0.3,0,0.5,0.1,0.7,0.4c0.3,0.4,0.6,1,0.6,1.6c0,0.7-0.2,1.1-0.9,1.3
		C45.1,18.2,43.3,18.6,41.7,19z"/>
	<path class="st3" d="M17,22.2c0.2-0.2,0.4-0.1,0.7-0.1c-0.1,0-0.2,0.1-0.2,0.1C17.3,22.2,17.2,22.2,17,22.2z"/>
	<path d="M31.4,27.9c0-2.3,1.9-4.2,4.2-4.2c2.3,0,4.2,1.9,4.2,4.2c0,2.3-1.9,4.2-4.2,4.2C33.3,32.2,31.4,30.3,31.4,27.9z"/>
	<path d="M19,22c1.6-1.7,3.3-1.9,5.5-0.9c1.6,1.2,2.3,2.7,1.8,4.7c-0.5,1.7-1.7,2.8-3.5,3c-1.7,0.2-3.1-0.4-4-1.9
		c-0.9-1.5-0.9-3,0-4.5C18.8,22.3,18.9,22.2,19,22z"/>
	<path d="M26.5,38c-1-1.1-1.1-2.5-1.1-3.9c0-0.4,0.3-0.4,0.6-0.4c1.3,0.1,2.7,0.2,4,0.3c0.8,0.1,1.5,0.1,2.3,0.2
		c0.2,0,0.4,0,0.4,0.3c-0.1,1.3-0.3,2.5-1.2,3.5c-0.1,0.1-0.2,0.2-0.3,0.2c-0.3-0.1-0.4-0.3-0.6-0.5c-1.2-1.2-2.7-1.2-3.8,0.1
		C26.6,37.9,26.5,38,26.5,38z"/>
	<path class="st4" d="M26.5,38c0.4-1.2,1.9-1.8,3.2-1.2c0.6,0.3,1.1,0.7,1.5,1.3c-1,1.2-3,1.3-4.2,0.3C26.8,38.3,26.6,38.1,26.5,38z
		"/>
	<path class="st5" d="M26.5,16.2c-0.9,0.4-1.8,0-2.6,0c-0.2,0-0.2-0.2-0.2-0.4c0.1-1,1.6-2.8,3.1-2.7c1.8,0.1,3.5,0.4,5,1.2
		c-0.2,0.5-0.7,0.2-1.1,0.3c-1.2,0-2.3,0.3-3.2,1C27.2,15.8,26.9,16,26.5,16.2z"/>
	<path class="st6" d="M26.5,16.2c1.1-1.1,2.4-1.9,4.1-1.8c0.5,0.1,1-0.1,1.6,0.1c0.2,0.1,0.4,0.2,0.7,0.4c-1,0.2-1.9,0.4-2.7,0.6
		C29,15.7,27.8,16,26.5,16.2z"/>
	<path class="st5" d="M35.1,27.9c-1,0-1.8-0.8-1.8-1.8c0-1,0.9-1.8,1.9-1.8c1,0,1.8,0.9,1.8,1.9C36.9,27.2,36.1,28,35.1,27.9z"/>
	<path class="st7" d="M37.9,28.8c0,0.3-0.1,0.5-0.4,0.5s-0.5-0.1-0.6-0.4c0-0.3,0.1-0.6,0.5-0.6C37.7,28.3,37.9,28.5,37.9,28.8z"/>
	<path class="st5" d="M23.4,21.5c1,0,1.8,0.8,1.8,1.8c0,1-0.8,1.9-1.9,1.8c-1,0-1.8-0.8-1.8-1.8C21.6,22.4,22.4,21.5,23.4,21.5z"/>
	<path class="st7" d="M20.5,25.8c-0.3,0-0.5-0.1-0.5-0.4c0-0.3,0.1-0.5,0.4-0.6c0.3,0,0.6,0.2,0.6,0.5
		C21.1,25.6,20.9,25.8,20.5,25.8z"/>
</g>
</svg>
