<svg xmlns="http://www.w3.org/2000/svg" width="25.169" height="23.38" viewBox="0 0 25.169 23.38">
  <g id="cook-hat" transform="translate(0)">
    <path id="Caminho_1458" data-name="Caminho 1458" d="M19.757,23.212a7.7,7.7,0,0,0-2.519-3.438,7.632,7.632,0,0,0-9.307,0,7.7,7.7,0,0,0-2.519,3.438,5.523,5.523,0,0,0-.794,10.971V37.29H20.55V34.183a5.523,5.523,0,0,0-.794-10.971Z" transform="translate(0 -18.191)" fill="#fff"/>
    <path id="Caminho_1459" data-name="Caminho 1459" d="M263.118,23.212a7.7,7.7,0,0,0-2.519-3.438,7.56,7.56,0,0,0-4.653-1.583h0v19.1h7.969V34.183a5.523,5.523,0,0,0-.794-10.971Z" transform="translate(-243.361 -18.191)" fill="#ededed"/>
    <g id="Grupo_592" data-name="Grupo 592" transform="translate(4.621 18.71)">
      <path id="Caminho_1460" data-name="Caminho 1460" d="M109.191,403.48H94.738a.737.737,0,0,1-.737-.737V398.81h15.927v3.933A.737.737,0,0,1,109.191,403.48Z" transform="translate(-94.001 -398.81)" fill="#ededed"/>
    </g>
    <path id="Caminho_1461" data-name="Caminho 1461" d="M255.943,398.81v4.67h7.229a.737.737,0,0,0,.737-.737V398.81Z" transform="translate(-243.361 -380.1)" fill="#bfbfbf"/>
  </g>
</svg>
