<svg xmlns="http://www.w3.org/2000/svg" width="24.028" height="24.03" viewBox="0 0 24.028 24.03">
  <g id="cookie" transform="translate(0)">
    <path id="Caminho_1480" data-name="Caminho 1480" d="M23.563,11.041a3.506,3.506,0,0,1-2.337-3.295.7.7,0,0,0-.268-.605.806.806,0,0,0-.591-.155A4.1,4.1,0,0,1,17.2,6.127a4.21,4.21,0,0,1-1.563-2.943.727.727,0,0,0-.324-.535.686.686,0,0,0-.62-.056A3.586,3.586,0,0,1,10.258.424a.711.711,0,0,0-.8-.408,12.2,12.2,0,0,0-6.8,4.443,12.087,12.087,0,0,0,.859,16.065,11.965,11.965,0,0,0,16.924,0,12.243,12.243,0,0,0,3.6-8.554C24.014,11.505,24,11.2,23.563,11.041Z" transform="translate(-0.014 0)" fill="#ffea65"/>
    <path id="Caminho_1481" data-name="Caminho 1481" d="M95.206,136.38a12.242,12.242,0,0,1-3.6,8.554,11.965,11.965,0,0,1-16.924,0l13.681-14.4a4.1,4.1,0,0,0,3.168.859.806.806,0,0,1,.591.155.7.7,0,0,1,.268.605,3.506,3.506,0,0,0,2.337,3.295C95.164,135.606,95.178,135.916,95.206,136.38Z" transform="translate(-71.178 -124.411)" fill="#fed223"/>
    <path id="Caminho_1482" data-name="Caminho 1482" d="M123.434,302.493A2.032,2.032,0,0,0,122.1,302a2.109,2.109,0,0,0-2.112,2.112,2.133,2.133,0,0,0,2.112,2.112,2.109,2.109,0,0,0,2.112-2.112A2.044,2.044,0,0,0,123.434,302.493Z" transform="translate(-114.353 -287.826)" fill="#994c0f"/>
    <g id="Grupo_599" data-name="Grupo 599" transform="translate(12.67 9.95)">
      <path id="Caminho_1483" data-name="Caminho 1483" d="M272.095,216.224a2.112,2.112,0,1,1,2.112-2.112A2.114,2.114,0,0,1,272.095,216.224Z" transform="translate(-269.983 -212)" fill="#713708"/>
      <path id="Caminho_1484" data-name="Caminho 1484" d="M271.391,364.816a1.408,1.408,0,1,1,1.408-1.408A1.41,1.41,0,0,1,271.391,364.816Z" transform="translate(-269.983 -354.96)" fill="#713708"/>
    </g>
    <path id="Caminho_1485" data-name="Caminho 1485" d="M151.391,154.816a1.408,1.408,0,1,1,1.408-1.408A1.41,1.41,0,0,1,151.391,154.816Z" transform="translate(-142.945 -144.866)" fill="#994c0f"/>
    <ellipse id="Elipse_187" data-name="Elipse 187" cx="0.704" cy="0.704" rx="0.704" ry="0.704" transform="translate(18.267 14.227)" fill="#713708"/>
    <ellipse id="Elipse_188" data-name="Elipse 188" cx="0.704" cy="0.704" rx="0.704" ry="0.704" transform="translate(4.187 11.411)" fill="#994c0f"/>
    <path id="Caminho_1486" data-name="Caminho 1486" d="M135.358,314.118a2.109,2.109,0,0,1-2.112,2.112,2.066,2.066,0,0,1-1.563-.7l2.9-3.027A2.044,2.044,0,0,1,135.358,314.118Z" transform="translate(-125.503 -297.833)" fill="#713708"/>
  </g>
</svg>
