<?xml version="1.0" encoding="utf-8"?>
<!-- Generator: Adobe Illustrator 25.0.1, SVG Export Plug-In . SVG Version: 6.00 Build 0)  -->
<svg version="1.1" id="Camada_1" xmlns="http://www.w3.org/2000/svg" xmlns:xlink="http://www.w3.org/1999/xlink" x="0px" y="0px"
	 viewBox="0 0 26.2 24" style="enable-background:new 0 0 26.2 24;" xml:space="preserve">
<style type="text/css">
	.st0{fill:#D8D8D8;}
	.st1{fill:#EFEFEF;}
	.st2{fill:#E2E2E2;}
	.st3{fill:#FFE7CF;}
	.st4{fill:#F4D5BA;}
	.st5{fill:#0D6E9A;}
	.st6{fill:#09627A;}
</style>
<g id="serving-dish" transform="translate(0 -0.002)">
	<path id="Caminho_1588" class="st0" d="M14.7,0.6c0,0.8-0.7,1.5-1.5,1.5c-0.8,0-1.5-0.7-1.5-1.5c0,0,0,0,0,0
		C11.6-0.2,14.7-0.2,14.7,0.6z"/>
	<path id="Caminho_1589" class="st1" d="M13.1,2C7,2,2.1,6.9,2.1,13h22.1C24.2,6.9,19.2,2,13.1,2z"/>
	<path id="Caminho_1590" class="st2" d="M13.1,2c-0.5,0-1,0-1.5,0.1c5.5,0.8,9.5,5.4,9.5,10.9h3C24.2,6.9,19.2,2,13.1,2z"/>
	<path id="Caminho_1591" class="st0" d="M25.5,14.7H0.8c-0.4,0-0.8-0.3-0.8-0.8c0,0,0,0,0,0v-0.5c0-0.4,0.3-0.8,0.8-0.8h24.7
		c0.4,0,0.8,0.3,0.8,0.8v0.5C26.2,14.3,25.9,14.7,25.5,14.7L25.5,14.7z"/>
	<path id="Caminho_1592" class="st3" d="M6.4,23.1l0.2-0.8c0.3-1.1,1.1-1.9,2.2-2.2c1.1-0.2,2.2-0.2,3.3,0c1,0.2,2.1,0.1,3.1-0.2
		l1.5-0.4c0.9-0.3,1.8-0.7,2.5-1.3l2.5-2.2c0.3-0.3,0.4-0.8,0.1-1.1c-0.3-0.3-0.8-0.4-1.1-0.1l-2.5,1.6l-2.4,0.7l-1.7,0l1.2-0.6
		c0.4-0.2,0.6-0.8,0.4-1.2c-0.1-0.2-0.2-0.3-0.3-0.4c-0.2-0.1-0.5-0.2-0.8-0.1l-3.4,0.7l-2.6-0.7c-0.4-0.1-0.7-0.2-1.1-0.2
		c-1,0.1-1.9,0.5-2.7,1.2l0,0l-3.2,3.9L6.4,23.1z"/>
	<path id="Caminho_1593" class="st4" d="M21.6,14.8l-2.8,2c-0.7,0.6-2.5,1.7-8.9,1.1c-1.1-0.2-2.2-0.2-3.3,0
		c-0.9,0.2-2.5,2.3-3.2,3.2l3,2l0.2-0.8c0.3-1.1,1.1-1.9,2.2-2.2c1.1-0.2,2.2-0.2,3.3,0c1,0.2,2.1,0.1,3.1-0.2l1.5-0.4
		c0.9-0.3,1.8-0.7,2.5-1.3l2.5-2.2c0.4-0.3,0.4-0.9,0.1-1.2C21.7,14.9,21.7,14.8,21.6,14.8L21.6,14.8z"/>
	<path id="Caminho_1594" class="st5" d="M7.3,21.7l-5.1-3.4c-0.3-0.2-0.8-0.1-1,0.2l-0.7,1.1c-0.2,0.3-0.1,0.7,0.2,1l5.1,3.4
		c0.3,0.2,0.8,0.1,1-0.2l0.7-1.1C7.7,22.3,7.7,21.9,7.3,21.7z"/>
	<path id="Caminho_1595" class="st6" d="M7.3,21.7l-1.9-1.3l-1.5,2.2l1.9,1.3c0.3,0.2,0.7,0.1,0.9-0.2l0.8-1.2
		C7.7,22.3,7.7,21.9,7.3,21.7z"/>
</g>
</svg>
