<svg xmlns="http://www.w3.org/2000/svg" width="26.235" height="24.03" viewBox="0 0 26.235 24.03">
  <g id="serving-dish" transform="translate(0 -0.002)">
    <path id="Caminho_1588" data-name="Caminho 1588" d="M229.145.637a1.533,1.533,0,1,1-3.066,0c0-.847,3.066-.847,3.066,0Zm0,0" transform="translate(-214.494)" fill="#d8d8d8"/>
    <path id="Caminho_1589" data-name="Caminho 1589" d="M51.409,38.2a11.05,11.05,0,0,0-11.05,11.05h22.1A11.05,11.05,0,0,0,51.409,38.2Zm0,0" transform="translate(-38.291 -36.24)" fill="#efefef"/>
    <path id="Caminho_1590" data-name="Caminho 1590" d="M227.86,38.2a11.127,11.127,0,0,0-1.52.1,11.051,11.051,0,0,1,9.53,10.945h3.04A11.05,11.05,0,0,0,227.86,38.2Zm0,0" transform="translate(-214.742 -36.24)" fill="#e2e2e2"/>
    <path id="Caminho_1591" data-name="Caminho 1591" d="M25.477,249.542H.758A.758.758,0,0,1,0,248.784V248.3a.758.758,0,0,1,.758-.758h24.72a.758.758,0,0,1,.758.758v.483a.758.758,0,0,1-.758.758Zm0,0" transform="translate(0 -234.857)" fill="#d8d8d8"/>
    <path id="Caminho_1592" data-name="Caminho 1592" d="M33.447,294.969l.181-.775a2.973,2.973,0,0,1,2.2-2.211,9.048,9.048,0,0,1,3.35.048,7.146,7.146,0,0,0,3.052-.165l1.456-.4a7.1,7.1,0,0,0,2.513-1.271l2.511-2.224a.8.8,0,1,0-1.026-1.23l-2.471,1.636-2.445.707-1.735.038,1.17-.619a.948.948,0,0,0,.433-1.224.929.929,0,0,0-.328-.393.986.986,0,0,0-.751-.147l-3.429.715-2.618-.706a3.969,3.969,0,0,0-1.123-.215,4.139,4.139,0,0,0-2.662,1.173l-.008.008-3.212,3.9Zm0,0" transform="translate(-27.047 -271.847)" fill="#ffe7cf"/>
    <path id="Caminho_1593" data-name="Caminho 1593" d="M84.934,289.027l-2.778,2.019c-.749.589-2.5,1.7-8.932,1.15a10.857,10.857,0,0,0-3.35-.049c-.86.2-2.52,2.308-3.163,3.163l2.982,2.026.181-.775a2.973,2.973,0,0,1,2.2-2.212,9.048,9.048,0,0,1,3.35.049,7.149,7.149,0,0,0,3.052-.165l1.456-.4a7.1,7.1,0,0,0,2.513-1.271l2.511-2.224a.857.857,0,0,0-.025-1.31Zm0,0" transform="translate(-63.292 -274.215)" fill="#f4d5ba"/>
    <path id="Caminho_1594" data-name="Caminho 1594" d="M16.088,357.1l-5.051-3.431a.7.7,0,0,0-.968.185l-.738,1.089a.7.7,0,0,0,.185.967l5.051,3.431a.7.7,0,0,0,.968-.185l.738-1.088A.7.7,0,0,0,16.088,357.1Zm0,0" transform="translate(-8.739 -335.433)" fill="#0d6e9a"/>
    <path id="Caminho_1595" data-name="Caminho 1595" d="M79.355,398.459l-1.94-1.318-1.52,2.242,1.939,1.317a.7.7,0,0,0,.944-.153l.783-1.156A.7.7,0,0,0,79.355,398.459Zm0,0" transform="translate(-72.006 -376.789)" fill="#09627a"/>
  </g>
</svg>
