<svg xmlns="http://www.w3.org/2000/svg" xmlns:xlink="http://www.w3.org/1999/xlink" width="341.089" height="235.463" viewBox="0 0 341.089 235.463">
  <defs>
    <linearGradient id="linear-gradient" y1="0.5" x2="1" y2="0.5" gradientUnits="objectBoundingBox">
      <stop offset="0" stop-color="gray" stop-opacity="0.251"/>
      <stop offset="0.54" stop-color="gray" stop-opacity="0.122"/>
      <stop offset="1" stop-color="gray" stop-opacity="0.102"/>
    </linearGradient>
  </defs>
  <g id="Grupo_1337" data-name="Grupo 1337" transform="translate(0 0.006)">
    <path id="Caminho_2596" data-name="Caminho 2596" d="M209.839,79.515c-21.863.029-42.908-6.169-63.036-13.054S106.7,51.866,85.243,48.6c-13.8-2.1-29.491-1.907-40.278,5.718-10.383,7.336-13.39,19.477-14.841,30.693-1.091,8.438-1.594,17.295,2.492,25.013,2.837,5.358,7.692,9.775,11.114,14.882,11.945,17.766,4.762,40.459-6.847,58.637-5.443,8.529-11.819,16.7-15.935,25.721s-5.8,19.243-1.606,28.143C23.5,246.229,32.9,252.631,42.979,257c20.474,8.9,44.311,10.8,67.508,11.539,51.349,1.629,102.8-1.693,154.107-5.016,18.988-1.228,38.061-2.466,56.657-6.025,10.325-1.974,20.957-4.9,28.277-11.328,9.292-8.154,11.193-21.468,4.431-31.038-11.34-16.052-41.24-19.079-49.371-36.447-4.484-9.561-.617-20.527,5.077-29.743,12.214-19.775,33.238-37.488,33.592-59.605.243-15.189-10.69-30.006-27.02-36.607-17.116-6.914-40.454-5.136-52.445,7.751C251.462,73.759,229.143,79.495,209.839,79.515Z" transform="translate(-16.91 -47.46)" fill="#f86464" opacity="0.1"/>
    <path id="Caminho_2597" data-name="Caminho 2597" d="M992.127,689.7s-3.595-2.372-7.157-.684c0,0,1.1,2.112,5.607,1.913Z" transform="translate(-701.827 -500.944)" fill="#f86464"/>
    <path id="Caminho_2598" data-name="Caminho 2598" d="M1005.236,693.25s1.094,4.165-1.65,7c0,0-1.65-1.717,0-5.923Z" transform="translate(-714.48 -504.37)" fill="#f86464"/>
    <path id="Caminho_2599" data-name="Caminho 2599" d="M1006.286,673.278s-.266-3.542-8.266-2.366a3.816,3.816,0,0,0,2.77,3.367C1003.6,675.36,1004.885,674.448,1006.286,673.278Z" transform="translate(-711.06 -488.396)" fill="#f86464"/>
    <path id="Caminho_2600" data-name="Caminho 2600" d="M1022.327,679.5s3.381,1.085.366,8.587a3.826,3.826,0,0,1-2.632-3.483C1019.659,681.618,1020.847,680.588,1022.327,679.5Z" transform="translate(-726.598 -494.642)" fill="#f86464"/>
    <path id="Caminho_2601" data-name="Caminho 2601" d="M1024.746,649.559s.459-5.829-7.716-5.233c0,0-.585,5.265,6.274,6.634Z" transform="translate(-724.501 -469.726)" fill="#f86464"/>
    <path id="Caminho_2602" data-name="Caminho 2602" d="M1039.432,627.713s-1.12-6.607-9.292-4.639c0,0-.029,5.712,7.959,6.212Z" transform="translate(-733.786 -454.461)" fill="#f86464"/>
    <path id="Caminho_2603" data-name="Caminho 2603" d="M1051.284,604.781s-1.878-6.435-9.974-4.51c0,0,1.927,5.788,9.436,5.7Z" transform="translate(-741.688 -438.332)" fill="#f86464"/>
    <path id="Caminho_2604" data-name="Caminho 2604" d="M1064.882,581.618s-1.834-6.677-9.652-4.68c0,0,2.609,6.344,9.134,5.809Z" transform="translate(-751.537 -421.814)" fill="#f86464"/>
    <path id="Caminho_2605" data-name="Caminho 2605" d="M1075.449,556.247s-1.41-8.166-8.7-6.359c0,0,2.118,7.429,8.163,7.549Z" transform="translate(-759.688 -402.755)" fill="#f86464"/>
    <path id="Caminho_2606" data-name="Caminho 2606" d="M1082.307,530.994s-1.693-8.231-9.067-5.85c0,0,2.89,7.78,8.544,6.976Z" transform="translate(-764.279 -385.127)" fill="#f86464"/>
    <path id="Caminho_2607" data-name="Caminho 2607" d="M1088.708,502.541s-2.688-8.233-8.389-8.011c0,0,2.746,8.7,7.912,9.652Z" transform="translate(-769.289 -363.769)" fill="#f86464"/>
    <path id="Caminho_2608" data-name="Caminho 2608" d="M1093.784,476.025s-2.925-9.909-7.564-9.146c0,0,2.024,7.575,7.4,10.69Z" transform="translate(-773.463 -344.18)" fill="#f86464"/>
    <path id="Caminho_2609" data-name="Caminho 2609" d="M1096.132,449.227s-2.743-8.257-7.312-8.587c0,0,1.866,8.125,7.221,10.734Z" transform="translate(-775.303 -325.645)" fill="#f86464"/>
    <path id="Caminho_2610" data-name="Caminho 2610" d="M1100.145,423.193s-3.419-8.266-6.435-8.453c0,0,1.486,8.14,6.142,9.81Z" transform="translate(-778.762 -307.32)" fill="#f86464"/>
    <path id="Caminho_2611" data-name="Caminho 2611" d="M1104.6,395.6s-2.1-8.976-5.124-9.722c0,0,.412,7.344,4.82,10.395Z" transform="translate(-782.845 -286.901)" fill="#f86464"/>
    <path id="Caminho_2612" data-name="Caminho 2612" d="M1109.629,367.048s-2.211-7.157-4.659-8.248c0,0,.483,8.438,4.095,10Z" transform="translate(-786.729 -267.742)" fill="#f86464"/>
    <path id="Caminho_2613" data-name="Caminho 2613" d="M1119.678,335.478l.445-12.618s-4.577,9.512-.775,14.832Z" transform="translate(-795.833 -242.314)" fill="#f86464"/>
    <path id="Caminho_2614" data-name="Caminho 2614" d="M1131.9,299.558s3.3-9.213,4.095-9.728c0,0-6.464,5.978-5.832,13.668Z" transform="translate(-804.524 -218.945)" fill="#f86464"/>
    <path id="Caminho_2615" data-name="Caminho 2615" d="M1040.995,662.125s5.8-.758,5.625,7.435c0,0-5.238.854-6.949-5.923Z" transform="translate(-740.528 -482.336)" fill="#f86464"/>
    <path id="Caminho_2616" data-name="Caminho 2616" d="M1059.617,639.06s6.7-.02,6.142,8.365c0,0-5.625,1.006-7.479-6.78Z" transform="translate(-753.695 -466.03)" fill="#f86464"/>
    <path id="Caminho_2617" data-name="Caminho 2617" d="M1074.328,617.1s6.081-2.852,9.971,4.51c0,0-5.616,2.375-10.509-3.32Z" transform="translate(-764.669 -450.105)" fill="#f86464"/>
    <path id="Caminho_2618" data-name="Caminho 2618" d="M1087.445,592.513s6.227-3.033,9.883,4.156c0,0-6.487,2.235-10.4-3.018Z" transform="translate(-773.965 -432.648)" fill="#f86464"/>
    <path id="Caminho_2619" data-name="Caminho 2619" d="M1095.555,566.762s5.993-5.724,10.775.064c0,0-6.122,4.712-11.05,1.211Z" transform="translate(-779.873 -413.092)" fill="#f86464"/>
    <path id="Caminho_2620" data-name="Caminho 2620" d="M1102.557,539.42s6.028-5.85,10.772.269c0,0-6.765,4.806-10.989.959Z" transform="translate(-784.868 -393.749)" fill="#f86464"/>
    <path id="Caminho_2621" data-name="Caminho 2621" d="M1106.93,506.815s4.645-7.312,10.114-5.68c0,0-4.82,7.742-10.061,7.4Z" transform="translate(-788.116 -368.278)" fill="#f86464"/>
    <path id="Caminho_2622" data-name="Caminho 2622" d="M1111.32,479.241s4.68-9.207,9.108-7.6c0,0-3.375,7.078-9.228,9.158Z" transform="translate(-791.137 -347.443)" fill="#f86464"/>
    <path id="Caminho_2623" data-name="Caminho 2623" d="M1111.588,452.79s4.811-7.248,9.319-6.362c0,0-3.934,7.35-9.787,8.459Z" transform="translate(-791.08 -329.687)" fill="#f86464"/>
    <path id="Caminho_2624" data-name="Caminho 2624" d="M1114,423.28s3.729-8.134,6.759-8.19c0,0-1.79,8.076-6.508,9.57Z" transform="translate(-793.118 -307.568)" fill="#f86464"/>
    <path id="Caminho_2625" data-name="Caminho 2625" d="M1116.5,398.554s4.145-8.236,7.26-8.254c0,0-2.121,7.043-7.122,8.976Z" transform="translate(-794.886 -290.029)" fill="#f86464"/>
    <path id="Caminho_2626" data-name="Caminho 2626" d="M1118.63,370.407s3.1-6.815,5.668-7.587c0,0-1.55,8.307-5.326,9.395Z" transform="translate(-796.394 -270.586)" fill="#f86464"/>
    <path id="Caminho_2627" data-name="Caminho 2627" d="M1122.942,339.616l6.929-10.556s-1.775,10.412-7.941,12.577Z" transform="translate(-798.728 -246.7)" fill="#f86464"/>
    <path id="Caminho_2628" data-name="Caminho 2628" d="M1133.535,310.385s8.052-5.557,8.345-6.455c0,0-4.095,7.783-11.7,9.158Z" transform="translate(-804.565 -228.921)" fill="#f86464"/>
    <path id="Caminho_2629" data-name="Caminho 2629" d="M1142.762,295.97s9.245-8.889,11.606-8.88a15.092,15.092,0,0,0-11.828,8.406Z" transform="translate(-813.31 -217.006)" fill="#f86464"/>
    <path id="Caminho_2630" data-name="Caminho 2630" d="M1118.94,337.857l.336.044c1.737-13.6,4.27-21.644,7.131-22.63l-.111-.322C1123.263,316,1120.713,323.926,1118.94,337.857Z" transform="translate(-796.613 -236.717)" fill="#444053"/>
    <path id="Caminho_2631" data-name="Caminho 2631" d="M1110.2,423.348l.509.041c.108-1.269.19-2.568.246-3.864.486-11.255,1.237-21.591,2.226-29.339l-.292-.366c-.992,7.765-1.957,18.412-2.442,29.684C1110.39,420.791,1110.308,422.084,1110.2,423.348Z" transform="translate(-790.429 -289.689)" fill="#444053"/>
    <path id="Caminho_2632" data-name="Caminho 2632" d="M976.335,563.684A66.246,66.246,0,0,0,994.68,550.1a73.769,73.769,0,0,0,13.41-19.012c4.3-8.754,6.92-19.512,7.8-29.962l-.529.249c-1.974,23.457-12.653,39.486-21.144,48.216a65.559,65.559,0,0,1-18.154,13.454Z" transform="translate(-695.523 -368.443)" fill="#444053"/>
    <path id="Caminho_2633" data-name="Caminho 2633" d="M370.417,132.69H89.374a2.5,2.5,0,0,0-2.5,2.5v7.295H372.92v-7.295A2.5,2.5,0,0,0,370.417,132.69Z" transform="translate(-66.408 -107.766)" fill="#3f3d56"/>
    <path id="Caminho_2634" data-name="Caminho 2634" d="M86.87,166.19V330.344a5.048,5.048,0,0,0,5.048,5.048H367.872a5.048,5.048,0,0,0,5.048-5.048V166.19Z" transform="translate(-66.408 -131.467)" fill="#fff"/>
    <circle id="Elipse_335" data-name="Elipse 335" cx="1.17" cy="1.17" r="1.17" transform="translate(23.823 28.58)" fill="#fa5959" opacity="0.8"/>
    <circle id="Elipse_336" data-name="Elipse 336" cx="1.17" cy="1.17" r="1.17" transform="translate(27.04 28.58)" fill="#fed253" opacity="0.8"/>
    <circle id="Elipse_337" data-name="Elipse 337" cx="1.17" cy="1.17" r="1.17" transform="translate(30.258 28.58)" fill="#8ccf4d" opacity="0.8"/>
    <rect id="Retângulo_865" data-name="Retângulo 865" width="229.893" height="101.089" transform="translate(47.052 62.093)" opacity="0.05"/>
    <rect id="Retângulo_866" data-name="Retângulo 866" width="226.383" height="98.86" transform="translate(48.807 62.86)" fill="#3f3d56"/>
    <path id="Caminho_2635" data-name="Caminho 2635" d="M340.3,349.38A22.521,22.521,0,1,0,362.823,371.9,22.521,22.521,0,0,0,340.3,349.38Zm4.039,23.062v10.664h-7.961V372.442a6.6,6.6,0,1,1,7.961,0Z" transform="translate(-229.78 -261.077)" fill="#f86464"/>
    <path id="Caminho_2636" data-name="Caminho 2636" d="M340.3,349.38A22.521,22.521,0,1,0,362.823,371.9,22.521,22.521,0,0,0,340.3,349.38Zm4.039,23.062v10.664h-7.961V372.442a6.6,6.6,0,1,1,7.961,0Z" transform="translate(-229.78 -261.077)" opacity="0.05"/>
    <path id="Caminho_2637" data-name="Caminho 2637" d="M324.736,327.38a28.956,28.956,0,1,0,28.956,28.956,28.956,28.956,0,0,0-28.956-28.956Zm5.192,29.652v13.709H319.691V357.032a8.482,8.482,0,1,1,10.237,0Z" transform="translate(-214.215 -245.512)" fill="#f86464"/>
    <rect id="Retângulo_867" data-name="Retângulo 867" width="93.595" height="9.944" transform="translate(151.469 107.025)" fill="#fff"/>
    <rect id="Retângulo_868" data-name="Retângulo 868" width="20.181" height="9.944" transform="translate(224.883 125.159)" fill="#f86464"/>
    <path id="Caminho_2638" data-name="Caminho 2638" d="M556.021,424.927h-1.694l1.506-1.5a.149.149,0,0,0,0-.208.146.146,0,0,0-.208,0l-1.506,1.506v-1.7a.146.146,0,0,0-.146-.146.149.149,0,0,0-.146.146v1.7l-1.5-1.515a.146.146,0,0,0-.208,0,.149.149,0,0,0,0,.208l1.506,1.5h-1.7a.149.149,0,0,0-.146.146.146.146,0,0,0,.146.146h1.7l-1.506,1.506a.149.149,0,0,0,0,.208.152.152,0,0,0,.208,0l1.5-1.506v1.694a.146.146,0,0,0,.292,0v-1.694l1.506,1.506a.152.152,0,0,0,.208,0,.149.149,0,0,0,0-.208l-1.506-1.506h1.694a.142.142,0,1,0,0-.284Z" transform="translate(-395.339 -313.08)" fill="#f86464"/>
    <path id="Caminho_2639" data-name="Caminho 2639" d="M577.021,424.927h-1.693l1.506-1.5a.149.149,0,0,0,0-.208.146.146,0,0,0-.208,0l-1.506,1.506v-1.7a.146.146,0,0,0-.146-.146.149.149,0,0,0-.146.146v1.7l-1.5-1.515a.146.146,0,0,0-.208,0,.149.149,0,0,0,0,.208l1.506,1.5h-1.7a.149.149,0,0,0-.146.146.146.146,0,0,0,.146.146h1.7l-1.506,1.506a.149.149,0,0,0,0,.208.152.152,0,0,0,.208,0l1.5-1.506v1.694a.146.146,0,0,0,.292,0v-1.694l1.506,1.506a.152.152,0,0,0,.208,0,.149.149,0,0,0,0-.208l-1.506-1.506h1.693a.142.142,0,1,0,0-.284Z" transform="translate(-410.196 -313.08)" fill="#f86464"/>
    <path id="Caminho_2640" data-name="Caminho 2640" d="M598.021,424.927h-1.693l1.506-1.5a.149.149,0,0,0,0-.208.146.146,0,0,0-.208,0l-1.506,1.506v-1.7a.146.146,0,0,0-.146-.146.149.149,0,0,0-.146.146v1.7l-1.5-1.515a.146.146,0,0,0-.208,0,.149.149,0,0,0,0,.208l1.506,1.5h-1.7a.149.149,0,0,0-.146.146.146.146,0,0,0,.146.146h1.7l-1.506,1.506a.149.149,0,0,0,0,.208.152.152,0,0,0,.208,0l1.5-1.506v1.694a.146.146,0,0,0,.292,0v-1.694l1.506,1.506a.152.152,0,0,0,.208,0,.149.149,0,0,0,0-.208l-1.506-1.506h1.693a.142.142,0,1,0,0-.284Z" transform="translate(-425.054 -313.08)" fill="#f86464"/>
    <path id="Caminho_2641" data-name="Caminho 2641" d="M619.021,424.927h-1.693l1.506-1.5a.149.149,0,0,0,0-.208.146.146,0,0,0-.208,0l-1.506,1.506v-1.7a.146.146,0,0,0-.146-.146.149.149,0,0,0-.146.146v1.7l-1.5-1.515a.146.146,0,0,0-.208,0,.149.149,0,0,0,0,.208l1.506,1.5h-1.7a.149.149,0,0,0-.146.146.146.146,0,0,0,.146.146h1.7l-1.506,1.506a.149.149,0,0,0,0,.208.152.152,0,0,0,.208,0l1.5-1.506v1.694a.146.146,0,0,0,.292,0v-1.694l1.506,1.506a.152.152,0,0,0,.208,0,.149.149,0,0,0,0-.208l-1.506-1.506h1.693a.142.142,0,1,0,0-.284Z" transform="translate(-439.912 -313.08)" fill="#f86464"/>
    <path id="Caminho_2642" data-name="Caminho 2642" d="M640.021,424.927h-1.693l1.506-1.5a.149.149,0,0,0,0-.208.146.146,0,0,0-.208,0l-1.506,1.506v-1.7a.146.146,0,0,0-.146-.146.149.149,0,0,0-.146.146v1.7l-1.5-1.515a.146.146,0,0,0-.208,0,.149.149,0,0,0,0,.208l1.506,1.5h-1.7a.149.149,0,0,0-.146.146.146.146,0,0,0,.146.146h1.7l-1.506,1.506a.149.149,0,0,0,0,.208.152.152,0,0,0,.208,0l1.5-1.506v1.694a.146.146,0,0,0,.292,0v-1.694l1.506,1.506a.152.152,0,0,0,.208,0,.149.149,0,0,0,0-.208l-1.506-1.506h1.693a.142.142,0,1,0,0-.284Z" transform="translate(-454.77 -313.08)" fill="#f86464"/>
    <path id="Caminho_2643" data-name="Caminho 2643" d="M661.021,424.927h-1.694l1.506-1.5a.149.149,0,0,0,0-.208.146.146,0,0,0-.208,0l-1.506,1.506v-1.7a.146.146,0,0,0-.146-.146.149.149,0,0,0-.146.146v1.7l-1.5-1.515a.146.146,0,0,0-.208,0,.149.149,0,0,0,0,.208l1.506,1.5h-1.7a.149.149,0,0,0-.146.146.146.146,0,0,0,.146.146h1.7l-1.506,1.506a.149.149,0,0,0,0,.208.152.152,0,0,0,.208,0l1.5-1.506v1.694a.146.146,0,0,0,.292,0v-1.694l1.506,1.506a.152.152,0,0,0,.208,0,.149.149,0,0,0,0-.208l-1.506-1.506h1.694a.142.142,0,1,0,0-.284Z" transform="translate(-469.628 -313.08)" fill="#f86464"/>
    <path id="Caminho_2644" data-name="Caminho 2644" d="M682.021,424.927h-1.693l1.506-1.5a.149.149,0,0,0,0-.208.146.146,0,0,0-.208,0l-1.506,1.506v-1.7a.146.146,0,0,0-.146-.146.149.149,0,0,0-.146.146v1.7l-1.5-1.515a.146.146,0,0,0-.208,0,.149.149,0,0,0,0,.208l1.506,1.5h-1.7a.149.149,0,0,0-.146.146.146.146,0,0,0,.146.146h1.7l-1.506,1.506a.149.149,0,0,0,0,.208.152.152,0,0,0,.208,0l1.5-1.506v1.694a.146.146,0,0,0,.292,0v-1.694l1.506,1.506a.152.152,0,0,0,.208,0,.149.149,0,0,0,0-.208l-1.506-1.506h1.693a.142.142,0,1,0,0-.284Z" transform="translate(-484.486 -313.08)" fill="#f86464"/>
    <path id="Caminho_2645" data-name="Caminho 2645" d="M703.021,424.927h-1.694l1.506-1.5a.149.149,0,0,0,0-.208.146.146,0,0,0-.208,0l-1.506,1.506v-1.7a.146.146,0,0,0-.146-.146.149.149,0,0,0-.146.146v1.7l-1.5-1.515a.146.146,0,0,0-.208,0,.149.149,0,0,0,0,.208l1.506,1.5h-1.7a.149.149,0,0,0-.146.146.146.146,0,0,0,.146.146h1.7l-1.506,1.506a.149.149,0,0,0,0,.208.152.152,0,0,0,.208,0l1.5-1.506v1.694a.146.146,0,1,0,.292,0v-1.694l1.506,1.506a.152.152,0,0,0,.208,0,.149.149,0,0,0,0-.208l-1.506-1.506h1.694a.142.142,0,1,0,0-.284Z" transform="translate(-499.343 -313.08)" fill="#f86464"/>
    <path id="Caminho_2646" data-name="Caminho 2646" d="M724.021,424.927h-1.693l1.506-1.5a.149.149,0,0,0,0-.208.146.146,0,0,0-.208,0l-1.506,1.506v-1.7a.146.146,0,0,0-.146-.146.149.149,0,0,0-.146.146v1.7l-1.5-1.515a.146.146,0,0,0-.208,0,.149.149,0,0,0,0,.208l1.506,1.5h-1.7a.149.149,0,0,0-.146.146.146.146,0,0,0,.146.146h1.7l-1.506,1.506a.149.149,0,0,0,0,.208.152.152,0,0,0,.208,0l1.5-1.506v1.694a.146.146,0,0,0,.292,0v-1.694l1.506,1.506a.152.152,0,0,0,.208,0,.149.149,0,0,0,0-.208l-1.506-1.506h1.693a.142.142,0,1,0,0-.284Z" transform="translate(-514.201 -313.08)" fill="#f86464"/>
    <path id="Caminho_2647" data-name="Caminho 2647" d="M745.021,424.927h-1.693l1.506-1.5a.149.149,0,0,0,0-.208.146.146,0,0,0-.208,0l-1.506,1.506v-1.7a.146.146,0,0,0-.146-.146.149.149,0,0,0-.146.146v1.7l-1.5-1.515a.146.146,0,0,0-.208,0,.149.149,0,0,0,0,.208l1.506,1.5h-1.7a.149.149,0,0,0-.146.146.146.146,0,0,0,.146.146h1.7l-1.506,1.506a.149.149,0,0,0,0,.208.152.152,0,0,0,.208,0l1.5-1.506v1.694a.146.146,0,0,0,.292,0v-1.694l1.506,1.506a.152.152,0,0,0,.208,0,.149.149,0,0,0,0-.208l-1.506-1.506h1.693a.142.142,0,1,0,0-.284Z" transform="translate(-529.059 -313.08)" fill="#f86464"/>
    <path id="Caminho_2648" data-name="Caminho 2648" d="M766.021,424.927h-1.693l1.506-1.5a.149.149,0,0,0,0-.208.146.146,0,0,0-.208,0l-1.506,1.506v-1.7a.146.146,0,0,0-.146-.146.149.149,0,0,0-.146.146v1.7l-1.5-1.515a.146.146,0,0,0-.208,0,.149.149,0,0,0,0,.208l1.506,1.5h-1.7a.149.149,0,0,0-.146.146.146.146,0,0,0,.146.146h1.7l-1.506,1.506a.149.149,0,0,0,0,.208.152.152,0,0,0,.208,0l1.5-1.506v1.694a.146.146,0,0,0,.292,0v-1.694l1.506,1.506a.152.152,0,0,0,.208,0,.149.149,0,0,0,0-.208l-1.506-1.506h1.693a.142.142,0,1,0,0-.284Z" transform="translate(-543.917 -313.08)" fill="#f86464"/>
    <path id="Caminho_2649" data-name="Caminho 2649" d="M829.851,491.974a5.231,5.231,0,0,0-.132-1.05,3.409,3.409,0,0,0-1.834-2.483,15.392,15.392,0,0,1-2.907-1.228c-.176-3.135.544-6.344-.24-9.383a23.888,23.888,0,0,1-.9-3.314c-.161-1.416.225-2.925-.339-4.229a4.174,4.174,0,0,0-2.471-2.135,13.172,13.172,0,0,0-3.3-.585c-1.4-.114-5.949-.652-7.534.6h0a1.656,1.656,0,0,0-.292.292h0a1.166,1.166,0,0,0-.094.152l-.015.023a1.18,1.18,0,0,0-.079.19h0a1.474,1.474,0,0,0-.05.219v.526c.02.263.058.526.058.787a1.691,1.691,0,0,1-.035.386,2.7,2.7,0,0,1-.486.948h0l-.053.076c-.032.047-.064.091-.094.137s-.053.082-.076.123-.047.067-.067.105a1.414,1.414,0,0,0-.076.149c0,.029-.032.056-.044.085a1.448,1.448,0,0,0-.088.246,1.633,1.633,0,0,0-.018.778,2.9,2.9,0,0,0,.4.921c.073.12.152.237.234.354l.2.278a6.3,6.3,0,0,0-.061.819,6.051,6.051,0,0,0,2.31,4.755,17.917,17.917,0,0,1-.037,3.712c-.026.257-.059.518-.094.775s-.061.427-.1.641a2.969,2.969,0,0,1-1.278-.1,6.025,6.025,0,0,0-.585-.225c-.851-.214-1.72.635-2.562.377a.343.343,0,0,1-.038.117,1.146,1.146,0,0,0-.585-.173,2.133,2.133,0,0,1-1.269-.728l-1.114-1.05a1.232,1.232,0,0,1-.193-.216,1.523,1.523,0,0,1-.135-.36,4.146,4.146,0,0,0-1.079-1.547.731.731,0,0,0-.319-.231.489.489,0,0,0-.146,0,1.284,1.284,0,0,0-.1-.117,2.761,2.761,0,0,0-.243-.246c-.532-.491-.585-.913-1.047-1.462a14.071,14.071,0,0,1-1.094-1.653c-.038-.307-.091-.623-.155-.942a12.117,12.117,0,0,0-.641-2.135l-.585-1.3-.067.067c-.424-.632-.878-.977-1.284-.895-.681.14-1.018,1.462-.91,3.191l.234,1.755a.539.539,0,0,0,.032.132,3.24,3.24,0,0,0-.064.632c0,.246.228.427.348.646a1.828,1.828,0,0,1,.292,1c-.015.126-.053.246-.058.368a1.418,1.418,0,0,0,.275.76l1.462,2.457.292.515.018.023a1.248,1.248,0,0,0,.392.45,5.357,5.357,0,0,0,.483,1.775c.05.111.105.216.164.322a10.347,10.347,0,0,0,1.38,1.793l.7.781c.687.766,1.375,1.536,2.121,2.243a2.84,2.84,0,0,0,.948.664,1.073,1.073,0,0,0,1.065-.155v1.088a.611.611,0,0,1,.462.962,24.119,24.119,0,0,1-2.164,4.58,9.754,9.754,0,0,1,1.813,1.383,8.154,8.154,0,0,1,.945,1.278c.026.216.047.43.059.643.216,3.486-1.132,6.947-2.34,10.269a8,8,0,0,0-.7,2.907,5.7,5.7,0,0,0-.655.471,4.338,4.338,0,0,1,.12,1.854,3.286,3.286,0,0,1-.243,1.17,8.23,8.23,0,0,1-.421.752A11.162,11.162,0,0,0,802,524c-.091.921.266,2.047-.152,2.872a11.751,11.751,0,0,0-1.462,4.5,4.512,4.512,0,0,1-.134,1.05c-.091.292-.252.541-.333.828a3.541,3.541,0,0,0-.058,1.17,11.2,11.2,0,0,1-.614,4.127,5.612,5.612,0,0,0-.483,3.235,4.56,4.56,0,0,0-1.237,2.717,4.29,4.29,0,0,1-.094.775,3.772,3.772,0,0,1-.351.746,6.528,6.528,0,0,0-.8,3.51,9.763,9.763,0,0,0-1.577,4.118c-.26,1.459-.374,2.945-.708,4.387a40.9,40.9,0,0,0-1.407,5.788,4.077,4.077,0,0,0-1.538,2.887,12.848,12.848,0,0,1-.676,3.3c-.24.532-.585,1.009-.813,1.553a7.13,7.13,0,0,0-.351,1.337,5.215,5.215,0,0,0-.091,2.194,3.308,3.308,0,0,1-.857.652c.047-.181.085-.363.117-.547-.755.684-2.123.445-2.726,1.266a1.234,1.234,0,0,0,.292,1.693,2.338,2.338,0,0,0,.605.26,9.673,9.673,0,0,0,4.469.69,1.333,1.333,0,0,0,.506-.161A1.629,1.629,0,0,0,792,578.4c.225-.357.45-.714.673-1.07a13.892,13.892,0,0,0,1.641.383c.056.468.1.936.117,1.4.292.059.684.076.822-.2a.711.711,0,0,0,.05-.325c0-.208.029-.483.047-.763h.058a5.558,5.558,0,0,0,2.589-.523c-.313-2.591.72-5.124,1.615-7.575.945-2.58,1.755-5.206,2.571-7.833.585-1.849,1.231-3.638,1.8-5.49q1.082-3.51,2.173-7.02c.316-1.03.635-2.047,1-3.071a47.842,47.842,0,0,1,2.711-6.034c.292-.553.585-1.1.825-1.673.292-.7.5-1.43.734-2.153a33.346,33.346,0,0,1,1.837-4.323c.021-.038.035-.073.056-.108.237.968.474,1.951.632,2.925a11.116,11.116,0,0,1,.05,3.615,11.918,11.918,0,0,0-.374,2.451,15.137,15.137,0,0,0,.956,3.285,12.5,12.5,0,0,1,.328,2.515c.082,1.316.8,2.793.293,4.013-1.565,3.864-.807,8.228-1.7,12.284-.459,2.083-1.866,4.039-1.755,6.169q.117,2.267.4,4.522a4.3,4.3,0,0,0,.366,1.372,5.03,5.03,0,0,0,.4.655c-.129.05-.237.181-.331.459a1.8,1.8,0,0,0,.649,2.047,2.841,2.841,0,0,0,.845.293,4.45,4.45,0,0,0,1.223.17,2.848,2.848,0,0,0,.383-.047,13.929,13.929,0,0,0,1.384.5,3,3,0,0,0,.038.36.448.448,0,0,0,.152.331.457.457,0,0,0,.234.041h1.588v-.4a1.307,1.307,0,0,0,1.009-.328,1.562,1.562,0,0,0,.293-.608q.649-2.2,1.29-4.408a14.093,14.093,0,0,0,.629-5.031c-.565-5.39.676-10.8.272-16.2a38.816,38.816,0,0,1,.5-9.722c.132-.725.293-1.462.351-2.185.129-1.363-.029-2.741.067-4.095.032-.474.1-.945.155-1.416a67.989,67.989,0,0,0,.629-8.818,27.818,27.818,0,0,0-.181-2.925,1.67,1.67,0,0,0,.8-.468,1.989,1.989,0,0,0,.19-1.249,9.054,9.054,0,0,1,.787-2.989,35.515,35.515,0,0,0,1.106-4.112,14.36,14.36,0,0,0,.491-3.437q0-.175-.018-.351a.905.905,0,0,0,.269-.292,1.7,1.7,0,0,0,.14-.541c.105-.746.214-1.495.319-2.243q.117-.8.231-1.606l.93-6.49c.079-.564.161-1.126.24-1.688l.243-1.679c.026-.2.056-.4.076-.585C830.609,494.922,829.927,493.331,829.851,491.974Zm-7.76,24.3a5.345,5.345,0,0,1-.585-2.542h-.032a1.3,1.3,0,0,0-.038-.825c-.091-.214-.249-.395-.345-.608a2.227,2.227,0,0,1-.158-.819,22.323,22.323,0,0,1,.418-5.306c.038-.2.079-.412.117-.617a1.529,1.529,0,0,0,.333-.26,2.373,2.373,0,0,0,.377-.585c.331-.664.632-1.34.91-2.027.091-.222.222-.48.448-.535-.047,1.711.129,3.457-.567,5a3.163,3.163,0,0,0-.292.79c-.064.436.117.877.053,1.31-.032.225-.129.433-.167.655a.64.64,0,0,0,.17.62.507.507,0,0,0,.126.064c-.018.117-.032.237-.044.351-.023.24-.035.465-.05.605a18.873,18.873,0,0,0-.079,2.153c0,.775.029,1.55.018,2.34a1.588,1.588,0,0,1-.111.664,1.152,1.152,0,0,1-.222.292A7.578,7.578,0,0,0,822.092,516.274Z" transform="translate(-560.66 -344.546)" fill="url(#linear-gradient)"/>
    <ellipse id="Elipse_338" data-name="Elipse 338" cx="1.65" cy="4.671" rx="1.65" ry="4.671" transform="matrix(0.98, -0.201, 0.201, 0.98, 234.854, 128.97)" fill="#fbbebe"/>
    <path id="Caminho_2650" data-name="Caminho 2650" d="M878.18,836.893a1.771,1.771,0,0,0,.649,2.027,2.891,2.891,0,0,0,.839.293,4.433,4.433,0,0,0,1.22.167c.506-.023.991-.222,1.5-.293a.234.234,0,0,1,.173.023.249.249,0,0,1,.064.2,7.735,7.735,0,0,0,.064.86.442.442,0,0,0,.152.33.455.455,0,0,0,.234.041h1.585a15.46,15.46,0,0,0-.453-4.136.926.926,0,0,0-.117-.292.969.969,0,0,0-.506-.293,2.829,2.829,0,0,0-1.226-.214,3.591,3.591,0,0,0-1.375.673,2.094,2.094,0,0,1-1.559.377C878.893,836.521,878.452,836.08,878.18,836.893Z" transform="translate(-626.207 -605.091)" fill="#3f3d56"/>
    <path id="Caminho_2651" data-name="Caminho 2651" d="M794.07,834.156a4.387,4.387,0,0,1-1.6,1.088l-.269.129a.186.186,0,0,0-.091.073.158.158,0,0,0,.029.132,1.892,1.892,0,0,0,2.147.781,1.139,1.139,0,0,0,.471-.246,1.544,1.544,0,0,0,.363-.942,1.927,1.927,0,0,0-.044-1.079C794.67,833.176,794.521,833.591,794.07,834.156Z" transform="translate(-565.373 -603.638)" fill="#fbbebe"/>
    <path id="Caminho_2652" data-name="Caminho 2652" d="M795.816,838.167a.711.711,0,0,1-.05.325c-.138.269-.521.254-.819.2a19.689,19.689,0,0,0-.36-2.954c-.567-.026-.977.512-1.281.995l-.784,1.243a1.622,1.622,0,0,1-.468.544,1.388,1.388,0,0,1-.506.161,9.591,9.591,0,0,1-4.455-.69,2.356,2.356,0,0,1-.605-.257,1.237,1.237,0,0,1-.292-1.691c.605-.819,1.966-.585,2.72-1.264a6.817,6.817,0,0,1-.386,1.4c1.009-.152,1.688-1.076,2.5-1.693a1.538,1.538,0,0,1,.714-.339,1.572,1.572,0,0,1,.585.061,6.864,6.864,0,0,1,2.574,1.266,2.775,2.775,0,0,1,.921.959A7.1,7.1,0,0,1,795.816,838.167Z" transform="translate(-561.041 -604.046)" fill="#3f3d56"/>
    <circle id="Elipse_339" data-name="Elipse 339" cx="6.043" cy="6.043" r="6.043" transform="translate(248.852 125.533)" fill="#fbbebe"/>
    <path id="Caminho_2653" data-name="Caminho 2653" d="M913.933,614.7a14.331,14.331,0,0,1-.488,3.419,35.277,35.277,0,0,1-1.106,4.095,9.012,9.012,0,0,0-.781,2.983,1.984,1.984,0,0,1-.193,1.246,1.82,1.82,0,0,1-.854.488,1.068,1.068,0,0,0-.719.641,4.518,4.518,0,0,1-.608-1.34q-.787-2.41-1.462-4.846a.629.629,0,0,1,.041-.585.726.726,0,0,1,.254-.143,2.632,2.632,0,0,0,.81-.521,1.184,1.184,0,0,0,.269-.348,1.577,1.577,0,0,0,.114-.661c0-.775,0-1.547-.021-2.322a19.4,19.4,0,0,1,.082-2.144c0-.14.026-.366.05-.605.044-.459.132-.991.38-1.17.371-.249,1.483.085,1.9.143.725.1,1.462.216,2.17.354A5.794,5.794,0,0,1,913.933,614.7Z" transform="translate(-647.134 -447.45)" fill="#3f3d56"/>
    <path id="Caminho_2654" data-name="Caminho 2654" d="M829.663,505.817c-.234.468-.8.693-1.228.989l-1.483,1.018a.989.989,0,0,1-.734.252.965.965,0,0,1-.547-.512.107.107,0,0,0,0-.023l-.307-.515-1.462-2.451a1.394,1.394,0,0,1-.272-.755c0-.126.044-.243.056-.369a1.77,1.77,0,0,0-.292-.994c-.117-.219-.351-.4-.345-.646a2.338,2.338,0,0,1,.164-.945,1.913,1.913,0,0,1,.641-.684c.137-.1.278-.193.424-.292a.837.837,0,0,1,.255-.117c.243-.05.483.152.728.161,1.056.708,1.462,2.047,2.293,3.013.468.55.515.971,1.044,1.462.085.076.167.158.246.243a1.7,1.7,0,0,1,.263.38C829.2,505.281,829.783,505.577,829.663,505.817Z" transform="translate(-587.263 -367.475)" fill="#3f3d56"/>
    <path id="Caminho_2655" data-name="Caminho 2655" d="M874.541,507.243a5.446,5.446,0,0,1,.649,2.945,1.84,1.84,0,0,1-.254.775,2.5,2.5,0,0,1-2.074.8,1.223,1.223,0,0,0-.9.293.819.819,0,0,0,.056,1,2.258,2.258,0,0,0,.9.585,7.923,7.923,0,0,0,3.852.854c.614-.059,1.211-.237,1.822-.328a19.16,19.16,0,0,1,2.006-.111c.8-.029,1.588-.108,2.381-.187l2.1-.208a.468.468,0,0,0,.313-.114c.155-.181-.044-.448-.237-.585-1.114-.825-2.533-1.392-3.168-2.632a15.5,15.5,0,0,1-.6-1.913,16.059,16.059,0,0,1-.7-1.846,12.236,12.236,0,0,1-.1-1.7,2.284,2.284,0,0,0-.585-1.556,2.439,2.439,0,0,0-1.591-.512,5.151,5.151,0,0,0-3.878,1.258c-.266.266-.494.585-.769.825s-.649.31-.468.626.538.512.731.79A6.729,6.729,0,0,1,874.541,507.243Z" transform="translate(-621.769 -369.621)" fill="#fbbebe"/>
    <path id="Caminho_2656" data-name="Caminho 2656" d="M871.136,528.9a33.231,33.231,0,0,1-1.79,6.59,24.819,24.819,0,0,0-1.053,2.954c-.225.907-.181,1.878-.389,2.787-.257,1.132-.515,2.267-.722,3.407a22.339,22.339,0,0,0-.415,5.294,2.212,2.212,0,0,0,.158.816c.1.211.252.392.342.608a1.462,1.462,0,0,1-.082,1.17,3.387,3.387,0,0,1-.6.913c-2.726.813-5.642.547-8.482.719-2.618.158-5.265.7-7.844.249a6.218,6.218,0,0,1,.614-3.536c1.214-3.314,2.556-6.765,2.34-10.237a10.619,10.619,0,0,0-.138-1.208,16.013,16.013,0,0,1,.778-7.391,12.685,12.685,0,0,0,.333-4.615,8.427,8.427,0,0,1-.02-1.512,2.659,2.659,0,0,1,.55-1.413c0-.021.026-.041.041-.061a.4.4,0,0,1,.219,0h0a.187.187,0,0,0,.146,0l.032-.02a.073.073,0,0,1,.085,0c.067.041.105.181.252.208a5.822,5.822,0,0,0,.652.061,3.5,3.5,0,0,1,.778.111h.035a2.285,2.285,0,0,0,1.135-.1,3.016,3.016,0,0,0,.7-.269c.064-.07.468-.135.55-.184.266-.161.208-.915.263-1.225a3.373,3.373,0,0,1,.219-.907,1.544,1.544,0,0,1,1.252-.728,6.669,6.669,0,0,1,1.5.134c1.091.155,2.208.129,3.279.38a2.443,2.443,0,0,0,1.62.07c.135.032.155.149.155.292a1.874,1.874,0,0,1-.082.4c-.187.807.448,1.55,1.032,2.135a3.312,3.312,0,0,0,.863.687c.292.135.585.19.877.336a1.6,1.6,0,0,1,.585.535,2.233,2.233,0,0,1,.333.851,5.091,5.091,0,0,1-.1,1.693Z" transform="translate(-606.451 -382.772)" fill="#3f3d56"/>
    <path id="Caminho_2657" data-name="Caminho 2657" d="M877.794,536.2a33.229,33.229,0,0,1-1.79,6.59,24.831,24.831,0,0,0-1.053,2.954c-.225.907-.181,1.878-.389,2.787-.257,1.132-.515,2.267-.722,3.407-.061.035-.126.067-.19.1a4.489,4.489,0,0,1-1.146.369,7.02,7.02,0,0,1-2.141-.07l-4.174-.559c-1.667-.225-3.443-.5-4.68-1.626a9.982,9.982,0,0,1-1.632-2.229,10.606,10.606,0,0,0-.138-1.208,16.013,16.013,0,0,1,.778-7.391,12.686,12.686,0,0,0,.333-4.615,8.432,8.432,0,0,1-.02-1.512,2.658,2.658,0,0,1,.55-1.413,2.088,2.088,0,0,1,.26-.058h0a1.3,1.3,0,0,1,.178-.023h.085a1.279,1.279,0,0,1,.293.035,5.292,5.292,0,0,1,.585.225h.035a2.24,2.24,0,0,0,.778.111c.386,0,.784-.061,1.17-.088a2.159,2.159,0,0,1,1.386.249,8.325,8.325,0,0,1,.772.7,3.316,3.316,0,0,0,.974.529,10.351,10.351,0,0,0,7.786-.164,1.525,1.525,0,0,1,.781-.2,1.462,1.462,0,0,1,.562.24c.175.1.348.2.526.292a2.234,2.234,0,0,1,.333.851A5.092,5.092,0,0,1,877.794,536.2Z" transform="translate(-613.11 -390.071)" opacity="0.1"/>
    <path id="Caminho_2658" data-name="Caminho 2658" d="M874.231,532.907a15.611,15.611,0,0,1-3.334-1.462,1.493,1.493,0,0,0-.562-.24,1.571,1.571,0,0,0-.784.2,10.345,10.345,0,0,1-7.783.164,3.383,3.383,0,0,1-.974-.529,8.738,8.738,0,0,0-.772-.7c-.962-.623-2.293.108-3.369-.293a5.946,5.946,0,0,0-.585-.225c-.851-.214-1.717.635-2.553.377a14.228,14.228,0,0,0-.687,2.609,28.437,28.437,0,0,0-.19,3.077c0,.617-.029,1.234,0,1.851a.607.607,0,0,1,.462.959,23.98,23.98,0,0,1-2.159,4.566,9.92,9.92,0,0,1,1.808,1.38c1.024,1.082,1.527,2.6,2.632,3.6,1.246,1.126,3.021,1.4,4.68,1.623l4.174.559a7.134,7.134,0,0,0,2.144.073,4.511,4.511,0,0,0,1.144-.371,2.049,2.049,0,0,0,.638-.421,2.34,2.34,0,0,0,.377-.585c.33-.661.632-1.337.91-2.021.1-.243.243-.526.506-.547,1.55-1.4,3.013-2.831,4.563-4.229a10.113,10.113,0,0,0,1.664-1.755c.769-1.138.07-2.749,0-4.124a5.2,5.2,0,0,0-.132-1.044A3.352,3.352,0,0,0,874.231,532.907Z" transform="translate(-606.999 -388.714)" fill="#f86464"/>
    <path id="Caminho_2659" data-name="Caminho 2659" d="M836.007,517.508c-.234.468-.8.693-1.228.989l-1.483,1.018a.989.989,0,0,1-.734.252.965.965,0,0,1-.547-.512v-.211a1.963,1.963,0,0,1,.094-.7,2.179,2.179,0,0,1,.655-.842,5.364,5.364,0,0,1,1.922-1.17.657.657,0,0,1,.351-.035.462.462,0,0,1,.129.056,1.7,1.7,0,0,1,.263.38C835.545,516.972,836.127,517.268,836.007,517.508Z" transform="translate(-593.607 -379.166)" opacity="0.1"/>
    <path id="Caminho_2660" data-name="Caminho 2660" d="M840.376,521.048a2.131,2.131,0,0,1-1.266-.725L838,519.293a1.036,1.036,0,0,1-.193-.216,1.521,1.521,0,0,1-.135-.36,4.127,4.127,0,0,0-1.076-1.544.7.7,0,0,0-.319-.228.64.64,0,0,0-.354.035,5.349,5.349,0,0,0-1.922,1.17,2.185,2.185,0,0,0-.655.842,1.946,1.946,0,0,0-.094.7,5.371,5.371,0,0,0,.509,2.235c.05.108.105.216.164.322a10.128,10.128,0,0,0,1.375,1.787l.7.778c.684.766,1.369,1.533,2.112,2.237a2.789,2.789,0,0,0,.948.661,1.059,1.059,0,0,0,1.088-.176,1.573,1.573,0,0,0,.31-.556,10.94,10.94,0,0,0,.9-3.647,13.79,13.79,0,0,0-.064-1.512C841.251,521.288,840.873,521.08,840.376,521.048Z" transform="translate(-594.484 -379.624)" fill="#f86464"/>
    <path id="Caminho_2661" data-name="Caminho 2661" d="M833.28,638.4a67.6,67.6,0,0,1-.626,8.795c-.058.471-.123.942-.155,1.413-.1,1.366.061,2.738-.067,4.095-.067.734-.219,1.462-.348,2.179a38.746,38.746,0,0,0-.5,9.7c.4,5.391-.833,10.784-.272,16.16a13.064,13.064,0,0,1-.173,3.127,13.271,13.271,0,0,1-.453,1.889q-.641,2.2-1.287,4.387a1.522,1.522,0,0,1-.292.608,1.386,1.386,0,0,1-1.1.325,12.654,12.654,0,0,1-4.808-1.492,1.675,1.675,0,0,1-.483-.292c-.319-.331-.292-.851-.433-1.287a12.238,12.238,0,0,0-.737-1.293,4.222,4.222,0,0,1-.319-1.331q-.293-2.246-.4-4.51c-.111-2.123,1.293-4.077,1.755-6.142.877-4.06.135-8.412,1.693-12.264.491-1.217-.222-2.691-.292-4a12.69,12.69,0,0,0-.328-2.509,15.561,15.561,0,0,1-.953-3.276,12.036,12.036,0,0,1,.371-2.442,10.976,10.976,0,0,0-.05-3.606c-.155-.983-.392-1.966-.629-2.925l-.053.108a33.056,33.056,0,0,0-1.834,4.314c-.234.717-.439,1.448-.731,2.144-.24.585-.535,1.12-.825,1.67a47.976,47.976,0,0,0-2.706,6.011c-.363,1.012-.681,2.047-1,3.062l-2.167,7.02c-.585,1.846-1.226,3.63-1.8,5.472-.81,2.632-1.62,5.241-2.562,7.815-.877,2.442-1.922,4.972-1.609,7.552a5.556,5.556,0,0,1-2.583.524,15.123,15.123,0,0,1-4.387-1.065,3.41,3.41,0,0,1-1.515-.9,3.584,3.584,0,0,1-.292-2.963,7.159,7.159,0,0,1,.351-1.334c.222-.538.585-1.015.813-1.547a12.981,12.981,0,0,0,.67-3.285,4.053,4.053,0,0,1,1.533-2.881,41.6,41.6,0,0,1,1.4-5.774c.333-1.442.445-2.925.708-4.387a9.635,9.635,0,0,1,1.571-4.109,6.514,6.514,0,0,1,.8-3.51,3.836,3.836,0,0,0,.348-.746,4.28,4.28,0,0,0,.094-.772,4.566,4.566,0,0,1,1.234-2.711,5.5,5.5,0,0,1,.48-3.217,11.179,11.179,0,0,0,.614-4.115,3.6,3.6,0,0,1,.056-1.17c.082-.292.243-.541.336-.822a4.672,4.672,0,0,0,.132-1.05,12.145,12.145,0,0,1,1.462-4.487c.421-.825.064-1.945.152-2.863a11.068,11.068,0,0,1,1.076-4.437c.14-.252.293-.491.418-.752a3.254,3.254,0,0,0,.243-1.17,4.308,4.308,0,0,0-.12-1.849,9.478,9.478,0,0,1,5.736-1.755,35.762,35.762,0,0,0,6.087-.336c.585-.132,1.17-.313,1.787-.4a11.561,11.561,0,0,1,4.206.43,5.011,5.011,0,0,0,.585,2.536A27.222,27.222,0,0,1,833.28,638.4Z" transform="translate(-569.663 -456.025)" fill="#33313f"/>
    <path id="Caminho_2662" data-name="Caminho 2662" d="M884.882,673.29l-3.361,7.558c-.155-.983-.392-1.965-.629-2.925l-.053.108v-.158l1.831-4.028Z" transform="translate(-628.154 -490.248)" opacity="0.1"/>
    <path id="Caminho_2663" data-name="Caminho 2663" d="M917.883,614.7a1.263,1.263,0,0,1-.667.249,3.242,3.242,0,0,1-1.094-.149l-2.632-.658a1.291,1.291,0,0,1-.24-.085c.044-.459.132-.992.38-1.17.372-.249,1.483.085,1.9.143.725.1,1.462.216,2.17.354a5.8,5.8,0,0,1,.178,1.316Z" transform="translate(-651.084 -447.45)" opacity="0.1"/>
    <path id="Caminho_2664" data-name="Caminho 2664" d="M919.449,557.551c.056.243.135.483.181.728a5.56,5.56,0,0,1-.061,1.81l-.24,1.673-.24,1.682-.927,6.473-.228,1.6-.322,2.237a1.609,1.609,0,0,1-.14.538,1.121,1.121,0,0,1-.916.541,3.32,3.32,0,0,1-1.094-.149l-2.632-.661a.825.825,0,0,1-.322-.132.635.635,0,0,1-.17-.617c.038-.222.135-.43.167-.652.064-.433-.117-.877-.053-1.307a3.254,3.254,0,0,1,.293-.787c.877-1.939.369-4.2.667-6.309a9.564,9.564,0,0,1,2.03-4.516,12.962,12.962,0,0,1,2.24-2.2,4.506,4.506,0,0,1,1.261-.877C919.472,556.519,919.361,557.183,919.449,557.551Z" transform="translate(-650.424 -407.701)" fill="#f86464"/>
    <path id="Caminho_2665" data-name="Caminho 2665" d="M861.989,470.078c-.193.614.108,1.29-.029,1.916-.149.69-.8,1.17-.983,1.863-.292,1.056.6,2.018,1.258,2.9,2.428,3.258,2.109,7.768,1.278,11.743a60.645,60.645,0,0,1-2.764,9.36,7.173,7.173,0,0,1-1.489,2.612,7.7,7.7,0,0,1,4.124-.4c1.708.474,3.182,2.132,4.914,1.755,1.041-.231,1.773-1.155,2.708-1.667,1.755-.945,3.87-.351,5.826-.047a2.287,2.287,0,0,0,1.272-.064,2.114,2.114,0,0,0,.772-.711,7.213,7.213,0,0,0,1.5-3.89,4.99,4.99,0,0,0-1.436-3.84,8.216,8.216,0,0,1-1.231-1.17,3.633,3.633,0,0,1-.483-1.772c-.231-3.217.553-6.5-.254-9.614a23.723,23.723,0,0,1-.9-3.305c-.161-1.413.222-2.925-.339-4.218a4.136,4.136,0,0,0-2.466-2.129,13.51,13.51,0,0,0-3.288-.585C868.383,468.674,862.659,467.987,861.989,470.078Z" transform="translate(-612.885 -345.423)" fill="#33313f"/>
    <g id="Grupo_1335" data-name="Grupo 1335" transform="translate(246.375 123.986)" opacity="0.1">
      <path id="Caminho_2666" data-name="Caminho 2666" d="M867.149,499.014a60.514,60.514,0,0,1-2.749,9.322c.2-.4.372-.822.532-1.24a60.322,60.322,0,0,0,2.764-9.36c.834-3.978,1.152-8.482-1.275-11.743a4.588,4.588,0,0,1-1.31-2.533,3.118,3.118,0,0,0-.5.918c-.292,1.056.6,2.018,1.258,2.9C868.3,490.529,867.98,495.04,867.149,499.014Z" transform="translate(-862.897 -479.927)"/>
      <path id="Caminho_2667" data-name="Caminho 2667" d="M868.424,473.67a2.847,2.847,0,0,0,.515-.986,5.011,5.011,0,0,0-.035-1.3,1.406,1.406,0,0,0-.485.67A5.785,5.785,0,0,0,868.424,473.67Z" transform="translate(-865.689 -471.38)"/>
      <path id="Caminho_2668" data-name="Caminho 2668" d="M879.427,566.807a2.107,2.107,0,0,1-.772.708,2.235,2.235,0,0,1-1.272.064c-1.957-.292-4.095-.9-5.826.05-.939.509-1.667,1.433-2.711,1.667-1.729.386-3.2-1.272-4.911-1.755a6.856,6.856,0,0,0-3.706.292,5.108,5.108,0,0,1-.968,1.4,7.7,7.7,0,0,1,4.124-.4c1.708.474,3.182,2.132,4.914,1.755,1.041-.231,1.773-1.155,2.708-1.667,1.755-.945,3.87-.351,5.826-.047a2.287,2.287,0,0,0,1.272-.064,2.114,2.114,0,0,0,.772-.711,7.861,7.861,0,0,0,1.211-2.316,8.5,8.5,0,0,1-.661,1.027Z" transform="translate(-859.26 -538.169)"/>
    </g>
  </g>
</svg>
