<svg xmlns="http://www.w3.org/2000/svg" width="276.622" height="166.584" viewBox="0 0 276.622 166.584">
  <g id="Illustration" transform="translate(0 -0.018)">
    <path id="Caminho_2568" data-name="Caminho 2568" d="M693.457,239.967l2.372-.41c.228-.04.453-.088.681-.13a19.471,19.471,0,0,1,12.433-35.894l-3.109,7.4L713.2,204.5a.338.338,0,0,1,.05.017,19.472,19.472,0,0,1,11.9,24.836c-.123.351-.27.686-.411,1.025a23.28,23.28,0,0,0,5.7-3.818c3.293-3.156,5.1-7.511,7.114-12.876,3.995-10.632,7.841-21.418,11.534-32.228a19.464,19.464,0,0,1-9.1-23.571c.2-.562.427-1.1.67-1.635.061-.133.122-.265.185-.4.247-.51.508-1.009.794-1.488.047-.079.1-.152.147-.23q.374-.606.788-1.176c.1-.143.205-.285.312-.424.313-.409.637-.808.979-1.188.114-.127.235-.246.353-.37q.394-.416.809-.806c.146-.137.291-.275.44-.407.038-.034.074-.071.113-.1l.005.008a19.459,19.459,0,0,1,24.9-.559l-4.046,9.627,7.282-6.355a19.364,19.364,0,0,1,.72,22.933l.02.007c-.079.117-.17.224-.252.339q-.23.323-.472.635c-.207.266-.422.524-.641.778-.166.192-.329.385-.5.569-.252.27-.516.525-.782.779-.155.148-.3.3-.463.447q-.628.561-1.3,1.064c-.157.118-.323.221-.483.334-.314.221-.63.439-.956.64-.2.125-.41.239-.617.357-.3.17-.6.335-.908.49-.218.109-.438.213-.66.314-.316.144-.636.277-.959.4-.217.085-.433.171-.652.249-.363.128-.731.239-1.1.345-.187.054-.371.115-.559.163-.555.142-1.117.262-1.685.355-.107.017-.216.024-.323.04-.471.069-.944.124-1.421.158-.205.014-.411.017-.617.025-.386.015-.772.023-1.16.014-.226,0-.453-.017-.68-.029q-.567-.032-1.135-.1c-.224-.026-.447-.052-.671-.086-.406-.062-.811-.142-1.216-.23l-.08-.015q-2.338,6.841-4.762,13.652a19.459,19.459,0,0,1,28.216,2.326l-6.732,7.445L780,203.141a19.405,19.405,0,0,1,.779,14.824,19.1,19.1,0,0,1-2.473,4.785,19.465,19.465,0,0,1-35.171-8.54c-.171.458-.337.921-.508,1.378-1.779,4.733-3.993,10.624-8.439,14.883a34.142,34.142,0,0,1-10.279,6.266q-3.475,1.512-7.042,2.8a19.514,19.514,0,0,1-8.714,2.777c-3.752,1.042-7.552,1.912-11.387,2.584l-2.391.412c-2.149.368-4.353.747-6.54,1.184.315.093.63.183.943.293a19.479,19.479,0,0,1,13,18.951l-14.992,4.6,13.566,2.154a19.481,19.481,0,0,1-32.461,5.761q.207.692.415,1.382c.275.914.549,1.823.811,2.723,3.57,12.266,2.033,21.915-4.327,27.168l-3.451-4.178c6.19-5.113,4.27-15.65,2.575-21.476-.258-.884-.527-1.777-.8-2.674-2.325-7.724-4.961-16.479-1.547-24.524C666.716,244.546,681.544,242.007,693.457,239.967Z" transform="translate(-505.266 -144.859)" fill="#f2f2f2"/>
    <path id="Caminho_2569" data-name="Caminho 2569" d="M452.259,431.83H347.218a12.988,12.988,0,0,1-12.988-12.988V370.717a5.145,5.145,0,0,1,1.606-3.734L391.5,314.221a11.98,11.98,0,0,1,16.483,0l53.07,50.306a13.449,13.449,0,0,1,4.2,9.761v44.554a12.988,12.988,0,0,1-12.988,12.988Z" transform="translate(-268.461 -265.592)" fill="#3f3d56"/>
    <path id="Caminho_2570" data-name="Caminho 2570" d="M240.954,387.992H370.879v52.48a7.843,7.843,0,0,1-7.843,7.843H248.8a7.843,7.843,0,0,1-7.843-7.843v-52.48Z" transform="translate(-175.185 -282.076)" opacity="0.1"/>
    <path id="Caminho_2571" data-name="Caminho 2571" d="M333.73,521.351" transform="translate(-268.098 -418.574)" fill="none" stroke="#3f3d56" stroke-miterlimit="10" stroke-width="1"/>
    <rect id="Retângulo_860" data-name="Retângulo 860" width="96.625" height="96.625" rx="26.181" transform="translate(82.828 64.564)" fill="#f86464"/>
    <path id="Caminho_2572" data-name="Caminho 2572" d="M400.079,395.942v53.1H303.454v-53.1l48.312,23.351Z" transform="translate(-220.626 -287.856)" opacity="0.1"/>
    <path id="Caminho_2573" data-name="Caminho 2573" d="M399.238,556.987l-61.9-29.92a2.512,2.512,0,0,0-3.6,2.261v51.479a7.843,7.843,0,0,0,7.842,7.843H456.9a7.843,7.843,0,0,0,7.843-7.843v-50.6a3.065,3.065,0,0,0-4.4-2.759Z" transform="translate(-268.097 -422.548)" fill="#3f3d56"/>
    <rect id="Retângulo_861" data-name="Retângulo 861" width="27.022" height="3.821" transform="translate(91.153 73.435)" fill="#f2f2f2"/>
    <rect id="Retângulo_862" data-name="Retângulo 862" width="80.248" height="2.184" transform="translate(88.97 87.355)" fill="#f2f2f2"/>
    <rect id="Retângulo_863" data-name="Retângulo 863" width="80.248" height="2.184" transform="translate(88.97 94.725)" fill="#f2f2f2"/>
    <rect id="Retângulo_864" data-name="Retângulo 864" width="80.248" height="2.184" transform="translate(88.97 102.094)" fill="#f2f2f2"/>
    <line id="Linha_12" data-name="Linha 12" x2="224.912" transform="translate(16.638 166.102)" fill="none" stroke="#3f3d56" stroke-miterlimit="10" stroke-width="1"/>
    <path id="Caminho_2574" data-name="Caminho 2574" d="M93.275,630.212c0,16.093,10.1,29.116,22.573,29.116" transform="translate(-93.275 -497.722)" fill="#46455b"/>
    <path id="Caminho_2575" data-name="Caminho 2575" d="M175.975,658.457c0-16.274,11.267-29.443,25.19-29.443" transform="translate(-153.402 -496.851)" fill="#f86464"/>
    <path id="Caminho_2576" data-name="Caminho 2576" d="M123.239,635.557c0,15.287,6.438,27.657,14.394,27.657" transform="translate(-115.06 -501.608)" fill="#f86464"/>
    <path id="Caminho_2577" data-name="Caminho 2577" d="M175.975,636.672c0-20.795,13.022-37.621,29.116-37.621" transform="translate(-153.402 -475.066)" fill="#46455b"/>
    <path id="Caminho_2578" data-name="Caminho 2578" d="M158.577,733.027s3.2-.1,4.166-.786,4.924-1.507,5.164-.406,4.811,5.48,1.2,5.509-8.4-.563-9.361-1.149S158.577,733.027,158.577,733.027Z" transform="translate(-140.753 -571.216)" fill="#a8a8a8"/>
    <path id="Caminho_2579" data-name="Caminho 2579" d="M169.168,741.558c-3.614.029-8.4-.563-9.361-1.15-.733-.447-1.026-2.049-1.123-2.789l-.107,0s.2,2.582,1.166,3.168,5.746,1.179,9.361,1.15c1.043-.008,1.4-.38,1.384-.929C170.342,741.345,169.945,741.552,169.168,741.558Z" transform="translate(-140.753 -575.812)" opacity="0.2"/>
    <path id="Caminho_2580" data-name="Caminho 2580" d="M808,295.451c-.164,1.462-1.279,2.639-1.692,4.05-.622,2.125.453,4.4,1.924,6.059A13.418,13.418,0,0,0,817.578,310a3.985,3.985,0,0,0,1.545-.168,3.307,3.307,0,0,0,1.175-.8,7.514,7.514,0,0,0,1.939-4.2,22.389,22.389,0,0,0,.052-4.7,2.656,2.656,0,0,0-.174-.948,2.429,2.429,0,0,0-.61-.75,14.208,14.208,0,0,0-2.618-1.9,3.006,3.006,0,0,1-1.1-.839,2.713,2.713,0,0,1-.339-1l-.289-1.474a2.9,2.9,0,0,0-.425-1.195,2.939,2.939,0,0,0-2.345-.817l-3.14-.123a15.127,15.127,0,0,0-3.217-.127c-.891.179-.595,1-.433,1.747A12.626,12.626,0,0,1,808,295.451Z" transform="translate(-611.556 -251.01)" fill="#a0616a"/>
    <path id="Caminho_2581" data-name="Caminho 2581" d="M808,295.451c-.164,1.462-1.279,2.639-1.692,4.05-.622,2.125.453,4.4,1.924,6.059A13.418,13.418,0,0,0,817.578,310a3.985,3.985,0,0,0,1.545-.168,3.307,3.307,0,0,0,1.175-.8,7.514,7.514,0,0,0,1.939-4.2,22.389,22.389,0,0,0,.052-4.7,2.656,2.656,0,0,0-.174-.948,2.429,2.429,0,0,0-.61-.75,14.208,14.208,0,0,0-2.618-1.9,3.006,3.006,0,0,1-1.1-.839,2.713,2.713,0,0,1-.339-1l-.289-1.474a2.9,2.9,0,0,0-.425-1.195,2.939,2.939,0,0,0-2.345-.817l-3.14-.123a15.127,15.127,0,0,0-3.217-.127c-.891.179-.595,1-.433,1.747A12.626,12.626,0,0,1,808,295.451Z" transform="translate(-611.556 -251.01)" opacity="0.1"/>
    <path id="Caminho_2582" data-name="Caminho 2582" d="M842.66,529.368,841.325,544c-.348,3.838-.7,7.692-1.386,11.48-.236,1.306-.512,2.6-.84,3.892-.912,3.575-2.236,7.069-2.663,10.734-.013.106-.025.213-.036.321a9.333,9.333,0,0,1-.456,2.382c-.213.56-.542,1.07-.773,1.622a10.351,10.351,0,0,0-.578,3.526,15.2,15.2,0,0,0-5.233-1.789,4,4,0,0,1-2.481-.89,3.547,3.547,0,0,1-.483-2.838q.529-4.584,1.056-9.163a23.89,23.89,0,0,1,.667-3.892c.121-.425.267-.843.416-1.261.2-.575.411-1.15.566-1.741a20.964,20.964,0,0,0,.467-2.9c.362-3.074.8-6.141,1.18-9.213l.02-.162a94.214,94.214,0,0,0,.883-14.024c-.018-.694-.047-1.389-.092-2.085-.063-1.009-.155-1.544.681-2.175a15.716,15.716,0,0,1,3.2-1.64c.568-.247,6.829-2.469,6.975-1.982a12.2,12.2,0,0,1,.458,3.2A35.549,35.549,0,0,1,842.66,529.368Z" transform="translate(-626.236 -419.143)" fill="#605d82"/>
    <path id="Caminho_2583" data-name="Caminho 2583" d="M845.832,614.017c-.236,1.306-.512,2.6-.84,3.892-.912,3.575-2.236,7.069-2.663,10.734-.013.106-.025.214-.036.321-2.791-3.986-5.141-8.273-7.865-12.3.2-.575.411-1.15.566-1.741a20.967,20.967,0,0,0,.467-2.9c.362-3.074.8-6.141,1.18-9.213l.02-.162a9.546,9.546,0,0,0,.681,1.89c1.829,3.717,6.175,5.595,8.3,9.152Q845.741,613.851,845.832,614.017Z" transform="translate(-632.13 -477.679)" opacity="0.1"/>
    <path id="Caminho_2584" data-name="Caminho 2584" d="M793.214,476.4a69.145,69.145,0,0,0,1.046,8.879l.982,6.074c.538,3.324,1.1,6.717,2.671,9.694a44.9,44.9,0,0,0,4.406,6.126c3.771,4.913,6.6,10.478,10.18,15.534,1.039,1.47,2.525,3.059,4.3,2.752,1.164-.2,2.01-1.171,2.925-1.918a18.211,18.211,0,0,0,3.228-2.63c.849-1.1,1.015-2.94-.135-3.726a6.061,6.061,0,0,0-1.316-.539,7.147,7.147,0,0,1-3.671-4.179,39.969,39.969,0,0,0-2.157-5.291c-2.125-3.557-6.472-5.435-8.3-9.153a16.523,16.523,0,0,1-1.2-6.8l-.2-5.913a4.317,4.317,0,0,1,.224-1.91c.7-1.574,2.813-1.72,4.524-1.92a15.474,15.474,0,0,0,5.544-1.749,5.783,5.783,0,0,0,2.475-2.2,7.087,7.087,0,0,0,.6-2.979l.592-10.715a6.709,6.709,0,0,0-.227-2.739c-.816-2.17-3.556-2.879-5.872-2.776-4.31.193-8.289,2.047-12.352,3.3a31.383,31.383,0,0,1-3.062.8,24.62,24.62,0,0,0-2.886.4c-1.547.521-1.508,3.9-1.727,5.308A44.675,44.675,0,0,0,793.214,476.4Z" transform="translate(-602.157 -372.743)" fill="#605d82"/>
    <path id="Caminho_2585" data-name="Caminho 2585" d="M875.213,687.51a2.74,2.74,0,0,1,.6,1.475,50.389,50.389,0,0,1,.853,8.923,1.457,1.457,0,0,0,.161.808,1.016,1.016,0,0,0,.42.337c1.1.524,2.373-.206,3.289-1.008a8.483,8.483,0,0,0,3.229-5.735,13.323,13.323,0,0,1,.061-1.739,7.259,7.259,0,0,1,1.081-2.33,19.667,19.667,0,0,0,1.786-4c.167-.525.278-1.186-.133-1.552a1.5,1.5,0,0,0-.489-.254l-4.962-1.843c-.43-.16-1.5,2.589-1.67,2.889a2.271,2.271,0,0,1-1.662,1.322c-.851.173-1.863-.075-2.657.349C873.78,685.867,874.452,686.743,875.213,687.51Z" transform="translate(-661.158 -534.343)" fill="#535070"/>
    <path id="Caminho_2586" data-name="Caminho 2586" d="M834.4,709.9a1.524,1.524,0,0,0-.378-.479,1.709,1.709,0,0,0-.762-.259c-.945-.16-2.064-.266-2.716.436-.611.658-.506,1.731-1.017,2.469-.162.234-.381.427-.521.674a2.541,2.541,0,0,0-.229,1.209c-.026,1.145-.053,2.292.026,3.435a4.805,4.805,0,0,0,.826,2.711c.961,1.2,2.694,1.377,4.233,1.455l1.246.063a2.433,2.433,0,0,0,1.021-.094,1.681,1.681,0,0,0,.881-.969c.649-1.612-.379-3.349-1.011-4.968C835.274,713.723,835.4,711.658,834.4,709.9Z" transform="translate(-628.003 -555.036)" fill="#535070"/>
    <path id="Caminho_2587" data-name="Caminho 2587" d="M800.255,253.9a1.03,1.03,0,0,1,.07-.48c.182-.323.659-.235,1.019-.144,1.446.364,2.969.035,4.458.12s3.165.829,3.465,2.29a10.871,10.871,0,0,0,2.748-2.824,3.39,3.39,0,0,0,.717-2.068,4.039,4.039,0,0,0-1.809-2.547l-2.477-2.022a3.732,3.732,0,0,0-1.109-.705,5.526,5.526,0,0,0-1.8-.1c-1.8,0-3.725-.819-5.328,0a5.752,5.752,0,0,0-1.66,1.51l-2.21,2.617a1.4,1.4,0,0,0-.353.6,2.66,2.66,0,0,0,.158.955c.1.585-.147,1.208.046,1.77.321.932,1.453,1.064,2.145,1.6.258.2.662.874.969.866C799.857,255.32,800.24,254.329,800.255,253.9Z" transform="translate(-604.169 -217.693)" fill="#3f3d56"/>
    <circle id="Elipse_333" data-name="Elipse 333" cx="7.078" cy="7.078" r="7.078" transform="translate(192.758 29.763)" fill="#a0616a"/>
    <path id="Caminho_2588" data-name="Caminho 2588" d="M786.114,316.182a3.429,3.429,0,0,0-3.338-2.3,1.018,1.018,0,0,1-.616-.078.849.849,0,0,1-.253-.316,12.363,12.363,0,0,1-1.032-2.44c-.113-.375-.267-.816-.646-.914a.873.873,0,0,0-.824.358,7.257,7.257,0,0,1-.589.74c-.89.8-2.468.07-3.413.8-.154.119-.282.272-.444.381a2.073,2.073,0,0,1-.52.223,49.839,49.839,0,0,0-5.357,2.1,50.461,50.461,0,0,0,2.746,11.179c.7,1.686,1.5,3.337,2.057,5.075,1.244,3.85,1.3,7.969,1.313,12.014a25.032,25.032,0,0,1-.9,8.217,7.751,7.751,0,0,0-.506,1.8,1.87,1.87,0,0,0,.633,1.683,2.167,2.167,0,0,0,.978.343,12.664,12.664,0,0,0,4.645-.539c4.1-.949,8.275-1.492,12.444-2.033l6.987-.907a4.055,4.055,0,0,0,1.446-.374c1.279-.7,1.4-2.623.606-3.846a20.894,20.894,0,0,1-1.238-1.688,1.568,1.568,0,0,1,.2-1.921c1.12-.875.786-2.5.839-3.92q.224-5.958-.061-11.921a23.762,23.762,0,0,1-.039-2.472,21.89,21.89,0,0,1,.771-4.126l2.123-8.36a4.356,4.356,0,0,0-2.623-1.685c-1.006-.252-2.054-.327-3.045-.634-2.03-.629-3.837-2.225-5.957-2.076a1.081,1.081,0,0,0-.462.113c-.478.271-.4.96-.433,1.508a4.166,4.166,0,0,1-1.946,2.939,34.643,34.643,0,0,0-3.017,2.041A1.347,1.347,0,0,0,786.114,316.182Z" transform="translate(-584.62 -263.85)" fill="#3f3d56"/>
    <path id="Caminho_2589" data-name="Caminho 2589" d="M718.709,358.609a8.359,8.359,0,0,1-1.489.766,4.894,4.894,0,0,0-1.426.692,2.236,2.236,0,0,0-.5.613,2.725,2.725,0,0,0,2.513,4.06,5.469,5.469,0,0,0,1.858-.554l4.992-2.163a3.926,3.926,0,0,0,2.157-1.625.378.378,0,0,0,.049-.258.427.427,0,0,0-.205-.216,11.152,11.152,0,0,1-2.907-2.741c-.2-.278-.456-.935-.745-1.1C721.953,355.474,719.554,358.061,718.709,358.609Z" transform="translate(-545.26 -298.349)" fill="#a0616a"/>
    <path id="Caminho_2590" data-name="Caminho 2590" d="M892.515,359.084l1.841,2.1c.4.451.791.9,1.151,1.383a16.143,16.143,0,0,1,2.108,3.971,6.934,6.934,0,0,1,.592,3.283,8.03,8.03,0,0,1-.46,1.669,20.779,20.779,0,0,1-1.251,3.012,17.157,17.157,0,0,1-1.407,2.109,49.246,49.246,0,0,1-4.666,5.337,6.081,6.081,0,0,0-1.167,2.472,10.324,10.324,0,0,1-2.87,3.91,7.982,7.982,0,0,1-1.232,1.06,4.014,4.014,0,0,1-2.243.639,2.461,2.461,0,0,1-1.01-.209,2.611,2.611,0,0,1-1.283-2.175,4.625,4.625,0,0,1,.387-2.326c1.056-2.34,3.768-3.353,5.685-5.061a18.465,18.465,0,0,0,2.832-3.5,12.1,12.1,0,0,0,1.432-2.51c.428-1.142.261-2.495.635-3.656.158-.491.439-.934.609-1.421a1.658,1.658,0,0,0-.085-1.486,2.16,2.16,0,0,0-.833-.61c-1.225-.622-2.6-1.422-2.831-2.775a2.973,2.973,0,0,1,.548-2.119,8.828,8.828,0,0,1,1.544-1.619C891.079,360.09,891.979,359.558,892.515,359.084Z" transform="translate(-665.697 -300.598)" fill="#a0616a"/>
    <path id="Caminho_2591" data-name="Caminho 2591" d="M701.79,371.374a3.421,3.421,0,0,0-1.387-1.653,2.556,2.556,0,0,0-2.016-.008,7.578,7.578,0,0,0-1.769,1.07l-1.586,1.169a3.906,3.906,0,0,0-.942.869,3.671,3.671,0,0,0-.491,1.346,9.622,9.622,0,0,0-.249,3.329,9.463,9.463,0,0,0,2.518,4.713,4.19,4.19,0,0,0,2.786,1.746,1.278,1.278,0,0,0,1.231-.62,1.544,1.544,0,0,0,.11-.552,12.3,12.3,0,0,0-1.424-5.762,3.694,3.694,0,0,1-.459-1.548.425.425,0,0,1,.068-.259.438.438,0,0,1,.271-.132c1.139-.225,3.1.66,3.9-.606C702.868,373.656,702.158,372.118,701.79,371.374Z" transform="translate(-529.523 -308.179)" fill="#a0616a"/>
    <path id="Caminho_2592" data-name="Caminho 2592" d="M798.895,245.74a1.03,1.03,0,0,1,.07-.48c.182-.323.659-.235,1.019-.144,1.446.365,2.969.035,4.458.12s3.165.829,3.465,2.29a10.871,10.871,0,0,0,2.748-2.824,3.39,3.39,0,0,0,.717-2.068,4.039,4.039,0,0,0-1.809-2.547l-2.477-2.022a3.732,3.732,0,0,0-1.109-.7,5.527,5.527,0,0,0-1.8-.1c-1.8,0-3.725-.819-5.328,0a5.751,5.751,0,0,0-1.66,1.51l-2.21,2.616a1.4,1.4,0,0,0-.353.6,2.66,2.66,0,0,0,.158.955c.1.585-.147,1.208.046,1.77.321.932,1.453,1.064,2.145,1.6.258.2.662.874.969.866C798.5,247.16,798.88,246.17,798.895,245.74Z" transform="translate(-603.18 -211.761)" fill="#3f3d56"/>
    <path id="Caminho_2593" data-name="Caminho 2593" d="M745.147,334.1a2.876,2.876,0,0,0-.741.69c-.26.392-.312.888-.535,1.3-.477.886-1.593,1.2-2.289,1.929a.721.721,0,0,0-.22.377.841.841,0,0,0,.187.543l3.356,5.277c1.118.1,2.19-.6,3.308-.509a3.324,3.324,0,0,0,1.245.056,3.571,3.571,0,0,0,.8-.489c.667-.422,1.555-.471,2.115-1.027a2.9,2.9,0,0,0,.6-2.127,8.55,8.55,0,0,0-.2-1.956c-.494-2.025-2.043-3.58-3.014-5.374-.473-.873-.73-1.385-1.731-.785S746.094,333.4,745.147,334.1Z" transform="translate(-564.466 -280.719)" fill="#3f3d56"/>
    <path id="Caminho_2594" data-name="Caminho 2594" d="M889.209,325.844a7.854,7.854,0,0,1,1.689,1.479c.511.659.8,1.466,1.292,2.141a23.907,23.907,0,0,0,1.664,1.762,13.6,13.6,0,0,1,1.918,3.126,46.68,46.68,0,0,1-4.342,4.907,1.4,1.4,0,0,1-.659.433,1.063,1.063,0,0,1-.932-.38c-.242-.254-.413-.566-.644-.83a3.319,3.319,0,0,0-2.052-.992,14.088,14.088,0,0,0-2.325-.032.919.919,0,0,1-.5-.083.835.835,0,0,1-.271-.311c-.909-1.546-.616-3.488-.3-5.252l.736-4.049a9.089,9.089,0,0,1,.612-2.251c.279-.6.9-1.605,1.668-1.427S888.56,325.377,889.209,325.844Z" transform="translate(-667.765 -275.136)" fill="#3f3d56"/>
    <ellipse id="Elipse_334" data-name="Elipse 334" cx="11.191" cy="11.211" rx="11.191" ry="11.211" transform="translate(75.595 54.874)" fill="#fff"/>
    <path id="Caminho_2595" data-name="Caminho 2595" d="M375.6,338.851a13.375,13.375,0,1,0,13.375,13.375A13.375,13.375,0,0,0,375.6,338.851Zm-2.746,20.506L366,352.5l1.923-1.923,4.938,4.938,10.423-10.423,1.923,1.923-12.352,12.339Z" transform="translate(-288.818 -285.888)" fill="#57b894"/>
  </g>
</svg>
