<svg xmlns="http://www.w3.org/2000/svg" width="22.801" height="29.934" viewBox="0 0 22.801 29.934">
  <g id="Grupo_1964" data-name="Grupo 1964" transform="translate(-309 -769)">
    <g id="Grupo_1963" data-name="Grupo 1963">
      <g id="chef" transform="translate(309 769)">
        <path id="Caminho_1529" data-name="Caminho 1529" d="M83.8,335.385A4.39,4.39,0,0,0,79.416,331H65.385A4.39,4.39,0,0,0,61,335.385v6.2H83.8Zm-21.047,0a2.634,2.634,0,0,1,2.631-2.631h5.873l-2.071,1.381a2.626,2.626,0,0,0-1.172,2.189v3.5H62.754Zm19.293,4.443H69.77v-3.5a.875.875,0,0,1,.39-.73l4.26-2.84h5a2.634,2.634,0,0,1,2.631,2.631Z" transform="translate(-61 -311.648)" fill="#767676"/>
        <path id="Caminho_1530" data-name="Caminho 1530" d="M241,421h1.754v1.754H241Z" transform="translate(-230.476 -396.386)" fill="#767676"/>
        <path id="Caminho_1531" data-name="Caminho 1531" d="M135.031,13.213V7.658a4.118,4.118,0,0,0,1.754-3.273c0-2.587-2.54-4.385-5.262-4.385a6.088,6.088,0,0,0-2.631.583A6.071,6.071,0,0,0,126.262,0C123.527,0,121,1.808,121,4.385a4.118,4.118,0,0,0,1.754,3.273v5.555a6.139,6.139,0,0,0,12.278,0Zm-8.77-11.459a4.566,4.566,0,0,1,.957.1,3.877,3.877,0,0,0-.957,2.531h1.754c0-1.451,1.574-2.631,3.508-2.631s3.508,1.18,3.508,2.631c0,1.513-1.623,2.2-1.754,2.31V8.77h-8.77V6.7c-.131-.113-1.754-.777-1.754-2.31C122.754,2.934,124.328,1.754,126.262,1.754ZM128.893,17.6a4.39,4.39,0,0,1-4.385-4.385v-2.69h8.77v2.69A4.39,4.39,0,0,1,128.893,17.6Z" transform="translate(-117.492)" fill="#767676"/>
      </g>
      <g id="chef_1_" data-name="chef(1)" transform="translate(309 769)" opacity="0">
        <path id="Caminho_1537" data-name="Caminho 1537" d="M131.524,0A6.052,6.052,0,0,0,128.9.586l-.005,0A6.067,6.067,0,0,0,126.262,0C123.36,0,121,2.026,121,4.443a4.118,4.118,0,0,0,1.754,3.273V8.828l1.754.877h8.77l1.754-.877V7.716a4.118,4.118,0,0,0,1.754-3.273c0-2.418-2.36-4.443-5.262-4.443Z" transform="translate(-117.492 0)" fill="#fff"/>
        <path id="Caminho_1538" data-name="Caminho 1538" d="M262.139,8.828V7.716a4.118,4.118,0,0,0,1.754-3.273c0-2.418-2.36-4.443-5.262-4.443a6.052,6.052,0,0,0-2.626.586l-.005,0V9.705h4.385Z" transform="translate(-244.599 0)" fill="#f2f2fc"/>
        <g id="Grupo_629" data-name="Grupo 629" transform="translate(0 19.352)">
          <path id="Caminho_1539" data-name="Caminho 1539" d="M72.4,331H65.385A4.386,4.386,0,0,0,61,335.385v6.2h7.016l4.385-7.889L73.909,331Z" transform="translate(-61 -331)" fill="#f2f2fc"/>
        </g>
        <path id="Caminho_1540" data-name="Caminho 1540" d="M256,331v2.694L257.508,331Z" transform="translate(-244.599 -311.648)" fill="#f2f2fc"/>
        <g id="Grupo_630" data-name="Grupo 630" transform="translate(7.016 19.352)">
          <path id="Caminho_1541" data-name="Caminho 1541" d="M192.4,331h-5.507l-1.508,1-3.21,2.136A2.614,2.614,0,0,0,181,336.332v5.25h15.785v-6.2A4.386,4.386,0,0,0,192.4,331Z" transform="translate(-181 -331)" fill="#fff"/>
        </g>
        <g id="Grupo_631" data-name="Grupo 631" transform="translate(11.401 19.352)">
          <path id="Caminho_1542" data-name="Caminho 1542" d="M267.4,335.385A4.386,4.386,0,0,0,263.016,331h-5.507L256,332v9.578h11.4Z" transform="translate(-256 -331)" fill="#fff"/>
        </g>
        <g id="Grupo_632" data-name="Grupo 632" transform="translate(5.262 8.828)">
          <path id="Caminho_1543" data-name="Caminho 1543" d="M157.139,151H151v4.385a6.139,6.139,0,1,0,12.278,0V151Z" transform="translate(-151 -151)" fill="#fbcfb1"/>
          <path id="Caminho_1544" data-name="Caminho 1544" d="M262.139,155.385V151H256v10.524A6.139,6.139,0,0,0,262.139,155.385Z" transform="translate(-249.861 -151)" fill="#f2b4a2"/>
        </g>
        <g id="Grupo_633" data-name="Grupo 633" transform="translate(10.524 24.614)">
          <path id="Caminho_1545" data-name="Caminho 1545" d="M241,421h1.754v1.754H241Z" transform="translate(-241 -421)" fill="#8c574d"/>
        </g>
        <g id="Grupo_634" data-name="Grupo 634" transform="translate(11.401 24.614)">
          <path id="Caminho_1546" data-name="Caminho 1546" d="M256,421h.877v1.754H256Z" transform="translate(-256 -421)" fill="#663328"/>
        </g>
      </g>
    </g>
  </g>
</svg>
