<?xml version="1.0" encoding="utf-8"?>
<!-- Generator: Adobe Illustrator 25.0.1, SVG Export Plug-In . SVG Version: 6.00 Build 0)  -->
<svg version="1.1" id="Camada_1" xmlns="http://www.w3.org/2000/svg" xmlns:xlink="http://www.w3.org/1999/xlink" x="0px" y="0px"
	 viewBox="0 0 24.9 24.3" style="enable-background:new 0 0 24.9 24.3;" xml:space="preserve">
<style type="text/css">
	.st0{fill:#0D6E9A;}
</style>
<path id="Icon_awesome-carrot" class="st0" d="M14.5,7.4C12,6.2,9,6.9,7.2,9l2.7,2.6c0.3,0.3,0.3,0.7,0,1c0,0,0,0,0,0
	c-0.3,0.3-0.8,0.3-1.1,0l-2.4-2.4L0.1,22.7C0,23,0,23.4,0.1,23.7c0.3,0.5,0.9,0.7,1.5,0.5l6.5-3.1l-2.4-2.3c-0.3-0.3-0.3-0.7,0-1
	c0,0,0,0,0,0c0.3-0.3,0.8-0.3,1.1,0l2.8,2.7l5-2.4c1.2-0.6,2.2-1.5,2.8-2.7c1.4-2.9,0.3-6.4-2.6-7.8C14.6,7.5,14.5,7.4,14.5,7.4z
	 M19,5.8c1-2,0.3-4.5-1.5-5.8c-2.1,1.5-2.5,4.4-1.1,6.4c0.2,0.3,0.4,0.5,0.7,0.8l0.4,0.4c1.9,1.9,5,2,6.9,0.1
	c0.2-0.2,0.3-0.3,0.5-0.5C23.5,5.4,21,4.8,19,5.8L19,5.8z"/>
</svg>
