<?xml version="1.0" encoding="utf-8"?>
<!-- Generator: Adobe Illustrator 25.0.1, SVG Export Plug-In . SVG Version: 6.00 Build 0)  -->
<svg version="1.1" id="Camada_1" xmlns="http://www.w3.org/2000/svg" xmlns:xlink="http://www.w3.org/1999/xlink" x="0px" y="0px"
	 viewBox="0 0 151 155" style="enable-background:new 0 0 151 155;" xml:space="preserve">
<style type="text/css">
	.st0{fill:#FFFFFF;}
	.st1{fill:none;stroke:#F86464;stroke-width:3;}
	.st2{enable-background:new    ;}
	.st3{fill:#F86464;}
</style>
<g id="Grupo_2460" transform="translate(-32 -353)">
	<g id="Forgot" transform="translate(32 353)">
		<g id="Retângulo_448">
			<path class="st0" d="M18,0h115c9.9,0,18,8.1,18,18v119c0,9.9-8.1,18-18,18H18c-9.9,0-18-8.1-18-18V18C0,8.1,8.1,0,18,0z"/>
			<path class="st1" d="M18,1.5h115c9.1,0,16.5,7.4,16.5,16.5v119c0,9.1-7.4,16.5-16.5,16.5H18c-9.1,0-16.5-7.4-16.5-16.5V18
				C1.5,8.9,8.9,1.5,18,1.5z"/>
		</g>
		<g class="st2">
			<path class="st3" d="M34.1,128h-2.5l-3.6-9.3h2.3l2.6,7.2l2.6-7.2h2.3L34.1,128z"/>
			<path class="st3" d="M39.2,120.5c-0.3,0-0.5-0.1-0.7-0.3c-0.2-0.2-0.3-0.5-0.3-0.7s0.1-0.5,0.3-0.7c0.2-0.2,0.5-0.3,0.7-0.3
				c0.3,0,0.6,0.1,0.8,0.3c0.2,0.2,0.3,0.5,0.3,0.7s-0.1,0.5-0.3,0.7C39.7,120.4,39.5,120.5,39.2,120.5z M40.1,128h-1.8v-6.8h1.8
				V128z"/>
			<path class="st3" d="M44.1,128.2c-0.6,0-1.2-0.1-1.7-0.3s-1-0.4-1.3-0.8l0.8-1.3c0.3,0.3,0.6,0.5,1.1,0.7s0.9,0.3,1.3,0.3
				c0.8,0,1.1-0.2,1.1-0.7c0-0.2-0.1-0.3-0.3-0.4c-0.2-0.1-0.4-0.2-0.7-0.2s-0.6-0.1-1-0.2c-0.3-0.1-0.7-0.2-1-0.3s-0.5-0.3-0.7-0.6
				c-0.2-0.3-0.3-0.6-0.3-1.1c0-0.6,0.2-1.1,0.7-1.5c0.5-0.4,1.2-0.6,2-0.6c1,0,1.9,0.3,2.7,0.9l-0.7,1.3c-0.2-0.2-0.5-0.4-0.9-0.6
				s-0.7-0.2-1.1-0.2c-0.3,0-0.6,0.1-0.8,0.2c-0.2,0.1-0.3,0.3-0.3,0.5c0,0.2,0.1,0.3,0.4,0.4s0.6,0.2,1,0.3
				c0.4,0.1,0.8,0.2,1.2,0.3c0.4,0.1,0.7,0.4,1,0.7c0.3,0.3,0.4,0.7,0.4,1.2c0,0.6-0.3,1.2-0.8,1.6C45.7,128,45,128.2,44.1,128.2z"
				/>
			<path class="st3" d="M49,120.5c-0.3,0-0.5-0.1-0.7-0.3c-0.2-0.2-0.3-0.5-0.3-0.7s0.1-0.5,0.3-0.7c0.2-0.2,0.5-0.3,0.7-0.3
				c0.3,0,0.6,0.1,0.8,0.3c0.2,0.2,0.3,0.5,0.3,0.7s-0.1,0.5-0.3,0.7C49.5,120.4,49.3,120.5,49,120.5z M49.9,128h-1.8v-6.8h1.8V128z
				"/>
			<path class="st3" d="M53.7,128.2c-1.3,0-1.9-0.6-1.9-1.9v-3.5h-1.1v-1.6h1.1v-1.8h1.8v1.8h1.4v1.6h-1.4v3c0,0.2,0.1,0.4,0.2,0.5
				c0.1,0.1,0.3,0.2,0.5,0.2c0.3,0,0.5-0.1,0.6-0.2l0.4,1.4C54.8,128,54.3,128.2,53.7,128.2z"/>
			<path class="st3" d="M61.6,128.2c-1.3,0-1.9-0.6-1.9-1.9v-3.5h-1.1v-1.6h1.1v-1.8h1.8v1.8h1.4v1.6h-1.4v3c0,0.2,0.1,0.4,0.2,0.5
				c0.1,0.1,0.3,0.2,0.5,0.2c0.3,0,0.5-0.1,0.6-0.2l0.4,1.4C62.8,128,62.3,128.2,61.6,128.2z"/>
			<path class="st3" d="M70.2,128h-1.8v-4.1c0-0.8-0.4-1.2-1.2-1.2c-0.6,0-1.1,0.3-1.5,0.8v4.6h-1.8v-9.3h1.8v3.4
				c0.6-0.7,1.4-1,2.4-1c0.7,0,1.3,0.2,1.6,0.6s0.6,0.9,0.6,1.6V128z"/>
			<path class="st3" d="M74.9,128.2c-1,0-1.9-0.3-2.6-1c-0.7-0.7-1-1.5-1-2.6c0-1,0.3-1.8,1-2.5c0.7-0.7,1.5-1,2.5-1
				c1,0,1.8,0.3,2.4,1c0.6,0.7,0.9,1.6,0.9,2.7v0.4h-5c0.1,0.4,0.3,0.8,0.6,1.1c0.3,0.3,0.8,0.4,1.3,0.4c0.3,0,0.6-0.1,1-0.2
				c0.3-0.1,0.6-0.3,0.8-0.5l0.8,1.2C77,127.9,76.1,128.2,74.9,128.2z M76.5,124c0-0.4-0.2-0.7-0.5-1c-0.3-0.3-0.7-0.4-1.2-0.4
				c-0.5,0-0.9,0.1-1.2,0.4c-0.3,0.3-0.4,0.6-0.5,1H76.5z"/>
			<path class="st3" d="M84.5,128h-1.8v-6.8h1.8v0.9c0.3-0.3,0.6-0.6,1-0.8c0.4-0.2,0.8-0.3,1.2-0.3v1.7c-0.1,0-0.3,0-0.5,0
				c-0.3,0-0.6,0.1-1,0.2s-0.6,0.3-0.7,0.5V128z"/>
			<path class="st3" d="M90.7,128.2c-1,0-1.9-0.3-2.6-1c-0.7-0.7-1-1.5-1-2.6c0-1,0.3-1.8,1-2.5c0.7-0.7,1.5-1,2.5-1s1.8,0.3,2.5,1
				c0.6,0.7,0.9,1.6,0.9,2.7v0.4h-5c0.1,0.4,0.3,0.8,0.6,1.1c0.3,0.3,0.8,0.4,1.3,0.4c0.3,0,0.6-0.1,1-0.2s0.6-0.3,0.8-0.5l0.8,1.2
				C92.8,127.9,91.9,128.2,90.7,128.2z M92.3,124c0-0.4-0.2-0.7-0.5-1s-0.7-0.4-1.2-0.4c-0.5,0-0.9,0.1-1.2,0.4
				c-0.3,0.3-0.4,0.6-0.5,1H92.3z"/>
			<path class="st3" d="M98.2,128.2c-1,0-1.9-0.3-2.6-1s-1-1.5-1-2.6s0.3-1.9,1-2.5c0.7-0.7,1.5-1,2.6-1c1.2,0,2.1,0.4,2.7,1.2
				l-1.2,1.1c-0.3-0.5-0.8-0.7-1.4-0.7c-0.5,0-1,0.2-1.3,0.5s-0.5,0.8-0.5,1.4s0.2,1.1,0.5,1.4s0.8,0.5,1.3,0.5
				c0.6,0,1.1-0.2,1.4-0.7l1.2,1.1C100.3,127.8,99.4,128.2,98.2,128.2z"/>
			<path class="st3" d="M102.7,120.5c-0.3,0-0.5-0.1-0.7-0.3s-0.3-0.5-0.3-0.7s0.1-0.5,0.3-0.7s0.5-0.3,0.7-0.3
				c0.3,0,0.6,0.1,0.8,0.3s0.3,0.5,0.3,0.7s-0.1,0.5-0.3,0.7S103,120.5,102.7,120.5z M103.6,128h-1.8v-6.8h1.8V128z"/>
			<path class="st3" d="M109,128.2c-0.8,0-1.5-0.3-2.1-1v3.4h-1.8v-9.3h1.8v0.9c0.5-0.7,1.2-1,2.1-1c0.9,0,1.6,0.3,2.2,0.9
				c0.6,0.6,0.8,1.5,0.8,2.6s-0.3,2-0.8,2.6C110.6,127.9,109.9,128.2,109,128.2z M108.5,126.6c0.5,0,0.9-0.2,1.2-0.5
				s0.5-0.8,0.5-1.4c0-0.6-0.2-1.1-0.5-1.4c-0.3-0.4-0.7-0.5-1.2-0.5c-0.3,0-0.6,0.1-0.9,0.2c-0.3,0.1-0.5,0.3-0.7,0.6v2.4
				c0.1,0.2,0.4,0.4,0.7,0.6C107.9,126.5,108.2,126.6,108.5,126.6z"/>
			<path class="st3" d="M116.3,128.2c-1,0-1.9-0.3-2.6-1c-0.7-0.7-1-1.5-1-2.6c0-1,0.3-1.8,1-2.5c0.7-0.7,1.5-1,2.5-1s1.8,0.3,2.5,1
				c0.6,0.7,0.9,1.6,0.9,2.7v0.4h-5c0.1,0.4,0.3,0.8,0.6,1.1c0.3,0.3,0.8,0.4,1.3,0.4c0.3,0,0.6-0.1,1-0.2s0.6-0.3,0.8-0.5l0.8,1.2
				C118.4,127.9,117.5,128.2,116.3,128.2z M117.8,124c0-0.4-0.2-0.7-0.5-1s-0.7-0.4-1.2-0.4c-0.5,0-0.9,0.1-1.2,0.4
				c-0.3,0.3-0.4,0.6-0.5,1H117.8z"/>
		</g>
	</g>
	<path id="Icon_material-format-list-numbered" class="st3" d="M83.7,428h5v1.2h-2.5v2.5h2.5v1.2h-5v2.5h7.5v-10h-7.5V428z
		 M86.2,405.5h2.5v-10h-5v2.5h2.5V405.5z M83.7,413h4.5l-4.5,5.3v2.2h7.5V418h-4.5l4.5-5.2v-2.2h-7.5V413z M96.2,398v5h35v-5H96.2z
		 M96.2,433h35v-5h-35V433z M96.2,418h35v-5h-35V418z"/>
</g>
</svg>
