<?xml version="1.0" encoding="utf-8"?>
<!-- Generator: Adobe Illustrator 25.0.1, SVG Export Plug-In . SVG Version: 6.00 Build 0)  -->
<svg version="1.1" id="knife" xmlns="http://www.w3.org/2000/svg" xmlns:xlink="http://www.w3.org/1999/xlink" x="0px" y="0px"
	 viewBox="0 0 23.1 24.3" style="enable-background:new 0 0 23.1 24.3;" xml:space="preserve">
<style type="text/css">
	.st0{fill:#0D6E9A;}
	.st1{fill:#EDEDED;}
</style>
<g id="Grupo_2334" transform="translate(7.403)">
	<g id="Grupo_2333" transform="translate(0 0)">
		<path id="Caminho_6752" class="st0" d="M15.3,0.5C15.2,0.3,15,0.1,14.8,0C14.5,0,14.2,0,14,0.2L0,13.9l5.4,5.3l6.3-6.1
			c1.6-1.6,2.8-3.6,3.5-5.8C15.8,5.1,15.8,2.7,15.3,0.5z"/>
	</g>
</g>
<path id="Caminho_6753" class="st0" d="M6.4,14.9l-5.7,5.6c-0.9,0.8-0.9,2.2-0.1,3.1c0,0,0,0,0.1,0.1c0.9,0.9,2.3,0.9,3.2,0l5.7-5.6
	L6.4,14.9z"/>
<path id="Caminho_7241" class="st1" d="M6.4,18.1c0.2,0.2,0.2,0.6,0,0.8c0,0,0,0,0,0l-3.3,3.2c-0.2,0.2-0.6,0.2-0.8,0
	c-0.2-0.2-0.2-0.6,0-0.8c0,0,0,0,0,0l3.2-3.2C5.8,17.8,6.2,17.8,6.4,18.1z"/>
</svg>
