<?xml version="1.0" encoding="utf-8"?>
<!-- Generator: Adobe Illustrator 25.0.1, SVG Export Plug-In . SVG Version: 6.00 Build 0)  -->
<svg version="1.1" id="Camada_1" xmlns="http://www.w3.org/2000/svg" xmlns:xlink="http://www.w3.org/1999/xlink" x="0px" y="0px"
	 viewBox="0 0 151 155" style="enable-background:new 0 0 151 155;" xml:space="preserve">
<style type="text/css">
	.st0{fill:#FFFFFF;}
	.st1{fill:none;stroke:#F86464;stroke-width:3;}
	.st2{enable-background:new    ;}
	.st3{fill:#F86464;}
	.st4{fill-rule:evenodd;clip-rule:evenodd;fill:#F86464;}
	.st5{fill:#80ECC6;}
	.st6{fill:#99FFCC;}
</style>
<g id="Grupo_2463" transform="translate(-192 -353)">
	<g id="Upload" transform="translate(191.557 353)">
		<g id="Retângulo_29" transform="translate(0.443)">
			<path class="st0" d="M18,0h115c9.9,0,18,8.1,18,18v119c0,9.9-8.1,18-18,18H18c-9.9,0-18-8.1-18-18V18C0,8.1,8.1,0,18,0z"/>
			<path class="st1" d="M18,1.5h115c9.1,0,16.5,7.4,16.5,16.5v119c0,9.1-7.4,16.5-16.5,16.5H18c-9.1,0-16.5-7.4-16.5-16.5V18
				C1.5,8.9,8.9,1.5,18,1.5z"/>
		</g>
		<g class="st2">
			<path class="st3" d="M15.7,120.1c-0.7,0.7-1.8,1.1-3.1,1.1c-1.4,0-2.4-0.4-3.1-1.1c-0.7-0.7-1.1-1.7-1.1-2.8v-5.6h2v5.5
				c0,0.7,0.2,1.2,0.6,1.6c0.4,0.4,0.9,0.6,1.6,0.6c0.7,0,1.2-0.2,1.6-0.6c0.4-0.4,0.6-0.9,0.6-1.6v-5.5h2v5.6
				C16.7,118.5,16.4,119.4,15.7,120.1z"/>
			<path class="st3" d="M22.2,121.2c-0.8,0-1.5-0.3-2.1-1v3.4h-1.8v-9.3h1.8v0.9c0.5-0.7,1.2-1,2.1-1c0.9,0,1.6,0.3,2.2,0.9
				c0.6,0.6,0.8,1.5,0.8,2.6s-0.3,2-0.8,2.6C23.8,120.9,23.1,121.2,22.2,121.2z M21.6,119.6c0.5,0,0.9-0.2,1.2-0.5
				c0.3-0.4,0.5-0.8,0.5-1.4c0-0.6-0.2-1.1-0.5-1.4c-0.3-0.4-0.7-0.5-1.2-0.5c-0.3,0-0.6,0.1-0.9,0.2c-0.3,0.1-0.5,0.3-0.7,0.6v2.4
				c0.1,0.2,0.4,0.4,0.7,0.6C21.1,119.5,21.3,119.6,21.6,119.6z"/>
			<path class="st3" d="M28,121h-1.8v-9.3H28V121z"/>
			<path class="st3" d="M35.3,120.1c-0.7,0.7-1.5,1-2.6,1c-1.1,0-1.9-0.3-2.6-1c-0.6-0.7-1-1.5-1-2.5c0-1,0.3-1.8,1-2.5
				c0.6-0.7,1.5-1,2.6-1c1.1,0,2,0.3,2.6,1c0.7,0.7,1,1.5,1,2.5C36.3,118.6,36,119.5,35.3,120.1z M32.7,119.6c0.5,0,1-0.2,1.3-0.6
				c0.3-0.4,0.5-0.8,0.5-1.4c0-0.6-0.2-1-0.5-1.4s-0.7-0.6-1.3-0.6c-0.5,0-1,0.2-1.3,0.6c-0.3,0.4-0.5,0.8-0.5,1.4
				c0,0.6,0.2,1,0.5,1.4C31.8,119.4,32.2,119.6,32.7,119.6z"/>
			<path class="st3" d="M43.3,121h-1.8v-0.7c-0.5,0.6-1.2,0.9-2.1,0.9c-0.6,0-1.1-0.2-1.6-0.6c-0.5-0.4-0.7-0.9-0.7-1.6
				c0-0.7,0.2-1.3,0.7-1.6c0.5-0.4,1-0.5,1.6-0.5c1,0,1.7,0.3,2.1,0.8v-0.9c0-0.3-0.1-0.6-0.4-0.8c-0.3-0.2-0.6-0.3-1.1-0.3
				c-0.7,0-1.4,0.3-1.9,0.8l-0.7-1.2c0.8-0.7,1.8-1.1,3-1.1c0.9,0,1.6,0.2,2.1,0.6s0.8,1.1,0.8,2V121z M40.1,120
				c0.7,0,1.1-0.2,1.4-0.6v-0.8c-0.3-0.4-0.8-0.6-1.4-0.6c-0.4,0-0.7,0.1-0.9,0.3s-0.4,0.4-0.4,0.7s0.1,0.6,0.4,0.7
				C39.4,119.9,39.7,120,40.1,120z"/>
			<path class="st3" d="M51.3,121h-1.8v-0.9c-0.6,0.7-1.2,1-2.1,1c-0.9,0-1.6-0.3-2.2-1s-0.8-1.5-0.8-2.6c0-1.1,0.3-1.9,0.8-2.6
				c0.6-0.6,1.3-1,2.2-1c0.9,0,1.6,0.3,2.1,1v-3.4h1.8V121z M48,119.6c0.3,0,0.6-0.1,0.9-0.2s0.5-0.3,0.7-0.6v-2.4
				c-0.1-0.2-0.4-0.4-0.7-0.6s-0.6-0.2-0.9-0.2c-0.5,0-0.9,0.2-1.2,0.5c-0.3,0.4-0.5,0.8-0.5,1.4c0,0.6,0.2,1.1,0.5,1.4
				S47.4,119.6,48,119.6z"/>
			<path class="st3" d="M62.1,121h-1.8v-0.7c-0.5,0.6-1.2,0.9-2.1,0.9c-0.6,0-1.1-0.2-1.6-0.6c-0.5-0.4-0.7-0.9-0.7-1.6
				c0-0.7,0.2-1.3,0.7-1.6c0.5-0.4,1-0.5,1.6-0.5c1,0,1.7,0.3,2.1,0.8v-0.9c0-0.3-0.1-0.6-0.4-0.8c-0.3-0.2-0.6-0.3-1.1-0.3
				c-0.7,0-1.4,0.3-1.9,0.8l-0.7-1.2c0.8-0.7,1.8-1.1,3-1.1c0.9,0,1.6,0.2,2.1,0.6s0.8,1.1,0.8,2V121z M58.8,120
				c0.7,0,1.1-0.2,1.4-0.6v-0.8c-0.3-0.4-0.8-0.6-1.4-0.6c-0.4,0-0.7,0.1-0.9,0.3s-0.4,0.4-0.4,0.7s0.1,0.6,0.4,0.7
				C58.2,119.9,58.5,120,58.8,120z"/>
			<path class="st3" d="M70.9,121.2c-0.8,0-1.5-0.3-2.1-1v3.4H67v-9.3h1.8v0.9c0.5-0.7,1.2-1,2.1-1c0.9,0,1.6,0.3,2.2,0.9
				c0.6,0.6,0.8,1.5,0.8,2.6s-0.3,2-0.8,2.6C72.5,120.9,71.7,121.2,70.9,121.2z M70.3,119.6c0.5,0,0.9-0.2,1.2-0.5
				c0.3-0.4,0.5-0.8,0.5-1.4c0-0.6-0.2-1.1-0.5-1.4c-0.3-0.4-0.7-0.5-1.2-0.5c-0.3,0-0.6,0.1-0.9,0.2c-0.3,0.1-0.5,0.3-0.7,0.6v2.4
				c0.1,0.2,0.4,0.4,0.7,0.6C69.7,119.5,70,119.6,70.3,119.6z"/>
			<path class="st3" d="M81.3,121h-1.8v-4.1c0-0.8-0.4-1.2-1.2-1.2c-0.6,0-1.1,0.3-1.5,0.8v4.6h-1.8v-9.3h1.8v3.4
				c0.6-0.7,1.4-1,2.4-1c0.7,0,1.3,0.2,1.6,0.6c0.4,0.4,0.6,0.9,0.6,1.6V121z"/>
			<path class="st3" d="M88.6,120.1c-0.7,0.7-1.5,1-2.6,1s-1.9-0.3-2.6-1c-0.6-0.7-1-1.5-1-2.5c0-1,0.3-1.8,1-2.5
				c0.6-0.7,1.5-1,2.6-1s2,0.3,2.6,1c0.7,0.7,1,1.5,1,2.5C89.6,118.6,89.3,119.5,88.6,120.1z M86,119.6c0.5,0,1-0.2,1.3-0.6
				c0.3-0.4,0.5-0.8,0.5-1.4c0-0.6-0.2-1-0.5-1.4c-0.3-0.4-0.7-0.6-1.3-0.6c-0.5,0-1,0.2-1.3,0.6s-0.5,0.8-0.5,1.4
				c0,0.6,0.2,1,0.5,1.4C85,119.4,85.5,119.6,86,119.6z"/>
			<path class="st3" d="M93,121.2c-1.3,0-1.9-0.6-1.9-1.9v-3.5h-1.1v-1.6h1.1v-1.8h1.8v1.8h1.4v1.6h-1.4v3c0,0.2,0.1,0.4,0.2,0.5
				s0.3,0.2,0.5,0.2c0.3,0,0.5-0.1,0.6-0.2l0.4,1.4C94.1,121,93.6,121.2,93,121.2z"/>
			<path class="st3" d="M101,120.1c-0.7,0.7-1.5,1-2.6,1c-1.1,0-1.9-0.3-2.6-1c-0.6-0.7-1-1.5-1-2.5c0-1,0.3-1.8,1-2.5
				c0.6-0.7,1.5-1,2.6-1c1.1,0,2,0.3,2.6,1c0.7,0.7,1,1.5,1,2.5C101.9,118.6,101.6,119.5,101,120.1z M98.4,119.6
				c0.5,0,1-0.2,1.3-0.6c0.3-0.4,0.5-0.8,0.5-1.4c0-0.6-0.2-1-0.5-1.4c-0.3-0.4-0.7-0.6-1.3-0.6c-0.5,0-1,0.2-1.3,0.6
				c-0.3,0.4-0.5,0.8-0.5,1.4c0,0.6,0.2,1,0.5,1.4C97.4,119.4,97.8,119.6,98.4,119.6z"/>
			<path class="st3" d="M112.2,120.1c-0.7,0.7-1.5,1-2.6,1s-1.9-0.3-2.6-1c-0.6-0.7-1-1.5-1-2.5c0-1,0.3-1.8,1-2.5
				c0.6-0.7,1.5-1,2.6-1s2,0.3,2.6,1c0.7,0.7,1,1.5,1,2.5C113.2,118.6,112.8,119.5,112.2,120.1z M109.6,119.6c0.5,0,1-0.2,1.3-0.6
				c0.3-0.4,0.5-0.8,0.5-1.4c0-0.6-0.2-1-0.5-1.4c-0.3-0.4-0.7-0.6-1.3-0.6c-0.5,0-1,0.2-1.3,0.6s-0.5,0.8-0.5,1.4
				c0,0.6,0.2,1,0.5,1.4C108.6,119.4,109.1,119.6,109.6,119.6z"/>
			<path class="st3" d="M116.5,121h-1.8v-5.2h-1.1v-1.6h1.1V114c0-0.8,0.2-1.4,0.6-1.8c0.4-0.4,1-0.7,1.7-0.7c0.8,0,1.4,0.2,1.8,0.6
				l-0.7,1.1c-0.2-0.2-0.4-0.3-0.7-0.3c-0.3,0-0.5,0.1-0.6,0.3c-0.1,0.2-0.2,0.4-0.2,0.7v0.3h1.4v1.6h-1.4V121z"/>
			<path class="st3" d="M124.3,121.2c-1.3,0-1.9-0.6-1.9-1.9v-3.5h-1.1v-1.6h1.1v-1.8h1.8v1.8h1.4v1.6h-1.4v3c0,0.2,0.1,0.4,0.2,0.5
				s0.3,0.2,0.5,0.2c0.3,0,0.5-0.1,0.6-0.2l0.4,1.4C125.5,121,125,121.2,124.3,121.2z"/>
			<path class="st3" d="M132.9,121h-1.8v-4.1c0-0.8-0.4-1.2-1.2-1.2c-0.6,0-1.1,0.3-1.5,0.8v4.6h-1.8v-9.3h1.8v3.4
				c0.6-0.7,1.4-1,2.4-1c0.7,0,1.3,0.2,1.6,0.6c0.4,0.4,0.6,0.9,0.6,1.6V121z"/>
			<path class="st3" d="M137.7,121.2c-1,0-1.9-0.3-2.6-1s-1-1.5-1-2.6c0-1,0.3-1.8,1-2.5c0.7-0.7,1.5-1,2.5-1c1,0,1.8,0.3,2.4,1
				c0.6,0.7,0.9,1.6,0.9,2.7v0.4h-5c0.1,0.4,0.3,0.8,0.6,1.1c0.3,0.3,0.8,0.4,1.3,0.4c0.3,0,0.6-0.1,1-0.2s0.6-0.3,0.8-0.5l0.8,1.2
				C139.8,120.9,138.8,121.2,137.7,121.2z M139.2,117c0-0.4-0.2-0.7-0.5-1c-0.3-0.3-0.7-0.4-1.2-0.4c-0.5,0-0.9,0.1-1.2,0.4
				s-0.4,0.6-0.5,1H139.2z"/>
		</g>
		<g class="st2">
			<path class="st3" d="M14.7,139H13v-0.9c-0.6,0.7-1.2,1-2.1,1c-0.9,0-1.6-0.3-2.2-1s-0.8-1.5-0.8-2.6c0-1.1,0.3-1.9,0.8-2.6
				c0.6-0.6,1.3-1,2.2-1c0.9,0,1.6,0.3,2.1,1v-3.4h1.8V139z M11.4,137.6c0.3,0,0.6-0.1,0.9-0.2s0.5-0.3,0.7-0.6v-2.4
				c-0.1-0.2-0.4-0.4-0.7-0.6s-0.6-0.2-0.9-0.2c-0.5,0-0.9,0.2-1.2,0.5c-0.3,0.4-0.5,0.8-0.5,1.4c0,0.6,0.2,1.1,0.5,1.4
				S10.9,137.6,11.4,137.6z"/>
			<path class="st3" d="M17.2,131.5c-0.3,0-0.5-0.1-0.7-0.3c-0.2-0.2-0.3-0.5-0.3-0.7s0.1-0.5,0.3-0.7c0.2-0.2,0.5-0.3,0.7-0.3
				c0.3,0,0.6,0.1,0.8,0.3c0.2,0.2,0.3,0.5,0.3,0.7s-0.1,0.5-0.3,0.7C17.7,131.4,17.5,131.5,17.2,131.5z M18.1,139h-1.8v-6.8h1.8
				V139z"/>
			<path class="st3" d="M22.1,139.2c-0.6,0-1.2-0.1-1.7-0.3s-1-0.4-1.3-0.8l0.8-1.3c0.3,0.3,0.6,0.5,1.1,0.7s0.9,0.3,1.3,0.3
				c0.8,0,1.1-0.2,1.1-0.7c0-0.2-0.1-0.3-0.3-0.4c-0.2-0.1-0.4-0.2-0.7-0.2s-0.6-0.1-1-0.2c-0.3-0.1-0.7-0.2-1-0.3s-0.5-0.3-0.7-0.6
				c-0.2-0.3-0.3-0.6-0.3-1.1c0-0.6,0.2-1.1,0.7-1.5c0.5-0.4,1.2-0.6,2-0.6c1,0,1.9,0.3,2.7,0.9l-0.7,1.3c-0.2-0.2-0.5-0.4-0.9-0.6
				s-0.7-0.2-1.1-0.2c-0.3,0-0.6,0.1-0.8,0.2c-0.2,0.1-0.3,0.3-0.3,0.5c0,0.2,0.1,0.3,0.4,0.4s0.6,0.2,1,0.3
				c0.4,0.1,0.8,0.2,1.2,0.3c0.4,0.1,0.7,0.4,1,0.7c0.3,0.3,0.4,0.7,0.4,1.2c0,0.6-0.3,1.2-0.8,1.6C23.7,139,23,139.2,22.1,139.2z"
				/>
			<path class="st3" d="M32.5,139h-1.8v-4.1c0-0.8-0.4-1.2-1.2-1.2c-0.6,0-1.1,0.3-1.5,0.8v4.6h-1.8v-9.3h1.8v3.4
				c0.6-0.7,1.4-1,2.4-1c0.7,0,1.3,0.2,1.6,0.6s0.6,0.9,0.6,1.6V139z"/>
			<path class="st3" d="M39.6,139h-1.8v-5.2h-1.1v-1.6h1.1V132c0-0.8,0.2-1.4,0.6-1.8c0.4-0.4,1-0.7,1.7-0.7c0.8,0,1.4,0.2,1.8,0.6
				l-0.7,1.1c-0.2-0.2-0.4-0.3-0.7-0.3c-0.3,0-0.5,0.1-0.6,0.3c-0.1,0.2-0.2,0.4-0.2,0.7v0.3H41v1.6h-1.4V139z"/>
			<path class="st3" d="M47.5,138.1c-0.7,0.7-1.5,1-2.6,1c-1.1,0-1.9-0.3-2.6-1c-0.6-0.7-1-1.5-1-2.5c0-1,0.3-1.8,1-2.5
				c0.6-0.7,1.5-1,2.6-1c1.1,0,2,0.3,2.6,1c0.7,0.7,1,1.5,1,2.5C48.5,136.6,48.2,137.5,47.5,138.1z M44.9,137.6c0.5,0,1-0.2,1.3-0.6
				c0.3-0.4,0.5-0.8,0.5-1.4c0-0.6-0.2-1-0.5-1.4s-0.7-0.6-1.3-0.6c-0.5,0-1,0.2-1.3,0.6c-0.3,0.4-0.5,0.8-0.5,1.4
				c0,0.6,0.2,1,0.5,1.4C44,137.4,44.4,137.6,44.9,137.6z"/>
			<path class="st3" d="M51.4,139h-1.8v-6.8h1.8v0.9c0.3-0.3,0.6-0.6,1-0.8s0.8-0.3,1.2-0.3v1.7c-0.1,0-0.3,0-0.5,0
				c-0.3,0-0.6,0.1-1,0.2s-0.6,0.3-0.7,0.5V139z"/>
			<path class="st3" d="M61,139.2c-1,0-1.9-0.3-2.6-1c-0.7-0.7-1-1.5-1-2.6c0-1,0.3-1.8,1-2.5c0.7-0.7,1.5-1,2.5-1
				c1,0,1.8,0.3,2.4,1c0.6,0.7,0.9,1.6,0.9,2.7v0.4h-5c0.1,0.4,0.3,0.8,0.6,1.1c0.3,0.3,0.8,0.4,1.3,0.4c0.3,0,0.6-0.1,1-0.2
				s0.6-0.3,0.8-0.5l0.8,1.2C63.1,138.9,62.2,139.2,61,139.2z M62.6,135c0-0.4-0.2-0.7-0.5-1c-0.3-0.3-0.7-0.4-1.2-0.4
				c-0.5,0-0.9,0.1-1.2,0.4c-0.3,0.3-0.4,0.6-0.5,1H62.6z"/>
			<path class="st3" d="M71.5,139h-2l-1.5-2.3l-1.6,2.3h-2l2.4-3.5l-2.3-3.3h2l1.4,2.1l1.4-2.1h2l-2.3,3.3L71.5,139z"/>
			<path class="st3" d="M74.5,139.2c-1.3,0-1.9-0.6-1.9-1.9v-3.5h-1.1v-1.6h1.1v-1.8h1.8v1.8h1.4v1.6h-1.4v3c0,0.2,0.1,0.4,0.2,0.5
				c0.1,0.1,0.3,0.2,0.5,0.2c0.3,0,0.5-0.1,0.6-0.2l0.4,1.4C75.6,139,75.1,139.2,74.5,139.2z"/>
			<path class="st3" d="M78.5,139h-1.8v-6.8h1.8v0.9c0.3-0.3,0.6-0.6,1-0.8c0.4-0.2,0.8-0.3,1.2-0.3v1.7c-0.1,0-0.3,0-0.5,0
				c-0.3,0-0.6,0.1-1,0.2s-0.6,0.3-0.7,0.5V139z"/>
			<path class="st3" d="M87.4,139h-1.8v-0.7c-0.5,0.6-1.2,0.9-2.1,0.9c-0.6,0-1.1-0.2-1.6-0.6c-0.5-0.4-0.7-0.9-0.7-1.6
				c0-0.7,0.2-1.3,0.7-1.6s1-0.5,1.6-0.5c1,0,1.7,0.3,2.1,0.8v-0.9c0-0.3-0.1-0.6-0.4-0.8c-0.3-0.2-0.6-0.3-1.1-0.3
				c-0.7,0-1.4,0.3-1.9,0.8l-0.7-1.2c0.8-0.7,1.8-1.1,3-1.1c0.9,0,1.6,0.2,2.1,0.6c0.6,0.4,0.8,1.1,0.8,2V139z M84.2,138
				c0.7,0,1.1-0.2,1.4-0.6v-0.8c-0.3-0.4-0.8-0.6-1.4-0.6c-0.4,0-0.7,0.1-0.9,0.3c-0.2,0.2-0.4,0.4-0.4,0.7s0.1,0.6,0.4,0.7
				C83.5,137.9,83.8,138,84.2,138z"/>
			<path class="st3" d="M94.1,139h-1.8v-6.8h1.8v0.9c0.3-0.3,0.6-0.6,1-0.8c0.4-0.2,0.8-0.3,1.2-0.3v1.7c-0.1,0-0.3,0-0.5,0
				c-0.3,0-0.6,0.1-1,0.2s-0.6,0.3-0.7,0.5V139z"/>
			<path class="st3" d="M100.3,139.2c-1,0-1.9-0.3-2.6-1c-0.7-0.7-1-1.5-1-2.6c0-1,0.3-1.8,1-2.5c0.7-0.7,1.5-1,2.5-1s1.8,0.3,2.5,1
				c0.6,0.7,0.9,1.6,0.9,2.7v0.4h-5c0.1,0.4,0.3,0.8,0.6,1.1c0.3,0.3,0.8,0.4,1.3,0.4c0.3,0,0.6-0.1,1-0.2s0.6-0.3,0.8-0.5l0.8,1.2
				C102.4,138.9,101.5,139.2,100.3,139.2z M101.9,135c0-0.4-0.2-0.7-0.5-1s-0.7-0.4-1.2-0.4c-0.5,0-0.9,0.1-1.2,0.4
				c-0.3,0.3-0.4,0.6-0.5,1H101.9z"/>
			<path class="st3" d="M112.5,139h-1.9l-1.4-4.6l-1.4,4.6h-1.9l-2.1-6.8h1.8l1.3,4.5l1.5-4.5h1.6l1.5,4.5l1.3-4.5h1.9L112.5,139z"
				/>
			<path class="st3" d="M121.1,139h-1.8v-0.7c-0.5,0.6-1.2,0.9-2.1,0.9c-0.6,0-1.1-0.2-1.6-0.6s-0.7-0.9-0.7-1.6
				c0-0.7,0.2-1.3,0.7-1.6c0.5-0.4,1-0.5,1.6-0.5c1,0,1.7,0.3,2.1,0.8v-0.9c0-0.3-0.1-0.6-0.4-0.8c-0.3-0.2-0.6-0.3-1.1-0.3
				c-0.7,0-1.4,0.3-1.9,0.8l-0.7-1.2c0.8-0.7,1.8-1.1,3-1.1c0.9,0,1.6,0.2,2.1,0.6c0.6,0.4,0.8,1.1,0.8,2V139z M117.9,138
				c0.7,0,1.1-0.2,1.4-0.6v-0.8c-0.3-0.4-0.8-0.6-1.4-0.6c-0.4,0-0.7,0.1-0.9,0.3c-0.2,0.2-0.4,0.4-0.4,0.7s0.1,0.6,0.4,0.7
				C117.2,137.9,117.5,138,117.9,138z"/>
			<path class="st3" d="M124.4,139h-1.8v-6.8h1.8v0.9c0.3-0.3,0.6-0.6,1-0.8c0.4-0.2,0.8-0.3,1.2-0.3v1.7c-0.1,0-0.3,0-0.5,0
				c-0.3,0-0.6,0.1-1,0.2s-0.6,0.3-0.7,0.5V139z"/>
			<path class="st3" d="M133.9,139h-1.8v-0.9c-0.6,0.7-1.2,1-2.1,1c-0.9,0-1.6-0.3-2.2-1c-0.6-0.6-0.8-1.5-0.8-2.6
				c0-1.1,0.3-1.9,0.8-2.6c0.6-0.6,1.3-1,2.2-1c0.9,0,1.6,0.3,2.1,1v-3.4h1.8V139z M130.6,137.6c0.3,0,0.6-0.1,0.9-0.2
				c0.3-0.1,0.5-0.3,0.7-0.6v-2.4c-0.1-0.2-0.4-0.4-0.7-0.6c-0.3-0.1-0.6-0.2-0.9-0.2c-0.5,0-0.9,0.2-1.2,0.5
				c-0.3,0.4-0.5,0.8-0.5,1.4c0,0.6,0.2,1.1,0.5,1.4S130.1,137.6,130.6,137.6z"/>
			<path class="st3" d="M137.9,139.2c-0.6,0-1.2-0.1-1.7-0.3c-0.5-0.2-1-0.4-1.3-0.8l0.8-1.3c0.3,0.3,0.6,0.5,1.1,0.7
				s0.9,0.3,1.3,0.3c0.8,0,1.1-0.2,1.1-0.7c0-0.2-0.1-0.3-0.3-0.4c-0.2-0.1-0.4-0.2-0.7-0.2s-0.6-0.1-1-0.2c-0.3-0.1-0.7-0.2-1-0.3
				s-0.5-0.3-0.7-0.6c-0.2-0.3-0.3-0.6-0.3-1.1c0-0.6,0.2-1.1,0.7-1.5c0.5-0.4,1.2-0.6,2-0.6c1,0,1.9,0.3,2.7,0.9l-0.7,1.3
				c-0.2-0.2-0.5-0.4-0.9-0.6c-0.4-0.1-0.7-0.2-1.1-0.2c-0.3,0-0.6,0.1-0.8,0.2c-0.2,0.1-0.3,0.3-0.3,0.5c0,0.2,0.1,0.3,0.4,0.4
				s0.6,0.2,1,0.3c0.4,0.1,0.8,0.2,1.2,0.3s0.7,0.4,1,0.7c0.3,0.3,0.4,0.7,0.4,1.2c0,0.6-0.3,1.2-0.8,1.6S138.8,139.2,137.9,139.2z"
				/>
		</g>
		<g id="camera" transform="translate(49.602 18)">
			<path id="Caminho_6721" class="st4" d="M48.4,35V14c0.1-1.8-1.3-3.4-3.2-3.5h-3.7c-2.6,0-5-1.1-6.7-3.1l-2.6-2.9
				c-0.6-0.6-1.4-1-2.2-1h-7.4c-0.9,0-1.7,0.4-2.2,1l-2.6,2.9c-1.7,1.9-4.1,3-6.7,3.1H7.4c-1.8,0.1-3.2,1.7-3.2,3.5v21
				c-0.1,1.8,1.3,3.4,3.2,3.5h37.8C47.1,38.4,48.5,36.8,48.4,35z M7.4,7c-3.5,0-6.3,3.1-6.3,7v21c0,3.9,2.8,7,6.3,7h37.8
				c3.5,0,6.3-3.1,6.3-7V14c0-3.9-2.8-7-6.3-7h-3.7c-1.7,0-3.3-0.8-4.5-2.1L34.5,2c-1.1-1.3-2.7-2-4.5-2h-7.4
				c-1.7,0-3.3,0.8-4.5,2.1L15.6,5c-1.1,1.3-2.7,2-4.5,2H7.4z"/>
			<path id="Caminho_6722" class="st4" d="M26.3,31.5c4.4,0,7.9-3.9,7.9-8.7S30.7,14,26.3,14s-7.9,3.9-7.9,8.7S22,31.5,26.3,31.5z
				 M26.3,35c6.1,0,11-5.5,11-12.2s-4.9-12.2-11-12.2s-11,5.5-11,12.2S20.2,35,26.3,35L26.3,35z"/>
			<path id="Caminho_6723" class="st3" d="M10.6,15.7c0,0.9-0.7,1.7-1.6,1.8c-0.9-0.1-1.6-0.8-1.6-1.8C7.4,14.8,8.1,14,9,14
				C9.9,14,10.6,14.8,10.6,15.7z"/>
		</g>
	</g>
	<g id="Grupo_2462">
		<g id="Grupo_2461">
			<g id="Grupo_2459" transform="translate(33.434 -93.194)">
				<path id="Caminho_1586" class="st5" d="M264.1,526.2l-8.4-1.8l-4.3-7.4v20.5l7.8,3.5l-0.9-8.5L264.1,526.2z"/>
				<path id="Caminho_1587" class="st6" d="M247.2,524.4l-8.4,1.8l5.7,6.4l-0.9,8.5l7.8-3.5V517L247.2,524.4z"/>
				<g class="st2">
					<path class="st5" d="M213.6,531.2c0.2,0.2,0.3,0.4,0.3,0.7s-0.1,0.5-0.3,0.7s-0.4,0.3-0.7,0.3h-2.5v2.5c0,0.3-0.1,0.5-0.3,0.7
						c-0.2,0.2-0.4,0.3-0.7,0.3c-0.3,0-0.5-0.1-0.7-0.3c-0.2-0.2-0.3-0.4-0.3-0.7v-2.5H206c-0.3,0-0.5-0.1-0.7-0.3
						c-0.2-0.2-0.3-0.4-0.3-0.7s0.1-0.5,0.3-0.7c0.2-0.2,0.4-0.3,0.7-0.3h2.5v-2.5c0-0.3,0.1-0.5,0.3-0.7c0.2-0.2,0.4-0.3,0.7-0.3
						c0.3,0,0.5,0.1,0.7,0.3c0.2,0.2,0.3,0.4,0.3,0.7v2.5h2.5C213.2,530.9,213.4,531,213.6,531.2z"/>
					<path class="st5" d="M222.8,529.3c0.6,0.3,1.1,0.8,1.4,1.4c0.3,0.6,0.5,1.3,0.5,2.1c0,0.8-0.2,1.6-0.6,2.2
						c-0.4,0.6-1,1.2-1.7,1.5c-0.7,0.4-1.5,0.5-2.5,0.5c-0.7,0-1.5-0.1-2.2-0.3c-0.7-0.2-1.3-0.5-1.8-1c-0.2-0.1-0.3-0.3-0.4-0.4
						c-0.1-0.1-0.1-0.3-0.1-0.5c0-0.3,0.1-0.6,0.3-0.8s0.4-0.3,0.6-0.3c0.1,0,0.3,0,0.4,0.1c0.1,0,0.3,0.1,0.5,0.2
						c0.5,0.3,0.9,0.5,1.3,0.7s0.8,0.2,1.3,0.2c0.7,0,1.3-0.2,1.7-0.5s0.6-0.8,0.6-1.5c0-0.6-0.2-1.1-0.6-1.5
						c-0.4-0.4-0.9-0.5-1.6-0.5c-0.4,0-0.8,0.1-1.1,0.2c-0.3,0.1-0.7,0.3-1.1,0.5c-0.3,0.1-0.5,0.2-0.8,0.2c-0.3,0-0.5-0.1-0.7-0.3
						c-0.2-0.2-0.3-0.4-0.3-0.7v-5.2c0-0.4,0.1-0.7,0.3-1c0.2-0.2,0.6-0.3,1-0.3h5.8c0.9,0,1.3,0.4,1.3,1.1c0,0.7-0.4,1.1-1.3,1.1
						h-4.4v2.8c0.6-0.3,1.3-0.5,2-0.5C221.5,528.8,222.2,529,222.8,529.3z"/>
					<path class="st5" d="M227,535.5c-0.8-1.1-1.2-2.7-1.2-4.8c0-2.1,0.4-3.7,1.2-4.8s2-1.7,3.5-1.7s2.7,0.6,3.5,1.7
						c0.8,1.1,1.2,2.7,1.2,4.8c0,2.1-0.4,3.7-1.2,4.8c-0.8,1.1-2,1.7-3.5,1.7S227.8,536.6,227,535.5z M232.1,534
						c0.3-0.7,0.5-1.8,0.5-3.3c0-1.5-0.2-2.6-0.5-3.3c-0.3-0.7-0.8-1-1.5-1s-1.2,0.3-1.5,1s-0.5,1.8-0.5,3.3c0,1.5,0.2,2.6,0.5,3.3
						c0.3,0.7,0.8,1,1.5,1S231.7,534.7,232.1,534z"/>
				</g>
			</g>
		</g>
	</g>
</g>
</svg>
