<svg xmlns="http://www.w3.org/2000/svg" width="206" height="34" viewBox="0 0 206 34">
  <g id="Follow" transform="translate(-16 -224)">
    <g id="Rectangle_1102" data-name="Rectangle 1102" transform="translate(16 224)" fill="#fff" stroke="#f86464" stroke-width="2">
      <rect width="206" height="34" rx="10" stroke="none"/>
      <rect x="1" y="1" width="204" height="32" rx="9" fill="none"/>
    </g>
    <text id="Follow-2" data-name="Follow" transform="translate(136 246)" fill="#f86464" font-size="16" font-family="Nunito-Bold, Nunito" font-weight="700"><tspan x="-25.376" y="0">Follow</tspan></text>
    <g id="Icon_ionic-md-person-add" data-name="Icon ionic-md-person-add" transform="translate(75.875 227)">
      <path id="Path_6696" data-name="Path 6696" d="M17.375,14a4.75,4.75,0,1,0-4.75-4.75A4.764,4.764,0,0,0,17.375,14Zm0,2.375c-3.147,0-9.5,1.6-9.5,4.75V23.5h19V21.125C26.875,17.978,20.522,16.375,17.375,16.375Z" transform="translate(-2)" fill="#f86464"/>
      <path id="Path_6697" data-name="Path 6697" d="M5.875,14.417V11.25H4.292v3.167H1.125V16H4.292v3.167H5.875V16H9.042V14.417Z" transform="translate(0 -2)" fill="#f86464"/>
    </g>
  </g>
</svg>
