<?xml version="1.0" encoding="utf-8"?>
<!-- Generator: Adobe Illustrator 25.0.1, SVG Export Plug-In . SVG Version: 6.00 Build 0)  -->
<svg version="1.1" id="Camada_1" xmlns="http://www.w3.org/2000/svg" xmlns:xlink="http://www.w3.org/1999/xlink" x="0px" y="0px"
	 viewBox="0 0 203.4 163.2" style="enable-background:new 0 0 203.4 163.2;" xml:space="preserve">
<style type="text/css">
	.st0{fill:#EDEDED;}
</style>
<g id="Icon_metro-bubble">
	<path class="st0" d="M94.3,163.2c-50.1,0-91.1-25-94.1-59.3c-3.3-37.2,39.7-71.5,95.6-76.4c4.9-0.4,9.8-0.6,14.7-0.6
		c20.6-19.3,47-24.5,70.1-26.9c0.7-0.1,1.3,0.1,1.9,0.6c0.5,0.4,0.8,1,0.9,1.7l0.4,4.2c0.1,1-0.5,2-1.4,2.5
		c-10.3,5.2-22.1,14.9-21.1,25.5c0.1,1,0.2,1.9,0.4,2.9c24.6,10.8,39.7,28.6,41.5,48.9c3.3,37.2-39.7,71.5-95.6,76.4l0,0
		C103.1,163,98.7,163.2,94.3,163.2z M107.4,160.1L107.4,160.1L107.4,160.1z M109.3,31.9c-4.3,0-8.7,0.2-13,0.6
		C43,37.2,2.1,69,5.2,103.5s48.8,58.8,102,54.1l0,0c53.2-4.7,94.1-36.5,91.1-71c-1.6-18.8-16.1-35.3-39.6-45.3
		c-0.7-0.3-1.2-0.9-1.4-1.6c-0.4-1.6-0.7-3.3-0.9-4.9c-1.1-12.5,10.6-23.3,22.4-29.6c-23,2.6-46.6,7.8-65.4,26
		c-0.5,0.5-1.1,0.7-1.8,0.7C110.8,31.9,110,31.9,109.3,31.9z"/>
</g>
</svg>
