<?xml version="1.0" encoding="utf-8"?>
<!-- Generator: Adobe Illustrator 25.0.1, SVG Export Plug-In . SVG Version: 6.00 Build 0)  -->
<svg version="1.1" id="Camada_1" xmlns="http://www.w3.org/2000/svg" xmlns:xlink="http://www.w3.org/1999/xlink" x="0px" y="0px"
	 viewBox="0 0 77.1 73.5" style="enable-background:new 0 0 77.1 73.5;" xml:space="preserve">
<style type="text/css">
	.st0{fill:#FFFFFF;}
	.st1{display:none;}
	.st2{display:inline;fill:#EDEDED;}
	.st3{display:inline;}
	.st4{fill:#7E8387;}
	.st5{display:inline;fill:#F9E7D6;}
	.st6{display:inline;fill:#7E8387;}
	.st7{display:inline;fill:#E1D1C0;}
	.st8{display:inline;fill:#E8423F;}
	.st9{display:inline;fill:#CF3330;}
	.st10{display:inline;fill:#C5312E;}
	.st11{display:inline;fill:#C1C4C5;}
	.st12{display:inline;fill:#FFFFFF;fill-opacity:0;}
</style>
<g id="Stove-top_cooking" transform="translate(9 6)">
	<g id="Badge.Technique" transform="translate(0 0)">
		<g transform="matrix(1, 0, 0, 1, -9, -6)">
			<path id="Gold_tech-2" class="st0" d="M35,1.1c2.1-1.5,4.9-1.5,7,0l32.5,23.5c2.1,1.5,3,4.2,2.2,6.7l-12.4,38
				c-0.8,2.5-3.1,4.1-5.7,4.1H18.4c-2.6,0-4.9-1.7-5.7-4.1l-12.4-38c-0.8-2.5,0.1-5.2,2.2-6.7L35,1.1z"/>
		</g>
		<g transform="matrix(1, 0, 0, 1, -9, -6)" class="st1">
			<path id="Base-2" class="st2" d="M35.4,8.7c2.1-1.5,4.9-1.5,7,0l26.2,18.7c2.1,1.5,3,4.3,2.2,6.8l-10,30.2
				c-0.8,2.5-3.1,4.1-5.7,4.1H22.6c-2.6,0-4.9-1.7-5.7-4.1L7,34.2c-0.8-2.5,0.1-5.2,2.2-6.8L35.4,8.7z"/>
		</g>
	</g>
	<g id="_043-cooking_stove" transform="translate(18.189 19.994)" class="st1">
		<g id="Grupo_2176" transform="translate(0.751 21.771)" class="st3">
			<path id="Caminho_6016" class="st4" d="M-7.1-7.4h-2.2c-0.4,0-0.8,0.3-0.8,0.8l0,0v4.5c0,0.4,0.3,0.8,0.7,0.8
				c0.4,0,0.8-0.3,0.8-0.7c0,0,0-0.1,0-0.1v-3.8h1.5c0.4,0,0.8-0.3,0.8-0.7C-6.3-7-6.6-7.4-7.1-7.4C-7-7.4-7-7.4-7.1-7.4z"/>
			<path id="Caminho_6017" class="st4" d="M8.7-7.4H6.5C6-7.4,5.7-7.1,5.7-6.7c0,0.4,0.3,0.8,0.7,0.8c0,0,0.1,0,0.1,0H8v3.8
				c0,0.4,0.3,0.8,0.7,0.8c0.4,0,0.8-0.3,0.8-0.7c0,0,0-0.1,0-0.1v-4.5C9.5-7.1,9.1-7.4,8.7-7.4C8.7-7.4,8.7-7.4,8.7-7.4z"/>
			<path id="Caminho_6018" class="st4" d="M4.2-5.2H0.4v-0.8c0-0.4-0.3-0.8-0.7-0.8C-0.7-6.7-1-6.4-1.1-6c0,0,0,0.1,0,0.1v0.8h-3.8
				c-0.4,0-0.8,0.3-0.8,0.8l0,0v3c0,0.4,0.3,0.8,0.8,0.8h0h9C4.6-0.7,5-1,5-1.4l0,0v-3C5-4.8,4.6-5.2,4.2-5.2
				C4.2-5.2,4.2-5.2,4.2-5.2z M-4.1-3.7h3v1.5h-3V-3.7z M3.4-2.2h-3v-1.5h3V-2.2z"/>
			<path id="Caminho_6019" class="st4" d="M31.2-7.4H29c-0.4,0-0.8,0.3-0.8,0.7c0,0.4,0.3,0.8,0.7,0.8c0,0,0.1,0,0.1,0h1.5v3.8
				c0,0.4,0.4,0.7,0.8,0.7c0.4,0,0.7-0.3,0.7-0.7v-4.5C32-7.1,31.6-7.4,31.2-7.4z"/>
			<path id="Caminho_6020" class="st4" d="M15.5-7.4h-2.3c-0.4,0-0.8,0.3-0.8,0.8l0,0v4.5c0,0.4,0.4,0.7,0.8,0.7
				c0.4,0,0.7-0.3,0.7-0.7v-3.8h1.5c0.4,0,0.8-0.3,0.8-0.7C16.3-7,16-7.4,15.5-7.4C15.5-7.4,15.5-7.4,15.5-7.4z"/>
			<path id="Caminho_6021" class="st4" d="M26.7-5.2H23v-0.8c0-0.4-0.3-0.8-0.7-0.8c-0.4,0-0.8,0.3-0.8,0.7c0,0,0,0.1,0,0.1v0.8
				h-3.8c-0.4,0-0.8,0.3-0.8,0.8l0,0v3c0,0.4,0.3,0.8,0.8,0.8l0,0h9c0.4,0,0.8-0.3,0.8-0.8l0,0v-3C27.5-4.8,27.1-5.2,26.7-5.2
				C26.7-5.2,26.7-5.2,26.7-5.2z M18.5-3.7h3v1.5h-3V-3.7z M26-2.2h-3v-1.5h3V-2.2z"/>
		</g>
		<path id="Caminho_6022" class="st5" d="M-10.1,19.6h43.5v12h-43.5V19.6z"/>
		<path id="Caminho_6023" class="st6" d="M-7.1,22.6h37.5v6H-7.1V22.6z"/>
		<path id="Caminho_6024" class="st6" d="M-10.1,31.6h6v3h-6V31.6z"/>
		<path id="Caminho_6025" class="st6" d="M27.5,31.6h6v3h-6V31.6z"/>
		<circle id="Elipse_562" class="st5" cx="0.3" cy="25.8" r="3"/>
		<path id="Caminho_6026" class="st7" d="M0.4,29.4c-0.4,0-0.8-0.3-0.8-0.8l0,0v-6c0-0.4,0.4-0.7,0.8-0.7c0.4,0,0.7,0.3,0.7,0.7v6
			C1.2,29,0.9,29.4,0.4,29.4z"/>
		<circle id="Elipse_563" class="st5" cx="23" cy="25.8" r="3"/>
		<path id="Caminho_6027" class="st7" d="M20.8,28.5c-0.4,0-0.8-0.3-0.8-0.8c0-0.2,0.1-0.4,0.2-0.5l4.2-4.2c0.3-0.3,0.8-0.3,1.1,0
			s0.3,0.8,0,1.1c0,0,0,0,0,0l-4.2,4.2C21.2,28.4,21,28.5,20.8,28.5z"/>
		<path id="Caminho_6028" class="st8" d="M15.5,3.9h15v9c0,0.8-0.7,1.5-1.5,1.5H17c-0.8,0-1.5-0.7-1.5-1.5V3.9z"/>
		<path id="Caminho_6029" class="st9" d="M14,3.9h1.5v3H14c-0.8,0-1.5-0.7-1.5-1.5S13.1,3.9,14,3.9z"/>
		<path id="Caminho_6030" class="st9" d="M30.5,3.9H32c0.8,0,1.5,0.7,1.5,1.5S32.8,6.9,32,6.9h-1.5V3.9z"/>
		<path id="Caminho_6031" class="st10" d="M18.5,12.1c-0.4,0-0.8-0.3-0.8-0.8v0V6.9c0-0.4,0.4-0.7,0.8-0.7c0.4,0,0.7,0.3,0.7,0.7
			v4.5C19.2,11.8,18.9,12.1,18.5,12.1z"/>
		<path id="Caminho_6032" class="st11" d="M22.2,0.1c-0.4,0-0.8-0.3-0.7-0.8c0-0.1,0-0.3,0.1-0.4l0.9-1.4c0.2-0.3,0.2-0.6,0-0.8
			l-0.3-0.4c-0.6-0.9-0.5-2.1,0.3-2.8l0.6-0.6c0.3-0.3,0.8-0.3,1.1,0c0.3,0.3,0.3,0.8,0,1l-0.6,0.6c-0.3,0.3-0.3,0.6-0.1,0.9
			l0.3,0.4c0.5,0.8,0.5,1.7,0,2.5l-0.9,1.4C22.7,0,22.5,0.1,22.2,0.1z"/>
		<path id="Caminho_6033" class="st11" d="M17.7,1.6c-0.4,0-0.8-0.3-0.7-0.8c0-0.1,0-0.3,0.1-0.4L18-1c0.2-0.3,0.2-0.6,0-0.8
			l-0.3-0.4c-0.6-0.9-0.5-2.1,0.3-2.8l0.6-0.6C19-6,19.5-6,19.7-5.7c0.3,0.3,0.3,0.8,0,1L19.1-4C18.9-3.7,18.8-3.3,19-3l0.3,0.4
			c0.5,0.8,0.5,1.7,0,2.5l-0.9,1.4C18.2,1.5,18,1.6,17.7,1.6z"/>
		<path id="Caminho_6034" class="st11" d="M26.7,1.6c-0.4,0-0.8-0.3-0.7-0.8c0-0.1,0-0.3,0.1-0.4L27-1c0.2-0.3,0.2-0.6,0-0.8
			l-0.3-0.4c-0.6-0.9-0.5-2.1,0.3-2.8l0.6-0.6C28-6,28.5-6,28.8-5.7c0.3,0.3,0.3,0.8,0,1L28.1-4C27.9-3.7,27.8-3.3,28-3l0.3,0.4
			c0.5,0.8,0.5,1.7,0,2.5l-0.9,1.4C27.2,1.5,27,1.6,26.7,1.6z"/>
	</g>
	<g transform="matrix(1, 0, 0, 1, -9, -6)" class="st1">
		<path id="BW-2" class="st12" d="M35,11.4c2.1-1.5,4.9-1.5,7,0l24.9,17.8c2.1,1.5,3,4.3,2.2,6.8l-9.5,28.6
			c-0.8,2.5-3.1,4.1-5.7,4.1H23.1c-2.6,0-4.9-1.7-5.7-4.1L7.9,35.9c-0.8-2.5,0.1-5.2,2.2-6.8L35,11.4z"/>
	</g>
</g>
</svg>
