<?xml version="1.0" encoding="utf-8"?>
<!-- Generator: Adobe Illustrator 25.0.1, SVG Export Plug-In . SVG Version: 6.00 Build 0)  -->
<svg version="1.1" id="Camada_1" xmlns="http://www.w3.org/2000/svg" xmlns:xlink="http://www.w3.org/1999/xlink" x="0px" y="0px"
	 viewBox="0 0 36.7 20.4" style="enable-background:new 0 0 36.7 20.4;" xml:space="preserve">
<style type="text/css">
	.st0{fill:#BFBFBF;}
	.st1{fill:#FFFFFF;}
</style>
<path class="st0" d="M26.4,20.2h-16c-5.5,0-10-4.5-10-10v0c0-5.5,4.5-10,10-10h16c5.5,0,10,4.5,10,10v0
	C36.4,15.7,31.9,20.2,26.4,20.2z"/>
<g>
	<path class="st1" d="M10.4,19.7c-5.2,0-9.5-4.3-9.5-9.5c0-5.2,4.3-9.5,9.5-9.5s9.5,4.3,9.5,9.5C19.9,15.4,15.6,19.7,10.4,19.7z"/>
	<path class="st0" d="M10.4,1.2c5,0,9,4,9,9s-4,9-9,9s-9-4-9-9S5.4,1.2,10.4,1.2 M10.4,0.2c-5.5,0-10,4.5-10,10s4.5,10,10,10
		s10-4.5,10-10S15.9,0.2,10.4,0.2L10.4,0.2z"/>
</g>
</svg>
