<?xml version="1.0" encoding="utf-8"?>
<!-- Generator: Adobe Illustrator 25.0.1, SVG Export Plug-In . SVG Version: 6.00 Build 0)  -->
<svg version="1.1" id="Camada_1" xmlns="http://www.w3.org/2000/svg" xmlns:xlink="http://www.w3.org/1999/xlink" x="0px" y="0px"
	 viewBox="0 0 73.7 73.7" style="enable-background:new 0 0 73.7 73.7;" xml:space="preserve">
<style type="text/css">
	.st0{fill:#FFFFFF;}
	.st1{display:none;}
	.st2{display:inline;fill:#EDEDED;}
	.st3{display:inline;}
	.st4{fill:#777078;}
	.st5{fill:#FAFAEF;}
	.st6{fill:#D4CFD5;}
	.st7{fill:#E6E6D3;}
	.st8{fill:#C5BEC6;}
	.st9{fill:#968D97;}
	.st10{fill:#877F87;}
	.st11{display:inline;fill:#596063;}
	.st12{display:inline;fill:#7E8387;}
	.st13{display:inline;fill:#757C80;}
	.st14{fill:#596063;}
	.st15{display:inline;fill:#FFFFFF;fill-opacity:0;}
</style>
<g id="Pots_and_pans" transform="translate(-147 -897)">
	<g id="Badge.Equip" transform="translate(156 903)">
		<g transform="matrix(1, 0, 0, 1, -9, -6)">
			<path id="Gold-2" class="st0" d="M34,1.2c1.6-1.6,4.1-1.6,5.7,0c0,0,0,0,0,0L72.5,34c1.6,1.6,1.6,4.1,0,5.7c0,0,0,0,0,0
				L39.7,72.5c-1.6,1.6-4.1,1.6-5.7,0c0,0,0,0,0,0L1.2,39.7c-1.6-1.6-1.6-4.1,0-5.7c0,0,0,0,0,0L34,1.2z"/>
		</g>
		<g transform="matrix(1, 0, 0, 1, -9, -6)" class="st1">
			<path id="Base-2" class="st2" d="M34,8.2c1.6-1.6,4.1-1.6,5.7,0c0,0,0,0,0,0L65.5,34c1.6,1.6,1.6,4.1,0,5.7c0,0,0,0,0,0
				L39.7,65.5c-1.6,1.6-4.1,1.6-5.7,0c0,0,0,0,0,0L8.2,39.7c-1.6-1.6-1.6-4.1,0-5.7c0,0,0,0,0,0L34,8.2z"/>
		</g>
	</g>
	<g id="_039-pot" transform="translate(172.971 927.145)" class="st1">
		<g id="Grupo_2075" transform="translate(0 8.449)" class="st3">
			<path id="Caminho_5835" class="st4" d="M-9-5.2h2.3l0.6-1.2l-0.6-1.2h-3.2c-0.4,0-0.7,0.3-0.7,0.7c0,0,0,0,0,0v0.1
				C-10.7-5.9-9.9-5.2-9-5.2L-9-5.2z"/>
		</g>
		<g id="Grupo_2076" transform="translate(27.002 8.449)" class="st3">
			<path id="Caminho_5836" class="st4" d="M-7.8-5.2H-10l-0.6-1.2l0.6-1.2h3.2c0.4,0,0.7,0.3,0.7,0.7v0.1C-6.1-5.9-6.9-5.2-7.8-5.2z
				"/>
		</g>
		<g id="Grupo_2079" transform="translate(3.914 3.467)" class="st3">
			<path id="Caminho_5839" class="st5" d="M8.1-7.7H-5.7c-2.8,0-5,2.2-5,5L1.2-2l11.9-0.6C13.1-5.4,10.8-7.7,8.1-7.7
				C8.1-7.7,8.1-7.7,8.1-7.7z"/>
		</g>
		<g id="Grupo_2080" transform="translate(3.915 8.449)" class="st3">
			<path id="Caminho_5840" class="st6" d="M12.9-1.3C13-1.7,13.1-2,13.1-2.4v-5.3h-23.7v5.3c0,0.4,0.1,0.7,0.2,1.1H12.9z"/>
		</g>
		<g id="Grupo_2081" transform="translate(20.751 3.467)" class="st3">
			<path id="Caminho_5841" class="st7" d="M-8.8-7.7h-1.9c2.8,0,5,2.2,5,5l1,0.6l0.9-0.6C-3.8-5.4-6-7.7-8.8-7.7
				C-8.7-7.7-8.7-7.7-8.8-7.7z"/>
		</g>
		<g id="Grupo_2082" transform="translate(25.575 8.449)" class="st3">
			<path id="Caminho_5842" class="st8" d="M-8.8-1.3C-8.6-1.7-8.6-2-8.6-2.4v-5.3h-1.9v5.3c0,0.4-0.1,0.7-0.2,1.1H-8.8z"/>
		</g>
		<g id="Grupo_2083" transform="translate(12.933 0)" class="st3">
			<path id="Caminho_5843" class="st9" d="M-5-4.2h-5.7v-0.6c0-1.6,1.3-2.8,2.8-2.8C-6.3-7.7-5-6.4-5-4.8c0,0,0,0,0,0V-4.2z"/>
		</g>
		<g id="Grupo_2084" transform="translate(14.806 0)" class="st3">
			<path id="Caminho_5844" class="st10" d="M-9.7-7.7c-0.3,0-0.6,0.1-1,0.2C-9.5-7.1-8.8-6-8.8-4.8v0.6h1.9v-0.6
				C-6.9-6.4-8.1-7.7-9.7-7.7z"/>
		</g>
		<g id="Grupo_2085" transform="translate(3.915 13.897)" class="st3">
			<path id="Caminho_5845" class="st6" d="M9.5,1.2H-7c-2,0-3.6-1.6-3.6-3.6v-5.3h23.7v5.3C13.1-0.4,11.5,1.2,9.5,1.2z"/>
		</g>
		<g id="Grupo_2086" transform="translate(22.126 13.897)" class="st3">
			<path id="Caminho_5846" class="st8" d="M-7-7.7v5.3c0,2-1.6,3.6-3.6,3.6h1.9c2,0,3.6-1.6,3.6-3.6v-5.3H-7z"/>
		</g>
	</g>
	<g id="_032-pans" transform="translate(183.983 938.531)" class="st1">
		<path id="Caminho_5847" class="st11" d="M9,5.2C8.8,5.2,8.6,5,8.5,4.9c-0.1-0.2-0.1-0.4,0-0.6c1-1.4,2.7-2.1,4.4-2
			c0.3,0,0.6,0.3,0.6,0.6c0,0.3-0.3,0.6-0.6,0.6c-1.3-0.1-2.6,0.5-3.5,1.5C9.4,5.1,9.2,5.2,9,5.2L9,5.2z"/>
		<path id="Caminho_5848" class="st11" d="M7.9,0.5c-0.2,0-0.4-0.1-0.5-0.3C7.3,0,7.3-0.2,7.4-0.4c1-1.4,2.7-2.1,4.4-2
			c0.3,0,0.6,0.3,0.6,0.6c0,0.3-0.3,0.6-0.6,0.6c-1.3-0.1-2.6,0.5-3.5,1.5C8.2,0.4,8.1,0.5,7.9,0.5z"/>
		<path id="Caminho_5849" class="st11" d="M6.2-4.2C6-4.2,5.8-4.3,5.7-4.5c-0.1-0.2-0.1-0.4,0-0.6c1-1.4,2.7-2.1,4.4-2
			c0.3,0,0.6,0.3,0.6,0.6c0,0.3-0.3,0.6-0.6,0.6C8.8-6,7.5-5.5,6.7-4.4C6.6-4.3,6.4-4.2,6.2-4.2z"/>
		<path id="Caminho_5850" class="st12" d="M-9.5-0.7h18v1.2C8.5,2.4,7,4,5.1,4c0,0,0,0,0,0H-6.2c-1.9,0-3.4-1.6-3.4-3.5c0,0,0,0,0,0
			V-0.7z"/>
		<path id="Caminho_5851" class="st12" d="M-7.9-5.3H6.7v1.2c0,1.9-1.5,3.5-3.4,3.5c0,0,0,0,0,0h-7.9c-1.9,0-3.4-1.6-3.4-3.5
			c0,0,0,0,0,0L-7.9-5.3z"/>
		<path id="Caminho_5852" class="st12" d="M-10.7,4H9.5v1.2c0,2.5-2,4.6-4.5,4.7H-6.2c-2.5,0-4.5-2.1-4.5-4.7V4z"/>
		<path id="Caminho_5853" class="st12" d="M12.9,1.7h2.2V4h-2.2V1.7z"/>
		<path id="Caminho_5854" class="st11" d="M20.8,4h-5.6V1.7h5.6c0.6,0,1.1,0.6,1.1,1.2C21.9,3.5,21.4,4,20.8,4z"/>
		<path id="Caminho_5855" class="st12" d="M11.8-3H14v2.3h-2.2V-3z"/>
		<path id="Caminho_5856" class="st11" d="M14-3h4.5c0.6,0,1.1,0.6,1.1,1.2c0,0.6-0.5,1.1-1.1,1.1H14V-3z"/>
		<path id="Caminho_5857" class="st13" d="M10.1-7.7h2.2v2.3h-2.2V-7.7z"/>
		<g id="Grupo_2087" transform="translate(1.52 0)" class="st3">
			<path id="Caminho_5858" class="st14" d="M10.8-7.7h3.4c0.6,0,1.1,0.6,1.1,1.2c0,0.6-0.5,1.1-1.1,1.1h-3.4V-7.7z"/>
			<path id="Caminho_5859" class="st14" d="M4.4-1.8C3.7-1.1,2.8-0.7,1.9-0.7H-6c-1,0-1.9-0.4-2.5-1.2H4.4z"/>
			<path id="Caminho_5860" class="st14" d="M6,2.8C5.4,3.6,4.5,4,3.5,4H-7.7c-1,0-1.9-0.4-2.5-1.2H6z"/>
			<path id="Caminho_5861" class="st14" d="M6.5,8.7c-0.8,0.7-1.9,1.2-3,1.2H-7.7c-1.1,0-2.2-0.4-3-1.2H6.5z"/>
		</g>
	</g>
	<g transform="matrix(1, 0, 0, 1, 147, 897)" class="st1">
		<path id="BW-2" class="st15" d="M34,9.2c1.6-1.6,4.1-1.6,5.7,0c0,0,0,0,0,0L64.5,34c1.6,1.6,1.6,4.1,0,5.7c0,0,0,0,0,0L39.7,64.5
			c-1.6,1.6-4.1,1.6-5.7,0c0,0,0,0,0,0L9.2,39.7c-1.6-1.6-1.6-4.1,0-5.7c0,0,0,0,0,0L34,9.2z"/>
	</g>
</g>
</svg>
