<?xml version="1.0" encoding="utf-8"?>
<!-- Generator: Adobe Illustrator 25.0.1, SVG Export Plug-In . SVG Version: 6.00 Build 0)  -->
<svg version="1.1" id="Camada_1" xmlns="http://www.w3.org/2000/svg" xmlns:xlink="http://www.w3.org/1999/xlink" x="0px" y="0px"
	 viewBox="0 0 129 129" style="enable-background:new 0 0 129 129;" xml:space="preserve">
<style type="text/css">
	.st0{fill:#F86464;}
	.st1{opacity:0.2;fill:#FFFFFF;enable-background:new    ;}
	.st2{fill:#FFFFFF;}
	.st3{fill:#FFEA65;}
	.st4{fill:#FED223;}
	.st5{fill:#994C0F;}
	.st6{fill:#713708;}
	.st7{opacity:0.6;fill:#FFFFFF;}
</style>
<g id="Grupo_2210" transform="translate(-48 -415)">
	<path id="Retângulo_474" class="st0" d="M58,415h109c5.5,0,10,4.5,10,10v109c0,5.5-4.5,10-10,10H58c-5.5,0-10-4.5-10-10V425
		C48,419.5,52.5,415,58,415z"/>
	<g id="Lock" transform="translate(66.445 433.445)">
		<circle id="Elipse_74" class="st1" cx="46.1" cy="46.1" r="46.1"/>
		<circle id="Elipse_75" class="st1" cx="46.1" cy="46.1" r="32.4"/>
		<circle id="Elipse_76" class="st2" cx="46.1" cy="46.1" r="21.4"/>
	</g>
	<g id="cookie" transform="translate(100.261 467.124)">
		<path id="Caminho_1480" class="st3" d="M24,11.3c-1.4-0.5-2.4-1.9-2.4-3.4c0-0.2-0.1-0.5-0.3-0.6c-0.2-0.1-0.4-0.2-0.6-0.2
			c-1.2,0.2-2.3-0.1-3.2-0.9c-0.9-0.7-1.5-1.8-1.6-3c0-0.2-0.1-0.4-0.3-0.5c-0.2-0.1-0.4-0.1-0.6-0.1c-1.9,0.6-3.8-0.4-4.5-2.2
			C10.3,0.1,10-0.1,9.6,0C6.9,0.7,4.4,2.3,2.7,4.5c-3.9,4.9-3.5,11.9,0.9,16.4c4.8,4.8,12.5,4.8,17.3,0c0,0,0,0,0,0
			c2.3-2.3,3.6-5.4,3.7-8.7C24.5,11.7,24.5,11.4,24,11.3z"/>
		<path id="Caminho_1481" class="st4" d="M24.5,12.2c0,3.3-1.4,6.4-3.7,8.7c-4.8,4.8-12.5,4.8-17.3,0c0,0,0,0,0,0l14-14.7
			c0.9,0.7,2.1,1,3.2,0.9c0.2,0,0.4,0,0.6,0.2c0.2,0.1,0.3,0.4,0.3,0.6c0,1.5,1,2.9,2.4,3.4C24.5,11.4,24.5,11.7,24.5,12.2z"/>
		<path id="Caminho_1482" class="st5" d="M9.3,15c-0.4-0.3-0.9-0.5-1.4-0.5c-1.2,0-2.2,1-2.2,2.1c0,0,0,0,0,0c0,1.2,1,2.1,2.2,2.2
			c1.2,0,2.2-1,2.2-2.1c0,0,0,0,0,0C10.1,16,9.8,15.4,9.3,15z"/>
		<g id="Grupo_599" transform="translate(12.928 10.151)">
			<path id="Caminho_1483" class="st6" d="M2.2,4.3C1,4.3,0,3.3,0,2.2S1,0,2.2,0s2.2,1,2.2,2.2l0,0C4.3,3.3,3.3,4.3,2.2,4.3z"/>
			<path id="Caminho_1484" class="st6" d="M1.4,10.1C0.6,10.1,0,9.4,0,8.6s0.6-1.4,1.4-1.4c0.8,0,1.4,0.6,1.4,1.4
				C2.9,9.4,2.2,10.1,1.4,10.1z"/>
		</g>
		<path id="Caminho_1485" class="st5" d="M8.6,10.2c-0.8,0-1.4-0.6-1.4-1.4c0-0.8,0.6-1.4,1.4-1.4c0.8,0,1.4,0.6,1.4,1.4l0,0
			C10.1,9.5,9.4,10.2,8.6,10.2z"/>
		<ellipse id="Elipse_187" class="st6" cx="19.4" cy="15.2" rx="0.7" ry="0.7"/>
		<ellipse id="Elipse_188" class="st5" cx="5" cy="12.4" rx="0.7" ry="0.7"/>
		<path id="Caminho_1486" class="st6" d="M10.1,16.6c0,1.2-1,2.2-2.1,2.2c0,0,0,0,0,0c-0.6,0-1.2-0.3-1.6-0.7l3-3.1
			C9.8,15.4,10.1,16,10.1,16.6z"/>
	</g>
	<path id="Key" class="st7" d="M64.1,529.3c-0.6-2.4-3-3.9-5.4-3.4c-2.4,0.6-3.9,3-3.4,5.4c0.6,2.4,3,3.9,5.4,3.4
		c1.6-0.4,2.9-1.6,3.3-3.2l15.4,0.1l0,2.4l0.8,0.1l0,1.2l-0.8,0l0,1.2l1.3,0l0-0.8l1.4,0l0,0.8l2.1,0l0-1.1l-0.8,0l0-1.2l0.9,0
		l0-2.3l2.3,0l0-2.7L64.1,529.3z M57.6,532.5c-1.2-1.2-1.2-3.1,0-4.2c1.2-1.2,3.1-1.2,4.2,0c1.2,1.2,1.2,3.1,0,4.2
		C60.6,533.6,58.8,533.6,57.6,532.5C57.6,532.5,57.6,532.5,57.6,532.5z"/>
</g>
</svg>
