<?xml version="1.0" encoding="utf-8"?>
<!-- Generator: Adobe Illustrator 25.0.1, SVG Export Plug-In . SVG Version: 6.00 Build 0)  -->
<svg version="1.1" id="Camada_1" xmlns="http://www.w3.org/2000/svg" xmlns:xlink="http://www.w3.org/1999/xlink" x="0px" y="0px"
	 viewBox="0 0 129 129" style="enable-background:new 0 0 129 129;" xml:space="preserve">
<style type="text/css">
	.st0{fill:#F86464;}
	.st1{opacity:0.2;fill:#FFFFFF;enable-background:new    ;}
	.st2{fill:#FFFFFF;}
	.st3{opacity:0.6;fill:#FFFFFF;}
</style>
<g id="Grupo_2209" transform="translate(-199 -415)">
	<path id="Retângulo_475" class="st0" d="M209,415h109c5.5,0,10,4.5,10,10v109c0,5.5-4.5,10-10,10H209c-5.5,0-10-4.5-10-10V425
		C199,419.5,203.5,415,209,415z"/>
	<g id="Lock" transform="translate(217.445 433.445)">
		<circle id="Elipse_74" class="st1" cx="46.1" cy="46.1" r="46.1"/>
		<circle id="Elipse_75" class="st1" cx="46.1" cy="46.1" r="32.4"/>
		<circle id="Elipse_76" class="st2" cx="46.1" cy="46.1" r="21.4"/>
	</g>
	<path id="Icon_awesome-play" class="st0" d="M270.4,478.2L260,472c-0.7-0.4-1.5-0.2-1.9,0.5c-0.1,0.2-0.2,0.5-0.2,0.7v12.3
		c0,0.8,0.6,1.4,1.4,1.4c0.3,0,0.5-0.1,0.7-0.2l10.4-6.1c0.7-0.4,0.9-1.3,0.5-1.9C270.8,478.5,270.6,478.3,270.4,478.2z"/>
	<path id="Key" class="st3" d="M215.1,529.3c-0.6-2.4-3-3.9-5.4-3.4c-2.4,0.6-3.9,3-3.4,5.4c0.6,2.4,3,3.9,5.4,3.4
		c1.6-0.4,2.9-1.6,3.3-3.2l15.4,0.1l0,2.4l0.8,0.1l0,1.2l-0.8,0l0,1.2l1.3,0l0-0.8l1.4,0l0,0.8l2.1,0l0-1.1l-0.8,0l0-1.2l0.9,0
		l0-2.3l2.3,0l0-2.7L215.1,529.3z M208.6,532.5c-1.2-1.2-1.2-3.1,0-4.2c1.2-1.2,3.1-1.2,4.2,0c1.2,1.2,1.2,3.1,0,4.2
		C211.6,533.6,209.8,533.6,208.6,532.5C208.6,532.5,208.6,532.5,208.6,532.5z"/>
</g>
</svg>
