<?xml version="1.0" encoding="utf-8"?>
<!-- Generator: Adobe Illustrator 25.0.1, SVG Export Plug-In . SVG Version: 6.00 Build 0)  -->
<svg version="1.1"
	 id="Camada_1" xmlns:cc="http://creativecommons.org/ns#" xmlns:dc="http://purl.org/dc/elements/1.1/" xmlns:inkscape="http://www.inkscape.org/namespaces/inkscape" xmlns:rdf="http://www.w3.org/1999/02/22-rdf-syntax-ns#" xmlns:sodipodi="http://sodipodi.sourceforge.net/DTD/sodipodi-0.dtd" xmlns:svg="http://www.w3.org/2000/svg"
	 xmlns="http://www.w3.org/2000/svg" xmlns:xlink="http://www.w3.org/1999/xlink" x="0px" y="0px" viewBox="0 0 193 194"
	 style="enable-background:new 0 0 193 194;" xml:space="preserve">
<style type="text/css">
	.st0{fill:#FCFAFA;}
</style>
<g transform="translate(0,-1036.3622)">
	<g transform="translate(-2.5265734,1.0312727)">
		<g transform="translate(1.2943666,-0.33897736)">
			<g transform="matrix(-1,0,0,-1,17.257575,2087.526)">
				<path class="st0" d="M-49.3,1029.9l1-5.8l4.8-18.2h-24l0,0l5.8,8.6c-8.6,4.8-18.2,6.7-27.8,3.8c-10.6-3.8-19.2-11.5-23-22.1
					l-4.8,1c4.8,12.5,14.4,22.1,26.9,25.9c5.8,1,12.5,1.9,18.2,1c4.8,0,9.6-1.9,14.4-4.8L-49.3,1029.9z M-38.7,997.2L-38.7,997.2
					L-38.7,997.2L-38.7,997.2l1-4.8l-5.8-1l-1,4.8l0,0L-38.7,997.2z M-119.3,987.6h5.8v-5.8h-5.8V987.6z M-36.8,984.8L-36.8,984.8
					L-36.8,984.8L-36.8,984.8V980h-6.7v4.8l0,0H-36.8z M-114.5,977.1l1-4.8h-1.9l-2.9-1l0,0l0,0l-1,4.8l0,0l0,0l0,0h3.8
					L-114.5,977.1z M-45.4,973.2l6.7-2.9l0,0l0,0l0,0l-2.9-4.8l-4.8,2.9L-45.4,973.2L-45.4,973.2z M-110.7,966.5l2.9-4.8l0,0l0,0
					l0,0l0,0l-3.8-2.9l0,0l0,0l0,0l-2.9,4.8L-110.7,966.5z M-50.2,963.6L-50.2,963.6L-50.2,963.6L-50.2,963.6l4.8-3.8l0,0l0,0l0,0
					l-3.8-3.8l-4.8,3.8L-50.2,963.6L-50.2,963.6z M-103,958.8l3.8-3.8l0,0l0,0l0,0l-2.9-4.8l0,0l0,0l0,0l-3.8,3.8L-103,958.8z
					 M-57.9,956.9l2.9-4.8l0,0l0,0l0,0l-4.8-2.9l-2.9,4.8L-57.9,956.9L-57.9,956.9z M-95.3,954l4.8-2.9v-1v-3.8l0,0l0,0l0,0l-4.8,1
					V954z M-67.5,952.1l1-4.8l0,0l0,0l0,0l-4.8-1l-1,5.8H-67.5L-67.5,952.1z M-81.9,943.5v5.8h4.8l0,0l0,0v-1v-4.8l0,0l0,0l0,0h-5.8
					H-81.9z"/>
			</g>
		</g>
	</g>
</g>
<g>
	<path class="st0" d="M79.5,84.8v-25c-2.9,1-4.8,1.9-7.7,1.9V56c3.8-1,7.7-2.9,9.6-4.8h4.8v33.6H79.5z"/>
	<path class="st0" d="M115.9,67.5c0,9.6-2.9,18.2-13.4,18.2S89,79,89,69.4s3.8-18.2,13.4-18.2S115.9,57.9,115.9,67.5z M96.7,67.5
		c0,5.8,0,12.5,4.8,12.5c4.8,0,4.8-4.8,4.8-12.5s0-12.5-4.8-12.5C97.7,57,96.7,60.8,96.7,67.5z"/>
</g>
<g>
	<path class="st0" d="M38.6,136.9c0.8,0.3,1.4,0.7,1.9,1.4c0.4,0.5,0.6,1.1,0.8,1.8s0.2,1.2,0.2,1.8c0,1.5-0.3,2.7-0.9,3.7
		c-0.8,1.4-2,2.1-3.7,2.1h-4.7v-11h4.7C37.6,136.7,38.2,136.7,38.6,136.9z M34.4,138.6v7.2h2.1c1.1,0,1.8-0.5,2.3-1.6
		c0.2-0.6,0.4-1.3,0.4-2.1c0-1.1-0.2-2-0.5-2.6c-0.4-0.6-1.1-0.9-2.1-0.9H34.4z"/>
	<path class="st0" d="M49.8,146.6c-0.7,0.8-1.7,1.3-3.1,1.3c-1.4,0-2.4-0.4-3.1-1.3c-0.7-0.8-1-1.9-1-3.1c0-1.2,0.3-2.2,1-3
		c0.7-0.9,1.7-1.3,3.1-1.3c1.4,0,2.4,0.4,3.1,1.3c0.7,0.9,1,1.9,1,3C50.8,144.8,50.5,145.8,49.8,146.6z M48.1,145.5
		c0.3-0.4,0.5-1.1,0.5-1.9c0-0.8-0.2-1.4-0.5-1.9c-0.3-0.4-0.8-0.7-1.4-0.7s-1.1,0.2-1.4,0.7s-0.5,1.1-0.5,1.9
		c0,0.8,0.2,1.4,0.5,1.9s0.8,0.7,1.4,0.7S47.8,145.9,48.1,145.5z"/>
	<path class="st0" d="M54.5,139.5v4.9c0,0.5,0.1,0.8,0.2,1c0.2,0.4,0.6,0.6,1.1,0.6c0.7,0,1.2-0.3,1.5-0.9c0.1-0.3,0.2-0.7,0.2-1.3
		v-4.4h2.2v8.1h-2.1v-1.1c0,0-0.1,0.1-0.1,0.2c-0.1,0.1-0.2,0.2-0.3,0.3c-0.3,0.3-0.7,0.5-1,0.6c-0.3,0.1-0.7,0.2-1.1,0.2
		c-1.2,0-2-0.4-2.4-1.3c-0.2-0.5-0.3-1.2-0.3-2.1v-4.9H54.5z"/>
	<path class="st0" d="M68.7,140.5c0.6,0.8,0.9,1.8,0.9,3c0,1.3-0.3,2.3-0.9,3.1c-0.6,0.8-1.4,1.2-2.5,1.2c-0.7,0-1.2-0.1-1.6-0.4
		c-0.2-0.2-0.5-0.4-0.8-0.8v1h-2.1v-11h2.1v3.9c0.3-0.4,0.6-0.7,0.9-0.9c0.4-0.2,0.9-0.4,1.5-0.4C67.2,139.3,68,139.7,68.7,140.5z
		 M66.9,145.4c0.3-0.4,0.5-1,0.5-1.7c0-0.6-0.1-1.1-0.2-1.4c-0.3-0.7-0.8-1.1-1.6-1.1c-0.8,0-1.3,0.4-1.6,1.1
		c-0.2,0.4-0.2,0.9-0.2,1.4c0,0.7,0.2,1.3,0.5,1.7c0.3,0.5,0.8,0.7,1.4,0.7C66.1,146.1,66.6,145.9,66.9,145.4z"/>
	<path class="st0" d="M73.2,147.6h-2.1v-11h2.1V147.6z"/>
	<path class="st0" d="M80.6,139.7c0.6,0.3,1,0.7,1.4,1.2c0.3,0.5,0.5,1,0.6,1.7c0.1,0.4,0.1,0.9,0.1,1.6h-5.9c0,0.8,0.3,1.4,0.9,1.7
		c0.3,0.2,0.7,0.3,1.2,0.3c0.5,0,0.9-0.1,1.2-0.4c0.2-0.1,0.3-0.3,0.4-0.6h2.2c-0.1,0.5-0.3,1-0.8,1.5c-0.7,0.8-1.7,1.2-3.1,1.2
		c-1.1,0-2-0.3-2.9-1c-0.8-0.7-1.2-1.8-1.2-3.3c0-1.4,0.4-2.5,1.1-3.2c0.7-0.8,1.7-1.1,2.9-1.1C79.4,139.3,80,139.4,80.6,139.7z
		 M77.4,141.5c-0.3,0.3-0.5,0.7-0.6,1.3h3.7c0-0.6-0.2-1-0.6-1.3c-0.3-0.3-0.8-0.4-1.3-0.4C78.1,141,77.7,141.2,77.4,141.5z"/>
	<path class="st0" d="M92.9,142.4c0-0.3-0.1-0.6-0.3-0.8c-0.2-0.3-0.6-0.5-1.1-0.5c-0.7,0-1.2,0.4-1.5,1.1c-0.1,0.4-0.2,0.9-0.2,1.5
		c0,0.6,0.1,1.1,0.2,1.4c0.3,0.7,0.7,1,1.4,1c0.5,0,0.9-0.1,1.1-0.4s0.3-0.6,0.4-1h2.2c-0.1,0.6-0.3,1.3-0.7,1.8
		c-0.7,0.9-1.7,1.4-3,1.4c-1.3,0-2.3-0.4-2.9-1.2s-0.9-1.8-0.9-3c0-1.4,0.3-2.5,1-3.3s1.6-1.2,2.8-1.2c1,0,1.9,0.2,2.5,0.7
		c0.6,0.5,1,1.3,1.2,2.4H92.9z"/>
	<path class="st0" d="M98.7,147.6h-2.1v-11h2.1V147.6z"/>
	<path class="st0" d="M103,138.5h-2.2v-2h2.2V138.5z M100.8,139.5h2.2v8.1h-2.2V139.5z"/>
	<path class="st0" d="M109.9,142.4c0-0.3-0.1-0.6-0.3-0.8c-0.2-0.3-0.6-0.5-1.1-0.5c-0.7,0-1.2,0.4-1.5,1.1
		c-0.1,0.4-0.2,0.9-0.2,1.5c0,0.6,0.1,1.1,0.2,1.4c0.3,0.7,0.7,1,1.4,1c0.5,0,0.9-0.1,1.1-0.4c0.2-0.3,0.3-0.6,0.4-1h2.2
		c0,0.6-0.3,1.3-0.7,1.8c-0.7,0.9-1.7,1.4-3,1.4c-1.3,0-2.3-0.4-2.9-1.2c-0.6-0.8-0.9-1.8-0.9-3c0-1.4,0.3-2.5,1-3.3
		s1.6-1.2,2.8-1.2c1,0,1.9,0.2,2.5,0.7c0.6,0.5,1,1.3,1.2,2.4H109.9z"/>
	<path class="st0" d="M113.5,136.7h2.1v5.9l2.7-3.1h2.6l-2.9,3l3,5.1h-2.6l-2-3.5l-0.9,0.9v2.6h-2.1V136.7z"/>
	<path class="st0" d="M125.5,141.1v-1.5h1.1v-2.3h2.1v2.3h1.3v1.5h-1.3v4.3c0,0.3,0,0.5,0.1,0.6s0.3,0.1,0.8,0.1c0.1,0,0.1,0,0.2,0
		c0.1,0,0.1,0,0.2,0v1.6l-1,0c-1,0-1.7-0.1-2.1-0.5c-0.2-0.2-0.4-0.6-0.4-1.1v-5H125.5z"/>
	<path class="st0" d="M138.2,146.6c-0.7,0.8-1.7,1.3-3.1,1.3s-2.4-0.4-3.1-1.3c-0.7-0.8-1-1.9-1-3.1c0-1.2,0.3-2.2,1-3
		c0.7-0.9,1.7-1.3,3.1-1.3s2.4,0.4,3.1,1.3s1,1.9,1,3C139.2,144.8,138.9,145.8,138.2,146.6z M136.5,145.5c0.3-0.4,0.5-1.1,0.5-1.9
		c0-0.8-0.2-1.4-0.5-1.9c-0.3-0.4-0.8-0.7-1.4-0.7s-1.1,0.2-1.4,0.7s-0.5,1.1-0.5,1.9c0,0.8,0.2,1.4,0.5,1.9s0.8,0.7,1.4,0.7
		S136.1,145.9,136.5,145.5z"/>
	<path class="st0" d="M149,139.5c0.5,0.2,0.9,0.6,1.3,1.2v-1.2h2.1v7.7c0,1-0.2,1.8-0.5,2.4c-0.6,0.9-1.8,1.4-3.5,1.4
		c-1,0-1.9-0.2-2.5-0.6c-0.7-0.4-1-1-1.1-1.8h2.3c0.1,0.2,0.2,0.4,0.3,0.5c0.2,0.2,0.6,0.3,1.2,0.3c0.8,0,1.3-0.3,1.5-0.8
		c0.2-0.3,0.3-0.9,0.3-1.7v-0.5c-0.2,0.3-0.4,0.6-0.7,0.8c-0.4,0.3-1,0.5-1.7,0.5c-1,0-1.9-0.4-2.5-1.1c-0.6-0.7-0.9-1.7-0.9-3
		c0-1.2,0.3-2.2,0.9-3c0.6-0.8,1.5-1.2,2.6-1.2C148.3,139.3,148.7,139.4,149,139.5z M149.7,145.3c0.3-0.4,0.5-1,0.5-1.8
		c0-0.8-0.2-1.4-0.5-1.8c-0.3-0.4-0.8-0.6-1.3-0.6c-0.7,0-1.3,0.4-1.5,1.1c-0.1,0.4-0.2,0.8-0.2,1.4c0,0.5,0.1,0.9,0.2,1.3
		c0.3,0.7,0.8,1,1.5,1C149,145.9,149.4,145.7,149.7,145.3z"/>
	<path class="st0" d="M161.1,146.6c-0.7,0.8-1.7,1.3-3.1,1.3s-2.4-0.4-3.1-1.3c-0.7-0.8-1-1.9-1-3.1c0-1.2,0.3-2.2,1-3
		c0.7-0.9,1.7-1.3,3.1-1.3s2.4,0.4,3.1,1.3s1,1.9,1,3C162.1,144.8,161.8,145.8,161.1,146.6z M159.4,145.5c0.3-0.4,0.5-1.1,0.5-1.9
		c0-0.8-0.2-1.4-0.5-1.9c-0.3-0.4-0.8-0.7-1.4-0.7s-1.1,0.2-1.4,0.7s-0.5,1.1-0.5,1.9c0,0.8,0.2,1.4,0.5,1.9s0.8,0.7,1.4,0.7
		S159.1,145.9,159.4,145.5z"/>
	<path class="st0" d="M47.7,158.5v-1.4c0.7,0,1.1-0.1,1.4-0.1c0.4-0.1,0.8-0.3,1-0.6c0.2-0.2,0.3-0.5,0.4-0.8
		c0.1-0.2,0.1-0.3,0.1-0.4h1.8V166h-2.2v-7.5H47.7z"/>
	<path class="st0" d="M62.3,156.5c0.6,1,0.8,2.3,0.8,4.1c0,1.8-0.3,3.2-0.8,4.1c-0.6,1-1.5,1.4-2.9,1.4c-1.4,0-2.3-0.5-2.9-1.4
		c-0.6-1-0.8-2.3-0.8-4.1c0-1.8,0.3-3.2,0.8-4.1s1.5-1.5,2.9-1.5C60.8,155.1,61.7,155.6,62.3,156.5z M58.1,163.5
		c0.2,0.7,0.6,1,1.3,1c0.6,0,1-0.3,1.2-1s0.3-1.6,0.3-2.9c0-1.3-0.1-2.3-0.3-2.9s-0.6-0.9-1.2-0.9c-0.6,0-1.1,0.3-1.3,0.9
		s-0.3,1.6-0.3,2.9C57.8,161.9,57.9,162.9,58.1,163.5z"/>
	<path class="st0" d="M66.3,163.4c0,0.4,0.1,0.6,0.3,0.8c0.3,0.3,0.8,0.4,1.5,0.4c0.4,0,0.8-0.1,1-0.2s0.4-0.3,0.4-0.6
		c0-0.2-0.1-0.4-0.3-0.5c-0.2-0.1-0.9-0.3-2.2-0.6c-0.9-0.2-1.6-0.5-2-0.9c-0.4-0.3-0.6-0.8-0.6-1.5c0-0.8,0.3-1.4,0.9-1.9
		c0.6-0.5,1.4-0.8,2.5-0.8c1,0,1.8,0.2,2.5,0.6c0.6,0.4,1,1.1,1.1,2.1h-2.1c0-0.3-0.1-0.5-0.2-0.6c-0.2-0.3-0.6-0.4-1.2-0.4
		c-0.5,0-0.8,0.1-1,0.2s-0.3,0.3-0.3,0.5c0,0.2,0.1,0.4,0.3,0.5c0.2,0.1,1,0.3,2.2,0.6c0.8,0.2,1.5,0.5,1.9,0.9
		c0.4,0.4,0.6,0.9,0.6,1.5c0,0.8-0.3,1.5-0.9,2c-0.6,0.5-1.5,0.8-2.8,0.8c-1.3,0-2.2-0.3-2.8-0.8c-0.6-0.5-0.9-1.2-0.9-2.1H66.3z"/>
	<path class="st0" d="M84.4,158.8c0.6,0.8,0.9,1.8,0.9,3c0,1.3-0.3,2.3-0.9,3.1c-0.6,0.8-1.4,1.2-2.5,1.2c-0.7,0-1.2-0.1-1.6-0.4
		c-0.2-0.2-0.5-0.4-0.8-0.8v1h-2.1v-11h2.1v3.9c0.3-0.4,0.6-0.7,0.9-0.9c0.4-0.2,0.9-0.4,1.5-0.4C82.9,157.7,83.8,158.1,84.4,158.8z
		 M82.6,163.8c0.3-0.4,0.5-1,0.5-1.7c0-0.6-0.1-1.1-0.2-1.4c-0.3-0.7-0.8-1.1-1.6-1.1c-0.8,0-1.3,0.4-1.6,1.1
		c-0.2,0.4-0.2,0.9-0.2,1.4c0,0.7,0.2,1.3,0.5,1.7s0.8,0.7,1.4,0.7C81.9,164.5,82.3,164.2,82.6,163.8z"/>
	<path class="st0" d="M90,161c0.4,0,0.7-0.1,0.8-0.2c0.3-0.1,0.5-0.3,0.5-0.6c0-0.3-0.1-0.6-0.4-0.7c-0.2-0.1-0.6-0.2-1-0.2
		c-0.5,0-0.9,0.1-1.1,0.4c-0.2,0.2-0.3,0.4-0.3,0.7h-2.1c0-0.7,0.2-1.3,0.6-1.8c0.6-0.7,1.5-1.1,2.9-1.1c0.9,0,1.7,0.2,2.4,0.5
		c0.7,0.4,1,1,1,2v3.7c0,0.3,0,0.6,0,0.9c0,0.3,0.1,0.5,0.1,0.6c0.1,0.1,0.2,0.2,0.3,0.2v0.3h-2.3c-0.1-0.2-0.1-0.3-0.1-0.5
		s0-0.3-0.1-0.5c-0.3,0.3-0.6,0.6-1,0.8c-0.5,0.3-1,0.4-1.6,0.4c-0.7,0-1.4-0.2-1.8-0.6c-0.5-0.4-0.7-1-0.7-1.8c0-1,0.4-1.7,1.2-2.2
		c0.4-0.2,1.1-0.4,1.9-0.5L90,161z M91.3,162c-0.1,0.1-0.3,0.2-0.4,0.2c-0.1,0.1-0.3,0.1-0.6,0.1l-0.5,0.1c-0.5,0.1-0.8,0.2-1,0.3
		c-0.3,0.2-0.5,0.5-0.5,0.9c0,0.4,0.1,0.6,0.3,0.8c0.2,0.2,0.5,0.2,0.7,0.2c0.5,0,0.9-0.1,1.3-0.4s0.6-0.8,0.6-1.5V162z"/>
	<path class="st0" d="M100.1,160.8c0-0.3-0.1-0.6-0.3-0.8c-0.2-0.3-0.6-0.5-1.1-0.5c-0.7,0-1.2,0.4-1.5,1.1
		c-0.1,0.4-0.2,0.9-0.2,1.5c0,0.6,0.1,1.1,0.2,1.4c0.3,0.7,0.7,1,1.4,1c0.5,0,0.9-0.1,1.1-0.4s0.3-0.6,0.4-1h2.2
		c-0.1,0.6-0.3,1.3-0.7,1.8c-0.7,0.9-1.7,1.4-3,1.4s-2.3-0.4-2.9-1.2s-0.9-1.8-0.9-3c0-1.4,0.3-2.5,1-3.3s1.6-1.2,2.8-1.2
		c1,0,1.9,0.2,2.5,0.7c0.7,0.5,1,1.3,1.2,2.4H100.1z"/>
	<path class="st0" d="M103.8,155h2.1v5.9l2.7-3.1h2.6l-2.9,3l3,5.1h-2.6l-2-3.5l-0.9,0.9v2.6h-2.1V155z"/>
	<path class="st0" d="M116.1,157.9h2.2l1.2,5.9l1.3-5.9h2.2l-2.4,8.1h-2.2l-1.3-5.9l-1.3,5.9h-2.2l-2.3-8.1h2.3l1.3,5.8L116.1,157.9
		z"/>
	<path class="st0" d="M127.4,161c0.4,0,0.7-0.1,0.8-0.2c0.3-0.1,0.5-0.3,0.5-0.6c0-0.3-0.1-0.6-0.4-0.7s-0.6-0.2-1-0.2
		c-0.5,0-0.9,0.1-1.1,0.4c-0.2,0.2-0.3,0.4-0.3,0.7h-2.1c0-0.7,0.2-1.3,0.6-1.8c0.6-0.7,1.5-1.1,2.9-1.1c0.9,0,1.7,0.2,2.4,0.5
		c0.7,0.4,1,1,1,2v3.7c0,0.3,0,0.6,0,0.9c0,0.3,0.1,0.5,0.1,0.6s0.2,0.2,0.3,0.2v0.3H129c-0.1-0.2-0.1-0.3-0.1-0.5
		c0-0.1,0-0.3-0.1-0.5c-0.3,0.3-0.6,0.6-1,0.8c-0.5,0.3-1,0.4-1.6,0.4c-0.7,0-1.4-0.2-1.8-0.6s-0.7-1-0.7-1.8c0-1,0.4-1.7,1.2-2.2
		c0.4-0.2,1.1-0.4,1.9-0.5L127.4,161z M128.7,162c-0.1,0.1-0.3,0.2-0.4,0.2c-0.1,0.1-0.3,0.1-0.6,0.1l-0.5,0.1
		c-0.5,0.1-0.8,0.2-1,0.3c-0.3,0.2-0.5,0.5-0.5,0.9c0,0.4,0.1,0.6,0.3,0.8c0.2,0.2,0.5,0.2,0.7,0.2c0.5,0,0.9-0.1,1.3-0.4
		c0.4-0.3,0.6-0.8,0.6-1.5V162z"/>
	<path class="st0" d="M137.2,157.7c0,0,0.1,0,0.2,0v2.2c-0.1,0-0.3,0-0.4,0s-0.2,0-0.3,0c-0.9,0-1.4,0.3-1.7,0.8
		c-0.2,0.3-0.2,0.8-0.2,1.4v3.9h-2.1v-8.1h2v1.4c0.3-0.5,0.6-0.9,0.9-1.1c0.4-0.3,0.9-0.5,1.6-0.5
		C137.1,157.7,137.2,157.7,137.2,157.7z"/>
	<path class="st0" d="M142.9,158c0.4,0.2,0.7,0.5,0.9,0.9V155h2.2v11H144v-1.1c-0.3,0.5-0.6,0.8-1,1.1c-0.4,0.2-0.9,0.3-1.4,0.3
		c-1,0-1.8-0.4-2.4-1.2s-1-1.8-1-3c0-1.4,0.3-2.5,1-3.3c0.6-0.8,1.5-1.2,2.6-1.2C142.1,157.7,142.6,157.8,142.9,158z M143.5,163.8
		c0.3-0.4,0.5-1,0.5-1.7c0-1-0.3-1.7-0.8-2.1c-0.3-0.3-0.7-0.4-1.1-0.4c-0.6,0-1.1,0.2-1.4,0.7c-0.3,0.5-0.4,1.1-0.4,1.8
		c0,0.8,0.1,1.4,0.4,1.8c0.3,0.5,0.7,0.7,1.3,0.7C142.7,164.5,143.1,164.2,143.5,163.8z"/>
</g>
</svg>
