<?xml version="1.0" encoding="utf-8"?>
<!-- Generator: Adobe Illustrator 25.0.1, SVG Export Plug-In . SVG Version: 6.00 Build 0)  -->
<svg version="1.1"
	 id="Camada_1" xmlns:cc="http://creativecommons.org/ns#" xmlns:dc="http://purl.org/dc/elements/1.1/" xmlns:inkscape="http://www.inkscape.org/namespaces/inkscape" xmlns:rdf="http://www.w3.org/1999/02/22-rdf-syntax-ns#" xmlns:sodipodi="http://sodipodi.sourceforge.net/DTD/sodipodi-0.dtd" xmlns:svg="http://www.w3.org/2000/svg"
	 xmlns="http://www.w3.org/2000/svg" xmlns:xlink="http://www.w3.org/1999/xlink" x="0px" y="0px" viewBox="0 0 14.8 14.9"
	 style="enable-background:new 0 0 14.8 14.9;" xml:space="preserve">
<style type="text/css">
	.st0{fill:#FFFFFF;}
</style>
<g transform="translate(0,-1036.3622)">
	<g transform="translate(-2.5265734,1.0312727)">
		<g transform="translate(1.2943666,-0.33897736)">
			<g transform="matrix(-1,0,0,-1,17.257575,2087.526)">
				<path class="st0" d="M13.5,1051.9l0.3-1l0.9-3l-4.2,0v0l1.1,1.5c-1.4,0.8-3.2,1.1-4.8,0.6c-1.8-0.6-3.2-1.9-3.9-3.7l-0.9,0.3
					c0.8,2.1,2.4,3.7,4.5,4.3c1.1,0.3,2.1,0.4,3.2,0.2c0.9-0.1,1.7-0.5,2.5-0.9L13.5,1051.9z M15.3,1046.3l0.1-0.1l0,0l0,0l0.2-0.8
					l-1-0.2l-0.2,0.8l0,0.1L15.3,1046.3z M1.7,1044.8l1,0l0-1l-1,0L1.7,1044.8z M15.6,1044.2l0-0.1l0,0l0,0l-0.1-0.9l-1,0.1l0.1,0.8
					l0,0.1L15.6,1044.2z M2.8,1042.9L3,1042l-0.5-0.1l-0.5-0.2l0,0l0,0l-0.3,0.9l0,0l0,0l0,0l0.6,0.1L2.8,1042.9z M14.3,1042.3
					l1-0.3l0-0.1l0,0l0,0l-0.4-0.8l-0.9,0.4L14.3,1042.3L14.3,1042.3z M3.4,1041.2l0.5-0.8l0,0h0l0,0l-0.2-0.1l-0.6-0.5l0,0l0,0l0,0
					l-0.5,0.8L3.4,1041.2z M13.5,1040.6L13.5,1040.6L13.5,1040.6L13.5,1040.6l0.8-0.5l0-0.1l0,0l0,0l-0.6-0.7l-0.8,0.7L13.5,1040.6
					L13.5,1040.6z M4.5,1039.8l0.7-0.6l0,0l0,0l-0.1-0.1l-0.4-0.8l-0.1,0l0,0l0,0l-0.7,0.6L4.5,1039.8z M12.2,1039.3l0.6-0.8
					l-0.1-0.1l0,0l0,0l-0.8-0.5l-0.5,0.9L12.2,1039.3L12.2,1039.3z M6.1,1038.8l0.9-0.4l-0.1-0.3l-0.1-0.7l0,0l0,0l0,0l-0.9,0.3
					L6.1,1038.8z M10.6,1038.5l0.4-0.9l-0.1,0l0,0l0,0l-0.9-0.2l-0.2,1L10.6,1038.5L10.6,1038.5z M7.8,1038.2l0.9-0.1h0h0l0-0.2
					l0.1-0.8h0h0h0l-1,0.1L7.8,1038.2z"/>
			</g>
		</g>
	</g>
</g>
<g>
	<path class="st0" d="M4.9,10.8V6.4C4.6,6.6,4.1,6.7,3.8,6.7V5.8C4.4,5.6,4.9,5.3,5.3,5h0.9v5.8H4.9z"/>
	<path class="st0" d="M11.1,7.9c0,1.6-0.5,3.1-2.2,3.1c-1.7,0-2.2-1.4-2.2-3c0-1.6,0.6-3,2.3-3C10.5,4.9,11.1,6.2,11.1,7.9z
		 M7.9,7.9c0,1.1,0.1,2,0.9,2c0.8,0,0.9-0.9,0.9-2c0-1.1-0.1-2-0.9-2C8.1,5.9,7.9,6.6,7.9,7.9z"/>
</g>
</svg>
