<?xml version="1.0" encoding="utf-8"?>
<!-- Generator: Adobe Illustrator 25.0.1, SVG Export Plug-In . SVG Version: 6.00 Build 0)  -->
<svg version="1.1" id="Camada_1" xmlns="http://www.w3.org/2000/svg" xmlns:xlink="http://www.w3.org/1999/xlink" x="0px" y="0px"
	 viewBox="0 0 49.2 44" style="enable-background:new 0 0 49.2 44;" xml:space="preserve">
<style type="text/css">
	.st0{fill:#F86464;stroke:#FFFFFF;stroke-width:3;stroke-miterlimit:10;}
	.st1{enable-background:new    ;}
	.st2{fill:#FFFFFF;}
</style>
<g id="Grupo_1998" transform="translate(-32 -628)">
	<path class="st0" d="M77.2,670.5H36c-0.9,0-1.7-0.5-2.2-1.2c-0.5-0.8-0.5-1.7,0-2.5l20.6-36c0.5-0.8,1.3-1.3,2.2-1.3
		c0.9,0,1.7,0.5,2.2,1.3l20.6,36c0.4,0.8,0.4,1.7,0,2.5C78.9,670,78.1,670.5,77.2,670.5z"/>
	<g class="st1">
		<path class="st2" d="M55.5,657.7c-0.3-0.3-0.5-0.7-0.6-1.3l-1.6-12.6c0-0.1,0-0.3,0-0.5c0-0.9,0.3-1.6,0.9-2.1
			c0.6-0.5,1.4-0.8,2.3-0.8c0.9,0,1.7,0.3,2.3,0.8c0.6,0.5,0.9,1.2,0.9,2.2c0,0.2,0,0.4,0,0.5l-1.6,12.6c0,0.6-0.2,1-0.5,1.3
			s-0.7,0.4-1.1,0.4C56.2,658.1,55.8,658,55.5,657.7z M54.4,665.3c-0.6-0.6-0.9-1.3-0.9-2.2s0.3-1.6,0.9-2.2
			c0.6-0.6,1.3-0.9,2.2-0.9c0.9,0,1.6,0.3,2.2,0.9s0.9,1.3,0.9,2.2s-0.3,1.6-0.9,2.2c-0.6,0.6-1.3,0.9-2.2,0.9
			C55.7,666.2,55,665.9,54.4,665.3z"/>
	</g>
</g>
</svg>
