<?xml version="1.0" encoding="utf-8"?>
<!-- Generator: Adobe Illustrator 25.0.1, SVG Export Plug-In . SVG Version: 6.00 Build 0)  -->
<svg version="1.1" id="Camada_1" xmlns="http://www.w3.org/2000/svg" xmlns:xlink="http://www.w3.org/1999/xlink" x="0px" y="0px"
	 viewBox="0 0 66 63.5" style="enable-background:new 0 0 66 63.5;" xml:space="preserve">
<style type="text/css">
	.st0{fill:#FFEA65;}
	.st1{fill:#FED223;}
	.st2{fill:#994C0F;}
	.st3{fill:#713708;}
	.st4{filter:url(#_1_Cuukies);}
	.st5{font-family:'Nunito-ExtraBold';}
	.st6{font-size:14px;}
</style>
<filter  filterUnits="userSpaceOnUse" height="46" id="_1_Cuukies" width="66" x="0" y="17.5">
	<feOffset  dx="3" dy="3" input="SourceAlpha"></feOffset>
	<feGaussianBlur  result="blur" stdDeviation="2.5"></feGaussianBlur>
	<feFlood  flood-opacity="0.161"></feFlood>
	<feComposite  in2="blur" operator="in"></feComposite>
	<feComposite  in="SourceGraphic" operator="over"></feComposite>
</filter>
<g id="Cuukie" transform="translate(-232.5 -420)">
	<path id="Caminho_1480" class="st0" d="M295.9,437.2c-1.4-0.5-2.3-1.8-2.3-3.3c0-0.2-0.1-0.5-0.3-0.6c-0.2-0.1-0.4-0.2-0.6-0.2
		c-1.1,0.2-2.3-0.1-3.2-0.9c-0.9-0.7-1.5-1.8-1.6-2.9c0-0.2-0.1-0.4-0.3-0.5c-0.2-0.1-0.4-0.1-0.6-0.1c-1.8,0.6-3.8-0.4-4.4-2.2
		c-0.1-0.3-0.5-0.5-0.8-0.4c-2.7,0.7-5.1,2.2-6.8,4.4c-3.8,4.8-3.5,11.7,0.9,16.1c4.7,4.7,12.2,4.7,16.9,0c0,0,0,0,0,0
		c2.3-2.3,3.6-5.3,3.6-8.6C296.3,437.7,296.3,437.4,295.9,437.2z"/>
	<path id="Caminho_1481" class="st1" d="M296.4,438.1c0,3.2-1.3,6.3-3.6,8.6c-4.7,4.7-12.2,4.7-16.9,0c0,0,0,0,0,0l13.7-14.4
		c0.9,0.7,2,1,3.2,0.9c0.2,0,0.4,0,0.6,0.2c0.2,0.1,0.3,0.4,0.3,0.6c0,1.5,0.9,2.8,2.3,3.3C296.3,437.3,296.3,437.7,296.4,438.1z"/>
	<path id="Caminho_1482" class="st2" d="M281.4,440.8c-0.4-0.3-0.8-0.5-1.3-0.5c-1.2,0-2.1,0.9-2.1,2.1c0,0,0,0,0,0
		c0,1.2,1,2.1,2.1,2.1c1.2,0,2.1-0.9,2.1-2.1c0,0,0,0,0,0C282.2,441.8,281.9,441.2,281.4,440.8z"/>
	<g id="Grupo_599" transform="translate(263.155 429.95)">
		<path id="Caminho_1483" class="st3" d="M24,10.4c-1.2,0-2.1-0.9-2.1-2.1s0.9-2.1,2.1-2.1s2.1,0.9,2.1,2.1l0,0
			C26.1,9.4,25.1,10.4,24,10.4z"/>
		<path id="Caminho_1484" class="st3" d="M23.3,16c-0.8,0-1.4-0.6-1.4-1.4c0-0.8,0.6-1.4,1.4-1.4c0.8,0,1.4,0.6,1.4,1.4c0,0,0,0,0,0
			C24.7,15.4,24,16,23.3,16z"/>
	</g>
	<path id="Caminho_1485" class="st2" d="M280.8,436.1c-0.8,0-1.4-0.6-1.4-1.4c0-0.8,0.6-1.4,1.4-1.4s1.4,0.6,1.4,1.4
		C282.2,435.5,281.6,436.1,280.8,436.1z"/>
	<ellipse id="Elipse_187" class="st3" cx="291.3" cy="441.1" rx="0.7" ry="0.7"/>
	<ellipse id="Elipse_188" class="st2" cx="277.2" cy="438.3" rx="0.7" ry="0.7"/>
	<path id="Caminho_1486" class="st3" d="M282.2,442.4c0,1.2-0.9,2.1-2.1,2.1c0,0,0,0,0,0c-0.6,0-1.2-0.3-1.6-0.7l2.9-3
		C281.9,441.2,282.2,441.8,282.2,442.4z"/>
	<g transform="matrix(1, 0, 0, 1, 232.5, 420)" class="st4">
		<text transform="matrix(1 0 0 1 18.055 42.1519)" class="st0 st5 st6">+1</text>
		<text transform="matrix(1 0 0 1 1.1429 54.1519)" class="st0 st5 st6">Cuukies</text>
	</g>
</g>
</svg>
