<?xml version="1.0" encoding="utf-8"?>
<!-- Generator: Adobe Illustrator 25.0.1, SVG Export Plug-In . SVG Version: 6.00 Build 0)  -->
<svg version="1.1" id="Camada_1" xmlns="http://www.w3.org/2000/svg" xmlns:xlink="http://www.w3.org/1999/xlink" x="0px" y="0px"
	 viewBox="0 0 51 63.5" style="enable-background:new 0 0 51 63.5;" xml:space="preserve">
<style type="text/css">
	.st0{fill:#FFFFFF;}
	.st1{fill:#EDEDED;}
	.st2{fill:#BFBFBF;}
	.st3{filter:url(#_1_Level);}
	.st4{font-family:'Nunito-ExtraBold';}
	.st5{font-size:14px;}
</style>
<filter  filterUnits="userSpaceOnUse" height="46" id="_1_Level" width="51" x="0" y="17.5">
	<feOffset  dx="3" dy="3" input="SourceAlpha"></feOffset>
	<feGaussianBlur  result="blur" stdDeviation="2.5"></feGaussianBlur>
	<feFlood  flood-opacity="0.161"></feFlood>
	<feComposite  in2="blur" operator="in"></feComposite>
	<feComposite  in="SourceGraphic" operator="over"></feComposite>
</filter>
<g id="Level" transform="translate(-84 -420)">
	<path id="Caminho_1458" class="st0" d="M127.7,430.5c-0.5-1.4-1.4-2.6-2.5-3.4c-2.7-2.1-6.6-2.1-9.3,0c-1.1,0.9-2,2.1-2.5,3.4
		c-3,0.1-5.5,2.6-5.4,5.6c0.1,2.7,2,4.9,4.6,5.3v3.1h15.9v-3.1c3-0.5,5-3.3,4.5-6.3C132.7,432.5,130.4,430.5,127.7,430.5
		L127.7,430.5z"/>
	<path id="Caminho_1459" class="st1" d="M127.7,430.5c-0.5-1.4-1.4-2.6-2.5-3.4c-1.3-1-3-1.6-4.7-1.6l0,0v19.1h8v-3.1
		c3-0.5,5-3.3,4.5-6.3C132.7,432.5,130.4,430.5,127.7,430.5L127.7,430.5z"/>
	<g id="Grupo_592" transform="translate(98.867 438.71)">
		<path id="Caminho_1460" class="st1" d="M28.9,10.1H14.5c-0.4,0-0.7-0.3-0.7-0.7V5.5h15.9v3.9C29.7,9.8,29.3,10.1,28.9,10.1z"/>
	</g>
	<path id="Caminho_1461" class="st2" d="M120.6,444.2v4.7h7.2c0.4,0,0.7-0.3,0.7-0.7v-3.9H120.6z"/>
	<g transform="matrix(1, 0, 0, 1, 84, 420)" class="st3">
		<text transform="matrix(1 0 0 1 9.9509 41.4754)" class="st0 st4 st5">+1</text>
		<text transform="matrix(1 0 0 1 1.8309 53.4754)" class="st0 st4 st5">Level</text>
	</g>
</g>
</svg>
