<svg xmlns="http://www.w3.org/2000/svg" width="330.246" height="160.323" viewBox="0 0 330.246 160.323">
  <path id="Caminho_658" data-name="Caminho 658" d="M178.185,177.105c7.029,15.875-1.937,34.156-12.491,47.922-3.532,4.616-7.432,9.455-7.922,15.245-.591,7.083,4.206,13.593,9.895,17.849a41.664,41.664,0,0,0,36.9,6.24c10.672-3.381,19.645-11.018,30.411-14.1,18-5.156,37.087,3.392,52.505,14.043,10.914,7.529,22.6,16.7,35.758,15.091,9.257-1.134,17.114-7.633,22.447-15.285,2.575-3.694,4.814-7.835,8.562-10.327a21.434,21.434,0,0,1,7.464-2.83c23.9-5.109,49.275,7.36,72.863.947,15.933-4.321,28.636-16.923,36.536-31.423s11.587-30.872,14.658-47.093c2.182-11.522,3.993-23.97-1.023-34.567-5.307-11.22-17.593-18.021-29.94-19.3s-24.729,2.243-36.1,7.2c-14.212,6.215-28.143,14.914-43.655,14.943-10.564.022-20.639-4.033-30.739-7.126-16.887-5.167-34.448-7.734-51.947-10.1-16.754-2.268-33.674-4.378-50.528-3.039-11.925.947-22.457,5.505-34.03,7.615-7.543,1.375-15.123.36-22.526,2.665-9.117,2.852-18.493,9.459-19,19.865C165.809,161.453,174.458,168.683,178.185,177.105Z" transform="translate(-157.723 -119.26)" fill="#f86464" opacity="0.1"/>
</svg>
