<svg xmlns="http://www.w3.org/2000/svg" width="108.293" height="120.412" viewBox="0 0 108.293 120.412">
  <g id="Gift" transform="matrix(0.875, 0.485, -0.485, 0.875, 268.366, -2939.531)">
    <path id="Caminho_1087" data-name="Caminho 1087" d="M787.128,670.643H719.233a3.14,3.14,0,0,1-3.136-3.136v-63.1a3.14,3.14,0,0,1,3.136-3.136h67.895a3.14,3.14,0,0,1,3.136,3.136v63.1A3.14,3.14,0,0,1,787.128,670.643Z" transform="translate(515.242 2104.301)" fill="#f86464"/>
    <g id="box_1" data-name="box 1" transform="translate(4210.49 2921.583) rotate(120)" opacity="0">
      <rect id="Retângulo_460" data-name="Retângulo 460" width="16.706" height="16.706" transform="translate(1257.027 2642.115) rotate(-30)" fill="#ff6584"/>
      <path id="Caminho_1085" data-name="Caminho 1085" d="M810.5,435.927l-8.722-15.107,15.107-8.722,8.722,15.107Zm-7.714-14.837,7.984,13.829,13.829-7.984-7.984-13.829Z" transform="translate(461.177 2223.671)" fill="#2f2e41"/>
    </g>
    <g id="box_3" data-name="box 3" transform="matrix(-0.966, -0.259, 0.259, -0.966, 1800.054, 5675.57)" opacity="0">
      <circle id="Elipse_125" data-name="Elipse 125" cx="7.011" cy="7.011" r="7.011" transform="translate(1251.131 2686.171)" fill="#d0cde1"/>
      <path id="Caminho_1086" data-name="Caminho 1086" d="M790.115,562.452a7.38,7.38,0,1,1,7.38-7.38A7.38,7.38,0,0,1,790.115,562.452Zm0-14.022a6.642,6.642,0,1,0,6.642,6.642A6.642,6.642,0,0,0,790.115,548.43Z" transform="translate(473.193 2138.11)" fill="#2f2e41"/>
    </g>
    <path id="Caminho_1088" data-name="Caminho 1088" d="M807.826,669.653h-9.594a3.14,3.14,0,0,1-3.136-3.136V599.328a3.14,3.14,0,0,1,3.136-3.136h9.594a3.14,3.14,0,0,1,3.136,3.136v67.188a3.14,3.14,0,0,1-3.136,3.137Z" transform="translate(465.393 2107.506)" fill="#3f3d56"/>
    <path id="Caminho_1089" data-name="Caminho 1089" d="M928.488,563.307c-.4,6.509-9.189,11.27-9.189,11.27s-8.15-5.793-7.753-12.3,9.189-11.27,9.189-11.27S928.884,556.8,928.488,563.307Z" transform="translate(257.323 3092.544) rotate(-53)" fill="#3f3d56"/>
    <path id="Caminho_1090" data-name="Caminho 1090" d="M939.242,610.385c-6.51-.376-11.3-9.154-11.3-9.154s5.768-8.168,12.278-7.791,11.3,9.154,11.3,9.154S945.753,610.761,939.242,610.385Z" transform="translate(229.713 3084.706) rotate(-53)" fill="#3f3d56"/>
    <path id="Caminho_1091" data-name="Caminho 1091" d="M730.643,551.785l-5.968,4.5L680.04,497.049l6.893-5.195Z" transform="matrix(0.602, -0.799, 0.799, 0.602, 425.12, 2967.473)" opacity="0.1"/>
    <path id="Caminho_1092" data-name="Caminho 1092" d="M880.99,601.025a3.133,3.133,0,0,1-2.5-1.241L828.571,533.9a3.136,3.136,0,0,1,.606-4.394l7.353-5.571a3.136,3.136,0,0,1,4.394.606l49.916,65.88a3.137,3.137,0,0,1-.606,4.394l-7.353,5.571a3.119,3.119,0,0,1-1.89.635Z" transform="translate(303.03 3060.937) rotate(-53)" fill="#f86464"/>
    <rect id="Retângulo_461" data-name="Retângulo 461" width="15.867" height="15.867" transform="translate(1260.339 2720.045) rotate(-90)" fill="#3f3d56"/>
    <g id="box_2" data-name="box 2" transform="matrix(-0.966, 0.259, -0.259, -0.966, 3139.448, 4971.077)" opacity="0">
      <rect id="Retângulo_462" data-name="Retângulo 462" width="16.706" height="16.706" transform="matrix(0.259, -0.966, 0.966, 0.259, 1236.303, 2671.276)" fill="#d0cde1"/>
      <path id="Caminho_1093" data-name="Caminho 1093" d="M725.912,490.05l-16.849-4.515,4.515-16.85,16.849,4.515Zm-15.946-5.037,15.424,4.133,4.133-15.424L714.1,469.589Z" transform="translate(519.681 2187.964)" fill="#2f2e41"/>
    </g>
  </g>
</svg>
